<?xml version="1.0" encoding="UTF-8" standalone="no"?>
<!DOCTYPE svg PUBLIC "-//W3C//DTD SVG 1.1//EN"
 "http://www.w3.org/Graphics/SVG/1.1/DTD/svg11.dtd">
<!-- Generated by graphviz version 2.40.1 (20161225.0304)
 -->
<!-- Title: controllers_diagram Pages: 1 -->
<svg width="1070pt" height="1103pt"
 viewBox="0.00 0.00 1070.07 1103.00" xmlns="http://www.w3.org/2000/svg" xmlns:xlink="http://www.w3.org/1999/xlink">
<g id="graph0" class="graph" transform="scale(1 1) rotate(0) translate(4 1099)">
<title>controllers_diagram</title>
<polygon fill="transparent" stroke="transparent" points="-4,4 -4,-1099 1066.0654,-1099 1066.0654,4 -4,4"/>
<!-- _diagram_info -->
<g id="node1" class="node">
<title>_diagram_info</title>
<text text-anchor="start" x="674" y="-148.6" font-family="Times,serif" font-size="13.00" fill="#000000">Controllers diagram</text>
<text text-anchor="start" x="674" y="-135.6" font-family="Times,serif" font-size="13.00" fill="#000000">Date: Mar 10 2017 &#45; 14:32</text>
<text text-anchor="start" x="674" y="-122.6" font-family="Times,serif" font-size="13.00" fill="#000000">Migration version: 20170310212850</text>
<text text-anchor="start" x="674" y="-109.6" font-family="Times,serif" font-size="13.00" fill="#000000">Generated by RailRoady 1.5.2</text>
<text text-anchor="start" x="674" y="-96.6" font-family="Times,serif" font-size="13.00" fill="#000000">http://railroady.prestonlee.com</text>
</g>
<!-- ApplicationController -->
<g id="node2" class="node">
<title>ApplicationController</title>
<path fill="none" stroke="#000000" d="M354,-378.5C354,-378.5 531.0352,-378.5 531.0352,-378.5 537.0352,-378.5 543.0352,-384.5 543.0352,-390.5 543.0352,-390.5 543.0352,-582.5 543.0352,-582.5 543.0352,-588.5 537.0352,-594.5 531.0352,-594.5 531.0352,-594.5 354,-594.5 354,-594.5 348,-594.5 342,-588.5 342,-582.5 342,-582.5 342,-390.5 342,-390.5 342,-384.5 348,-378.5 354,-378.5"/>
<text text-anchor="middle" x="442.5176" y="-579.3" font-family="Times,serif" font-size="14.00" fill="#000000">ApplicationController</text>
<polyline fill="none" stroke="#000000" points="342,-572.5 543.0352,-572.5 "/>
<text text-anchor="start" x="350" y="-557.3" font-family="Times,serif" font-size="14.00" fill="#000000">unauthenticate!</text>
<text text-anchor="start" x="350" y="-543.3" font-family="Times,serif" font-size="14.00" fill="#000000">cors_preflight_check</text>
<text text-anchor="start" x="350" y="-529.3" font-family="Times,serif" font-size="14.00" fill="#000000">cors_set_access_control_headers</text>
<text text-anchor="start" x="350" y="-515.3" font-family="Times,serif" font-size="14.00" fill="#000000">current_user</text>
<text text-anchor="start" x="350" y="-501.3" font-family="Times,serif" font-size="14.00" fill="#000000">new_nonce</text>
<text text-anchor="start" x="350" y="-487.3" font-family="Times,serif" font-size="14.00" fill="#000000">redirect_to_identity_provider</text>
<text text-anchor="start" x="350" y="-473.3" font-family="Times,serif" font-size="14.00" fill="#000000">set_identity_from_session!</text>
<text text-anchor="start" x="350" y="-459.3" font-family="Times,serif" font-size="14.00" fill="#000000">set_options_from</text>
<text text-anchor="start" x="350" y="-445.3" font-family="Times,serif" font-size="14.00" fill="#000000">stored_nonce</text>
<text text-anchor="start" x="350" y="-431.3" font-family="Times,serif" font-size="14.00" fill="#000000">build_oauth_request</text>
<polyline fill="none" stroke="#000000" points="342,-424.5 543.0352,-424.5 "/>
<polyline fill="none" stroke="#000000" points="342,-400.5 543.0352,-400.5 "/>
<text text-anchor="start" x="350" y="-385.3" font-family="Times,serif" font-size="14.00" fill="#000000">_layout</text>
</g>
<!-- AppointmentsController -->
<g id="node3" class="node">
<title>AppointmentsController</title>
<path fill="none" stroke="#000000" d="M174,-486.5C174,-486.5 302.876,-486.5 302.876,-486.5 308.876,-486.5 314.876,-492.5 314.876,-498.5 314.876,-498.5 314.876,-648.5 314.876,-648.5 314.876,-654.5 308.876,-660.5 302.876,-660.5 302.876,-660.5 174,-660.5 174,-660.5 168,-660.5 162,-654.5 162,-648.5 162,-648.5 162,-498.5 162,-498.5 162,-492.5 168,-486.5 174,-486.5"/>
<text text-anchor="middle" x="238.438" y="-645.3" font-family="Times,serif" font-size="14.00" fill="#000000">AppointmentsController</text>
<polyline fill="none" stroke="#000000" points="162,-638.5 314.876,-638.5 "/>
<text text-anchor="start" x="170" y="-623.3" font-family="Times,serif" font-size="14.00" fill="#000000">create</text>
<text text-anchor="start" x="170" y="-609.3" font-family="Times,serif" font-size="14.00" fill="#000000">destroy</text>
<text text-anchor="start" x="170" y="-595.3" font-family="Times,serif" font-size="14.00" fill="#000000">index</text>
<text text-anchor="start" x="170" y="-581.3" font-family="Times,serif" font-size="14.00" fill="#000000">show</text>
<text text-anchor="start" x="170" y="-567.3" font-family="Times,serif" font-size="14.00" fill="#000000">update</text>
<polyline fill="none" stroke="#000000" points="162,-560.5 314.876,-560.5 "/>
<polyline fill="none" stroke="#000000" points="162,-536.5 314.876,-536.5 "/>
<text text-anchor="start" x="170" y="-521.3" font-family="Times,serif" font-size="14.00" fill="#000000">_layout</text>
<text text-anchor="start" x="170" y="-507.3" font-family="Times,serif" font-size="14.00" fill="#000000">appointment_params</text>
<text text-anchor="start" x="170" y="-493.3" font-family="Times,serif" font-size="14.00" fill="#000000">set_appointment</text>
</g>
<!-- AssetsController -->
<g id="node4" class="node">
<title>AssetsController</title>
<path fill="none" stroke="#000000" d="M66,-702.5C66,-702.5 152.1035,-702.5 152.1035,-702.5 158.1035,-702.5 164.1035,-708.5 164.1035,-714.5 164.1035,-714.5 164.1035,-836.5 164.1035,-836.5 164.1035,-842.5 158.1035,-848.5 152.1035,-848.5 152.1035,-848.5 66,-848.5 66,-848.5 60,-848.5 54,-842.5 54,-836.5 54,-836.5 54,-714.5 54,-714.5 54,-708.5 60,-702.5 66,-702.5"/>
<text text-anchor="middle" x="109.0518" y="-833.3" font-family="Times,serif" font-size="14.00" fill="#000000">AssetsController</text>
<polyline fill="none" stroke="#000000" points="54,-826.5 164.1035,-826.5 "/>
<text text-anchor="start" x="62" y="-811.3" font-family="Times,serif" font-size="14.00" fill="#000000">create</text>
<text text-anchor="start" x="62" y="-797.3" font-family="Times,serif" font-size="14.00" fill="#000000">destroy</text>
<text text-anchor="start" x="62" y="-783.3" font-family="Times,serif" font-size="14.00" fill="#000000">index</text>
<text text-anchor="start" x="62" y="-769.3" font-family="Times,serif" font-size="14.00" fill="#000000">update</text>
<polyline fill="none" stroke="#000000" points="54,-762.5 164.1035,-762.5 "/>
<polyline fill="none" stroke="#000000" points="54,-738.5 164.1035,-738.5 "/>
<text text-anchor="start" x="62" y="-723.3" font-family="Times,serif" font-size="14.00" fill="#000000">_layout</text>
<text text-anchor="start" x="62" y="-709.3" font-family="Times,serif" font-size="14.00" fill="#000000">asset_params</text>
</g>
<!-- BuildsController -->
<g id="node5" class="node">
<title>BuildsController</title>
<path fill="none" stroke="#000000" d="M696,-882.5C696,-882.5 782.1104,-882.5 782.1104,-882.5 788.1104,-882.5 794.1104,-888.5 794.1104,-894.5 794.1104,-894.5 794.1104,-1044.5 794.1104,-1044.5 794.1104,-1050.5 788.1104,-1056.5 782.1104,-1056.5 782.1104,-1056.5 696,-1056.5 696,-1056.5 690,-1056.5 684,-1050.5 684,-1044.5 684,-1044.5 684,-894.5 684,-894.5 684,-888.5 690,-882.5 696,-882.5"/>
<text text-anchor="middle" x="739.0552" y="-1041.3" font-family="Times,serif" font-size="14.00" fill="#000000">BuildsController</text>
<polyline fill="none" stroke="#000000" points="684,-1034.5 794.1104,-1034.5 "/>
<text text-anchor="start" x="692" y="-1019.3" font-family="Times,serif" font-size="14.00" fill="#000000">create</text>
<text text-anchor="start" x="692" y="-1005.3" font-family="Times,serif" font-size="14.00" fill="#000000">destroy</text>
<text text-anchor="start" x="692" y="-991.3" font-family="Times,serif" font-size="14.00" fill="#000000">index</text>
<text text-anchor="start" x="692" y="-977.3" font-family="Times,serif" font-size="14.00" fill="#000000">show</text>
<text text-anchor="start" x="692" y="-963.3" font-family="Times,serif" font-size="14.00" fill="#000000">update</text>
<polyline fill="none" stroke="#000000" points="684,-956.5 794.1104,-956.5 "/>
<polyline fill="none" stroke="#000000" points="684,-932.5 794.1104,-932.5 "/>
<text text-anchor="start" x="692" y="-917.3" font-family="Times,serif" font-size="14.00" fill="#000000">_layout</text>
<text text-anchor="start" x="692" y="-903.3" font-family="Times,serif" font-size="14.00" fill="#000000">build_params</text>
<text text-anchor="start" x="692" y="-889.3" font-family="Times,serif" font-size="14.00" fill="#000000">set_build</text>
</g>
<!-- ClientsController -->
<g id="node6" class="node">
<title>ClientsController</title>
<path fill="none" stroke="#000000" d="M318,-990.5C318,-990.5 407.2139,-990.5 407.2139,-990.5 413.2139,-990.5 419.2139,-996.5 419.2139,-1002.5 419.2139,-1002.5 419.2139,-1082.5 419.2139,-1082.5 419.2139,-1088.5 413.2139,-1094.5 407.2139,-1094.5 407.2139,-1094.5 318,-1094.5 318,-1094.5 312,-1094.5 306,-1088.5 306,-1082.5 306,-1082.5 306,-1002.5 306,-1002.5 306,-996.5 312,-990.5 318,-990.5"/>
<text text-anchor="middle" x="362.6069" y="-1079.3" font-family="Times,serif" font-size="14.00" fill="#000000">ClientsController</text>
<polyline fill="none" stroke="#000000" points="306,-1072.5 419.2139,-1072.5 "/>
<text text-anchor="start" x="314" y="-1057.3" font-family="Times,serif" font-size="14.00" fill="#000000">index</text>
<text text-anchor="start" x="314" y="-1043.3" font-family="Times,serif" font-size="14.00" fill="#000000">launch</text>
<polyline fill="none" stroke="#000000" points="306,-1036.5 419.2139,-1036.5 "/>
<polyline fill="none" stroke="#000000" points="306,-1012.5 419.2139,-1012.5 "/>
<text text-anchor="start" x="314" y="-997.3" font-family="Times,serif" font-size="14.00" fill="#000000">_layout</text>
</g>
<!-- ConfigurationsController -->
<g id="node7" class="node">
<title>ConfigurationsController</title>
<path fill="none" stroke="#000000" d="M750,-198.5C750,-198.5 882.7725,-198.5 882.7725,-198.5 888.7725,-198.5 894.7725,-204.5 894.7725,-210.5 894.7725,-210.5 894.7725,-360.5 894.7725,-360.5 894.7725,-366.5 888.7725,-372.5 882.7725,-372.5 882.7725,-372.5 750,-372.5 750,-372.5 744,-372.5 738,-366.5 738,-360.5 738,-360.5 738,-210.5 738,-210.5 738,-204.5 744,-198.5 750,-198.5"/>
<text text-anchor="middle" x="816.3862" y="-357.3" font-family="Times,serif" font-size="14.00" fill="#000000">ConfigurationsController</text>
<polyline fill="none" stroke="#000000" points="738,-350.5 894.7725,-350.5 "/>
<text text-anchor="start" x="746" y="-335.3" font-family="Times,serif" font-size="14.00" fill="#000000">create</text>
<text text-anchor="start" x="746" y="-321.3" font-family="Times,serif" font-size="14.00" fill="#000000">destroy</text>
<text text-anchor="start" x="746" y="-307.3" font-family="Times,serif" font-size="14.00" fill="#000000">index</text>
<text text-anchor="start" x="746" y="-293.3" font-family="Times,serif" font-size="14.00" fill="#000000">show</text>
<text text-anchor="start" x="746" y="-279.3" font-family="Times,serif" font-size="14.00" fill="#000000">update</text>
<polyline fill="none" stroke="#000000" points="738,-272.5 894.7725,-272.5 "/>
<polyline fill="none" stroke="#000000" points="738,-248.5 894.7725,-248.5 "/>
<text text-anchor="start" x="746" y="-233.3" font-family="Times,serif" font-size="14.00" fill="#000000">_layout</text>
<text text-anchor="start" x="746" y="-219.3" font-family="Times,serif" font-size="14.00" fill="#000000">configuration_params</text>
<text text-anchor="start" x="746" y="-205.3" font-family="Times,serif" font-size="14.00" fill="#000000">set_configuration</text>
</g>
<!-- DependenciesController -->
<g id="node8" class="node">
<title>DependenciesController</title>
<path fill="none" stroke="#000000" d="M174,-270.5C174,-270.5 302.0625,-270.5 302.0625,-270.5 308.0625,-270.5 314.0625,-276.5 314.0625,-282.5 314.0625,-282.5 314.0625,-432.5 314.0625,-432.5 314.0625,-438.5 308.0625,-444.5 302.0625,-444.5 302.0625,-444.5 174,-444.5 174,-444.5 168,-444.5 162,-438.5 162,-432.5 162,-432.5 162,-282.5 162,-282.5 162,-276.5 168,-270.5 174,-270.5"/>
<text text-anchor="middle" x="238.0313" y="-429.3" font-family="Times,serif" font-size="14.00" fill="#000000">DependenciesController</text>
<polyline fill="none" stroke="#000000" points="162,-422.5 314.0625,-422.5 "/>
<text text-anchor="start" x="170" y="-407.3" font-family="Times,serif" font-size="14.00" fill="#000000">create</text>
<text text-anchor="start" x="170" y="-393.3" font-family="Times,serif" font-size="14.00" fill="#000000">destroy</text>
<text text-anchor="start" x="170" y="-379.3" font-family="Times,serif" font-size="14.00" fill="#000000">index</text>
<text text-anchor="start" x="170" y="-365.3" font-family="Times,serif" font-size="14.00" fill="#000000">show</text>
<text text-anchor="start" x="170" y="-351.3" font-family="Times,serif" font-size="14.00" fill="#000000">update</text>
<polyline fill="none" stroke="#000000" points="162,-344.5 314.0625,-344.5 "/>
<polyline fill="none" stroke="#000000" points="162,-320.5 314.0625,-320.5 "/>
<text text-anchor="start" x="170" y="-305.3" font-family="Times,serif" font-size="14.00" fill="#000000">_layout</text>
<text text-anchor="start" x="170" y="-291.3" font-family="Times,serif" font-size="14.00" fill="#000000">dependency_params</text>
<text text-anchor="start" x="170" y="-277.3" font-family="Times,serif" font-size="14.00" fill="#000000">set_dependency</text>
</g>
<!-- ExposuresController -->
<g id="node9" class="node">
<title>ExposuresController</title>
<path fill="none" stroke="#000000" d="M516,-144.5C516,-144.5 623.8691,-144.5 623.8691,-144.5 629.8691,-144.5 635.8691,-150.5 635.8691,-156.5 635.8691,-156.5 635.8691,-306.5 635.8691,-306.5 635.8691,-312.5 629.8691,-318.5 623.8691,-318.5 623.8691,-318.5 516,-318.5 516,-318.5 510,-318.5 504,-312.5 504,-306.5 504,-306.5 504,-156.5 504,-156.5 504,-150.5 510,-144.5 516,-144.5"/>
<text text-anchor="middle" x="569.9346" y="-303.3" font-family="Times,serif" font-size="14.00" fill="#000000">ExposuresController</text>
<polyline fill="none" stroke="#000000" points="504,-296.5 635.8691,-296.5 "/>
<text text-anchor="start" x="512" y="-281.3" font-family="Times,serif" font-size="14.00" fill="#000000">create</text>
<text text-anchor="start" x="512" y="-267.3" font-family="Times,serif" font-size="14.00" fill="#000000">destroy</text>
<text text-anchor="start" x="512" y="-253.3" font-family="Times,serif" font-size="14.00" fill="#000000">index</text>
<text text-anchor="start" x="512" y="-239.3" font-family="Times,serif" font-size="14.00" fill="#000000">show</text>
<text text-anchor="start" x="512" y="-225.3" font-family="Times,serif" font-size="14.00" fill="#000000">update</text>
<polyline fill="none" stroke="#000000" points="504,-218.5 635.8691,-218.5 "/>
<polyline fill="none" stroke="#000000" points="504,-194.5 635.8691,-194.5 "/>
<text text-anchor="start" x="512" y="-179.3" font-family="Times,serif" font-size="14.00" fill="#000000">_layout</text>
<text text-anchor="start" x="512" y="-165.3" font-family="Times,serif" font-size="14.00" fill="#000000">exposure_params</text>
<text text-anchor="start" x="512" y="-151.3" font-family="Times,serif" font-size="14.00" fill="#000000">set_exposure</text>
</g>
<!-- GroupsController -->
<g id="node10" class="node">
<title>GroupsController</title>
<path fill="none" stroke="#000000" d="M66,-882.5C66,-882.5 156.7656,-882.5 156.7656,-882.5 162.7656,-882.5 168.7656,-888.5 168.7656,-894.5 168.7656,-894.5 168.7656,-1044.5 168.7656,-1044.5 168.7656,-1050.5 162.7656,-1056.5 156.7656,-1056.5 156.7656,-1056.5 66,-1056.5 66,-1056.5 60,-1056.5 54,-1050.5 54,-1044.5 54,-1044.5 54,-894.5 54,-894.5 54,-888.5 60,-882.5 66,-882.5"/>
<text text-anchor="middle" x="111.3828" y="-1041.3" font-family="Times,serif" font-size="14.00" fill="#000000">GroupsController</text>
<polyline fill="none" stroke="#000000" points="54,-1034.5 168.7656,-1034.5 "/>
<text text-anchor="start" x="62" y="-1019.3" font-family="Times,serif" font-size="14.00" fill="#000000">create</text>
<text text-anchor="start" x="62" y="-1005.3" font-family="Times,serif" font-size="14.00" fill="#000000">destroy</text>
<text text-anchor="start" x="62" y="-991.3" font-family="Times,serif" font-size="14.00" fill="#000000">index</text>
<text text-anchor="start" x="62" y="-977.3" font-family="Times,serif" font-size="14.00" fill="#000000">show</text>
<text text-anchor="start" x="62" y="-963.3" font-family="Times,serif" font-size="14.00" fill="#000000">update</text>
<polyline fill="none" stroke="#000000" points="54,-956.5 168.7656,-956.5 "/>
<polyline fill="none" stroke="#000000" points="54,-932.5 168.7656,-932.5 "/>
<text text-anchor="start" x="62" y="-917.3" font-family="Times,serif" font-size="14.00" fill="#000000">_layout</text>
<text text-anchor="start" x="62" y="-903.3" font-family="Times,serif" font-size="14.00" fill="#000000">group_params</text>
<text text-anchor="start" x="62" y="-889.3" font-family="Times,serif" font-size="14.00" fill="#000000">set_group</text>
</g>
<!-- IdentitiesController -->
<g id="node11" class="node">
<title>IdentitiesController</title>
<path fill="none" stroke="#000000" d="M12,-486.5C12,-486.5 113.6416,-486.5 113.6416,-486.5 119.6416,-486.5 125.6416,-492.5 125.6416,-498.5 125.6416,-498.5 125.6416,-634.5 125.6416,-634.5 125.6416,-640.5 119.6416,-646.5 113.6416,-646.5 113.6416,-646.5 12,-646.5 12,-646.5 6,-646.5 0,-640.5 0,-634.5 0,-634.5 0,-498.5 0,-498.5 0,-492.5 6,-486.5 12,-486.5"/>
<text text-anchor="middle" x="62.8208" y="-631.3" font-family="Times,serif" font-size="14.00" fill="#000000">IdentitiesController</text>
<polyline fill="none" stroke="#000000" points="0,-624.5 125.6416,-624.5 "/>
<text text-anchor="start" x="8" y="-609.3" font-family="Times,serif" font-size="14.00" fill="#000000">create</text>
<text text-anchor="start" x="8" y="-595.3" font-family="Times,serif" font-size="14.00" fill="#000000">destroy</text>
<text text-anchor="start" x="8" y="-581.3" font-family="Times,serif" font-size="14.00" fill="#000000">index</text>
<text text-anchor="start" x="8" y="-567.3" font-family="Times,serif" font-size="14.00" fill="#000000">show</text>
<text text-anchor="start" x="8" y="-553.3" font-family="Times,serif" font-size="14.00" fill="#000000">update</text>
<polyline fill="none" stroke="#000000" points="0,-546.5 125.6416,-546.5 "/>
<polyline fill="none" stroke="#000000" points="0,-522.5 125.6416,-522.5 "/>
<text text-anchor="start" x="8" y="-507.3" font-family="Times,serif" font-size="14.00" fill="#000000">_layout</text>
<text text-anchor="start" x="8" y="-493.3" font-family="Times,serif" font-size="14.00" fill="#000000">identity_params</text>
</g>
<!-- IdentityProvidersController -->
<g id="node12" class="node">
<title>IdentityProvidersController</title>
<path fill="none" stroke="#000000" d="M390,-630.5C390,-630.5 536.752,-630.5 536.752,-630.5 542.752,-630.5 548.752,-636.5 548.752,-642.5 548.752,-642.5 548.752,-820.5 548.752,-820.5 548.752,-826.5 542.752,-832.5 536.752,-832.5 536.752,-832.5 390,-832.5 390,-832.5 384,-832.5 378,-826.5 378,-820.5 378,-820.5 378,-642.5 378,-642.5 378,-636.5 384,-630.5 390,-630.5"/>
<text text-anchor="middle" x="463.376" y="-817.3" font-family="Times,serif" font-size="14.00" fill="#000000">IdentityProvidersController</text>
<polyline fill="none" stroke="#000000" points="378,-810.5 548.752,-810.5 "/>
<text text-anchor="start" x="386" y="-795.3" font-family="Times,serif" font-size="14.00" fill="#000000">update</text>
<text text-anchor="start" x="386" y="-781.3" font-family="Times,serif" font-size="14.00" fill="#000000">destroy</text>
<text text-anchor="start" x="386" y="-767.3" font-family="Times,serif" font-size="14.00" fill="#000000">disable</text>
<text text-anchor="start" x="386" y="-753.3" font-family="Times,serif" font-size="14.00" fill="#000000">enable</text>
<text text-anchor="start" x="386" y="-739.3" font-family="Times,serif" font-size="14.00" fill="#000000">index</text>
<text text-anchor="start" x="386" y="-725.3" font-family="Times,serif" font-size="14.00" fill="#000000">redirect</text>
<text text-anchor="start" x="386" y="-711.3" font-family="Times,serif" font-size="14.00" fill="#000000">show</text>
<text text-anchor="start" x="386" y="-697.3" font-family="Times,serif" font-size="14.00" fill="#000000">create</text>
<polyline fill="none" stroke="#000000" points="378,-690.5 548.752,-690.5 "/>
<polyline fill="none" stroke="#000000" points="378,-666.5 548.752,-666.5 "/>
<text text-anchor="start" x="386" y="-651.3" font-family="Times,serif" font-size="14.00" fill="#000000">_layout</text>
<text text-anchor="start" x="386" y="-637.3" font-family="Times,serif" font-size="14.00" fill="#000000">identity_provider_params</text>
</g>
<!-- InstancesController -->
<g id="node13" class="node">
<title>InstancesController</title>
<path fill="none" stroke="#000000" d="M12,-288.5C12,-288.5 113.6348,-288.5 113.6348,-288.5 119.6348,-288.5 125.6348,-294.5 125.6348,-300.5 125.6348,-300.5 125.6348,-436.5 125.6348,-436.5 125.6348,-442.5 119.6348,-448.5 113.6348,-448.5 113.6348,-448.5 12,-448.5 12,-448.5 6,-448.5 0,-442.5 0,-436.5 0,-436.5 0,-300.5 0,-300.5 0,-294.5 6,-288.5 12,-288.5"/>
<text text-anchor="middle" x="62.8174" y="-433.3" font-family="Times,serif" font-size="14.00" fill="#000000">InstancesController</text>
<polyline fill="none" stroke="#000000" points="0,-426.5 125.6348,-426.5 "/>
<text text-anchor="start" x="8" y="-411.3" font-family="Times,serif" font-size="14.00" fill="#000000">create</text>
<text text-anchor="start" x="8" y="-397.3" font-family="Times,serif" font-size="14.00" fill="#000000">destroy</text>
<text text-anchor="start" x="8" y="-383.3" font-family="Times,serif" font-size="14.00" fill="#000000">index</text>
<text text-anchor="start" x="8" y="-369.3" font-family="Times,serif" font-size="14.00" fill="#000000">show</text>
<text text-anchor="start" x="8" y="-355.3" font-family="Times,serif" font-size="14.00" fill="#000000">update</text>
<polyline fill="none" stroke="#000000" points="0,-348.5 125.6348,-348.5 "/>
<polyline fill="none" stroke="#000000" points="0,-324.5 125.6348,-324.5 "/>
<text text-anchor="start" x="8" y="-309.3" font-family="Times,serif" font-size="14.00" fill="#000000">_layout</text>
<text text-anchor="start" x="8" y="-295.3" font-family="Times,serif" font-size="14.00" fill="#000000">instance_params</text>
</g>
<!-- InterfacesController -->
<g id="node14" class="node">
<title>InterfacesController</title>
<path fill="none" stroke="#000000" d="M750,-414.5C750,-414.5 854.7246,-414.5 854.7246,-414.5 860.7246,-414.5 866.7246,-420.5 866.7246,-426.5 866.7246,-426.5 866.7246,-576.5 866.7246,-576.5 866.7246,-582.5 860.7246,-588.5 854.7246,-588.5 854.7246,-588.5 750,-588.5 750,-588.5 744,-588.5 738,-582.5 738,-576.5 738,-576.5 738,-426.5 738,-426.5 738,-420.5 744,-414.5 750,-414.5"/>
<text text-anchor="middle" x="802.3623" y="-573.3" font-family="Times,serif" font-size="14.00" fill="#000000">InterfacesController</text>
<polyline fill="none" stroke="#000000" points="738,-566.5 866.7246,-566.5 "/>
<text text-anchor="start" x="746" y="-551.3" font-family="Times,serif" font-size="14.00" fill="#000000">create</text>
<text text-anchor="start" x="746" y="-537.3" font-family="Times,serif" font-size="14.00" fill="#000000">destroy</text>
<text text-anchor="start" x="746" y="-523.3" font-family="Times,serif" font-size="14.00" fill="#000000">index</text>
<text text-anchor="start" x="746" y="-509.3" font-family="Times,serif" font-size="14.00" fill="#000000">show</text>
<text text-anchor="start" x="746" y="-495.3" font-family="Times,serif" font-size="14.00" fill="#000000">update</text>
<polyline fill="none" stroke="#000000" points="738,-488.5 866.7246,-488.5 "/>
<polyline fill="none" stroke="#000000" points="738,-464.5 866.7246,-464.5 "/>
<text text-anchor="start" x="746" y="-449.3" font-family="Times,serif" font-size="14.00" fill="#000000">_layout</text>
<text text-anchor="start" x="746" y="-435.3" font-family="Times,serif" font-size="14.00" fill="#000000">interface_params</text>
<text text-anchor="start" x="746" y="-421.3" font-family="Times,serif" font-size="14.00" fill="#000000">set_interface</text>
</g>
<!-- LicensesController -->
<g id="node15" class="node">
<title>LicensesController</title>
<path fill="none" stroke="#000000" d="M30,-54.5C30,-54.5 128.5244,-54.5 128.5244,-54.5 134.5244,-54.5 140.5244,-60.5 140.5244,-66.5 140.5244,-66.5 140.5244,-216.5 140.5244,-216.5 140.5244,-222.5 134.5244,-228.5 128.5244,-228.5 128.5244,-228.5 30,-228.5 30,-228.5 24,-228.5 18,-222.5 18,-216.5 18,-216.5 18,-66.5 18,-66.5 18,-60.5 24,-54.5 30,-54.5"/>
<text text-anchor="middle" x="79.2622" y="-213.3" font-family="Times,serif" font-size="14.00" fill="#000000">LicensesController</text>
<polyline fill="none" stroke="#000000" points="18,-206.5 140.5244,-206.5 "/>
<text text-anchor="start" x="26" y="-191.3" font-family="Times,serif" font-size="14.00" fill="#000000">create</text>
<text text-anchor="start" x="26" y="-177.3" font-family="Times,serif" font-size="14.00" fill="#000000">destroy</text>
<text text-anchor="start" x="26" y="-163.3" font-family="Times,serif" font-size="14.00" fill="#000000">index</text>
<text text-anchor="start" x="26" y="-149.3" font-family="Times,serif" font-size="14.00" fill="#000000">show</text>
<text text-anchor="start" x="26" y="-135.3" font-family="Times,serif" font-size="14.00" fill="#000000">update</text>
<polyline fill="none" stroke="#000000" points="18,-128.5 140.5244,-128.5 "/>
<polyline fill="none" stroke="#000000" points="18,-104.5 140.5244,-104.5 "/>
<text text-anchor="start" x="26" y="-89.3" font-family="Times,serif" font-size="14.00" fill="#000000">_layout</text>
<text text-anchor="start" x="26" y="-75.3" font-family="Times,serif" font-size="14.00" fill="#000000">license_params</text>
<text text-anchor="start" x="26" y="-61.3" font-family="Times,serif" font-size="14.00" fill="#000000">set_license</text>
</g>
<!-- MembersController -->
<g id="node16" class="node">
<title>MembersController</title>
<path fill="none" stroke="#000000" d="M192,-54.5C192,-54.5 294.4209,-54.5 294.4209,-54.5 300.4209,-54.5 306.4209,-60.5 306.4209,-66.5 306.4209,-66.5 306.4209,-216.5 306.4209,-216.5 306.4209,-222.5 300.4209,-228.5 294.4209,-228.5 294.4209,-228.5 192,-228.5 192,-228.5 186,-228.5 180,-222.5 180,-216.5 180,-216.5 180,-66.5 180,-66.5 180,-60.5 186,-54.5 192,-54.5"/>
<text text-anchor="middle" x="243.2104" y="-213.3" font-family="Times,serif" font-size="14.00" fill="#000000">MembersController</text>
<polyline fill="none" stroke="#000000" points="180,-206.5 306.4209,-206.5 "/>
<text text-anchor="start" x="188" y="-191.3" font-family="Times,serif" font-size="14.00" fill="#000000">create</text>
<text text-anchor="start" x="188" y="-177.3" font-family="Times,serif" font-size="14.00" fill="#000000">destroy</text>
<text text-anchor="start" x="188" y="-163.3" font-family="Times,serif" font-size="14.00" fill="#000000">index</text>
<text text-anchor="start" x="188" y="-149.3" font-family="Times,serif" font-size="14.00" fill="#000000">show</text>
<text text-anchor="start" x="188" y="-135.3" font-family="Times,serif" font-size="14.00" fill="#000000">update</text>
<polyline fill="none" stroke="#000000" points="180,-128.5 306.4209,-128.5 "/>
<polyline fill="none" stroke="#000000" points="180,-104.5 306.4209,-104.5 "/>
<text text-anchor="start" x="188" y="-89.3" font-family="Times,serif" font-size="14.00" fill="#000000">_layout</text>
<text text-anchor="start" x="188" y="-75.3" font-family="Times,serif" font-size="14.00" fill="#000000">member_params</text>
<text text-anchor="start" x="188" y="-61.3" font-family="Times,serif" font-size="14.00" fill="#000000">set_member</text>
</g>
<!-- ParametersController -->
<g id="node17" class="node">
<title>ParametersController</title>
<path fill="none" stroke="#000000" d="M354,-162.5C354,-162.5 465.7383,-162.5 465.7383,-162.5 471.7383,-162.5 477.7383,-168.5 477.7383,-174.5 477.7383,-174.5 477.7383,-324.5 477.7383,-324.5 477.7383,-330.5 471.7383,-336.5 465.7383,-336.5 465.7383,-336.5 354,-336.5 354,-336.5 348,-336.5 342,-330.5 342,-324.5 342,-324.5 342,-174.5 342,-174.5 342,-168.5 348,-162.5 354,-162.5"/>
<text text-anchor="middle" x="409.8691" y="-321.3" font-family="Times,serif" font-size="14.00" fill="#000000">ParametersController</text>
<polyline fill="none" stroke="#000000" points="342,-314.5 477.7383,-314.5 "/>
<text text-anchor="start" x="350" y="-299.3" font-family="Times,serif" font-size="14.00" fill="#000000">create</text>
<text text-anchor="start" x="350" y="-285.3" font-family="Times,serif" font-size="14.00" fill="#000000">destroy</text>
<text text-anchor="start" x="350" y="-271.3" font-family="Times,serif" font-size="14.00" fill="#000000">index</text>
<text text-anchor="start" x="350" y="-257.3" font-family="Times,serif" font-size="14.00" fill="#000000">show</text>
<text text-anchor="start" x="350" y="-243.3" font-family="Times,serif" font-size="14.00" fill="#000000">update</text>
<polyline fill="none" stroke="#000000" points="342,-236.5 477.7383,-236.5 "/>
<polyline fill="none" stroke="#000000" points="342,-212.5 477.7383,-212.5 "/>
<text text-anchor="start" x="350" y="-197.3" font-family="Times,serif" font-size="14.00" fill="#000000">_layout</text>
<text text-anchor="start" x="350" y="-183.3" font-family="Times,serif" font-size="14.00" fill="#000000">parameter_params</text>
<text text-anchor="start" x="350" y="-169.3" font-family="Times,serif" font-size="14.00" fill="#000000">set_parameter</text>
</g>
<!-- PlatformsController -->
<g id="node18" class="node">
<title>PlatformsController</title>
<path fill="none" stroke="#000000" d="M840,-846.5C840,-846.5 943.9863,-846.5 943.9863,-846.5 949.9863,-846.5 955.9863,-852.5 955.9863,-858.5 955.9863,-858.5 955.9863,-1008.5 955.9863,-1008.5 955.9863,-1014.5 949.9863,-1020.5 943.9863,-1020.5 943.9863,-1020.5 840,-1020.5 840,-1020.5 834,-1020.5 828,-1014.5 828,-1008.5 828,-1008.5 828,-858.5 828,-858.5 828,-852.5 834,-846.5 840,-846.5"/>
<text text-anchor="middle" x="891.9932" y="-1005.3" font-family="Times,serif" font-size="14.00" fill="#000000">PlatformsController</text>
<polyline fill="none" stroke="#000000" points="828,-998.5 955.9863,-998.5 "/>
<text text-anchor="start" x="836" y="-983.3" font-family="Times,serif" font-size="14.00" fill="#000000">create</text>
<text text-anchor="start" x="836" y="-969.3" font-family="Times,serif" font-size="14.00" fill="#000000">destroy</text>
<text text-anchor="start" x="836" y="-955.3" font-family="Times,serif" font-size="14.00" fill="#000000">index</text>
<text text-anchor="start" x="836" y="-941.3" font-family="Times,serif" font-size="14.00" fill="#000000">show</text>
<text text-anchor="start" x="836" y="-927.3" font-family="Times,serif" font-size="14.00" fill="#000000">update</text>
<polyline fill="none" stroke="#000000" points="828,-920.5 955.9863,-920.5 "/>
<polyline fill="none" stroke="#000000" points="828,-896.5 955.9863,-896.5 "/>
<text text-anchor="start" x="836" y="-881.3" font-family="Times,serif" font-size="14.00" fill="#000000">_layout</text>
<text text-anchor="start" x="836" y="-867.3" font-family="Times,serif" font-size="14.00" fill="#000000">platform_params</text>
<text text-anchor="start" x="836" y="-853.3" font-family="Times,serif" font-size="14.00" fill="#000000">set_platform</text>
</g>
<!-- RolesController -->
<g id="node19" class="node">
<title>RolesController</title>
<path fill="none" stroke="#000000" d="M642,-666.5C642,-666.5 782.5313,-666.5 782.5313,-666.5 788.5313,-666.5 794.5313,-672.5 794.5313,-678.5 794.5313,-678.5 794.5313,-828.5 794.5313,-828.5 794.5313,-834.5 788.5313,-840.5 782.5313,-840.5 782.5313,-840.5 642,-840.5 642,-840.5 636,-840.5 630,-834.5 630,-828.5 630,-828.5 630,-678.5 630,-678.5 630,-672.5 636,-666.5 642,-666.5"/>
<text text-anchor="middle" x="712.2656" y="-825.3" font-family="Times,serif" font-size="14.00" fill="#000000">RolesController</text>
<polyline fill="none" stroke="#000000" points="630,-818.5 794.5313,-818.5 "/>
<text text-anchor="start" x="638" y="-803.3" font-family="Times,serif" font-size="14.00" fill="#000000">create</text>
<text text-anchor="start" x="638" y="-789.3" font-family="Times,serif" font-size="14.00" fill="#000000">destroy</text>
<text text-anchor="start" x="638" y="-775.3" font-family="Times,serif" font-size="14.00" fill="#000000">index</text>
<text text-anchor="start" x="638" y="-761.3" font-family="Times,serif" font-size="14.00" fill="#000000">show</text>
<text text-anchor="start" x="638" y="-747.3" font-family="Times,serif" font-size="14.00" fill="#000000">update</text>
<polyline fill="none" stroke="#000000" points="630,-740.5 794.5313,-740.5 "/>
<polyline fill="none" stroke="#000000" points="630,-716.5 794.5313,-716.5 "/>
<text text-anchor="start" x="638" y="-701.3" font-family="Times,serif" font-size="14.00" fill="#000000">_layout</text>
<text text-anchor="start" x="638" y="-687.3" font-family="Times,serif" font-size="14.00" fill="#000000">permissions_from_params</text>
<text text-anchor="start" x="638" y="-673.3" font-family="Times,serif" font-size="14.00" fill="#000000">role_params</text>
</g>
<!-- ScreenshotsController -->
<g id="node20" class="node">
<title>ScreenshotsController</title>
<path fill="none" stroke="#000000" d="M210,-738.5C210,-738.5 326.4209,-738.5 326.4209,-738.5 332.4209,-738.5 338.4209,-744.5 338.4209,-750.5 338.4209,-750.5 338.4209,-942.5 338.4209,-942.5 338.4209,-948.5 332.4209,-954.5 326.4209,-954.5 326.4209,-954.5 210,-954.5 210,-954.5 204,-954.5 198,-948.5 198,-942.5 198,-942.5 198,-750.5 198,-750.5 198,-744.5 204,-738.5 210,-738.5"/>
<text text-anchor="middle" x="268.2104" y="-939.3" font-family="Times,serif" font-size="14.00" fill="#000000">ScreenshotsController</text>
<polyline fill="none" stroke="#000000" points="198,-932.5 338.4209,-932.5 "/>
<text text-anchor="start" x="206" y="-917.3" font-family="Times,serif" font-size="14.00" fill="#000000">update</text>
<text text-anchor="start" x="206" y="-903.3" font-family="Times,serif" font-size="14.00" fill="#000000">destroy</text>
<text text-anchor="start" x="206" y="-889.3" font-family="Times,serif" font-size="14.00" fill="#000000">index</text>
<text text-anchor="start" x="206" y="-875.3" font-family="Times,serif" font-size="14.00" fill="#000000">large</text>
<text text-anchor="start" x="206" y="-861.3" font-family="Times,serif" font-size="14.00" fill="#000000">medium</text>
<text text-anchor="start" x="206" y="-847.3" font-family="Times,serif" font-size="14.00" fill="#000000">send_image_data</text>
<text text-anchor="start" x="206" y="-833.3" font-family="Times,serif" font-size="14.00" fill="#000000">show</text>
<text text-anchor="start" x="206" y="-819.3" font-family="Times,serif" font-size="14.00" fill="#000000">small</text>
<text text-anchor="start" x="206" y="-805.3" font-family="Times,serif" font-size="14.00" fill="#000000">create</text>
<polyline fill="none" stroke="#000000" points="198,-798.5 338.4209,-798.5 "/>
<polyline fill="none" stroke="#000000" points="198,-774.5 338.4209,-774.5 "/>
<text text-anchor="start" x="206" y="-759.3" font-family="Times,serif" font-size="14.00" fill="#000000">_layout</text>
<text text-anchor="start" x="206" y="-745.3" font-family="Times,serif" font-size="14.00" fill="#000000">screenshot_params</text>
</g>
<!-- ServicesController -->
<g id="node21" class="node">
<title>ServicesController</title>
<path fill="none" stroke="#000000" d="M588,-360.5C588,-360.5 684.9727,-360.5 684.9727,-360.5 690.9727,-360.5 696.9727,-366.5 696.9727,-372.5 696.9727,-372.5 696.9727,-620.5 696.9727,-620.5 696.9727,-626.5 690.9727,-632.5 684.9727,-632.5 684.9727,-632.5 588,-632.5 588,-632.5 582,-632.5 576,-626.5 576,-620.5 576,-620.5 576,-372.5 576,-372.5 576,-366.5 582,-360.5 588,-360.5"/>
<text text-anchor="middle" x="636.4863" y="-617.3" font-family="Times,serif" font-size="14.00" fill="#000000">ServicesController</text>
<polyline fill="none" stroke="#000000" points="576,-610.5 696.9727,-610.5 "/>
<text text-anchor="start" x="584" y="-595.3" font-family="Times,serif" font-size="14.00" fill="#000000">update</text>
<text text-anchor="start" x="584" y="-581.3" font-family="Times,serif" font-size="14.00" fill="#000000">destroy</text>
<text text-anchor="start" x="584" y="-567.3" font-family="Times,serif" font-size="14.00" fill="#000000">index</text>
<text text-anchor="start" x="584" y="-553.3" font-family="Times,serif" font-size="14.00" fill="#000000">large</text>
<text text-anchor="start" x="584" y="-539.3" font-family="Times,serif" font-size="14.00" fill="#000000">medium</text>
<text text-anchor="start" x="584" y="-525.3" font-family="Times,serif" font-size="14.00" fill="#000000">publish</text>
<text text-anchor="start" x="584" y="-511.3" font-family="Times,serif" font-size="14.00" fill="#000000">search</text>
<text text-anchor="start" x="584" y="-497.3" font-family="Times,serif" font-size="14.00" fill="#000000">send_image_data</text>
<text text-anchor="start" x="584" y="-483.3" font-family="Times,serif" font-size="14.00" fill="#000000">show</text>
<text text-anchor="start" x="584" y="-469.3" font-family="Times,serif" font-size="14.00" fill="#000000">small</text>
<text text-anchor="start" x="584" y="-455.3" font-family="Times,serif" font-size="14.00" fill="#000000">unpublish</text>
<text text-anchor="start" x="584" y="-441.3" font-family="Times,serif" font-size="14.00" fill="#000000">create</text>
<polyline fill="none" stroke="#000000" points="576,-434.5 696.9727,-434.5 "/>
<polyline fill="none" stroke="#000000" points="576,-410.5 696.9727,-410.5 "/>
<text text-anchor="start" x="584" y="-395.3" font-family="Times,serif" font-size="14.00" fill="#000000">_layout</text>
<text text-anchor="start" x="584" y="-381.3" font-family="Times,serif" font-size="14.00" fill="#000000">service_params</text>
<text text-anchor="start" x="584" y="-367.3" font-family="Times,serif" font-size="14.00" fill="#000000">set_service</text>
</g>
<!-- SessionsController -->
<g id="node22" class="node">
<title>SessionsController</title>
<path fill="none" stroke="#000000" d="M462,-864.5C462,-864.5 578.4141,-864.5 578.4141,-864.5 584.4141,-864.5 590.4141,-870.5 590.4141,-876.5 590.4141,-876.5 590.4141,-1012.5 590.4141,-1012.5 590.4141,-1018.5 584.4141,-1024.5 578.4141,-1024.5 578.4141,-1024.5 462,-1024.5 462,-1024.5 456,-1024.5 450,-1018.5 450,-1012.5 450,-1012.5 450,-876.5 450,-876.5 450,-870.5 456,-864.5 462,-864.5"/>
<text text-anchor="middle" x="520.207" y="-1009.3" font-family="Times,serif" font-size="14.00" fill="#000000">SessionsController</text>
<polyline fill="none" stroke="#000000" points="450,-1002.5 590.4141,-1002.5 "/>
<text text-anchor="start" x="458" y="-987.3" font-family="Times,serif" font-size="14.00" fill="#000000">authenticate</text>
<text text-anchor="start" x="458" y="-973.3" font-family="Times,serif" font-size="14.00" fill="#000000">callback</text>
<text text-anchor="start" x="458" y="-959.3" font-family="Times,serif" font-size="14.00" fill="#000000">cleanse_session</text>
<text text-anchor="start" x="458" y="-945.3" font-family="Times,serif" font-size="14.00" fill="#000000">destroy</text>
<text text-anchor="start" x="458" y="-931.3" font-family="Times,serif" font-size="14.00" fill="#000000">openid_connect_login</text>
<text text-anchor="start" x="458" y="-917.3" font-family="Times,serif" font-size="14.00" fill="#000000">public_keys_for</text>
<polyline fill="none" stroke="#000000" points="450,-910.5 590.4141,-910.5 "/>
<polyline fill="none" stroke="#000000" points="450,-886.5 590.4141,-886.5 "/>
<text text-anchor="start" x="458" y="-871.3" font-family="Times,serif" font-size="14.00" fill="#000000">_layout</text>
</g>
<!-- Smart::LaunchController -->
<g id="node23" class="node">
<title>Smart::LaunchController</title>
<path fill="none" stroke="#000000" d="M462,-18.5C462,-18.5 594.7451,-18.5 594.7451,-18.5 600.7451,-18.5 606.7451,-24.5 606.7451,-30.5 606.7451,-30.5 606.7451,-96.5 606.7451,-96.5 606.7451,-102.5 600.7451,-108.5 594.7451,-108.5 594.7451,-108.5 462,-108.5 462,-108.5 456,-108.5 450,-102.5 450,-96.5 450,-96.5 450,-30.5 450,-30.5 450,-24.5 456,-18.5 462,-18.5"/>
<text text-anchor="middle" x="528.3726" y="-93.3" font-family="Times,serif" font-size="14.00" fill="#000000">Smart::LaunchController</text>
<polyline fill="none" stroke="#000000" points="450,-86.5 606.7451,-86.5 "/>
<text text-anchor="start" x="458" y="-71.3" font-family="Times,serif" font-size="14.00" fill="#000000">launch</text>
<polyline fill="none" stroke="#000000" points="450,-64.5 606.7451,-64.5 "/>
<polyline fill="none" stroke="#000000" points="450,-40.5 606.7451,-40.5 "/>
<text text-anchor="start" x="458" y="-25.3" font-family="Times,serif" font-size="14.00" fill="#000000">_layout</text>
</g>
<!-- SurrogatesController -->
<g id="node24" class="node">
<title>SurrogatesController</title>
<path fill="none" stroke="#000000" d="M840,-630.5C840,-630.5 949.4209,-630.5 949.4209,-630.5 955.4209,-630.5 961.4209,-636.5 961.4209,-642.5 961.4209,-642.5 961.4209,-792.5 961.4209,-792.5 961.4209,-798.5 955.4209,-804.5 949.4209,-804.5 949.4209,-804.5 840,-804.5 840,-804.5 834,-804.5 828,-798.5 828,-792.5 828,-792.5 828,-642.5 828,-642.5 828,-636.5 834,-630.5 840,-630.5"/>
<text text-anchor="middle" x="894.7104" y="-789.3" font-family="Times,serif" font-size="14.00" fill="#000000">SurrogatesController</text>
<polyline fill="none" stroke="#000000" points="828,-782.5 961.4209,-782.5 "/>
<text text-anchor="start" x="836" y="-767.3" font-family="Times,serif" font-size="14.00" fill="#000000">create</text>
<text text-anchor="start" x="836" y="-753.3" font-family="Times,serif" font-size="14.00" fill="#000000">destroy</text>
<text text-anchor="start" x="836" y="-739.3" font-family="Times,serif" font-size="14.00" fill="#000000">index</text>
<text text-anchor="start" x="836" y="-725.3" font-family="Times,serif" font-size="14.00" fill="#000000">show</text>
<text text-anchor="start" x="836" y="-711.3" font-family="Times,serif" font-size="14.00" fill="#000000">update</text>
<polyline fill="none" stroke="#000000" points="828,-704.5 961.4209,-704.5 "/>
<polyline fill="none" stroke="#000000" points="828,-680.5 961.4209,-680.5 "/>
<text text-anchor="start" x="836" y="-665.3" font-family="Times,serif" font-size="14.00" fill="#000000">_layout</text>
<text text-anchor="start" x="836" y="-651.3" font-family="Times,serif" font-size="14.00" fill="#000000">set_surrogate</text>
<text text-anchor="start" x="836" y="-637.3" font-family="Times,serif" font-size="14.00" fill="#000000">surrogate_params</text>
</g>
<!-- TasksController -->
<g id="node25" class="node">
<title>TasksController</title>
<path fill="none" stroke="#000000" d="M912,-414.5C912,-414.5 993.2295,-414.5 993.2295,-414.5 999.2295,-414.5 1005.2295,-420.5 1005.2295,-426.5 1005.2295,-426.5 1005.2295,-576.5 1005.2295,-576.5 1005.2295,-582.5 999.2295,-588.5 993.2295,-588.5 993.2295,-588.5 912,-588.5 912,-588.5 906,-588.5 900,-582.5 900,-576.5 900,-576.5 900,-426.5 900,-426.5 900,-420.5 906,-414.5 912,-414.5"/>
<text text-anchor="middle" x="952.6147" y="-573.3" font-family="Times,serif" font-size="14.00" fill="#000000">TasksController</text>
<polyline fill="none" stroke="#000000" points="900,-566.5 1005.2295,-566.5 "/>
<text text-anchor="start" x="908" y="-551.3" font-family="Times,serif" font-size="14.00" fill="#000000">create</text>
<text text-anchor="start" x="908" y="-537.3" font-family="Times,serif" font-size="14.00" fill="#000000">destroy</text>
<text text-anchor="start" x="908" y="-523.3" font-family="Times,serif" font-size="14.00" fill="#000000">index</text>
<text text-anchor="start" x="908" y="-509.3" font-family="Times,serif" font-size="14.00" fill="#000000">show</text>
<text text-anchor="start" x="908" y="-495.3" font-family="Times,serif" font-size="14.00" fill="#000000">update</text>
<polyline fill="none" stroke="#000000" points="900,-488.5 1005.2295,-488.5 "/>
<polyline fill="none" stroke="#000000" points="900,-464.5 1005.2295,-464.5 "/>
<text text-anchor="start" x="908" y="-449.3" font-family="Times,serif" font-size="14.00" fill="#000000">_layout</text>
<text text-anchor="start" x="908" y="-435.3" font-family="Times,serif" font-size="14.00" fill="#000000">set_task</text>
<text text-anchor="start" x="908" y="-421.3" font-family="Times,serif" font-size="14.00" fill="#000000">task_params</text>
</g>
<!-- UsersController -->
<g id="node26" class="node">
<title>UsersController</title>
<path fill="none" stroke="#000000" d="M948,-.5C948,-.5 1029.4277,-.5 1029.4277,-.5 1035.4277,-.5 1041.4277,-6.5 1041.4277,-12.5 1041.4277,-12.5 1041.4277,-162.5 1041.4277,-162.5 1041.4277,-168.5 1035.4277,-174.5 1029.4277,-174.5 1029.4277,-174.5 948,-174.5 948,-174.5 942,-174.5 936,-168.5 936,-162.5 936,-162.5 936,-12.5 936,-12.5 936,-6.5 942,-.5 948,-.5"/>
<text text-anchor="middle" x="988.7139" y="-159.3" font-family="Times,serif" font-size="14.00" fill="#000000">UsersController</text>
<polyline fill="none" stroke="#000000" points="936,-152.5 1041.4277,-152.5 "/>
<text text-anchor="start" x="944" y="-137.3" font-family="Times,serif" font-size="14.00" fill="#000000">create</text>
<text text-anchor="start" x="944" y="-123.3" font-family="Times,serif" font-size="14.00" fill="#000000">destroy</text>
<text text-anchor="start" x="944" y="-109.3" font-family="Times,serif" font-size="14.00" fill="#000000">index</text>
<text text-anchor="start" x="944" y="-95.3" font-family="Times,serif" font-size="14.00" fill="#000000">show</text>
<text text-anchor="start" x="944" y="-81.3" font-family="Times,serif" font-size="14.00" fill="#000000">update</text>
<polyline fill="none" stroke="#000000" points="936,-74.5 1041.4277,-74.5 "/>
<polyline fill="none" stroke="#000000" points="936,-50.5 1041.4277,-50.5 "/>
<text text-anchor="start" x="944" y="-35.3" font-family="Times,serif" font-size="14.00" fill="#000000">_layout</text>
<text text-anchor="start" x="944" y="-21.3" font-family="Times,serif" font-size="14.00" fill="#000000">set_user</text>
<text text-anchor="start" x="944" y="-7.3" font-family="Times,serif" font-size="14.00" fill="#000000">user_params</text>
</g>
<!-- WelcomeController -->
<g id="node27" class="node">
<title>WelcomeController</title>
<path fill="none" stroke="#000000" d="M948,-216.5C948,-216.5 1050.0654,-216.5 1050.0654,-216.5 1056.0654,-216.5 1062.0654,-222.5 1062.0654,-228.5 1062.0654,-228.5 1062.0654,-322.5 1062.0654,-322.5 1062.0654,-328.5 1056.0654,-334.5 1050.0654,-334.5 1050.0654,-334.5 948,-334.5 948,-334.5 942,-334.5 936,-328.5 936,-322.5 936,-322.5 936,-228.5 936,-228.5 936,-222.5 942,-216.5 948,-216.5"/>
<text text-anchor="middle" x="999.0327" y="-319.3" font-family="Times,serif" font-size="14.00" fill="#000000">WelcomeController</text>
<polyline fill="none" stroke="#000000" points="936,-312.5 1062.0654,-312.5 "/>
<text text-anchor="start" x="944" y="-297.3" font-family="Times,serif" font-size="14.00" fill="#000000">dashboard</text>
<text text-anchor="start" x="944" y="-283.3" font-family="Times,serif" font-size="14.00" fill="#000000">landing</text>
<text text-anchor="start" x="944" y="-269.3" font-family="Times,serif" font-size="14.00" fill="#000000">status</text>
<polyline fill="none" stroke="#000000" points="936,-262.5 1062.0654,-262.5 "/>
<polyline fill="none" stroke="#000000" points="936,-238.5 1062.0654,-238.5 "/>
<text text-anchor="start" x="944" y="-223.3" font-family="Times,serif" font-size="14.00" fill="#000000">_layout</text>
</g>
</g>
</svg>
