<?xml version="1.0" encoding="UTF-8" standalone="no"?>
<!DOCTYPE svg PUBLIC "-//W3C//DTD SVG 1.1//EN"
 "http://www.w3.org/Graphics/SVG/1.1/DTD/svg11.dtd">
<!-- Generated by graphviz version 2.40.1 (20161225.0304)
 -->
<!-- Title: controllers_diagram Pages: 1 -->
<svg width="1052pt" height="1119pt"
 viewBox="0.00 0.00 1052.07 1119.00" xmlns="http://www.w3.org/2000/svg" xmlns:xlink="http://www.w3.org/1999/xlink">
<g id="graph0" class="graph" transform="scale(1 1) rotate(0) translate(4 1115)">
<title>controllers_diagram</title>
<polygon fill="transparent" stroke="transparent" points="-4,4 -4,-1115 1048.0654,-1115 1048.0654,4 -4,4"/>
<!-- _diagram_info -->
<g id="node1" class="node">
<title>_diagram_info</title>
<text text-anchor="start" x="692" y="-148.6" font-family="Times,serif" font-size="13.00" fill="#000000">Controllers diagram</text>
<text text-anchor="start" x="692" y="-135.6" font-family="Times,serif" font-size="13.00" fill="#000000">Date: Jan 10 2019 &#45; 10:17</text>
<text text-anchor="start" x="692" y="-122.6" font-family="Times,serif" font-size="13.00" fill="#000000">Migration version: 20181129063220</text>
<text text-anchor="start" x="692" y="-109.6" font-family="Times,serif" font-size="13.00" fill="#000000">Generated by RailRoady 1.5.3</text>
<text text-anchor="start" x="692" y="-96.6" font-family="Times,serif" font-size="13.00" fill="#000000">http://railroady.prestonlee.com</text>
</g>
<!-- ApplicationController -->
<g id="node2" class="node">
<title>ApplicationController</title>
<path fill="none" stroke="#000000" d="M588,-630.5C588,-630.5 744.835,-630.5 744.835,-630.5 750.835,-630.5 756.835,-636.5 756.835,-642.5 756.835,-642.5 756.835,-806.5 756.835,-806.5 756.835,-812.5 750.835,-818.5 744.835,-818.5 744.835,-818.5 588,-818.5 588,-818.5 582,-818.5 576,-812.5 576,-806.5 576,-806.5 576,-642.5 576,-642.5 576,-636.5 582,-630.5 588,-630.5"/>
<text text-anchor="middle" x="666.4175" y="-803.3" font-family="Times,serif" font-size="14.00" fill="#000000">ApplicationController</text>
<polyline fill="none" stroke="#000000" points="576,-796.5 756.835,-796.5 "/>
<text text-anchor="start" x="584" y="-781.3" font-family="Times,serif" font-size="14.00" fill="#000000">unauthenticate!</text>
<text text-anchor="start" x="584" y="-767.3" font-family="Times,serif" font-size="14.00" fill="#000000">_cancan_skipper=</text>
<text text-anchor="start" x="584" y="-753.3" font-family="Times,serif" font-size="14.00" fill="#000000">_cancan_skipper?</text>
<text text-anchor="start" x="584" y="-739.3" font-family="Times,serif" font-size="14.00" fill="#000000">build_oauth_request</text>
<text text-anchor="start" x="584" y="-725.3" font-family="Times,serif" font-size="14.00" fill="#000000">current_user</text>
<text text-anchor="start" x="584" y="-711.3" font-family="Times,serif" font-size="14.00" fill="#000000">redirect_to_identity_provider</text>
<text text-anchor="start" x="584" y="-697.3" font-family="Times,serif" font-size="14.00" fill="#000000">set_identity_from_jwt!</text>
<text text-anchor="start" x="584" y="-683.3" font-family="Times,serif" font-size="14.00" fill="#000000">_cancan_skipper</text>
<polyline fill="none" stroke="#000000" points="576,-676.5 756.835,-676.5 "/>
<polyline fill="none" stroke="#000000" points="576,-652.5 756.835,-652.5 "/>
<text text-anchor="start" x="584" y="-637.3" font-family="Times,serif" font-size="14.00" fill="#000000">_layout</text>
</g>
<!-- LicensesController -->
<g id="node3" class="node">
<title>LicensesController</title>
<path fill="none" stroke="#000000" d="M642,-846.5C642,-846.5 740.5244,-846.5 740.5244,-846.5 746.5244,-846.5 752.5244,-852.5 752.5244,-858.5 752.5244,-858.5 752.5244,-1008.5 752.5244,-1008.5 752.5244,-1014.5 746.5244,-1020.5 740.5244,-1020.5 740.5244,-1020.5 642,-1020.5 642,-1020.5 636,-1020.5 630,-1014.5 630,-1008.5 630,-1008.5 630,-858.5 630,-858.5 630,-852.5 636,-846.5 642,-846.5"/>
<text text-anchor="middle" x="691.2622" y="-1005.3" font-family="Times,serif" font-size="14.00" fill="#000000">LicensesController</text>
<polyline fill="none" stroke="#000000" points="630,-998.5 752.5244,-998.5 "/>
<text text-anchor="start" x="638" y="-983.3" font-family="Times,serif" font-size="14.00" fill="#000000">create</text>
<text text-anchor="start" x="638" y="-969.3" font-family="Times,serif" font-size="14.00" fill="#000000">destroy</text>
<text text-anchor="start" x="638" y="-955.3" font-family="Times,serif" font-size="14.00" fill="#000000">index</text>
<text text-anchor="start" x="638" y="-941.3" font-family="Times,serif" font-size="14.00" fill="#000000">show</text>
<text text-anchor="start" x="638" y="-927.3" font-family="Times,serif" font-size="14.00" fill="#000000">update</text>
<polyline fill="none" stroke="#000000" points="630,-920.5 752.5244,-920.5 "/>
<polyline fill="none" stroke="#000000" points="630,-896.5 752.5244,-896.5 "/>
<text text-anchor="start" x="638" y="-881.3" font-family="Times,serif" font-size="14.00" fill="#000000">_layout</text>
<text text-anchor="start" x="638" y="-867.3" font-family="Times,serif" font-size="14.00" fill="#000000">license_params</text>
<text text-anchor="start" x="638" y="-853.3" font-family="Times,serif" font-size="14.00" fill="#000000">set_license</text>
</g>
<!-- AppointmentsController -->
<g id="node4" class="node">
<title>AppointmentsController</title>
<path fill="none" stroke="#000000" d="M192,-486.5C192,-486.5 320.876,-486.5 320.876,-486.5 326.876,-486.5 332.876,-492.5 332.876,-498.5 332.876,-498.5 332.876,-648.5 332.876,-648.5 332.876,-654.5 326.876,-660.5 320.876,-660.5 320.876,-660.5 192,-660.5 192,-660.5 186,-660.5 180,-654.5 180,-648.5 180,-648.5 180,-498.5 180,-498.5 180,-492.5 186,-486.5 192,-486.5"/>
<text text-anchor="middle" x="256.438" y="-645.3" font-family="Times,serif" font-size="14.00" fill="#000000">AppointmentsController</text>
<polyline fill="none" stroke="#000000" points="180,-638.5 332.876,-638.5 "/>
<text text-anchor="start" x="188" y="-623.3" font-family="Times,serif" font-size="14.00" fill="#000000">create</text>
<text text-anchor="start" x="188" y="-609.3" font-family="Times,serif" font-size="14.00" fill="#000000">destroy</text>
<text text-anchor="start" x="188" y="-595.3" font-family="Times,serif" font-size="14.00" fill="#000000">index</text>
<text text-anchor="start" x="188" y="-581.3" font-family="Times,serif" font-size="14.00" fill="#000000">show</text>
<text text-anchor="start" x="188" y="-567.3" font-family="Times,serif" font-size="14.00" fill="#000000">update</text>
<polyline fill="none" stroke="#000000" points="180,-560.5 332.876,-560.5 "/>
<polyline fill="none" stroke="#000000" points="180,-536.5 332.876,-536.5 "/>
<text text-anchor="start" x="188" y="-521.3" font-family="Times,serif" font-size="14.00" fill="#000000">_layout</text>
<text text-anchor="start" x="188" y="-507.3" font-family="Times,serif" font-size="14.00" fill="#000000">appointment_params</text>
<text text-anchor="start" x="188" y="-493.3" font-family="Times,serif" font-size="14.00" fill="#000000">set_appointment</text>
</g>
<!-- TasksController -->
<g id="node5" class="node">
<title>TasksController</title>
<path fill="none" stroke="#000000" d="M30,-270.5C30,-270.5 111.2295,-270.5 111.2295,-270.5 117.2295,-270.5 123.2295,-276.5 123.2295,-282.5 123.2295,-282.5 123.2295,-432.5 123.2295,-432.5 123.2295,-438.5 117.2295,-444.5 111.2295,-444.5 111.2295,-444.5 30,-444.5 30,-444.5 24,-444.5 18,-438.5 18,-432.5 18,-432.5 18,-282.5 18,-282.5 18,-276.5 24,-270.5 30,-270.5"/>
<text text-anchor="middle" x="70.6147" y="-429.3" font-family="Times,serif" font-size="14.00" fill="#000000">TasksController</text>
<polyline fill="none" stroke="#000000" points="18,-422.5 123.2295,-422.5 "/>
<text text-anchor="start" x="26" y="-407.3" font-family="Times,serif" font-size="14.00" fill="#000000">create</text>
<text text-anchor="start" x="26" y="-393.3" font-family="Times,serif" font-size="14.00" fill="#000000">destroy</text>
<text text-anchor="start" x="26" y="-379.3" font-family="Times,serif" font-size="14.00" fill="#000000">index</text>
<text text-anchor="start" x="26" y="-365.3" font-family="Times,serif" font-size="14.00" fill="#000000">show</text>
<text text-anchor="start" x="26" y="-351.3" font-family="Times,serif" font-size="14.00" fill="#000000">update</text>
<polyline fill="none" stroke="#000000" points="18,-344.5 123.2295,-344.5 "/>
<polyline fill="none" stroke="#000000" points="18,-320.5 123.2295,-320.5 "/>
<text text-anchor="start" x="26" y="-305.3" font-family="Times,serif" font-size="14.00" fill="#000000">_layout</text>
<text text-anchor="start" x="26" y="-291.3" font-family="Times,serif" font-size="14.00" fill="#000000">set_task</text>
<text text-anchor="start" x="26" y="-277.3" font-family="Times,serif" font-size="14.00" fill="#000000">task_params</text>
</g>
<!-- ScreenshotsController -->
<g id="node6" class="node">
<title>ScreenshotsController</title>
<path fill="none" stroke="#000000" d="M408,-648.5C408,-648.5 524.4209,-648.5 524.4209,-648.5 530.4209,-648.5 536.4209,-654.5 536.4209,-660.5 536.4209,-660.5 536.4209,-852.5 536.4209,-852.5 536.4209,-858.5 530.4209,-864.5 524.4209,-864.5 524.4209,-864.5 408,-864.5 408,-864.5 402,-864.5 396,-858.5 396,-852.5 396,-852.5 396,-660.5 396,-660.5 396,-654.5 402,-648.5 408,-648.5"/>
<text text-anchor="middle" x="466.2104" y="-849.3" font-family="Times,serif" font-size="14.00" fill="#000000">ScreenshotsController</text>
<polyline fill="none" stroke="#000000" points="396,-842.5 536.4209,-842.5 "/>
<text text-anchor="start" x="404" y="-827.3" font-family="Times,serif" font-size="14.00" fill="#000000">update</text>
<text text-anchor="start" x="404" y="-813.3" font-family="Times,serif" font-size="14.00" fill="#000000">destroy</text>
<text text-anchor="start" x="404" y="-799.3" font-family="Times,serif" font-size="14.00" fill="#000000">index</text>
<text text-anchor="start" x="404" y="-785.3" font-family="Times,serif" font-size="14.00" fill="#000000">large</text>
<text text-anchor="start" x="404" y="-771.3" font-family="Times,serif" font-size="14.00" fill="#000000">medium</text>
<text text-anchor="start" x="404" y="-757.3" font-family="Times,serif" font-size="14.00" fill="#000000">send_image_data</text>
<text text-anchor="start" x="404" y="-743.3" font-family="Times,serif" font-size="14.00" fill="#000000">show</text>
<text text-anchor="start" x="404" y="-729.3" font-family="Times,serif" font-size="14.00" fill="#000000">small</text>
<text text-anchor="start" x="404" y="-715.3" font-family="Times,serif" font-size="14.00" fill="#000000">create</text>
<polyline fill="none" stroke="#000000" points="396,-708.5 536.4209,-708.5 "/>
<polyline fill="none" stroke="#000000" points="396,-684.5 536.4209,-684.5 "/>
<text text-anchor="start" x="404" y="-669.3" font-family="Times,serif" font-size="14.00" fill="#000000">_layout</text>
<text text-anchor="start" x="404" y="-655.3" font-family="Times,serif" font-size="14.00" fill="#000000">screenshot_params</text>
</g>
<!-- Smart::LaunchController -->
<g id="node7" class="node">
<title>Smart::LaunchController</title>
<path fill="none" stroke="#000000" d="M12,-738.5C12,-738.5 144.7451,-738.5 144.7451,-738.5 150.7451,-738.5 156.7451,-744.5 156.7451,-750.5 156.7451,-750.5 156.7451,-816.5 156.7451,-816.5 156.7451,-822.5 150.7451,-828.5 144.7451,-828.5 144.7451,-828.5 12,-828.5 12,-828.5 6,-828.5 0,-822.5 0,-816.5 0,-816.5 0,-750.5 0,-750.5 0,-744.5 6,-738.5 12,-738.5"/>
<text text-anchor="middle" x="78.3726" y="-813.3" font-family="Times,serif" font-size="14.00" fill="#000000">Smart::LaunchController</text>
<polyline fill="none" stroke="#000000" points="0,-806.5 156.7451,-806.5 "/>
<text text-anchor="start" x="8" y="-791.3" font-family="Times,serif" font-size="14.00" fill="#000000">launch</text>
<polyline fill="none" stroke="#000000" points="0,-784.5 156.7451,-784.5 "/>
<polyline fill="none" stroke="#000000" points="0,-760.5 156.7451,-760.5 "/>
<text text-anchor="start" x="8" y="-745.3" font-family="Times,serif" font-size="14.00" fill="#000000">_layout</text>
</g>
<!-- ClientsController -->
<g id="node8" class="node">
<title>ClientsController</title>
<path fill="none" stroke="#000000" d="M534,-36.5C534,-36.5 623.2139,-36.5 623.2139,-36.5 629.2139,-36.5 635.2139,-42.5 635.2139,-48.5 635.2139,-48.5 635.2139,-128.5 635.2139,-128.5 635.2139,-134.5 629.2139,-140.5 623.2139,-140.5 623.2139,-140.5 534,-140.5 534,-140.5 528,-140.5 522,-134.5 522,-128.5 522,-128.5 522,-48.5 522,-48.5 522,-42.5 528,-36.5 534,-36.5"/>
<text text-anchor="middle" x="578.6069" y="-125.3" font-family="Times,serif" font-size="14.00" fill="#000000">ClientsController</text>
<polyline fill="none" stroke="#000000" points="522,-118.5 635.2139,-118.5 "/>
<text text-anchor="start" x="530" y="-103.3" font-family="Times,serif" font-size="14.00" fill="#000000">index</text>
<text text-anchor="start" x="530" y="-89.3" font-family="Times,serif" font-size="14.00" fill="#000000">launch</text>
<polyline fill="none" stroke="#000000" points="522,-82.5 635.2139,-82.5 "/>
<polyline fill="none" stroke="#000000" points="522,-58.5 635.2139,-58.5 "/>
<text text-anchor="start" x="530" y="-43.3" font-family="Times,serif" font-size="14.00" fill="#000000">_layout</text>
</g>
<!-- BuildsController -->
<g id="node9" class="node">
<title>BuildsController</title>
<path fill="none" stroke="#000000" d="M66,-864.5C66,-864.5 152.1104,-864.5 152.1104,-864.5 158.1104,-864.5 164.1104,-870.5 164.1104,-876.5 164.1104,-876.5 164.1104,-1026.5 164.1104,-1026.5 164.1104,-1032.5 158.1104,-1038.5 152.1104,-1038.5 152.1104,-1038.5 66,-1038.5 66,-1038.5 60,-1038.5 54,-1032.5 54,-1026.5 54,-1026.5 54,-876.5 54,-876.5 54,-870.5 60,-864.5 66,-864.5"/>
<text text-anchor="middle" x="109.0552" y="-1023.3" font-family="Times,serif" font-size="14.00" fill="#000000">BuildsController</text>
<polyline fill="none" stroke="#000000" points="54,-1016.5 164.1104,-1016.5 "/>
<text text-anchor="start" x="62" y="-1001.3" font-family="Times,serif" font-size="14.00" fill="#000000">create</text>
<text text-anchor="start" x="62" y="-987.3" font-family="Times,serif" font-size="14.00" fill="#000000">destroy</text>
<text text-anchor="start" x="62" y="-973.3" font-family="Times,serif" font-size="14.00" fill="#000000">index</text>
<text text-anchor="start" x="62" y="-959.3" font-family="Times,serif" font-size="14.00" fill="#000000">show</text>
<text text-anchor="start" x="62" y="-945.3" font-family="Times,serif" font-size="14.00" fill="#000000">update</text>
<polyline fill="none" stroke="#000000" points="54,-938.5 164.1104,-938.5 "/>
<polyline fill="none" stroke="#000000" points="54,-914.5 164.1104,-914.5 "/>
<text text-anchor="start" x="62" y="-899.3" font-family="Times,serif" font-size="14.00" fill="#000000">_layout</text>
<text text-anchor="start" x="62" y="-885.3" font-family="Times,serif" font-size="14.00" fill="#000000">build_params</text>
<text text-anchor="start" x="62" y="-871.3" font-family="Times,serif" font-size="14.00" fill="#000000">set_build</text>
</g>
<!-- GroupsController -->
<g id="node10" class="node">
<title>GroupsController</title>
<path fill="none" stroke="#000000" d="M48,-486.5C48,-486.5 138.7656,-486.5 138.7656,-486.5 144.7656,-486.5 150.7656,-492.5 150.7656,-498.5 150.7656,-498.5 150.7656,-648.5 150.7656,-648.5 150.7656,-654.5 144.7656,-660.5 138.7656,-660.5 138.7656,-660.5 48,-660.5 48,-660.5 42,-660.5 36,-654.5 36,-648.5 36,-648.5 36,-498.5 36,-498.5 36,-492.5 42,-486.5 48,-486.5"/>
<text text-anchor="middle" x="93.3828" y="-645.3" font-family="Times,serif" font-size="14.00" fill="#000000">GroupsController</text>
<polyline fill="none" stroke="#000000" points="36,-638.5 150.7656,-638.5 "/>
<text text-anchor="start" x="44" y="-623.3" font-family="Times,serif" font-size="14.00" fill="#000000">create</text>
<text text-anchor="start" x="44" y="-609.3" font-family="Times,serif" font-size="14.00" fill="#000000">destroy</text>
<text text-anchor="start" x="44" y="-595.3" font-family="Times,serif" font-size="14.00" fill="#000000">index</text>
<text text-anchor="start" x="44" y="-581.3" font-family="Times,serif" font-size="14.00" fill="#000000">show</text>
<text text-anchor="start" x="44" y="-567.3" font-family="Times,serif" font-size="14.00" fill="#000000">update</text>
<polyline fill="none" stroke="#000000" points="36,-560.5 150.7656,-560.5 "/>
<polyline fill="none" stroke="#000000" points="36,-536.5 150.7656,-536.5 "/>
<text text-anchor="start" x="44" y="-521.3" font-family="Times,serif" font-size="14.00" fill="#000000">_layout</text>
<text text-anchor="start" x="44" y="-507.3" font-family="Times,serif" font-size="14.00" fill="#000000">group_params</text>
<text text-anchor="start" x="44" y="-493.3" font-family="Times,serif" font-size="14.00" fill="#000000">set_group</text>
</g>
<!-- UsersController -->
<g id="node11" class="node">
<title>UsersController</title>
<path fill="none" stroke="#000000" d="M336,-936.5C336,-936.5 417.4277,-936.5 417.4277,-936.5 423.4277,-936.5 429.4277,-942.5 429.4277,-948.5 429.4277,-948.5 429.4277,-1098.5 429.4277,-1098.5 429.4277,-1104.5 423.4277,-1110.5 417.4277,-1110.5 417.4277,-1110.5 336,-1110.5 336,-1110.5 330,-1110.5 324,-1104.5 324,-1098.5 324,-1098.5 324,-948.5 324,-948.5 324,-942.5 330,-936.5 336,-936.5"/>
<text text-anchor="middle" x="376.7139" y="-1095.3" font-family="Times,serif" font-size="14.00" fill="#000000">UsersController</text>
<polyline fill="none" stroke="#000000" points="324,-1088.5 429.4277,-1088.5 "/>
<text text-anchor="start" x="332" y="-1073.3" font-family="Times,serif" font-size="14.00" fill="#000000">create</text>
<text text-anchor="start" x="332" y="-1059.3" font-family="Times,serif" font-size="14.00" fill="#000000">destroy</text>
<text text-anchor="start" x="332" y="-1045.3" font-family="Times,serif" font-size="14.00" fill="#000000">index</text>
<text text-anchor="start" x="332" y="-1031.3" font-family="Times,serif" font-size="14.00" fill="#000000">show</text>
<text text-anchor="start" x="332" y="-1017.3" font-family="Times,serif" font-size="14.00" fill="#000000">update</text>
<polyline fill="none" stroke="#000000" points="324,-1010.5 429.4277,-1010.5 "/>
<polyline fill="none" stroke="#000000" points="324,-986.5 429.4277,-986.5 "/>
<text text-anchor="start" x="332" y="-971.3" font-family="Times,serif" font-size="14.00" fill="#000000">_layout</text>
<text text-anchor="start" x="332" y="-957.3" font-family="Times,serif" font-size="14.00" fill="#000000">set_user</text>
<text text-anchor="start" x="332" y="-943.3" font-family="Times,serif" font-size="14.00" fill="#000000">user_params</text>
</g>
<!-- IdentityProvidersController -->
<g id="node12" class="node">
<title>IdentityProvidersController</title>
<path fill="none" stroke="#000000" d="M534,-396.5C534,-396.5 680.752,-396.5 680.752,-396.5 686.752,-396.5 692.752,-402.5 692.752,-408.5 692.752,-408.5 692.752,-586.5 692.752,-586.5 692.752,-592.5 686.752,-598.5 680.752,-598.5 680.752,-598.5 534,-598.5 534,-598.5 528,-598.5 522,-592.5 522,-586.5 522,-586.5 522,-408.5 522,-408.5 522,-402.5 528,-396.5 534,-396.5"/>
<text text-anchor="middle" x="607.376" y="-583.3" font-family="Times,serif" font-size="14.00" fill="#000000">IdentityProvidersController</text>
<polyline fill="none" stroke="#000000" points="522,-576.5 692.752,-576.5 "/>
<text text-anchor="start" x="530" y="-561.3" font-family="Times,serif" font-size="14.00" fill="#000000">update</text>
<text text-anchor="start" x="530" y="-547.3" font-family="Times,serif" font-size="14.00" fill="#000000">destroy</text>
<text text-anchor="start" x="530" y="-533.3" font-family="Times,serif" font-size="14.00" fill="#000000">disable</text>
<text text-anchor="start" x="530" y="-519.3" font-family="Times,serif" font-size="14.00" fill="#000000">enable</text>
<text text-anchor="start" x="530" y="-505.3" font-family="Times,serif" font-size="14.00" fill="#000000">index</text>
<text text-anchor="start" x="530" y="-491.3" font-family="Times,serif" font-size="14.00" fill="#000000">redirect</text>
<text text-anchor="start" x="530" y="-477.3" font-family="Times,serif" font-size="14.00" fill="#000000">show</text>
<text text-anchor="start" x="530" y="-463.3" font-family="Times,serif" font-size="14.00" fill="#000000">create</text>
<polyline fill="none" stroke="#000000" points="522,-456.5 692.752,-456.5 "/>
<polyline fill="none" stroke="#000000" points="522,-432.5 692.752,-432.5 "/>
<text text-anchor="start" x="530" y="-417.3" font-family="Times,serif" font-size="14.00" fill="#000000">_layout</text>
<text text-anchor="start" x="530" y="-403.3" font-family="Times,serif" font-size="14.00" fill="#000000">identity_provider_params</text>
</g>
<!-- ServicesController -->
<g id="node13" class="node">
<title>ServicesController</title>
<path fill="none" stroke="#000000" d="M372,-342.5C372,-342.5 468.9727,-342.5 468.9727,-342.5 474.9727,-342.5 480.9727,-348.5 480.9727,-354.5 480.9727,-354.5 480.9727,-602.5 480.9727,-602.5 480.9727,-608.5 474.9727,-614.5 468.9727,-614.5 468.9727,-614.5 372,-614.5 372,-614.5 366,-614.5 360,-608.5 360,-602.5 360,-602.5 360,-354.5 360,-354.5 360,-348.5 366,-342.5 372,-342.5"/>
<text text-anchor="middle" x="420.4863" y="-599.3" font-family="Times,serif" font-size="14.00" fill="#000000">ServicesController</text>
<polyline fill="none" stroke="#000000" points="360,-592.5 480.9727,-592.5 "/>
<text text-anchor="start" x="368" y="-577.3" font-family="Times,serif" font-size="14.00" fill="#000000">update</text>
<text text-anchor="start" x="368" y="-563.3" font-family="Times,serif" font-size="14.00" fill="#000000">destroy</text>
<text text-anchor="start" x="368" y="-549.3" font-family="Times,serif" font-size="14.00" fill="#000000">index</text>
<text text-anchor="start" x="368" y="-535.3" font-family="Times,serif" font-size="14.00" fill="#000000">large</text>
<text text-anchor="start" x="368" y="-521.3" font-family="Times,serif" font-size="14.00" fill="#000000">medium</text>
<text text-anchor="start" x="368" y="-507.3" font-family="Times,serif" font-size="14.00" fill="#000000">publish</text>
<text text-anchor="start" x="368" y="-493.3" font-family="Times,serif" font-size="14.00" fill="#000000">search</text>
<text text-anchor="start" x="368" y="-479.3" font-family="Times,serif" font-size="14.00" fill="#000000">send_image_data</text>
<text text-anchor="start" x="368" y="-465.3" font-family="Times,serif" font-size="14.00" fill="#000000">show</text>
<text text-anchor="start" x="368" y="-451.3" font-family="Times,serif" font-size="14.00" fill="#000000">small</text>
<text text-anchor="start" x="368" y="-437.3" font-family="Times,serif" font-size="14.00" fill="#000000">unpublish</text>
<text text-anchor="start" x="368" y="-423.3" font-family="Times,serif" font-size="14.00" fill="#000000">create</text>
<polyline fill="none" stroke="#000000" points="360,-416.5 480.9727,-416.5 "/>
<polyline fill="none" stroke="#000000" points="360,-392.5 480.9727,-392.5 "/>
<text text-anchor="start" x="368" y="-377.3" font-family="Times,serif" font-size="14.00" fill="#000000">_layout</text>
<text text-anchor="start" x="368" y="-363.3" font-family="Times,serif" font-size="14.00" fill="#000000">service_params</text>
<text text-anchor="start" x="368" y="-349.3" font-family="Times,serif" font-size="14.00" fill="#000000">set_service</text>
</g>
<!-- SessionsController -->
<g id="node14" class="node">
<title>SessionsController</title>
<path fill="none" stroke="#000000" d="M30,-72.5C30,-72.5 146.4141,-72.5 146.4141,-72.5 152.4141,-72.5 158.4141,-78.5 158.4141,-84.5 158.4141,-84.5 158.4141,-220.5 158.4141,-220.5 158.4141,-226.5 152.4141,-232.5 146.4141,-232.5 146.4141,-232.5 30,-232.5 30,-232.5 24,-232.5 18,-226.5 18,-220.5 18,-220.5 18,-84.5 18,-84.5 18,-78.5 24,-72.5 30,-72.5"/>
<text text-anchor="middle" x="88.207" y="-217.3" font-family="Times,serif" font-size="14.00" fill="#000000">SessionsController</text>
<polyline fill="none" stroke="#000000" points="18,-210.5 158.4141,-210.5 "/>
<text text-anchor="start" x="26" y="-195.3" font-family="Times,serif" font-size="14.00" fill="#000000">authenticate</text>
<text text-anchor="start" x="26" y="-181.3" font-family="Times,serif" font-size="14.00" fill="#000000">callback</text>
<text text-anchor="start" x="26" y="-167.3" font-family="Times,serif" font-size="14.00" fill="#000000">cleanse_session</text>
<text text-anchor="start" x="26" y="-153.3" font-family="Times,serif" font-size="14.00" fill="#000000">destroy</text>
<text text-anchor="start" x="26" y="-139.3" font-family="Times,serif" font-size="14.00" fill="#000000">openid_connect_login</text>
<text text-anchor="start" x="26" y="-125.3" font-family="Times,serif" font-size="14.00" fill="#000000">public_keys_for</text>
<polyline fill="none" stroke="#000000" points="18,-118.5 158.4141,-118.5 "/>
<polyline fill="none" stroke="#000000" points="18,-94.5 158.4141,-94.5 "/>
<text text-anchor="start" x="26" y="-79.3" font-family="Times,serif" font-size="14.00" fill="#000000">_layout</text>
</g>
<!-- WelcomeController -->
<g id="node15" class="node">
<title>WelcomeController</title>
<path fill="none" stroke="#000000" d="M930,-.5C930,-.5 1032.0654,-.5 1032.0654,-.5 1038.0654,-.5 1044.0654,-6.5 1044.0654,-12.5 1044.0654,-12.5 1044.0654,-92.5 1044.0654,-92.5 1044.0654,-98.5 1038.0654,-104.5 1032.0654,-104.5 1032.0654,-104.5 930,-104.5 930,-104.5 924,-104.5 918,-98.5 918,-92.5 918,-92.5 918,-12.5 918,-12.5 918,-6.5 924,-.5 930,-.5"/>
<text text-anchor="middle" x="981.0327" y="-89.3" font-family="Times,serif" font-size="14.00" fill="#000000">WelcomeController</text>
<polyline fill="none" stroke="#000000" points="918,-82.5 1044.0654,-82.5 "/>
<text text-anchor="start" x="926" y="-67.3" font-family="Times,serif" font-size="14.00" fill="#000000">dashboard</text>
<text text-anchor="start" x="926" y="-53.3" font-family="Times,serif" font-size="14.00" fill="#000000">status</text>
<polyline fill="none" stroke="#000000" points="918,-46.5 1044.0654,-46.5 "/>
<polyline fill="none" stroke="#000000" points="918,-22.5 1044.0654,-22.5 "/>
<text text-anchor="start" x="926" y="-7.3" font-family="Times,serif" font-size="14.00" fill="#000000">_layout</text>
</g>
<!-- DependenciesController -->
<g id="node16" class="node">
<title>DependenciesController</title>
<path fill="none" stroke="#000000" d="M732,-198.5C732,-198.5 860.0625,-198.5 860.0625,-198.5 866.0625,-198.5 872.0625,-204.5 872.0625,-210.5 872.0625,-210.5 872.0625,-360.5 872.0625,-360.5 872.0625,-366.5 866.0625,-372.5 860.0625,-372.5 860.0625,-372.5 732,-372.5 732,-372.5 726,-372.5 720,-366.5 720,-360.5 720,-360.5 720,-210.5 720,-210.5 720,-204.5 726,-198.5 732,-198.5"/>
<text text-anchor="middle" x="796.0313" y="-357.3" font-family="Times,serif" font-size="14.00" fill="#000000">DependenciesController</text>
<polyline fill="none" stroke="#000000" points="720,-350.5 872.0625,-350.5 "/>
<text text-anchor="start" x="728" y="-335.3" font-family="Times,serif" font-size="14.00" fill="#000000">create</text>
<text text-anchor="start" x="728" y="-321.3" font-family="Times,serif" font-size="14.00" fill="#000000">destroy</text>
<text text-anchor="start" x="728" y="-307.3" font-family="Times,serif" font-size="14.00" fill="#000000">index</text>
<text text-anchor="start" x="728" y="-293.3" font-family="Times,serif" font-size="14.00" fill="#000000">show</text>
<text text-anchor="start" x="728" y="-279.3" font-family="Times,serif" font-size="14.00" fill="#000000">update</text>
<polyline fill="none" stroke="#000000" points="720,-272.5 872.0625,-272.5 "/>
<polyline fill="none" stroke="#000000" points="720,-248.5 872.0625,-248.5 "/>
<text text-anchor="start" x="728" y="-233.3" font-family="Times,serif" font-size="14.00" fill="#000000">_layout</text>
<text text-anchor="start" x="728" y="-219.3" font-family="Times,serif" font-size="14.00" fill="#000000">dependency_params</text>
<text text-anchor="start" x="728" y="-205.3" font-family="Times,serif" font-size="14.00" fill="#000000">set_dependency</text>
</g>
<!-- AssetsController -->
<g id="node17" class="node">
<title>AssetsController</title>
<path fill="none" stroke="#000000" d="M210,-90.5C210,-90.5 296.1035,-90.5 296.1035,-90.5 302.1035,-90.5 308.1035,-96.5 308.1035,-102.5 308.1035,-102.5 308.1035,-224.5 308.1035,-224.5 308.1035,-230.5 302.1035,-236.5 296.1035,-236.5 296.1035,-236.5 210,-236.5 210,-236.5 204,-236.5 198,-230.5 198,-224.5 198,-224.5 198,-102.5 198,-102.5 198,-96.5 204,-90.5 210,-90.5"/>
<text text-anchor="middle" x="253.0518" y="-221.3" font-family="Times,serif" font-size="14.00" fill="#000000">AssetsController</text>
<polyline fill="none" stroke="#000000" points="198,-214.5 308.1035,-214.5 "/>
<text text-anchor="start" x="206" y="-199.3" font-family="Times,serif" font-size="14.00" fill="#000000">create</text>
<text text-anchor="start" x="206" y="-185.3" font-family="Times,serif" font-size="14.00" fill="#000000">destroy</text>
<text text-anchor="start" x="206" y="-171.3" font-family="Times,serif" font-size="14.00" fill="#000000">index</text>
<text text-anchor="start" x="206" y="-157.3" font-family="Times,serif" font-size="14.00" fill="#000000">update</text>
<polyline fill="none" stroke="#000000" points="198,-150.5 308.1035,-150.5 "/>
<polyline fill="none" stroke="#000000" points="198,-126.5 308.1035,-126.5 "/>
<text text-anchor="start" x="206" y="-111.3" font-family="Times,serif" font-size="14.00" fill="#000000">_layout</text>
<text text-anchor="start" x="206" y="-97.3" font-family="Times,serif" font-size="14.00" fill="#000000">asset_params</text>
</g>
<!-- ExposuresController -->
<g id="node18" class="node">
<title>ExposuresController</title>
<path fill="none" stroke="#000000" d="M534,-180.5C534,-180.5 641.8691,-180.5 641.8691,-180.5 647.8691,-180.5 653.8691,-186.5 653.8691,-192.5 653.8691,-192.5 653.8691,-342.5 653.8691,-342.5 653.8691,-348.5 647.8691,-354.5 641.8691,-354.5 641.8691,-354.5 534,-354.5 534,-354.5 528,-354.5 522,-348.5 522,-342.5 522,-342.5 522,-192.5 522,-192.5 522,-186.5 528,-180.5 534,-180.5"/>
<text text-anchor="middle" x="587.9346" y="-339.3" font-family="Times,serif" font-size="14.00" fill="#000000">ExposuresController</text>
<polyline fill="none" stroke="#000000" points="522,-332.5 653.8691,-332.5 "/>
<text text-anchor="start" x="530" y="-317.3" font-family="Times,serif" font-size="14.00" fill="#000000">create</text>
<text text-anchor="start" x="530" y="-303.3" font-family="Times,serif" font-size="14.00" fill="#000000">destroy</text>
<text text-anchor="start" x="530" y="-289.3" font-family="Times,serif" font-size="14.00" fill="#000000">index</text>
<text text-anchor="start" x="530" y="-275.3" font-family="Times,serif" font-size="14.00" fill="#000000">show</text>
<text text-anchor="start" x="530" y="-261.3" font-family="Times,serif" font-size="14.00" fill="#000000">update</text>
<polyline fill="none" stroke="#000000" points="522,-254.5 653.8691,-254.5 "/>
<polyline fill="none" stroke="#000000" points="522,-230.5 653.8691,-230.5 "/>
<text text-anchor="start" x="530" y="-215.3" font-family="Times,serif" font-size="14.00" fill="#000000">_layout</text>
<text text-anchor="start" x="530" y="-201.3" font-family="Times,serif" font-size="14.00" fill="#000000">exposure_params</text>
<text text-anchor="start" x="530" y="-187.3" font-family="Times,serif" font-size="14.00" fill="#000000">set_exposure</text>
</g>
<!-- InterfacesController -->
<g id="node19" class="node">
<title>InterfacesController</title>
<path fill="none" stroke="#000000" d="M372,-126.5C372,-126.5 476.7246,-126.5 476.7246,-126.5 482.7246,-126.5 488.7246,-132.5 488.7246,-138.5 488.7246,-138.5 488.7246,-288.5 488.7246,-288.5 488.7246,-294.5 482.7246,-300.5 476.7246,-300.5 476.7246,-300.5 372,-300.5 372,-300.5 366,-300.5 360,-294.5 360,-288.5 360,-288.5 360,-138.5 360,-138.5 360,-132.5 366,-126.5 372,-126.5"/>
<text text-anchor="middle" x="424.3623" y="-285.3" font-family="Times,serif" font-size="14.00" fill="#000000">InterfacesController</text>
<polyline fill="none" stroke="#000000" points="360,-278.5 488.7246,-278.5 "/>
<text text-anchor="start" x="368" y="-263.3" font-family="Times,serif" font-size="14.00" fill="#000000">create</text>
<text text-anchor="start" x="368" y="-249.3" font-family="Times,serif" font-size="14.00" fill="#000000">destroy</text>
<text text-anchor="start" x="368" y="-235.3" font-family="Times,serif" font-size="14.00" fill="#000000">index</text>
<text text-anchor="start" x="368" y="-221.3" font-family="Times,serif" font-size="14.00" fill="#000000">show</text>
<text text-anchor="start" x="368" y="-207.3" font-family="Times,serif" font-size="14.00" fill="#000000">update</text>
<polyline fill="none" stroke="#000000" points="360,-200.5 488.7246,-200.5 "/>
<polyline fill="none" stroke="#000000" points="360,-176.5 488.7246,-176.5 "/>
<text text-anchor="start" x="368" y="-161.3" font-family="Times,serif" font-size="14.00" fill="#000000">_layout</text>
<text text-anchor="start" x="368" y="-147.3" font-family="Times,serif" font-size="14.00" fill="#000000">interface_params</text>
<text text-anchor="start" x="368" y="-133.3" font-family="Times,serif" font-size="14.00" fill="#000000">set_interface</text>
</g>
<!-- ParametersController -->
<g id="node20" class="node">
<title>ParametersController</title>
<path fill="none" stroke="#000000" d="M804,-630.5C804,-630.5 915.7383,-630.5 915.7383,-630.5 921.7383,-630.5 927.7383,-636.5 927.7383,-642.5 927.7383,-642.5 927.7383,-792.5 927.7383,-792.5 927.7383,-798.5 921.7383,-804.5 915.7383,-804.5 915.7383,-804.5 804,-804.5 804,-804.5 798,-804.5 792,-798.5 792,-792.5 792,-792.5 792,-642.5 792,-642.5 792,-636.5 798,-630.5 804,-630.5"/>
<text text-anchor="middle" x="859.8691" y="-789.3" font-family="Times,serif" font-size="14.00" fill="#000000">ParametersController</text>
<polyline fill="none" stroke="#000000" points="792,-782.5 927.7383,-782.5 "/>
<text text-anchor="start" x="800" y="-767.3" font-family="Times,serif" font-size="14.00" fill="#000000">create</text>
<text text-anchor="start" x="800" y="-753.3" font-family="Times,serif" font-size="14.00" fill="#000000">destroy</text>
<text text-anchor="start" x="800" y="-739.3" font-family="Times,serif" font-size="14.00" fill="#000000">index</text>
<text text-anchor="start" x="800" y="-725.3" font-family="Times,serif" font-size="14.00" fill="#000000">show</text>
<text text-anchor="start" x="800" y="-711.3" font-family="Times,serif" font-size="14.00" fill="#000000">update</text>
<polyline fill="none" stroke="#000000" points="792,-704.5 927.7383,-704.5 "/>
<polyline fill="none" stroke="#000000" points="792,-680.5 927.7383,-680.5 "/>
<text text-anchor="start" x="800" y="-665.3" font-family="Times,serif" font-size="14.00" fill="#000000">_layout</text>
<text text-anchor="start" x="800" y="-651.3" font-family="Times,serif" font-size="14.00" fill="#000000">parameter_params</text>
<text text-anchor="start" x="800" y="-637.3" font-family="Times,serif" font-size="14.00" fill="#000000">set_parameter</text>
</g>
<!-- IdentitiesController -->
<g id="node21" class="node">
<title>IdentitiesController</title>
<path fill="none" stroke="#000000" d="M894,-414.5C894,-414.5 995.6416,-414.5 995.6416,-414.5 1001.6416,-414.5 1007.6416,-420.5 1007.6416,-426.5 1007.6416,-426.5 1007.6416,-562.5 1007.6416,-562.5 1007.6416,-568.5 1001.6416,-574.5 995.6416,-574.5 995.6416,-574.5 894,-574.5 894,-574.5 888,-574.5 882,-568.5 882,-562.5 882,-562.5 882,-426.5 882,-426.5 882,-420.5 888,-414.5 894,-414.5"/>
<text text-anchor="middle" x="944.8208" y="-559.3" font-family="Times,serif" font-size="14.00" fill="#000000">IdentitiesController</text>
<polyline fill="none" stroke="#000000" points="882,-552.5 1007.6416,-552.5 "/>
<text text-anchor="start" x="890" y="-537.3" font-family="Times,serif" font-size="14.00" fill="#000000">create</text>
<text text-anchor="start" x="890" y="-523.3" font-family="Times,serif" font-size="14.00" fill="#000000">destroy</text>
<text text-anchor="start" x="890" y="-509.3" font-family="Times,serif" font-size="14.00" fill="#000000">index</text>
<text text-anchor="start" x="890" y="-495.3" font-family="Times,serif" font-size="14.00" fill="#000000">show</text>
<text text-anchor="start" x="890" y="-481.3" font-family="Times,serif" font-size="14.00" fill="#000000">update</text>
<polyline fill="none" stroke="#000000" points="882,-474.5 1007.6416,-474.5 "/>
<polyline fill="none" stroke="#000000" points="882,-450.5 1007.6416,-450.5 "/>
<text text-anchor="start" x="890" y="-435.3" font-family="Times,serif" font-size="14.00" fill="#000000">_layout</text>
<text text-anchor="start" x="890" y="-421.3" font-family="Times,serif" font-size="14.00" fill="#000000">identity_params</text>
</g>
<!-- MembersController -->
<g id="node22" class="node">
<title>MembersController</title>
<path fill="none" stroke="#000000" d="M480,-900.5C480,-900.5 582.4209,-900.5 582.4209,-900.5 588.4209,-900.5 594.4209,-906.5 594.4209,-912.5 594.4209,-912.5 594.4209,-1062.5 594.4209,-1062.5 594.4209,-1068.5 588.4209,-1074.5 582.4209,-1074.5 582.4209,-1074.5 480,-1074.5 480,-1074.5 474,-1074.5 468,-1068.5 468,-1062.5 468,-1062.5 468,-912.5 468,-912.5 468,-906.5 474,-900.5 480,-900.5"/>
<text text-anchor="middle" x="531.2104" y="-1059.3" font-family="Times,serif" font-size="14.00" fill="#000000">MembersController</text>
<polyline fill="none" stroke="#000000" points="468,-1052.5 594.4209,-1052.5 "/>
<text text-anchor="start" x="476" y="-1037.3" font-family="Times,serif" font-size="14.00" fill="#000000">create</text>
<text text-anchor="start" x="476" y="-1023.3" font-family="Times,serif" font-size="14.00" fill="#000000">destroy</text>
<text text-anchor="start" x="476" y="-1009.3" font-family="Times,serif" font-size="14.00" fill="#000000">index</text>
<text text-anchor="start" x="476" y="-995.3" font-family="Times,serif" font-size="14.00" fill="#000000">show</text>
<text text-anchor="start" x="476" y="-981.3" font-family="Times,serif" font-size="14.00" fill="#000000">update</text>
<polyline fill="none" stroke="#000000" points="468,-974.5 594.4209,-974.5 "/>
<polyline fill="none" stroke="#000000" points="468,-950.5 594.4209,-950.5 "/>
<text text-anchor="start" x="476" y="-935.3" font-family="Times,serif" font-size="14.00" fill="#000000">_layout</text>
<text text-anchor="start" x="476" y="-921.3" font-family="Times,serif" font-size="14.00" fill="#000000">member_params</text>
<text text-anchor="start" x="476" y="-907.3" font-family="Times,serif" font-size="14.00" fill="#000000">set_member</text>
</g>
<!-- SurrogatesController -->
<g id="node23" class="node">
<title>SurrogatesController</title>
<path fill="none" stroke="#000000" d="M732,-414.5C732,-414.5 841.4209,-414.5 841.4209,-414.5 847.4209,-414.5 853.4209,-420.5 853.4209,-426.5 853.4209,-426.5 853.4209,-576.5 853.4209,-576.5 853.4209,-582.5 847.4209,-588.5 841.4209,-588.5 841.4209,-588.5 732,-588.5 732,-588.5 726,-588.5 720,-582.5 720,-576.5 720,-576.5 720,-426.5 720,-426.5 720,-420.5 726,-414.5 732,-414.5"/>
<text text-anchor="middle" x="786.7104" y="-573.3" font-family="Times,serif" font-size="14.00" fill="#000000">SurrogatesController</text>
<polyline fill="none" stroke="#000000" points="720,-566.5 853.4209,-566.5 "/>
<text text-anchor="start" x="728" y="-551.3" font-family="Times,serif" font-size="14.00" fill="#000000">create</text>
<text text-anchor="start" x="728" y="-537.3" font-family="Times,serif" font-size="14.00" fill="#000000">destroy</text>
<text text-anchor="start" x="728" y="-523.3" font-family="Times,serif" font-size="14.00" fill="#000000">index</text>
<text text-anchor="start" x="728" y="-509.3" font-family="Times,serif" font-size="14.00" fill="#000000">show</text>
<text text-anchor="start" x="728" y="-495.3" font-family="Times,serif" font-size="14.00" fill="#000000">update</text>
<polyline fill="none" stroke="#000000" points="720,-488.5 853.4209,-488.5 "/>
<polyline fill="none" stroke="#000000" points="720,-464.5 853.4209,-464.5 "/>
<text text-anchor="start" x="728" y="-449.3" font-family="Times,serif" font-size="14.00" fill="#000000">_layout</text>
<text text-anchor="start" x="728" y="-435.3" font-family="Times,serif" font-size="14.00" fill="#000000">set_surrogate</text>
<text text-anchor="start" x="728" y="-421.3" font-family="Times,serif" font-size="14.00" fill="#000000">surrogate_params</text>
</g>
<!-- InstancesController -->
<g id="node24" class="node">
<title>InstancesController</title>
<path fill="none" stroke="#000000" d="M912,-198.5C912,-198.5 1013.6348,-198.5 1013.6348,-198.5 1019.6348,-198.5 1025.6348,-204.5 1025.6348,-210.5 1025.6348,-210.5 1025.6348,-346.5 1025.6348,-346.5 1025.6348,-352.5 1019.6348,-358.5 1013.6348,-358.5 1013.6348,-358.5 912,-358.5 912,-358.5 906,-358.5 900,-352.5 900,-346.5 900,-346.5 900,-210.5 900,-210.5 900,-204.5 906,-198.5 912,-198.5"/>
<text text-anchor="middle" x="962.8174" y="-343.3" font-family="Times,serif" font-size="14.00" fill="#000000">InstancesController</text>
<polyline fill="none" stroke="#000000" points="900,-336.5 1025.6348,-336.5 "/>
<text text-anchor="start" x="908" y="-321.3" font-family="Times,serif" font-size="14.00" fill="#000000">create</text>
<text text-anchor="start" x="908" y="-307.3" font-family="Times,serif" font-size="14.00" fill="#000000">destroy</text>
<text text-anchor="start" x="908" y="-293.3" font-family="Times,serif" font-size="14.00" fill="#000000">index</text>
<text text-anchor="start" x="908" y="-279.3" font-family="Times,serif" font-size="14.00" fill="#000000">show</text>
<text text-anchor="start" x="908" y="-265.3" font-family="Times,serif" font-size="14.00" fill="#000000">update</text>
<polyline fill="none" stroke="#000000" points="900,-258.5 1025.6348,-258.5 "/>
<polyline fill="none" stroke="#000000" points="900,-234.5 1025.6348,-234.5 "/>
<text text-anchor="start" x="908" y="-219.3" font-family="Times,serif" font-size="14.00" fill="#000000">_layout</text>
<text text-anchor="start" x="908" y="-205.3" font-family="Times,serif" font-size="14.00" fill="#000000">instance_params</text>
</g>
<!-- RolesController -->
<g id="node25" class="node">
<title>RolesController</title>
<path fill="none" stroke="#000000" d="M210,-720.5C210,-720.5 350.5313,-720.5 350.5313,-720.5 356.5313,-720.5 362.5313,-726.5 362.5313,-732.5 362.5313,-732.5 362.5313,-882.5 362.5313,-882.5 362.5313,-888.5 356.5313,-894.5 350.5313,-894.5 350.5313,-894.5 210,-894.5 210,-894.5 204,-894.5 198,-888.5 198,-882.5 198,-882.5 198,-732.5 198,-732.5 198,-726.5 204,-720.5 210,-720.5"/>
<text text-anchor="middle" x="280.2656" y="-879.3" font-family="Times,serif" font-size="14.00" fill="#000000">RolesController</text>
<polyline fill="none" stroke="#000000" points="198,-872.5 362.5313,-872.5 "/>
<text text-anchor="start" x="206" y="-857.3" font-family="Times,serif" font-size="14.00" fill="#000000">create</text>
<text text-anchor="start" x="206" y="-843.3" font-family="Times,serif" font-size="14.00" fill="#000000">destroy</text>
<text text-anchor="start" x="206" y="-829.3" font-family="Times,serif" font-size="14.00" fill="#000000">index</text>
<text text-anchor="start" x="206" y="-815.3" font-family="Times,serif" font-size="14.00" fill="#000000">show</text>
<text text-anchor="start" x="206" y="-801.3" font-family="Times,serif" font-size="14.00" fill="#000000">update</text>
<polyline fill="none" stroke="#000000" points="198,-794.5 362.5313,-794.5 "/>
<polyline fill="none" stroke="#000000" points="198,-770.5 362.5313,-770.5 "/>
<text text-anchor="start" x="206" y="-755.3" font-family="Times,serif" font-size="14.00" fill="#000000">_layout</text>
<text text-anchor="start" x="206" y="-741.3" font-family="Times,serif" font-size="14.00" fill="#000000">permissions_from_params</text>
<text text-anchor="start" x="206" y="-727.3" font-family="Times,serif" font-size="14.00" fill="#000000">role_params</text>
</g>
<!-- ConfigurationsController -->
<g id="node26" class="node">
<title>ConfigurationsController</title>
<path fill="none" stroke="#000000" d="M174,-270.5C174,-270.5 306.7725,-270.5 306.7725,-270.5 312.7725,-270.5 318.7725,-276.5 318.7725,-282.5 318.7725,-282.5 318.7725,-432.5 318.7725,-432.5 318.7725,-438.5 312.7725,-444.5 306.7725,-444.5 306.7725,-444.5 174,-444.5 174,-444.5 168,-444.5 162,-438.5 162,-432.5 162,-432.5 162,-282.5 162,-282.5 162,-276.5 168,-270.5 174,-270.5"/>
<text text-anchor="middle" x="240.3862" y="-429.3" font-family="Times,serif" font-size="14.00" fill="#000000">ConfigurationsController</text>
<polyline fill="none" stroke="#000000" points="162,-422.5 318.7725,-422.5 "/>
<text text-anchor="start" x="170" y="-407.3" font-family="Times,serif" font-size="14.00" fill="#000000">create</text>
<text text-anchor="start" x="170" y="-393.3" font-family="Times,serif" font-size="14.00" fill="#000000">destroy</text>
<text text-anchor="start" x="170" y="-379.3" font-family="Times,serif" font-size="14.00" fill="#000000">index</text>
<text text-anchor="start" x="170" y="-365.3" font-family="Times,serif" font-size="14.00" fill="#000000">show</text>
<text text-anchor="start" x="170" y="-351.3" font-family="Times,serif" font-size="14.00" fill="#000000">update</text>
<polyline fill="none" stroke="#000000" points="162,-344.5 318.7725,-344.5 "/>
<polyline fill="none" stroke="#000000" points="162,-320.5 318.7725,-320.5 "/>
<text text-anchor="start" x="170" y="-305.3" font-family="Times,serif" font-size="14.00" fill="#000000">_layout</text>
<text text-anchor="start" x="170" y="-291.3" font-family="Times,serif" font-size="14.00" fill="#000000">configuration_params</text>
<text text-anchor="start" x="170" y="-277.3" font-family="Times,serif" font-size="14.00" fill="#000000">set_configuration</text>
</g>
<!-- PlatformsController -->
<g id="node27" class="node">
<title>PlatformsController</title>
<path fill="none" stroke="#000000" d="M804,-846.5C804,-846.5 907.9863,-846.5 907.9863,-846.5 913.9863,-846.5 919.9863,-852.5 919.9863,-858.5 919.9863,-858.5 919.9863,-1008.5 919.9863,-1008.5 919.9863,-1014.5 913.9863,-1020.5 907.9863,-1020.5 907.9863,-1020.5 804,-1020.5 804,-1020.5 798,-1020.5 792,-1014.5 792,-1008.5 792,-1008.5 792,-858.5 792,-858.5 792,-852.5 798,-846.5 804,-846.5"/>
<text text-anchor="middle" x="855.9932" y="-1005.3" font-family="Times,serif" font-size="14.00" fill="#000000">PlatformsController</text>
<polyline fill="none" stroke="#000000" points="792,-998.5 919.9863,-998.5 "/>
<text text-anchor="start" x="800" y="-983.3" font-family="Times,serif" font-size="14.00" fill="#000000">create</text>
<text text-anchor="start" x="800" y="-969.3" font-family="Times,serif" font-size="14.00" fill="#000000">destroy</text>
<text text-anchor="start" x="800" y="-955.3" font-family="Times,serif" font-size="14.00" fill="#000000">index</text>
<text text-anchor="start" x="800" y="-941.3" font-family="Times,serif" font-size="14.00" fill="#000000">show</text>
<text text-anchor="start" x="800" y="-927.3" font-family="Times,serif" font-size="14.00" fill="#000000">update</text>
<polyline fill="none" stroke="#000000" points="792,-920.5 919.9863,-920.5 "/>
<polyline fill="none" stroke="#000000" points="792,-896.5 919.9863,-896.5 "/>
<text text-anchor="start" x="800" y="-881.3" font-family="Times,serif" font-size="14.00" fill="#000000">_layout</text>
<text text-anchor="start" x="800" y="-867.3" font-family="Times,serif" font-size="14.00" fill="#000000">platform_params</text>
<text text-anchor="start" x="800" y="-853.3" font-family="Times,serif" font-size="14.00" fill="#000000">set_platform</text>
</g>
</g>
</svg>
