<?xml version="1.0" encoding="UTF-8" standalone="no"?>
<!DOCTYPE svg PUBLIC "-//W3C//DTD SVG 1.1//EN"
 "http://www.w3.org/Graphics/SVG/1.1/DTD/svg11.dtd">
<!-- Generated by graphviz version 2.40.1 (20161225.0304)
 -->
<!-- Title: controllers_diagram Pages: 1 -->
<svg width="1034pt" height="1119pt"
 viewBox="0.00 0.00 1034.07 1119.00" xmlns="http://www.w3.org/2000/svg" xmlns:xlink="http://www.w3.org/1999/xlink">
<g id="graph0" class="graph" transform="scale(1 1) rotate(0) translate(4 1115)">
<title>controllers_diagram</title>
<polygon fill="transparent" stroke="transparent" points="-4,4 -4,-1115 1030.0654,-1115 1030.0654,4 -4,4"/>
<!-- _diagram_info -->
<g id="node1" class="node">
<title>_diagram_info</title>
<text text-anchor="start" x="674" y="-130.6" font-family="Times,serif" font-size="13.00" fill="#000000">Controllers diagram</text>
<text text-anchor="start" x="674" y="-117.6" font-family="Times,serif" font-size="13.00" fill="#000000">Date: Jan 24 2017 &#45; 22:33</text>
<text text-anchor="start" x="674" y="-104.6" font-family="Times,serif" font-size="13.00" fill="#000000">Migration version: 20170125053132</text>
<text text-anchor="start" x="674" y="-91.6" font-family="Times,serif" font-size="13.00" fill="#000000">Generated by RailRoady 1.5.2</text>
<text text-anchor="start" x="674" y="-78.6" font-family="Times,serif" font-size="13.00" fill="#000000">http://railroady.prestonlee.com</text>
</g>
<!-- ApplicationController -->
<g id="node2" class="node">
<title>ApplicationController</title>
<path fill="none" stroke="#000000" d="M354,-360.5C354,-360.5 531.0352,-360.5 531.0352,-360.5 537.0352,-360.5 543.0352,-366.5 543.0352,-372.5 543.0352,-372.5 543.0352,-564.5 543.0352,-564.5 543.0352,-570.5 537.0352,-576.5 531.0352,-576.5 531.0352,-576.5 354,-576.5 354,-576.5 348,-576.5 342,-570.5 342,-564.5 342,-564.5 342,-372.5 342,-372.5 342,-366.5 348,-360.5 354,-360.5"/>
<text text-anchor="middle" x="442.5176" y="-561.3" font-family="Times,serif" font-size="14.00" fill="#000000">ApplicationController</text>
<polyline fill="none" stroke="#000000" points="342,-554.5 543.0352,-554.5 "/>
<text text-anchor="start" x="350" y="-539.3" font-family="Times,serif" font-size="14.00" fill="#000000">unauthenticate!</text>
<text text-anchor="start" x="350" y="-525.3" font-family="Times,serif" font-size="14.00" fill="#000000">cors_preflight_check</text>
<text text-anchor="start" x="350" y="-511.3" font-family="Times,serif" font-size="14.00" fill="#000000">cors_set_access_control_headers</text>
<text text-anchor="start" x="350" y="-497.3" font-family="Times,serif" font-size="14.00" fill="#000000">current_user</text>
<text text-anchor="start" x="350" y="-483.3" font-family="Times,serif" font-size="14.00" fill="#000000">new_nonce</text>
<text text-anchor="start" x="350" y="-469.3" font-family="Times,serif" font-size="14.00" fill="#000000">redirect_to_identity_provider</text>
<text text-anchor="start" x="350" y="-455.3" font-family="Times,serif" font-size="14.00" fill="#000000">set_identity_from_session!</text>
<text text-anchor="start" x="350" y="-441.3" font-family="Times,serif" font-size="14.00" fill="#000000">set_options_from</text>
<text text-anchor="start" x="350" y="-427.3" font-family="Times,serif" font-size="14.00" fill="#000000">stored_nonce</text>
<text text-anchor="start" x="350" y="-413.3" font-family="Times,serif" font-size="14.00" fill="#000000">build_oauth_request</text>
<polyline fill="none" stroke="#000000" points="342,-406.5 543.0352,-406.5 "/>
<polyline fill="none" stroke="#000000" points="342,-382.5 543.0352,-382.5 "/>
<text text-anchor="start" x="350" y="-367.3" font-family="Times,serif" font-size="14.00" fill="#000000">_layout</text>
</g>
<!-- AppointmentsController -->
<g id="node3" class="node">
<title>AppointmentsController</title>
<path fill="none" stroke="#000000" d="M174,-468.5C174,-468.5 302.876,-468.5 302.876,-468.5 308.876,-468.5 314.876,-474.5 314.876,-480.5 314.876,-480.5 314.876,-630.5 314.876,-630.5 314.876,-636.5 308.876,-642.5 302.876,-642.5 302.876,-642.5 174,-642.5 174,-642.5 168,-642.5 162,-636.5 162,-630.5 162,-630.5 162,-480.5 162,-480.5 162,-474.5 168,-468.5 174,-468.5"/>
<text text-anchor="middle" x="238.438" y="-627.3" font-family="Times,serif" font-size="14.00" fill="#000000">AppointmentsController</text>
<polyline fill="none" stroke="#000000" points="162,-620.5 314.876,-620.5 "/>
<text text-anchor="start" x="170" y="-605.3" font-family="Times,serif" font-size="14.00" fill="#000000">create</text>
<text text-anchor="start" x="170" y="-591.3" font-family="Times,serif" font-size="14.00" fill="#000000">destroy</text>
<text text-anchor="start" x="170" y="-577.3" font-family="Times,serif" font-size="14.00" fill="#000000">index</text>
<text text-anchor="start" x="170" y="-563.3" font-family="Times,serif" font-size="14.00" fill="#000000">show</text>
<text text-anchor="start" x="170" y="-549.3" font-family="Times,serif" font-size="14.00" fill="#000000">update</text>
<polyline fill="none" stroke="#000000" points="162,-542.5 314.876,-542.5 "/>
<polyline fill="none" stroke="#000000" points="162,-518.5 314.876,-518.5 "/>
<text text-anchor="start" x="170" y="-503.3" font-family="Times,serif" font-size="14.00" fill="#000000">_layout</text>
<text text-anchor="start" x="170" y="-489.3" font-family="Times,serif" font-size="14.00" fill="#000000">appointment_params</text>
<text text-anchor="start" x="170" y="-475.3" font-family="Times,serif" font-size="14.00" fill="#000000">set_appointment</text>
</g>
<!-- AssetsController -->
<g id="node4" class="node">
<title>AssetsController</title>
<path fill="none" stroke="#000000" d="M30,-468.5C30,-468.5 116.1035,-468.5 116.1035,-468.5 122.1035,-468.5 128.1035,-474.5 128.1035,-480.5 128.1035,-480.5 128.1035,-602.5 128.1035,-602.5 128.1035,-608.5 122.1035,-614.5 116.1035,-614.5 116.1035,-614.5 30,-614.5 30,-614.5 24,-614.5 18,-608.5 18,-602.5 18,-602.5 18,-480.5 18,-480.5 18,-474.5 24,-468.5 30,-468.5"/>
<text text-anchor="middle" x="73.0518" y="-599.3" font-family="Times,serif" font-size="14.00" fill="#000000">AssetsController</text>
<polyline fill="none" stroke="#000000" points="18,-592.5 128.1035,-592.5 "/>
<text text-anchor="start" x="26" y="-577.3" font-family="Times,serif" font-size="14.00" fill="#000000">create</text>
<text text-anchor="start" x="26" y="-563.3" font-family="Times,serif" font-size="14.00" fill="#000000">destroy</text>
<text text-anchor="start" x="26" y="-549.3" font-family="Times,serif" font-size="14.00" fill="#000000">index</text>
<text text-anchor="start" x="26" y="-535.3" font-family="Times,serif" font-size="14.00" fill="#000000">update</text>
<polyline fill="none" stroke="#000000" points="18,-528.5 128.1035,-528.5 "/>
<polyline fill="none" stroke="#000000" points="18,-504.5 128.1035,-504.5 "/>
<text text-anchor="start" x="26" y="-489.3" font-family="Times,serif" font-size="14.00" fill="#000000">_layout</text>
<text text-anchor="start" x="26" y="-475.3" font-family="Times,serif" font-size="14.00" fill="#000000">asset_params</text>
</g>
<!-- BuildsController -->
<g id="node5" class="node">
<title>BuildsController</title>
<path fill="none" stroke="#000000" d="M840,-828.5C840,-828.5 926.1104,-828.5 926.1104,-828.5 932.1104,-828.5 938.1104,-834.5 938.1104,-840.5 938.1104,-840.5 938.1104,-990.5 938.1104,-990.5 938.1104,-996.5 932.1104,-1002.5 926.1104,-1002.5 926.1104,-1002.5 840,-1002.5 840,-1002.5 834,-1002.5 828,-996.5 828,-990.5 828,-990.5 828,-840.5 828,-840.5 828,-834.5 834,-828.5 840,-828.5"/>
<text text-anchor="middle" x="883.0552" y="-987.3" font-family="Times,serif" font-size="14.00" fill="#000000">BuildsController</text>
<polyline fill="none" stroke="#000000" points="828,-980.5 938.1104,-980.5 "/>
<text text-anchor="start" x="836" y="-965.3" font-family="Times,serif" font-size="14.00" fill="#000000">create</text>
<text text-anchor="start" x="836" y="-951.3" font-family="Times,serif" font-size="14.00" fill="#000000">destroy</text>
<text text-anchor="start" x="836" y="-937.3" font-family="Times,serif" font-size="14.00" fill="#000000">index</text>
<text text-anchor="start" x="836" y="-923.3" font-family="Times,serif" font-size="14.00" fill="#000000">show</text>
<text text-anchor="start" x="836" y="-909.3" font-family="Times,serif" font-size="14.00" fill="#000000">update</text>
<polyline fill="none" stroke="#000000" points="828,-902.5 938.1104,-902.5 "/>
<polyline fill="none" stroke="#000000" points="828,-878.5 938.1104,-878.5 "/>
<text text-anchor="start" x="836" y="-863.3" font-family="Times,serif" font-size="14.00" fill="#000000">_layout</text>
<text text-anchor="start" x="836" y="-849.3" font-family="Times,serif" font-size="14.00" fill="#000000">build_params</text>
<text text-anchor="start" x="836" y="-835.3" font-family="Times,serif" font-size="14.00" fill="#000000">set_build</text>
</g>
<!-- ClientsController -->
<g id="node6" class="node">
<title>ClientsController</title>
<path fill="none" stroke="#000000" d="M246,-936.5C246,-936.5 335.2139,-936.5 335.2139,-936.5 341.2139,-936.5 347.2139,-942.5 347.2139,-948.5 347.2139,-948.5 347.2139,-1028.5 347.2139,-1028.5 347.2139,-1034.5 341.2139,-1040.5 335.2139,-1040.5 335.2139,-1040.5 246,-1040.5 246,-1040.5 240,-1040.5 234,-1034.5 234,-1028.5 234,-1028.5 234,-948.5 234,-948.5 234,-942.5 240,-936.5 246,-936.5"/>
<text text-anchor="middle" x="290.6069" y="-1025.3" font-family="Times,serif" font-size="14.00" fill="#000000">ClientsController</text>
<polyline fill="none" stroke="#000000" points="234,-1018.5 347.2139,-1018.5 "/>
<text text-anchor="start" x="242" y="-1003.3" font-family="Times,serif" font-size="14.00" fill="#000000">index</text>
<text text-anchor="start" x="242" y="-989.3" font-family="Times,serif" font-size="14.00" fill="#000000">launch</text>
<polyline fill="none" stroke="#000000" points="234,-982.5 347.2139,-982.5 "/>
<polyline fill="none" stroke="#000000" points="234,-958.5 347.2139,-958.5 "/>
<text text-anchor="start" x="242" y="-943.3" font-family="Times,serif" font-size="14.00" fill="#000000">_layout</text>
</g>
<!-- ConfigurationsController -->
<g id="node7" class="node">
<title>ConfigurationsController</title>
<path fill="none" stroke="#000000" d="M750,-180.5C750,-180.5 882.7725,-180.5 882.7725,-180.5 888.7725,-180.5 894.7725,-186.5 894.7725,-192.5 894.7725,-192.5 894.7725,-342.5 894.7725,-342.5 894.7725,-348.5 888.7725,-354.5 882.7725,-354.5 882.7725,-354.5 750,-354.5 750,-354.5 744,-354.5 738,-348.5 738,-342.5 738,-342.5 738,-192.5 738,-192.5 738,-186.5 744,-180.5 750,-180.5"/>
<text text-anchor="middle" x="816.3862" y="-339.3" font-family="Times,serif" font-size="14.00" fill="#000000">ConfigurationsController</text>
<polyline fill="none" stroke="#000000" points="738,-332.5 894.7725,-332.5 "/>
<text text-anchor="start" x="746" y="-317.3" font-family="Times,serif" font-size="14.00" fill="#000000">create</text>
<text text-anchor="start" x="746" y="-303.3" font-family="Times,serif" font-size="14.00" fill="#000000">destroy</text>
<text text-anchor="start" x="746" y="-289.3" font-family="Times,serif" font-size="14.00" fill="#000000">index</text>
<text text-anchor="start" x="746" y="-275.3" font-family="Times,serif" font-size="14.00" fill="#000000">show</text>
<text text-anchor="start" x="746" y="-261.3" font-family="Times,serif" font-size="14.00" fill="#000000">update</text>
<polyline fill="none" stroke="#000000" points="738,-254.5 894.7725,-254.5 "/>
<polyline fill="none" stroke="#000000" points="738,-230.5 894.7725,-230.5 "/>
<text text-anchor="start" x="746" y="-215.3" font-family="Times,serif" font-size="14.00" fill="#000000">_layout</text>
<text text-anchor="start" x="746" y="-201.3" font-family="Times,serif" font-size="14.00" fill="#000000">configuration_params</text>
<text text-anchor="start" x="746" y="-187.3" font-family="Times,serif" font-size="14.00" fill="#000000">set_configuration</text>
</g>
<!-- DependenciesController -->
<g id="node8" class="node">
<title>DependenciesController</title>
<path fill="none" stroke="#000000" d="M174,-252.5C174,-252.5 302.0625,-252.5 302.0625,-252.5 308.0625,-252.5 314.0625,-258.5 314.0625,-264.5 314.0625,-264.5 314.0625,-414.5 314.0625,-414.5 314.0625,-420.5 308.0625,-426.5 302.0625,-426.5 302.0625,-426.5 174,-426.5 174,-426.5 168,-426.5 162,-420.5 162,-414.5 162,-414.5 162,-264.5 162,-264.5 162,-258.5 168,-252.5 174,-252.5"/>
<text text-anchor="middle" x="238.0313" y="-411.3" font-family="Times,serif" font-size="14.00" fill="#000000">DependenciesController</text>
<polyline fill="none" stroke="#000000" points="162,-404.5 314.0625,-404.5 "/>
<text text-anchor="start" x="170" y="-389.3" font-family="Times,serif" font-size="14.00" fill="#000000">create</text>
<text text-anchor="start" x="170" y="-375.3" font-family="Times,serif" font-size="14.00" fill="#000000">destroy</text>
<text text-anchor="start" x="170" y="-361.3" font-family="Times,serif" font-size="14.00" fill="#000000">index</text>
<text text-anchor="start" x="170" y="-347.3" font-family="Times,serif" font-size="14.00" fill="#000000">show</text>
<text text-anchor="start" x="170" y="-333.3" font-family="Times,serif" font-size="14.00" fill="#000000">update</text>
<polyline fill="none" stroke="#000000" points="162,-326.5 314.0625,-326.5 "/>
<polyline fill="none" stroke="#000000" points="162,-302.5 314.0625,-302.5 "/>
<text text-anchor="start" x="170" y="-287.3" font-family="Times,serif" font-size="14.00" fill="#000000">_layout</text>
<text text-anchor="start" x="170" y="-273.3" font-family="Times,serif" font-size="14.00" fill="#000000">dependency_params</text>
<text text-anchor="start" x="170" y="-259.3" font-family="Times,serif" font-size="14.00" fill="#000000">set_dependency</text>
</g>
<!-- ExposuresController -->
<g id="node9" class="node">
<title>ExposuresController</title>
<path fill="none" stroke="#000000" d="M750,-396.5C750,-396.5 857.8691,-396.5 857.8691,-396.5 863.8691,-396.5 869.8691,-402.5 869.8691,-408.5 869.8691,-408.5 869.8691,-558.5 869.8691,-558.5 869.8691,-564.5 863.8691,-570.5 857.8691,-570.5 857.8691,-570.5 750,-570.5 750,-570.5 744,-570.5 738,-564.5 738,-558.5 738,-558.5 738,-408.5 738,-408.5 738,-402.5 744,-396.5 750,-396.5"/>
<text text-anchor="middle" x="803.9346" y="-555.3" font-family="Times,serif" font-size="14.00" fill="#000000">ExposuresController</text>
<polyline fill="none" stroke="#000000" points="738,-548.5 869.8691,-548.5 "/>
<text text-anchor="start" x="746" y="-533.3" font-family="Times,serif" font-size="14.00" fill="#000000">create</text>
<text text-anchor="start" x="746" y="-519.3" font-family="Times,serif" font-size="14.00" fill="#000000">destroy</text>
<text text-anchor="start" x="746" y="-505.3" font-family="Times,serif" font-size="14.00" fill="#000000">index</text>
<text text-anchor="start" x="746" y="-491.3" font-family="Times,serif" font-size="14.00" fill="#000000">show</text>
<text text-anchor="start" x="746" y="-477.3" font-family="Times,serif" font-size="14.00" fill="#000000">update</text>
<polyline fill="none" stroke="#000000" points="738,-470.5 869.8691,-470.5 "/>
<polyline fill="none" stroke="#000000" points="738,-446.5 869.8691,-446.5 "/>
<text text-anchor="start" x="746" y="-431.3" font-family="Times,serif" font-size="14.00" fill="#000000">_layout</text>
<text text-anchor="start" x="746" y="-417.3" font-family="Times,serif" font-size="14.00" fill="#000000">exposure_params</text>
<text text-anchor="start" x="746" y="-403.3" font-family="Times,serif" font-size="14.00" fill="#000000">set_exposure</text>
</g>
<!-- GroupsController -->
<g id="node10" class="node">
<title>GroupsController</title>
<path fill="none" stroke="#000000" d="M696,-864.5C696,-864.5 786.7656,-864.5 786.7656,-864.5 792.7656,-864.5 798.7656,-870.5 798.7656,-876.5 798.7656,-876.5 798.7656,-1026.5 798.7656,-1026.5 798.7656,-1032.5 792.7656,-1038.5 786.7656,-1038.5 786.7656,-1038.5 696,-1038.5 696,-1038.5 690,-1038.5 684,-1032.5 684,-1026.5 684,-1026.5 684,-876.5 684,-876.5 684,-870.5 690,-864.5 696,-864.5"/>
<text text-anchor="middle" x="741.3828" y="-1023.3" font-family="Times,serif" font-size="14.00" fill="#000000">GroupsController</text>
<polyline fill="none" stroke="#000000" points="684,-1016.5 798.7656,-1016.5 "/>
<text text-anchor="start" x="692" y="-1001.3" font-family="Times,serif" font-size="14.00" fill="#000000">create</text>
<text text-anchor="start" x="692" y="-987.3" font-family="Times,serif" font-size="14.00" fill="#000000">destroy</text>
<text text-anchor="start" x="692" y="-973.3" font-family="Times,serif" font-size="14.00" fill="#000000">index</text>
<text text-anchor="start" x="692" y="-959.3" font-family="Times,serif" font-size="14.00" fill="#000000">show</text>
<text text-anchor="start" x="692" y="-945.3" font-family="Times,serif" font-size="14.00" fill="#000000">update</text>
<polyline fill="none" stroke="#000000" points="684,-938.5 798.7656,-938.5 "/>
<polyline fill="none" stroke="#000000" points="684,-914.5 798.7656,-914.5 "/>
<text text-anchor="start" x="692" y="-899.3" font-family="Times,serif" font-size="14.00" fill="#000000">_layout</text>
<text text-anchor="start" x="692" y="-885.3" font-family="Times,serif" font-size="14.00" fill="#000000">group_params</text>
<text text-anchor="start" x="692" y="-871.3" font-family="Times,serif" font-size="14.00" fill="#000000">set_group</text>
</g>
<!-- IdentitiesController -->
<g id="node11" class="node">
<title>IdentitiesController</title>
<path fill="none" stroke="#000000" d="M12,-270.5C12,-270.5 113.6416,-270.5 113.6416,-270.5 119.6416,-270.5 125.6416,-276.5 125.6416,-282.5 125.6416,-282.5 125.6416,-418.5 125.6416,-418.5 125.6416,-424.5 119.6416,-430.5 113.6416,-430.5 113.6416,-430.5 12,-430.5 12,-430.5 6,-430.5 0,-424.5 0,-418.5 0,-418.5 0,-282.5 0,-282.5 0,-276.5 6,-270.5 12,-270.5"/>
<text text-anchor="middle" x="62.8208" y="-415.3" font-family="Times,serif" font-size="14.00" fill="#000000">IdentitiesController</text>
<polyline fill="none" stroke="#000000" points="0,-408.5 125.6416,-408.5 "/>
<text text-anchor="start" x="8" y="-393.3" font-family="Times,serif" font-size="14.00" fill="#000000">create</text>
<text text-anchor="start" x="8" y="-379.3" font-family="Times,serif" font-size="14.00" fill="#000000">destroy</text>
<text text-anchor="start" x="8" y="-365.3" font-family="Times,serif" font-size="14.00" fill="#000000">index</text>
<text text-anchor="start" x="8" y="-351.3" font-family="Times,serif" font-size="14.00" fill="#000000">show</text>
<text text-anchor="start" x="8" y="-337.3" font-family="Times,serif" font-size="14.00" fill="#000000">update</text>
<polyline fill="none" stroke="#000000" points="0,-330.5 125.6416,-330.5 "/>
<polyline fill="none" stroke="#000000" points="0,-306.5 125.6416,-306.5 "/>
<text text-anchor="start" x="8" y="-291.3" font-family="Times,serif" font-size="14.00" fill="#000000">_layout</text>
<text text-anchor="start" x="8" y="-277.3" font-family="Times,serif" font-size="14.00" fill="#000000">identity_params</text>
</g>
<!-- IdentityProvidersController -->
<g id="node12" class="node">
<title>IdentityProvidersController</title>
<path fill="none" stroke="#000000" d="M642,-648.5C642,-648.5 788.752,-648.5 788.752,-648.5 794.752,-648.5 800.752,-654.5 800.752,-660.5 800.752,-660.5 800.752,-810.5 800.752,-810.5 800.752,-816.5 794.752,-822.5 788.752,-822.5 788.752,-822.5 642,-822.5 642,-822.5 636,-822.5 630,-816.5 630,-810.5 630,-810.5 630,-660.5 630,-660.5 630,-654.5 636,-648.5 642,-648.5"/>
<text text-anchor="middle" x="715.376" y="-807.3" font-family="Times,serif" font-size="14.00" fill="#000000">IdentityProvidersController</text>
<polyline fill="none" stroke="#000000" points="630,-800.5 800.752,-800.5 "/>
<text text-anchor="start" x="638" y="-785.3" font-family="Times,serif" font-size="14.00" fill="#000000">create</text>
<text text-anchor="start" x="638" y="-771.3" font-family="Times,serif" font-size="14.00" fill="#000000">destroy</text>
<text text-anchor="start" x="638" y="-757.3" font-family="Times,serif" font-size="14.00" fill="#000000">index</text>
<text text-anchor="start" x="638" y="-743.3" font-family="Times,serif" font-size="14.00" fill="#000000">redirect</text>
<text text-anchor="start" x="638" y="-729.3" font-family="Times,serif" font-size="14.00" fill="#000000">show</text>
<text text-anchor="start" x="638" y="-715.3" font-family="Times,serif" font-size="14.00" fill="#000000">update</text>
<polyline fill="none" stroke="#000000" points="630,-708.5 800.752,-708.5 "/>
<polyline fill="none" stroke="#000000" points="630,-684.5 800.752,-684.5 "/>
<text text-anchor="start" x="638" y="-669.3" font-family="Times,serif" font-size="14.00" fill="#000000">_layout</text>
<text text-anchor="start" x="638" y="-655.3" font-family="Times,serif" font-size="14.00" fill="#000000">identity_provider_params</text>
</g>
<!-- InstancesController -->
<g id="node13" class="node">
<title>InstancesController</title>
<path fill="none" stroke="#000000" d="M48,-882.5C48,-882.5 149.6348,-882.5 149.6348,-882.5 155.6348,-882.5 161.6348,-888.5 161.6348,-894.5 161.6348,-894.5 161.6348,-1044.5 161.6348,-1044.5 161.6348,-1050.5 155.6348,-1056.5 149.6348,-1056.5 149.6348,-1056.5 48,-1056.5 48,-1056.5 42,-1056.5 36,-1050.5 36,-1044.5 36,-1044.5 36,-894.5 36,-894.5 36,-888.5 42,-882.5 48,-882.5"/>
<text text-anchor="middle" x="98.8174" y="-1041.3" font-family="Times,serif" font-size="14.00" fill="#000000">InstancesController</text>
<polyline fill="none" stroke="#000000" points="36,-1034.5 161.6348,-1034.5 "/>
<text text-anchor="start" x="44" y="-1019.3" font-family="Times,serif" font-size="14.00" fill="#000000">create</text>
<text text-anchor="start" x="44" y="-1005.3" font-family="Times,serif" font-size="14.00" fill="#000000">destroy</text>
<text text-anchor="start" x="44" y="-991.3" font-family="Times,serif" font-size="14.00" fill="#000000">index</text>
<text text-anchor="start" x="44" y="-977.3" font-family="Times,serif" font-size="14.00" fill="#000000">show</text>
<text text-anchor="start" x="44" y="-963.3" font-family="Times,serif" font-size="14.00" fill="#000000">update</text>
<polyline fill="none" stroke="#000000" points="36,-956.5 161.6348,-956.5 "/>
<polyline fill="none" stroke="#000000" points="36,-932.5 161.6348,-932.5 "/>
<text text-anchor="start" x="44" y="-917.3" font-family="Times,serif" font-size="14.00" fill="#000000">_layout</text>
<text text-anchor="start" x="44" y="-903.3" font-family="Times,serif" font-size="14.00" fill="#000000">instance_params</text>
<text text-anchor="start" x="44" y="-889.3" font-family="Times,serif" font-size="14.00" fill="#000000">set_instance</text>
</g>
<!-- InterfacesController -->
<g id="node14" class="node">
<title>InterfacesController</title>
<path fill="none" stroke="#000000" d="M516,-126.5C516,-126.5 620.7246,-126.5 620.7246,-126.5 626.7246,-126.5 632.7246,-132.5 632.7246,-138.5 632.7246,-138.5 632.7246,-288.5 632.7246,-288.5 632.7246,-294.5 626.7246,-300.5 620.7246,-300.5 620.7246,-300.5 516,-300.5 516,-300.5 510,-300.5 504,-294.5 504,-288.5 504,-288.5 504,-138.5 504,-138.5 504,-132.5 510,-126.5 516,-126.5"/>
<text text-anchor="middle" x="568.3623" y="-285.3" font-family="Times,serif" font-size="14.00" fill="#000000">InterfacesController</text>
<polyline fill="none" stroke="#000000" points="504,-278.5 632.7246,-278.5 "/>
<text text-anchor="start" x="512" y="-263.3" font-family="Times,serif" font-size="14.00" fill="#000000">create</text>
<text text-anchor="start" x="512" y="-249.3" font-family="Times,serif" font-size="14.00" fill="#000000">destroy</text>
<text text-anchor="start" x="512" y="-235.3" font-family="Times,serif" font-size="14.00" fill="#000000">index</text>
<text text-anchor="start" x="512" y="-221.3" font-family="Times,serif" font-size="14.00" fill="#000000">show</text>
<text text-anchor="start" x="512" y="-207.3" font-family="Times,serif" font-size="14.00" fill="#000000">update</text>
<polyline fill="none" stroke="#000000" points="504,-200.5 632.7246,-200.5 "/>
<polyline fill="none" stroke="#000000" points="504,-176.5 632.7246,-176.5 "/>
<text text-anchor="start" x="512" y="-161.3" font-family="Times,serif" font-size="14.00" fill="#000000">_layout</text>
<text text-anchor="start" x="512" y="-147.3" font-family="Times,serif" font-size="14.00" fill="#000000">interface_params</text>
<text text-anchor="start" x="512" y="-133.3" font-family="Times,serif" font-size="14.00" fill="#000000">set_interface</text>
</g>
<!-- LicensesController -->
<g id="node15" class="node">
<title>LicensesController</title>
<path fill="none" stroke="#000000" d="M30,-36.5C30,-36.5 128.5244,-36.5 128.5244,-36.5 134.5244,-36.5 140.5244,-42.5 140.5244,-48.5 140.5244,-48.5 140.5244,-198.5 140.5244,-198.5 140.5244,-204.5 134.5244,-210.5 128.5244,-210.5 128.5244,-210.5 30,-210.5 30,-210.5 24,-210.5 18,-204.5 18,-198.5 18,-198.5 18,-48.5 18,-48.5 18,-42.5 24,-36.5 30,-36.5"/>
<text text-anchor="middle" x="79.2622" y="-195.3" font-family="Times,serif" font-size="14.00" fill="#000000">LicensesController</text>
<polyline fill="none" stroke="#000000" points="18,-188.5 140.5244,-188.5 "/>
<text text-anchor="start" x="26" y="-173.3" font-family="Times,serif" font-size="14.00" fill="#000000">create</text>
<text text-anchor="start" x="26" y="-159.3" font-family="Times,serif" font-size="14.00" fill="#000000">destroy</text>
<text text-anchor="start" x="26" y="-145.3" font-family="Times,serif" font-size="14.00" fill="#000000">index</text>
<text text-anchor="start" x="26" y="-131.3" font-family="Times,serif" font-size="14.00" fill="#000000">show</text>
<text text-anchor="start" x="26" y="-117.3" font-family="Times,serif" font-size="14.00" fill="#000000">update</text>
<polyline fill="none" stroke="#000000" points="18,-110.5 140.5244,-110.5 "/>
<polyline fill="none" stroke="#000000" points="18,-86.5 140.5244,-86.5 "/>
<text text-anchor="start" x="26" y="-71.3" font-family="Times,serif" font-size="14.00" fill="#000000">_layout</text>
<text text-anchor="start" x="26" y="-57.3" font-family="Times,serif" font-size="14.00" fill="#000000">license_params</text>
<text text-anchor="start" x="26" y="-43.3" font-family="Times,serif" font-size="14.00" fill="#000000">set_license</text>
</g>
<!-- MembersController -->
<g id="node16" class="node">
<title>MembersController</title>
<path fill="none" stroke="#000000" d="M192,-36.5C192,-36.5 294.4209,-36.5 294.4209,-36.5 300.4209,-36.5 306.4209,-42.5 306.4209,-48.5 306.4209,-48.5 306.4209,-198.5 306.4209,-198.5 306.4209,-204.5 300.4209,-210.5 294.4209,-210.5 294.4209,-210.5 192,-210.5 192,-210.5 186,-210.5 180,-204.5 180,-198.5 180,-198.5 180,-48.5 180,-48.5 180,-42.5 186,-36.5 192,-36.5"/>
<text text-anchor="middle" x="243.2104" y="-195.3" font-family="Times,serif" font-size="14.00" fill="#000000">MembersController</text>
<polyline fill="none" stroke="#000000" points="180,-188.5 306.4209,-188.5 "/>
<text text-anchor="start" x="188" y="-173.3" font-family="Times,serif" font-size="14.00" fill="#000000">create</text>
<text text-anchor="start" x="188" y="-159.3" font-family="Times,serif" font-size="14.00" fill="#000000">destroy</text>
<text text-anchor="start" x="188" y="-145.3" font-family="Times,serif" font-size="14.00" fill="#000000">index</text>
<text text-anchor="start" x="188" y="-131.3" font-family="Times,serif" font-size="14.00" fill="#000000">show</text>
<text text-anchor="start" x="188" y="-117.3" font-family="Times,serif" font-size="14.00" fill="#000000">update</text>
<polyline fill="none" stroke="#000000" points="180,-110.5 306.4209,-110.5 "/>
<polyline fill="none" stroke="#000000" points="180,-86.5 306.4209,-86.5 "/>
<text text-anchor="start" x="188" y="-71.3" font-family="Times,serif" font-size="14.00" fill="#000000">_layout</text>
<text text-anchor="start" x="188" y="-57.3" font-family="Times,serif" font-size="14.00" fill="#000000">member_params</text>
<text text-anchor="start" x="188" y="-43.3" font-family="Times,serif" font-size="14.00" fill="#000000">set_member</text>
</g>
<!-- ParametersController -->
<g id="node17" class="node">
<title>ParametersController</title>
<path fill="none" stroke="#000000" d="M354,-144.5C354,-144.5 465.7383,-144.5 465.7383,-144.5 471.7383,-144.5 477.7383,-150.5 477.7383,-156.5 477.7383,-156.5 477.7383,-306.5 477.7383,-306.5 477.7383,-312.5 471.7383,-318.5 465.7383,-318.5 465.7383,-318.5 354,-318.5 354,-318.5 348,-318.5 342,-312.5 342,-306.5 342,-306.5 342,-156.5 342,-156.5 342,-150.5 348,-144.5 354,-144.5"/>
<text text-anchor="middle" x="409.8691" y="-303.3" font-family="Times,serif" font-size="14.00" fill="#000000">ParametersController</text>
<polyline fill="none" stroke="#000000" points="342,-296.5 477.7383,-296.5 "/>
<text text-anchor="start" x="350" y="-281.3" font-family="Times,serif" font-size="14.00" fill="#000000">create</text>
<text text-anchor="start" x="350" y="-267.3" font-family="Times,serif" font-size="14.00" fill="#000000">destroy</text>
<text text-anchor="start" x="350" y="-253.3" font-family="Times,serif" font-size="14.00" fill="#000000">index</text>
<text text-anchor="start" x="350" y="-239.3" font-family="Times,serif" font-size="14.00" fill="#000000">show</text>
<text text-anchor="start" x="350" y="-225.3" font-family="Times,serif" font-size="14.00" fill="#000000">update</text>
<polyline fill="none" stroke="#000000" points="342,-218.5 477.7383,-218.5 "/>
<polyline fill="none" stroke="#000000" points="342,-194.5 477.7383,-194.5 "/>
<text text-anchor="start" x="350" y="-179.3" font-family="Times,serif" font-size="14.00" fill="#000000">_layout</text>
<text text-anchor="start" x="350" y="-165.3" font-family="Times,serif" font-size="14.00" fill="#000000">parameter_params</text>
<text text-anchor="start" x="350" y="-151.3" font-family="Times,serif" font-size="14.00" fill="#000000">set_parameter</text>
</g>
<!-- PlatformsController -->
<g id="node18" class="node">
<title>PlatformsController</title>
<path fill="none" stroke="#000000" d="M534,-864.5C534,-864.5 637.9863,-864.5 637.9863,-864.5 643.9863,-864.5 649.9863,-870.5 649.9863,-876.5 649.9863,-876.5 649.9863,-1026.5 649.9863,-1026.5 649.9863,-1032.5 643.9863,-1038.5 637.9863,-1038.5 637.9863,-1038.5 534,-1038.5 534,-1038.5 528,-1038.5 522,-1032.5 522,-1026.5 522,-1026.5 522,-876.5 522,-876.5 522,-870.5 528,-864.5 534,-864.5"/>
<text text-anchor="middle" x="585.9932" y="-1023.3" font-family="Times,serif" font-size="14.00" fill="#000000">PlatformsController</text>
<polyline fill="none" stroke="#000000" points="522,-1016.5 649.9863,-1016.5 "/>
<text text-anchor="start" x="530" y="-1001.3" font-family="Times,serif" font-size="14.00" fill="#000000">create</text>
<text text-anchor="start" x="530" y="-987.3" font-family="Times,serif" font-size="14.00" fill="#000000">destroy</text>
<text text-anchor="start" x="530" y="-973.3" font-family="Times,serif" font-size="14.00" fill="#000000">index</text>
<text text-anchor="start" x="530" y="-959.3" font-family="Times,serif" font-size="14.00" fill="#000000">show</text>
<text text-anchor="start" x="530" y="-945.3" font-family="Times,serif" font-size="14.00" fill="#000000">update</text>
<polyline fill="none" stroke="#000000" points="522,-938.5 649.9863,-938.5 "/>
<polyline fill="none" stroke="#000000" points="522,-914.5 649.9863,-914.5 "/>
<text text-anchor="start" x="530" y="-899.3" font-family="Times,serif" font-size="14.00" fill="#000000">_layout</text>
<text text-anchor="start" x="530" y="-885.3" font-family="Times,serif" font-size="14.00" fill="#000000">platform_params</text>
<text text-anchor="start" x="530" y="-871.3" font-family="Times,serif" font-size="14.00" fill="#000000">set_platform</text>
</g>
<!-- RolesController -->
<g id="node19" class="node">
<title>RolesController</title>
<path fill="none" stroke="#000000" d="M210,-720.5C210,-720.5 350.5313,-720.5 350.5313,-720.5 356.5313,-720.5 362.5313,-726.5 362.5313,-732.5 362.5313,-732.5 362.5313,-882.5 362.5313,-882.5 362.5313,-888.5 356.5313,-894.5 350.5313,-894.5 350.5313,-894.5 210,-894.5 210,-894.5 204,-894.5 198,-888.5 198,-882.5 198,-882.5 198,-732.5 198,-732.5 198,-726.5 204,-720.5 210,-720.5"/>
<text text-anchor="middle" x="280.2656" y="-879.3" font-family="Times,serif" font-size="14.00" fill="#000000">RolesController</text>
<polyline fill="none" stroke="#000000" points="198,-872.5 362.5313,-872.5 "/>
<text text-anchor="start" x="206" y="-857.3" font-family="Times,serif" font-size="14.00" fill="#000000">create</text>
<text text-anchor="start" x="206" y="-843.3" font-family="Times,serif" font-size="14.00" fill="#000000">destroy</text>
<text text-anchor="start" x="206" y="-829.3" font-family="Times,serif" font-size="14.00" fill="#000000">index</text>
<text text-anchor="start" x="206" y="-815.3" font-family="Times,serif" font-size="14.00" fill="#000000">show</text>
<text text-anchor="start" x="206" y="-801.3" font-family="Times,serif" font-size="14.00" fill="#000000">update</text>
<polyline fill="none" stroke="#000000" points="198,-794.5 362.5313,-794.5 "/>
<polyline fill="none" stroke="#000000" points="198,-770.5 362.5313,-770.5 "/>
<text text-anchor="start" x="206" y="-755.3" font-family="Times,serif" font-size="14.00" fill="#000000">_layout</text>
<text text-anchor="start" x="206" y="-741.3" font-family="Times,serif" font-size="14.00" fill="#000000">permissions_from_params</text>
<text text-anchor="start" x="206" y="-727.3" font-family="Times,serif" font-size="14.00" fill="#000000">role_params</text>
</g>
<!-- ScreenshotsController -->
<g id="node20" class="node">
<title>ScreenshotsController</title>
<path fill="none" stroke="#000000" d="M408,-612.5C408,-612.5 524.4209,-612.5 524.4209,-612.5 530.4209,-612.5 536.4209,-618.5 536.4209,-624.5 536.4209,-624.5 536.4209,-816.5 536.4209,-816.5 536.4209,-822.5 530.4209,-828.5 524.4209,-828.5 524.4209,-828.5 408,-828.5 408,-828.5 402,-828.5 396,-822.5 396,-816.5 396,-816.5 396,-624.5 396,-624.5 396,-618.5 402,-612.5 408,-612.5"/>
<text text-anchor="middle" x="466.2104" y="-813.3" font-family="Times,serif" font-size="14.00" fill="#000000">ScreenshotsController</text>
<polyline fill="none" stroke="#000000" points="396,-806.5 536.4209,-806.5 "/>
<text text-anchor="start" x="404" y="-791.3" font-family="Times,serif" font-size="14.00" fill="#000000">update</text>
<text text-anchor="start" x="404" y="-777.3" font-family="Times,serif" font-size="14.00" fill="#000000">destroy</text>
<text text-anchor="start" x="404" y="-763.3" font-family="Times,serif" font-size="14.00" fill="#000000">index</text>
<text text-anchor="start" x="404" y="-749.3" font-family="Times,serif" font-size="14.00" fill="#000000">large</text>
<text text-anchor="start" x="404" y="-735.3" font-family="Times,serif" font-size="14.00" fill="#000000">medium</text>
<text text-anchor="start" x="404" y="-721.3" font-family="Times,serif" font-size="14.00" fill="#000000">send_image_data</text>
<text text-anchor="start" x="404" y="-707.3" font-family="Times,serif" font-size="14.00" fill="#000000">show</text>
<text text-anchor="start" x="404" y="-693.3" font-family="Times,serif" font-size="14.00" fill="#000000">small</text>
<text text-anchor="start" x="404" y="-679.3" font-family="Times,serif" font-size="14.00" fill="#000000">create</text>
<polyline fill="none" stroke="#000000" points="396,-672.5 536.4209,-672.5 "/>
<polyline fill="none" stroke="#000000" points="396,-648.5 536.4209,-648.5 "/>
<text text-anchor="start" x="404" y="-633.3" font-family="Times,serif" font-size="14.00" fill="#000000">_layout</text>
<text text-anchor="start" x="404" y="-619.3" font-family="Times,serif" font-size="14.00" fill="#000000">screenshot_params</text>
</g>
<!-- ServicesController -->
<g id="node21" class="node">
<title>ServicesController</title>
<path fill="none" stroke="#000000" d="M588,-342.5C588,-342.5 684.9727,-342.5 684.9727,-342.5 690.9727,-342.5 696.9727,-348.5 696.9727,-354.5 696.9727,-354.5 696.9727,-602.5 696.9727,-602.5 696.9727,-608.5 690.9727,-614.5 684.9727,-614.5 684.9727,-614.5 588,-614.5 588,-614.5 582,-614.5 576,-608.5 576,-602.5 576,-602.5 576,-354.5 576,-354.5 576,-348.5 582,-342.5 588,-342.5"/>
<text text-anchor="middle" x="636.4863" y="-599.3" font-family="Times,serif" font-size="14.00" fill="#000000">ServicesController</text>
<polyline fill="none" stroke="#000000" points="576,-592.5 696.9727,-592.5 "/>
<text text-anchor="start" x="584" y="-577.3" font-family="Times,serif" font-size="14.00" fill="#000000">update</text>
<text text-anchor="start" x="584" y="-563.3" font-family="Times,serif" font-size="14.00" fill="#000000">destroy</text>
<text text-anchor="start" x="584" y="-549.3" font-family="Times,serif" font-size="14.00" fill="#000000">index</text>
<text text-anchor="start" x="584" y="-535.3" font-family="Times,serif" font-size="14.00" fill="#000000">large</text>
<text text-anchor="start" x="584" y="-521.3" font-family="Times,serif" font-size="14.00" fill="#000000">medium</text>
<text text-anchor="start" x="584" y="-507.3" font-family="Times,serif" font-size="14.00" fill="#000000">publish</text>
<text text-anchor="start" x="584" y="-493.3" font-family="Times,serif" font-size="14.00" fill="#000000">search</text>
<text text-anchor="start" x="584" y="-479.3" font-family="Times,serif" font-size="14.00" fill="#000000">send_image_data</text>
<text text-anchor="start" x="584" y="-465.3" font-family="Times,serif" font-size="14.00" fill="#000000">show</text>
<text text-anchor="start" x="584" y="-451.3" font-family="Times,serif" font-size="14.00" fill="#000000">small</text>
<text text-anchor="start" x="584" y="-437.3" font-family="Times,serif" font-size="14.00" fill="#000000">unpublish</text>
<text text-anchor="start" x="584" y="-423.3" font-family="Times,serif" font-size="14.00" fill="#000000">create</text>
<polyline fill="none" stroke="#000000" points="576,-416.5 696.9727,-416.5 "/>
<polyline fill="none" stroke="#000000" points="576,-392.5 696.9727,-392.5 "/>
<text text-anchor="start" x="584" y="-377.3" font-family="Times,serif" font-size="14.00" fill="#000000">_layout</text>
<text text-anchor="start" x="584" y="-363.3" font-family="Times,serif" font-size="14.00" fill="#000000">service_params</text>
<text text-anchor="start" x="584" y="-349.3" font-family="Times,serif" font-size="14.00" fill="#000000">set_service</text>
</g>
<!-- SessionsController -->
<g id="node22" class="node">
<title>SessionsController</title>
<path fill="none" stroke="#000000" d="M30,-684.5C30,-684.5 146.4141,-684.5 146.4141,-684.5 152.4141,-684.5 158.4141,-690.5 158.4141,-696.5 158.4141,-696.5 158.4141,-832.5 158.4141,-832.5 158.4141,-838.5 152.4141,-844.5 146.4141,-844.5 146.4141,-844.5 30,-844.5 30,-844.5 24,-844.5 18,-838.5 18,-832.5 18,-832.5 18,-696.5 18,-696.5 18,-690.5 24,-684.5 30,-684.5"/>
<text text-anchor="middle" x="88.207" y="-829.3" font-family="Times,serif" font-size="14.00" fill="#000000">SessionsController</text>
<polyline fill="none" stroke="#000000" points="18,-822.5 158.4141,-822.5 "/>
<text text-anchor="start" x="26" y="-807.3" font-family="Times,serif" font-size="14.00" fill="#000000">authenticate</text>
<text text-anchor="start" x="26" y="-793.3" font-family="Times,serif" font-size="14.00" fill="#000000">callback</text>
<text text-anchor="start" x="26" y="-779.3" font-family="Times,serif" font-size="14.00" fill="#000000">cleanse_session</text>
<text text-anchor="start" x="26" y="-765.3" font-family="Times,serif" font-size="14.00" fill="#000000">destroy</text>
<text text-anchor="start" x="26" y="-751.3" font-family="Times,serif" font-size="14.00" fill="#000000">openid_connect_login</text>
<text text-anchor="start" x="26" y="-737.3" font-family="Times,serif" font-size="14.00" fill="#000000">public_keys_for</text>
<polyline fill="none" stroke="#000000" points="18,-730.5 158.4141,-730.5 "/>
<polyline fill="none" stroke="#000000" points="18,-706.5 158.4141,-706.5 "/>
<text text-anchor="start" x="26" y="-691.3" font-family="Times,serif" font-size="14.00" fill="#000000">_layout</text>
</g>
<!-- Smart::LaunchController -->
<g id="node23" class="node">
<title>Smart::LaunchController</title>
<path fill="none" stroke="#000000" d="M462,-.5C462,-.5 594.7451,-.5 594.7451,-.5 600.7451,-.5 606.7451,-6.5 606.7451,-12.5 606.7451,-12.5 606.7451,-78.5 606.7451,-78.5 606.7451,-84.5 600.7451,-90.5 594.7451,-90.5 594.7451,-90.5 462,-90.5 462,-90.5 456,-90.5 450,-84.5 450,-78.5 450,-78.5 450,-12.5 450,-12.5 450,-6.5 456,-.5 462,-.5"/>
<text text-anchor="middle" x="528.3726" y="-75.3" font-family="Times,serif" font-size="14.00" fill="#000000">Smart::LaunchController</text>
<polyline fill="none" stroke="#000000" points="450,-68.5 606.7451,-68.5 "/>
<text text-anchor="start" x="458" y="-53.3" font-family="Times,serif" font-size="14.00" fill="#000000">launch</text>
<polyline fill="none" stroke="#000000" points="450,-46.5 606.7451,-46.5 "/>
<polyline fill="none" stroke="#000000" points="450,-22.5 606.7451,-22.5 "/>
<text text-anchor="start" x="458" y="-7.3" font-family="Times,serif" font-size="14.00" fill="#000000">_layout</text>
</g>
<!-- SurrogatesController -->
<g id="node24" class="node">
<title>SurrogatesController</title>
<path fill="none" stroke="#000000" d="M840,-612.5C840,-612.5 949.4209,-612.5 949.4209,-612.5 955.4209,-612.5 961.4209,-618.5 961.4209,-624.5 961.4209,-624.5 961.4209,-774.5 961.4209,-774.5 961.4209,-780.5 955.4209,-786.5 949.4209,-786.5 949.4209,-786.5 840,-786.5 840,-786.5 834,-786.5 828,-780.5 828,-774.5 828,-774.5 828,-624.5 828,-624.5 828,-618.5 834,-612.5 840,-612.5"/>
<text text-anchor="middle" x="894.7104" y="-771.3" font-family="Times,serif" font-size="14.00" fill="#000000">SurrogatesController</text>
<polyline fill="none" stroke="#000000" points="828,-764.5 961.4209,-764.5 "/>
<text text-anchor="start" x="836" y="-749.3" font-family="Times,serif" font-size="14.00" fill="#000000">create</text>
<text text-anchor="start" x="836" y="-735.3" font-family="Times,serif" font-size="14.00" fill="#000000">destroy</text>
<text text-anchor="start" x="836" y="-721.3" font-family="Times,serif" font-size="14.00" fill="#000000">index</text>
<text text-anchor="start" x="836" y="-707.3" font-family="Times,serif" font-size="14.00" fill="#000000">show</text>
<text text-anchor="start" x="836" y="-693.3" font-family="Times,serif" font-size="14.00" fill="#000000">update</text>
<polyline fill="none" stroke="#000000" points="828,-686.5 961.4209,-686.5 "/>
<polyline fill="none" stroke="#000000" points="828,-662.5 961.4209,-662.5 "/>
<text text-anchor="start" x="836" y="-647.3" font-family="Times,serif" font-size="14.00" fill="#000000">_layout</text>
<text text-anchor="start" x="836" y="-633.3" font-family="Times,serif" font-size="14.00" fill="#000000">set_surrogate</text>
<text text-anchor="start" x="836" y="-619.3" font-family="Times,serif" font-size="14.00" fill="#000000">surrogate_params</text>
</g>
<!-- TasksController -->
<g id="node25" class="node">
<title>TasksController</title>
<path fill="none" stroke="#000000" d="M912,-396.5C912,-396.5 993.2295,-396.5 993.2295,-396.5 999.2295,-396.5 1005.2295,-402.5 1005.2295,-408.5 1005.2295,-408.5 1005.2295,-558.5 1005.2295,-558.5 1005.2295,-564.5 999.2295,-570.5 993.2295,-570.5 993.2295,-570.5 912,-570.5 912,-570.5 906,-570.5 900,-564.5 900,-558.5 900,-558.5 900,-408.5 900,-408.5 900,-402.5 906,-396.5 912,-396.5"/>
<text text-anchor="middle" x="952.6147" y="-555.3" font-family="Times,serif" font-size="14.00" fill="#000000">TasksController</text>
<polyline fill="none" stroke="#000000" points="900,-548.5 1005.2295,-548.5 "/>
<text text-anchor="start" x="908" y="-533.3" font-family="Times,serif" font-size="14.00" fill="#000000">create</text>
<text text-anchor="start" x="908" y="-519.3" font-family="Times,serif" font-size="14.00" fill="#000000">destroy</text>
<text text-anchor="start" x="908" y="-505.3" font-family="Times,serif" font-size="14.00" fill="#000000">index</text>
<text text-anchor="start" x="908" y="-491.3" font-family="Times,serif" font-size="14.00" fill="#000000">show</text>
<text text-anchor="start" x="908" y="-477.3" font-family="Times,serif" font-size="14.00" fill="#000000">update</text>
<polyline fill="none" stroke="#000000" points="900,-470.5 1005.2295,-470.5 "/>
<polyline fill="none" stroke="#000000" points="900,-446.5 1005.2295,-446.5 "/>
<text text-anchor="start" x="908" y="-431.3" font-family="Times,serif" font-size="14.00" fill="#000000">_layout</text>
<text text-anchor="start" x="908" y="-417.3" font-family="Times,serif" font-size="14.00" fill="#000000">set_task</text>
<text text-anchor="start" x="908" y="-403.3" font-family="Times,serif" font-size="14.00" fill="#000000">task_params</text>
</g>
<!-- UsersController -->
<g id="node26" class="node">
<title>UsersController</title>
<path fill="none" stroke="#000000" d="M390,-936.5C390,-936.5 471.4277,-936.5 471.4277,-936.5 477.4277,-936.5 483.4277,-942.5 483.4277,-948.5 483.4277,-948.5 483.4277,-1098.5 483.4277,-1098.5 483.4277,-1104.5 477.4277,-1110.5 471.4277,-1110.5 471.4277,-1110.5 390,-1110.5 390,-1110.5 384,-1110.5 378,-1104.5 378,-1098.5 378,-1098.5 378,-948.5 378,-948.5 378,-942.5 384,-936.5 390,-936.5"/>
<text text-anchor="middle" x="430.7139" y="-1095.3" font-family="Times,serif" font-size="14.00" fill="#000000">UsersController</text>
<polyline fill="none" stroke="#000000" points="378,-1088.5 483.4277,-1088.5 "/>
<text text-anchor="start" x="386" y="-1073.3" font-family="Times,serif" font-size="14.00" fill="#000000">create</text>
<text text-anchor="start" x="386" y="-1059.3" font-family="Times,serif" font-size="14.00" fill="#000000">destroy</text>
<text text-anchor="start" x="386" y="-1045.3" font-family="Times,serif" font-size="14.00" fill="#000000">index</text>
<text text-anchor="start" x="386" y="-1031.3" font-family="Times,serif" font-size="14.00" fill="#000000">show</text>
<text text-anchor="start" x="386" y="-1017.3" font-family="Times,serif" font-size="14.00" fill="#000000">update</text>
<polyline fill="none" stroke="#000000" points="378,-1010.5 483.4277,-1010.5 "/>
<polyline fill="none" stroke="#000000" points="378,-986.5 483.4277,-986.5 "/>
<text text-anchor="start" x="386" y="-971.3" font-family="Times,serif" font-size="14.00" fill="#000000">_layout</text>
<text text-anchor="start" x="386" y="-957.3" font-family="Times,serif" font-size="14.00" fill="#000000">set_user</text>
<text text-anchor="start" x="386" y="-943.3" font-family="Times,serif" font-size="14.00" fill="#000000">user_params</text>
</g>
<!-- WelcomeController -->
<g id="node27" class="node">
<title>WelcomeController</title>
<path fill="none" stroke="#000000" d="M912,-18.5C912,-18.5 1014.0654,-18.5 1014.0654,-18.5 1020.0654,-18.5 1026.0654,-24.5 1026.0654,-30.5 1026.0654,-30.5 1026.0654,-124.5 1026.0654,-124.5 1026.0654,-130.5 1020.0654,-136.5 1014.0654,-136.5 1014.0654,-136.5 912,-136.5 912,-136.5 906,-136.5 900,-130.5 900,-124.5 900,-124.5 900,-30.5 900,-30.5 900,-24.5 906,-18.5 912,-18.5"/>
<text text-anchor="middle" x="963.0327" y="-121.3" font-family="Times,serif" font-size="14.00" fill="#000000">WelcomeController</text>
<polyline fill="none" stroke="#000000" points="900,-114.5 1026.0654,-114.5 "/>
<text text-anchor="start" x="908" y="-99.3" font-family="Times,serif" font-size="14.00" fill="#000000">dashboard</text>
<text text-anchor="start" x="908" y="-85.3" font-family="Times,serif" font-size="14.00" fill="#000000">landing</text>
<text text-anchor="start" x="908" y="-71.3" font-family="Times,serif" font-size="14.00" fill="#000000">status</text>
<polyline fill="none" stroke="#000000" points="900,-64.5 1026.0654,-64.5 "/>
<polyline fill="none" stroke="#000000" points="900,-40.5 1026.0654,-40.5 "/>
<text text-anchor="start" x="908" y="-25.3" font-family="Times,serif" font-size="14.00" fill="#000000">_layout</text>
</g>
</g>
</svg>
