<?xml version="1.0" encoding="UTF-8" standalone="no"?>
<!DOCTYPE svg PUBLIC "-//W3C//DTD SVG 1.1//EN"
 "http://www.w3.org/Graphics/SVG/1.1/DTD/svg11.dtd">
<!-- Generated by graphviz version 2.40.1 (20161225.0304)
 -->
<!-- Title: controllers_diagram Pages: 1 -->
<svg width="1052pt" height="1105pt"
 viewBox="0.00 0.00 1052.07 1105.00" xmlns="http://www.w3.org/2000/svg" xmlns:xlink="http://www.w3.org/1999/xlink">
<g id="graph0" class="graph" transform="scale(1 1) rotate(0) translate(4 1101)">
<title>controllers_diagram</title>
<polygon fill="transparent" stroke="transparent" points="-4,4 -4,-1101 1048.0654,-1101 1048.0654,4 -4,4"/>
<!-- _diagram_info -->
<g id="node1" class="node">
<title>_diagram_info</title>
<text text-anchor="start" x="656" y="-130.6" font-family="Times,serif" font-size="13.00" fill="#000000">Controllers diagram</text>
<text text-anchor="start" x="656" y="-117.6" font-family="Times,serif" font-size="13.00" fill="#000000">Date: Jan 19 2017 &#45; 22:13</text>
<text text-anchor="start" x="656" y="-104.6" font-family="Times,serif" font-size="13.00" fill="#000000">Migration version: 20170119211552</text>
<text text-anchor="start" x="656" y="-91.6" font-family="Times,serif" font-size="13.00" fill="#000000">Generated by RailRoady 1.5.2</text>
<text text-anchor="start" x="656" y="-78.6" font-family="Times,serif" font-size="13.00" fill="#000000">http://railroady.prestonlee.com</text>
</g>
<!-- ApplicationController -->
<g id="node2" class="node">
<title>ApplicationController</title>
<path fill="none" stroke="#000000" d="M336,-360.5C336,-360.5 513.0352,-360.5 513.0352,-360.5 519.0352,-360.5 525.0352,-366.5 525.0352,-372.5 525.0352,-372.5 525.0352,-564.5 525.0352,-564.5 525.0352,-570.5 519.0352,-576.5 513.0352,-576.5 513.0352,-576.5 336,-576.5 336,-576.5 330,-576.5 324,-570.5 324,-564.5 324,-564.5 324,-372.5 324,-372.5 324,-366.5 330,-360.5 336,-360.5"/>
<text text-anchor="middle" x="424.5176" y="-561.3" font-family="Times,serif" font-size="14.00" fill="#000000">ApplicationController</text>
<polyline fill="none" stroke="#000000" points="324,-554.5 525.0352,-554.5 "/>
<text text-anchor="start" x="332" y="-539.3" font-family="Times,serif" font-size="14.00" fill="#000000">unauthenticate!</text>
<text text-anchor="start" x="332" y="-525.3" font-family="Times,serif" font-size="14.00" fill="#000000">cors_preflight_check</text>
<text text-anchor="start" x="332" y="-511.3" font-family="Times,serif" font-size="14.00" fill="#000000">cors_set_access_control_headers</text>
<text text-anchor="start" x="332" y="-497.3" font-family="Times,serif" font-size="14.00" fill="#000000">current_user</text>
<text text-anchor="start" x="332" y="-483.3" font-family="Times,serif" font-size="14.00" fill="#000000">new_nonce</text>
<text text-anchor="start" x="332" y="-469.3" font-family="Times,serif" font-size="14.00" fill="#000000">redirect_to_identity_provider</text>
<text text-anchor="start" x="332" y="-455.3" font-family="Times,serif" font-size="14.00" fill="#000000">set_identity_from_session!</text>
<text text-anchor="start" x="332" y="-441.3" font-family="Times,serif" font-size="14.00" fill="#000000">set_options_from</text>
<text text-anchor="start" x="332" y="-427.3" font-family="Times,serif" font-size="14.00" fill="#000000">stored_nonce</text>
<text text-anchor="start" x="332" y="-413.3" font-family="Times,serif" font-size="14.00" fill="#000000">build_oauth_request</text>
<polyline fill="none" stroke="#000000" points="324,-406.5 525.0352,-406.5 "/>
<polyline fill="none" stroke="#000000" points="324,-382.5 525.0352,-382.5 "/>
<text text-anchor="start" x="332" y="-367.3" font-family="Times,serif" font-size="14.00" fill="#000000">_layout</text>
</g>
<!-- AppointmentsController -->
<g id="node3" class="node">
<title>AppointmentsController</title>
<path fill="none" stroke="#000000" d="M156,-468.5C156,-468.5 284.876,-468.5 284.876,-468.5 290.876,-468.5 296.876,-474.5 296.876,-480.5 296.876,-480.5 296.876,-630.5 296.876,-630.5 296.876,-636.5 290.876,-642.5 284.876,-642.5 284.876,-642.5 156,-642.5 156,-642.5 150,-642.5 144,-636.5 144,-630.5 144,-630.5 144,-480.5 144,-480.5 144,-474.5 150,-468.5 156,-468.5"/>
<text text-anchor="middle" x="220.438" y="-627.3" font-family="Times,serif" font-size="14.00" fill="#000000">AppointmentsController</text>
<polyline fill="none" stroke="#000000" points="144,-620.5 296.876,-620.5 "/>
<text text-anchor="start" x="152" y="-605.3" font-family="Times,serif" font-size="14.00" fill="#000000">create</text>
<text text-anchor="start" x="152" y="-591.3" font-family="Times,serif" font-size="14.00" fill="#000000">destroy</text>
<text text-anchor="start" x="152" y="-577.3" font-family="Times,serif" font-size="14.00" fill="#000000">index</text>
<text text-anchor="start" x="152" y="-563.3" font-family="Times,serif" font-size="14.00" fill="#000000">show</text>
<text text-anchor="start" x="152" y="-549.3" font-family="Times,serif" font-size="14.00" fill="#000000">update</text>
<polyline fill="none" stroke="#000000" points="144,-542.5 296.876,-542.5 "/>
<polyline fill="none" stroke="#000000" points="144,-518.5 296.876,-518.5 "/>
<text text-anchor="start" x="152" y="-503.3" font-family="Times,serif" font-size="14.00" fill="#000000">_layout</text>
<text text-anchor="start" x="152" y="-489.3" font-family="Times,serif" font-size="14.00" fill="#000000">appointment_params</text>
<text text-anchor="start" x="152" y="-475.3" font-family="Times,serif" font-size="14.00" fill="#000000">set_appointment</text>
</g>
<!-- AssetsController -->
<g id="node4" class="node">
<title>AssetsController</title>
<path fill="none" stroke="#000000" d="M48,-702.5C48,-702.5 134.1035,-702.5 134.1035,-702.5 140.1035,-702.5 146.1035,-708.5 146.1035,-714.5 146.1035,-714.5 146.1035,-836.5 146.1035,-836.5 146.1035,-842.5 140.1035,-848.5 134.1035,-848.5 134.1035,-848.5 48,-848.5 48,-848.5 42,-848.5 36,-842.5 36,-836.5 36,-836.5 36,-714.5 36,-714.5 36,-708.5 42,-702.5 48,-702.5"/>
<text text-anchor="middle" x="91.0518" y="-833.3" font-family="Times,serif" font-size="14.00" fill="#000000">AssetsController</text>
<polyline fill="none" stroke="#000000" points="36,-826.5 146.1035,-826.5 "/>
<text text-anchor="start" x="44" y="-811.3" font-family="Times,serif" font-size="14.00" fill="#000000">create</text>
<text text-anchor="start" x="44" y="-797.3" font-family="Times,serif" font-size="14.00" fill="#000000">destroy</text>
<text text-anchor="start" x="44" y="-783.3" font-family="Times,serif" font-size="14.00" fill="#000000">index</text>
<text text-anchor="start" x="44" y="-769.3" font-family="Times,serif" font-size="14.00" fill="#000000">update</text>
<polyline fill="none" stroke="#000000" points="36,-762.5 146.1035,-762.5 "/>
<polyline fill="none" stroke="#000000" points="36,-738.5 146.1035,-738.5 "/>
<text text-anchor="start" x="44" y="-723.3" font-family="Times,serif" font-size="14.00" fill="#000000">_layout</text>
<text text-anchor="start" x="44" y="-709.3" font-family="Times,serif" font-size="14.00" fill="#000000">asset_params</text>
</g>
<!-- BuildsController -->
<g id="node5" class="node">
<title>BuildsController</title>
<path fill="none" stroke="#000000" d="M804,-828.5C804,-828.5 890.1104,-828.5 890.1104,-828.5 896.1104,-828.5 902.1104,-834.5 902.1104,-840.5 902.1104,-840.5 902.1104,-990.5 902.1104,-990.5 902.1104,-996.5 896.1104,-1002.5 890.1104,-1002.5 890.1104,-1002.5 804,-1002.5 804,-1002.5 798,-1002.5 792,-996.5 792,-990.5 792,-990.5 792,-840.5 792,-840.5 792,-834.5 798,-828.5 804,-828.5"/>
<text text-anchor="middle" x="847.0552" y="-987.3" font-family="Times,serif" font-size="14.00" fill="#000000">BuildsController</text>
<polyline fill="none" stroke="#000000" points="792,-980.5 902.1104,-980.5 "/>
<text text-anchor="start" x="800" y="-965.3" font-family="Times,serif" font-size="14.00" fill="#000000">create</text>
<text text-anchor="start" x="800" y="-951.3" font-family="Times,serif" font-size="14.00" fill="#000000">destroy</text>
<text text-anchor="start" x="800" y="-937.3" font-family="Times,serif" font-size="14.00" fill="#000000">index</text>
<text text-anchor="start" x="800" y="-923.3" font-family="Times,serif" font-size="14.00" fill="#000000">show</text>
<text text-anchor="start" x="800" y="-909.3" font-family="Times,serif" font-size="14.00" fill="#000000">update</text>
<polyline fill="none" stroke="#000000" points="792,-902.5 902.1104,-902.5 "/>
<polyline fill="none" stroke="#000000" points="792,-878.5 902.1104,-878.5 "/>
<text text-anchor="start" x="800" y="-863.3" font-family="Times,serif" font-size="14.00" fill="#000000">_layout</text>
<text text-anchor="start" x="800" y="-849.3" font-family="Times,serif" font-size="14.00" fill="#000000">build_params</text>
<text text-anchor="start" x="800" y="-835.3" font-family="Times,serif" font-size="14.00" fill="#000000">set_build</text>
</g>
<!-- ClientsController -->
<g id="node6" class="node">
<title>ClientsController</title>
<path fill="none" stroke="#000000" d="M210,-.5C210,-.5 299.2139,-.5 299.2139,-.5 305.2139,-.5 311.2139,-6.5 311.2139,-12.5 311.2139,-12.5 311.2139,-92.5 311.2139,-92.5 311.2139,-98.5 305.2139,-104.5 299.2139,-104.5 299.2139,-104.5 210,-104.5 210,-104.5 204,-104.5 198,-98.5 198,-92.5 198,-92.5 198,-12.5 198,-12.5 198,-6.5 204,-.5 210,-.5"/>
<text text-anchor="middle" x="254.6069" y="-89.3" font-family="Times,serif" font-size="14.00" fill="#000000">ClientsController</text>
<polyline fill="none" stroke="#000000" points="198,-82.5 311.2139,-82.5 "/>
<text text-anchor="start" x="206" y="-67.3" font-family="Times,serif" font-size="14.00" fill="#000000">index</text>
<text text-anchor="start" x="206" y="-53.3" font-family="Times,serif" font-size="14.00" fill="#000000">launch</text>
<polyline fill="none" stroke="#000000" points="198,-46.5 311.2139,-46.5 "/>
<polyline fill="none" stroke="#000000" points="198,-22.5 311.2139,-22.5 "/>
<text text-anchor="start" x="206" y="-7.3" font-family="Times,serif" font-size="14.00" fill="#000000">_layout</text>
</g>
<!-- ConfigurationsController -->
<g id="node7" class="node">
<title>ConfigurationsController</title>
<path fill="none" stroke="#000000" d="M732,-180.5C732,-180.5 864.7725,-180.5 864.7725,-180.5 870.7725,-180.5 876.7725,-186.5 876.7725,-192.5 876.7725,-192.5 876.7725,-342.5 876.7725,-342.5 876.7725,-348.5 870.7725,-354.5 864.7725,-354.5 864.7725,-354.5 732,-354.5 732,-354.5 726,-354.5 720,-348.5 720,-342.5 720,-342.5 720,-192.5 720,-192.5 720,-186.5 726,-180.5 732,-180.5"/>
<text text-anchor="middle" x="798.3862" y="-339.3" font-family="Times,serif" font-size="14.00" fill="#000000">ConfigurationsController</text>
<polyline fill="none" stroke="#000000" points="720,-332.5 876.7725,-332.5 "/>
<text text-anchor="start" x="728" y="-317.3" font-family="Times,serif" font-size="14.00" fill="#000000">create</text>
<text text-anchor="start" x="728" y="-303.3" font-family="Times,serif" font-size="14.00" fill="#000000">destroy</text>
<text text-anchor="start" x="728" y="-289.3" font-family="Times,serif" font-size="14.00" fill="#000000">index</text>
<text text-anchor="start" x="728" y="-275.3" font-family="Times,serif" font-size="14.00" fill="#000000">show</text>
<text text-anchor="start" x="728" y="-261.3" font-family="Times,serif" font-size="14.00" fill="#000000">update</text>
<polyline fill="none" stroke="#000000" points="720,-254.5 876.7725,-254.5 "/>
<polyline fill="none" stroke="#000000" points="720,-230.5 876.7725,-230.5 "/>
<text text-anchor="start" x="728" y="-215.3" font-family="Times,serif" font-size="14.00" fill="#000000">_layout</text>
<text text-anchor="start" x="728" y="-201.3" font-family="Times,serif" font-size="14.00" fill="#000000">configuration_params</text>
<text text-anchor="start" x="728" y="-187.3" font-family="Times,serif" font-size="14.00" fill="#000000">set_configuration</text>
</g>
<!-- DependenciesController -->
<g id="node8" class="node">
<title>DependenciesController</title>
<path fill="none" stroke="#000000" d="M192,-720.5C192,-720.5 320.0625,-720.5 320.0625,-720.5 326.0625,-720.5 332.0625,-726.5 332.0625,-732.5 332.0625,-732.5 332.0625,-882.5 332.0625,-882.5 332.0625,-888.5 326.0625,-894.5 320.0625,-894.5 320.0625,-894.5 192,-894.5 192,-894.5 186,-894.5 180,-888.5 180,-882.5 180,-882.5 180,-732.5 180,-732.5 180,-726.5 186,-720.5 192,-720.5"/>
<text text-anchor="middle" x="256.0313" y="-879.3" font-family="Times,serif" font-size="14.00" fill="#000000">DependenciesController</text>
<polyline fill="none" stroke="#000000" points="180,-872.5 332.0625,-872.5 "/>
<text text-anchor="start" x="188" y="-857.3" font-family="Times,serif" font-size="14.00" fill="#000000">create</text>
<text text-anchor="start" x="188" y="-843.3" font-family="Times,serif" font-size="14.00" fill="#000000">destroy</text>
<text text-anchor="start" x="188" y="-829.3" font-family="Times,serif" font-size="14.00" fill="#000000">index</text>
<text text-anchor="start" x="188" y="-815.3" font-family="Times,serif" font-size="14.00" fill="#000000">show</text>
<text text-anchor="start" x="188" y="-801.3" font-family="Times,serif" font-size="14.00" fill="#000000">update</text>
<polyline fill="none" stroke="#000000" points="180,-794.5 332.0625,-794.5 "/>
<polyline fill="none" stroke="#000000" points="180,-770.5 332.0625,-770.5 "/>
<text text-anchor="start" x="188" y="-755.3" font-family="Times,serif" font-size="14.00" fill="#000000">_layout</text>
<text text-anchor="start" x="188" y="-741.3" font-family="Times,serif" font-size="14.00" fill="#000000">dependency_params</text>
<text text-anchor="start" x="188" y="-727.3" font-family="Times,serif" font-size="14.00" fill="#000000">set_dependency</text>
</g>
<!-- ExposuresController -->
<g id="node9" class="node">
<title>ExposuresController</title>
<path fill="none" stroke="#000000" d="M732,-396.5C732,-396.5 839.8691,-396.5 839.8691,-396.5 845.8691,-396.5 851.8691,-402.5 851.8691,-408.5 851.8691,-408.5 851.8691,-558.5 851.8691,-558.5 851.8691,-564.5 845.8691,-570.5 839.8691,-570.5 839.8691,-570.5 732,-570.5 732,-570.5 726,-570.5 720,-564.5 720,-558.5 720,-558.5 720,-408.5 720,-408.5 720,-402.5 726,-396.5 732,-396.5"/>
<text text-anchor="middle" x="785.9346" y="-555.3" font-family="Times,serif" font-size="14.00" fill="#000000">ExposuresController</text>
<polyline fill="none" stroke="#000000" points="720,-548.5 851.8691,-548.5 "/>
<text text-anchor="start" x="728" y="-533.3" font-family="Times,serif" font-size="14.00" fill="#000000">create</text>
<text text-anchor="start" x="728" y="-519.3" font-family="Times,serif" font-size="14.00" fill="#000000">destroy</text>
<text text-anchor="start" x="728" y="-505.3" font-family="Times,serif" font-size="14.00" fill="#000000">index</text>
<text text-anchor="start" x="728" y="-491.3" font-family="Times,serif" font-size="14.00" fill="#000000">show</text>
<text text-anchor="start" x="728" y="-477.3" font-family="Times,serif" font-size="14.00" fill="#000000">update</text>
<polyline fill="none" stroke="#000000" points="720,-470.5 851.8691,-470.5 "/>
<polyline fill="none" stroke="#000000" points="720,-446.5 851.8691,-446.5 "/>
<text text-anchor="start" x="728" y="-431.3" font-family="Times,serif" font-size="14.00" fill="#000000">_layout</text>
<text text-anchor="start" x="728" y="-417.3" font-family="Times,serif" font-size="14.00" fill="#000000">exposure_params</text>
<text text-anchor="start" x="728" y="-403.3" font-family="Times,serif" font-size="14.00" fill="#000000">set_exposure</text>
</g>
<!-- GroupsController -->
<g id="node10" class="node">
<title>GroupsController</title>
<path fill="none" stroke="#000000" d="M462,-828.5C462,-828.5 552.7656,-828.5 552.7656,-828.5 558.7656,-828.5 564.7656,-834.5 564.7656,-840.5 564.7656,-840.5 564.7656,-990.5 564.7656,-990.5 564.7656,-996.5 558.7656,-1002.5 552.7656,-1002.5 552.7656,-1002.5 462,-1002.5 462,-1002.5 456,-1002.5 450,-996.5 450,-990.5 450,-990.5 450,-840.5 450,-840.5 450,-834.5 456,-828.5 462,-828.5"/>
<text text-anchor="middle" x="507.3828" y="-987.3" font-family="Times,serif" font-size="14.00" fill="#000000">GroupsController</text>
<polyline fill="none" stroke="#000000" points="450,-980.5 564.7656,-980.5 "/>
<text text-anchor="start" x="458" y="-965.3" font-family="Times,serif" font-size="14.00" fill="#000000">create</text>
<text text-anchor="start" x="458" y="-951.3" font-family="Times,serif" font-size="14.00" fill="#000000">destroy</text>
<text text-anchor="start" x="458" y="-937.3" font-family="Times,serif" font-size="14.00" fill="#000000">index</text>
<text text-anchor="start" x="458" y="-923.3" font-family="Times,serif" font-size="14.00" fill="#000000">show</text>
<text text-anchor="start" x="458" y="-909.3" font-family="Times,serif" font-size="14.00" fill="#000000">update</text>
<polyline fill="none" stroke="#000000" points="450,-902.5 564.7656,-902.5 "/>
<polyline fill="none" stroke="#000000" points="450,-878.5 564.7656,-878.5 "/>
<text text-anchor="start" x="458" y="-863.3" font-family="Times,serif" font-size="14.00" fill="#000000">_layout</text>
<text text-anchor="start" x="458" y="-849.3" font-family="Times,serif" font-size="14.00" fill="#000000">group_params</text>
<text text-anchor="start" x="458" y="-835.3" font-family="Times,serif" font-size="14.00" fill="#000000">set_group</text>
</g>
<!-- IdentitiesController -->
<g id="node11" class="node">
<title>IdentitiesController</title>
<path fill="none" stroke="#000000" d="M444,-.5C444,-.5 545.6416,-.5 545.6416,-.5 551.6416,-.5 557.6416,-6.5 557.6416,-12.5 557.6416,-12.5 557.6416,-78.5 557.6416,-78.5 557.6416,-84.5 551.6416,-90.5 545.6416,-90.5 545.6416,-90.5 444,-90.5 444,-90.5 438,-90.5 432,-84.5 432,-78.5 432,-78.5 432,-12.5 432,-12.5 432,-6.5 438,-.5 444,-.5"/>
<text text-anchor="middle" x="494.8208" y="-75.3" font-family="Times,serif" font-size="14.00" fill="#000000">IdentitiesController</text>
<polyline fill="none" stroke="#000000" points="432,-68.5 557.6416,-68.5 "/>
<text text-anchor="start" x="440" y="-53.3" font-family="Times,serif" font-size="14.00" fill="#000000">destroy</text>
<polyline fill="none" stroke="#000000" points="432,-46.5 557.6416,-46.5 "/>
<polyline fill="none" stroke="#000000" points="432,-22.5 557.6416,-22.5 "/>
<text text-anchor="start" x="440" y="-7.3" font-family="Times,serif" font-size="14.00" fill="#000000">_layout</text>
</g>
<!-- IdentityProvidersController -->
<g id="node12" class="node">
<title>IdentityProvidersController</title>
<path fill="none" stroke="#000000" d="M372,-612.5C372,-612.5 518.752,-612.5 518.752,-612.5 524.752,-612.5 530.752,-618.5 530.752,-624.5 530.752,-624.5 530.752,-774.5 530.752,-774.5 530.752,-780.5 524.752,-786.5 518.752,-786.5 518.752,-786.5 372,-786.5 372,-786.5 366,-786.5 360,-780.5 360,-774.5 360,-774.5 360,-624.5 360,-624.5 360,-618.5 366,-612.5 372,-612.5"/>
<text text-anchor="middle" x="445.376" y="-771.3" font-family="Times,serif" font-size="14.00" fill="#000000">IdentityProvidersController</text>
<polyline fill="none" stroke="#000000" points="360,-764.5 530.752,-764.5 "/>
<text text-anchor="start" x="368" y="-749.3" font-family="Times,serif" font-size="14.00" fill="#000000">create</text>
<text text-anchor="start" x="368" y="-735.3" font-family="Times,serif" font-size="14.00" fill="#000000">destroy</text>
<text text-anchor="start" x="368" y="-721.3" font-family="Times,serif" font-size="14.00" fill="#000000">index</text>
<text text-anchor="start" x="368" y="-707.3" font-family="Times,serif" font-size="14.00" fill="#000000">redirect</text>
<text text-anchor="start" x="368" y="-693.3" font-family="Times,serif" font-size="14.00" fill="#000000">show</text>
<text text-anchor="start" x="368" y="-679.3" font-family="Times,serif" font-size="14.00" fill="#000000">update</text>
<polyline fill="none" stroke="#000000" points="360,-672.5 530.752,-672.5 "/>
<polyline fill="none" stroke="#000000" points="360,-648.5 530.752,-648.5 "/>
<text text-anchor="start" x="368" y="-633.3" font-family="Times,serif" font-size="14.00" fill="#000000">_layout</text>
<text text-anchor="start" x="368" y="-619.3" font-family="Times,serif" font-size="14.00" fill="#000000">identity_provider_params</text>
</g>
<!-- InstancesController -->
<g id="node13" class="node">
<title>InstancesController</title>
<path fill="none" stroke="#000000" d="M642,-882.5C642,-882.5 743.6348,-882.5 743.6348,-882.5 749.6348,-882.5 755.6348,-888.5 755.6348,-894.5 755.6348,-894.5 755.6348,-1044.5 755.6348,-1044.5 755.6348,-1050.5 749.6348,-1056.5 743.6348,-1056.5 743.6348,-1056.5 642,-1056.5 642,-1056.5 636,-1056.5 630,-1050.5 630,-1044.5 630,-1044.5 630,-894.5 630,-894.5 630,-888.5 636,-882.5 642,-882.5"/>
<text text-anchor="middle" x="692.8174" y="-1041.3" font-family="Times,serif" font-size="14.00" fill="#000000">InstancesController</text>
<polyline fill="none" stroke="#000000" points="630,-1034.5 755.6348,-1034.5 "/>
<text text-anchor="start" x="638" y="-1019.3" font-family="Times,serif" font-size="14.00" fill="#000000">create</text>
<text text-anchor="start" x="638" y="-1005.3" font-family="Times,serif" font-size="14.00" fill="#000000">destroy</text>
<text text-anchor="start" x="638" y="-991.3" font-family="Times,serif" font-size="14.00" fill="#000000">index</text>
<text text-anchor="start" x="638" y="-977.3" font-family="Times,serif" font-size="14.00" fill="#000000">show</text>
<text text-anchor="start" x="638" y="-963.3" font-family="Times,serif" font-size="14.00" fill="#000000">update</text>
<polyline fill="none" stroke="#000000" points="630,-956.5 755.6348,-956.5 "/>
<polyline fill="none" stroke="#000000" points="630,-932.5 755.6348,-932.5 "/>
<text text-anchor="start" x="638" y="-917.3" font-family="Times,serif" font-size="14.00" fill="#000000">_layout</text>
<text text-anchor="start" x="638" y="-903.3" font-family="Times,serif" font-size="14.00" fill="#000000">instance_params</text>
<text text-anchor="start" x="638" y="-889.3" font-family="Times,serif" font-size="14.00" fill="#000000">set_instance</text>
</g>
<!-- InterfacesController -->
<g id="node14" class="node">
<title>InterfacesController</title>
<path fill="none" stroke="#000000" d="M174,-252.5C174,-252.5 278.7246,-252.5 278.7246,-252.5 284.7246,-252.5 290.7246,-258.5 290.7246,-264.5 290.7246,-264.5 290.7246,-414.5 290.7246,-414.5 290.7246,-420.5 284.7246,-426.5 278.7246,-426.5 278.7246,-426.5 174,-426.5 174,-426.5 168,-426.5 162,-420.5 162,-414.5 162,-414.5 162,-264.5 162,-264.5 162,-258.5 168,-252.5 174,-252.5"/>
<text text-anchor="middle" x="226.3623" y="-411.3" font-family="Times,serif" font-size="14.00" fill="#000000">InterfacesController</text>
<polyline fill="none" stroke="#000000" points="162,-404.5 290.7246,-404.5 "/>
<text text-anchor="start" x="170" y="-389.3" font-family="Times,serif" font-size="14.00" fill="#000000">create</text>
<text text-anchor="start" x="170" y="-375.3" font-family="Times,serif" font-size="14.00" fill="#000000">destroy</text>
<text text-anchor="start" x="170" y="-361.3" font-family="Times,serif" font-size="14.00" fill="#000000">index</text>
<text text-anchor="start" x="170" y="-347.3" font-family="Times,serif" font-size="14.00" fill="#000000">show</text>
<text text-anchor="start" x="170" y="-333.3" font-family="Times,serif" font-size="14.00" fill="#000000">update</text>
<polyline fill="none" stroke="#000000" points="162,-326.5 290.7246,-326.5 "/>
<polyline fill="none" stroke="#000000" points="162,-302.5 290.7246,-302.5 "/>
<text text-anchor="start" x="170" y="-287.3" font-family="Times,serif" font-size="14.00" fill="#000000">_layout</text>
<text text-anchor="start" x="170" y="-273.3" font-family="Times,serif" font-size="14.00" fill="#000000">interface_params</text>
<text text-anchor="start" x="170" y="-259.3" font-family="Times,serif" font-size="14.00" fill="#000000">set_interface</text>
</g>
<!-- LicensesController -->
<g id="node15" class="node">
<title>LicensesController</title>
<path fill="none" stroke="#000000" d="M30,-882.5C30,-882.5 128.5244,-882.5 128.5244,-882.5 134.5244,-882.5 140.5244,-888.5 140.5244,-894.5 140.5244,-894.5 140.5244,-1044.5 140.5244,-1044.5 140.5244,-1050.5 134.5244,-1056.5 128.5244,-1056.5 128.5244,-1056.5 30,-1056.5 30,-1056.5 24,-1056.5 18,-1050.5 18,-1044.5 18,-1044.5 18,-894.5 18,-894.5 18,-888.5 24,-882.5 30,-882.5"/>
<text text-anchor="middle" x="79.2622" y="-1041.3" font-family="Times,serif" font-size="14.00" fill="#000000">LicensesController</text>
<polyline fill="none" stroke="#000000" points="18,-1034.5 140.5244,-1034.5 "/>
<text text-anchor="start" x="26" y="-1019.3" font-family="Times,serif" font-size="14.00" fill="#000000">create</text>
<text text-anchor="start" x="26" y="-1005.3" font-family="Times,serif" font-size="14.00" fill="#000000">destroy</text>
<text text-anchor="start" x="26" y="-991.3" font-family="Times,serif" font-size="14.00" fill="#000000">index</text>
<text text-anchor="start" x="26" y="-977.3" font-family="Times,serif" font-size="14.00" fill="#000000">show</text>
<text text-anchor="start" x="26" y="-963.3" font-family="Times,serif" font-size="14.00" fill="#000000">update</text>
<polyline fill="none" stroke="#000000" points="18,-956.5 140.5244,-956.5 "/>
<polyline fill="none" stroke="#000000" points="18,-932.5 140.5244,-932.5 "/>
<text text-anchor="start" x="26" y="-917.3" font-family="Times,serif" font-size="14.00" fill="#000000">_layout</text>
<text text-anchor="start" x="26" y="-903.3" font-family="Times,serif" font-size="14.00" fill="#000000">license_params</text>
<text text-anchor="start" x="26" y="-889.3" font-family="Times,serif" font-size="14.00" fill="#000000">set_license</text>
</g>
<!-- MembersController -->
<g id="node16" class="node">
<title>MembersController</title>
<path fill="none" stroke="#000000" d="M12,-252.5C12,-252.5 114.4209,-252.5 114.4209,-252.5 120.4209,-252.5 126.4209,-258.5 126.4209,-264.5 126.4209,-264.5 126.4209,-414.5 126.4209,-414.5 126.4209,-420.5 120.4209,-426.5 114.4209,-426.5 114.4209,-426.5 12,-426.5 12,-426.5 6,-426.5 0,-420.5 0,-414.5 0,-414.5 0,-264.5 0,-264.5 0,-258.5 6,-252.5 12,-252.5"/>
<text text-anchor="middle" x="63.2104" y="-411.3" font-family="Times,serif" font-size="14.00" fill="#000000">MembersController</text>
<polyline fill="none" stroke="#000000" points="0,-404.5 126.4209,-404.5 "/>
<text text-anchor="start" x="8" y="-389.3" font-family="Times,serif" font-size="14.00" fill="#000000">create</text>
<text text-anchor="start" x="8" y="-375.3" font-family="Times,serif" font-size="14.00" fill="#000000">destroy</text>
<text text-anchor="start" x="8" y="-361.3" font-family="Times,serif" font-size="14.00" fill="#000000">index</text>
<text text-anchor="start" x="8" y="-347.3" font-family="Times,serif" font-size="14.00" fill="#000000">show</text>
<text text-anchor="start" x="8" y="-333.3" font-family="Times,serif" font-size="14.00" fill="#000000">update</text>
<polyline fill="none" stroke="#000000" points="0,-326.5 126.4209,-326.5 "/>
<polyline fill="none" stroke="#000000" points="0,-302.5 126.4209,-302.5 "/>
<text text-anchor="start" x="8" y="-287.3" font-family="Times,serif" font-size="14.00" fill="#000000">_layout</text>
<text text-anchor="start" x="8" y="-273.3" font-family="Times,serif" font-size="14.00" fill="#000000">member_params</text>
<text text-anchor="start" x="8" y="-259.3" font-family="Times,serif" font-size="14.00" fill="#000000">set_member</text>
</g>
<!-- ParametersController -->
<g id="node17" class="node">
<title>ParametersController</title>
<path fill="none" stroke="#000000" d="M336,-144.5C336,-144.5 447.7383,-144.5 447.7383,-144.5 453.7383,-144.5 459.7383,-150.5 459.7383,-156.5 459.7383,-156.5 459.7383,-306.5 459.7383,-306.5 459.7383,-312.5 453.7383,-318.5 447.7383,-318.5 447.7383,-318.5 336,-318.5 336,-318.5 330,-318.5 324,-312.5 324,-306.5 324,-306.5 324,-156.5 324,-156.5 324,-150.5 330,-144.5 336,-144.5"/>
<text text-anchor="middle" x="391.8691" y="-303.3" font-family="Times,serif" font-size="14.00" fill="#000000">ParametersController</text>
<polyline fill="none" stroke="#000000" points="324,-296.5 459.7383,-296.5 "/>
<text text-anchor="start" x="332" y="-281.3" font-family="Times,serif" font-size="14.00" fill="#000000">create</text>
<text text-anchor="start" x="332" y="-267.3" font-family="Times,serif" font-size="14.00" fill="#000000">destroy</text>
<text text-anchor="start" x="332" y="-253.3" font-family="Times,serif" font-size="14.00" fill="#000000">index</text>
<text text-anchor="start" x="332" y="-239.3" font-family="Times,serif" font-size="14.00" fill="#000000">show</text>
<text text-anchor="start" x="332" y="-225.3" font-family="Times,serif" font-size="14.00" fill="#000000">update</text>
<polyline fill="none" stroke="#000000" points="324,-218.5 459.7383,-218.5 "/>
<polyline fill="none" stroke="#000000" points="324,-194.5 459.7383,-194.5 "/>
<text text-anchor="start" x="332" y="-179.3" font-family="Times,serif" font-size="14.00" fill="#000000">_layout</text>
<text text-anchor="start" x="332" y="-165.3" font-family="Times,serif" font-size="14.00" fill="#000000">parameter_params</text>
<text text-anchor="start" x="332" y="-151.3" font-family="Times,serif" font-size="14.00" fill="#000000">set_parameter</text>
</g>
<!-- PlatformsController -->
<g id="node18" class="node">
<title>PlatformsController</title>
<path fill="none" stroke="#000000" d="M786,-612.5C786,-612.5 889.9863,-612.5 889.9863,-612.5 895.9863,-612.5 901.9863,-618.5 901.9863,-624.5 901.9863,-624.5 901.9863,-774.5 901.9863,-774.5 901.9863,-780.5 895.9863,-786.5 889.9863,-786.5 889.9863,-786.5 786,-786.5 786,-786.5 780,-786.5 774,-780.5 774,-774.5 774,-774.5 774,-624.5 774,-624.5 774,-618.5 780,-612.5 786,-612.5"/>
<text text-anchor="middle" x="837.9932" y="-771.3" font-family="Times,serif" font-size="14.00" fill="#000000">PlatformsController</text>
<polyline fill="none" stroke="#000000" points="774,-764.5 901.9863,-764.5 "/>
<text text-anchor="start" x="782" y="-749.3" font-family="Times,serif" font-size="14.00" fill="#000000">create</text>
<text text-anchor="start" x="782" y="-735.3" font-family="Times,serif" font-size="14.00" fill="#000000">destroy</text>
<text text-anchor="start" x="782" y="-721.3" font-family="Times,serif" font-size="14.00" fill="#000000">index</text>
<text text-anchor="start" x="782" y="-707.3" font-family="Times,serif" font-size="14.00" fill="#000000">show</text>
<text text-anchor="start" x="782" y="-693.3" font-family="Times,serif" font-size="14.00" fill="#000000">update</text>
<polyline fill="none" stroke="#000000" points="774,-686.5 901.9863,-686.5 "/>
<polyline fill="none" stroke="#000000" points="774,-662.5 901.9863,-662.5 "/>
<text text-anchor="start" x="782" y="-647.3" font-family="Times,serif" font-size="14.00" fill="#000000">_layout</text>
<text text-anchor="start" x="782" y="-633.3" font-family="Times,serif" font-size="14.00" fill="#000000">platform_params</text>
<text text-anchor="start" x="782" y="-619.3" font-family="Times,serif" font-size="14.00" fill="#000000">set_platform</text>
</g>
<!-- RolesController -->
<g id="node19" class="node">
<title>RolesController</title>
<path fill="none" stroke="#000000" d="M318,-936.5C318,-936.5 399.4346,-936.5 399.4346,-936.5 405.4346,-936.5 411.4346,-942.5 411.4346,-948.5 411.4346,-948.5 411.4346,-1084.5 411.4346,-1084.5 411.4346,-1090.5 405.4346,-1096.5 399.4346,-1096.5 399.4346,-1096.5 318,-1096.5 318,-1096.5 312,-1096.5 306,-1090.5 306,-1084.5 306,-1084.5 306,-948.5 306,-948.5 306,-942.5 312,-936.5 318,-936.5"/>
<text text-anchor="middle" x="358.7173" y="-1081.3" font-family="Times,serif" font-size="14.00" fill="#000000">RolesController</text>
<polyline fill="none" stroke="#000000" points="306,-1074.5 411.4346,-1074.5 "/>
<text text-anchor="start" x="314" y="-1059.3" font-family="Times,serif" font-size="14.00" fill="#000000">create</text>
<text text-anchor="start" x="314" y="-1045.3" font-family="Times,serif" font-size="14.00" fill="#000000">destroy</text>
<text text-anchor="start" x="314" y="-1031.3" font-family="Times,serif" font-size="14.00" fill="#000000">index</text>
<text text-anchor="start" x="314" y="-1017.3" font-family="Times,serif" font-size="14.00" fill="#000000">show</text>
<text text-anchor="start" x="314" y="-1003.3" font-family="Times,serif" font-size="14.00" fill="#000000">update</text>
<polyline fill="none" stroke="#000000" points="306,-996.5 411.4346,-996.5 "/>
<polyline fill="none" stroke="#000000" points="306,-972.5 411.4346,-972.5 "/>
<text text-anchor="start" x="314" y="-957.3" font-family="Times,serif" font-size="14.00" fill="#000000">_layout</text>
<text text-anchor="start" x="314" y="-943.3" font-family="Times,serif" font-size="14.00" fill="#000000">role_params</text>
</g>
<!-- ScreenshotsController -->
<g id="node20" class="node">
<title>ScreenshotsController</title>
<path fill="none" stroke="#000000" d="M606,-630.5C606,-630.5 722.4209,-630.5 722.4209,-630.5 728.4209,-630.5 734.4209,-636.5 734.4209,-642.5 734.4209,-642.5 734.4209,-834.5 734.4209,-834.5 734.4209,-840.5 728.4209,-846.5 722.4209,-846.5 722.4209,-846.5 606,-846.5 606,-846.5 600,-846.5 594,-840.5 594,-834.5 594,-834.5 594,-642.5 594,-642.5 594,-636.5 600,-630.5 606,-630.5"/>
<text text-anchor="middle" x="664.2104" y="-831.3" font-family="Times,serif" font-size="14.00" fill="#000000">ScreenshotsController</text>
<polyline fill="none" stroke="#000000" points="594,-824.5 734.4209,-824.5 "/>
<text text-anchor="start" x="602" y="-809.3" font-family="Times,serif" font-size="14.00" fill="#000000">update</text>
<text text-anchor="start" x="602" y="-795.3" font-family="Times,serif" font-size="14.00" fill="#000000">destroy</text>
<text text-anchor="start" x="602" y="-781.3" font-family="Times,serif" font-size="14.00" fill="#000000">index</text>
<text text-anchor="start" x="602" y="-767.3" font-family="Times,serif" font-size="14.00" fill="#000000">large</text>
<text text-anchor="start" x="602" y="-753.3" font-family="Times,serif" font-size="14.00" fill="#000000">medium</text>
<text text-anchor="start" x="602" y="-739.3" font-family="Times,serif" font-size="14.00" fill="#000000">send_image_data</text>
<text text-anchor="start" x="602" y="-725.3" font-family="Times,serif" font-size="14.00" fill="#000000">show</text>
<text text-anchor="start" x="602" y="-711.3" font-family="Times,serif" font-size="14.00" fill="#000000">small</text>
<text text-anchor="start" x="602" y="-697.3" font-family="Times,serif" font-size="14.00" fill="#000000">create</text>
<polyline fill="none" stroke="#000000" points="594,-690.5 734.4209,-690.5 "/>
<polyline fill="none" stroke="#000000" points="594,-666.5 734.4209,-666.5 "/>
<text text-anchor="start" x="602" y="-651.3" font-family="Times,serif" font-size="14.00" fill="#000000">_layout</text>
<text text-anchor="start" x="602" y="-637.3" font-family="Times,serif" font-size="14.00" fill="#000000">screenshot_params</text>
</g>
<!-- ServicesController -->
<g id="node21" class="node">
<title>ServicesController</title>
<path fill="none" stroke="#000000" d="M570,-342.5C570,-342.5 666.9727,-342.5 666.9727,-342.5 672.9727,-342.5 678.9727,-348.5 678.9727,-354.5 678.9727,-354.5 678.9727,-574.5 678.9727,-574.5 678.9727,-580.5 672.9727,-586.5 666.9727,-586.5 666.9727,-586.5 570,-586.5 570,-586.5 564,-586.5 558,-580.5 558,-574.5 558,-574.5 558,-354.5 558,-354.5 558,-348.5 564,-342.5 570,-342.5"/>
<text text-anchor="middle" x="618.4863" y="-571.3" font-family="Times,serif" font-size="14.00" fill="#000000">ServicesController</text>
<polyline fill="none" stroke="#000000" points="558,-564.5 678.9727,-564.5 "/>
<text text-anchor="start" x="566" y="-549.3" font-family="Times,serif" font-size="14.00" fill="#000000">update</text>
<text text-anchor="start" x="566" y="-535.3" font-family="Times,serif" font-size="14.00" fill="#000000">destroy</text>
<text text-anchor="start" x="566" y="-521.3" font-family="Times,serif" font-size="14.00" fill="#000000">index</text>
<text text-anchor="start" x="566" y="-507.3" font-family="Times,serif" font-size="14.00" fill="#000000">large</text>
<text text-anchor="start" x="566" y="-493.3" font-family="Times,serif" font-size="14.00" fill="#000000">medium</text>
<text text-anchor="start" x="566" y="-479.3" font-family="Times,serif" font-size="14.00" fill="#000000">search</text>
<text text-anchor="start" x="566" y="-465.3" font-family="Times,serif" font-size="14.00" fill="#000000">send_image_data</text>
<text text-anchor="start" x="566" y="-451.3" font-family="Times,serif" font-size="14.00" fill="#000000">show</text>
<text text-anchor="start" x="566" y="-437.3" font-family="Times,serif" font-size="14.00" fill="#000000">small</text>
<text text-anchor="start" x="566" y="-423.3" font-family="Times,serif" font-size="14.00" fill="#000000">create</text>
<polyline fill="none" stroke="#000000" points="558,-416.5 678.9727,-416.5 "/>
<polyline fill="none" stroke="#000000" points="558,-392.5 678.9727,-392.5 "/>
<text text-anchor="start" x="566" y="-377.3" font-family="Times,serif" font-size="14.00" fill="#000000">_layout</text>
<text text-anchor="start" x="566" y="-363.3" font-family="Times,serif" font-size="14.00" fill="#000000">service_params</text>
<text text-anchor="start" x="566" y="-349.3" font-family="Times,serif" font-size="14.00" fill="#000000">set_service</text>
</g>
<!-- SessionsController -->
<g id="node22" class="node">
<title>SessionsController</title>
<path fill="none" stroke="#000000" d="M30,-54.5C30,-54.5 146.4141,-54.5 146.4141,-54.5 152.4141,-54.5 158.4141,-60.5 158.4141,-66.5 158.4141,-66.5 158.4141,-202.5 158.4141,-202.5 158.4141,-208.5 152.4141,-214.5 146.4141,-214.5 146.4141,-214.5 30,-214.5 30,-214.5 24,-214.5 18,-208.5 18,-202.5 18,-202.5 18,-66.5 18,-66.5 18,-60.5 24,-54.5 30,-54.5"/>
<text text-anchor="middle" x="88.207" y="-199.3" font-family="Times,serif" font-size="14.00" fill="#000000">SessionsController</text>
<polyline fill="none" stroke="#000000" points="18,-192.5 158.4141,-192.5 "/>
<text text-anchor="start" x="26" y="-177.3" font-family="Times,serif" font-size="14.00" fill="#000000">authenticate</text>
<text text-anchor="start" x="26" y="-163.3" font-family="Times,serif" font-size="14.00" fill="#000000">callback</text>
<text text-anchor="start" x="26" y="-149.3" font-family="Times,serif" font-size="14.00" fill="#000000">cleanse_session</text>
<text text-anchor="start" x="26" y="-135.3" font-family="Times,serif" font-size="14.00" fill="#000000">destroy</text>
<text text-anchor="start" x="26" y="-121.3" font-family="Times,serif" font-size="14.00" fill="#000000">openid_connect_login</text>
<text text-anchor="start" x="26" y="-107.3" font-family="Times,serif" font-size="14.00" fill="#000000">public_keys_for</text>
<polyline fill="none" stroke="#000000" points="18,-100.5 158.4141,-100.5 "/>
<polyline fill="none" stroke="#000000" points="18,-76.5 158.4141,-76.5 "/>
<text text-anchor="start" x="26" y="-61.3" font-family="Times,serif" font-size="14.00" fill="#000000">_layout</text>
</g>
<!-- Smart::LaunchController -->
<g id="node23" class="node">
<title>Smart::LaunchController</title>
<path fill="none" stroke="#000000" d="M894,-18.5C894,-18.5 1026.7451,-18.5 1026.7451,-18.5 1032.7451,-18.5 1038.7451,-24.5 1038.7451,-30.5 1038.7451,-30.5 1038.7451,-96.5 1038.7451,-96.5 1038.7451,-102.5 1032.7451,-108.5 1026.7451,-108.5 1026.7451,-108.5 894,-108.5 894,-108.5 888,-108.5 882,-102.5 882,-96.5 882,-96.5 882,-30.5 882,-30.5 882,-24.5 888,-18.5 894,-18.5"/>
<text text-anchor="middle" x="960.3726" y="-93.3" font-family="Times,serif" font-size="14.00" fill="#000000">Smart::LaunchController</text>
<polyline fill="none" stroke="#000000" points="882,-86.5 1038.7451,-86.5 "/>
<text text-anchor="start" x="890" y="-71.3" font-family="Times,serif" font-size="14.00" fill="#000000">launch</text>
<polyline fill="none" stroke="#000000" points="882,-64.5 1038.7451,-64.5 "/>
<polyline fill="none" stroke="#000000" points="882,-40.5 1038.7451,-40.5 "/>
<text text-anchor="start" x="890" y="-25.3" font-family="Times,serif" font-size="14.00" fill="#000000">_layout</text>
</g>
<!-- SurrogatesController -->
<g id="node24" class="node">
<title>SurrogatesController</title>
<path fill="none" stroke="#000000" d="M498,-126.5C498,-126.5 607.4209,-126.5 607.4209,-126.5 613.4209,-126.5 619.4209,-132.5 619.4209,-138.5 619.4209,-138.5 619.4209,-288.5 619.4209,-288.5 619.4209,-294.5 613.4209,-300.5 607.4209,-300.5 607.4209,-300.5 498,-300.5 498,-300.5 492,-300.5 486,-294.5 486,-288.5 486,-288.5 486,-138.5 486,-138.5 486,-132.5 492,-126.5 498,-126.5"/>
<text text-anchor="middle" x="552.7104" y="-285.3" font-family="Times,serif" font-size="14.00" fill="#000000">SurrogatesController</text>
<polyline fill="none" stroke="#000000" points="486,-278.5 619.4209,-278.5 "/>
<text text-anchor="start" x="494" y="-263.3" font-family="Times,serif" font-size="14.00" fill="#000000">create</text>
<text text-anchor="start" x="494" y="-249.3" font-family="Times,serif" font-size="14.00" fill="#000000">destroy</text>
<text text-anchor="start" x="494" y="-235.3" font-family="Times,serif" font-size="14.00" fill="#000000">index</text>
<text text-anchor="start" x="494" y="-221.3" font-family="Times,serif" font-size="14.00" fill="#000000">show</text>
<text text-anchor="start" x="494" y="-207.3" font-family="Times,serif" font-size="14.00" fill="#000000">update</text>
<polyline fill="none" stroke="#000000" points="486,-200.5 619.4209,-200.5 "/>
<polyline fill="none" stroke="#000000" points="486,-176.5 619.4209,-176.5 "/>
<text text-anchor="start" x="494" y="-161.3" font-family="Times,serif" font-size="14.00" fill="#000000">_layout</text>
<text text-anchor="start" x="494" y="-147.3" font-family="Times,serif" font-size="14.00" fill="#000000">set_surrogate</text>
<text text-anchor="start" x="494" y="-133.3" font-family="Times,serif" font-size="14.00" fill="#000000">surrogate_params</text>
</g>
<!-- TasksController -->
<g id="node25" class="node">
<title>TasksController</title>
<path fill="none" stroke="#000000" d="M12,-468.5C12,-468.5 93.2295,-468.5 93.2295,-468.5 99.2295,-468.5 105.2295,-474.5 105.2295,-480.5 105.2295,-480.5 105.2295,-630.5 105.2295,-630.5 105.2295,-636.5 99.2295,-642.5 93.2295,-642.5 93.2295,-642.5 12,-642.5 12,-642.5 6,-642.5 0,-636.5 0,-630.5 0,-630.5 0,-480.5 0,-480.5 0,-474.5 6,-468.5 12,-468.5"/>
<text text-anchor="middle" x="52.6147" y="-627.3" font-family="Times,serif" font-size="14.00" fill="#000000">TasksController</text>
<polyline fill="none" stroke="#000000" points="0,-620.5 105.2295,-620.5 "/>
<text text-anchor="start" x="8" y="-605.3" font-family="Times,serif" font-size="14.00" fill="#000000">create</text>
<text text-anchor="start" x="8" y="-591.3" font-family="Times,serif" font-size="14.00" fill="#000000">destroy</text>
<text text-anchor="start" x="8" y="-577.3" font-family="Times,serif" font-size="14.00" fill="#000000">index</text>
<text text-anchor="start" x="8" y="-563.3" font-family="Times,serif" font-size="14.00" fill="#000000">show</text>
<text text-anchor="start" x="8" y="-549.3" font-family="Times,serif" font-size="14.00" fill="#000000">update</text>
<polyline fill="none" stroke="#000000" points="0,-542.5 105.2295,-542.5 "/>
<polyline fill="none" stroke="#000000" points="0,-518.5 105.2295,-518.5 "/>
<text text-anchor="start" x="8" y="-503.3" font-family="Times,serif" font-size="14.00" fill="#000000">_layout</text>
<text text-anchor="start" x="8" y="-489.3" font-family="Times,serif" font-size="14.00" fill="#000000">set_task</text>
<text text-anchor="start" x="8" y="-475.3" font-family="Times,serif" font-size="14.00" fill="#000000">task_params</text>
</g>
<!-- UsersController -->
<g id="node26" class="node">
<title>UsersController</title>
<path fill="none" stroke="#000000" d="M894,-396.5C894,-396.5 975.4277,-396.5 975.4277,-396.5 981.4277,-396.5 987.4277,-402.5 987.4277,-408.5 987.4277,-408.5 987.4277,-558.5 987.4277,-558.5 987.4277,-564.5 981.4277,-570.5 975.4277,-570.5 975.4277,-570.5 894,-570.5 894,-570.5 888,-570.5 882,-564.5 882,-558.5 882,-558.5 882,-408.5 882,-408.5 882,-402.5 888,-396.5 894,-396.5"/>
<text text-anchor="middle" x="934.7139" y="-555.3" font-family="Times,serif" font-size="14.00" fill="#000000">UsersController</text>
<polyline fill="none" stroke="#000000" points="882,-548.5 987.4277,-548.5 "/>
<text text-anchor="start" x="890" y="-533.3" font-family="Times,serif" font-size="14.00" fill="#000000">create</text>
<text text-anchor="start" x="890" y="-519.3" font-family="Times,serif" font-size="14.00" fill="#000000">destroy</text>
<text text-anchor="start" x="890" y="-505.3" font-family="Times,serif" font-size="14.00" fill="#000000">index</text>
<text text-anchor="start" x="890" y="-491.3" font-family="Times,serif" font-size="14.00" fill="#000000">show</text>
<text text-anchor="start" x="890" y="-477.3" font-family="Times,serif" font-size="14.00" fill="#000000">update</text>
<polyline fill="none" stroke="#000000" points="882,-470.5 987.4277,-470.5 "/>
<polyline fill="none" stroke="#000000" points="882,-446.5 987.4277,-446.5 "/>
<text text-anchor="start" x="890" y="-431.3" font-family="Times,serif" font-size="14.00" fill="#000000">_layout</text>
<text text-anchor="start" x="890" y="-417.3" font-family="Times,serif" font-size="14.00" fill="#000000">set_user</text>
<text text-anchor="start" x="890" y="-403.3" font-family="Times,serif" font-size="14.00" fill="#000000">user_params</text>
</g>
<!-- WelcomeController -->
<g id="node27" class="node">
<title>WelcomeController</title>
<path fill="none" stroke="#000000" d="M930,-144.5C930,-144.5 1032.0654,-144.5 1032.0654,-144.5 1038.0654,-144.5 1044.0654,-150.5 1044.0654,-156.5 1044.0654,-156.5 1044.0654,-250.5 1044.0654,-250.5 1044.0654,-256.5 1038.0654,-262.5 1032.0654,-262.5 1032.0654,-262.5 930,-262.5 930,-262.5 924,-262.5 918,-256.5 918,-250.5 918,-250.5 918,-156.5 918,-156.5 918,-150.5 924,-144.5 930,-144.5"/>
<text text-anchor="middle" x="981.0327" y="-247.3" font-family="Times,serif" font-size="14.00" fill="#000000">WelcomeController</text>
<polyline fill="none" stroke="#000000" points="918,-240.5 1044.0654,-240.5 "/>
<text text-anchor="start" x="926" y="-225.3" font-family="Times,serif" font-size="14.00" fill="#000000">dashboard</text>
<text text-anchor="start" x="926" y="-211.3" font-family="Times,serif" font-size="14.00" fill="#000000">landing</text>
<text text-anchor="start" x="926" y="-197.3" font-family="Times,serif" font-size="14.00" fill="#000000">status</text>
<polyline fill="none" stroke="#000000" points="918,-190.5 1044.0654,-190.5 "/>
<polyline fill="none" stroke="#000000" points="918,-166.5 1044.0654,-166.5 "/>
<text text-anchor="start" x="926" y="-151.3" font-family="Times,serif" font-size="14.00" fill="#000000">_layout</text>
</g>
</g>
</svg>
