<?xml version="1.0" encoding="UTF-8" standalone="no"?>
<!DOCTYPE svg PUBLIC "-//W3C//DTD SVG 1.1//EN"
 "http://www.w3.org/Graphics/SVG/1.1/DTD/svg11.dtd">
<!-- Generated by graphviz version 2.38.0 (20140413.2041)
 -->
<!-- Title: controllers_diagram Pages: 1 -->
<svg width="1018pt" height="1056pt"
 viewBox="0.00 0.00 1018.41 1056.00" xmlns="http://www.w3.org/2000/svg" xmlns:xlink="http://www.w3.org/1999/xlink">
<g id="graph0" class="graph" transform="scale(1 1) rotate(0) translate(429.376 593.5)">
<title>controllers_diagram</title>
<polygon fill="none" stroke="none" points="-429.376,462.5 -429.376,-593.5 589.033,-593.5 589.033,462.5 -429.376,462.5"/>
<!-- _diagram_info -->
<g id="node1" class="node"><title>_diagram_info</title>
<text text-anchor="start" x="-331.688" y="246.9" font-family="Times,serif" font-size="13.00">Controllers diagram</text>
<text text-anchor="start" x="-331.688" y="259.9" font-family="Times,serif" font-size="13.00">Date: Dec 23 2016 &#45; 15:04</text>
<text text-anchor="start" x="-331.688" y="272.9" font-family="Times,serif" font-size="13.00">Migration version: 20161221224103</text>
<text text-anchor="start" x="-331.688" y="285.9" font-family="Times,serif" font-size="13.00">Generated by RailRoady 1.5.2</text>
<text text-anchor="start" x="-331.688" y="298.9" font-family="Times,serif" font-size="13.00">http://railroady.prestonlee.com</text>
</g>
<!-- ApplicationController -->
<g id="node2" class="node"><title>ApplicationController</title>
<path fill="none" stroke="black" d="M-89.5176,118C-89.5176,118 87.5176,118 87.5176,118 93.5176,118 99.5176,112 99.5176,106 99.5176,106 99.5176,-86 99.5176,-86 99.5176,-92 93.5176,-98 87.5176,-98 87.5176,-98 -89.5176,-98 -89.5176,-98 -95.5176,-98 -101.518,-92 -101.518,-86 -101.518,-86 -101.518,106 -101.518,106 -101.518,112 -95.5176,118 -89.5176,118"/>
<text text-anchor="middle" x="-1" y="-82.8" font-family="Times,serif" font-size="14.00">ApplicationController</text>
<polyline fill="none" stroke="black" points="-101.518,-76 99.5176,-76 "/>
<text text-anchor="start" x="-93.5176" y="-60.8" font-family="Times,serif" font-size="14.00">unauthenticate!</text>
<text text-anchor="start" x="-93.5176" y="-46.8" font-family="Times,serif" font-size="14.00">build_oauth_request</text>
<text text-anchor="start" x="-93.5176" y="-32.8" font-family="Times,serif" font-size="14.00">cors_preflight_check</text>
<text text-anchor="start" x="-93.5176" y="-18.8" font-family="Times,serif" font-size="14.00">cors_set_access_control_headers</text>
<text text-anchor="start" x="-93.5176" y="-4.8" font-family="Times,serif" font-size="14.00">current_identity</text>
<text text-anchor="start" x="-93.5176" y="9.2" font-family="Times,serif" font-size="14.00">current_user</text>
<text text-anchor="start" x="-93.5176" y="23.2" font-family="Times,serif" font-size="14.00">new_nonce</text>
<text text-anchor="start" x="-93.5176" y="37.2" font-family="Times,serif" font-size="14.00">set_options_from</text>
<text text-anchor="start" x="-93.5176" y="51.2" font-family="Times,serif" font-size="14.00">stored_nonce</text>
<text text-anchor="start" x="-93.5176" y="65.2" font-family="Times,serif" font-size="14.00">set_identity_from_session!</text>
<polyline fill="none" stroke="black" points="-101.518,72 99.5176,72 "/>
<polyline fill="none" stroke="black" points="-101.518,96 99.5176,96 "/>
<text text-anchor="start" x="-93.5176" y="111.2" font-family="Times,serif" font-size="14.00">_layout</text>
</g>
<!-- AppointmentsController -->
<g id="node3" class="node"><title>AppointmentsController</title>
<path fill="none" stroke="black" d="M-226.438,-239C-226.438,-239 -97.562,-239 -97.562,-239 -91.562,-239 -85.562,-245 -85.562,-251 -85.562,-251 -85.562,-401 -85.562,-401 -85.562,-407 -91.562,-413 -97.562,-413 -97.562,-413 -226.438,-413 -226.438,-413 -232.438,-413 -238.438,-407 -238.438,-401 -238.438,-401 -238.438,-251 -238.438,-251 -238.438,-245 -232.438,-239 -226.438,-239"/>
<text text-anchor="middle" x="-162" y="-397.8" font-family="Times,serif" font-size="14.00">AppointmentsController</text>
<polyline fill="none" stroke="black" points="-238.438,-391 -85.562,-391 "/>
<text text-anchor="start" x="-230.438" y="-375.8" font-family="Times,serif" font-size="14.00">create</text>
<text text-anchor="start" x="-230.438" y="-361.8" font-family="Times,serif" font-size="14.00">destroy</text>
<text text-anchor="start" x="-230.438" y="-347.8" font-family="Times,serif" font-size="14.00">index</text>
<text text-anchor="start" x="-230.438" y="-333.8" font-family="Times,serif" font-size="14.00">show</text>
<text text-anchor="start" x="-230.438" y="-319.8" font-family="Times,serif" font-size="14.00">update</text>
<polyline fill="none" stroke="black" points="-238.438,-313 -85.562,-313 "/>
<polyline fill="none" stroke="black" points="-238.438,-289 -85.562,-289 "/>
<text text-anchor="start" x="-230.438" y="-273.8" font-family="Times,serif" font-size="14.00">_layout</text>
<text text-anchor="start" x="-230.438" y="-259.8" font-family="Times,serif" font-size="14.00">appointment_params</text>
<text text-anchor="start" x="-230.438" y="-245.8" font-family="Times,serif" font-size="14.00">set_appointment</text>
</g>
<!-- AssetsController -->
<g id="node4" class="node"><title>AssetsController</title>
<path fill="none" stroke="black" d="M-175.052,-443C-175.052,-443 -88.9482,-443 -88.9482,-443 -82.9482,-443 -76.9482,-449 -76.9482,-455 -76.9482,-455 -76.9482,-577 -76.9482,-577 -76.9482,-583 -82.9482,-589 -88.9482,-589 -88.9482,-589 -175.052,-589 -175.052,-589 -181.052,-589 -187.052,-583 -187.052,-577 -187.052,-577 -187.052,-455 -187.052,-455 -187.052,-449 -181.052,-443 -175.052,-443"/>
<text text-anchor="middle" x="-132" y="-573.8" font-family="Times,serif" font-size="14.00">AssetsController</text>
<polyline fill="none" stroke="black" points="-187.052,-567 -76.9482,-567 "/>
<text text-anchor="start" x="-179.052" y="-551.8" font-family="Times,serif" font-size="14.00">create</text>
<text text-anchor="start" x="-179.052" y="-537.8" font-family="Times,serif" font-size="14.00">destroy</text>
<text text-anchor="start" x="-179.052" y="-523.8" font-family="Times,serif" font-size="14.00">index</text>
<text text-anchor="start" x="-179.052" y="-509.8" font-family="Times,serif" font-size="14.00">update</text>
<polyline fill="none" stroke="black" points="-187.052,-503 -76.9482,-503 "/>
<polyline fill="none" stroke="black" points="-187.052,-479 -76.9482,-479 "/>
<text text-anchor="start" x="-179.052" y="-463.8" font-family="Times,serif" font-size="14.00">_layout</text>
<text text-anchor="start" x="-179.052" y="-449.8" font-family="Times,serif" font-size="14.00">asset_params</text>
</g>
<!-- BuildsController -->
<g id="node5" class="node"><title>BuildsController</title>
<path fill="none" stroke="black" d="M-362.055,-375C-362.055,-375 -275.945,-375 -275.945,-375 -269.945,-375 -263.945,-381 -263.945,-387 -263.945,-387 -263.945,-537 -263.945,-537 -263.945,-543 -269.945,-549 -275.945,-549 -275.945,-549 -362.055,-549 -362.055,-549 -368.055,-549 -374.055,-543 -374.055,-537 -374.055,-537 -374.055,-387 -374.055,-387 -374.055,-381 -368.055,-375 -362.055,-375"/>
<text text-anchor="middle" x="-319" y="-533.8" font-family="Times,serif" font-size="14.00">BuildsController</text>
<polyline fill="none" stroke="black" points="-374.055,-527 -263.945,-527 "/>
<text text-anchor="start" x="-366.055" y="-511.8" font-family="Times,serif" font-size="14.00">create</text>
<text text-anchor="start" x="-366.055" y="-497.8" font-family="Times,serif" font-size="14.00">destroy</text>
<text text-anchor="start" x="-366.055" y="-483.8" font-family="Times,serif" font-size="14.00">index</text>
<text text-anchor="start" x="-366.055" y="-469.8" font-family="Times,serif" font-size="14.00">show</text>
<text text-anchor="start" x="-366.055" y="-455.8" font-family="Times,serif" font-size="14.00">update</text>
<polyline fill="none" stroke="black" points="-374.055,-449 -263.945,-449 "/>
<polyline fill="none" stroke="black" points="-374.055,-425 -263.945,-425 "/>
<text text-anchor="start" x="-366.055" y="-409.8" font-family="Times,serif" font-size="14.00">_layout</text>
<text text-anchor="start" x="-366.055" y="-395.8" font-family="Times,serif" font-size="14.00">build_params</text>
<text text-anchor="start" x="-366.055" y="-381.8" font-family="Times,serif" font-size="14.00">set_build</text>
</g>
<!-- ClientsController -->
<g id="node6" class="node"><title>ClientsController</title>
<path fill="none" stroke="black" d="M386.393,458C386.393,458 475.607,458 475.607,458 481.607,458 487.607,452 487.607,446 487.607,446 487.607,366 487.607,366 487.607,360 481.607,354 475.607,354 475.607,354 386.393,354 386.393,354 380.393,354 374.393,360 374.393,366 374.393,366 374.393,446 374.393,446 374.393,452 380.393,458 386.393,458"/>
<text text-anchor="middle" x="431" y="369.2" font-family="Times,serif" font-size="14.00">ClientsController</text>
<polyline fill="none" stroke="black" points="374.393,376 487.607,376 "/>
<text text-anchor="start" x="382.393" y="391.2" font-family="Times,serif" font-size="14.00">index</text>
<text text-anchor="start" x="382.393" y="405.2" font-family="Times,serif" font-size="14.00">launch</text>
<polyline fill="none" stroke="black" points="374.393,412 487.607,412 "/>
<polyline fill="none" stroke="black" points="374.393,436 487.607,436 "/>
<text text-anchor="start" x="382.393" y="451.2" font-family="Times,serif" font-size="14.00">_layout</text>
</g>
<!-- ConfigurationsController -->
<g id="node7" class="node"><title>ConfigurationsController</title>
<path fill="none" stroke="black" d="M147.614,135C147.614,135 280.386,135 280.386,135 286.386,135 292.386,129 292.386,123 292.386,123 292.386,-27 292.386,-27 292.386,-33 286.386,-39 280.386,-39 280.386,-39 147.614,-39 147.614,-39 141.614,-39 135.614,-33 135.614,-27 135.614,-27 135.614,123 135.614,123 135.614,129 141.614,135 147.614,135"/>
<text text-anchor="middle" x="214" y="-23.8" font-family="Times,serif" font-size="14.00">ConfigurationsController</text>
<polyline fill="none" stroke="black" points="135.614,-17 292.386,-17 "/>
<text text-anchor="start" x="143.614" y="-1.8" font-family="Times,serif" font-size="14.00">create</text>
<text text-anchor="start" x="143.614" y="12.2" font-family="Times,serif" font-size="14.00">destroy</text>
<text text-anchor="start" x="143.614" y="26.2" font-family="Times,serif" font-size="14.00">index</text>
<text text-anchor="start" x="143.614" y="40.2" font-family="Times,serif" font-size="14.00">show</text>
<text text-anchor="start" x="143.614" y="54.2" font-family="Times,serif" font-size="14.00">update</text>
<polyline fill="none" stroke="black" points="135.614,61 292.386,61 "/>
<polyline fill="none" stroke="black" points="135.614,85 292.386,85 "/>
<text text-anchor="start" x="143.614" y="100.2" font-family="Times,serif" font-size="14.00">_layout</text>
<text text-anchor="start" x="143.614" y="114.2" font-family="Times,serif" font-size="14.00">configuration_params</text>
<text text-anchor="start" x="143.614" y="128.2" font-family="Times,serif" font-size="14.00">set_configuration</text>
</g>
<!-- DependenciesController -->
<g id="node8" class="node"><title>DependenciesController</title>
<path fill="none" stroke="black" d="M-39.0312,-137C-39.0312,-137 89.0312,-137 89.0312,-137 95.0312,-137 101.031,-143 101.031,-149 101.031,-149 101.031,-299 101.031,-299 101.031,-305 95.0312,-311 89.0312,-311 89.0312,-311 -39.0312,-311 -39.0312,-311 -45.0312,-311 -51.0312,-305 -51.0312,-299 -51.0312,-299 -51.0312,-149 -51.0312,-149 -51.0312,-143 -45.0312,-137 -39.0312,-137"/>
<text text-anchor="middle" x="25" y="-295.8" font-family="Times,serif" font-size="14.00">DependenciesController</text>
<polyline fill="none" stroke="black" points="-51.0312,-289 101.031,-289 "/>
<text text-anchor="start" x="-43.0312" y="-273.8" font-family="Times,serif" font-size="14.00">create</text>
<text text-anchor="start" x="-43.0312" y="-259.8" font-family="Times,serif" font-size="14.00">destroy</text>
<text text-anchor="start" x="-43.0312" y="-245.8" font-family="Times,serif" font-size="14.00">index</text>
<text text-anchor="start" x="-43.0312" y="-231.8" font-family="Times,serif" font-size="14.00">show</text>
<text text-anchor="start" x="-43.0312" y="-217.8" font-family="Times,serif" font-size="14.00">update</text>
<polyline fill="none" stroke="black" points="-51.0312,-211 101.031,-211 "/>
<polyline fill="none" stroke="black" points="-51.0312,-187 101.031,-187 "/>
<text text-anchor="start" x="-43.0312" y="-171.8" font-family="Times,serif" font-size="14.00">_layout</text>
<text text-anchor="start" x="-43.0312" y="-157.8" font-family="Times,serif" font-size="14.00">dependency_params</text>
<text text-anchor="start" x="-43.0312" y="-143.8" font-family="Times,serif" font-size="14.00">set_dependency</text>
</g>
<!-- ExposuresController -->
<g id="node9" class="node"><title>ExposuresController</title>
<path fill="none" stroke="black" d="M-259.935,-1C-259.935,-1 -152.065,-1 -152.065,-1 -146.065,-1 -140.065,-7 -140.065,-13 -140.065,-13 -140.065,-163 -140.065,-163 -140.065,-169 -146.065,-175 -152.065,-175 -152.065,-175 -259.935,-175 -259.935,-175 -265.935,-175 -271.935,-169 -271.935,-163 -271.935,-163 -271.935,-13 -271.935,-13 -271.935,-7 -265.935,-1 -259.935,-1"/>
<text text-anchor="middle" x="-206" y="-159.8" font-family="Times,serif" font-size="14.00">ExposuresController</text>
<polyline fill="none" stroke="black" points="-271.935,-153 -140.065,-153 "/>
<text text-anchor="start" x="-263.935" y="-137.8" font-family="Times,serif" font-size="14.00">create</text>
<text text-anchor="start" x="-263.935" y="-123.8" font-family="Times,serif" font-size="14.00">destroy</text>
<text text-anchor="start" x="-263.935" y="-109.8" font-family="Times,serif" font-size="14.00">index</text>
<text text-anchor="start" x="-263.935" y="-95.8" font-family="Times,serif" font-size="14.00">show</text>
<text text-anchor="start" x="-263.935" y="-81.8" font-family="Times,serif" font-size="14.00">update</text>
<polyline fill="none" stroke="black" points="-271.935,-75 -140.065,-75 "/>
<polyline fill="none" stroke="black" points="-271.935,-51 -140.065,-51 "/>
<text text-anchor="start" x="-263.935" y="-35.8" font-family="Times,serif" font-size="14.00">_layout</text>
<text text-anchor="start" x="-263.935" y="-21.8" font-family="Times,serif" font-size="14.00">exposure_params</text>
<text text-anchor="start" x="-263.935" y="-7.8" font-family="Times,serif" font-size="14.00">set_exposure</text>
</g>
<!-- GroupsController -->
<g id="node10" class="node"><title>GroupsController</title>
<path fill="none" stroke="black" d="M-396.383,203C-396.383,203 -305.617,203 -305.617,203 -299.617,203 -293.617,197 -293.617,191 -293.617,191 -293.617,41 -293.617,41 -293.617,35 -299.617,29 -305.617,29 -305.617,29 -396.383,29 -396.383,29 -402.383,29 -408.383,35 -408.383,41 -408.383,41 -408.383,191 -408.383,191 -408.383,197 -402.383,203 -396.383,203"/>
<text text-anchor="middle" x="-351" y="44.2" font-family="Times,serif" font-size="14.00">GroupsController</text>
<polyline fill="none" stroke="black" points="-408.383,51 -293.617,51 "/>
<text text-anchor="start" x="-400.383" y="66.2" font-family="Times,serif" font-size="14.00">create</text>
<text text-anchor="start" x="-400.383" y="80.2" font-family="Times,serif" font-size="14.00">destroy</text>
<text text-anchor="start" x="-400.383" y="94.2" font-family="Times,serif" font-size="14.00">index</text>
<text text-anchor="start" x="-400.383" y="108.2" font-family="Times,serif" font-size="14.00">show</text>
<text text-anchor="start" x="-400.383" y="122.2" font-family="Times,serif" font-size="14.00">update</text>
<polyline fill="none" stroke="black" points="-408.383,129 -293.617,129 "/>
<polyline fill="none" stroke="black" points="-408.383,153 -293.617,153 "/>
<text text-anchor="start" x="-400.383" y="168.2" font-family="Times,serif" font-size="14.00">_layout</text>
<text text-anchor="start" x="-400.383" y="182.2" font-family="Times,serif" font-size="14.00">group_params</text>
<text text-anchor="start" x="-400.383" y="196.2" font-family="Times,serif" font-size="14.00">set_group</text>
</g>
<!-- IdentitiesController -->
<g id="node11" class="node"><title>IdentitiesController</title>
<path fill="none" stroke="black" d="M233.179,441C233.179,441 334.821,441 334.821,441 340.821,441 346.821,435 346.821,429 346.821,429 346.821,363 346.821,363 346.821,357 340.821,351 334.821,351 334.821,351 233.179,351 233.179,351 227.179,351 221.179,357 221.179,363 221.179,363 221.179,429 221.179,429 221.179,435 227.179,441 233.179,441"/>
<text text-anchor="middle" x="284" y="366.2" font-family="Times,serif" font-size="14.00">IdentitiesController</text>
<polyline fill="none" stroke="black" points="221.179,373 346.821,373 "/>
<text text-anchor="start" x="229.179" y="388.2" font-family="Times,serif" font-size="14.00">destroy</text>
<polyline fill="none" stroke="black" points="221.179,395 346.821,395 "/>
<polyline fill="none" stroke="black" points="221.179,419 346.821,419 "/>
<text text-anchor="start" x="229.179" y="434.2" font-family="Times,serif" font-size="14.00">_layout</text>
</g>
<!-- IdentityProvidersController -->
<g id="node12" class="node"><title>IdentityProvidersController</title>
<path fill="none" stroke="black" d="M-413.376,424C-413.376,424 -266.624,424 -266.624,424 -260.624,424 -254.624,418 -254.624,412 -254.624,412 -254.624,344 -254.624,344 -254.624,338 -260.624,332 -266.624,332 -266.624,332 -413.376,332 -413.376,332 -419.376,332 -425.376,338 -425.376,344 -425.376,344 -425.376,412 -425.376,412 -425.376,418 -419.376,424 -413.376,424"/>
<text text-anchor="middle" x="-340" y="347.2" font-family="Times,serif" font-size="14.00">IdentityProvidersController</text>
<polyline fill="none" stroke="black" points="-425.376,354 -254.624,354 "/>
<polyline fill="none" stroke="black" points="-425.376,378 -254.624,378 "/>
<polyline fill="none" stroke="black" points="-425.376,402 -254.624,402 "/>
<text text-anchor="start" x="-417.376" y="417.2" font-family="Times,serif" font-size="14.00">_layout</text>
</g>
<!-- InstancesController -->
<g id="node13" class="node"><title>InstancesController</title>
<path fill="none" stroke="black" d="M284.183,-273C284.183,-273 385.817,-273 385.817,-273 391.817,-273 397.817,-279 397.817,-285 397.817,-285 397.817,-435 397.817,-435 397.817,-441 391.817,-447 385.817,-447 385.817,-447 284.183,-447 284.183,-447 278.183,-447 272.183,-441 272.183,-435 272.183,-435 272.183,-285 272.183,-285 272.183,-279 278.183,-273 284.183,-273"/>
<text text-anchor="middle" x="335" y="-431.8" font-family="Times,serif" font-size="14.00">InstancesController</text>
<polyline fill="none" stroke="black" points="272.183,-425 397.817,-425 "/>
<text text-anchor="start" x="280.183" y="-409.8" font-family="Times,serif" font-size="14.00">create</text>
<text text-anchor="start" x="280.183" y="-395.8" font-family="Times,serif" font-size="14.00">destroy</text>
<text text-anchor="start" x="280.183" y="-381.8" font-family="Times,serif" font-size="14.00">index</text>
<text text-anchor="start" x="280.183" y="-367.8" font-family="Times,serif" font-size="14.00">show</text>
<text text-anchor="start" x="280.183" y="-353.8" font-family="Times,serif" font-size="14.00">update</text>
<polyline fill="none" stroke="black" points="272.183,-347 397.817,-347 "/>
<polyline fill="none" stroke="black" points="272.183,-323 397.817,-323 "/>
<text text-anchor="start" x="280.183" y="-307.8" font-family="Times,serif" font-size="14.00">_layout</text>
<text text-anchor="start" x="280.183" y="-293.8" font-family="Times,serif" font-size="14.00">instance_params</text>
<text text-anchor="start" x="280.183" y="-279.8" font-family="Times,serif" font-size="14.00">set_instance</text>
</g>
<!-- InterfacesController -->
<g id="node14" class="node"><title>InterfacesController</title>
<path fill="none" stroke="black" d="M317.638,-69C317.638,-69 422.362,-69 422.362,-69 428.362,-69 434.362,-75 434.362,-81 434.362,-81 434.362,-231 434.362,-231 434.362,-237 428.362,-243 422.362,-243 422.362,-243 317.638,-243 317.638,-243 311.638,-243 305.638,-237 305.638,-231 305.638,-231 305.638,-81 305.638,-81 305.638,-75 311.638,-69 317.638,-69"/>
<text text-anchor="middle" x="370" y="-227.8" font-family="Times,serif" font-size="14.00">InterfacesController</text>
<polyline fill="none" stroke="black" points="305.638,-221 434.362,-221 "/>
<text text-anchor="start" x="313.638" y="-205.8" font-family="Times,serif" font-size="14.00">create</text>
<text text-anchor="start" x="313.638" y="-191.8" font-family="Times,serif" font-size="14.00">destroy</text>
<text text-anchor="start" x="313.638" y="-177.8" font-family="Times,serif" font-size="14.00">index</text>
<text text-anchor="start" x="313.638" y="-163.8" font-family="Times,serif" font-size="14.00">show</text>
<text text-anchor="start" x="313.638" y="-149.8" font-family="Times,serif" font-size="14.00">update</text>
<polyline fill="none" stroke="black" points="305.638,-143 434.362,-143 "/>
<polyline fill="none" stroke="black" points="305.638,-119 434.362,-119 "/>
<text text-anchor="start" x="313.638" y="-103.8" font-family="Times,serif" font-size="14.00">_layout</text>
<text text-anchor="start" x="313.638" y="-89.8" font-family="Times,serif" font-size="14.00">interface_params</text>
<text text-anchor="start" x="313.638" y="-75.8" font-family="Times,serif" font-size="14.00">set_interface</text>
</g>
<!-- LicensesController -->
<g id="node15" class="node"><title>LicensesController</title>
<path fill="none" stroke="black" d="M334.738,322C334.738,322 433.262,322 433.262,322 439.262,322 445.262,316 445.262,310 445.262,310 445.262,160 445.262,160 445.262,154 439.262,148 433.262,148 433.262,148 334.738,148 334.738,148 328.738,148 322.738,154 322.738,160 322.738,160 322.738,310 322.738,310 322.738,316 328.738,322 334.738,322"/>
<text text-anchor="middle" x="384" y="163.2" font-family="Times,serif" font-size="14.00">LicensesController</text>
<polyline fill="none" stroke="black" points="322.738,170 445.262,170 "/>
<text text-anchor="start" x="330.738" y="185.2" font-family="Times,serif" font-size="14.00">create</text>
<text text-anchor="start" x="330.738" y="199.2" font-family="Times,serif" font-size="14.00">destroy</text>
<text text-anchor="start" x="330.738" y="213.2" font-family="Times,serif" font-size="14.00">index</text>
<text text-anchor="start" x="330.738" y="227.2" font-family="Times,serif" font-size="14.00">show</text>
<text text-anchor="start" x="330.738" y="241.2" font-family="Times,serif" font-size="14.00">update</text>
<polyline fill="none" stroke="black" points="322.738,248 445.262,248 "/>
<polyline fill="none" stroke="black" points="322.738,272 445.262,272 "/>
<text text-anchor="start" x="330.738" y="287.2" font-family="Times,serif" font-size="14.00">_layout</text>
<text text-anchor="start" x="330.738" y="301.2" font-family="Times,serif" font-size="14.00">license_params</text>
<text text-anchor="start" x="330.738" y="315.2" font-family="Times,serif" font-size="14.00">set_license</text>
</g>
<!-- MembersController -->
<g id="node16" class="node"><title>MembersController</title>
<path fill="none" stroke="black" d="M-90.2104,322C-90.2104,322 12.2104,322 12.2104,322 18.2104,322 24.2104,316 24.2104,310 24.2104,310 24.2104,160 24.2104,160 24.2104,154 18.2104,148 12.2104,148 12.2104,148 -90.2104,148 -90.2104,148 -96.2104,148 -102.21,154 -102.21,160 -102.21,160 -102.21,310 -102.21,310 -102.21,316 -96.2104,322 -90.2104,322"/>
<text text-anchor="middle" x="-39" y="163.2" font-family="Times,serif" font-size="14.00">MembersController</text>
<polyline fill="none" stroke="black" points="-102.21,170 24.2104,170 "/>
<text text-anchor="start" x="-94.2104" y="185.2" font-family="Times,serif" font-size="14.00">create</text>
<text text-anchor="start" x="-94.2104" y="199.2" font-family="Times,serif" font-size="14.00">destroy</text>
<text text-anchor="start" x="-94.2104" y="213.2" font-family="Times,serif" font-size="14.00">index</text>
<text text-anchor="start" x="-94.2104" y="227.2" font-family="Times,serif" font-size="14.00">show</text>
<text text-anchor="start" x="-94.2104" y="241.2" font-family="Times,serif" font-size="14.00">update</text>
<polyline fill="none" stroke="black" points="-102.21,248 24.2104,248 "/>
<polyline fill="none" stroke="black" points="-102.21,272 24.2104,272 "/>
<text text-anchor="start" x="-94.2104" y="287.2" font-family="Times,serif" font-size="14.00">_layout</text>
<text text-anchor="start" x="-94.2104" y="301.2" font-family="Times,serif" font-size="14.00">member_params</text>
<text text-anchor="start" x="-94.2104" y="315.2" font-family="Times,serif" font-size="14.00">set_member</text>
</g>
<!-- ParametersController -->
<g id="node17" class="node"><title>ParametersController</title>
<path fill="none" stroke="black" d="M63.1309,339C63.1309,339 174.869,339 174.869,339 180.869,339 186.869,333 186.869,327 186.869,327 186.869,177 186.869,177 186.869,171 180.869,165 174.869,165 174.869,165 63.1309,165 63.1309,165 57.1309,165 51.1309,171 51.1309,177 51.1309,177 51.1309,327 51.1309,327 51.1309,333 57.1309,339 63.1309,339"/>
<text text-anchor="middle" x="119" y="180.2" font-family="Times,serif" font-size="14.00">ParametersController</text>
<polyline fill="none" stroke="black" points="51.1309,187 186.869,187 "/>
<text text-anchor="start" x="59.1309" y="202.2" font-family="Times,serif" font-size="14.00">create</text>
<text text-anchor="start" x="59.1309" y="216.2" font-family="Times,serif" font-size="14.00">destroy</text>
<text text-anchor="start" x="59.1309" y="230.2" font-family="Times,serif" font-size="14.00">index</text>
<text text-anchor="start" x="59.1309" y="244.2" font-family="Times,serif" font-size="14.00">show</text>
<text text-anchor="start" x="59.1309" y="258.2" font-family="Times,serif" font-size="14.00">update</text>
<polyline fill="none" stroke="black" points="51.1309,265 186.869,265 "/>
<polyline fill="none" stroke="black" points="51.1309,289 186.869,289 "/>
<text text-anchor="start" x="59.1309" y="304.2" font-family="Times,serif" font-size="14.00">_layout</text>
<text text-anchor="start" x="59.1309" y="318.2" font-family="Times,serif" font-size="14.00">parameter_params</text>
<text text-anchor="start" x="59.1309" y="332.2" font-family="Times,serif" font-size="14.00">set_parameter</text>
</g>
<!-- PlatformsController -->
<g id="node18" class="node"><title>PlatformsController</title>
<path fill="none" stroke="black" d="M131.007,-341C131.007,-341 234.993,-341 234.993,-341 240.993,-341 246.993,-347 246.993,-353 246.993,-353 246.993,-503 246.993,-503 246.993,-509 240.993,-515 234.993,-515 234.993,-515 131.007,-515 131.007,-515 125.007,-515 119.007,-509 119.007,-503 119.007,-503 119.007,-353 119.007,-353 119.007,-347 125.007,-341 131.007,-341"/>
<text text-anchor="middle" x="183" y="-499.8" font-family="Times,serif" font-size="14.00">PlatformsController</text>
<polyline fill="none" stroke="black" points="119.007,-493 246.993,-493 "/>
<text text-anchor="start" x="127.007" y="-477.8" font-family="Times,serif" font-size="14.00">create</text>
<text text-anchor="start" x="127.007" y="-463.8" font-family="Times,serif" font-size="14.00">destroy</text>
<text text-anchor="start" x="127.007" y="-449.8" font-family="Times,serif" font-size="14.00">index</text>
<text text-anchor="start" x="127.007" y="-435.8" font-family="Times,serif" font-size="14.00">show</text>
<text text-anchor="start" x="127.007" y="-421.8" font-family="Times,serif" font-size="14.00">update</text>
<polyline fill="none" stroke="black" points="119.007,-415 246.993,-415 "/>
<polyline fill="none" stroke="black" points="119.007,-391 246.993,-391 "/>
<text text-anchor="start" x="127.007" y="-375.8" font-family="Times,serif" font-size="14.00">_layout</text>
<text text-anchor="start" x="127.007" y="-361.8" font-family="Times,serif" font-size="14.00">platform_params</text>
<text text-anchor="start" x="127.007" y="-347.8" font-family="Times,serif" font-size="14.00">set_platform</text>
</g>
<!-- RolesController -->
<g id="node19" class="node"><title>RolesController</title>
<path fill="none" stroke="black" d="M437.283,-273C437.283,-273 518.717,-273 518.717,-273 524.717,-273 530.717,-279 530.717,-285 530.717,-285 530.717,-421 530.717,-421 530.717,-427 524.717,-433 518.717,-433 518.717,-433 437.283,-433 437.283,-433 431.283,-433 425.283,-427 425.283,-421 425.283,-421 425.283,-285 425.283,-285 425.283,-279 431.283,-273 437.283,-273"/>
<text text-anchor="middle" x="478" y="-417.8" font-family="Times,serif" font-size="14.00">RolesController</text>
<polyline fill="none" stroke="black" points="425.283,-411 530.717,-411 "/>
<text text-anchor="start" x="433.283" y="-395.8" font-family="Times,serif" font-size="14.00">create</text>
<text text-anchor="start" x="433.283" y="-381.8" font-family="Times,serif" font-size="14.00">destroy</text>
<text text-anchor="start" x="433.283" y="-367.8" font-family="Times,serif" font-size="14.00">index</text>
<text text-anchor="start" x="433.283" y="-353.8" font-family="Times,serif" font-size="14.00">show</text>
<text text-anchor="start" x="433.283" y="-339.8" font-family="Times,serif" font-size="14.00">update</text>
<polyline fill="none" stroke="black" points="425.283,-333 530.717,-333 "/>
<polyline fill="none" stroke="black" points="425.283,-309 530.717,-309 "/>
<text text-anchor="start" x="433.283" y="-293.8" font-family="Times,serif" font-size="14.00">_layout</text>
<text text-anchor="start" x="433.283" y="-279.8" font-family="Times,serif" font-size="14.00">role_params</text>
</g>
<!-- ScreenshotsController -->
<g id="node20" class="node"><title>ScreenshotsController</title>
<path fill="none" stroke="black" d="M147.79,-69C147.79,-69 264.21,-69 264.21,-69 270.21,-69 276.21,-75 276.21,-81 276.21,-81 276.21,-231 276.21,-231 276.21,-237 270.21,-243 264.21,-243 264.21,-243 147.79,-243 147.79,-243 141.79,-243 135.79,-237 135.79,-231 135.79,-231 135.79,-81 135.79,-81 135.79,-75 141.79,-69 147.79,-69"/>
<text text-anchor="middle" x="206" y="-227.8" font-family="Times,serif" font-size="14.00">ScreenshotsController</text>
<polyline fill="none" stroke="black" points="135.79,-221 276.21,-221 "/>
<text text-anchor="start" x="143.79" y="-205.8" font-family="Times,serif" font-size="14.00">create</text>
<text text-anchor="start" x="143.79" y="-191.8" font-family="Times,serif" font-size="14.00">destroy</text>
<text text-anchor="start" x="143.79" y="-177.8" font-family="Times,serif" font-size="14.00">index</text>
<text text-anchor="start" x="143.79" y="-163.8" font-family="Times,serif" font-size="14.00">show</text>
<text text-anchor="start" x="143.79" y="-149.8" font-family="Times,serif" font-size="14.00">update</text>
<polyline fill="none" stroke="black" points="135.79,-143 276.21,-143 "/>
<polyline fill="none" stroke="black" points="135.79,-119 276.21,-119 "/>
<text text-anchor="start" x="143.79" y="-103.8" font-family="Times,serif" font-size="14.00">_layout</text>
<text text-anchor="start" x="143.79" y="-89.8" font-family="Times,serif" font-size="14.00">screenshot_params</text>
<text text-anchor="start" x="143.79" y="-75.8" font-family="Times,serif" font-size="14.00">set_screenshot</text>
</g>
<!-- ServicesController -->
<g id="node21" class="node"><title>ServicesController</title>
<path fill="none" stroke="black" d="M-243.486,203C-243.486,203 -146.514,203 -146.514,203 -140.514,203 -134.514,197 -134.514,191 -134.514,191 -134.514,41 -134.514,41 -134.514,35 -140.514,29 -146.514,29 -146.514,29 -243.486,29 -243.486,29 -249.486,29 -255.486,35 -255.486,41 -255.486,41 -255.486,191 -255.486,191 -255.486,197 -249.486,203 -243.486,203"/>
<text text-anchor="middle" x="-195" y="44.2" font-family="Times,serif" font-size="14.00">ServicesController</text>
<polyline fill="none" stroke="black" points="-255.486,51 -134.514,51 "/>
<text text-anchor="start" x="-247.486" y="66.2" font-family="Times,serif" font-size="14.00">create</text>
<text text-anchor="start" x="-247.486" y="80.2" font-family="Times,serif" font-size="14.00">destroy</text>
<text text-anchor="start" x="-247.486" y="94.2" font-family="Times,serif" font-size="14.00">index</text>
<text text-anchor="start" x="-247.486" y="108.2" font-family="Times,serif" font-size="14.00">show</text>
<text text-anchor="start" x="-247.486" y="122.2" font-family="Times,serif" font-size="14.00">update</text>
<polyline fill="none" stroke="black" points="-255.486,129 -134.514,129 "/>
<polyline fill="none" stroke="black" points="-255.486,153 -134.514,153 "/>
<text text-anchor="start" x="-247.486" y="168.2" font-family="Times,serif" font-size="14.00">_layout</text>
<text text-anchor="start" x="-247.486" y="182.2" font-family="Times,serif" font-size="14.00">service_params</text>
<text text-anchor="start" x="-247.486" y="196.2" font-family="Times,serif" font-size="14.00">set_service</text>
</g>
<!-- SessionsController -->
<g id="node22" class="node"><title>SessionsController</title>
<path fill="none" stroke="black" d="M334.793,118C334.793,118 451.207,118 451.207,118 457.207,118 463.207,112 463.207,106 463.207,106 463.207,-30 463.207,-30 463.207,-36 457.207,-42 451.207,-42 451.207,-42 334.793,-42 334.793,-42 328.793,-42 322.793,-36 322.793,-30 322.793,-30 322.793,106 322.793,106 322.793,112 328.793,118 334.793,118"/>
<text text-anchor="middle" x="393" y="-26.8" font-family="Times,serif" font-size="14.00">SessionsController</text>
<polyline fill="none" stroke="black" points="322.793,-20 463.207,-20 "/>
<text text-anchor="start" x="330.793" y="-4.8" font-family="Times,serif" font-size="14.00">authenticate</text>
<text text-anchor="start" x="330.793" y="9.2" font-family="Times,serif" font-size="14.00">callback</text>
<text text-anchor="start" x="330.793" y="23.2" font-family="Times,serif" font-size="14.00">cleanse_session</text>
<text text-anchor="start" x="330.793" y="37.2" font-family="Times,serif" font-size="14.00">destroy</text>
<text text-anchor="start" x="330.793" y="51.2" font-family="Times,serif" font-size="14.00">openid_connect_login</text>
<text text-anchor="start" x="330.793" y="65.2" font-family="Times,serif" font-size="14.00">public_keys_for</text>
<polyline fill="none" stroke="black" points="322.793,72 463.207,72 "/>
<polyline fill="none" stroke="black" points="322.793,96 463.207,96 "/>
<text text-anchor="start" x="330.793" y="111.2" font-family="Times,serif" font-size="14.00">_layout</text>
</g>
<!-- Smart::LaunchController -->
<g id="node23" class="node"><title>Smart::LaunchController</title>
<path fill="none" stroke="black" d="M-413.373,-256C-413.373,-256 -280.627,-256 -280.627,-256 -274.627,-256 -268.627,-262 -268.627,-268 -268.627,-268 -268.627,-334 -268.627,-334 -268.627,-340 -274.627,-346 -280.627,-346 -280.627,-346 -413.373,-346 -413.373,-346 -419.373,-346 -425.373,-340 -425.373,-334 -425.373,-334 -425.373,-268 -425.373,-268 -425.373,-262 -419.373,-256 -413.373,-256"/>
<text text-anchor="middle" x="-347" y="-330.8" font-family="Times,serif" font-size="14.00">Smart::LaunchController</text>
<polyline fill="none" stroke="black" points="-425.373,-324 -268.627,-324 "/>
<text text-anchor="start" x="-417.373" y="-308.8" font-family="Times,serif" font-size="14.00">launch</text>
<polyline fill="none" stroke="black" points="-425.373,-302 -268.627,-302 "/>
<polyline fill="none" stroke="black" points="-425.373,-278 -268.627,-278 "/>
<text text-anchor="start" x="-417.373" y="-262.8" font-family="Times,serif" font-size="14.00">_layout</text>
</g>
<!-- SurrogatesController -->
<g id="node24" class="node"><title>SurrogatesController</title>
<path fill="none" stroke="black" d="M-38.7104,-341C-38.7104,-341 70.7104,-341 70.7104,-341 76.7104,-341 82.7104,-347 82.7104,-353 82.7104,-353 82.7104,-503 82.7104,-503 82.7104,-509 76.7104,-515 70.7104,-515 70.7104,-515 -38.7104,-515 -38.7104,-515 -44.7104,-515 -50.7104,-509 -50.7104,-503 -50.7104,-503 -50.7104,-353 -50.7104,-353 -50.7104,-347 -44.7104,-341 -38.7104,-341"/>
<text text-anchor="middle" x="16" y="-499.8" font-family="Times,serif" font-size="14.00">SurrogatesController</text>
<polyline fill="none" stroke="black" points="-50.7104,-493 82.7104,-493 "/>
<text text-anchor="start" x="-42.7104" y="-477.8" font-family="Times,serif" font-size="14.00">create</text>
<text text-anchor="start" x="-42.7104" y="-463.8" font-family="Times,serif" font-size="14.00">destroy</text>
<text text-anchor="start" x="-42.7104" y="-449.8" font-family="Times,serif" font-size="14.00">index</text>
<text text-anchor="start" x="-42.7104" y="-435.8" font-family="Times,serif" font-size="14.00">show</text>
<text text-anchor="start" x="-42.7104" y="-421.8" font-family="Times,serif" font-size="14.00">update</text>
<polyline fill="none" stroke="black" points="-50.7104,-415 82.7104,-415 "/>
<polyline fill="none" stroke="black" points="-50.7104,-391 82.7104,-391 "/>
<text text-anchor="start" x="-42.7104" y="-375.8" font-family="Times,serif" font-size="14.00">_layout</text>
<text text-anchor="start" x="-42.7104" y="-361.8" font-family="Times,serif" font-size="14.00">set_surrogate</text>
<text text-anchor="start" x="-42.7104" y="-347.8" font-family="Times,serif" font-size="14.00">surrogate_params</text>
</g>
<!-- TasksController -->
<g id="node25" class="node"><title>TasksController</title>
<path fill="none" stroke="black" d="M-395.615,-1C-395.615,-1 -314.385,-1 -314.385,-1 -308.385,-1 -302.385,-7 -302.385,-13 -302.385,-13 -302.385,-163 -302.385,-163 -302.385,-169 -308.385,-175 -314.385,-175 -314.385,-175 -395.615,-175 -395.615,-175 -401.615,-175 -407.615,-169 -407.615,-163 -407.615,-163 -407.615,-13 -407.615,-13 -407.615,-7 -401.615,-1 -395.615,-1"/>
<text text-anchor="middle" x="-355" y="-159.8" font-family="Times,serif" font-size="14.00">TasksController</text>
<polyline fill="none" stroke="black" points="-407.615,-153 -302.385,-153 "/>
<text text-anchor="start" x="-399.615" y="-137.8" font-family="Times,serif" font-size="14.00">create</text>
<text text-anchor="start" x="-399.615" y="-123.8" font-family="Times,serif" font-size="14.00">destroy</text>
<text text-anchor="start" x="-399.615" y="-109.8" font-family="Times,serif" font-size="14.00">index</text>
<text text-anchor="start" x="-399.615" y="-95.8" font-family="Times,serif" font-size="14.00">show</text>
<text text-anchor="start" x="-399.615" y="-81.8" font-family="Times,serif" font-size="14.00">update</text>
<polyline fill="none" stroke="black" points="-407.615,-75 -302.385,-75 "/>
<polyline fill="none" stroke="black" points="-407.615,-51 -302.385,-51 "/>
<text text-anchor="start" x="-399.615" y="-35.8" font-family="Times,serif" font-size="14.00">_layout</text>
<text text-anchor="start" x="-399.615" y="-21.8" font-family="Times,serif" font-size="14.00">set_task</text>
<text text-anchor="start" x="-399.615" y="-7.8" font-family="Times,serif" font-size="14.00">task_params</text>
</g>
<!-- UsersController -->
<g id="node26" class="node"><title>UsersController</title>
<path fill="none" stroke="black" d="M-208.714,441C-208.714,441 -127.286,441 -127.286,441 -121.286,441 -115.286,435 -115.286,429 -115.286,429 -115.286,363 -115.286,363 -115.286,357 -121.286,351 -127.286,351 -127.286,351 -208.714,351 -208.714,351 -214.714,351 -220.714,357 -220.714,363 -220.714,363 -220.714,429 -220.714,429 -220.714,435 -214.714,441 -208.714,441"/>
<text text-anchor="middle" x="-168" y="366.2" font-family="Times,serif" font-size="14.00">UsersController</text>
<polyline fill="none" stroke="black" points="-220.714,373 -115.286,373 "/>
<text text-anchor="start" x="-212.714" y="388.2" font-family="Times,serif" font-size="14.00">index</text>
<polyline fill="none" stroke="black" points="-220.714,395 -115.286,395 "/>
<polyline fill="none" stroke="black" points="-220.714,419 -115.286,419 "/>
<text text-anchor="start" x="-212.714" y="434.2" font-family="Times,serif" font-size="14.00">_layout</text>
</g>
<!-- WelcomeController -->
<g id="node27" class="node"><title>WelcomeController</title>
<path fill="none" stroke="black" d="M470.967,-460C470.967,-460 573.033,-460 573.033,-460 579.033,-460 585.033,-466 585.033,-472 585.033,-472 585.033,-566 585.033,-566 585.033,-572 579.033,-578 573.033,-578 573.033,-578 470.967,-578 470.967,-578 464.967,-578 458.967,-572 458.967,-566 458.967,-566 458.967,-472 458.967,-472 458.967,-466 464.967,-460 470.967,-460"/>
<text text-anchor="middle" x="522" y="-562.8" font-family="Times,serif" font-size="14.00">WelcomeController</text>
<polyline fill="none" stroke="black" points="458.967,-556 585.033,-556 "/>
<text text-anchor="start" x="466.967" y="-540.8" font-family="Times,serif" font-size="14.00">dashboard</text>
<text text-anchor="start" x="466.967" y="-526.8" font-family="Times,serif" font-size="14.00">landing</text>
<text text-anchor="start" x="466.967" y="-512.8" font-family="Times,serif" font-size="14.00">status</text>
<polyline fill="none" stroke="black" points="458.967,-506 585.033,-506 "/>
<polyline fill="none" stroke="black" points="458.967,-482 585.033,-482 "/>
<text text-anchor="start" x="466.967" y="-466.8" font-family="Times,serif" font-size="14.00">_layout</text>
</g>
</g>
</svg>
