<?xml version="1.0" encoding="UTF-8" standalone="no"?>
<!DOCTYPE svg PUBLIC "-//W3C//DTD SVG 1.1//EN"
 "http://www.w3.org/Graphics/SVG/1.1/DTD/svg11.dtd">
<!-- Generated by graphviz version 2.40.1 (20161225.0304)
 -->
<!-- Title: controllers_diagram Pages: 1 -->
<svg width="1036pt" height="1073pt"
 viewBox="0.00 0.00 1036.10 1073.00" xmlns="http://www.w3.org/2000/svg" xmlns:xlink="http://www.w3.org/1999/xlink">
<g id="graph0" class="graph" transform="scale(1 1) rotate(0) translate(4 1069)">
<title>controllers_diagram</title>
<polygon fill="transparent" stroke="transparent" points="-4,4 -4,-1069 1032.1035,-1069 1032.1035,4 -4,4"/>
<!-- _diagram_info -->
<g id="node1" class="node">
<title>_diagram_info</title>
<text text-anchor="start" x="127" y="-211.6" font-family="Times,serif" font-size="13.00" fill="#000000">Controllers diagram</text>
<text text-anchor="start" x="127" y="-198.6" font-family="Times,serif" font-size="13.00" fill="#000000">Date: Jan 19 2017 &#45; 14:19</text>
<text text-anchor="start" x="127" y="-185.6" font-family="Times,serif" font-size="13.00" fill="#000000">Migration version: 20170119211552</text>
<text text-anchor="start" x="127" y="-172.6" font-family="Times,serif" font-size="13.00" fill="#000000">Generated by RailRoady 1.5.2</text>
<text text-anchor="start" x="127" y="-159.6" font-family="Times,serif" font-size="13.00" fill="#000000">http://railroady.prestonlee.com</text>
</g>
<!-- ApplicationController -->
<g id="node2" class="node">
<title>ApplicationController</title>
<path fill="none" stroke="#000000" d="M369,-340.5C369,-340.5 546.0352,-340.5 546.0352,-340.5 552.0352,-340.5 558.0352,-346.5 558.0352,-352.5 558.0352,-352.5 558.0352,-544.5 558.0352,-544.5 558.0352,-550.5 552.0352,-556.5 546.0352,-556.5 546.0352,-556.5 369,-556.5 369,-556.5 363,-556.5 357,-550.5 357,-544.5 357,-544.5 357,-352.5 357,-352.5 357,-346.5 363,-340.5 369,-340.5"/>
<text text-anchor="middle" x="457.5176" y="-541.3" font-family="Times,serif" font-size="14.00" fill="#000000">ApplicationController</text>
<polyline fill="none" stroke="#000000" points="357,-534.5 558.0352,-534.5 "/>
<text text-anchor="start" x="365" y="-519.3" font-family="Times,serif" font-size="14.00" fill="#000000">unauthenticate!</text>
<text text-anchor="start" x="365" y="-505.3" font-family="Times,serif" font-size="14.00" fill="#000000">cors_preflight_check</text>
<text text-anchor="start" x="365" y="-491.3" font-family="Times,serif" font-size="14.00" fill="#000000">cors_set_access_control_headers</text>
<text text-anchor="start" x="365" y="-477.3" font-family="Times,serif" font-size="14.00" fill="#000000">current_user</text>
<text text-anchor="start" x="365" y="-463.3" font-family="Times,serif" font-size="14.00" fill="#000000">new_nonce</text>
<text text-anchor="start" x="365" y="-449.3" font-family="Times,serif" font-size="14.00" fill="#000000">redirect_to_identity_provider</text>
<text text-anchor="start" x="365" y="-435.3" font-family="Times,serif" font-size="14.00" fill="#000000">set_identity_from_session!</text>
<text text-anchor="start" x="365" y="-421.3" font-family="Times,serif" font-size="14.00" fill="#000000">set_options_from</text>
<text text-anchor="start" x="365" y="-407.3" font-family="Times,serif" font-size="14.00" fill="#000000">stored_nonce</text>
<text text-anchor="start" x="365" y="-393.3" font-family="Times,serif" font-size="14.00" fill="#000000">build_oauth_request</text>
<polyline fill="none" stroke="#000000" points="357,-386.5 558.0352,-386.5 "/>
<polyline fill="none" stroke="#000000" points="357,-362.5 558.0352,-362.5 "/>
<text text-anchor="start" x="365" y="-347.3" font-family="Times,serif" font-size="14.00" fill="#000000">_layout</text>
</g>
<!-- AppointmentsController -->
<g id="node3" class="node">
<title>AppointmentsController</title>
<path fill="none" stroke="#000000" d="M743,-731.5C743,-731.5 871.876,-731.5 871.876,-731.5 877.876,-731.5 883.876,-737.5 883.876,-743.5 883.876,-743.5 883.876,-893.5 883.876,-893.5 883.876,-899.5 877.876,-905.5 871.876,-905.5 871.876,-905.5 743,-905.5 743,-905.5 737,-905.5 731,-899.5 731,-893.5 731,-893.5 731,-743.5 731,-743.5 731,-737.5 737,-731.5 743,-731.5"/>
<text text-anchor="middle" x="807.438" y="-890.3" font-family="Times,serif" font-size="14.00" fill="#000000">AppointmentsController</text>
<polyline fill="none" stroke="#000000" points="731,-883.5 883.876,-883.5 "/>
<text text-anchor="start" x="739" y="-868.3" font-family="Times,serif" font-size="14.00" fill="#000000">create</text>
<text text-anchor="start" x="739" y="-854.3" font-family="Times,serif" font-size="14.00" fill="#000000">destroy</text>
<text text-anchor="start" x="739" y="-840.3" font-family="Times,serif" font-size="14.00" fill="#000000">index</text>
<text text-anchor="start" x="739" y="-826.3" font-family="Times,serif" font-size="14.00" fill="#000000">show</text>
<text text-anchor="start" x="739" y="-812.3" font-family="Times,serif" font-size="14.00" fill="#000000">update</text>
<polyline fill="none" stroke="#000000" points="731,-805.5 883.876,-805.5 "/>
<polyline fill="none" stroke="#000000" points="731,-781.5 883.876,-781.5 "/>
<text text-anchor="start" x="739" y="-766.3" font-family="Times,serif" font-size="14.00" fill="#000000">_layout</text>
<text text-anchor="start" x="739" y="-752.3" font-family="Times,serif" font-size="14.00" fill="#000000">appointment_params</text>
<text text-anchor="start" x="739" y="-738.3" font-family="Times,serif" font-size="14.00" fill="#000000">set_appointment</text>
</g>
<!-- AssetsController -->
<g id="node4" class="node">
<title>AssetsController</title>
<path fill="none" stroke="#000000" d="M930,-918.5C930,-918.5 1016.1035,-918.5 1016.1035,-918.5 1022.1035,-918.5 1028.1035,-924.5 1028.1035,-930.5 1028.1035,-930.5 1028.1035,-1052.5 1028.1035,-1052.5 1028.1035,-1058.5 1022.1035,-1064.5 1016.1035,-1064.5 1016.1035,-1064.5 930,-1064.5 930,-1064.5 924,-1064.5 918,-1058.5 918,-1052.5 918,-1052.5 918,-930.5 918,-930.5 918,-924.5 924,-918.5 930,-918.5"/>
<text text-anchor="middle" x="973.0518" y="-1049.3" font-family="Times,serif" font-size="14.00" fill="#000000">AssetsController</text>
<polyline fill="none" stroke="#000000" points="918,-1042.5 1028.1035,-1042.5 "/>
<text text-anchor="start" x="926" y="-1027.3" font-family="Times,serif" font-size="14.00" fill="#000000">create</text>
<text text-anchor="start" x="926" y="-1013.3" font-family="Times,serif" font-size="14.00" fill="#000000">destroy</text>
<text text-anchor="start" x="926" y="-999.3" font-family="Times,serif" font-size="14.00" fill="#000000">index</text>
<text text-anchor="start" x="926" y="-985.3" font-family="Times,serif" font-size="14.00" fill="#000000">update</text>
<polyline fill="none" stroke="#000000" points="918,-978.5 1028.1035,-978.5 "/>
<polyline fill="none" stroke="#000000" points="918,-954.5 1028.1035,-954.5 "/>
<text text-anchor="start" x="926" y="-939.3" font-family="Times,serif" font-size="14.00" fill="#000000">_layout</text>
<text text-anchor="start" x="926" y="-925.3" font-family="Times,serif" font-size="14.00" fill="#000000">asset_params</text>
</g>
<!-- BuildsController -->
<g id="node5" class="node">
<title>BuildsController</title>
<path fill="none" stroke="#000000" d="M80,-459.5C80,-459.5 166.1104,-459.5 166.1104,-459.5 172.1104,-459.5 178.1104,-465.5 178.1104,-471.5 178.1104,-471.5 178.1104,-621.5 178.1104,-621.5 178.1104,-627.5 172.1104,-633.5 166.1104,-633.5 166.1104,-633.5 80,-633.5 80,-633.5 74,-633.5 68,-627.5 68,-621.5 68,-621.5 68,-471.5 68,-471.5 68,-465.5 74,-459.5 80,-459.5"/>
<text text-anchor="middle" x="123.0552" y="-618.3" font-family="Times,serif" font-size="14.00" fill="#000000">BuildsController</text>
<polyline fill="none" stroke="#000000" points="68,-611.5 178.1104,-611.5 "/>
<text text-anchor="start" x="76" y="-596.3" font-family="Times,serif" font-size="14.00" fill="#000000">create</text>
<text text-anchor="start" x="76" y="-582.3" font-family="Times,serif" font-size="14.00" fill="#000000">destroy</text>
<text text-anchor="start" x="76" y="-568.3" font-family="Times,serif" font-size="14.00" fill="#000000">index</text>
<text text-anchor="start" x="76" y="-554.3" font-family="Times,serif" font-size="14.00" fill="#000000">show</text>
<text text-anchor="start" x="76" y="-540.3" font-family="Times,serif" font-size="14.00" fill="#000000">update</text>
<polyline fill="none" stroke="#000000" points="68,-533.5 178.1104,-533.5 "/>
<polyline fill="none" stroke="#000000" points="68,-509.5 178.1104,-509.5 "/>
<text text-anchor="start" x="76" y="-494.3" font-family="Times,serif" font-size="14.00" fill="#000000">_layout</text>
<text text-anchor="start" x="76" y="-480.3" font-family="Times,serif" font-size="14.00" fill="#000000">build_params</text>
<text text-anchor="start" x="76" y="-466.3" font-family="Times,serif" font-size="14.00" fill="#000000">set_build</text>
</g>
<!-- ClientsController -->
<g id="node6" class="node">
<title>ClientsController</title>
<path fill="none" stroke="#000000" d="M165,-17.5C165,-17.5 254.2139,-17.5 254.2139,-17.5 260.2139,-17.5 266.2139,-23.5 266.2139,-29.5 266.2139,-29.5 266.2139,-109.5 266.2139,-109.5 266.2139,-115.5 260.2139,-121.5 254.2139,-121.5 254.2139,-121.5 165,-121.5 165,-121.5 159,-121.5 153,-115.5 153,-109.5 153,-109.5 153,-29.5 153,-29.5 153,-23.5 159,-17.5 165,-17.5"/>
<text text-anchor="middle" x="209.6069" y="-106.3" font-family="Times,serif" font-size="14.00" fill="#000000">ClientsController</text>
<polyline fill="none" stroke="#000000" points="153,-99.5 266.2139,-99.5 "/>
<text text-anchor="start" x="161" y="-84.3" font-family="Times,serif" font-size="14.00" fill="#000000">index</text>
<text text-anchor="start" x="161" y="-70.3" font-family="Times,serif" font-size="14.00" fill="#000000">launch</text>
<polyline fill="none" stroke="#000000" points="153,-63.5 266.2139,-63.5 "/>
<polyline fill="none" stroke="#000000" points="153,-39.5 266.2139,-39.5 "/>
<text text-anchor="start" x="161" y="-24.3" font-family="Times,serif" font-size="14.00" fill="#000000">_layout</text>
</g>
<!-- ConfigurationsController -->
<g id="node7" class="node">
<title>ConfigurationsController</title>
<path fill="none" stroke="#000000" d="M607,-527.5C607,-527.5 739.7725,-527.5 739.7725,-527.5 745.7725,-527.5 751.7725,-533.5 751.7725,-539.5 751.7725,-539.5 751.7725,-689.5 751.7725,-689.5 751.7725,-695.5 745.7725,-701.5 739.7725,-701.5 739.7725,-701.5 607,-701.5 607,-701.5 601,-701.5 595,-695.5 595,-689.5 595,-689.5 595,-539.5 595,-539.5 595,-533.5 601,-527.5 607,-527.5"/>
<text text-anchor="middle" x="673.3862" y="-686.3" font-family="Times,serif" font-size="14.00" fill="#000000">ConfigurationsController</text>
<polyline fill="none" stroke="#000000" points="595,-679.5 751.7725,-679.5 "/>
<text text-anchor="start" x="603" y="-664.3" font-family="Times,serif" font-size="14.00" fill="#000000">create</text>
<text text-anchor="start" x="603" y="-650.3" font-family="Times,serif" font-size="14.00" fill="#000000">destroy</text>
<text text-anchor="start" x="603" y="-636.3" font-family="Times,serif" font-size="14.00" fill="#000000">index</text>
<text text-anchor="start" x="603" y="-622.3" font-family="Times,serif" font-size="14.00" fill="#000000">show</text>
<text text-anchor="start" x="603" y="-608.3" font-family="Times,serif" font-size="14.00" fill="#000000">update</text>
<polyline fill="none" stroke="#000000" points="595,-601.5 751.7725,-601.5 "/>
<polyline fill="none" stroke="#000000" points="595,-577.5 751.7725,-577.5 "/>
<text text-anchor="start" x="603" y="-562.3" font-family="Times,serif" font-size="14.00" fill="#000000">_layout</text>
<text text-anchor="start" x="603" y="-548.3" font-family="Times,serif" font-size="14.00" fill="#000000">configuration_params</text>
<text text-anchor="start" x="603" y="-534.3" font-family="Times,serif" font-size="14.00" fill="#000000">set_configuration</text>
</g>
<!-- DependenciesController -->
<g id="node8" class="node">
<title>DependenciesController</title>
<path fill="none" stroke="#000000" d="M267,-663.5C267,-663.5 395.0625,-663.5 395.0625,-663.5 401.0625,-663.5 407.0625,-669.5 407.0625,-675.5 407.0625,-675.5 407.0625,-825.5 407.0625,-825.5 407.0625,-831.5 401.0625,-837.5 395.0625,-837.5 395.0625,-837.5 267,-837.5 267,-837.5 261,-837.5 255,-831.5 255,-825.5 255,-825.5 255,-675.5 255,-675.5 255,-669.5 261,-663.5 267,-663.5"/>
<text text-anchor="middle" x="331.0313" y="-822.3" font-family="Times,serif" font-size="14.00" fill="#000000">DependenciesController</text>
<polyline fill="none" stroke="#000000" points="255,-815.5 407.0625,-815.5 "/>
<text text-anchor="start" x="263" y="-800.3" font-family="Times,serif" font-size="14.00" fill="#000000">create</text>
<text text-anchor="start" x="263" y="-786.3" font-family="Times,serif" font-size="14.00" fill="#000000">destroy</text>
<text text-anchor="start" x="263" y="-772.3" font-family="Times,serif" font-size="14.00" fill="#000000">index</text>
<text text-anchor="start" x="263" y="-758.3" font-family="Times,serif" font-size="14.00" fill="#000000">show</text>
<text text-anchor="start" x="263" y="-744.3" font-family="Times,serif" font-size="14.00" fill="#000000">update</text>
<polyline fill="none" stroke="#000000" points="255,-737.5 407.0625,-737.5 "/>
<polyline fill="none" stroke="#000000" points="255,-713.5 407.0625,-713.5 "/>
<text text-anchor="start" x="263" y="-698.3" font-family="Times,serif" font-size="14.00" fill="#000000">_layout</text>
<text text-anchor="start" x="263" y="-684.3" font-family="Times,serif" font-size="14.00" fill="#000000">dependency_params</text>
<text text-anchor="start" x="263" y="-670.3" font-family="Times,serif" font-size="14.00" fill="#000000">set_dependency</text>
</g>
<!-- ExposuresController -->
<g id="node9" class="node">
<title>ExposuresController</title>
<path fill="none" stroke="#000000" d="M97,-833.5C97,-833.5 204.8691,-833.5 204.8691,-833.5 210.8691,-833.5 216.8691,-839.5 216.8691,-845.5 216.8691,-845.5 216.8691,-995.5 216.8691,-995.5 216.8691,-1001.5 210.8691,-1007.5 204.8691,-1007.5 204.8691,-1007.5 97,-1007.5 97,-1007.5 91,-1007.5 85,-1001.5 85,-995.5 85,-995.5 85,-845.5 85,-845.5 85,-839.5 91,-833.5 97,-833.5"/>
<text text-anchor="middle" x="150.9346" y="-992.3" font-family="Times,serif" font-size="14.00" fill="#000000">ExposuresController</text>
<polyline fill="none" stroke="#000000" points="85,-985.5 216.8691,-985.5 "/>
<text text-anchor="start" x="93" y="-970.3" font-family="Times,serif" font-size="14.00" fill="#000000">create</text>
<text text-anchor="start" x="93" y="-956.3" font-family="Times,serif" font-size="14.00" fill="#000000">destroy</text>
<text text-anchor="start" x="93" y="-942.3" font-family="Times,serif" font-size="14.00" fill="#000000">index</text>
<text text-anchor="start" x="93" y="-928.3" font-family="Times,serif" font-size="14.00" fill="#000000">show</text>
<text text-anchor="start" x="93" y="-914.3" font-family="Times,serif" font-size="14.00" fill="#000000">update</text>
<polyline fill="none" stroke="#000000" points="85,-907.5 216.8691,-907.5 "/>
<polyline fill="none" stroke="#000000" points="85,-883.5 216.8691,-883.5 "/>
<text text-anchor="start" x="93" y="-868.3" font-family="Times,serif" font-size="14.00" fill="#000000">_layout</text>
<text text-anchor="start" x="93" y="-854.3" font-family="Times,serif" font-size="14.00" fill="#000000">exposure_params</text>
<text text-anchor="start" x="93" y="-840.3" font-family="Times,serif" font-size="14.00" fill="#000000">set_exposure</text>
</g>
<!-- GroupsController -->
<g id="node10" class="node">
<title>GroupsController</title>
<path fill="none" stroke="#000000" d="M420,-867.5C420,-867.5 510.7656,-867.5 510.7656,-867.5 516.7656,-867.5 522.7656,-873.5 522.7656,-879.5 522.7656,-879.5 522.7656,-1029.5 522.7656,-1029.5 522.7656,-1035.5 516.7656,-1041.5 510.7656,-1041.5 510.7656,-1041.5 420,-1041.5 420,-1041.5 414,-1041.5 408,-1035.5 408,-1029.5 408,-1029.5 408,-879.5 408,-879.5 408,-873.5 414,-867.5 420,-867.5"/>
<text text-anchor="middle" x="465.3828" y="-1026.3" font-family="Times,serif" font-size="14.00" fill="#000000">GroupsController</text>
<polyline fill="none" stroke="#000000" points="408,-1019.5 522.7656,-1019.5 "/>
<text text-anchor="start" x="416" y="-1004.3" font-family="Times,serif" font-size="14.00" fill="#000000">create</text>
<text text-anchor="start" x="416" y="-990.3" font-family="Times,serif" font-size="14.00" fill="#000000">destroy</text>
<text text-anchor="start" x="416" y="-976.3" font-family="Times,serif" font-size="14.00" fill="#000000">index</text>
<text text-anchor="start" x="416" y="-962.3" font-family="Times,serif" font-size="14.00" fill="#000000">show</text>
<text text-anchor="start" x="416" y="-948.3" font-family="Times,serif" font-size="14.00" fill="#000000">update</text>
<polyline fill="none" stroke="#000000" points="408,-941.5 522.7656,-941.5 "/>
<polyline fill="none" stroke="#000000" points="408,-917.5 522.7656,-917.5 "/>
<text text-anchor="start" x="416" y="-902.3" font-family="Times,serif" font-size="14.00" fill="#000000">_layout</text>
<text text-anchor="start" x="416" y="-888.3" font-family="Times,serif" font-size="14.00" fill="#000000">group_params</text>
<text text-anchor="start" x="416" y="-874.3" font-family="Times,serif" font-size="14.00" fill="#000000">set_group</text>
</g>
<!-- IdentitiesController -->
<g id="node11" class="node">
<title>IdentitiesController</title>
<path fill="none" stroke="#000000" d="M318,-17.5C318,-17.5 419.6416,-17.5 419.6416,-17.5 425.6416,-17.5 431.6416,-23.5 431.6416,-29.5 431.6416,-29.5 431.6416,-95.5 431.6416,-95.5 431.6416,-101.5 425.6416,-107.5 419.6416,-107.5 419.6416,-107.5 318,-107.5 318,-107.5 312,-107.5 306,-101.5 306,-95.5 306,-95.5 306,-29.5 306,-29.5 306,-23.5 312,-17.5 318,-17.5"/>
<text text-anchor="middle" x="368.8208" y="-92.3" font-family="Times,serif" font-size="14.00" fill="#000000">IdentitiesController</text>
<polyline fill="none" stroke="#000000" points="306,-85.5 431.6416,-85.5 "/>
<text text-anchor="start" x="314" y="-70.3" font-family="Times,serif" font-size="14.00" fill="#000000">destroy</text>
<polyline fill="none" stroke="#000000" points="306,-63.5 431.6416,-63.5 "/>
<polyline fill="none" stroke="#000000" points="306,-39.5 431.6416,-39.5 "/>
<text text-anchor="start" x="314" y="-24.3" font-family="Times,serif" font-size="14.00" fill="#000000">_layout</text>
</g>
<!-- IdentityProvidersController -->
<g id="node12" class="node">
<title>IdentityProvidersController</title>
<path fill="none" stroke="#000000" d="M607,-323.5C607,-323.5 753.752,-323.5 753.752,-323.5 759.752,-323.5 765.752,-329.5 765.752,-335.5 765.752,-335.5 765.752,-485.5 765.752,-485.5 765.752,-491.5 759.752,-497.5 753.752,-497.5 753.752,-497.5 607,-497.5 607,-497.5 601,-497.5 595,-491.5 595,-485.5 595,-485.5 595,-335.5 595,-335.5 595,-329.5 601,-323.5 607,-323.5"/>
<text text-anchor="middle" x="680.376" y="-482.3" font-family="Times,serif" font-size="14.00" fill="#000000">IdentityProvidersController</text>
<polyline fill="none" stroke="#000000" points="595,-475.5 765.752,-475.5 "/>
<text text-anchor="start" x="603" y="-460.3" font-family="Times,serif" font-size="14.00" fill="#000000">create</text>
<text text-anchor="start" x="603" y="-446.3" font-family="Times,serif" font-size="14.00" fill="#000000">destroy</text>
<text text-anchor="start" x="603" y="-432.3" font-family="Times,serif" font-size="14.00" fill="#000000">index</text>
<text text-anchor="start" x="603" y="-418.3" font-family="Times,serif" font-size="14.00" fill="#000000">redirect</text>
<text text-anchor="start" x="603" y="-404.3" font-family="Times,serif" font-size="14.00" fill="#000000">show</text>
<text text-anchor="start" x="603" y="-390.3" font-family="Times,serif" font-size="14.00" fill="#000000">update</text>
<polyline fill="none" stroke="#000000" points="595,-383.5 765.752,-383.5 "/>
<polyline fill="none" stroke="#000000" points="595,-359.5 765.752,-359.5 "/>
<text text-anchor="start" x="603" y="-344.3" font-family="Times,serif" font-size="14.00" fill="#000000">_layout</text>
<text text-anchor="start" x="603" y="-330.3" font-family="Times,serif" font-size="14.00" fill="#000000">identity_provider_params</text>
</g>
<!-- InstancesController -->
<g id="node13" class="node">
<title>InstancesController</title>
<path fill="none" stroke="#000000" d="M216,-459.5C216,-459.5 317.6348,-459.5 317.6348,-459.5 323.6348,-459.5 329.6348,-465.5 329.6348,-471.5 329.6348,-471.5 329.6348,-621.5 329.6348,-621.5 329.6348,-627.5 323.6348,-633.5 317.6348,-633.5 317.6348,-633.5 216,-633.5 216,-633.5 210,-633.5 204,-627.5 204,-621.5 204,-621.5 204,-471.5 204,-471.5 204,-465.5 210,-459.5 216,-459.5"/>
<text text-anchor="middle" x="266.8174" y="-618.3" font-family="Times,serif" font-size="14.00" fill="#000000">InstancesController</text>
<polyline fill="none" stroke="#000000" points="204,-611.5 329.6348,-611.5 "/>
<text text-anchor="start" x="212" y="-596.3" font-family="Times,serif" font-size="14.00" fill="#000000">create</text>
<text text-anchor="start" x="212" y="-582.3" font-family="Times,serif" font-size="14.00" fill="#000000">destroy</text>
<text text-anchor="start" x="212" y="-568.3" font-family="Times,serif" font-size="14.00" fill="#000000">index</text>
<text text-anchor="start" x="212" y="-554.3" font-family="Times,serif" font-size="14.00" fill="#000000">show</text>
<text text-anchor="start" x="212" y="-540.3" font-family="Times,serif" font-size="14.00" fill="#000000">update</text>
<polyline fill="none" stroke="#000000" points="204,-533.5 329.6348,-533.5 "/>
<polyline fill="none" stroke="#000000" points="204,-509.5 329.6348,-509.5 "/>
<text text-anchor="start" x="212" y="-494.3" font-family="Times,serif" font-size="14.00" fill="#000000">_layout</text>
<text text-anchor="start" x="212" y="-480.3" font-family="Times,serif" font-size="14.00" fill="#000000">instance_params</text>
<text text-anchor="start" x="212" y="-466.3" font-family="Times,serif" font-size="14.00" fill="#000000">set_instance</text>
</g>
<!-- InterfacesController -->
<g id="node14" class="node">
<title>InterfacesController</title>
<path fill="none" stroke="#000000" d="M199,-255.5C199,-255.5 303.7246,-255.5 303.7246,-255.5 309.7246,-255.5 315.7246,-261.5 315.7246,-267.5 315.7246,-267.5 315.7246,-417.5 315.7246,-417.5 315.7246,-423.5 309.7246,-429.5 303.7246,-429.5 303.7246,-429.5 199,-429.5 199,-429.5 193,-429.5 187,-423.5 187,-417.5 187,-417.5 187,-267.5 187,-267.5 187,-261.5 193,-255.5 199,-255.5"/>
<text text-anchor="middle" x="251.3623" y="-414.3" font-family="Times,serif" font-size="14.00" fill="#000000">InterfacesController</text>
<polyline fill="none" stroke="#000000" points="187,-407.5 315.7246,-407.5 "/>
<text text-anchor="start" x="195" y="-392.3" font-family="Times,serif" font-size="14.00" fill="#000000">create</text>
<text text-anchor="start" x="195" y="-378.3" font-family="Times,serif" font-size="14.00" fill="#000000">destroy</text>
<text text-anchor="start" x="195" y="-364.3" font-family="Times,serif" font-size="14.00" fill="#000000">index</text>
<text text-anchor="start" x="195" y="-350.3" font-family="Times,serif" font-size="14.00" fill="#000000">show</text>
<text text-anchor="start" x="195" y="-336.3" font-family="Times,serif" font-size="14.00" fill="#000000">update</text>
<polyline fill="none" stroke="#000000" points="187,-329.5 315.7246,-329.5 "/>
<polyline fill="none" stroke="#000000" points="187,-305.5 315.7246,-305.5 "/>
<text text-anchor="start" x="195" y="-290.3" font-family="Times,serif" font-size="14.00" fill="#000000">_layout</text>
<text text-anchor="start" x="195" y="-276.3" font-family="Times,serif" font-size="14.00" fill="#000000">interface_params</text>
<text text-anchor="start" x="195" y="-262.3" font-family="Times,serif" font-size="14.00" fill="#000000">set_interface</text>
</g>
<!-- LicensesController -->
<g id="node15" class="node">
<title>LicensesController</title>
<path fill="none" stroke="#000000" d="M369,-136.5C369,-136.5 467.5244,-136.5 467.5244,-136.5 473.5244,-136.5 479.5244,-142.5 479.5244,-148.5 479.5244,-148.5 479.5244,-298.5 479.5244,-298.5 479.5244,-304.5 473.5244,-310.5 467.5244,-310.5 467.5244,-310.5 369,-310.5 369,-310.5 363,-310.5 357,-304.5 357,-298.5 357,-298.5 357,-148.5 357,-148.5 357,-142.5 363,-136.5 369,-136.5"/>
<text text-anchor="middle" x="418.2622" y="-295.3" font-family="Times,serif" font-size="14.00" fill="#000000">LicensesController</text>
<polyline fill="none" stroke="#000000" points="357,-288.5 479.5244,-288.5 "/>
<text text-anchor="start" x="365" y="-273.3" font-family="Times,serif" font-size="14.00" fill="#000000">create</text>
<text text-anchor="start" x="365" y="-259.3" font-family="Times,serif" font-size="14.00" fill="#000000">destroy</text>
<text text-anchor="start" x="365" y="-245.3" font-family="Times,serif" font-size="14.00" fill="#000000">index</text>
<text text-anchor="start" x="365" y="-231.3" font-family="Times,serif" font-size="14.00" fill="#000000">show</text>
<text text-anchor="start" x="365" y="-217.3" font-family="Times,serif" font-size="14.00" fill="#000000">update</text>
<polyline fill="none" stroke="#000000" points="357,-210.5 479.5244,-210.5 "/>
<polyline fill="none" stroke="#000000" points="357,-186.5 479.5244,-186.5 "/>
<text text-anchor="start" x="365" y="-171.3" font-family="Times,serif" font-size="14.00" fill="#000000">_layout</text>
<text text-anchor="start" x="365" y="-157.3" font-family="Times,serif" font-size="14.00" fill="#000000">license_params</text>
<text text-anchor="start" x="365" y="-143.3" font-family="Times,serif" font-size="14.00" fill="#000000">set_license</text>
</g>
<!-- MembersController -->
<g id="node16" class="node">
<title>MembersController</title>
<path fill="none" stroke="#000000" d="M522,-119.5C522,-119.5 624.4209,-119.5 624.4209,-119.5 630.4209,-119.5 636.4209,-125.5 636.4209,-131.5 636.4209,-131.5 636.4209,-281.5 636.4209,-281.5 636.4209,-287.5 630.4209,-293.5 624.4209,-293.5 624.4209,-293.5 522,-293.5 522,-293.5 516,-293.5 510,-287.5 510,-281.5 510,-281.5 510,-131.5 510,-131.5 510,-125.5 516,-119.5 522,-119.5"/>
<text text-anchor="middle" x="573.2104" y="-278.3" font-family="Times,serif" font-size="14.00" fill="#000000">MembersController</text>
<polyline fill="none" stroke="#000000" points="510,-271.5 636.4209,-271.5 "/>
<text text-anchor="start" x="518" y="-256.3" font-family="Times,serif" font-size="14.00" fill="#000000">create</text>
<text text-anchor="start" x="518" y="-242.3" font-family="Times,serif" font-size="14.00" fill="#000000">destroy</text>
<text text-anchor="start" x="518" y="-228.3" font-family="Times,serif" font-size="14.00" fill="#000000">index</text>
<text text-anchor="start" x="518" y="-214.3" font-family="Times,serif" font-size="14.00" fill="#000000">show</text>
<text text-anchor="start" x="518" y="-200.3" font-family="Times,serif" font-size="14.00" fill="#000000">update</text>
<polyline fill="none" stroke="#000000" points="510,-193.5 636.4209,-193.5 "/>
<polyline fill="none" stroke="#000000" points="510,-169.5 636.4209,-169.5 "/>
<text text-anchor="start" x="518" y="-154.3" font-family="Times,serif" font-size="14.00" fill="#000000">_layout</text>
<text text-anchor="start" x="518" y="-140.3" font-family="Times,serif" font-size="14.00" fill="#000000">member_params</text>
<text text-anchor="start" x="518" y="-126.3" font-family="Times,serif" font-size="14.00" fill="#000000">set_member</text>
</g>
<!-- ParametersController -->
<g id="node17" class="node">
<title>ParametersController</title>
<path fill="none" stroke="#000000" d="M794,-527.5C794,-527.5 905.7383,-527.5 905.7383,-527.5 911.7383,-527.5 917.7383,-533.5 917.7383,-539.5 917.7383,-539.5 917.7383,-689.5 917.7383,-689.5 917.7383,-695.5 911.7383,-701.5 905.7383,-701.5 905.7383,-701.5 794,-701.5 794,-701.5 788,-701.5 782,-695.5 782,-689.5 782,-689.5 782,-539.5 782,-539.5 782,-533.5 788,-527.5 794,-527.5"/>
<text text-anchor="middle" x="849.8691" y="-686.3" font-family="Times,serif" font-size="14.00" fill="#000000">ParametersController</text>
<polyline fill="none" stroke="#000000" points="782,-679.5 917.7383,-679.5 "/>
<text text-anchor="start" x="790" y="-664.3" font-family="Times,serif" font-size="14.00" fill="#000000">create</text>
<text text-anchor="start" x="790" y="-650.3" font-family="Times,serif" font-size="14.00" fill="#000000">destroy</text>
<text text-anchor="start" x="790" y="-636.3" font-family="Times,serif" font-size="14.00" fill="#000000">index</text>
<text text-anchor="start" x="790" y="-622.3" font-family="Times,serif" font-size="14.00" fill="#000000">show</text>
<text text-anchor="start" x="790" y="-608.3" font-family="Times,serif" font-size="14.00" fill="#000000">update</text>
<polyline fill="none" stroke="#000000" points="782,-601.5 917.7383,-601.5 "/>
<polyline fill="none" stroke="#000000" points="782,-577.5 917.7383,-577.5 "/>
<text text-anchor="start" x="790" y="-562.3" font-family="Times,serif" font-size="14.00" fill="#000000">_layout</text>
<text text-anchor="start" x="790" y="-548.3" font-family="Times,serif" font-size="14.00" fill="#000000">parameter_params</text>
<text text-anchor="start" x="790" y="-534.3" font-family="Times,serif" font-size="14.00" fill="#000000">set_parameter</text>
</g>
<!-- PlatformsController -->
<g id="node18" class="node">
<title>PlatformsController</title>
<path fill="none" stroke="#000000" d="M675,-119.5C675,-119.5 778.9863,-119.5 778.9863,-119.5 784.9863,-119.5 790.9863,-125.5 790.9863,-131.5 790.9863,-131.5 790.9863,-281.5 790.9863,-281.5 790.9863,-287.5 784.9863,-293.5 778.9863,-293.5 778.9863,-293.5 675,-293.5 675,-293.5 669,-293.5 663,-287.5 663,-281.5 663,-281.5 663,-131.5 663,-131.5 663,-125.5 669,-119.5 675,-119.5"/>
<text text-anchor="middle" x="726.9932" y="-278.3" font-family="Times,serif" font-size="14.00" fill="#000000">PlatformsController</text>
<polyline fill="none" stroke="#000000" points="663,-271.5 790.9863,-271.5 "/>
<text text-anchor="start" x="671" y="-256.3" font-family="Times,serif" font-size="14.00" fill="#000000">create</text>
<text text-anchor="start" x="671" y="-242.3" font-family="Times,serif" font-size="14.00" fill="#000000">destroy</text>
<text text-anchor="start" x="671" y="-228.3" font-family="Times,serif" font-size="14.00" fill="#000000">index</text>
<text text-anchor="start" x="671" y="-214.3" font-family="Times,serif" font-size="14.00" fill="#000000">show</text>
<text text-anchor="start" x="671" y="-200.3" font-family="Times,serif" font-size="14.00" fill="#000000">update</text>
<polyline fill="none" stroke="#000000" points="663,-193.5 790.9863,-193.5 "/>
<polyline fill="none" stroke="#000000" points="663,-169.5 790.9863,-169.5 "/>
<text text-anchor="start" x="671" y="-154.3" font-family="Times,serif" font-size="14.00" fill="#000000">_layout</text>
<text text-anchor="start" x="671" y="-140.3" font-family="Times,serif" font-size="14.00" fill="#000000">platform_params</text>
<text text-anchor="start" x="671" y="-126.3" font-family="Times,serif" font-size="14.00" fill="#000000">set_platform</text>
</g>
<!-- RolesController -->
<g id="node19" class="node">
<title>RolesController</title>
<path fill="none" stroke="#000000" d="M930,-731.5C930,-731.5 1011.4346,-731.5 1011.4346,-731.5 1017.4346,-731.5 1023.4346,-737.5 1023.4346,-743.5 1023.4346,-743.5 1023.4346,-879.5 1023.4346,-879.5 1023.4346,-885.5 1017.4346,-891.5 1011.4346,-891.5 1011.4346,-891.5 930,-891.5 930,-891.5 924,-891.5 918,-885.5 918,-879.5 918,-879.5 918,-743.5 918,-743.5 918,-737.5 924,-731.5 930,-731.5"/>
<text text-anchor="middle" x="970.7173" y="-876.3" font-family="Times,serif" font-size="14.00" fill="#000000">RolesController</text>
<polyline fill="none" stroke="#000000" points="918,-869.5 1023.4346,-869.5 "/>
<text text-anchor="start" x="926" y="-854.3" font-family="Times,serif" font-size="14.00" fill="#000000">create</text>
<text text-anchor="start" x="926" y="-840.3" font-family="Times,serif" font-size="14.00" fill="#000000">destroy</text>
<text text-anchor="start" x="926" y="-826.3" font-family="Times,serif" font-size="14.00" fill="#000000">index</text>
<text text-anchor="start" x="926" y="-812.3" font-family="Times,serif" font-size="14.00" fill="#000000">show</text>
<text text-anchor="start" x="926" y="-798.3" font-family="Times,serif" font-size="14.00" fill="#000000">update</text>
<polyline fill="none" stroke="#000000" points="918,-791.5 1023.4346,-791.5 "/>
<polyline fill="none" stroke="#000000" points="918,-767.5 1023.4346,-767.5 "/>
<text text-anchor="start" x="926" y="-752.3" font-family="Times,serif" font-size="14.00" fill="#000000">_layout</text>
<text text-anchor="start" x="926" y="-738.3" font-family="Times,serif" font-size="14.00" fill="#000000">role_params</text>
</g>
<!-- ScreenshotsController -->
<g id="node20" class="node">
<title>ScreenshotsController</title>
<path fill="none" stroke="#000000" d="M811,-323.5C811,-323.5 927.4209,-323.5 927.4209,-323.5 933.4209,-323.5 939.4209,-329.5 939.4209,-335.5 939.4209,-335.5 939.4209,-471.5 939.4209,-471.5 939.4209,-477.5 933.4209,-483.5 927.4209,-483.5 927.4209,-483.5 811,-483.5 811,-483.5 805,-483.5 799,-477.5 799,-471.5 799,-471.5 799,-335.5 799,-335.5 799,-329.5 805,-323.5 811,-323.5"/>
<text text-anchor="middle" x="869.2104" y="-468.3" font-family="Times,serif" font-size="14.00" fill="#000000">ScreenshotsController</text>
<polyline fill="none" stroke="#000000" points="799,-461.5 939.4209,-461.5 "/>
<text text-anchor="start" x="807" y="-446.3" font-family="Times,serif" font-size="14.00" fill="#000000">create</text>
<text text-anchor="start" x="807" y="-432.3" font-family="Times,serif" font-size="14.00" fill="#000000">destroy</text>
<text text-anchor="start" x="807" y="-418.3" font-family="Times,serif" font-size="14.00" fill="#000000">index</text>
<text text-anchor="start" x="807" y="-404.3" font-family="Times,serif" font-size="14.00" fill="#000000">show</text>
<text text-anchor="start" x="807" y="-390.3" font-family="Times,serif" font-size="14.00" fill="#000000">update</text>
<polyline fill="none" stroke="#000000" points="799,-383.5 939.4209,-383.5 "/>
<polyline fill="none" stroke="#000000" points="799,-359.5 939.4209,-359.5 "/>
<text text-anchor="start" x="807" y="-344.3" font-family="Times,serif" font-size="14.00" fill="#000000">_layout</text>
<text text-anchor="start" x="807" y="-330.3" font-family="Times,serif" font-size="14.00" fill="#000000">screenshot_params</text>
</g>
<!-- ServicesController -->
<g id="node21" class="node">
<title>ServicesController</title>
<path fill="none" stroke="#000000" d="M454,-595.5C454,-595.5 550.9727,-595.5 550.9727,-595.5 556.9727,-595.5 562.9727,-601.5 562.9727,-607.5 562.9727,-607.5 562.9727,-771.5 562.9727,-771.5 562.9727,-777.5 556.9727,-783.5 550.9727,-783.5 550.9727,-783.5 454,-783.5 454,-783.5 448,-783.5 442,-777.5 442,-771.5 442,-771.5 442,-607.5 442,-607.5 442,-601.5 448,-595.5 454,-595.5"/>
<text text-anchor="middle" x="502.4863" y="-768.3" font-family="Times,serif" font-size="14.00" fill="#000000">ServicesController</text>
<polyline fill="none" stroke="#000000" points="442,-761.5 562.9727,-761.5 "/>
<text text-anchor="start" x="450" y="-746.3" font-family="Times,serif" font-size="14.00" fill="#000000">create</text>
<text text-anchor="start" x="450" y="-732.3" font-family="Times,serif" font-size="14.00" fill="#000000">destroy</text>
<text text-anchor="start" x="450" y="-718.3" font-family="Times,serif" font-size="14.00" fill="#000000">index</text>
<text text-anchor="start" x="450" y="-704.3" font-family="Times,serif" font-size="14.00" fill="#000000">search</text>
<text text-anchor="start" x="450" y="-690.3" font-family="Times,serif" font-size="14.00" fill="#000000">show</text>
<text text-anchor="start" x="450" y="-676.3" font-family="Times,serif" font-size="14.00" fill="#000000">update</text>
<polyline fill="none" stroke="#000000" points="442,-669.5 562.9727,-669.5 "/>
<polyline fill="none" stroke="#000000" points="442,-645.5 562.9727,-645.5 "/>
<text text-anchor="start" x="450" y="-630.3" font-family="Times,serif" font-size="14.00" fill="#000000">_layout</text>
<text text-anchor="start" x="450" y="-616.3" font-family="Times,serif" font-size="14.00" fill="#000000">service_params</text>
<text text-anchor="start" x="450" y="-602.3" font-family="Times,serif" font-size="14.00" fill="#000000">set_service</text>
</g>
<!-- SessionsController -->
<g id="node22" class="node">
<title>SessionsController</title>
<path fill="none" stroke="#000000" d="M573,-816.5C573,-816.5 689.4141,-816.5 689.4141,-816.5 695.4141,-816.5 701.4141,-822.5 701.4141,-828.5 701.4141,-828.5 701.4141,-964.5 701.4141,-964.5 701.4141,-970.5 695.4141,-976.5 689.4141,-976.5 689.4141,-976.5 573,-976.5 573,-976.5 567,-976.5 561,-970.5 561,-964.5 561,-964.5 561,-828.5 561,-828.5 561,-822.5 567,-816.5 573,-816.5"/>
<text text-anchor="middle" x="631.207" y="-961.3" font-family="Times,serif" font-size="14.00" fill="#000000">SessionsController</text>
<polyline fill="none" stroke="#000000" points="561,-954.5 701.4141,-954.5 "/>
<text text-anchor="start" x="569" y="-939.3" font-family="Times,serif" font-size="14.00" fill="#000000">authenticate</text>
<text text-anchor="start" x="569" y="-925.3" font-family="Times,serif" font-size="14.00" fill="#000000">callback</text>
<text text-anchor="start" x="569" y="-911.3" font-family="Times,serif" font-size="14.00" fill="#000000">cleanse_session</text>
<text text-anchor="start" x="569" y="-897.3" font-family="Times,serif" font-size="14.00" fill="#000000">destroy</text>
<text text-anchor="start" x="569" y="-883.3" font-family="Times,serif" font-size="14.00" fill="#000000">openid_connect_login</text>
<text text-anchor="start" x="569" y="-869.3" font-family="Times,serif" font-size="14.00" fill="#000000">public_keys_for</text>
<polyline fill="none" stroke="#000000" points="561,-862.5 701.4141,-862.5 "/>
<polyline fill="none" stroke="#000000" points="561,-838.5 701.4141,-838.5 "/>
<text text-anchor="start" x="569" y="-823.3" font-family="Times,serif" font-size="14.00" fill="#000000">_layout</text>
</g>
<!-- Smart::LaunchController -->
<g id="node23" class="node">
<title>Smart::LaunchController</title>
<path fill="none" stroke="#000000" d="M80,-714.5C80,-714.5 212.7451,-714.5 212.7451,-714.5 218.7451,-714.5 224.7451,-720.5 224.7451,-726.5 224.7451,-726.5 224.7451,-792.5 224.7451,-792.5 224.7451,-798.5 218.7451,-804.5 212.7451,-804.5 212.7451,-804.5 80,-804.5 80,-804.5 74,-804.5 68,-798.5 68,-792.5 68,-792.5 68,-726.5 68,-726.5 68,-720.5 74,-714.5 80,-714.5"/>
<text text-anchor="middle" x="146.3726" y="-789.3" font-family="Times,serif" font-size="14.00" fill="#000000">Smart::LaunchController</text>
<polyline fill="none" stroke="#000000" points="68,-782.5 224.7451,-782.5 "/>
<text text-anchor="start" x="76" y="-767.3" font-family="Times,serif" font-size="14.00" fill="#000000">launch</text>
<polyline fill="none" stroke="#000000" points="68,-760.5 224.7451,-760.5 "/>
<polyline fill="none" stroke="#000000" points="68,-736.5 224.7451,-736.5 "/>
<text text-anchor="start" x="76" y="-721.3" font-family="Times,serif" font-size="14.00" fill="#000000">_layout</text>
</g>
<!-- SurrogatesController -->
<g id="node24" class="node">
<title>SurrogatesController</title>
<path fill="none" stroke="#000000" d="M828,-102.5C828,-102.5 937.4209,-102.5 937.4209,-102.5 943.4209,-102.5 949.4209,-108.5 949.4209,-114.5 949.4209,-114.5 949.4209,-264.5 949.4209,-264.5 949.4209,-270.5 943.4209,-276.5 937.4209,-276.5 937.4209,-276.5 828,-276.5 828,-276.5 822,-276.5 816,-270.5 816,-264.5 816,-264.5 816,-114.5 816,-114.5 816,-108.5 822,-102.5 828,-102.5"/>
<text text-anchor="middle" x="882.7104" y="-261.3" font-family="Times,serif" font-size="14.00" fill="#000000">SurrogatesController</text>
<polyline fill="none" stroke="#000000" points="816,-254.5 949.4209,-254.5 "/>
<text text-anchor="start" x="824" y="-239.3" font-family="Times,serif" font-size="14.00" fill="#000000">create</text>
<text text-anchor="start" x="824" y="-225.3" font-family="Times,serif" font-size="14.00" fill="#000000">destroy</text>
<text text-anchor="start" x="824" y="-211.3" font-family="Times,serif" font-size="14.00" fill="#000000">index</text>
<text text-anchor="start" x="824" y="-197.3" font-family="Times,serif" font-size="14.00" fill="#000000">show</text>
<text text-anchor="start" x="824" y="-183.3" font-family="Times,serif" font-size="14.00" fill="#000000">update</text>
<polyline fill="none" stroke="#000000" points="816,-176.5 949.4209,-176.5 "/>
<polyline fill="none" stroke="#000000" points="816,-152.5 949.4209,-152.5 "/>
<text text-anchor="start" x="824" y="-137.3" font-family="Times,serif" font-size="14.00" fill="#000000">_layout</text>
<text text-anchor="start" x="824" y="-123.3" font-family="Times,serif" font-size="14.00" fill="#000000">set_surrogate</text>
<text text-anchor="start" x="824" y="-109.3" font-family="Times,serif" font-size="14.00" fill="#000000">surrogate_params</text>
</g>
<!-- TasksController -->
<g id="node25" class="node">
<title>TasksController</title>
<path fill="none" stroke="#000000" d="M63,-255.5C63,-255.5 144.2295,-255.5 144.2295,-255.5 150.2295,-255.5 156.2295,-261.5 156.2295,-267.5 156.2295,-267.5 156.2295,-417.5 156.2295,-417.5 156.2295,-423.5 150.2295,-429.5 144.2295,-429.5 144.2295,-429.5 63,-429.5 63,-429.5 57,-429.5 51,-423.5 51,-417.5 51,-417.5 51,-267.5 51,-267.5 51,-261.5 57,-255.5 63,-255.5"/>
<text text-anchor="middle" x="103.6147" y="-414.3" font-family="Times,serif" font-size="14.00" fill="#000000">TasksController</text>
<polyline fill="none" stroke="#000000" points="51,-407.5 156.2295,-407.5 "/>
<text text-anchor="start" x="59" y="-392.3" font-family="Times,serif" font-size="14.00" fill="#000000">create</text>
<text text-anchor="start" x="59" y="-378.3" font-family="Times,serif" font-size="14.00" fill="#000000">destroy</text>
<text text-anchor="start" x="59" y="-364.3" font-family="Times,serif" font-size="14.00" fill="#000000">index</text>
<text text-anchor="start" x="59" y="-350.3" font-family="Times,serif" font-size="14.00" fill="#000000">show</text>
<text text-anchor="start" x="59" y="-336.3" font-family="Times,serif" font-size="14.00" fill="#000000">update</text>
<polyline fill="none" stroke="#000000" points="51,-329.5 156.2295,-329.5 "/>
<polyline fill="none" stroke="#000000" points="51,-305.5 156.2295,-305.5 "/>
<text text-anchor="start" x="59" y="-290.3" font-family="Times,serif" font-size="14.00" fill="#000000">_layout</text>
<text text-anchor="start" x="59" y="-276.3" font-family="Times,serif" font-size="14.00" fill="#000000">set_task</text>
<text text-anchor="start" x="59" y="-262.3" font-family="Times,serif" font-size="14.00" fill="#000000">task_params</text>
</g>
<!-- UsersController -->
<g id="node26" class="node">
<title>UsersController</title>
<path fill="none" stroke="#000000" d="M284,-867.5C284,-867.5 365.4277,-867.5 365.4277,-867.5 371.4277,-867.5 377.4277,-873.5 377.4277,-879.5 377.4277,-879.5 377.4277,-1029.5 377.4277,-1029.5 377.4277,-1035.5 371.4277,-1041.5 365.4277,-1041.5 365.4277,-1041.5 284,-1041.5 284,-1041.5 278,-1041.5 272,-1035.5 272,-1029.5 272,-1029.5 272,-879.5 272,-879.5 272,-873.5 278,-867.5 284,-867.5"/>
<text text-anchor="middle" x="324.7139" y="-1026.3" font-family="Times,serif" font-size="14.00" fill="#000000">UsersController</text>
<polyline fill="none" stroke="#000000" points="272,-1019.5 377.4277,-1019.5 "/>
<text text-anchor="start" x="280" y="-1004.3" font-family="Times,serif" font-size="14.00" fill="#000000">create</text>
<text text-anchor="start" x="280" y="-990.3" font-family="Times,serif" font-size="14.00" fill="#000000">destroy</text>
<text text-anchor="start" x="280" y="-976.3" font-family="Times,serif" font-size="14.00" fill="#000000">index</text>
<text text-anchor="start" x="280" y="-962.3" font-family="Times,serif" font-size="14.00" fill="#000000">show</text>
<text text-anchor="start" x="280" y="-948.3" font-family="Times,serif" font-size="14.00" fill="#000000">update</text>
<polyline fill="none" stroke="#000000" points="272,-941.5 377.4277,-941.5 "/>
<polyline fill="none" stroke="#000000" points="272,-917.5 377.4277,-917.5 "/>
<text text-anchor="start" x="280" y="-902.3" font-family="Times,serif" font-size="14.00" fill="#000000">_layout</text>
<text text-anchor="start" x="280" y="-888.3" font-family="Times,serif" font-size="14.00" fill="#000000">set_user</text>
<text text-anchor="start" x="280" y="-874.3" font-family="Times,serif" font-size="14.00" fill="#000000">user_params</text>
</g>
<!-- WelcomeController -->
<g id="node27" class="node">
<title>WelcomeController</title>
<path fill="none" stroke="#000000" d="M12,-.5C12,-.5 114.0654,-.5 114.0654,-.5 120.0654,-.5 126.0654,-6.5 126.0654,-12.5 126.0654,-12.5 126.0654,-106.5 126.0654,-106.5 126.0654,-112.5 120.0654,-118.5 114.0654,-118.5 114.0654,-118.5 12,-118.5 12,-118.5 6,-118.5 0,-112.5 0,-106.5 0,-106.5 0,-12.5 0,-12.5 0,-6.5 6,-.5 12,-.5"/>
<text text-anchor="middle" x="63.0327" y="-103.3" font-family="Times,serif" font-size="14.00" fill="#000000">WelcomeController</text>
<polyline fill="none" stroke="#000000" points="0,-96.5 126.0654,-96.5 "/>
<text text-anchor="start" x="8" y="-81.3" font-family="Times,serif" font-size="14.00" fill="#000000">dashboard</text>
<text text-anchor="start" x="8" y="-67.3" font-family="Times,serif" font-size="14.00" fill="#000000">landing</text>
<text text-anchor="start" x="8" y="-53.3" font-family="Times,serif" font-size="14.00" fill="#000000">status</text>
<polyline fill="none" stroke="#000000" points="0,-46.5 126.0654,-46.5 "/>
<polyline fill="none" stroke="#000000" points="0,-22.5 126.0654,-22.5 "/>
<text text-anchor="start" x="8" y="-7.3" font-family="Times,serif" font-size="14.00" fill="#000000">_layout</text>
</g>
</g>
</svg>
