<?xml version="1.0" encoding="UTF-8" standalone="no"?>
<!DOCTYPE svg PUBLIC "-//W3C//DTD SVG 1.1//EN"
 "http://www.w3.org/Graphics/SVG/1.1/DTD/svg11.dtd">
<!-- Generated by graphviz version 2.38.0 (20140413.2041)
 -->
<!-- Title: controllers_diagram Pages: 1 -->
<svg width="767pt" height="677pt"
 viewBox="0.00 0.00 767.43 677.00" xmlns="http://www.w3.org/2000/svg" xmlns:xlink="http://www.w3.org/1999/xlink">
<g id="graph0" class="graph" transform="scale(1 1) rotate(0) translate(326.821 418.5)">
<title>controllers_diagram</title>
<polygon fill="none" stroke="none" points="-326.821,258.5 -326.821,-418.5 440.607,-418.5 440.607,258.5 -326.821,258.5"/>
<!-- _diagram_info -->
<g id="node1" class="node"><title>_diagram_info</title>
<text text-anchor="start" x="-212.72" y="161.9" font-family="Times,serif" font-size="13.00">Controllers diagram</text>
<text text-anchor="start" x="-212.72" y="174.9" font-family="Times,serif" font-size="13.00">Date: Dec 21 2016 &#45; 10:38</text>
<text text-anchor="start" x="-212.72" y="187.9" font-family="Times,serif" font-size="13.00">Migration version: 1</text>
<text text-anchor="start" x="-212.72" y="200.9" font-family="Times,serif" font-size="13.00">Generated by RailRoady 1.5.2</text>
<text text-anchor="start" x="-212.72" y="213.9" font-family="Times,serif" font-size="13.00">http://railroady.prestonlee.com</text>
</g>
<!-- ApplicationController -->
<g id="node2" class="node"><title>ApplicationController</title>
<path fill="none" stroke="black" d="M-89.5176,118C-89.5176,118 87.5176,118 87.5176,118 93.5176,118 99.5176,112 99.5176,106 99.5176,106 99.5176,-86 99.5176,-86 99.5176,-92 93.5176,-98 87.5176,-98 87.5176,-98 -89.5176,-98 -89.5176,-98 -95.5176,-98 -101.518,-92 -101.518,-86 -101.518,-86 -101.518,106 -101.518,106 -101.518,112 -95.5176,118 -89.5176,118"/>
<text text-anchor="middle" x="-1" y="-82.8" font-family="Times,serif" font-size="14.00">ApplicationController</text>
<polyline fill="none" stroke="black" points="-101.518,-76 99.5176,-76 "/>
<text text-anchor="start" x="-93.5176" y="-60.8" font-family="Times,serif" font-size="14.00">unauthenticate!</text>
<text text-anchor="start" x="-93.5176" y="-46.8" font-family="Times,serif" font-size="14.00">build_oauth_request</text>
<text text-anchor="start" x="-93.5176" y="-32.8" font-family="Times,serif" font-size="14.00">cors_preflight_check</text>
<text text-anchor="start" x="-93.5176" y="-18.8" font-family="Times,serif" font-size="14.00">cors_set_access_control_headers</text>
<text text-anchor="start" x="-93.5176" y="-4.8" font-family="Times,serif" font-size="14.00">current_identity</text>
<text text-anchor="start" x="-93.5176" y="9.2" font-family="Times,serif" font-size="14.00">current_user</text>
<text text-anchor="start" x="-93.5176" y="23.2" font-family="Times,serif" font-size="14.00">new_nonce</text>
<text text-anchor="start" x="-93.5176" y="37.2" font-family="Times,serif" font-size="14.00">set_options_from</text>
<text text-anchor="start" x="-93.5176" y="51.2" font-family="Times,serif" font-size="14.00">stored_nonce</text>
<text text-anchor="start" x="-93.5176" y="65.2" font-family="Times,serif" font-size="14.00">authenticate_identity!</text>
<polyline fill="none" stroke="black" points="-101.518,72 99.5176,72 "/>
<polyline fill="none" stroke="black" points="-101.518,96 99.5176,96 "/>
<text text-anchor="start" x="-93.5176" y="111.2" font-family="Times,serif" font-size="14.00">_layout</text>
</g>
<!-- AppointmentsController -->
<g id="node3" class="node"><title>AppointmentsController</title>
<path fill="none" stroke="black" d="M147.562,135C147.562,135 276.438,135 276.438,135 282.438,135 288.438,129 288.438,123 288.438,123 288.438,-55 288.438,-55 288.438,-61 282.438,-67 276.438,-67 276.438,-67 147.562,-67 147.562,-67 141.562,-67 135.562,-61 135.562,-55 135.562,-55 135.562,123 135.562,123 135.562,129 141.562,135 147.562,135"/>
<text text-anchor="middle" x="212" y="-51.8" font-family="Times,serif" font-size="14.00">AppointmentsController</text>
<polyline fill="none" stroke="black" points="135.562,-45 288.438,-45 "/>
<text text-anchor="start" x="143.562" y="-29.8" font-family="Times,serif" font-size="14.00">index</text>
<text text-anchor="start" x="143.562" y="-15.8" font-family="Times,serif" font-size="14.00">destroy</text>
<text text-anchor="start" x="143.562" y="-1.8" font-family="Times,serif" font-size="14.00">edit</text>
<text text-anchor="start" x="143.562" y="12.2" font-family="Times,serif" font-size="14.00">create</text>
<text text-anchor="start" x="143.562" y="26.2" font-family="Times,serif" font-size="14.00">new</text>
<text text-anchor="start" x="143.562" y="40.2" font-family="Times,serif" font-size="14.00">show</text>
<text text-anchor="start" x="143.562" y="54.2" font-family="Times,serif" font-size="14.00">update</text>
<polyline fill="none" stroke="black" points="135.562,61 288.438,61 "/>
<polyline fill="none" stroke="black" points="135.562,85 288.438,85 "/>
<text text-anchor="start" x="143.562" y="100.2" font-family="Times,serif" font-size="14.00">_layout</text>
<text text-anchor="start" x="143.562" y="114.2" font-family="Times,serif" font-size="14.00">appointment_params</text>
<text text-anchor="start" x="143.562" y="128.2" font-family="Times,serif" font-size="14.00">set_appointment</text>
</g>
<!-- AssetsController -->
<g id="node4" class="node"><title>AssetsController</title>
<path fill="none" stroke="black" d="M300.948,-103C300.948,-103 387.052,-103 387.052,-103 393.052,-103 399.052,-109 399.052,-115 399.052,-115 399.052,-237 399.052,-237 399.052,-243 393.052,-249 387.052,-249 387.052,-249 300.948,-249 300.948,-249 294.948,-249 288.948,-243 288.948,-237 288.948,-237 288.948,-115 288.948,-115 288.948,-109 294.948,-103 300.948,-103"/>
<text text-anchor="middle" x="344" y="-233.8" font-family="Times,serif" font-size="14.00">AssetsController</text>
<polyline fill="none" stroke="black" points="288.948,-227 399.052,-227 "/>
<text text-anchor="start" x="296.948" y="-211.8" font-family="Times,serif" font-size="14.00">create</text>
<text text-anchor="start" x="296.948" y="-197.8" font-family="Times,serif" font-size="14.00">destroy</text>
<text text-anchor="start" x="296.948" y="-183.8" font-family="Times,serif" font-size="14.00">index</text>
<text text-anchor="start" x="296.948" y="-169.8" font-family="Times,serif" font-size="14.00">update</text>
<polyline fill="none" stroke="black" points="288.948,-163 399.052,-163 "/>
<polyline fill="none" stroke="black" points="288.948,-139 399.052,-139 "/>
<text text-anchor="start" x="296.948" y="-123.8" font-family="Times,serif" font-size="14.00">_layout</text>
<text text-anchor="start" x="296.948" y="-109.8" font-family="Times,serif" font-size="14.00">asset_params</text>
</g>
<!-- ClientsController -->
<g id="node5" class="node"><title>ClientsController</title>
<path fill="none" stroke="black" d="M335.393,135C335.393,135 424.607,135 424.607,135 430.607,135 436.607,129 436.607,123 436.607,123 436.607,43 436.607,43 436.607,37 430.607,31 424.607,31 424.607,31 335.393,31 335.393,31 329.393,31 323.393,37 323.393,43 323.393,43 323.393,123 323.393,123 323.393,129 329.393,135 335.393,135"/>
<text text-anchor="middle" x="380" y="46.2" font-family="Times,serif" font-size="14.00">ClientsController</text>
<polyline fill="none" stroke="black" points="323.393,53 436.607,53 "/>
<text text-anchor="start" x="331.393" y="68.2" font-family="Times,serif" font-size="14.00">index</text>
<text text-anchor="start" x="331.393" y="82.2" font-family="Times,serif" font-size="14.00">launch</text>
<polyline fill="none" stroke="black" points="323.393,89 436.607,89 "/>
<polyline fill="none" stroke="black" points="323.393,113 436.607,113 "/>
<text text-anchor="start" x="331.393" y="128.2" font-family="Times,serif" font-size="14.00">_layout</text>
</g>
<!-- GroupsController -->
<g id="node6" class="node"><title>GroupsController</title>
<path fill="none" stroke="black" d="M-243.383,67C-243.383,67 -152.617,67 -152.617,67 -146.617,67 -140.617,61 -140.617,55 -140.617,55 -140.617,-123 -140.617,-123 -140.617,-129 -146.617,-135 -152.617,-135 -152.617,-135 -243.383,-135 -243.383,-135 -249.383,-135 -255.383,-129 -255.383,-123 -255.383,-123 -255.383,55 -255.383,55 -255.383,61 -249.383,67 -243.383,67"/>
<text text-anchor="middle" x="-198" y="-119.8" font-family="Times,serif" font-size="14.00">GroupsController</text>
<polyline fill="none" stroke="black" points="-255.383,-113 -140.617,-113 "/>
<text text-anchor="start" x="-247.383" y="-97.8" font-family="Times,serif" font-size="14.00">index</text>
<text text-anchor="start" x="-247.383" y="-83.8" font-family="Times,serif" font-size="14.00">destroy</text>
<text text-anchor="start" x="-247.383" y="-69.8" font-family="Times,serif" font-size="14.00">edit</text>
<text text-anchor="start" x="-247.383" y="-55.8" font-family="Times,serif" font-size="14.00">create</text>
<text text-anchor="start" x="-247.383" y="-41.8" font-family="Times,serif" font-size="14.00">new</text>
<text text-anchor="start" x="-247.383" y="-27.8" font-family="Times,serif" font-size="14.00">show</text>
<text text-anchor="start" x="-247.383" y="-13.8" font-family="Times,serif" font-size="14.00">update</text>
<polyline fill="none" stroke="black" points="-255.383,-7 -140.617,-7 "/>
<polyline fill="none" stroke="black" points="-255.383,17 -140.617,17 "/>
<text text-anchor="start" x="-247.383" y="32.2" font-family="Times,serif" font-size="14.00">_layout</text>
<text text-anchor="start" x="-247.383" y="46.2" font-family="Times,serif" font-size="14.00">group_params</text>
<text text-anchor="start" x="-247.383" y="60.2" font-family="Times,serif" font-size="14.00">set_group</text>
</g>
<!-- IdentitiesController -->
<g id="node7" class="node"><title>IdentitiesController</title>
<path fill="none" stroke="black" d="M-310.821,-324C-310.821,-324 -209.179,-324 -209.179,-324 -203.179,-324 -197.179,-330 -197.179,-336 -197.179,-336 -197.179,-402 -197.179,-402 -197.179,-408 -203.179,-414 -209.179,-414 -209.179,-414 -310.821,-414 -310.821,-414 -316.821,-414 -322.821,-408 -322.821,-402 -322.821,-402 -322.821,-336 -322.821,-336 -322.821,-330 -316.821,-324 -310.821,-324"/>
<text text-anchor="middle" x="-260" y="-398.8" font-family="Times,serif" font-size="14.00">IdentitiesController</text>
<polyline fill="none" stroke="black" points="-322.821,-392 -197.179,-392 "/>
<text text-anchor="start" x="-314.821" y="-376.8" font-family="Times,serif" font-size="14.00">destroy</text>
<polyline fill="none" stroke="black" points="-322.821,-370 -197.179,-370 "/>
<polyline fill="none" stroke="black" points="-322.821,-346 -197.179,-346 "/>
<text text-anchor="start" x="-314.821" y="-330.8" font-family="Times,serif" font-size="14.00">_layout</text>
</g>
<!-- IdentityProvidersController -->
<g id="node8" class="node"><title>IdentityProvidersController</title>
<path fill="none" stroke="black" d="M11.624,254C11.624,254 158.376,254 158.376,254 164.376,254 170.376,248 170.376,242 170.376,242 170.376,174 170.376,174 170.376,168 164.376,162 158.376,162 158.376,162 11.624,162 11.624,162 5.62402,162 -0.375977,168 -0.375977,174 -0.375977,174 -0.375977,242 -0.375977,242 -0.375977,248 5.62402,254 11.624,254"/>
<text text-anchor="middle" x="85" y="177.2" font-family="Times,serif" font-size="14.00">IdentityProvidersController</text>
<polyline fill="none" stroke="black" points="-0.375977,184 170.376,184 "/>
<polyline fill="none" stroke="black" points="-0.375977,208 170.376,208 "/>
<polyline fill="none" stroke="black" points="-0.375977,232 170.376,232 "/>
<text text-anchor="start" x="7.62402" y="247.2" font-family="Times,serif" font-size="14.00">_layout</text>
</g>
<!-- MembersController -->
<g id="node9" class="node"><title>MembersController</title>
<path fill="none" stroke="black" d="M147.79,-103C147.79,-103 250.21,-103 250.21,-103 256.21,-103 262.21,-109 262.21,-115 262.21,-115 262.21,-293 262.21,-293 262.21,-299 256.21,-305 250.21,-305 250.21,-305 147.79,-305 147.79,-305 141.79,-305 135.79,-299 135.79,-293 135.79,-293 135.79,-115 135.79,-115 135.79,-109 141.79,-103 147.79,-103"/>
<text text-anchor="middle" x="199" y="-289.8" font-family="Times,serif" font-size="14.00">MembersController</text>
<polyline fill="none" stroke="black" points="135.79,-283 262.21,-283 "/>
<text text-anchor="start" x="143.79" y="-267.8" font-family="Times,serif" font-size="14.00">index</text>
<text text-anchor="start" x="143.79" y="-253.8" font-family="Times,serif" font-size="14.00">destroy</text>
<text text-anchor="start" x="143.79" y="-239.8" font-family="Times,serif" font-size="14.00">edit</text>
<text text-anchor="start" x="143.79" y="-225.8" font-family="Times,serif" font-size="14.00">create</text>
<text text-anchor="start" x="143.79" y="-211.8" font-family="Times,serif" font-size="14.00">new</text>
<text text-anchor="start" x="143.79" y="-197.8" font-family="Times,serif" font-size="14.00">show</text>
<text text-anchor="start" x="143.79" y="-183.8" font-family="Times,serif" font-size="14.00">update</text>
<polyline fill="none" stroke="black" points="135.79,-177 262.21,-177 "/>
<polyline fill="none" stroke="black" points="135.79,-153 262.21,-153 "/>
<text text-anchor="start" x="143.79" y="-137.8" font-family="Times,serif" font-size="14.00">_layout</text>
<text text-anchor="start" x="143.79" y="-123.8" font-family="Times,serif" font-size="14.00">member_params</text>
<text text-anchor="start" x="143.79" y="-109.8" font-family="Times,serif" font-size="14.00">set_member</text>
</g>
<!-- RolesController -->
<g id="node10" class="node"><title>RolesController</title>
<path fill="none" stroke="black" d="M12.2827,-137C12.2827,-137 93.7173,-137 93.7173,-137 99.7173,-137 105.717,-143 105.717,-149 105.717,-149 105.717,-313 105.717,-313 105.717,-319 99.7173,-325 93.7173,-325 93.7173,-325 12.2827,-325 12.2827,-325 6.28271,-325 0.282715,-319 0.282715,-313 0.282715,-313 0.282715,-149 0.282715,-149 0.282715,-143 6.28271,-137 12.2827,-137"/>
<text text-anchor="middle" x="53" y="-309.8" font-family="Times,serif" font-size="14.00">RolesController</text>
<polyline fill="none" stroke="black" points="0.282715,-303 105.717,-303 "/>
<text text-anchor="start" x="8.28271" y="-287.8" font-family="Times,serif" font-size="14.00">index</text>
<text text-anchor="start" x="8.28271" y="-273.8" font-family="Times,serif" font-size="14.00">destroy</text>
<text text-anchor="start" x="8.28271" y="-259.8" font-family="Times,serif" font-size="14.00">edit</text>
<text text-anchor="start" x="8.28271" y="-245.8" font-family="Times,serif" font-size="14.00">create</text>
<text text-anchor="start" x="8.28271" y="-231.8" font-family="Times,serif" font-size="14.00">new</text>
<text text-anchor="start" x="8.28271" y="-217.8" font-family="Times,serif" font-size="14.00">show</text>
<text text-anchor="start" x="8.28271" y="-203.8" font-family="Times,serif" font-size="14.00">update</text>
<polyline fill="none" stroke="black" points="0.282715,-197 105.717,-197 "/>
<polyline fill="none" stroke="black" points="0.282715,-173 105.717,-173 "/>
<text text-anchor="start" x="8.28271" y="-157.8" font-family="Times,serif" font-size="14.00">_layout</text>
<text text-anchor="start" x="8.28271" y="-143.8" font-family="Times,serif" font-size="14.00">role_params</text>
</g>
<!-- SessionsController -->
<g id="node11" class="node"><title>SessionsController</title>
<path fill="none" stroke="black" d="M-158.207,-171C-158.207,-171 -41.793,-171 -41.793,-171 -35.793,-171 -29.793,-177 -29.793,-183 -29.793,-183 -29.793,-319 -29.793,-319 -29.793,-325 -35.793,-331 -41.793,-331 -41.793,-331 -158.207,-331 -158.207,-331 -164.207,-331 -170.207,-325 -170.207,-319 -170.207,-319 -170.207,-183 -170.207,-183 -170.207,-177 -164.207,-171 -158.207,-171"/>
<text text-anchor="middle" x="-100" y="-315.8" font-family="Times,serif" font-size="14.00">SessionsController</text>
<polyline fill="none" stroke="black" points="-170.207,-309 -29.793,-309 "/>
<text text-anchor="start" x="-162.207" y="-293.8" font-family="Times,serif" font-size="14.00">authenticate</text>
<text text-anchor="start" x="-162.207" y="-279.8" font-family="Times,serif" font-size="14.00">callback</text>
<text text-anchor="start" x="-162.207" y="-265.8" font-family="Times,serif" font-size="14.00">cleanse_session</text>
<text text-anchor="start" x="-162.207" y="-251.8" font-family="Times,serif" font-size="14.00">destroy</text>
<text text-anchor="start" x="-162.207" y="-237.8" font-family="Times,serif" font-size="14.00">openid_connect_login</text>
<text text-anchor="start" x="-162.207" y="-223.8" font-family="Times,serif" font-size="14.00">public_keys_for</text>
<polyline fill="none" stroke="black" points="-170.207,-217 -29.793,-217 "/>
<polyline fill="none" stroke="black" points="-170.207,-193 -29.793,-193 "/>
<text text-anchor="start" x="-162.207" y="-177.8" font-family="Times,serif" font-size="14.00">_layout</text>
</g>
<!-- Smart::LaunchController -->
<g id="node12" class="node"><title>Smart::LaunchController</title>
<path fill="none" stroke="black" d="M215.627,254C215.627,254 348.373,254 348.373,254 354.373,254 360.373,248 360.373,242 360.373,242 360.373,176 360.373,176 360.373,170 354.373,164 348.373,164 348.373,164 215.627,164 215.627,164 209.627,164 203.627,170 203.627,176 203.627,176 203.627,242 203.627,242 203.627,248 209.627,254 215.627,254"/>
<text text-anchor="middle" x="282" y="179.2" font-family="Times,serif" font-size="14.00">Smart::LaunchController</text>
<polyline fill="none" stroke="black" points="203.627,186 360.373,186 "/>
<text text-anchor="start" x="211.627" y="201.2" font-family="Times,serif" font-size="14.00">launch</text>
<polyline fill="none" stroke="black" points="203.627,208 360.373,208 "/>
<polyline fill="none" stroke="black" points="203.627,232 360.373,232 "/>
<text text-anchor="start" x="211.627" y="247.2" font-family="Times,serif" font-size="14.00">_layout</text>
</g>
<!-- UsersController -->
<g id="node13" class="node"><title>UsersController</title>
<path fill="none" stroke="black" d="M-293.714,-205C-293.714,-205 -212.286,-205 -212.286,-205 -206.286,-205 -200.286,-211 -200.286,-217 -200.286,-217 -200.286,-283 -200.286,-283 -200.286,-289 -206.286,-295 -212.286,-295 -212.286,-295 -293.714,-295 -293.714,-295 -299.714,-295 -305.714,-289 -305.714,-283 -305.714,-283 -305.714,-217 -305.714,-217 -305.714,-211 -299.714,-205 -293.714,-205"/>
<text text-anchor="middle" x="-253" y="-279.8" font-family="Times,serif" font-size="14.00">UsersController</text>
<polyline fill="none" stroke="black" points="-305.714,-273 -200.286,-273 "/>
<text text-anchor="start" x="-297.714" y="-257.8" font-family="Times,serif" font-size="14.00">index</text>
<polyline fill="none" stroke="black" points="-305.714,-251 -200.286,-251 "/>
<polyline fill="none" stroke="black" points="-305.714,-227 -200.286,-227 "/>
<text text-anchor="start" x="-297.714" y="-211.8" font-family="Times,serif" font-size="14.00">_layout</text>
</g>
<!-- WelcomeController -->
<g id="node14" class="node"><title>WelcomeController</title>
<path fill="none" stroke="black" d="M300.967,-290C300.967,-290 403.033,-290 403.033,-290 409.033,-290 415.033,-296 415.033,-302 415.033,-302 415.033,-396 415.033,-396 415.033,-402 409.033,-408 403.033,-408 403.033,-408 300.967,-408 300.967,-408 294.967,-408 288.967,-402 288.967,-396 288.967,-396 288.967,-302 288.967,-302 288.967,-296 294.967,-290 300.967,-290"/>
<text text-anchor="middle" x="352" y="-392.8" font-family="Times,serif" font-size="14.00">WelcomeController</text>
<polyline fill="none" stroke="black" points="288.967,-386 415.033,-386 "/>
<text text-anchor="start" x="296.967" y="-370.8" font-family="Times,serif" font-size="14.00">dashboard</text>
<text text-anchor="start" x="296.967" y="-356.8" font-family="Times,serif" font-size="14.00">landing</text>
<text text-anchor="start" x="296.967" y="-342.8" font-family="Times,serif" font-size="14.00">status</text>
<polyline fill="none" stroke="black" points="288.967,-336 415.033,-336 "/>
<polyline fill="none" stroke="black" points="288.967,-312 415.033,-312 "/>
<text text-anchor="start" x="296.967" y="-296.8" font-family="Times,serif" font-size="14.00">_layout</text>
</g>
</g>
</svg>
