<?xml version="1.0" encoding="UTF-8" standalone="no"?>
<!DOCTYPE svg PUBLIC "-//W3C//DTD SVG 1.1//EN"
 "http://www.w3.org/Graphics/SVG/1.1/DTD/svg11.dtd">
<!-- Generated by graphviz version 2.40.1 (20161225.0304)
 -->
<!-- Title: models_diagram Pages: 1 -->
<svg width="1192pt" height="580pt"
 viewBox="0.00 0.00 1192.01 580.00" xmlns="http://www.w3.org/2000/svg" xmlns:xlink="http://www.w3.org/1999/xlink">
<g id="graph0" class="graph" transform="scale(1 1) rotate(0) translate(4 576)">
<title>models_diagram</title>
<polygon fill="transparent" stroke="transparent" points="-4,4 -4,-576 1188.0097,-576 1188.0097,4 -4,4"/>
<!-- _diagram_info -->
<g id="node1" class="node">
<title>_diagram_info</title>
<text text-anchor="start" x="8" y="-557.6" font-family="Times,serif" font-size="13.00" fill="#000000">Models diagram</text>
<text text-anchor="start" x="8" y="-544.6" font-family="Times,serif" font-size="13.00" fill="#000000">Date: Jan 19 2017 &#45; 22:13</text>
<text text-anchor="start" x="8" y="-531.6" font-family="Times,serif" font-size="13.00" fill="#000000">Migration version: 20170119211552</text>
<text text-anchor="start" x="8" y="-518.6" font-family="Times,serif" font-size="13.00" fill="#000000">Generated by RailRoady 1.5.2</text>
<text text-anchor="start" x="8" y="-505.6" font-family="Times,serif" font-size="13.00" fill="#000000">http://railroady.prestonlee.com</text>
</g>
<!-- Ability -->
<g id="node2" class="node">
<title>Ability</title>
<polygon fill="none" stroke="#000000" points="279.8816,-553.5 224.5417,-553.5 224.5417,-517.5 279.8816,-517.5 279.8816,-553.5"/>
<text text-anchor="middle" x="252.2117" y="-531.3" font-family="Times,serif" font-size="14.00" fill="#000000">Ability</text>
</g>
<!-- ApplicationRecord -->
<g id="node3" class="node">
<title>ApplicationRecord</title>
<ellipse fill="none" stroke="#000000" cx="375.2117" cy="-535.5" rx="77.2916" ry="18"/>
<text text-anchor="middle" x="375.2117" y="-531.3" font-family="Times,serif" font-size="14.00" fill="#000000">ApplicationRecord</text>
</g>
<!-- Appointment -->
<g id="node4" class="node">
<title>Appointment</title>
<ellipse fill="none" stroke="#000000" cx="357.2117" cy="-285" rx="56.5545" ry="18"/>
<text text-anchor="middle" x="357.2117" y="-280.8" font-family="Times,serif" font-size="14.00" fill="#000000">Appointment</text>
</g>
<!-- Build -->
<g id="node5" class="node">
<title>Build</title>
<ellipse fill="none" stroke="#000000" cx="559.2117" cy="-177" rx="29.5275" ry="18"/>
<text text-anchor="middle" x="559.2117" y="-172.8" font-family="Times,serif" font-size="14.00" fill="#000000">Build</text>
</g>
<!-- Configuration -->
<g id="node7" class="node">
<title>Configuration</title>
<ellipse fill="none" stroke="#000000" cx="559.2117" cy="-91" rx="59.4773" ry="18"/>
<text text-anchor="middle" x="559.2117" y="-86.8" font-family="Times,serif" font-size="14.00" fill="#000000">Configuration</text>
</g>
<!-- Build&#45;&gt;Configuration -->
<g id="edge4" class="edge">
<title>Build&#45;&gt;Configuration</title>
<path fill="none" stroke="#f906f1" d="M559.2117,-150.4021C559.2117,-140.585 559.2117,-129.4263 559.2117,-119.4515"/>
<ellipse fill="none" stroke="#f906f1" cx="559.2117" cy="-154.7616" rx="4" ry="4"/>
<polygon fill="#f906f1" stroke="#f906f1" points="559.2118,-119.2121 563.7117,-109.2121 559.2117,-114.2121 559.2117,-109.2121 559.2117,-109.2121 559.2117,-109.2121 559.2117,-114.2121 554.7117,-109.2121 559.2118,-119.2121 559.2118,-119.2121"/>
</g>
<!-- Dependency -->
<g id="node8" class="node">
<title>Dependency</title>
<ellipse fill="none" stroke="#000000" cx="691.2117" cy="-91" rx="54.1058" ry="18"/>
<text text-anchor="middle" x="691.2117" y="-86.8" font-family="Times,serif" font-size="14.00" fill="#000000">Dependency</text>
</g>
<!-- Build&#45;&gt;Dependency -->
<g id="edge3" class="edge">
<title>Build&#45;&gt;Dependency</title>
<path fill="none" stroke="#6c112c" d="M586.5111,-159.214C607.3165,-145.659 636.0552,-126.9353 658.1609,-112.5331"/>
<ellipse fill="none" stroke="#6c112c" cx="582.8988" cy="-161.5674" rx="4" ry="4"/>
<polygon fill="#6c112c" stroke="#6c112c" points="658.2008,-112.5071 669.0359,-110.8187 662.3901,-109.7777 666.5794,-107.0483 666.5794,-107.0483 666.5794,-107.0483 662.3901,-109.7777 664.1229,-103.2779 658.2008,-112.5071 658.2008,-112.5071"/>
</g>
<!-- Exposure -->
<g id="node9" class="node">
<title>Exposure</title>
<ellipse fill="none" stroke="#000000" cx="807.2117" cy="-91" rx="43.5146" ry="18"/>
<text text-anchor="middle" x="807.2117" y="-86.8" font-family="Times,serif" font-size="14.00" fill="#000000">Exposure</text>
</g>
<!-- Build&#45;&gt;Exposure -->
<g id="edge2" class="edge">
<title>Build&#45;&gt;Exposure</title>
<path fill="none" stroke="#5b3641" d="M589.8633,-162.4292C592.6673,-161.2251 595.4798,-160.0636 598.2117,-159 666.0582,-132.5843 685.0724,-131.8188 754.2117,-109 757.3492,-107.9645 760.5882,-106.8865 763.8463,-105.7957"/>
<ellipse fill="none" stroke="#5b3641" cx="586.1799" cy="-164.0594" rx="4" ry="4"/>
<polygon fill="#5b3641" stroke="#5b3641" points="764.1185,-105.7041 775.0316,-106.7788 768.8573,-104.109 773.596,-102.5139 773.596,-102.5139 773.596,-102.5139 768.8573,-104.109 772.1605,-98.249 764.1185,-105.7041 764.1185,-105.7041"/>
</g>
<!-- Instance -->
<g id="node13" class="node">
<title>Instance</title>
<ellipse fill="none" stroke="#000000" cx="442.2117" cy="-91" rx="39.6385" ry="18"/>
<text text-anchor="middle" x="442.2117" y="-86.8" font-family="Times,serif" font-size="14.00" fill="#000000">Instance</text>
</g>
<!-- Build&#45;&gt;Instance -->
<g id="edge1" class="edge">
<title>Build&#45;&gt;Instance</title>
<path fill="none" stroke="#9a6d0d" d="M533.6251,-158.1928C515.2502,-144.6865 490.4533,-126.4597 471.3218,-112.3972"/>
<ellipse fill="none" stroke="#9a6d0d" cx="536.9302" cy="-160.6222" rx="4" ry="4"/>
<polygon fill="#9a6d0d" stroke="#9a6d0d" points="471.2972,-112.3792 465.9049,-102.8307 467.2685,-109.4179 463.2397,-106.4565 463.2397,-106.4565 463.2397,-106.4565 467.2685,-109.4179 460.5746,-110.0824 471.2972,-112.3792 471.2972,-112.3792"/>
</g>
<!-- Client -->
<g id="node6" class="node">
<title>Client</title>
<ellipse fill="none" stroke="#000000" cx="574.2117" cy="-535.5" rx="31.948" ry="18"/>
<text text-anchor="middle" x="574.2117" y="-531.3" font-family="Times,serif" font-size="14.00" fill="#000000">Client</text>
</g>
<!-- Task -->
<g id="node25" class="node">
<title>Task</title>
<ellipse fill="none" stroke="#000000" cx="559.2117" cy="-18" rx="27" ry="18"/>
<text text-anchor="middle" x="559.2117" y="-13.8" font-family="Times,serif" font-size="14.00" fill="#000000">Task</text>
</g>
<!-- Configuration&#45;&gt;Task -->
<g id="edge5" class="edge">
<title>Configuration&#45;&gt;Task</title>
<path fill="none" stroke="#094355" d="M559.2117,-64.9079C559.2117,-58.9427 559.2117,-52.5729 559.2117,-46.512"/>
<ellipse fill="none" stroke="#094355" cx="559.2117" cy="-68.9551" rx="4" ry="4"/>
<polygon fill="#094355" stroke="#094355" points="559.2118,-46.0904 563.7117,-36.0903 559.2117,-41.0904 559.2117,-36.0904 559.2117,-36.0904 559.2117,-36.0904 559.2117,-41.0904 554.7117,-36.0904 559.2118,-46.0904 559.2118,-46.0904"/>
</g>
<!-- Parameter -->
<g id="node18" class="node">
<title>Parameter</title>
<ellipse fill="none" stroke="#000000" cx="807.2117" cy="-18" rx="45.9028" ry="18"/>
<text text-anchor="middle" x="807.2117" y="-13.8" font-family="Times,serif" font-size="14.00" fill="#000000">Parameter</text>
</g>
<!-- Exposure&#45;&gt;Parameter -->
<g id="edge6" class="edge">
<title>Exposure&#45;&gt;Parameter</title>
<path fill="none" stroke="#aa5d93" d="M807.2117,-64.9079C807.2117,-58.9427 807.2117,-52.5729 807.2117,-46.512"/>
<ellipse fill="none" stroke="#aa5d93" cx="807.2117" cy="-68.9551" rx="4" ry="4"/>
<polygon fill="#aa5d93" stroke="#aa5d93" points="807.2118,-46.0904 811.7117,-36.0903 807.2117,-41.0904 807.2117,-36.0904 807.2117,-36.0904 807.2117,-36.0904 807.2117,-41.0904 802.7117,-36.0904 807.2118,-46.0904 807.2118,-46.0904"/>
</g>
<!-- Group -->
<g id="node10" class="node">
<title>Group</title>
<ellipse fill="none" stroke="#000000" cx="497.2117" cy="-444" rx="32.9081" ry="18"/>
<text text-anchor="middle" x="497.2117" y="-439.8" font-family="Times,serif" font-size="14.00" fill="#000000">Group</text>
</g>
<!-- Group&#45;&gt;Appointment -->
<g id="edge9" class="edge">
<title>Group&#45;&gt;Appointment</title>
<path fill="none" stroke="#6afd64" d="M477.4445,-421.5502C451.595,-392.1925 406.434,-340.9025 379.4275,-310.2309"/>
<ellipse fill="none" stroke="#6afd64" cx="480.1131" cy="-424.581" rx="4" ry="4"/>
<polygon fill="#6afd64" stroke="#6afd64" points="379.2576,-310.0379 376.0265,-299.5588 375.9534,-306.2852 372.6492,-302.5326 372.6492,-302.5326 372.6492,-302.5326 375.9534,-306.2852 369.2718,-305.5064 379.2576,-310.0379 379.2576,-310.0379"/>
</g>
<!-- Member -->
<g id="node17" class="node">
<title>Member</title>
<ellipse fill="none" stroke="#000000" cx="523.2117" cy="-285" rx="40.1317" ry="18"/>
<text text-anchor="middle" x="523.2117" y="-280.8" font-family="Times,serif" font-size="14.00" fill="#000000">Member</text>
</g>
<!-- Group&#45;&gt;Member -->
<g id="edge7" class="edge">
<title>Group&#45;&gt;Member</title>
<path fill="none" stroke="#11088f" d="M515.0972,-420.4115C529.7169,-399.3363 548.955,-366.9403 555.2117,-335 556.4078,-328.8938 557.4229,-326.816 555.2117,-321 553.5967,-316.7523 551.2254,-312.6857 548.4916,-308.9148"/>
<ellipse fill="none" stroke="#11088f" cx="512.6578" cy="-423.8465" rx="4" ry="4"/>
<polygon fill="#11088f" stroke="#11088f" points="548.4604,-308.8772 545.5461,-298.3056 545.2706,-305.0268 542.0808,-301.1764 542.0808,-301.1764 542.0808,-301.1764 545.2706,-305.0268 538.6155,-304.0472 548.4604,-308.8772 548.4604,-308.8772"/>
</g>
<!-- User -->
<g id="node26" class="node">
<title>User</title>
<ellipse fill="none" stroke="#000000" cx="497.2117" cy="-371" rx="27" ry="18"/>
<text text-anchor="middle" x="497.2117" y="-366.8" font-family="Times,serif" font-size="14.00" fill="#000000">User</text>
</g>
<!-- Group&#45;&gt;User -->
<g id="edge8" class="edge">
<title>Group&#45;&gt;User</title>
<path fill="none" stroke="#454557" d="M497.2117,-415.8688C497.2117,-410.3894 497.2117,-404.6439 497.2117,-399.1634"/>
<polygon fill="#454557" stroke="#454557" points="497.2118,-415.9551 492.7117,-425.955 497.2117,-420.9551 497.2117,-425.9551 497.2117,-425.9551 497.2117,-425.9551 497.2117,-420.9551 501.7117,-425.9551 497.2118,-415.9551 497.2118,-415.9551"/>
<polygon fill="#454557" stroke="#454557" points="497.2118,-399.0904 501.7117,-389.0903 497.2117,-394.0904 497.2117,-389.0904 497.2117,-389.0904 497.2117,-389.0904 497.2117,-394.0904 492.7117,-389.0904 497.2118,-399.0904 497.2118,-399.0904"/>
</g>
<!-- Identity -->
<g id="node11" class="node">
<title>Identity</title>
<ellipse fill="none" stroke="#000000" cx="762.2117" cy="-285" rx="37.7266" ry="18"/>
<text text-anchor="middle" x="762.2117" y="-280.8" font-family="Times,serif" font-size="14.00" fill="#000000">Identity</text>
</g>
<!-- JsonWebToken -->
<g id="node15" class="node">
<title>JsonWebToken</title>
<ellipse fill="none" stroke="#000000" cx="1120.2117" cy="-177" rx="63.5968" ry="18"/>
<text text-anchor="middle" x="1120.2117" y="-172.8" font-family="Times,serif" font-size="14.00" fill="#000000">JsonWebToken</text>
</g>
<!-- Identity&#45;&gt;JsonWebToken -->
<g id="edge11" class="edge">
<title>Identity&#45;&gt;JsonWebToken</title>
<path fill="none" stroke="#3e897e" d="M802.1986,-272.9369C866.8279,-253.4398 994.2931,-214.9866 1066.6822,-193.1486"/>
<ellipse fill="none" stroke="#3e897e" cx="798.1264" cy="-274.1654" rx="4" ry="4"/>
<polygon fill="#3e897e" stroke="#3e897e" points="1066.945,-193.0694 1077.8185,-194.4893 1071.7319,-191.6252 1076.5188,-190.1811 1076.5188,-190.1811 1076.5188,-190.1811 1071.7319,-191.6252 1075.2191,-185.8729 1066.945,-193.0694 1066.945,-193.0694"/>
</g>
<!-- Session -->
<g id="node23" class="node">
<title>Session</title>
<ellipse fill="none" stroke="#000000" cx="760.2117" cy="-177" rx="37.2681" ry="18"/>
<text text-anchor="middle" x="760.2117" y="-172.8" font-family="Times,serif" font-size="14.00" fill="#000000">Session</text>
</g>
<!-- Identity&#45;&gt;Session -->
<g id="edge10" class="edge">
<title>Identity&#45;&gt;Session</title>
<path fill="none" stroke="#0ddf85" d="M761.7243,-258.6801C761.4244,-242.4879 761.0403,-221.7448 760.7342,-205.2145"/>
<ellipse fill="none" stroke="#0ddf85" cx="761.7983" cy="-262.68" rx="4" ry="4"/>
<polygon fill="#0ddf85" stroke="#0ddf85" points="760.7312,-205.0484 765.0452,-194.9668 760.6386,-200.0493 760.5459,-195.0502 760.5459,-195.0502 760.5459,-195.0502 760.6386,-200.0493 756.0467,-195.1335 760.7312,-205.0484 760.7312,-205.0484"/>
</g>
<!-- IdentityProvider -->
<g id="node12" class="node">
<title>IdentityProvider</title>
<ellipse fill="none" stroke="#000000" cx="764.2117" cy="-371" rx="68.1374" ry="18"/>
<text text-anchor="middle" x="764.2117" y="-366.8" font-family="Times,serif" font-size="14.00" fill="#000000">IdentityProvider</text>
</g>
<!-- IdentityProvider&#45;&gt;Identity -->
<g id="edge12" class="edge">
<title>IdentityProvider&#45;&gt;Identity</title>
<path fill="none" stroke="#a8a303" d="M763.5931,-344.4021C763.3648,-334.585 763.1053,-323.4263 762.8733,-313.4515"/>
<ellipse fill="none" stroke="#a8a303" cx="763.6945" cy="-348.7627" rx="4" ry="4"/>
<polygon fill="#a8a303" stroke="#a8a303" points="762.8678,-313.2094 767.134,-303.1074 762.7515,-308.2107 762.6352,-303.2121 762.6352,-303.2121 762.6352,-303.2121 762.7515,-308.2107 758.1364,-303.3168 762.8678,-313.2094 762.8678,-313.2094"/>
</g>
<!-- Interface -->
<g id="node14" class="node">
<title>Interface</title>
<ellipse fill="none" stroke="#000000" cx="857.2117" cy="-177" rx="41.542" ry="18"/>
<text text-anchor="middle" x="857.2117" y="-172.8" font-family="Times,serif" font-size="14.00" fill="#000000">Interface</text>
</g>
<!-- Interface&#45;&gt;Dependency -->
<g id="edge18" class="edge">
<title>Interface&#45;&gt;Dependency</title>
<path fill="none" stroke="#48f52f" d="M823.1709,-159.3644C796.0408,-145.309 758.0492,-125.6267 729.7937,-110.9883"/>
<ellipse fill="none" stroke="#48f52f" cx="826.9892" cy="-161.3426" rx="4" ry="4"/>
<polygon fill="#48f52f" stroke="#48f52f" points="729.4935,-110.8328 722.6844,-102.2371 725.0539,-108.5327 720.6143,-106.2327 720.6143,-106.2327 720.6143,-106.2327 725.0539,-108.5327 718.5443,-110.2283 729.4935,-110.8328 729.4935,-110.8328"/>
</g>
<!-- Interface&#45;&gt;Exposure -->
<g id="edge17" class="edge">
<title>Interface&#45;&gt;Exposure</title>
<path fill="none" stroke="#a540c7" d="M836.2435,-153.9743C832.9861,-149.8183 829.8364,-145.4024 827.2117,-141 823.0838,-134.0763 819.4678,-126.1449 816.4871,-118.6699"/>
<ellipse fill="none" stroke="#a540c7" cx="838.8547" cy="-157.1589" rx="4" ry="4"/>
<polygon fill="#a540c7" stroke="#a540c7" points="816.4579,-118.5919 817.1583,-107.6484 814.7015,-113.9106 812.9451,-109.2292 812.9451,-109.2292 812.9451,-109.2292 814.7015,-113.9106 808.7319,-110.81 816.4579,-118.5919 816.4579,-118.5919"/>
</g>
<!-- Interface&#45;&gt;Interface -->
<g id="edge16" class="edge">
<title>Interface&#45;&gt;Interface</title>
<path fill="none" stroke="#65d365" d="M902.8206,-184.4201C911.0081,-183.4615 916.7327,-180.9881 916.7327,-177 916.7327,-173.3374 911.9046,-170.9524 904.7747,-169.845"/>
<ellipse fill="none" stroke="#65d365" cx="898.6962" cy="-184.6509" rx="4" ry="4"/>
<polygon fill="#65d365" stroke="#65d365" points="904.677,-169.8381 895.0231,-164.6369 899.6898,-169.4818 894.7025,-169.1255 894.7025,-169.1255 894.7025,-169.1255 899.6898,-169.4818 894.3818,-173.614 904.677,-169.8381 904.677,-169.8381"/>
<text text-anchor="middle" x="977.7707" y="-172.8" font-family="Times,serif" font-size="14.00" fill="#000000">substituted_interfaces</text>
</g>
<!-- Surrogate -->
<g id="node24" class="node">
<title>Surrogate</title>
<ellipse fill="none" stroke="#000000" cx="913.2117" cy="-91" rx="44.475" ry="18"/>
<text text-anchor="middle" x="913.2117" y="-86.8" font-family="Times,serif" font-size="14.00" fill="#000000">Surrogate</text>
</g>
<!-- Interface&#45;&gt;Surrogate -->
<g id="edge13" class="edge">
<title>Interface&#45;&gt;Surrogate</title>
<path fill="none" stroke="#570725" d="M847.392,-151.3499C845.8106,-143.1294 845.8667,-134.2785 850.0945,-127 854.7941,-118.9091 862.0689,-112.4846 870.0321,-107.4401"/>
<ellipse fill="none" stroke="#570725" cx="848.4316" cy="-155.4039" rx="4" ry="4"/>
<polygon fill="#570725" stroke="#570725" points="870.1312,-107.3845 881.0545,-106.4194 874.4925,-104.9394 878.8539,-102.4942 878.8539,-102.4942 878.8539,-102.4942 874.4925,-104.9394 876.6532,-98.569 870.1312,-107.3845 870.1312,-107.3845"/>
<text text-anchor="middle" x="878.7703" y="-129.8" font-family="Times,serif" font-size="14.00" fill="#000000">substitutes</text>
</g>
<!-- Interface&#45;&gt;Surrogate -->
<g id="edge14" class="edge">
<title>Interface&#45;&gt;Surrogate</title>
<path fill="none" stroke="#2526d2" d="M892.2736,-159.1612C898.9367,-154.1809 905.1017,-148.1362 909.2117,-141 912.9338,-134.5374 914.6132,-126.8031 915.2,-119.3711"/>
<ellipse fill="none" stroke="#2526d2" cx="888.8048" cy="-161.5311" rx="4" ry="4"/>
<polygon fill="#2526d2" stroke="#2526d2" points="915.2028,-119.2282 919.9004,-109.3195 915.302,-114.2292 915.4013,-109.2301 915.4013,-109.2301 915.4013,-109.2301 915.302,-114.2292 910.9022,-109.1408 915.2028,-119.2282 915.2028,-119.2282"/>
</g>
<!-- SurrogatedInterface -->
<g id="node27" class="node">
<title>SurrogatedInterface</title>
<ellipse fill="none" stroke="#000000" cx="1056.2117" cy="-91" rx="80.1472" ry="18"/>
<text text-anchor="middle" x="1056.2117" y="-86.8" font-family="Times,serif" font-size="14.00" fill="#000000">SurrogatedInterface</text>
</g>
<!-- Interface&#45;&gt;SurrogatedInterface -->
<g id="edge15" class="edge">
<title>Interface&#45;&gt;SurrogatedInterface</title>
<path fill="none" stroke="#82f8a5" d="M896.5804,-159.9864C929.1177,-145.925 975.3821,-125.9314 1009.7347,-111.0855"/>
<polygon fill="#82f8a5" stroke="#82f8a5" points="896.1835,-160.1579 885.2188,-159.9942 891.5937,-162.1414 887.004,-164.1249 887.004,-164.1249 887.004,-164.1249 891.5937,-162.1414 888.7892,-168.2557 896.1835,-160.1579 896.1835,-160.1579"/>
<polygon fill="#82f8a5" stroke="#82f8a5" points="1009.9072,-111.011 1020.8719,-111.1747 1014.4969,-109.0275 1019.0867,-107.044 1019.0867,-107.044 1019.0867,-107.044 1014.4969,-109.0275 1017.3015,-102.9132 1009.9072,-111.011 1009.9072,-111.011"/>
</g>
<!-- License -->
<g id="node16" class="node">
<title>License</title>
<ellipse fill="none" stroke="#000000" cx="640.2117" cy="-371" rx="37.7092" ry="18"/>
<text text-anchor="middle" x="640.2117" y="-366.8" font-family="Times,serif" font-size="14.00" fill="#000000">License</text>
</g>
<!-- Service -->
<g id="node22" class="node">
<title>Service</title>
<ellipse fill="none" stroke="#000000" cx="624.2117" cy="-285" rx="36.7489" ry="18"/>
<text text-anchor="middle" x="624.2117" y="-280.8" font-family="Times,serif" font-size="14.00" fill="#000000">Service</text>
</g>
<!-- License&#45;&gt;Service -->
<g id="edge19" class="edge">
<title>License&#45;&gt;Service</title>
<path fill="none" stroke="#231ce8" d="M635.3342,-344.7834C633.4774,-334.8033 631.3545,-323.3925 629.4644,-313.2334"/>
<ellipse fill="none" stroke="#231ce8" cx="636.0868" cy="-348.8291" rx="4" ry="4"/>
<polygon fill="#231ce8" stroke="#231ce8" points="629.4291,-313.0434 632.0241,-302.389 628.5145,-308.1277 627.6,-303.2121 627.6,-303.2121 627.6,-303.2121 628.5145,-308.1277 623.1759,-304.0352 629.4291,-313.0434 629.4291,-313.0434"/>
</g>
<!-- Platform -->
<g id="node19" class="node">
<title>Platform</title>
<ellipse fill="none" stroke="#000000" cx="442.2117" cy="-231" rx="41.1093" ry="18"/>
<text text-anchor="middle" x="442.2117" y="-226.8" font-family="Times,serif" font-size="14.00" fill="#000000">Platform</text>
</g>
<!-- Platform&#45;&gt;Instance -->
<g id="edge20" class="edge">
<title>Platform&#45;&gt;Instance</title>
<path fill="none" stroke="#9ff4d7" d="M442.2117,-204.892C442.2117,-180.6771 442.2117,-144.7148 442.2117,-119.7025"/>
<ellipse fill="none" stroke="#9ff4d7" cx="442.2117" cy="-208.9841" rx="4" ry="4"/>
<polygon fill="#9ff4d7" stroke="#9ff4d7" points="442.2118,-119.3914 446.7117,-109.3913 442.2117,-114.3914 442.2117,-109.3914 442.2117,-109.3914 442.2117,-109.3914 442.2117,-114.3914 437.7117,-109.3914 442.2118,-119.3914 442.2118,-119.3914"/>
</g>
<!-- Role -->
<g id="node20" class="node">
<title>Role</title>
<ellipse fill="none" stroke="#000000" cx="497.2117" cy="-535.5" rx="27" ry="18"/>
<text text-anchor="middle" x="497.2117" y="-531.3" font-family="Times,serif" font-size="14.00" fill="#000000">Role</text>
</g>
<!-- Role&#45;&gt;Appointment -->
<g id="edge21" class="edge">
<title>Role&#45;&gt;Appointment</title>
<path fill="none" stroke="#1a97db" d="M483.441,-511.5055C475.2204,-497.1558 464.5886,-478.5516 455.2117,-462 436.8694,-429.6233 432.2654,-421.5385 414.2117,-389 399.7451,-362.9266 383.4049,-333.0706 371.9405,-312.0558"/>
<ellipse fill="none" stroke="#1a97db" cx="485.5115" cy="-515.1179" rx="4" ry="4"/>
<polygon fill="#1a97db" stroke="#1a97db" points="371.8272,-311.8478 370.9915,-300.9138 369.4338,-307.4578 367.0405,-303.0678 367.0405,-303.0678 367.0405,-303.0678 369.4338,-307.4578 363.0895,-305.2218 371.8272,-311.8478 371.8272,-311.8478"/>
</g>
<!-- Role&#45;&gt;Group -->
<g id="edge23" class="edge">
<title>Role&#45;&gt;Group</title>
<path fill="none" stroke="#0ce97c" d="M497.2117,-507.2998C497.2117,-496.1245 497.2117,-483.3026 497.2117,-472.1338"/>
<polygon fill="#0ce97c" stroke="#0ce97c" points="497.2118,-507.4225 492.7117,-517.4225 497.2117,-512.4225 497.2117,-517.4225 497.2117,-517.4225 497.2117,-517.4225 497.2117,-512.4225 501.7117,-517.4226 497.2118,-507.4225 497.2118,-507.4225"/>
<polygon fill="#0ce97c" stroke="#0ce97c" points="497.2118,-472.0399 501.7117,-462.0399 497.2117,-467.0399 497.2117,-462.0399 497.2117,-462.0399 497.2117,-462.0399 497.2117,-467.0399 492.7117,-462.0399 497.2118,-472.0399 497.2118,-472.0399"/>
</g>
<!-- Role&#45;&gt;User -->
<g id="edge22" class="edge">
<title>Role&#45;&gt;User</title>
<path fill="none" stroke="#5ba69d" d="M516.538,-511.5598C531.9065,-489.5102 549.2882,-455.7983 539.2117,-426 535.1634,-414.0284 527.351,-402.6091 519.5513,-393.3095"/>
<polygon fill="#5ba69d" stroke="#5ba69d" points="516.4968,-511.6162 506.961,-517.031 513.545,-515.6519 510.5932,-519.6876 510.5932,-519.6876 510.5932,-519.6876 513.545,-515.6519 514.2253,-522.3442 516.4968,-511.6162 516.4968,-511.6162"/>
<polygon fill="#5ba69d" stroke="#5ba69d" points="519.4454,-393.1905 516.156,-382.7296 516.1203,-389.4563 512.7952,-385.7221 512.7952,-385.7221 512.7952,-385.7221 516.1203,-389.4563 509.4345,-388.7147 519.4454,-393.1905 519.4454,-393.1905"/>
</g>
<!-- Screenshot -->
<g id="node21" class="node">
<title>Screenshot</title>
<ellipse fill="none" stroke="#000000" cx="656.2117" cy="-177" rx="48.8187" ry="18"/>
<text text-anchor="middle" x="656.2117" y="-172.8" font-family="Times,serif" font-size="14.00" fill="#000000">Screenshot</text>
</g>
<!-- Service&#45;&gt;Build -->
<g id="edge24" class="edge">
<title>Service&#45;&gt;Build</title>
<path fill="none" stroke="#fbfc45" d="M609.5035,-260.5619C599.0902,-243.2597 585.1544,-220.1048 574.5934,-202.5573"/>
<ellipse fill="none" stroke="#fbfc45" cx="611.7056" cy="-264.2208" rx="4" ry="4"/>
<polygon fill="#fbfc45" stroke="#fbfc45" points="574.5715,-202.5209 573.2704,-191.6324 571.9932,-198.2369 569.4148,-193.9529 569.4148,-193.9529 569.4148,-193.9529 571.9932,-198.2369 565.5593,-196.2734 574.5715,-202.5209 574.5715,-202.5209"/>
</g>
<!-- Service&#45;&gt;Screenshot -->
<g id="edge25" class="edge">
<title>Service&#45;&gt;Screenshot</title>
<path fill="none" stroke="#f3b84c" d="M631.7821,-259.4498C636.6284,-243.0935 642.9189,-221.8631 647.9029,-205.0421"/>
<ellipse fill="none" stroke="#f3b84c" cx="630.6322" cy="-263.3308" rx="4" ry="4"/>
<polygon fill="#f3b84c" stroke="#f3b84c" points="647.9718,-204.8095 655.1273,-196.4999 649.3922,-200.0155 650.8127,-195.2215 650.8127,-195.2215 650.8127,-195.2215 649.3922,-200.0155 646.4981,-193.943 647.9718,-204.8095 647.9718,-204.8095"/>
</g>
<!-- User&#45;&gt;Appointment -->
<g id="edge27" class="edge">
<title>User&#45;&gt;Appointment</title>
<path fill="none" stroke="#5361f2" d="M468.4378,-356.0703C456.7447,-349.8062 443.1926,-342.2926 431.2117,-335 417.1147,-326.4194 401.9479,-316.3306 389.0377,-307.4711"/>
<ellipse fill="none" stroke="#5361f2" cx="472.2857" cy="-358.1146" rx="4" ry="4"/>
<polygon fill="#5361f2" stroke="#5361f2" points="388.7261,-307.2557 383.061,-297.8665 384.6137,-304.4116 380.5014,-301.5676 380.5014,-301.5676 380.5014,-301.5676 384.6137,-304.4116 377.9417,-305.2688 388.7261,-307.2557 388.7261,-307.2557"/>
</g>
<!-- User&#45;&gt;Identity -->
<g id="edge28" class="edge">
<title>User&#45;&gt;Identity</title>
<path fill="none" stroke="#1af9fb" d="M529.47,-360.5313C577.6541,-344.8942 668.3962,-315.4458 721.2169,-298.304"/>
<ellipse fill="none" stroke="#1af9fb" cx="525.4719" cy="-361.8287" rx="4" ry="4"/>
<polygon fill="#1af9fb" stroke="#1af9fb" points="721.4239,-298.2368 732.3247,-299.4302 726.1798,-296.6934 730.9356,-295.15 730.9356,-295.15 730.9356,-295.15 726.1798,-296.6934 729.5465,-290.8697 721.4239,-298.2368 721.4239,-298.2368"/>
</g>
<!-- User&#45;&gt;Member -->
<g id="edge26" class="edge">
<title>User&#45;&gt;Member</title>
<path fill="none" stroke="#b92c8a" d="M479.3409,-348.1036C474.8059,-339.4955 472.2843,-329.6925 476.5564,-321 479.4586,-315.0949 483.8471,-309.8848 488.792,-305.3931"/>
<ellipse fill="none" stroke="#b92c8a" cx="481.447" cy="-351.5814" rx="4" ry="4"/>
<polygon fill="#b92c8a" stroke="#b92c8a" points="489.0723,-305.1692 499.6947,-302.4459 492.9796,-302.0493 496.8868,-298.9294 496.8868,-298.9294 496.8868,-298.9294 492.9796,-302.0493 494.0789,-295.4129 489.0723,-305.1692 489.0723,-305.1692"/>
<text text-anchor="middle" x="513.5393" y="-323.8" font-family="Times,serif" font-size="14.00" fill="#000000">memberships</text>
</g>
<!-- User&#45;&gt;Platform -->
<g id="edge29" class="edge">
<title>User&#45;&gt;Platform</title>
<path fill="none" stroke="#f78e7a" d="M478.5311,-348.7895C475.44,-344.4056 472.5016,-339.7015 470.2117,-335 458.3742,-310.6964 450.9768,-280.6741 446.7799,-259.1437"/>
<ellipse fill="none" stroke="#f78e7a" cx="481.0501" cy="-352.1635" rx="4" ry="4"/>
<polygon fill="#f78e7a" stroke="#f78e7a" points="446.7282,-258.862 449.3466,-248.2133 445.8245,-253.9443 444.9207,-249.0266 444.9207,-249.0266 444.9207,-249.0266 445.8245,-253.9443 440.4948,-249.84 446.7282,-258.862 446.7282,-258.862"/>
</g>
<!-- User&#45;&gt;Service -->
<g id="edge30" class="edge">
<title>User&#45;&gt;Service</title>
<path fill="none" stroke="#b74ec8" d="M523.3337,-353.6806C532.199,-347.7774 542.151,-341.1228 551.2117,-335 565.5155,-325.334 581.329,-314.5188 594.5702,-305.4262"/>
<ellipse fill="none" stroke="#b74ec8" cx="519.8254" cy="-356.0139" rx="4" ry="4"/>
<polygon fill="#b74ec8" stroke="#b74ec8" points="594.6174,-305.3938 605.4074,-303.4377 598.7378,-302.5615 602.8583,-299.7292 602.8583,-299.7292 602.8583,-299.7292 598.7378,-302.5615 600.3093,-296.0208 594.6174,-305.3938 594.6174,-305.3938"/>
</g>
</g>
</svg>
