<?xml version="1.0" encoding="UTF-8" standalone="no"?>
<!DOCTYPE svg PUBLIC "-//W3C//DTD SVG 1.1//EN"
 "http://www.w3.org/Graphics/SVG/1.1/DTD/svg11.dtd">
<!-- Generated by graphviz version 2.40.1 (20161225.0304)
 -->
<!-- Title: models_diagram Pages: 1 -->
<svg width="3097pt" height="1761pt"
 viewBox="0.00 0.00 3097.01 1761.00" xmlns="http://www.w3.org/2000/svg" xmlns:xlink="http://www.w3.org/1999/xlink">
<g id="graph0" class="graph" transform="scale(1 1) rotate(0) translate(4 1757)">
<title>models_diagram</title>
<polygon fill="transparent" stroke="transparent" points="-4,4 -4,-1757 3093.0112,-1757 3093.0112,4 -4,4"/>
<!-- _diagram_info -->
<g id="node1" class="node">
<title>_diagram_info</title>
<text text-anchor="start" x="8" y="-1710.6" font-family="Times,serif" font-size="13.00" fill="#000000">Models diagram</text>
<text text-anchor="start" x="8" y="-1697.6" font-family="Times,serif" font-size="13.00" fill="#000000">Date: Jul 30 2019 &#45; 00:49</text>
<text text-anchor="start" x="8" y="-1684.6" font-family="Times,serif" font-size="13.00" fill="#000000">Migration version: 20190703002925</text>
<text text-anchor="start" x="8" y="-1671.6" font-family="Times,serif" font-size="13.00" fill="#000000">Generated by RailRoady 1.5.3</text>
<text text-anchor="start" x="8" y="-1658.6" font-family="Times,serif" font-size="13.00" fill="#000000">http://railroady.prestonlee.com</text>
</g>
<!-- Identity -->
<g id="node2" class="node">
<title>Identity</title>
<path fill="none" stroke="#000000" d="M2245.8254,-1117.5C2245.8254,-1117.5 2469.55,-1117.5 2469.55,-1117.5 2475.55,-1117.5 2481.55,-1123.5 2481.55,-1129.5 2481.55,-1129.5 2481.55,-1317.5 2481.55,-1317.5 2481.55,-1323.5 2475.55,-1329.5 2469.55,-1329.5 2469.55,-1329.5 2245.8254,-1329.5 2245.8254,-1329.5 2239.8254,-1329.5 2233.8254,-1323.5 2233.8254,-1317.5 2233.8254,-1317.5 2233.8254,-1129.5 2233.8254,-1129.5 2233.8254,-1123.5 2239.8254,-1117.5 2245.8254,-1117.5"/>
<text text-anchor="middle" x="2357.6877" y="-1314.3" font-family="Times,serif" font-size="14.00" fill="#000000">Identity</text>
<polyline fill="none" stroke="#000000" points="2233.8254,-1307.5 2481.55,-1307.5 "/>
<text text-anchor="start" x="2241.8254" y="-1292.3" font-family="Times,serif" font-size="14.00" fill="#000000">updated_at :timestamp without time zone</text>
<text text-anchor="start" x="2241.8254" y="-1278.3" font-family="Times,serif" font-size="14.00" fill="#000000">user_id :uuid</text>
<text text-anchor="start" x="2241.8254" y="-1264.3" font-family="Times,serif" font-size="14.00" fill="#000000">identity_provider_id :uuid</text>
<text text-anchor="start" x="2241.8254" y="-1250.3" font-family="Times,serif" font-size="14.00" fill="#000000">sub :character varying</text>
<text text-anchor="start" x="2241.8254" y="-1236.3" font-family="Times,serif" font-size="14.00" fill="#000000">iat :character varying</text>
<text text-anchor="start" x="2241.8254" y="-1222.3" font-family="Times,serif" font-size="14.00" fill="#000000">hd :character varying</text>
<text text-anchor="start" x="2241.8254" y="-1208.3" font-family="Times,serif" font-size="14.00" fill="#000000">locale :character varying</text>
<text text-anchor="start" x="2241.8254" y="-1194.3" font-family="Times,serif" font-size="14.00" fill="#000000">email :character varying</text>
<text text-anchor="start" x="2241.8254" y="-1180.3" font-family="Times,serif" font-size="14.00" fill="#000000">jwt :json</text>
<text text-anchor="start" x="2241.8254" y="-1166.3" font-family="Times,serif" font-size="14.00" fill="#000000">notify_via_email :boolean</text>
<text text-anchor="start" x="2241.8254" y="-1152.3" font-family="Times,serif" font-size="14.00" fill="#000000">notify_via_sms :boolean</text>
<text text-anchor="start" x="2241.8254" y="-1138.3" font-family="Times,serif" font-size="14.00" fill="#000000">created_at :timestamp without time zone</text>
<text text-anchor="start" x="2241.8254" y="-1124.3" font-family="Times,serif" font-size="14.00" fill="#000000">id :uuid</text>
</g>
<!-- JsonWebToken -->
<g id="node16" class="node">
<title>JsonWebToken</title>
<path fill="none" stroke="#000000" d="M2245.8254,-795.5C2245.8254,-795.5 2469.55,-795.5 2469.55,-795.5 2475.55,-795.5 2481.55,-801.5 2481.55,-807.5 2481.55,-807.5 2481.55,-883.5 2481.55,-883.5 2481.55,-889.5 2475.55,-895.5 2469.55,-895.5 2469.55,-895.5 2245.8254,-895.5 2245.8254,-895.5 2239.8254,-895.5 2233.8254,-889.5 2233.8254,-883.5 2233.8254,-883.5 2233.8254,-807.5 2233.8254,-807.5 2233.8254,-801.5 2239.8254,-795.5 2245.8254,-795.5"/>
<text text-anchor="middle" x="2357.6877" y="-880.3" font-family="Times,serif" font-size="14.00" fill="#000000">JsonWebToken</text>
<polyline fill="none" stroke="#000000" points="2233.8254,-873.5 2481.55,-873.5 "/>
<text text-anchor="start" x="2241.8254" y="-858.3" font-family="Times,serif" font-size="14.00" fill="#000000">id :uuid</text>
<text text-anchor="start" x="2241.8254" y="-844.3" font-family="Times,serif" font-size="14.00" fill="#000000">identity_id :uuid</text>
<text text-anchor="start" x="2241.8254" y="-830.3" font-family="Times,serif" font-size="14.00" fill="#000000">expires_at :timestamp without time zone</text>
<text text-anchor="start" x="2241.8254" y="-816.3" font-family="Times,serif" font-size="14.00" fill="#000000">created_at :timestamp without time zone</text>
<text text-anchor="start" x="2241.8254" y="-802.3" font-family="Times,serif" font-size="14.00" fill="#000000">updated_at :timestamp without time zone</text>
</g>
<!-- Identity&#45;&gt;JsonWebToken -->
<g id="edge1" class="edge">
<title>Identity&#45;&gt;JsonWebToken</title>
<path fill="none" stroke="#c84b67" d="M2357.6877,-1109.2865C2357.6877,-1042.3035 2357.6877,-960.378 2357.6877,-905.7713"/>
<ellipse fill="none" stroke="#c84b67" cx="2357.6878" cy="-1113.4517" rx="4" ry="4"/>
<polygon fill="#c84b67" stroke="#c84b67" points="2357.6878,-905.5649 2362.1877,-895.5649 2357.6878,-900.5649 2357.6877,-895.5649 2357.6877,-895.5649 2357.6877,-895.5649 2357.6878,-900.5649 2353.1877,-895.565 2357.6878,-905.5649 2357.6878,-905.5649"/>
</g>
<!-- Screenshot -->
<g id="node3" class="node">
<title>Screenshot</title>
<path fill="none" stroke="#000000" d="M1397.2219,-767.5C1397.2219,-767.5 1662.1536,-767.5 1662.1536,-767.5 1668.1536,-767.5 1674.1536,-773.5 1674.1536,-779.5 1674.1536,-779.5 1674.1536,-911.5 1674.1536,-911.5 1674.1536,-917.5 1668.1536,-923.5 1662.1536,-923.5 1662.1536,-923.5 1397.2219,-923.5 1397.2219,-923.5 1391.2219,-923.5 1385.2219,-917.5 1385.2219,-911.5 1385.2219,-911.5 1385.2219,-779.5 1385.2219,-779.5 1385.2219,-773.5 1391.2219,-767.5 1397.2219,-767.5"/>
<text text-anchor="middle" x="1529.6877" y="-908.3" font-family="Times,serif" font-size="14.00" fill="#000000">Screenshot</text>
<polyline fill="none" stroke="#000000" points="1385.2219,-901.5 1674.1536,-901.5 "/>
<text text-anchor="start" x="1393.2219" y="-886.3" font-family="Times,serif" font-size="14.00" fill="#000000">image_updated_at :timestamp without time zone</text>
<text text-anchor="start" x="1393.2219" y="-872.3" font-family="Times,serif" font-size="14.00" fill="#000000">caption :character varying</text>
<text text-anchor="start" x="1393.2219" y="-858.3" font-family="Times,serif" font-size="14.00" fill="#000000">created_at :timestamp without time zone</text>
<text text-anchor="start" x="1393.2219" y="-844.3" font-family="Times,serif" font-size="14.00" fill="#000000">updated_at :timestamp without time zone</text>
<text text-anchor="start" x="1393.2219" y="-830.3" font-family="Times,serif" font-size="14.00" fill="#000000">product_id :uuid</text>
<text text-anchor="start" x="1393.2219" y="-816.3" font-family="Times,serif" font-size="14.00" fill="#000000">image_file_name :character varying</text>
<text text-anchor="start" x="1393.2219" y="-802.3" font-family="Times,serif" font-size="14.00" fill="#000000">image_content_type :character varying</text>
<text text-anchor="start" x="1393.2219" y="-788.3" font-family="Times,serif" font-size="14.00" fill="#000000">image_file_size :bigint</text>
<text text-anchor="start" x="1393.2219" y="-774.3" font-family="Times,serif" font-size="14.00" fill="#000000">id :uuid</text>
</g>
<!-- Appointment -->
<g id="node4" class="node">
<title>Appointment</title>
<path fill="none" stroke="#000000" d="M313.8254,-180.5C313.8254,-180.5 537.55,-180.5 537.55,-180.5 543.55,-180.5 549.55,-186.5 549.55,-192.5 549.55,-192.5 549.55,-282.5 549.55,-282.5 549.55,-288.5 543.55,-294.5 537.55,-294.5 537.55,-294.5 313.8254,-294.5 313.8254,-294.5 307.8254,-294.5 301.8254,-288.5 301.8254,-282.5 301.8254,-282.5 301.8254,-192.5 301.8254,-192.5 301.8254,-186.5 307.8254,-180.5 313.8254,-180.5"/>
<text text-anchor="middle" x="425.6877" y="-279.3" font-family="Times,serif" font-size="14.00" fill="#000000">Appointment</text>
<polyline fill="none" stroke="#000000" points="301.8254,-272.5 549.55,-272.5 "/>
<text text-anchor="start" x="309.8254" y="-257.3" font-family="Times,serif" font-size="14.00" fill="#000000">id :uuid</text>
<text text-anchor="start" x="309.8254" y="-243.3" font-family="Times,serif" font-size="14.00" fill="#000000">entity_id :uuid</text>
<text text-anchor="start" x="309.8254" y="-229.3" font-family="Times,serif" font-size="14.00" fill="#000000">entity_type :character varying</text>
<text text-anchor="start" x="309.8254" y="-215.3" font-family="Times,serif" font-size="14.00" fill="#000000">role_id :uuid</text>
<text text-anchor="start" x="309.8254" y="-201.3" font-family="Times,serif" font-size="14.00" fill="#000000">created_at :timestamp without time zone</text>
<text text-anchor="start" x="309.8254" y="-187.3" font-family="Times,serif" font-size="14.00" fill="#000000">updated_at :timestamp without time zone</text>
</g>
<!-- Parameter -->
<g id="node5" class="node">
<title>Parameter</title>
<path fill="none" stroke="#000000" d="M2408.8254,-374.5C2408.8254,-374.5 2632.55,-374.5 2632.55,-374.5 2638.55,-374.5 2644.55,-380.5 2644.55,-386.5 2644.55,-386.5 2644.55,-476.5 2644.55,-476.5 2644.55,-482.5 2638.55,-488.5 2632.55,-488.5 2632.55,-488.5 2408.8254,-488.5 2408.8254,-488.5 2402.8254,-488.5 2396.8254,-482.5 2396.8254,-476.5 2396.8254,-476.5 2396.8254,-386.5 2396.8254,-386.5 2396.8254,-380.5 2402.8254,-374.5 2408.8254,-374.5"/>
<text text-anchor="middle" x="2520.6877" y="-473.3" font-family="Times,serif" font-size="14.00" fill="#000000">Parameter</text>
<polyline fill="none" stroke="#000000" points="2396.8254,-466.5 2644.55,-466.5 "/>
<text text-anchor="start" x="2404.8254" y="-451.3" font-family="Times,serif" font-size="14.00" fill="#000000">id :uuid</text>
<text text-anchor="start" x="2404.8254" y="-437.3" font-family="Times,serif" font-size="14.00" fill="#000000">exposure_id :uuid</text>
<text text-anchor="start" x="2404.8254" y="-423.3" font-family="Times,serif" font-size="14.00" fill="#000000">name :character varying</text>
<text text-anchor="start" x="2404.8254" y="-409.3" font-family="Times,serif" font-size="14.00" fill="#000000">required :boolean</text>
<text text-anchor="start" x="2404.8254" y="-395.3" font-family="Times,serif" font-size="14.00" fill="#000000">created_at :timestamp without time zone</text>
<text text-anchor="start" x="2404.8254" y="-381.3" font-family="Times,serif" font-size="14.00" fill="#000000">updated_at :timestamp without time zone</text>
</g>
<!-- Voucher -->
<g id="node6" class="node">
<title>Voucher</title>
<path fill="none" stroke="#000000" d="M1257.7805,-346.5C1257.7805,-346.5 1491.595,-346.5 1491.595,-346.5 1497.595,-346.5 1503.595,-352.5 1503.595,-358.5 1503.595,-358.5 1503.595,-504.5 1503.595,-504.5 1503.595,-510.5 1497.595,-516.5 1491.595,-516.5 1491.595,-516.5 1257.7805,-516.5 1257.7805,-516.5 1251.7805,-516.5 1245.7805,-510.5 1245.7805,-504.5 1245.7805,-504.5 1245.7805,-358.5 1245.7805,-358.5 1245.7805,-352.5 1251.7805,-346.5 1257.7805,-346.5"/>
<text text-anchor="middle" x="1374.6877" y="-501.3" font-family="Times,serif" font-size="14.00" fill="#000000">Voucher</text>
<polyline fill="none" stroke="#000000" points="1245.7805,-494.5 1503.595,-494.5 "/>
<text text-anchor="start" x="1253.7805" y="-479.3" font-family="Times,serif" font-size="14.00" fill="#000000">updated_at :timestamp without time zone</text>
<text text-anchor="start" x="1253.7805" y="-465.3" font-family="Times,serif" font-size="14.00" fill="#000000">product_license_id :uuid</text>
<text text-anchor="start" x="1253.7805" y="-451.3" font-family="Times,serif" font-size="14.00" fill="#000000">entitlement_id :uuid</text>
<text text-anchor="start" x="1253.7805" y="-437.3" font-family="Times,serif" font-size="14.00" fill="#000000">code :character varying</text>
<text text-anchor="start" x="1253.7805" y="-423.3" font-family="Times,serif" font-size="14.00" fill="#000000">issued_at :timestamp without time zone</text>
<text text-anchor="start" x="1253.7805" y="-409.3" font-family="Times,serif" font-size="14.00" fill="#000000">expires_at :timestamp without time zone</text>
<text text-anchor="start" x="1253.7805" y="-395.3" font-family="Times,serif" font-size="14.00" fill="#000000">redeemed_at :timestamp without time zone</text>
<text text-anchor="start" x="1253.7805" y="-381.3" font-family="Times,serif" font-size="14.00" fill="#000000">redeemed_by :uuid</text>
<text text-anchor="start" x="1253.7805" y="-367.3" font-family="Times,serif" font-size="14.00" fill="#000000">created_at :timestamp without time zone</text>
<text text-anchor="start" x="1253.7805" y="-353.3" font-family="Times,serif" font-size="14.00" fill="#000000">id :uuid</text>
</g>
<!-- Dependency -->
<g id="node7" class="node">
<title>Dependency</title>
<path fill="none" stroke="#000000" d="M1935.8254,-567.5C1935.8254,-567.5 2159.55,-567.5 2159.55,-567.5 2165.55,-567.5 2171.55,-573.5 2171.55,-579.5 2171.55,-579.5 2171.55,-683.5 2171.55,-683.5 2171.55,-689.5 2165.55,-695.5 2159.55,-695.5 2159.55,-695.5 1935.8254,-695.5 1935.8254,-695.5 1929.8254,-695.5 1923.8254,-689.5 1923.8254,-683.5 1923.8254,-683.5 1923.8254,-579.5 1923.8254,-579.5 1923.8254,-573.5 1929.8254,-567.5 1935.8254,-567.5"/>
<text text-anchor="middle" x="2047.6877" y="-680.3" font-family="Times,serif" font-size="14.00" fill="#000000">Dependency</text>
<polyline fill="none" stroke="#000000" points="1923.8254,-673.5 2171.55,-673.5 "/>
<text text-anchor="start" x="1931.8254" y="-658.3" font-family="Times,serif" font-size="14.00" fill="#000000">id :uuid</text>
<text text-anchor="start" x="1931.8254" y="-644.3" font-family="Times,serif" font-size="14.00" fill="#000000">build_id :uuid</text>
<text text-anchor="start" x="1931.8254" y="-630.3" font-family="Times,serif" font-size="14.00" fill="#000000">interface_id :uuid</text>
<text text-anchor="start" x="1931.8254" y="-616.3" font-family="Times,serif" font-size="14.00" fill="#000000">created_at :timestamp without time zone</text>
<text text-anchor="start" x="1931.8254" y="-602.3" font-family="Times,serif" font-size="14.00" fill="#000000">updated_at :timestamp without time zone</text>
<text text-anchor="start" x="1931.8254" y="-588.3" font-family="Times,serif" font-size="14.00" fill="#000000">required :boolean</text>
<text text-anchor="start" x="1931.8254" y="-574.3" font-family="Times,serif" font-size="14.00" fill="#000000">mappings :json</text>
</g>
<!-- Surrogate -->
<g id="node8" class="node">
<title>Surrogate</title>
<path fill="none" stroke="#000000" d="M2674.8254,-581.5C2674.8254,-581.5 2898.55,-581.5 2898.55,-581.5 2904.55,-581.5 2910.55,-587.5 2910.55,-593.5 2910.55,-593.5 2910.55,-669.5 2910.55,-669.5 2910.55,-675.5 2904.55,-681.5 2898.55,-681.5 2898.55,-681.5 2674.8254,-681.5 2674.8254,-681.5 2668.8254,-681.5 2662.8254,-675.5 2662.8254,-669.5 2662.8254,-669.5 2662.8254,-593.5 2662.8254,-593.5 2662.8254,-587.5 2668.8254,-581.5 2674.8254,-581.5"/>
<text text-anchor="middle" x="2786.6877" y="-666.3" font-family="Times,serif" font-size="14.00" fill="#000000">Surrogate</text>
<polyline fill="none" stroke="#000000" points="2662.8254,-659.5 2910.55,-659.5 "/>
<text text-anchor="start" x="2670.8254" y="-644.3" font-family="Times,serif" font-size="14.00" fill="#000000">id :uuid</text>
<text text-anchor="start" x="2670.8254" y="-630.3" font-family="Times,serif" font-size="14.00" fill="#000000">interface_id :uuid</text>
<text text-anchor="start" x="2670.8254" y="-616.3" font-family="Times,serif" font-size="14.00" fill="#000000">substitute_id :uuid</text>
<text text-anchor="start" x="2670.8254" y="-602.3" font-family="Times,serif" font-size="14.00" fill="#000000">created_at :timestamp without time zone</text>
<text text-anchor="start" x="2670.8254" y="-588.3" font-family="Times,serif" font-size="14.00" fill="#000000">updated_at :timestamp without time zone</text>
</g>
<!-- License -->
<g id="node9" class="node">
<title>License</title>
<path fill="none" stroke="#000000" d="M1979.8254,-1395.5C1979.8254,-1395.5 2203.55,-1395.5 2203.55,-1395.5 2209.55,-1395.5 2215.55,-1401.5 2215.55,-1407.5 2215.55,-1407.5 2215.55,-1567.5 2215.55,-1567.5 2215.55,-1573.5 2209.55,-1579.5 2203.55,-1579.5 2203.55,-1579.5 1979.8254,-1579.5 1979.8254,-1579.5 1973.8254,-1579.5 1967.8254,-1573.5 1967.8254,-1567.5 1967.8254,-1567.5 1967.8254,-1407.5 1967.8254,-1407.5 1967.8254,-1401.5 1973.8254,-1395.5 1979.8254,-1395.5"/>
<text text-anchor="middle" x="2091.6877" y="-1564.3" font-family="Times,serif" font-size="14.00" fill="#000000">License</text>
<polyline fill="none" stroke="#000000" points="1967.8254,-1557.5 2215.55,-1557.5 "/>
<text text-anchor="start" x="1975.8254" y="-1542.3" font-family="Times,serif" font-size="14.00" fill="#000000">external_id :character varying</text>
<text text-anchor="start" x="1975.8254" y="-1528.3" font-family="Times,serif" font-size="14.00" fill="#000000">name :character varying</text>
<text text-anchor="start" x="1975.8254" y="-1514.3" font-family="Times,serif" font-size="14.00" fill="#000000">url :character varying</text>
<text text-anchor="start" x="1975.8254" y="-1500.3" font-family="Times,serif" font-size="14.00" fill="#000000">created_at :timestamp without time zone</text>
<text text-anchor="start" x="1975.8254" y="-1486.3" font-family="Times,serif" font-size="14.00" fill="#000000">updated_at :timestamp without time zone</text>
<text text-anchor="start" x="1975.8254" y="-1472.3" font-family="Times,serif" font-size="14.00" fill="#000000">description :character varying</text>
<text text-anchor="start" x="1975.8254" y="-1458.3" font-family="Times,serif" font-size="14.00" fill="#000000">expiry :integer</text>
<text text-anchor="start" x="1975.8254" y="-1444.3" font-family="Times,serif" font-size="14.00" fill="#000000">expires_at :timestamp without time zone</text>
<text text-anchor="start" x="1975.8254" y="-1430.3" font-family="Times,serif" font-size="14.00" fill="#000000">days_valid :integer</text>
<text text-anchor="start" x="1975.8254" y="-1416.3" font-family="Times,serif" font-size="14.00" fill="#000000">uses :integer</text>
<text text-anchor="start" x="1975.8254" y="-1402.3" font-family="Times,serif" font-size="14.00" fill="#000000">id :uuid</text>
</g>
<!-- Product -->
<g id="node10" class="node">
<title>Product</title>
<path fill="none" stroke="#000000" d="M1401.8806,-1096.5C1401.8806,-1096.5 1657.4949,-1096.5 1657.4949,-1096.5 1663.4949,-1096.5 1669.4949,-1102.5 1669.4949,-1108.5 1669.4949,-1108.5 1669.4949,-1338.5 1669.4949,-1338.5 1669.4949,-1344.5 1663.4949,-1350.5 1657.4949,-1350.5 1657.4949,-1350.5 1401.8806,-1350.5 1401.8806,-1350.5 1395.8806,-1350.5 1389.8806,-1344.5 1389.8806,-1338.5 1389.8806,-1338.5 1389.8806,-1108.5 1389.8806,-1108.5 1389.8806,-1102.5 1395.8806,-1096.5 1401.8806,-1096.5"/>
<text text-anchor="middle" x="1529.6877" y="-1335.3" font-family="Times,serif" font-size="14.00" fill="#000000">Product</text>
<polyline fill="none" stroke="#000000" points="1389.8806,-1328.5 1669.4949,-1328.5 "/>
<text text-anchor="start" x="1397.8806" y="-1313.3" font-family="Times,serif" font-size="14.00" fill="#000000">locale :character varying</text>
<text text-anchor="start" x="1397.8806" y="-1299.3" font-family="Times,serif" font-size="14.00" fill="#000000">name :character varying</text>
<text text-anchor="start" x="1397.8806" y="-1285.3" font-family="Times,serif" font-size="14.00" fill="#000000">description :text</text>
<text text-anchor="start" x="1397.8806" y="-1271.3" font-family="Times,serif" font-size="14.00" fill="#000000">user_id :uuid</text>
<text text-anchor="start" x="1397.8806" y="-1257.3" font-family="Times,serif" font-size="14.00" fill="#000000">uri :character varying</text>
<text text-anchor="start" x="1397.8806" y="-1243.3" font-family="Times,serif" font-size="14.00" fill="#000000">support_url :character varying</text>
<text text-anchor="start" x="1397.8806" y="-1229.3" font-family="Times,serif" font-size="14.00" fill="#000000">published_at :timestamp without time zone</text>
<text text-anchor="start" x="1397.8806" y="-1215.3" font-family="Times,serif" font-size="14.00" fill="#000000">visible_at :timestamp without time zone</text>
<text text-anchor="start" x="1397.8806" y="-1201.3" font-family="Times,serif" font-size="14.00" fill="#000000">created_at :timestamp without time zone</text>
<text text-anchor="start" x="1397.8806" y="-1187.3" font-family="Times,serif" font-size="14.00" fill="#000000">updated_at :timestamp without time zone</text>
<text text-anchor="start" x="1397.8806" y="-1173.3" font-family="Times,serif" font-size="14.00" fill="#000000">logo_file_name :character varying</text>
<text text-anchor="start" x="1397.8806" y="-1159.3" font-family="Times,serif" font-size="14.00" fill="#000000">logo_content_type :character varying</text>
<text text-anchor="start" x="1397.8806" y="-1145.3" font-family="Times,serif" font-size="14.00" fill="#000000">logo_file_size :bigint</text>
<text text-anchor="start" x="1397.8806" y="-1131.3" font-family="Times,serif" font-size="14.00" fill="#000000">logo_updated_at :timestamp without time zone</text>
<text text-anchor="start" x="1397.8806" y="-1117.3" font-family="Times,serif" font-size="14.00" fill="#000000">external_id :character varying</text>
<text text-anchor="start" x="1397.8806" y="-1103.3" font-family="Times,serif" font-size="14.00" fill="#000000">id :uuid</text>
</g>
<!-- License&#45;&gt;Product -->
<g id="edge4" class="edge">
<title>License&#45;&gt;Product</title>
<path fill="none" stroke="#8575e4" d="M1958.5227,-1424.9456C1874.4864,-1385.4695 1765.7868,-1334.4077 1678.8545,-1293.5712"/>
<polygon fill="#8575e4" stroke="#8575e4" points="1958.6076,-1424.9854 1965.7454,-1433.3103 1963.1332,-1427.1113 1967.6587,-1429.2373 1967.6587,-1429.2373 1967.6587,-1429.2373 1963.1332,-1427.1113 1969.572,-1425.1643 1958.6076,-1424.9854 1958.6076,-1424.9854"/>
<polygon fill="#8575e4" stroke="#8575e4" points="1678.76,-1293.5269 1671.6222,-1285.2021 1674.2344,-1291.401 1669.7089,-1289.2751 1669.7089,-1289.2751 1669.7089,-1289.2751 1674.2344,-1291.401 1667.7956,-1293.3481 1678.76,-1293.5269 1678.76,-1293.5269"/>
</g>
<!-- ProductLicense -->
<g id="node15" class="node">
<title>ProductLicense</title>
<path fill="none" stroke="#000000" d="M1979.8254,-788.5C1979.8254,-788.5 2203.55,-788.5 2203.55,-788.5 2209.55,-788.5 2215.55,-794.5 2215.55,-800.5 2215.55,-800.5 2215.55,-890.5 2215.55,-890.5 2215.55,-896.5 2209.55,-902.5 2203.55,-902.5 2203.55,-902.5 1979.8254,-902.5 1979.8254,-902.5 1973.8254,-902.5 1967.8254,-896.5 1967.8254,-890.5 1967.8254,-890.5 1967.8254,-800.5 1967.8254,-800.5 1967.8254,-794.5 1973.8254,-788.5 1979.8254,-788.5"/>
<text text-anchor="middle" x="2091.6877" y="-887.3" font-family="Times,serif" font-size="14.00" fill="#000000">ProductLicense</text>
<polyline fill="none" stroke="#000000" points="1967.8254,-880.5 2215.55,-880.5 "/>
<text text-anchor="start" x="1975.8254" y="-865.3" font-family="Times,serif" font-size="14.00" fill="#000000">id :uuid</text>
<text text-anchor="start" x="1975.8254" y="-851.3" font-family="Times,serif" font-size="14.00" fill="#000000">product_id :uuid</text>
<text text-anchor="start" x="1975.8254" y="-837.3" font-family="Times,serif" font-size="14.00" fill="#000000">license_id :uuid</text>
<text text-anchor="start" x="1975.8254" y="-823.3" font-family="Times,serif" font-size="14.00" fill="#000000">external_id :uuid</text>
<text text-anchor="start" x="1975.8254" y="-809.3" font-family="Times,serif" font-size="14.00" fill="#000000">created_at :timestamp without time zone</text>
<text text-anchor="start" x="1975.8254" y="-795.3" font-family="Times,serif" font-size="14.00" fill="#000000">updated_at :timestamp without time zone</text>
</g>
<!-- License&#45;&gt;ProductLicense -->
<g id="edge3" class="edge">
<title>License&#45;&gt;ProductLicense</title>
<path fill="none" stroke="#794332" d="M2091.6877,-1387.1611C2091.6877,-1255.1016 2091.6877,-1026.4897 2091.6877,-913.1847"/>
<ellipse fill="none" stroke="#794332" cx="2091.6878" cy="-1391.1754" rx="4" ry="4"/>
<polygon fill="#794332" stroke="#794332" points="2091.6878,-912.9166 2096.1877,-902.9166 2091.6878,-907.9166 2091.6877,-902.9166 2091.6877,-902.9166 2091.6877,-902.9166 2091.6878,-907.9166 2087.1877,-902.9167 2091.6878,-912.9166 2091.6878,-912.9166"/>
</g>
<!-- Entitlement -->
<g id="node23" class="node">
<title>Entitlement</title>
<path fill="none" stroke="#000000" d="M1345.4324,-574.5C1345.4324,-574.5 1569.9431,-574.5 1569.9431,-574.5 1575.9431,-574.5 1581.9431,-580.5 1581.9431,-586.5 1581.9431,-586.5 1581.9431,-676.5 1581.9431,-676.5 1581.9431,-682.5 1575.9431,-688.5 1569.9431,-688.5 1569.9431,-688.5 1345.4324,-688.5 1345.4324,-688.5 1339.4324,-688.5 1333.4324,-682.5 1333.4324,-676.5 1333.4324,-676.5 1333.4324,-586.5 1333.4324,-586.5 1333.4324,-580.5 1339.4324,-574.5 1345.4324,-574.5"/>
<text text-anchor="middle" x="1457.6877" y="-673.3" font-family="Times,serif" font-size="14.00" fill="#000000">Entitlement</text>
<polyline fill="none" stroke="#000000" points="1333.4324,-666.5 1581.9431,-666.5 "/>
<text text-anchor="start" x="1341.4324" y="-651.3" font-family="Times,serif" font-size="14.00" fill="#000000">id :uuid</text>
<text text-anchor="start" x="1341.4324" y="-637.3" font-family="Times,serif" font-size="14.00" fill="#000000">user_id :uuid</text>
<text text-anchor="start" x="1341.4324" y="-623.3" font-family="Times,serif" font-size="14.00" fill="#000000">product_license_id :uuid</text>
<text text-anchor="start" x="1341.4324" y="-609.3" font-family="Times,serif" font-size="14.00" fill="#000000">valid_from :timestamp without time zone</text>
<text text-anchor="start" x="1341.4324" y="-595.3" font-family="Times,serif" font-size="14.00" fill="#000000">created_at :timestamp without time zone</text>
<text text-anchor="start" x="1341.4324" y="-581.3" font-family="Times,serif" font-size="14.00" fill="#000000">updated_at :timestamp without time zone</text>
</g>
<!-- License&#45;&gt;Entitlement -->
<g id="edge2" class="edge">
<title>License&#45;&gt;Entitlement</title>
<path fill="none" stroke="#417af8" d="M2223.4159,-1446.4628C2336.4219,-1410.6351 2482.3967,-1362.5991 2490.6877,-1351 2568.8688,-1241.6244 2581.5507,-845.092 2490.6877,-746 2447.2713,-698.6515 1978.5158,-703.2693 1914.6877,-696 1805.9154,-683.6121 1683.0757,-666.0749 1592.167,-652.4135"/>
<ellipse fill="none" stroke="#417af8" cx="2219.4939" cy="-1447.7048" rx="4" ry="4"/>
<polygon fill="#417af8" stroke="#417af8" points="1591.9686,-652.3837 1582.7506,-646.4441 1587.0244,-651.6388 1582.0802,-650.8939 1582.0802,-650.8939 1582.0802,-650.8939 1587.0244,-651.6388 1581.4098,-655.3437 1591.9686,-652.3837 1591.9686,-652.3837"/>
</g>
<!-- Product&#45;&gt;Screenshot -->
<g id="edge6" class="edge">
<title>Product&#45;&gt;Screenshot</title>
<path fill="none" stroke="#ca7ee5" d="M1529.6877,-1088.213C1529.6877,-1036.8279 1529.6877,-979.6661 1529.6877,-933.7289"/>
<ellipse fill="none" stroke="#ca7ee5" cx="1529.6878" cy="-1092.3167" rx="4" ry="4"/>
<polygon fill="#ca7ee5" stroke="#ca7ee5" points="1529.6878,-933.5062 1534.1877,-923.5062 1529.6878,-928.5062 1529.6877,-923.5062 1529.6877,-923.5062 1529.6877,-923.5062 1529.6878,-928.5062 1525.1877,-923.5062 1529.6878,-933.5062 1529.6878,-933.5062"/>
</g>
<!-- Product&#45;&gt;Product -->
<g id="edge10" class="edge">
<title>Product&#45;&gt;Product</title>
<path fill="none" stroke="#4b5d6b" d="M1679.4621,-1231.1027C1684.5739,-1229.0752 1687.4949,-1226.5409 1687.4949,-1223.5 1687.4949,-1220.4591 1684.5739,-1217.9248 1679.4621,-1215.8973"/>
<polygon fill="#4b5d6b" stroke="#4b5d6b" points="1679.3491,-1231.1348 1668.4992,-1229.5435 1674.54,-1232.5033 1669.7309,-1233.8717 1669.7309,-1233.8717 1669.7309,-1233.8717 1674.54,-1232.5033 1670.9625,-1238.1999 1679.3491,-1231.1348 1679.3491,-1231.1348"/>
<polygon fill="#4b5d6b" stroke="#4b5d6b" points="1679.3491,-1215.8652 1670.9625,-1208.8001 1674.54,-1214.4967 1669.7309,-1213.1283 1669.7309,-1213.1283 1669.7309,-1213.1283 1674.54,-1214.4967 1668.4992,-1217.4565 1679.3491,-1215.8652 1679.3491,-1215.8652"/>
<text text-anchor="middle" x="1710.4294" y="-1219.3" font-family="Times,serif" font-size="14.00" fill="#000000">children</text>
</g>
<!-- Product&#45;&gt;Product -->
<g id="edge11" class="edge">
<title>Product&#45;&gt;Product</title>
<path fill="none" stroke="#9a28af" d="M1680.1959,-1249.6216C1710.956,-1246.5522 1733.364,-1237.845 1733.364,-1223.5 1733.364,-1209.155 1710.956,-1200.4478 1680.1959,-1197.3784"/>
<polygon fill="#9a28af" stroke="#9a28af" points="1679.903,-1249.6443 1669.584,-1245.9337 1674.9181,-1250.0322 1669.9331,-1250.4201 1669.9331,-1250.4201 1669.9331,-1250.4201 1674.9181,-1250.0322 1670.2822,-1254.9066 1679.903,-1249.6443 1679.903,-1249.6443"/>
<polygon fill="#9a28af" stroke="#9a28af" points="1679.903,-1197.3557 1670.2822,-1192.0934 1674.9181,-1196.9678 1669.9331,-1196.5799 1669.9331,-1196.5799 1669.9331,-1196.5799 1674.9181,-1196.9678 1669.584,-1201.0663 1679.903,-1197.3557 1679.903,-1197.3557"/>
<text text-anchor="middle" x="1753.5779" y="-1219.3" font-family="Times,serif" font-size="14.00" fill="#000000">parents</text>
</g>
<!-- Product&#45;&gt;ProductLicense -->
<g id="edge7" class="edge">
<title>Product&#45;&gt;ProductLicense</title>
<path fill="none" stroke="#088c6c" d="M1676.8579,-1131.3722C1760.4107,-1078.2224 1866.4196,-1009.3575 1958.6877,-945 1975.1516,-933.5164 1992.4955,-920.9212 2009.0236,-908.668"/>
<ellipse fill="none" stroke="#088c6c" cx="1673.241" cy="-1133.6712" rx="4" ry="4"/>
<polygon fill="#088c6c" stroke="#088c6c" points="2009.0408,-908.6552 2019.7502,-906.2973 2013.0526,-905.6709 2017.0644,-902.6867 2017.0644,-902.6867 2017.0644,-902.6867 2013.0526,-905.6709 2014.3785,-899.0761 2009.0408,-908.6552 2009.0408,-908.6552"/>
</g>
<!-- SubProduct -->
<g id="node21" class="node">
<title>SubProduct</title>
<path fill="none" stroke="#000000" d="M1131.8254,-795.5C1131.8254,-795.5 1355.55,-795.5 1355.55,-795.5 1361.55,-795.5 1367.55,-801.5 1367.55,-807.5 1367.55,-807.5 1367.55,-883.5 1367.55,-883.5 1367.55,-889.5 1361.55,-895.5 1355.55,-895.5 1355.55,-895.5 1131.8254,-895.5 1131.8254,-895.5 1125.8254,-895.5 1119.8254,-889.5 1119.8254,-883.5 1119.8254,-883.5 1119.8254,-807.5 1119.8254,-807.5 1119.8254,-801.5 1125.8254,-795.5 1131.8254,-795.5"/>
<text text-anchor="middle" x="1243.6877" y="-880.3" font-family="Times,serif" font-size="14.00" fill="#000000">SubProduct</text>
<polyline fill="none" stroke="#000000" points="1119.8254,-873.5 1367.55,-873.5 "/>
<text text-anchor="start" x="1127.8254" y="-858.3" font-family="Times,serif" font-size="14.00" fill="#000000">id :uuid</text>
<text text-anchor="start" x="1127.8254" y="-844.3" font-family="Times,serif" font-size="14.00" fill="#000000">parent_id :uuid</text>
<text text-anchor="start" x="1127.8254" y="-830.3" font-family="Times,serif" font-size="14.00" fill="#000000">child_id :uuid</text>
<text text-anchor="start" x="1127.8254" y="-816.3" font-family="Times,serif" font-size="14.00" fill="#000000">created_at :timestamp without time zone</text>
<text text-anchor="start" x="1127.8254" y="-802.3" font-family="Times,serif" font-size="14.00" fill="#000000">updated_at :timestamp without time zone</text>
</g>
<!-- Product&#45;&gt;SubProduct -->
<g id="edge8" class="edge">
<title>Product&#45;&gt;SubProduct</title>
<path fill="none" stroke="#12554f" d="M1432.6494,-1089.7721C1429.9264,-1085.8143 1427.242,-1081.884 1424.6116,-1078 1390.6744,-1027.8895 1388.5169,-1011.0251 1351.6877,-963 1336.1231,-942.7037 1317.7403,-921.7665 1300.5958,-903.2897"/>
<ellipse fill="none" stroke="#12554f" cx="1434.9923" cy="-1093.1642" rx="4" ry="4"/>
<polygon fill="#12554f" stroke="#12554f" points="1300.1682,-902.8327 1296.6216,-892.4562 1296.752,-899.1817 1293.3358,-895.5307 1293.3358,-895.5307 1293.3358,-895.5307 1296.752,-899.1817 1290.0499,-898.6053 1300.1682,-902.8327 1300.1682,-902.8327"/>
<text text-anchor="middle" x="1475.2258" y="-1016.3" font-family="Times,serif" font-size="14.00" fill="#000000">children_relations</text>
</g>
<!-- Product&#45;&gt;SubProduct -->
<g id="edge9" class="edge">
<title>Product&#45;&gt;SubProduct</title>
<path fill="none" stroke="#96cc09" d="M1382.341,-1177.7598C1334.5862,-1155.4179 1286.4994,-1123.2796 1257.5012,-1078 1224.7564,-1026.8701 1225.6719,-955.7322 1232.0264,-905.6479"/>
<ellipse fill="none" stroke="#96cc09" cx="1386.0531" cy="-1179.4588" rx="4" ry="4"/>
<polygon fill="#96cc09" stroke="#96cc09" points="1232.0445,-905.5162 1237.866,-896.2232 1232.7262,-900.5629 1233.408,-895.6096 1233.408,-895.6096 1233.408,-895.6096 1232.7262,-900.5629 1228.95,-894.996 1232.0445,-905.5162 1232.0445,-905.5162"/>
<text text-anchor="middle" x="1302.781" y="-1016.3" font-family="Times,serif" font-size="14.00" fill="#000000">parent_relations</text>
</g>
<!-- Build -->
<g id="node26" class="node">
<title>Build</title>
<path fill="none" stroke="#000000" d="M1703.7634,-746.5C1703.7634,-746.5 1937.6121,-746.5 1937.6121,-746.5 1943.6121,-746.5 1949.6121,-752.5 1949.6121,-758.5 1949.6121,-758.5 1949.6121,-932.5 1949.6121,-932.5 1949.6121,-938.5 1943.6121,-944.5 1937.6121,-944.5 1937.6121,-944.5 1703.7634,-944.5 1703.7634,-944.5 1697.7634,-944.5 1691.7634,-938.5 1691.7634,-932.5 1691.7634,-932.5 1691.7634,-758.5 1691.7634,-758.5 1691.7634,-752.5 1697.7634,-746.5 1703.7634,-746.5"/>
<text text-anchor="middle" x="1820.6877" y="-929.3" font-family="Times,serif" font-size="14.00" fill="#000000">Build</text>
<polyline fill="none" stroke="#000000" points="1691.7634,-922.5 1949.6121,-922.5 "/>
<text text-anchor="start" x="1699.7634" y="-907.3" font-family="Times,serif" font-size="14.00" fill="#000000">updated_at :timestamp without time zone</text>
<text text-anchor="start" x="1699.7634" y="-893.3" font-family="Times,serif" font-size="14.00" fill="#000000">product_id :uuid</text>
<text text-anchor="start" x="1699.7634" y="-879.3" font-family="Times,serif" font-size="14.00" fill="#000000">product_version :character varying</text>
<text text-anchor="start" x="1699.7634" y="-865.3" font-family="Times,serif" font-size="14.00" fill="#000000">version :character varying</text>
<text text-anchor="start" x="1699.7634" y="-851.3" font-family="Times,serif" font-size="14.00" fill="#000000">container_repository :character varying</text>
<text text-anchor="start" x="1699.7634" y="-837.3" font-family="Times,serif" font-size="14.00" fill="#000000">container_tag :character varying</text>
<text text-anchor="start" x="1699.7634" y="-823.3" font-family="Times,serif" font-size="14.00" fill="#000000">validated_at :timestamp without time zone</text>
<text text-anchor="start" x="1699.7634" y="-809.3" font-family="Times,serif" font-size="14.00" fill="#000000">published_at :timestamp without time zone</text>
<text text-anchor="start" x="1699.7634" y="-795.3" font-family="Times,serif" font-size="14.00" fill="#000000">permissions :json</text>
<text text-anchor="start" x="1699.7634" y="-781.3" font-family="Times,serif" font-size="14.00" fill="#000000">release_notes :text</text>
<text text-anchor="start" x="1699.7634" y="-767.3" font-family="Times,serif" font-size="14.00" fill="#000000">created_at :timestamp without time zone</text>
<text text-anchor="start" x="1699.7634" y="-753.3" font-family="Times,serif" font-size="14.00" fill="#000000">id :uuid</text>
</g>
<!-- Product&#45;&gt;Build -->
<g id="edge5" class="edge">
<title>Product&#45;&gt;Build</title>
<path fill="none" stroke="#6b36ab" d="M1632.5291,-1089.9123C1667.0924,-1045.0156 1705.1788,-995.5426 1737.9917,-952.9197"/>
<ellipse fill="none" stroke="#6b36ab" cx="1630.0388" cy="-1093.1472" rx="4" ry="4"/>
<polygon fill="#6b36ab" stroke="#6b36ab" points="1738.1677,-952.691 1747.8336,-947.5121 1741.2178,-948.729 1744.2679,-944.767 1744.2679,-944.767 1744.2679,-944.767 1741.2178,-948.729 1740.7021,-942.022 1738.1677,-952.691 1738.1677,-952.691"/>
</g>
<!-- Group -->
<g id="node11" class="node">
<title>Group</title>
<path fill="none" stroke="#000000" d="M427.8254,-381.5C427.8254,-381.5 651.55,-381.5 651.55,-381.5 657.55,-381.5 663.55,-387.5 663.55,-393.5 663.55,-393.5 663.55,-469.5 663.55,-469.5 663.55,-475.5 657.55,-481.5 651.55,-481.5 651.55,-481.5 427.8254,-481.5 427.8254,-481.5 421.8254,-481.5 415.8254,-475.5 415.8254,-469.5 415.8254,-469.5 415.8254,-393.5 415.8254,-393.5 415.8254,-387.5 421.8254,-381.5 427.8254,-381.5"/>
<text text-anchor="middle" x="539.6877" y="-466.3" font-family="Times,serif" font-size="14.00" fill="#000000">Group</text>
<polyline fill="none" stroke="#000000" points="415.8254,-459.5 663.55,-459.5 "/>
<text text-anchor="start" x="423.8254" y="-444.3" font-family="Times,serif" font-size="14.00" fill="#000000">id :uuid</text>
<text text-anchor="start" x="423.8254" y="-430.3" font-family="Times,serif" font-size="14.00" fill="#000000">name :character varying</text>
<text text-anchor="start" x="423.8254" y="-416.3" font-family="Times,serif" font-size="14.00" fill="#000000">description :text</text>
<text text-anchor="start" x="423.8254" y="-402.3" font-family="Times,serif" font-size="14.00" fill="#000000">created_at :timestamp without time zone</text>
<text text-anchor="start" x="423.8254" y="-388.3" font-family="Times,serif" font-size="14.00" fill="#000000">updated_at :timestamp without time zone</text>
</g>
<!-- Group&#45;&gt;Appointment -->
<g id="edge14" class="edge">
<title>Group&#45;&gt;Appointment</title>
<path fill="none" stroke="#1d5135" d="M506.0921,-374.3285C493.0112,-352.0679 477.9401,-326.4207 464.4067,-303.3902"/>
<ellipse fill="none" stroke="#1d5135" cx="508.1551" cy="-377.8392" rx="4" ry="4"/>
<polygon fill="#1d5135" stroke="#1d5135" points="464.3689,-303.3258 463.1823,-292.4243 461.8357,-299.015 459.3026,-294.7041 459.3026,-294.7041 459.3026,-294.7041 461.8357,-299.015 455.4228,-296.984 464.3689,-303.3258 464.3689,-303.3258"/>
</g>
<!-- Claim -->
<g id="node13" class="node">
<title>Claim</title>
<path fill="none" stroke="#000000" d="M845.4426,-166.5C845.4426,-166.5 1083.9329,-166.5 1083.9329,-166.5 1089.9329,-166.5 1095.9329,-172.5 1095.9329,-178.5 1095.9329,-178.5 1095.9329,-296.5 1095.9329,-296.5 1095.9329,-302.5 1089.9329,-308.5 1083.9329,-308.5 1083.9329,-308.5 845.4426,-308.5 845.4426,-308.5 839.4426,-308.5 833.4426,-302.5 833.4426,-296.5 833.4426,-296.5 833.4426,-178.5 833.4426,-178.5 833.4426,-172.5 839.4426,-166.5 845.4426,-166.5"/>
<text text-anchor="middle" x="964.6877" y="-293.3" font-family="Times,serif" font-size="14.00" fill="#000000">Claim</text>
<polyline fill="none" stroke="#000000" points="833.4426,-286.5 1095.9329,-286.5 "/>
<text text-anchor="start" x="841.4426" y="-271.3" font-family="Times,serif" font-size="14.00" fill="#000000">updated_at :timestamp without time zone</text>
<text text-anchor="start" x="841.4426" y="-257.3" font-family="Times,serif" font-size="14.00" fill="#000000">claimant_id :uuid</text>
<text text-anchor="start" x="841.4426" y="-243.3" font-family="Times,serif" font-size="14.00" fill="#000000">claimant_type :character varying</text>
<text text-anchor="start" x="841.4426" y="-229.3" font-family="Times,serif" font-size="14.00" fill="#000000">entitlement_id :uuid</text>
<text text-anchor="start" x="841.4426" y="-215.3" font-family="Times,serif" font-size="14.00" fill="#000000">authorization_count :integer</text>
<text text-anchor="start" x="841.4426" y="-201.3" font-family="Times,serif" font-size="14.00" fill="#000000">authorized_at :timestamp without time zone</text>
<text text-anchor="start" x="841.4426" y="-187.3" font-family="Times,serif" font-size="14.00" fill="#000000">created_at :timestamp without time zone</text>
<text text-anchor="start" x="841.4426" y="-173.3" font-family="Times,serif" font-size="14.00" fill="#000000">id :uuid</text>
</g>
<!-- Group&#45;&gt;Claim -->
<g id="edge15" class="edge">
<title>Group&#45;&gt;Claim</title>
<path fill="none" stroke="#bb71aa" d="M617.3063,-376.9431C646.8904,-358.4708 681.6903,-339.3999 715.6877,-327 759.023,-311.1944 775.9726,-322.7459 823.6584,-309.0197"/>
<ellipse fill="none" stroke="#bb71aa" cx="613.6769" cy="-379.2349" rx="4" ry="4"/>
<polygon fill="#bb71aa" stroke="#bb71aa" points="823.7254,-308.999 834.6096,-310.3348 828.501,-307.5179 833.2766,-306.0367 833.2766,-306.0367 833.2766,-306.0367 828.501,-307.5179 831.9436,-301.7387 823.7254,-308.999 823.7254,-308.999"/>
</g>
<!-- Member -->
<g id="node14" class="node">
<title>Member</title>
<path fill="none" stroke="#000000" d="M579.8254,-187.5C579.8254,-187.5 803.55,-187.5 803.55,-187.5 809.55,-187.5 815.55,-193.5 815.55,-199.5 815.55,-199.5 815.55,-275.5 815.55,-275.5 815.55,-281.5 809.55,-287.5 803.55,-287.5 803.55,-287.5 579.8254,-287.5 579.8254,-287.5 573.8254,-287.5 567.8254,-281.5 567.8254,-275.5 567.8254,-275.5 567.8254,-199.5 567.8254,-199.5 567.8254,-193.5 573.8254,-187.5 579.8254,-187.5"/>
<text text-anchor="middle" x="691.6877" y="-272.3" font-family="Times,serif" font-size="14.00" fill="#000000">Member</text>
<polyline fill="none" stroke="#000000" points="567.8254,-265.5 815.55,-265.5 "/>
<text text-anchor="start" x="575.8254" y="-250.3" font-family="Times,serif" font-size="14.00" fill="#000000">id :uuid</text>
<text text-anchor="start" x="575.8254" y="-236.3" font-family="Times,serif" font-size="14.00" fill="#000000">group_id :uuid</text>
<text text-anchor="start" x="575.8254" y="-222.3" font-family="Times,serif" font-size="14.00" fill="#000000">user_id :uuid</text>
<text text-anchor="start" x="575.8254" y="-208.3" font-family="Times,serif" font-size="14.00" fill="#000000">created_at :timestamp without time zone</text>
<text text-anchor="start" x="575.8254" y="-194.3" font-family="Times,serif" font-size="14.00" fill="#000000">updated_at :timestamp without time zone</text>
</g>
<!-- Group&#45;&gt;Member -->
<g id="edge12" class="edge">
<title>Group&#45;&gt;Member</title>
<path fill="none" stroke="#e7a331" d="M584.152,-374.7495C603.69,-349.8129 626.608,-320.5623 646.2555,-295.4859"/>
<ellipse fill="none" stroke="#e7a331" cx="581.4962" cy="-378.1392" rx="4" ry="4"/>
<polygon fill="#e7a331" stroke="#e7a331" points="646.3437,-295.3733 656.0534,-290.2771 649.4274,-291.4375 652.5112,-287.5017 652.5112,-287.5017 652.5112,-287.5017 649.4274,-291.4375 648.9689,-284.7263 646.3437,-295.3733 646.3437,-295.3733"/>
</g>
<!-- User -->
<g id="node28" class="node">
<title>User</title>
<path fill="none" stroke="#000000" d="M660.8254,-1409.5C660.8254,-1409.5 884.55,-1409.5 884.55,-1409.5 890.55,-1409.5 896.55,-1415.5 896.55,-1421.5 896.55,-1421.5 896.55,-1553.5 896.55,-1553.5 896.55,-1559.5 890.55,-1565.5 884.55,-1565.5 884.55,-1565.5 660.8254,-1565.5 660.8254,-1565.5 654.8254,-1565.5 648.8254,-1559.5 648.8254,-1553.5 648.8254,-1553.5 648.8254,-1421.5 648.8254,-1421.5 648.8254,-1415.5 654.8254,-1409.5 660.8254,-1409.5"/>
<text text-anchor="middle" x="772.6877" y="-1550.3" font-family="Times,serif" font-size="14.00" fill="#000000">User</text>
<polyline fill="none" stroke="#000000" points="648.8254,-1543.5 896.55,-1543.5 "/>
<text text-anchor="start" x="656.8254" y="-1528.3" font-family="Times,serif" font-size="14.00" fill="#000000">updated_at :timestamp without time zone</text>
<text text-anchor="start" x="656.8254" y="-1514.3" font-family="Times,serif" font-size="14.00" fill="#000000">name :character varying</text>
<text text-anchor="start" x="656.8254" y="-1500.3" font-family="Times,serif" font-size="14.00" fill="#000000">external_id :character varying</text>
<text text-anchor="start" x="656.8254" y="-1486.3" font-family="Times,serif" font-size="14.00" fill="#000000">salutation :character varying</text>
<text text-anchor="start" x="656.8254" y="-1472.3" font-family="Times,serif" font-size="14.00" fill="#000000">first_name :character varying</text>
<text text-anchor="start" x="656.8254" y="-1458.3" font-family="Times,serif" font-size="14.00" fill="#000000">middle_name :character varying</text>
<text text-anchor="start" x="656.8254" y="-1444.3" font-family="Times,serif" font-size="14.00" fill="#000000">last_name :character varying</text>
<text text-anchor="start" x="656.8254" y="-1430.3" font-family="Times,serif" font-size="14.00" fill="#000000">created_at :timestamp without time zone</text>
<text text-anchor="start" x="656.8254" y="-1416.3" font-family="Times,serif" font-size="14.00" fill="#000000">id :uuid</text>
</g>
<!-- Group&#45;&gt;User -->
<g id="edge13" class="edge">
<title>Group&#45;&gt;User</title>
<path fill="none" stroke="#82b707" d="M555.7424,-491.3635C564.9467,-530.8538 574.6877,-583.8934 574.6877,-631.5 574.6877,-1223.5 574.6877,-1223.5 574.6877,-1223.5 574.6877,-1293.693 592.5645,-1313.1147 633.6877,-1370 641.732,-1381.1275 651.0501,-1391.8628 660.978,-1402.0184"/>
<polygon fill="#82b707" stroke="#82b707" points="555.7403,-491.3542 557.7974,-480.583 554.5803,-486.4906 553.4202,-481.627 553.4202,-481.627 553.4202,-481.627 554.5803,-486.4906 549.043,-482.6711 555.7403,-491.3542 555.7403,-491.3542"/>
<polygon fill="#82b707" stroke="#82b707" points="661.216,-1402.2552 665.1315,-1412.4983 664.7607,-1405.7817 668.3053,-1409.3081 668.3053,-1409.3081 668.3053,-1409.3081 664.7607,-1405.7817 671.4791,-1406.118 661.216,-1402.2552 661.216,-1402.2552"/>
</g>
<!-- Platform -->
<g id="node12" class="node">
<title>Platform</title>
<path fill="none" stroke="#000000" d="M764.8254,-963.5C764.8254,-963.5 988.55,-963.5 988.55,-963.5 994.55,-963.5 1000.55,-969.5 1000.55,-975.5 1000.55,-975.5 1000.55,-1065.5 1000.55,-1065.5 1000.55,-1071.5 994.55,-1077.5 988.55,-1077.5 988.55,-1077.5 764.8254,-1077.5 764.8254,-1077.5 758.8254,-1077.5 752.8254,-1071.5 752.8254,-1065.5 752.8254,-1065.5 752.8254,-975.5 752.8254,-975.5 752.8254,-969.5 758.8254,-963.5 764.8254,-963.5"/>
<text text-anchor="middle" x="876.6877" y="-1062.3" font-family="Times,serif" font-size="14.00" fill="#000000">Platform</text>
<polyline fill="none" stroke="#000000" points="752.8254,-1055.5 1000.55,-1055.5 "/>
<text text-anchor="start" x="760.8254" y="-1040.3" font-family="Times,serif" font-size="14.00" fill="#000000">id :uuid</text>
<text text-anchor="start" x="760.8254" y="-1026.3" font-family="Times,serif" font-size="14.00" fill="#000000">name :character varying</text>
<text text-anchor="start" x="760.8254" y="-1012.3" font-family="Times,serif" font-size="14.00" fill="#000000">user_id :uuid</text>
<text text-anchor="start" x="760.8254" y="-998.3" font-family="Times,serif" font-size="14.00" fill="#000000">public_key :text</text>
<text text-anchor="start" x="760.8254" y="-984.3" font-family="Times,serif" font-size="14.00" fill="#000000">created_at :timestamp without time zone</text>
<text text-anchor="start" x="760.8254" y="-970.3" font-family="Times,serif" font-size="14.00" fill="#000000">updated_at :timestamp without time zone</text>
</g>
<!-- Instance -->
<g id="node25" class="node">
<title>Instance</title>
<path fill="none" stroke="#000000" d="M769.3254,-567.5C769.3254,-567.5 1000.05,-567.5 1000.05,-567.5 1006.05,-567.5 1012.05,-573.5 1012.05,-579.5 1012.05,-579.5 1012.05,-683.5 1012.05,-683.5 1012.05,-689.5 1006.05,-695.5 1000.05,-695.5 1000.05,-695.5 769.3254,-695.5 769.3254,-695.5 763.3254,-695.5 757.3254,-689.5 757.3254,-683.5 757.3254,-683.5 757.3254,-579.5 757.3254,-579.5 757.3254,-573.5 763.3254,-567.5 769.3254,-567.5"/>
<text text-anchor="middle" x="884.6877" y="-680.3" font-family="Times,serif" font-size="14.00" fill="#000000">Instance</text>
<polyline fill="none" stroke="#000000" points="757.3254,-673.5 1012.05,-673.5 "/>
<text text-anchor="start" x="765.3254" y="-658.3" font-family="Times,serif" font-size="14.00" fill="#000000">id :uuid</text>
<text text-anchor="start" x="765.3254" y="-644.3" font-family="Times,serif" font-size="14.00" fill="#000000">platform_id :uuid</text>
<text text-anchor="start" x="765.3254" y="-630.3" font-family="Times,serif" font-size="14.00" fill="#000000">build_id :uuid</text>
<text text-anchor="start" x="765.3254" y="-616.3" font-family="Times,serif" font-size="14.00" fill="#000000">launch_bindings :json</text>
<text text-anchor="start" x="765.3254" y="-602.3" font-family="Times,serif" font-size="14.00" fill="#000000">deployed_at :timestamp without time zone</text>
<text text-anchor="start" x="765.3254" y="-588.3" font-family="Times,serif" font-size="14.00" fill="#000000">created_at :timestamp without time zone</text>
<text text-anchor="start" x="765.3254" y="-574.3" font-family="Times,serif" font-size="14.00" fill="#000000">updated_at :timestamp without time zone</text>
</g>
<!-- Platform&#45;&gt;Instance -->
<g id="edge16" class="edge">
<title>Platform&#45;&gt;Instance</title>
<path fill="none" stroke="#141a56" d="M878.0359,-954.9467C879.4519,-886.0921 881.6749,-778.0003 883.1562,-705.9697"/>
<ellipse fill="none" stroke="#141a56" cx="877.9505" cy="-959.1026" rx="4" ry="4"/>
<polygon fill="#141a56" stroke="#141a56" points="883.1635,-705.6107 887.8683,-695.7054 883.2664,-700.6118 883.3692,-695.6128 883.3692,-695.6128 883.3692,-695.6128 883.2664,-700.6118 878.8702,-695.5203 883.1635,-705.6107 883.1635,-705.6107"/>
</g>
<!-- Attempt -->
<g id="node27" class="node">
<title>Attempt</title>
<path fill="none" stroke="#000000" d="M173.8254,-.5C173.8254,-.5 397.55,-.5 397.55,-.5 403.55,-.5 409.55,-6.5 409.55,-12.5 409.55,-12.5 409.55,-116.5 409.55,-116.5 409.55,-122.5 403.55,-128.5 397.55,-128.5 397.55,-128.5 173.8254,-128.5 173.8254,-128.5 167.8254,-128.5 161.8254,-122.5 161.8254,-116.5 161.8254,-116.5 161.8254,-12.5 161.8254,-12.5 161.8254,-6.5 167.8254,-.5 173.8254,-.5"/>
<text text-anchor="middle" x="285.6877" y="-113.3" font-family="Times,serif" font-size="14.00" fill="#000000">Attempt</text>
<polyline fill="none" stroke="#000000" points="161.8254,-106.5 409.55,-106.5 "/>
<text text-anchor="start" x="169.8254" y="-91.3" font-family="Times,serif" font-size="14.00" fill="#000000">id :uuid</text>
<text text-anchor="start" x="169.8254" y="-77.3" font-family="Times,serif" font-size="14.00" fill="#000000">claim_id :uuid</text>
<text text-anchor="start" x="169.8254" y="-63.3" font-family="Times,serif" font-size="14.00" fill="#000000">claimant_id :uuid</text>
<text text-anchor="start" x="169.8254" y="-49.3" font-family="Times,serif" font-size="14.00" fill="#000000">claimant_type :character varying</text>
<text text-anchor="start" x="169.8254" y="-35.3" font-family="Times,serif" font-size="14.00" fill="#000000">product_id :uuid</text>
<text text-anchor="start" x="169.8254" y="-21.3" font-family="Times,serif" font-size="14.00" fill="#000000">created_at :timestamp without time zone</text>
<text text-anchor="start" x="169.8254" y="-7.3" font-family="Times,serif" font-size="14.00" fill="#000000">updated_at :timestamp without time zone</text>
</g>
<!-- Claim&#45;&gt;Attempt -->
<g id="edge17" class="edge">
<title>Claim&#45;&gt;Attempt</title>
<path fill="none" stroke="#b89a58" d="M825.4871,-166.2742C825.2205,-166.1824 824.9541,-166.091 824.6877,-166 690.776,-120.258 530.6998,-93.4187 419.9638,-78.9504"/>
<ellipse fill="none" stroke="#b89a58" cx="829.481" cy="-167.7034" rx="4" ry="4"/>
<polygon fill="#b89a58" stroke="#b89a58" points="419.6571,-78.9109 410.3151,-73.1683 414.6982,-78.2711 409.7393,-77.6313 409.7393,-77.6313 409.7393,-77.6313 414.6982,-78.2711 409.1635,-82.0943 419.6571,-78.9109 419.6571,-78.9109"/>
</g>
<!-- ProductLicense&#45;&gt;Voucher -->
<g id="edge19" class="edge">
<title>ProductLicense&#45;&gt;Voucher</title>
<path fill="none" stroke="#c1cb89" d="M2012.6733,-783.3962C1995.2318,-770.5385 1976.6053,-757.4377 1958.6877,-746 1811.3472,-651.9446 1633.4091,-558.8543 1512.9627,-498.6537"/>
<ellipse fill="none" stroke="#c1cb89" cx="2016.3395" cy="-786.116" rx="4" ry="4"/>
<polygon fill="#c1cb89" stroke="#c1cb89" points="1512.6158,-498.4807 1505.6767,-489.9895 1508.1417,-496.2484 1503.6677,-494.0162 1503.6677,-494.0162 1503.6677,-494.0162 1508.1417,-496.2484 1501.6586,-498.0429 1512.6158,-498.4807 1512.6158,-498.4807"/>
</g>
<!-- ProductLicense&#45;&gt;Entitlement -->
<g id="edge18" class="edge">
<title>ProductLicense&#45;&gt;Entitlement</title>
<path fill="none" stroke="#9e031f" d="M2024.2633,-783.4256C2004.4822,-768.595 1981.8921,-754.587 1958.6877,-746 1845.8967,-704.2606 1805.7557,-755.5516 1688.6877,-728 1653.3035,-719.6724 1616.3836,-706.4861 1582.7082,-692.5046"/>
<ellipse fill="none" stroke="#9e031f" cx="2027.6856" cy="-786.0473" rx="4" ry="4"/>
<polygon fill="#9e031f" stroke="#9e031f" points="1582.5164,-692.424 1575.0462,-684.3961 1577.9082,-690.4837 1573.3,-688.5434 1573.3,-688.5434 1573.3,-688.5434 1577.9082,-690.4837 1571.5538,-692.6908 1582.5164,-692.424 1582.5164,-692.424"/>
</g>
<!-- Role -->
<g id="node17" class="node">
<title>Role</title>
<path fill="none" stroke="#000000" d="M237.8254,-1624.5C237.8254,-1624.5 461.55,-1624.5 461.55,-1624.5 467.55,-1624.5 473.55,-1630.5 473.55,-1636.5 473.55,-1636.5 473.55,-1740.5 473.55,-1740.5 473.55,-1746.5 467.55,-1752.5 461.55,-1752.5 461.55,-1752.5 237.8254,-1752.5 237.8254,-1752.5 231.8254,-1752.5 225.8254,-1746.5 225.8254,-1740.5 225.8254,-1740.5 225.8254,-1636.5 225.8254,-1636.5 225.8254,-1630.5 231.8254,-1624.5 237.8254,-1624.5"/>
<text text-anchor="middle" x="349.6877" y="-1737.3" font-family="Times,serif" font-size="14.00" fill="#000000">Role</text>
<polyline fill="none" stroke="#000000" points="225.8254,-1730.5 473.55,-1730.5 "/>
<text text-anchor="start" x="233.8254" y="-1715.3" font-family="Times,serif" font-size="14.00" fill="#000000">id :uuid</text>
<text text-anchor="start" x="233.8254" y="-1701.3" font-family="Times,serif" font-size="14.00" fill="#000000">name :character varying</text>
<text text-anchor="start" x="233.8254" y="-1687.3" font-family="Times,serif" font-size="14.00" fill="#000000">description :text</text>
<text text-anchor="start" x="233.8254" y="-1673.3" font-family="Times,serif" font-size="14.00" fill="#000000">default :boolean</text>
<text text-anchor="start" x="233.8254" y="-1659.3" font-family="Times,serif" font-size="14.00" fill="#000000">created_at :timestamp without time zone</text>
<text text-anchor="start" x="233.8254" y="-1645.3" font-family="Times,serif" font-size="14.00" fill="#000000">updated_at :timestamp without time zone</text>
<text text-anchor="start" x="233.8254" y="-1631.3" font-family="Times,serif" font-size="14.00" fill="#000000">permissions :json</text>
</g>
<!-- Role&#45;&gt;Appointment -->
<g id="edge20" class="edge">
<title>Role&#45;&gt;Appointment</title>
<path fill="none" stroke="#76cb03" d="M286.1189,-1617.65C259.9687,-1581.3576 235.6877,-1534.8976 235.6877,-1487.5 235.6877,-1487.5 235.6877,-1487.5 235.6877,-431.5 235.6877,-377.8 273.305,-333.479 315.0635,-300.8224"/>
<ellipse fill="none" stroke="#76cb03" cx="288.6469" cy="-1621.0848" rx="4" ry="4"/>
<polygon fill="#76cb03" stroke="#76cb03" points="315.2182,-300.7049 325.9028,-298.2372 319.1991,-297.6796 323.1801,-294.6543 323.1801,-294.6543 323.1801,-294.6543 319.1991,-297.6796 320.4573,-291.0715 315.2182,-300.7049 315.2182,-300.7049"/>
</g>
<!-- Role&#45;&gt;Group -->
<g id="edge22" class="edge">
<title>Role&#45;&gt;Group</title>
<path fill="none" stroke="#c08dfc" d="M349.6877,-1613.8008C349.6877,-1575.9562 349.6877,-1529.285 349.6877,-1487.5 349.6877,-1487.5 349.6877,-1487.5 349.6877,-631.5 349.6877,-571.4105 395.3262,-522.1808 441.8679,-487.5996"/>
<polygon fill="#c08dfc" stroke="#c08dfc" points="349.6878,-1614.2294 345.1877,-1624.2294 349.6878,-1619.2294 349.6877,-1624.2294 349.6877,-1624.2294 349.6877,-1624.2294 349.6878,-1619.2294 354.1877,-1624.2295 349.6878,-1614.2294 349.6878,-1614.2294"/>
<polygon fill="#c08dfc" stroke="#c08dfc" points="442.1514,-487.3944 452.8903,-485.1749 446.2014,-484.4622 450.2513,-481.53 450.2513,-481.53 450.2513,-481.53 446.2014,-484.4622 447.6123,-477.885 442.1514,-487.3944 442.1514,-487.3944"/>
</g>
<!-- Role&#45;&gt;User -->
<g id="edge21" class="edge">
<title>Role&#45;&gt;User</title>
<path fill="none" stroke="#5fd6d4" d="M482.4054,-1624.1349C482.4996,-1624.0899 482.5937,-1624.0449 482.6877,-1624 533.854,-1599.5524 590.2388,-1572.9385 639.5793,-1549.757"/>
<polygon fill="#5fd6d4" stroke="#5fd6d4" points="482.5772,-1624.0526 471.6144,-1624.3107 478.0672,-1626.2112 473.5571,-1628.3698 473.5571,-1628.3698 473.5571,-1628.3698 478.0672,-1626.2112 475.4998,-1632.4289 482.5772,-1624.0526 482.5772,-1624.0526"/>
<polygon fill="#5fd6d4" stroke="#5fd6d4" points="639.656,-1549.721 650.6205,-1549.5429 644.1817,-1547.5954 648.7074,-1545.4697 648.7074,-1545.4697 648.7074,-1545.4697 644.1817,-1547.5954 646.7943,-1541.3966 639.656,-1549.721 639.656,-1549.721"/>
</g>
<!-- Interface -->
<g id="node18" class="node">
<title>Interface</title>
<path fill="none" stroke="#000000" d="M2600.8254,-781.5C2600.8254,-781.5 2824.55,-781.5 2824.55,-781.5 2830.55,-781.5 2836.55,-787.5 2836.55,-793.5 2836.55,-793.5 2836.55,-897.5 2836.55,-897.5 2836.55,-903.5 2830.55,-909.5 2824.55,-909.5 2824.55,-909.5 2600.8254,-909.5 2600.8254,-909.5 2594.8254,-909.5 2588.8254,-903.5 2588.8254,-897.5 2588.8254,-897.5 2588.8254,-793.5 2588.8254,-793.5 2588.8254,-787.5 2594.8254,-781.5 2600.8254,-781.5"/>
<text text-anchor="middle" x="2712.6877" y="-894.3" font-family="Times,serif" font-size="14.00" fill="#000000">Interface</text>
<polyline fill="none" stroke="#000000" points="2588.8254,-887.5 2836.55,-887.5 "/>
<text text-anchor="start" x="2596.8254" y="-872.3" font-family="Times,serif" font-size="14.00" fill="#000000">id :uuid</text>
<text text-anchor="start" x="2596.8254" y="-858.3" font-family="Times,serif" font-size="14.00" fill="#000000">name :character varying</text>
<text text-anchor="start" x="2596.8254" y="-844.3" font-family="Times,serif" font-size="14.00" fill="#000000">uri :character varying</text>
<text text-anchor="start" x="2596.8254" y="-830.3" font-family="Times,serif" font-size="14.00" fill="#000000">version :character varying</text>
<text text-anchor="start" x="2596.8254" y="-816.3" font-family="Times,serif" font-size="14.00" fill="#000000">ordinal :integer</text>
<text text-anchor="start" x="2596.8254" y="-802.3" font-family="Times,serif" font-size="14.00" fill="#000000">created_at :timestamp without time zone</text>
<text text-anchor="start" x="2596.8254" y="-788.3" font-family="Times,serif" font-size="14.00" fill="#000000">updated_at :timestamp without time zone</text>
</g>
<!-- Interface&#45;&gt;Dependency -->
<g id="edge28" class="edge">
<title>Interface&#45;&gt;Dependency</title>
<path fill="none" stroke="#b03880" d="M2631.7098,-776.4661C2599.9461,-752.9286 2561.9644,-728.8344 2523.6877,-714 2466.8364,-691.9669 2447.8851,-705.6858 2387.6877,-696 2319.5582,-685.0379 2244.1231,-670.929 2181.6516,-658.7034"/>
<ellipse fill="none" stroke="#b03880" cx="2635.1912" cy="-779.0769" rx="4" ry="4"/>
<polygon fill="#b03880" stroke="#b03880" points="2181.5525,-658.6841 2172.6063,-652.3425 2176.6461,-657.7212 2171.7397,-656.7582 2171.7397,-656.7582 2171.7397,-656.7582 2176.6461,-657.7212 2170.8731,-661.174 2181.5525,-658.6841 2181.5525,-658.6841"/>
</g>
<!-- Interface&#45;&gt;Surrogate -->
<g id="edge23" class="edge">
<title>Interface&#45;&gt;Surrogate</title>
<path fill="none" stroke="#51f35e" d="M2704.0424,-773.1963C2704.1081,-753.4679 2706.4981,-732.4561 2713.5706,-714 2716.7208,-705.7792 2721.0997,-697.849 2726.164,-690.3705"/>
<ellipse fill="none" stroke="#51f35e" cx="2704.0923" cy="-777.2679" rx="4" ry="4"/>
<polygon fill="#51f35e" stroke="#51f35e" points="2726.5094,-689.8956 2736.0306,-684.4553 2729.4504,-685.852 2732.3914,-681.8084 2732.3914,-681.8084 2732.3914,-681.8084 2729.4504,-685.852 2728.7521,-679.1615 2726.5094,-689.8956 2726.5094,-689.8956"/>
<text text-anchor="middle" x="2742.2463" y="-716.8" font-family="Times,serif" font-size="14.00" fill="#000000">substitutes</text>
</g>
<!-- Interface&#45;&gt;Surrogate -->
<g id="edge24" class="edge">
<title>Interface&#45;&gt;Surrogate</title>
<path fill="none" stroke="#b32b4d" d="M2753.8391,-774.044C2761.0468,-759.1972 2767.7931,-743.3808 2772.6877,-728 2776.3374,-716.5314 2779.0397,-703.9903 2781.0393,-691.8569"/>
<ellipse fill="none" stroke="#b32b4d" cx="2752.0455" cy="-777.6641" rx="4" ry="4"/>
<polygon fill="#b32b4d" stroke="#b32b4d" points="2781.0658,-691.6811 2787.0087,-682.4652 2781.8125,-686.7372 2782.5591,-681.7932 2782.5591,-681.7932 2782.5591,-681.7932 2781.8125,-686.7372 2778.1096,-681.1212 2781.0658,-691.6811 2781.0658,-691.6811"/>
</g>
<!-- Interface&#45;&gt;Interface -->
<g id="edge26" class="edge">
<title>Interface&#45;&gt;Interface</title>
<path fill="none" stroke="#fac624" d="M2844.1278,-860.4995C2850.6853,-856.7664 2854.55,-851.7666 2854.55,-845.5 2854.55,-839.8862 2851.4486,-835.289 2846.088,-831.7084"/>
<ellipse fill="none" stroke="#fac624" cx="2840.3682" cy="-862.1788" rx="4" ry="4"/>
<polygon fill="#fac624" stroke="#fac624" points="2845.7238,-831.5328 2838.6704,-823.1363 2841.2199,-829.3613 2836.716,-827.1898 2836.716,-827.1898 2836.716,-827.1898 2841.2199,-829.3613 2834.7617,-831.2432 2845.7238,-831.5328 2845.7238,-831.5328"/>
<text text-anchor="middle" x="2915.5881" y="-841.3" font-family="Times,serif" font-size="14.00" fill="#000000">substituted_interfaces</text>
</g>
<!-- Exposure -->
<g id="node19" class="node">
<title>Exposure</title>
<path fill="none" stroke="#000000" d="M2408.8254,-581.5C2408.8254,-581.5 2632.55,-581.5 2632.55,-581.5 2638.55,-581.5 2644.55,-587.5 2644.55,-593.5 2644.55,-593.5 2644.55,-669.5 2644.55,-669.5 2644.55,-675.5 2638.55,-681.5 2632.55,-681.5 2632.55,-681.5 2408.8254,-681.5 2408.8254,-681.5 2402.8254,-681.5 2396.8254,-675.5 2396.8254,-669.5 2396.8254,-669.5 2396.8254,-593.5 2396.8254,-593.5 2396.8254,-587.5 2402.8254,-581.5 2408.8254,-581.5"/>
<text text-anchor="middle" x="2520.6877" y="-666.3" font-family="Times,serif" font-size="14.00" fill="#000000">Exposure</text>
<polyline fill="none" stroke="#000000" points="2396.8254,-659.5 2644.55,-659.5 "/>
<text text-anchor="start" x="2404.8254" y="-644.3" font-family="Times,serif" font-size="14.00" fill="#000000">id :uuid</text>
<text text-anchor="start" x="2404.8254" y="-630.3" font-family="Times,serif" font-size="14.00" fill="#000000">build_id :uuid</text>
<text text-anchor="start" x="2404.8254" y="-616.3" font-family="Times,serif" font-size="14.00" fill="#000000">interface_id :uuid</text>
<text text-anchor="start" x="2404.8254" y="-602.3" font-family="Times,serif" font-size="14.00" fill="#000000">created_at :timestamp without time zone</text>
<text text-anchor="start" x="2404.8254" y="-588.3" font-family="Times,serif" font-size="14.00" fill="#000000">updated_at :timestamp without time zone</text>
</g>
<!-- Interface&#45;&gt;Exposure -->
<g id="edge27" class="edge">
<title>Interface&#45;&gt;Exposure</title>
<path fill="none" stroke="#c35166" d="M2649.6566,-775.2465C2624.7074,-747.4385 2596.3766,-715.8616 2572.6356,-689.4002"/>
<ellipse fill="none" stroke="#c35166" cx="2652.4102" cy="-778.3156" rx="4" ry="4"/>
<polygon fill="#c35166" stroke="#c35166" points="2572.4249,-689.1654 2569.0963,-678.7169 2569.0859,-685.4437 2565.7468,-681.7221 2565.7468,-681.7221 2565.7468,-681.7221 2569.0859,-685.4437 2562.3973,-684.7272 2572.4249,-689.1654 2572.4249,-689.1654"/>
</g>
<!-- SurrogatedInterface -->
<g id="node31" class="node">
<title>SurrogatedInterface</title>
<ellipse fill="none" stroke="#000000" cx="3008.6877" cy="-631.5" rx="80.1472" ry="18"/>
<text text-anchor="middle" x="3008.6877" y="-627.3" font-family="Times,serif" font-size="14.00" fill="#000000">SurrogatedInterface</text>
</g>
<!-- Interface&#45;&gt;SurrogatedInterface -->
<g id="edge25" class="edge">
<title>Interface&#45;&gt;SurrogatedInterface</title>
<path fill="none" stroke="#5c6e4f" d="M2809.8534,-775.3748C2844.524,-750.3395 2883.8603,-721.9201 2919.6877,-696 2938.5146,-682.3793 2959.5684,-667.1224 2976.4706,-654.8678"/>
<polygon fill="#5c6e4f" stroke="#5c6e4f" points="2809.7165,-775.4736 2798.9747,-777.6793 2805.6627,-778.4006 2801.609,-781.3277 2801.609,-781.3277 2801.609,-781.3277 2805.6627,-778.4006 2804.2433,-784.976 2809.7165,-775.4736 2809.7165,-775.4736"/>
<polygon fill="#5c6e4f" stroke="#5c6e4f" points="2976.8014,-654.628 2987.5387,-652.4008 2980.8492,-651.6928 2984.8971,-648.7577 2984.8971,-648.7577 2984.8971,-648.7577 2980.8492,-651.6928 2982.2555,-645.1146 2976.8014,-654.628 2976.8014,-654.628"/>
</g>
<!-- Exposure&#45;&gt;Parameter -->
<g id="edge29" class="edge">
<title>Exposure&#45;&gt;Parameter</title>
<path fill="none" stroke="#b91286" d="M2520.6877,-573.2064C2520.6877,-549.9524 2520.6877,-523.0327 2520.6877,-498.9426"/>
<ellipse fill="none" stroke="#b91286" cx="2520.6878" cy="-577.2897" rx="4" ry="4"/>
<polygon fill="#b91286" stroke="#b91286" points="2520.6878,-498.8104 2525.1877,-488.8104 2520.6878,-493.8104 2520.6877,-488.8104 2520.6877,-488.8104 2520.6877,-488.8104 2520.6878,-493.8104 2516.1877,-488.8104 2520.6878,-498.8104 2520.6878,-498.8104"/>
</g>
<!-- Ability -->
<g id="node20" class="node">
<title>Ability</title>
<polygon fill="none" stroke="#000000" points="491.8533,-1666.5 491.8533,-1710.5 547.5222,-1710.5 547.5222,-1666.5 491.8533,-1666.5"/>
<text text-anchor="middle" x="519.6877" y="-1695.3" font-family="Times,serif" font-size="14.00" fill="#000000">Ability</text>
<polyline fill="none" stroke="#000000" points="491.8533,-1688.5 547.5222,-1688.5 "/>
<text text-anchor="middle" x="519.6877" y="-1673.3" font-family="Times,serif" font-size="14.00" fill="#000000"> </text>
</g>
<!-- ApplicationRecord -->
<g id="node22" class="node">
<title>ApplicationRecord</title>
<ellipse fill="none" stroke="#000000" cx="642.6877" cy="-1688.5" rx="77.2916" ry="18"/>
<text text-anchor="middle" x="642.6877" y="-1684.3" font-family="Times,serif" font-size="14.00" fill="#000000">ApplicationRecord</text>
</g>
<!-- Entitlement&#45;&gt;Voucher -->
<g id="edge31" class="edge">
<title>Entitlement&#45;&gt;Voucher</title>
<path fill="none" stroke="#588d9c" d="M1451.4279,-566.2186C1449.3096,-555.5811 1446.4764,-544.8338 1442.6877,-535 1441.509,-531.9405 1440.2294,-528.8782 1438.8651,-525.8243"/>
<ellipse fill="none" stroke="#588d9c" cx="1452.191" cy="-570.3804" rx="4" ry="4"/>
<polygon fill="#588d9c" stroke="#588d9c" points="1438.822,-525.7334 1438.5998,-514.7697 1436.6782,-521.2162 1434.5344,-516.6991 1434.5344,-516.6991 1434.5344,-516.6991 1436.6782,-521.2162 1430.469,-518.6285 1438.822,-525.7334 1438.822,-525.7334"/>
</g>
<!-- Entitlement&#45;&gt;Group -->
<g id="edge33" class="edge">
<title>Entitlement&#45;&gt;Group</title>
<path fill="none" stroke="#748837" d="M1323.2251,-577.8794C1310.9731,-573.8771 1298.668,-570.1717 1286.6877,-567 1149.2317,-530.6089 1110.6733,-541.9499 970.6877,-517 870.9956,-499.2316 758.8053,-476.9014 673.883,-459.5177"/>
<polygon fill="#748837" stroke="#748837" points="1323.5455,-577.9861 1331.6094,-585.4174 1328.2889,-579.5672 1333.0324,-581.1483 1333.0324,-581.1483 1333.0324,-581.1483 1328.2889,-579.5672 1334.4553,-576.8792 1323.5455,-577.9861 1323.5455,-577.9861"/>
<polygon fill="#748837" stroke="#748837" points="673.7228,-459.4849 664.8302,-453.0683 668.8247,-458.4808 663.9265,-457.4766 663.9265,-457.4766 663.9265,-457.4766 668.8247,-458.4808 663.0228,-461.885 673.7228,-459.4849 673.7228,-459.4849"/>
<text text-anchor="middle" x="1252.4568" y="-537.8" font-family="Times,serif" font-size="14.00" fill="#000000">group_consumers</text>
</g>
<!-- Entitlement&#45;&gt;Claim -->
<g id="edge30" class="edge">
<title>Entitlement&#45;&gt;Claim</title>
<path fill="none" stroke="#72c929" d="M1496.8158,-567.3048C1529.7196,-504.1378 1563.9,-408.3461 1512.6877,-346 1462.1891,-284.5227 1251.3456,-257.2808 1106.4179,-245.6431"/>
<ellipse fill="none" stroke="#72c929" cx="1494.8961" cy="-570.9251" rx="4" ry="4"/>
<polygon fill="#72c929" stroke="#72c929" points="1106.0694,-245.6157 1096.4529,-240.3457 1101.0848,-245.2238 1096.1001,-244.8318 1096.1001,-244.8318 1096.1001,-244.8318 1101.0848,-245.2238 1095.7474,-249.318 1106.0694,-245.6157 1106.0694,-245.6157"/>
</g>
<!-- Entitlement&#45;&gt;User -->
<g id="edge32" class="edge">
<title>Entitlement&#45;&gt;User</title>
<path fill="none" stroke="#2fe765" d="M1333.895,-691.8658C1329.1428,-693.381 1324.3972,-694.7687 1319.6877,-696 1293.6015,-702.8205 1096.9135,-695.0955 1077.6877,-714 973.4646,-816.4816 1112.4579,-1249.5258 1029.6877,-1370 1000.7731,-1412.0861 952.8896,-1439.3728 906.2406,-1456.9374"/>
<polygon fill="#2fe765" stroke="#2fe765" points="1334.171,-691.7731 1345.0838,-692.8511 1338.9102,-690.1794 1343.6495,-688.5858 1343.6495,-688.5858 1343.6495,-688.5858 1338.9102,-690.1794 1342.2152,-684.3205 1334.171,-691.7731 1334.171,-691.7731"/>
<polygon fill="#2fe765" stroke="#2fe765" points="906.0224,-1457.0166 895.0869,-1456.2013 901.3229,-1458.7237 896.6233,-1460.4309 896.6233,-1460.4309 896.6233,-1460.4309 901.3229,-1458.7237 898.1598,-1464.6605 906.0224,-1457.0166 906.0224,-1457.0166"/>
<text text-anchor="middle" x="1099.0603" y="-1016.3" font-family="Times,serif" font-size="14.00" fill="#000000">direct_consumers</text>
</g>
<!-- Configuration -->
<g id="node24" class="node">
<title>Configuration</title>
<path fill="none" stroke="#000000" d="M1041.8254,-581.5C1041.8254,-581.5 1265.55,-581.5 1265.55,-581.5 1271.55,-581.5 1277.55,-587.5 1277.55,-593.5 1277.55,-593.5 1277.55,-669.5 1277.55,-669.5 1277.55,-675.5 1271.55,-681.5 1265.55,-681.5 1265.55,-681.5 1041.8254,-681.5 1041.8254,-681.5 1035.8254,-681.5 1029.8254,-675.5 1029.8254,-669.5 1029.8254,-669.5 1029.8254,-593.5 1029.8254,-593.5 1029.8254,-587.5 1035.8254,-581.5 1041.8254,-581.5"/>
<text text-anchor="middle" x="1153.6877" y="-666.3" font-family="Times,serif" font-size="14.00" fill="#000000">Configuration</text>
<polyline fill="none" stroke="#000000" points="1029.8254,-659.5 1277.55,-659.5 "/>
<text text-anchor="start" x="1037.8254" y="-644.3" font-family="Times,serif" font-size="14.00" fill="#000000">id :uuid</text>
<text text-anchor="start" x="1037.8254" y="-630.3" font-family="Times,serif" font-size="14.00" fill="#000000">build_id :uuid</text>
<text text-anchor="start" x="1037.8254" y="-616.3" font-family="Times,serif" font-size="14.00" fill="#000000">name :character varying</text>
<text text-anchor="start" x="1037.8254" y="-602.3" font-family="Times,serif" font-size="14.00" fill="#000000">created_at :timestamp without time zone</text>
<text text-anchor="start" x="1037.8254" y="-588.3" font-family="Times,serif" font-size="14.00" fill="#000000">updated_at :timestamp without time zone</text>
</g>
<!-- Task -->
<g id="node30" class="node">
<title>Task</title>
<path fill="none" stroke="#000000" d="M991.8254,-360.5C991.8254,-360.5 1215.55,-360.5 1215.55,-360.5 1221.55,-360.5 1227.55,-366.5 1227.55,-372.5 1227.55,-372.5 1227.55,-490.5 1227.55,-490.5 1227.55,-496.5 1221.55,-502.5 1215.55,-502.5 1215.55,-502.5 991.8254,-502.5 991.8254,-502.5 985.8254,-502.5 979.8254,-496.5 979.8254,-490.5 979.8254,-490.5 979.8254,-372.5 979.8254,-372.5 979.8254,-366.5 985.8254,-360.5 991.8254,-360.5"/>
<text text-anchor="middle" x="1103.6877" y="-487.3" font-family="Times,serif" font-size="14.00" fill="#000000">Task</text>
<polyline fill="none" stroke="#000000" points="979.8254,-480.5 1227.55,-480.5 "/>
<text text-anchor="start" x="987.8254" y="-465.3" font-family="Times,serif" font-size="14.00" fill="#000000">updated_at :timestamp without time zone</text>
<text text-anchor="start" x="987.8254" y="-451.3" font-family="Times,serif" font-size="14.00" fill="#000000">configuration_id :uuid</text>
<text text-anchor="start" x="987.8254" y="-437.3" font-family="Times,serif" font-size="14.00" fill="#000000">name :character varying</text>
<text text-anchor="start" x="987.8254" y="-423.3" font-family="Times,serif" font-size="14.00" fill="#000000">minimum :integer</text>
<text text-anchor="start" x="987.8254" y="-409.3" font-family="Times,serif" font-size="14.00" fill="#000000">maximum :integer</text>
<text text-anchor="start" x="987.8254" y="-395.3" font-family="Times,serif" font-size="14.00" fill="#000000">memory :integer</text>
<text text-anchor="start" x="987.8254" y="-381.3" font-family="Times,serif" font-size="14.00" fill="#000000">created_at :timestamp without time zone</text>
<text text-anchor="start" x="987.8254" y="-367.3" font-family="Times,serif" font-size="14.00" fill="#000000">id :uuid</text>
</g>
<!-- Configuration&#45;&gt;Task -->
<g id="edge34" class="edge">
<title>Configuration&#45;&gt;Task</title>
<path fill="none" stroke="#b754a4" d="M1139.137,-573.2969C1134.3821,-554.2773 1129.0122,-532.7977 1123.9169,-512.4166"/>
<ellipse fill="none" stroke="#b754a4" cx="1140.165" cy="-577.4091" rx="4" ry="4"/>
<polygon fill="#b754a4" stroke="#b754a4" points="1123.867,-512.2165 1125.8072,-501.4237 1122.6542,-507.3658 1121.4415,-502.5151 1121.4415,-502.5151 1121.4415,-502.5151 1122.6542,-507.3658 1117.0759,-503.6066 1123.867,-512.2165 1123.867,-512.2165"/>
</g>
<!-- Build&#45;&gt;Dependency -->
<g id="edge37" class="edge">
<title>Build&#45;&gt;Dependency</title>
<path fill="none" stroke="#d1f10b" d="M1931.8637,-740.691C1945.4496,-727.8831 1959.0799,-715.0334 1971.9755,-702.8763"/>
<ellipse fill="none" stroke="#d1f10b" cx="1928.7919" cy="-743.5868" rx="4" ry="4"/>
<polygon fill="#d1f10b" stroke="#d1f10b" points="1972.2011,-702.6636 1982.5643,-699.0783 1975.8393,-699.2338 1979.4775,-695.8039 1979.4775,-695.8039 1979.4775,-695.8039 1975.8393,-699.2338 1976.3906,-692.5296 1972.2011,-702.6636 1972.2011,-702.6636"/>
</g>
<!-- Build&#45;&gt;Exposure -->
<g id="edge36" class="edge">
<title>Build&#45;&gt;Exposure</title>
<path fill="none" stroke="#c19414" d="M1957.2928,-746.6163C1957.7578,-746.4091 1958.2227,-746.2037 1958.6877,-746 1978.356,-737.3851 2226.7278,-688.3851 2386.6344,-657.3414"/>
<ellipse fill="none" stroke="#c19414" cx="1953.3946" cy="-748.4298" rx="4" ry="4"/>
<polygon fill="#c19414" stroke="#c19414" points="2386.7422,-657.3206 2397.4163,-659.8333 2391.6507,-656.3681 2396.5591,-655.4157 2396.5591,-655.4157 2396.5591,-655.4157 2391.6507,-656.3681 2395.7019,-650.9981 2386.7422,-657.3206 2386.7422,-657.3206"/>
</g>
<!-- Build&#45;&gt;Configuration -->
<g id="edge38" class="edge">
<title>Build&#45;&gt;Configuration</title>
<path fill="none" stroke="#2e7102" d="M1684.1008,-746.5731C1683.6299,-746.3802 1683.1589,-746.1891 1682.6877,-746 1533.596,-686.1517 1480.3595,-735.7047 1324.6877,-696 1312.1928,-692.8131 1299.3555,-689.0125 1286.5994,-684.8734"/>
<ellipse fill="none" stroke="#2e7102" cx="1688.0428" cy="-748.2753" rx="4" ry="4"/>
<polygon fill="#2e7102" stroke="#2e7102" points="1286.3594,-684.7939 1278.2838,-677.3754 1281.6135,-683.2204 1276.8676,-681.6468 1276.8676,-681.6468 1276.8676,-681.6468 1281.6135,-683.2204 1275.4513,-685.9181 1286.3594,-684.7939 1286.3594,-684.7939"/>
</g>
<!-- Build&#45;&gt;Instance -->
<g id="edge35" class="edge">
<title>Build&#45;&gt;Instance</title>
<path fill="none" stroke="#667336" d="M1683.7799,-746.4026C1683.416,-746.2671 1683.0519,-746.1329 1682.6877,-746 1408.6328,-645.9503 1308.1579,-768.7834 1022.1395,-696.1794"/>
<ellipse fill="none" stroke="#667336" cx="1687.684" cy="-747.9493" rx="4" ry="4"/>
<polygon fill="#667336" stroke="#667336" points="1022.0002,-696.1432 1013.4527,-689.2737 1017.1607,-694.8862 1012.3213,-693.6292 1012.3213,-693.6292 1012.3213,-693.6292 1017.1607,-694.8862 1011.19,-697.9847 1022.0002,-696.1432 1022.0002,-696.1432"/>
</g>
<!-- User&#45;&gt;Identity -->
<g id="edge45" class="edge">
<title>User&#45;&gt;Identity</title>
<path fill="none" stroke="#8e116a" d="M904.6158,-1473.9166C1100.6788,-1452.838 1480.184,-1408.6079 1799.6877,-1351 1945.789,-1324.6573 2111.4013,-1285.6389 2223.9957,-1257.7106"/>
<ellipse fill="none" stroke="#8e116a" cx="900.5463" cy="-1474.3531" rx="4" ry="4"/>
<polygon fill="#8e116a" stroke="#8e116a" points="2223.999,-1257.7099 2234.7893,-1259.6646 2228.8514,-1256.5037 2233.7037,-1255.2975 2233.7037,-1255.2975 2233.7037,-1255.2975 2228.8514,-1256.5037 2232.6182,-1250.9304 2223.999,-1257.7099 2223.999,-1257.7099"/>
</g>
<!-- User&#45;&gt;Appointment -->
<g id="edge44" class="edge">
<title>User&#45;&gt;Appointment</title>
<path fill="none" stroke="#974685" d="M641.116,-1455.6034C529.6076,-1419.7908 387.6877,-1349.4674 387.6877,-1223.5 387.6877,-1223.5 387.6877,-1223.5 387.6877,-431.5 387.6877,-388.6529 396.725,-341.4587 405.9851,-304.3474"/>
<ellipse fill="none" stroke="#974685" cx="644.9382" cy="-1456.8118" rx="4" ry="4"/>
<polygon fill="#974685" stroke="#974685" points="405.9874,-304.338 412.8262,-295.7659 407.2271,-299.4941 408.4667,-294.6502 408.4667,-294.6502 408.4667,-294.6502 407.2271,-299.4941 404.1072,-293.5346 405.9874,-304.338 405.9874,-304.338"/>
</g>
<!-- User&#45;&gt;Voucher -->
<g id="edge42" class="edge">
<title>User&#45;&gt;Voucher</title>
<path fill="none" stroke="#33434a" d="M834.0147,-1402.6835C888.1153,-1323.0369 964.0415,-1198.423 1001.6877,-1078 1045.9189,-936.5132 972.6169,-881.075 1033.6877,-746 1041.7191,-728.2364 1046.126,-722.4637 1063.6877,-714 1108.4746,-692.4155 1249.4611,-728.9535 1286.6877,-696 1341.3806,-647.5851 1294.9635,-603.7315 1319.6877,-535 1320.7386,-532.0786 1321.8597,-529.1377 1323.0387,-526.1901"/>
<ellipse fill="none" stroke="#33434a" cx="831.7595" cy="-1405.9887" rx="4" ry="4"/>
<polygon fill="#33434a" stroke="#33434a" points="1323.1216,-525.9923 1331.1369,-518.5086 1325.0541,-521.3808 1326.9866,-516.7694 1326.9866,-516.7694 1326.9866,-516.7694 1325.0541,-521.3808 1322.8363,-515.0301 1323.1216,-525.9923 1323.1216,-525.9923"/>
</g>
<!-- User&#45;&gt;Product -->
<g id="edge47" class="edge">
<title>User&#45;&gt;Product</title>
<path fill="none" stroke="#fc169b" d="M904.6748,-1453.8534C985.4201,-1432.218 1090.4013,-1402.1995 1181.6877,-1370 1247.8383,-1346.6667 1319.4902,-1317.2433 1380.4866,-1290.8979"/>
<ellipse fill="none" stroke="#fc169b" cx="900.8021" cy="-1454.8882" rx="4" ry="4"/>
<polygon fill="#fc169b" stroke="#fc169b" points="1380.6177,-1290.8411 1391.5826,-1290.9954 1385.2058,-1288.8536 1389.7938,-1286.8662 1389.7938,-1286.8662 1389.7938,-1286.8662 1385.2058,-1288.8536 1388.0051,-1282.7369 1380.6177,-1290.8411 1380.6177,-1290.8411"/>
</g>
<!-- User&#45;&gt;Platform -->
<g id="edge46" class="edge">
<title>User&#45;&gt;Platform</title>
<path fill="none" stroke="#e3a00d" d="M791.8373,-1401.5111C812.0232,-1310.8686 843.3938,-1170.0028 861.8029,-1087.3386"/>
<ellipse fill="none" stroke="#e3a00d" cx="790.9645" cy="-1405.4303" rx="4" ry="4"/>
<polygon fill="#e3a00d" stroke="#e3a00d" points="861.8082,-1087.3143 868.3745,-1078.5317 862.8951,-1082.4339 863.9821,-1077.5534 863.9821,-1077.5534 863.9821,-1077.5534 862.8951,-1082.4339 859.5897,-1076.5752 861.8082,-1087.3143 861.8082,-1087.3143"/>
</g>
<!-- User&#45;&gt;Claim -->
<g id="edge43" class="edge">
<title>User&#45;&gt;Claim</title>
<path fill="none" stroke="#835a1c" d="M763.6465,-1401.3276C743.9715,-1203.3853 702.5932,-721.3929 748.6877,-567 776.9763,-472.248 842.1979,-379.4333 893.6179,-316.5845"/>
<ellipse fill="none" stroke="#835a1c" cx="764.0544" cy="-1405.4133" rx="4" ry="4"/>
<polygon fill="#835a1c" stroke="#835a1c" points="893.7706,-316.3996 903.6066,-311.5515 896.9532,-312.5433 900.1359,-308.6871 900.1359,-308.6871 900.1359,-308.6871 896.9532,-312.5433 896.6653,-305.8227 893.7706,-316.3996 893.7706,-316.3996"/>
</g>
<!-- User&#45;&gt;Member -->
<g id="edge39" class="edge">
<title>User&#45;&gt;Member</title>
<path fill="none" stroke="#8ec076" d="M733.6788,-1401.6151C729.8631,-1391.1116 726.4064,-1380.411 723.6877,-1370 649.5476,-1086.0831 631.5092,-1006.9138 649.0325,-714 654.2986,-625.9729 664.4378,-604.7978 672.6877,-517 679.7769,-441.5557 685.2746,-354.4162 688.4922,-297.7616"/>
<ellipse fill="none" stroke="#8ec076" cx="735.1177" cy="-1405.4737" rx="4" ry="4"/>
<polygon fill="#8ec076" stroke="#8ec076" points="688.5051,-297.5316 693.5593,-287.8 688.7857,-292.5395 689.0664,-287.5474 689.0664,-287.5474 689.0664,-287.5474 688.7857,-292.5395 684.5735,-287.2948 688.5051,-297.5316 688.5051,-297.5316"/>
<text text-anchor="middle" x="687.0154" y="-716.8" font-family="Times,serif" font-size="14.00" fill="#000000">memberships</text>
</g>
<!-- User&#45;&gt;Entitlement -->
<g id="edge40" class="edge">
<title>User&#45;&gt;Entitlement</title>
<path fill="none" stroke="#9f843d" d="M904.6313,-1459.786C964.0158,-1440.0065 1028.5522,-1406.6595 1063.6877,-1351 1131.8104,-1243.0846 1132.6619,-1204.0372 1152.6877,-1078 1160.7081,-1027.5221 1180.824,-1005.6697 1152.6877,-963 1141.508,-946.0454 1121.8675,-961.9546 1110.6877,-945 1061.9999,-871.1629 1055.9046,-815.4351 1110.6877,-746 1169.8474,-671.0179 1229.5192,-727.4929 1319.6877,-696 1323.0349,-694.831 1326.4099,-693.6075 1329.8007,-692.3384"/>
<ellipse fill="none" stroke="#9f843d" cx="900.4717" cy="-1461.1349" rx="4" ry="4"/>
<polygon fill="#9f843d" stroke="#9f843d" points="1330.0556,-692.2404 1341.0046,-692.8487 1334.722,-690.4447 1339.3885,-688.6489 1339.3885,-688.6489 1339.3885,-688.6489 1334.722,-690.4447 1337.7723,-684.4491 1330.0556,-692.2404 1330.0556,-692.2404"/>
</g>
<!-- User&#45;&gt;Attempt -->
<g id="edge41" class="edge">
<title>User&#45;&gt;Attempt</title>
<path fill="none" stroke="#8153bf" d="M640.3919,-1474.3637C492.5591,-1451.5317 273.6877,-1389.6693 273.6877,-1223.5 273.6877,-1223.5 273.6877,-1223.5 273.6877,-237.5 273.6877,-205.041 275.8161,-169.2383 278.2801,-138.6652"/>
<ellipse fill="none" stroke="#8153bf" cx="644.7431" cy="-1475.0203" rx="4" ry="4"/>
<polygon fill="#8153bf" stroke="#8153bf" points="278.2958,-138.4752 283.6104,-128.8833 278.7109,-133.4925 279.126,-128.5097 279.126,-128.5097 279.126,-128.5097 278.7109,-133.4925 274.6415,-128.1362 278.2958,-138.4752 278.2958,-138.4752"/>
</g>
<!-- IdentityProvider -->
<g id="node29" class="node">
<title>IdentityProvider</title>
<path fill="none" stroke="#000000" d="M2422.8254,-1388.5C2422.8254,-1388.5 2646.55,-1388.5 2646.55,-1388.5 2652.55,-1388.5 2658.55,-1394.5 2658.55,-1400.5 2658.55,-1400.5 2658.55,-1574.5 2658.55,-1574.5 2658.55,-1580.5 2652.55,-1586.5 2646.55,-1586.5 2646.55,-1586.5 2422.8254,-1586.5 2422.8254,-1586.5 2416.8254,-1586.5 2410.8254,-1580.5 2410.8254,-1574.5 2410.8254,-1574.5 2410.8254,-1400.5 2410.8254,-1400.5 2410.8254,-1394.5 2416.8254,-1388.5 2422.8254,-1388.5"/>
<text text-anchor="middle" x="2534.6877" y="-1571.3" font-family="Times,serif" font-size="14.00" fill="#000000">IdentityProvider</text>
<polyline fill="none" stroke="#000000" points="2410.8254,-1564.5 2658.55,-1564.5 "/>
<text text-anchor="start" x="2418.8254" y="-1549.3" font-family="Times,serif" font-size="14.00" fill="#000000">enabled_at :timestamp without time zone</text>
<text text-anchor="start" x="2418.8254" y="-1535.3" font-family="Times,serif" font-size="14.00" fill="#000000">name :character varying</text>
<text text-anchor="start" x="2418.8254" y="-1521.3" font-family="Times,serif" font-size="14.00" fill="#000000">issuer :character varying</text>
<text text-anchor="start" x="2418.8254" y="-1507.3" font-family="Times,serif" font-size="14.00" fill="#000000">client_id :character varying</text>
<text text-anchor="start" x="2418.8254" y="-1493.3" font-family="Times,serif" font-size="14.00" fill="#000000">client_secret :character varying</text>
<text text-anchor="start" x="2418.8254" y="-1479.3" font-family="Times,serif" font-size="14.00" fill="#000000">alternate_client_id :character varying</text>
<text text-anchor="start" x="2418.8254" y="-1465.3" font-family="Times,serif" font-size="14.00" fill="#000000">configuration :json</text>
<text text-anchor="start" x="2418.8254" y="-1451.3" font-family="Times,serif" font-size="14.00" fill="#000000">public_keys :json</text>
<text text-anchor="start" x="2418.8254" y="-1437.3" font-family="Times,serif" font-size="14.00" fill="#000000">created_at :timestamp without time zone</text>
<text text-anchor="start" x="2418.8254" y="-1423.3" font-family="Times,serif" font-size="14.00" fill="#000000">updated_at :timestamp without time zone</text>
<text text-anchor="start" x="2418.8254" y="-1409.3" font-family="Times,serif" font-size="14.00" fill="#000000">scopes :character varying</text>
<text text-anchor="start" x="2418.8254" y="-1395.3" font-family="Times,serif" font-size="14.00" fill="#000000">id :uuid</text>
</g>
<!-- IdentityProvider&#45;&gt;Identity -->
<g id="edge48" class="edge">
<title>IdentityProvider&#45;&gt;Identity</title>
<path fill="none" stroke="#68ace5" d="M2463.7327,-1381.6688C2454.1466,-1367.3708 2444.2744,-1352.6461 2434.5906,-1338.2026"/>
<ellipse fill="none" stroke="#68ace5" cx="2466.0484" cy="-1385.1226" rx="4" ry="4"/>
<polygon fill="#68ace5" stroke="#68ace5" points="2434.4831,-1338.0422 2432.652,-1327.2303 2431.6987,-1333.8892 2428.9143,-1329.7363 2428.9143,-1329.7363 2428.9143,-1329.7363 2431.6987,-1333.8892 2425.1766,-1332.2422 2434.4831,-1338.0422 2434.4831,-1338.0422"/>
</g>
</g>
</svg>
