<?xml version="1.0" encoding="UTF-8" standalone="no"?>
<!DOCTYPE svg PUBLIC "-//W3C//DTD SVG 1.1//EN"
 "http://www.w3.org/Graphics/SVG/1.1/DTD/svg11.dtd">
<!-- Generated by graphviz version 2.38.0 (20140413.2041)
 -->
<!-- Title: models_diagram Pages: 1 -->
<svg width="1240pt" height="580pt"
 viewBox="0.00 0.00 1240.01 580.00" xmlns="http://www.w3.org/2000/svg" xmlns:xlink="http://www.w3.org/1999/xlink">
<g id="graph0" class="graph" transform="scale(1 1) rotate(0) translate(4 576)">
<title>models_diagram</title>
<polygon fill="none" stroke="none" points="-4,4 -4,-576 1236.01,-576 1236.01,4 -4,4"/>
<!-- _diagram_info -->
<g id="node1" class="node"><title>_diagram_info</title>
<text text-anchor="start" x="8" y="-557.6" font-family="Times,serif" font-size="13.00">Models diagram</text>
<text text-anchor="start" x="8" y="-544.6" font-family="Times,serif" font-size="13.00">Date: Dec 23 2016 &#45; 15:03</text>
<text text-anchor="start" x="8" y="-531.6" font-family="Times,serif" font-size="13.00">Migration version: 20161221224103</text>
<text text-anchor="start" x="8" y="-518.6" font-family="Times,serif" font-size="13.00">Generated by RailRoady 1.5.2</text>
<text text-anchor="start" x="8" y="-505.6" font-family="Times,serif" font-size="13.00">http://railroady.prestonlee.com</text>
</g>
<!-- Ability -->
<g id="node2" class="node"><title>Ability</title>
<polygon fill="none" stroke="black" points="281.358,-553.5 226.018,-553.5 226.018,-517.5 281.358,-517.5 281.358,-553.5"/>
<text text-anchor="middle" x="253.688" y="-531.3" font-family="Times,serif" font-size="14.00">Ability</text>
</g>
<!-- ApplicationRecord -->
<g id="node3" class="node"><title>ApplicationRecord</title>
<ellipse fill="none" stroke="black" cx="376.688" cy="-535.5" rx="77.2916" ry="18"/>
<text text-anchor="middle" x="376.688" y="-531.3" font-family="Times,serif" font-size="14.00">ApplicationRecord</text>
</g>
<!-- Appointment -->
<g id="node4" class="node"><title>Appointment</title>
<ellipse fill="none" stroke="black" cx="803.688" cy="-285" rx="56.5545" ry="18"/>
<text text-anchor="middle" x="803.688" y="-280.8" font-family="Times,serif" font-size="14.00">Appointment</text>
</g>
<!-- Build -->
<g id="node5" class="node"><title>Build</title>
<ellipse fill="none" stroke="black" cx="579.688" cy="-177" rx="29.5275" ry="18"/>
<text text-anchor="middle" x="579.688" y="-172.8" font-family="Times,serif" font-size="14.00">Build</text>
</g>
<!-- Configuration -->
<g id="node7" class="node"><title>Configuration</title>
<ellipse fill="none" stroke="black" cx="654.688" cy="-91" rx="59.4773" ry="18"/>
<text text-anchor="middle" x="654.688" y="-86.8" font-family="Times,serif" font-size="14.00">Configuration</text>
</g>
<!-- Build&#45;&gt;Configuration -->
<g id="edge4" class="edge"><title>Build&#45;&gt;Configuration</title>
<path fill="none" stroke="#3492b3" d="M599.023,-154.345C609.504,-142.606 622.482,-128.071 633.269,-115.989"/>
<ellipse fill="none" stroke="#3492b3" cx="596.108" cy="-157.609" rx="4.00002" ry="4.00002"/>
<polygon fill="#3492b3" stroke="#3492b3" points="633.333,-115.917 643.35,-111.455 636.663,-112.188 639.993,-108.458 639.993,-108.458 639.993,-108.458 636.663,-112.188 636.636,-105.461 633.333,-115.917 633.333,-115.917"/>
</g>
<!-- Dependency -->
<g id="node8" class="node"><title>Dependency</title>
<ellipse fill="none" stroke="black" cx="786.688" cy="-91" rx="54.1058" ry="18"/>
<text text-anchor="middle" x="786.688" y="-86.8" font-family="Times,serif" font-size="14.00">Dependency</text>
</g>
<!-- Build&#45;&gt;Dependency -->
<g id="edge3" class="edge"><title>Build&#45;&gt;Dependency</title>
<path fill="none" stroke="#7bda0e" d="M610.942,-162.273C613.558,-161.156 616.166,-160.052 618.688,-159 660.757,-141.447 709.137,-122.257 743.143,-108.93"/>
<ellipse fill="none" stroke="#7bda0e" cx="606.82" cy="-164.049" rx="4.00001" ry="4.00001"/>
<polygon fill="#7bda0e" stroke="#7bda0e" points="743.461,-108.806 754.413,-109.353 748.117,-106.984 752.773,-105.162 752.773,-105.162 752.773,-105.162 748.117,-106.984 751.134,-100.972 743.461,-108.806 743.461,-108.806"/>
</g>
<!-- Exposure -->
<g id="node9" class="node"><title>Exposure</title>
<ellipse fill="none" stroke="black" cx="902.688" cy="-91" rx="43.5146" ry="18"/>
<text text-anchor="middle" x="902.688" y="-86.8" font-family="Times,serif" font-size="14.00">Exposure</text>
</g>
<!-- Build&#45;&gt;Exposure -->
<g id="edge2" class="edge"><title>Build&#45;&gt;Exposure</title>
<path fill="none" stroke="#80f1c8" d="M610.043,-162.084C612.937,-160.965 615.85,-159.916 618.688,-159 668.672,-142.872 798.955,-122.592 849.688,-109 853.105,-108.084 856.628,-107.083 860.158,-106.039"/>
<ellipse fill="none" stroke="#80f1c8" cx="606.198" cy="-163.652" rx="4.00001" ry="4.00001"/>
<polygon fill="#80f1c8" stroke="#80f1c8" points="860.476,-105.942 871.354,-107.324 865.257,-104.482 870.039,-103.021 870.039,-103.021 870.039,-103.021 865.257,-104.482 868.725,-98.717 860.476,-105.942 860.476,-105.942"/>
</g>
<!-- Instance -->
<g id="node13" class="node"><title>Instance</title>
<ellipse fill="none" stroke="black" cx="422.688" cy="-91" rx="39.6385" ry="18"/>
<text text-anchor="middle" x="422.688" y="-86.8" font-family="Times,serif" font-size="14.00">Instance</text>
</g>
<!-- Build&#45;&gt;Instance -->
<g id="edge1" class="edge"><title>Build&#45;&gt;Instance</title>
<path fill="none" stroke="#5d9b80" d="M551.005,-160.654C524.319,-146.376 484.542,-125.094 456.36,-110.016"/>
<ellipse fill="none" stroke="#5d9b80" cx="554.66" cy="-162.609" rx="4.00002" ry="4.00002"/>
<polygon fill="#5d9b80" stroke="#5d9b80" points="456.1,-109.877 449.406,-101.191 451.692,-107.518 447.283,-105.159 447.283,-105.159 447.283,-105.159 451.692,-107.518 445.16,-109.127 456.1,-109.877 456.1,-109.877"/>
</g>
<!-- Screenshot -->
<g id="node21" class="node"><title>Screenshot</title>
<ellipse fill="none" stroke="black" cx="528.688" cy="-91" rx="48.8187" ry="18"/>
<text text-anchor="middle" x="528.688" y="-86.8" font-family="Times,serif" font-size="14.00">Screenshot</text>
</g>
<!-- Build&#45;&gt;Screenshot -->
<g id="edge5" class="edge"><title>Build&#45;&gt;Screenshot</title>
<path fill="none" stroke="#d756f0" d="M565.636,-152.855C558.935,-141.819 550.904,-128.592 544.043,-117.292"/>
<ellipse fill="none" stroke="#d756f0" cx="567.778" cy="-156.385" rx="4.00002" ry="4.00002"/>
<polygon fill="#d756f0" stroke="#d756f0" points="544.03,-117.269 542.686,-106.386 541.435,-112.995 538.84,-108.721 538.84,-108.721 538.84,-108.721 541.435,-112.995 534.993,-111.057 544.03,-117.269 544.03,-117.269"/>
</g>
<!-- Client -->
<g id="node6" class="node"><title>Client</title>
<ellipse fill="none" stroke="black" cx="575.688" cy="-535.5" rx="31.948" ry="18"/>
<text text-anchor="middle" x="575.688" y="-531.3" font-family="Times,serif" font-size="14.00">Client</text>
</g>
<!-- Task -->
<g id="node25" class="node"><title>Task</title>
<ellipse fill="none" stroke="black" cx="654.688" cy="-18" rx="27" ry="18"/>
<text text-anchor="middle" x="654.688" y="-13.8" font-family="Times,serif" font-size="14.00">Task</text>
</g>
<!-- Configuration&#45;&gt;Task -->
<g id="edge6" class="edge"><title>Configuration&#45;&gt;Task</title>
<path fill="none" stroke="#d6181b" d="M654.688,-64.791C654.688,-58.832 654.688,-52.4496 654.688,-46.3988"/>
<ellipse fill="none" stroke="#d6181b" cx="654.688" cy="-68.8129" rx="4" ry="4"/>
<polygon fill="#d6181b" stroke="#d6181b" points="654.688,-46.0288 659.188,-36.0288 654.688,-41.0288 654.688,-36.0288 654.688,-36.0288 654.688,-36.0288 654.688,-41.0288 650.188,-36.0289 654.688,-46.0288 654.688,-46.0288"/>
</g>
<!-- Parameter -->
<g id="node18" class="node"><title>Parameter</title>
<ellipse fill="none" stroke="black" cx="902.688" cy="-18" rx="45.9028" ry="18"/>
<text text-anchor="middle" x="902.688" y="-13.8" font-family="Times,serif" font-size="14.00">Parameter</text>
</g>
<!-- Exposure&#45;&gt;Parameter -->
<g id="edge7" class="edge"><title>Exposure&#45;&gt;Parameter</title>
<path fill="none" stroke="#514d57" d="M902.688,-64.791C902.688,-58.832 902.688,-52.4496 902.688,-46.3988"/>
<ellipse fill="none" stroke="#514d57" cx="902.688" cy="-68.8129" rx="4" ry="4"/>
<polygon fill="#514d57" stroke="#514d57" points="902.688,-46.0288 907.188,-36.0288 902.688,-41.0288 902.688,-36.0288 902.688,-36.0288 902.688,-36.0288 902.688,-41.0288 898.188,-36.0289 902.688,-46.0288 902.688,-46.0288"/>
</g>
<!-- Group -->
<g id="node10" class="node"><title>Group</title>
<ellipse fill="none" stroke="black" cx="498.688" cy="-444" rx="32.9081" ry="18"/>
<text text-anchor="middle" x="498.688" y="-439.8" font-family="Times,serif" font-size="14.00">Group</text>
</g>
<!-- Group&#45;&gt;Appointment -->
<g id="edge10" class="edge"><title>Group&#45;&gt;Appointment</title>
<path fill="none" stroke="#927745" d="M539.321,-440.727C609.42,-435.949 748.832,-422.411 782.688,-389 802.424,-369.523 806.13,-336.884 805.882,-313.567"/>
<ellipse fill="none" stroke="#927745" cx="535.119" cy="-441.004" rx="4" ry="4"/>
<polygon fill="#927745" stroke="#927745" points="805.872,-313.273 810.012,-303.119 805.693,-308.276 805.515,-303.279 805.515,-303.279 805.515,-303.279 805.693,-308.276 801.018,-303.44 805.872,-313.273 805.872,-313.273"/>
</g>
<!-- Member -->
<g id="node17" class="node"><title>Member</title>
<ellipse fill="none" stroke="black" cx="400.688" cy="-285" rx="40.1317" ry="18"/>
<text text-anchor="middle" x="400.688" y="-280.8" font-family="Times,serif" font-size="14.00">Member</text>
</g>
<!-- Group&#45;&gt;Member -->
<g id="edge8" class="edge"><title>Group&#45;&gt;Member</title>
<path fill="none" stroke="#38e5e6" d="M474.382,-423.345C451.95,-403.625 419.887,-371.068 404.688,-335 401.882,-328.341 400.494,-320.728 399.894,-313.52"/>
<ellipse fill="none" stroke="#38e5e6" cx="477.687" cy="-426.19" rx="4.00002" ry="4.00002"/>
<polygon fill="#38e5e6" stroke="#38e5e6" points="399.889,-313.4 404,-303.234 399.696,-308.404 399.504,-303.407 399.504,-303.407 399.504,-303.407 399.696,-308.404 395.007,-303.581 399.889,-313.4 399.889,-313.4"/>
</g>
<!-- User -->
<g id="node26" class="node"><title>User</title>
<ellipse fill="none" stroke="black" cx="498.688" cy="-371" rx="27" ry="18"/>
<text text-anchor="middle" x="498.688" y="-366.8" font-family="Times,serif" font-size="14.00">User</text>
</g>
<!-- Group&#45;&gt;User -->
<g id="edge9" class="edge"><title>Group&#45;&gt;User</title>
<path fill="none" stroke="#27a593" d="M498.688,-415.753C498.688,-410.276 498.688,-404.521 498.688,-399.051"/>
<polygon fill="#27a593" stroke="#27a593" points="498.688,-415.813 494.188,-425.813 498.688,-420.813 498.688,-425.813 498.688,-425.813 498.688,-425.813 498.688,-420.813 503.188,-425.813 498.688,-415.813 498.688,-415.813"/>
<polygon fill="#27a593" stroke="#27a593" points="498.688,-399.029 503.188,-389.029 498.688,-394.029 498.688,-389.029 498.688,-389.029 498.688,-389.029 498.688,-394.029 494.188,-389.029 498.688,-399.029 498.688,-399.029"/>
</g>
<!-- Identity -->
<g id="node11" class="node"><title>Identity</title>
<ellipse fill="none" stroke="black" cx="691.688" cy="-285" rx="37.7266" ry="18"/>
<text text-anchor="middle" x="691.688" y="-280.8" font-family="Times,serif" font-size="14.00">Identity</text>
</g>
<!-- JsonWebToken -->
<g id="node15" class="node"><title>JsonWebToken</title>
<ellipse fill="none" stroke="black" cx="691.688" cy="-177" rx="63.5968" ry="18"/>
<text text-anchor="middle" x="691.688" y="-172.8" font-family="Times,serif" font-size="14.00">JsonWebToken</text>
</g>
<!-- Identity&#45;&gt;JsonWebToken -->
<g id="edge12" class="edge"><title>Identity&#45;&gt;JsonWebToken</title>
<path fill="none" stroke="#76602c" d="M691.688,-258.795C691.688,-242.735 691.688,-221.927 691.688,-205.45"/>
<ellipse fill="none" stroke="#76602c" cx="691.688" cy="-262.969" rx="4" ry="4"/>
<polygon fill="#76602c" stroke="#76602c" points="691.688,-205.341 696.188,-195.341 691.688,-200.341 691.688,-195.341 691.688,-195.341 691.688,-195.341 691.688,-200.341 687.188,-195.341 691.688,-205.341 691.688,-205.341"/>
</g>
<!-- Session -->
<g id="node23" class="node"><title>Session</title>
<ellipse fill="none" stroke="black" cx="810.688" cy="-177" rx="37.2681" ry="18"/>
<text text-anchor="middle" x="810.688" y="-172.8" font-family="Times,serif" font-size="14.00">Session</text>
</g>
<!-- Identity&#45;&gt;Session -->
<g id="edge11" class="edge"><title>Identity&#45;&gt;Session</title>
<path fill="none" stroke="#a3eac0" d="M714.927,-263.3C735.437,-245.03 765.24,-218.483 786.135,-199.87"/>
<ellipse fill="none" stroke="#a3eac0" cx="711.724" cy="-266.152" rx="4.00002" ry="4.00002"/>
<polygon fill="#a3eac0" stroke="#a3eac0" points="786.202,-199.811 796.663,-196.519 789.936,-196.485 793.67,-193.159 793.67,-193.159 793.67,-193.159 789.936,-196.485 790.676,-189.799 786.202,-199.811 786.202,-199.811"/>
</g>
<!-- IdentityProvider -->
<g id="node12" class="node"><title>IdentityProvider</title>
<ellipse fill="none" stroke="black" cx="705.688" cy="-371" rx="68.1374" ry="18"/>
<text text-anchor="middle" x="705.688" y="-366.8" font-family="Times,serif" font-size="14.00">IdentityProvider</text>
</g>
<!-- IdentityProvider&#45;&gt;Identity -->
<g id="edge13" class="edge"><title>IdentityProvider&#45;&gt;Identity</title>
<path fill="none" stroke="#72e9e5" d="M701.52,-344.991C699.843,-334.929 697.905,-323.303 696.195,-313.045"/>
<ellipse fill="none" stroke="#72e9e5" cx="702.197" cy="-349.056" rx="4.00001" ry="4.00001"/>
<polygon fill="#72e9e5" stroke="#72e9e5" points="696.161,-312.837 698.955,-302.234 695.339,-307.905 694.517,-302.973 694.517,-302.973 694.517,-302.973 695.339,-307.905 690.078,-303.713 696.161,-312.837 696.161,-312.837"/>
</g>
<!-- Interface -->
<g id="node14" class="node"><title>Interface</title>
<ellipse fill="none" stroke="black" cx="935.688" cy="-177" rx="41.542" ry="18"/>
<text text-anchor="middle" x="935.688" y="-172.8" font-family="Times,serif" font-size="14.00">Interface</text>
</g>
<!-- Interface&#45;&gt;Dependency -->
<g id="edge19" class="edge"><title>Interface&#45;&gt;Dependency</title>
<path fill="none" stroke="#96f337" d="M904.444,-158.386C880.291,-144.77 846.856,-125.921 821.783,-111.785"/>
<ellipse fill="none" stroke="#96f337" cx="907.932" cy="-160.353" rx="4.00002" ry="4.00002"/>
<polygon fill="#96f337" stroke="#96f337" points="821.667,-111.72 815.166,-102.889 817.312,-109.265 812.956,-106.809 812.956,-106.809 812.956,-106.809 817.312,-109.265 810.746,-110.729 821.667,-111.72 821.667,-111.72"/>
</g>
<!-- Interface&#45;&gt;Exposure -->
<g id="edge18" class="edge"><title>Interface&#45;&gt;Exposure</title>
<path fill="none" stroke="#6aa9f2" d="M921.796,-152.046C919.947,-148.407 918.178,-144.648 916.688,-141 913.822,-133.986 911.307,-126.181 909.229,-118.899"/>
<ellipse fill="none" stroke="#6aa9f2" cx="923.762" cy="-155.743" rx="4.00002" ry="4.00002"/>
<polygon fill="#6aa9f2" stroke="#6aa9f2" points="909.188,-118.747 910.936,-107.922 907.889,-113.919 906.59,-109.091 906.59,-109.091 906.59,-109.091 907.889,-113.919 902.245,-110.26 909.188,-118.747 909.188,-118.747"/>
</g>
<!-- Interface&#45;&gt;Interface -->
<g id="edge17" class="edge"><title>Interface&#45;&gt;Interface</title>
<path fill="none" stroke="#be4aac" d="M981.297,-184.42C989.484,-183.461 995.209,-180.988 995.209,-177 995.209,-173.337 990.381,-170.952 983.251,-169.845"/>
<ellipse fill="none" stroke="#be4aac" cx="977.172" cy="-184.651" rx="4" ry="4"/>
<polygon fill="#be4aac" stroke="#be4aac" points="983.153,-169.838 973.499,-164.637 978.166,-169.482 973.179,-169.125 973.179,-169.125 973.179,-169.125 978.166,-169.482 972.858,-173.614 983.153,-169.838 983.153,-169.838"/>
<text text-anchor="middle" x="1056.25" y="-172.8" font-family="Times,serif" font-size="14.00">substituted_interfaces</text>
</g>
<!-- Surrogate -->
<g id="node24" class="node"><title>Surrogate</title>
<ellipse fill="none" stroke="black" cx="1008.69" cy="-91" rx="44.475" ry="18"/>
<text text-anchor="middle" x="1008.69" y="-86.8" font-family="Times,serif" font-size="14.00">Surrogate</text>
</g>
<!-- Interface&#45;&gt;Surrogate -->
<g id="edge14" class="edge"><title>Interface&#45;&gt;Surrogate</title>
<path fill="none" stroke="#249674" d="M931.141,-150.692C930.938,-142.582 932.151,-133.918 936.571,-127 942.651,-117.482 952.124,-110.481 962.227,-105.358"/>
<ellipse fill="none" stroke="#249674" cx="931.473" cy="-154.861" rx="4" ry="4"/>
<polygon fill="#249674" stroke="#249674" points="962.476,-105.247 973.442,-105.271 967.04,-103.205 971.604,-101.163 971.604,-101.163 971.604,-101.163 967.04,-103.205 969.766,-97.0554 962.476,-105.247 962.476,-105.247"/>
<text text-anchor="middle" x="965.246" y="-129.8" font-family="Times,serif" font-size="14.00">substitutes</text>
</g>
<!-- Interface&#45;&gt;Surrogate -->
<g id="edge15" class="edge"><title>Interface&#45;&gt;Surrogate</title>
<path fill="none" stroke="#d0a41b" d="M972.848,-160.38C981.379,-155.289 989.693,-148.869 995.688,-141 1000.45,-134.743 1003.48,-126.882 1005.39,-119.301"/>
<ellipse fill="none" stroke="#d0a41b" cx="969.178" cy="-162.411" rx="4.00002" ry="4.00002"/>
<polygon fill="#d0a41b" stroke="#d0a41b" points="1005.43,-119.12 1011.79,-110.189 1006.4,-114.215 1007.38,-109.311 1007.38,-109.311 1007.38,-109.311 1006.4,-114.215 1002.97,-108.434 1005.43,-119.12 1005.43,-119.12"/>
</g>
<!-- SurrogatedInterface -->
<g id="node27" class="node"><title>SurrogatedInterface</title>
<ellipse fill="none" stroke="black" cx="1151.69" cy="-91" rx="80.1472" ry="18"/>
<text text-anchor="middle" x="1151.69" y="-86.8" font-family="Times,serif" font-size="14.00">SurrogatedInterface</text>
</g>
<!-- Interface&#45;&gt;SurrogatedInterface -->
<g id="edge16" class="edge"><title>Interface&#45;&gt;SurrogatedInterface</title>
<path fill="none" stroke="#e402e9" d="M975.234,-160.621C1011.42,-146.548 1065.06,-125.69 1103.69,-110.667"/>
<polygon fill="#e402e9" stroke="#e402e9" points="975.042,-160.696 964.091,-160.126 970.382,-162.508 965.722,-164.32 965.722,-164.32 965.722,-164.32 970.382,-162.508 967.353,-168.514 975.042,-160.696 975.042,-160.696"/>
<polygon fill="#e402e9" stroke="#e402e9" points="1103.84,-110.606 1114.8,-111.175 1108.5,-108.793 1113.16,-106.981 1113.16,-106.981 1113.16,-106.981 1108.5,-108.793 1111.53,-102.787 1103.84,-110.606 1103.84,-110.606"/>
</g>
<!-- License -->
<g id="node16" class="node"><title>License</title>
<ellipse fill="none" stroke="black" cx="581.688" cy="-371" rx="37.7092" ry="18"/>
<text text-anchor="middle" x="581.688" y="-366.8" font-family="Times,serif" font-size="14.00">License</text>
</g>
<!-- Service -->
<g id="node22" class="node"><title>Service</title>
<ellipse fill="none" stroke="black" cx="579.688" cy="-285" rx="36.7489" ry="18"/>
<text text-anchor="middle" x="579.688" y="-280.8" font-family="Times,serif" font-size="14.00">Service</text>
</g>
<!-- License&#45;&gt;Service -->
<g id="edge20" class="edge"><title>License&#45;&gt;Service</title>
<path fill="none" stroke="#e74af1" d="M581.075,-344.257C580.841,-334.441 580.574,-323.226 580.337,-313.273"/>
<ellipse fill="none" stroke="#e74af1" cx="581.178" cy="-348.596" rx="4" ry="4"/>
<polygon fill="#e74af1" stroke="#e74af1" points="580.333,-313.092 584.593,-302.988 580.214,-308.094 580.095,-303.095 580.095,-303.095 580.095,-303.095 580.214,-308.094 575.596,-303.202 580.333,-313.092 580.333,-313.092"/>
</g>
<!-- Platform -->
<g id="node19" class="node"><title>Platform</title>
<ellipse fill="none" stroke="black" cx="492.688" cy="-231" rx="41.1093" ry="18"/>
<text text-anchor="middle" x="492.688" y="-226.8" font-family="Times,serif" font-size="14.00">Platform</text>
</g>
<!-- Platform&#45;&gt;Instance -->
<g id="edge21" class="edge"><title>Platform&#45;&gt;Instance</title>
<path fill="none" stroke="#15c422" d="M480.51,-205.993C467.988,-181.306 448.555,-142.995 435.726,-117.705"/>
<ellipse fill="none" stroke="#15c422" cx="482.435" cy="-209.787" rx="4.00002" ry="4.00002"/>
<polygon fill="#15c422" stroke="#15c422" points="435.685,-117.623 435.175,-106.669 433.423,-113.164 431.161,-108.705 431.161,-108.705 431.161,-108.705 433.423,-113.164 427.148,-110.741 435.685,-117.623 435.685,-117.623"/>
</g>
<!-- Role -->
<g id="node20" class="node"><title>Role</title>
<ellipse fill="none" stroke="black" cx="498.688" cy="-535.5" rx="27" ry="18"/>
<text text-anchor="middle" x="498.688" y="-531.3" font-family="Times,serif" font-size="14.00">Role</text>
</g>
<!-- Role&#45;&gt;Appointment -->
<g id="edge22" class="edge"><title>Role&#45;&gt;Appointment</title>
<path fill="none" stroke="#cb9fe8" d="M517.364,-513.307C522.609,-508.167 528.562,-503.005 534.688,-499 643.484,-427.864 722.396,-488.797 805.688,-389 825.404,-365.377 824.874,-351.141 818.688,-321 818.102,-318.147 817.274,-315.238 816.303,-312.379"/>
<ellipse fill="none" stroke="#cb9fe8" cx="514.356" cy="-516.395" rx="4.00002" ry="4.00002"/>
<polygon fill="#cb9fe8" stroke="#cb9fe8" points="816.272,-312.299 816.791,-301.345 814.438,-307.647 812.605,-302.996 812.605,-302.996 812.605,-302.996 814.438,-307.647 808.418,-304.646 816.272,-312.299 816.272,-312.299"/>
</g>
<!-- Role&#45;&gt;Group -->
<g id="edge24" class="edge"><title>Role&#45;&gt;Group</title>
<path fill="none" stroke="#6ed8b6" d="M498.688,-507.21C498.688,-496.106 498.688,-483.301 498.688,-472.206"/>
<polygon fill="#6ed8b6" stroke="#6ed8b6" points="498.688,-507.243 494.188,-517.243 498.688,-512.243 498.688,-517.243 498.688,-517.243 498.688,-517.243 498.688,-512.243 503.188,-517.244 498.688,-507.243 498.688,-507.243"/>
<polygon fill="#6ed8b6" stroke="#6ed8b6" points="498.688,-472.204 503.188,-462.203 498.688,-467.204 498.688,-462.204 498.688,-462.204 498.688,-462.204 498.688,-467.204 494.188,-462.204 498.688,-472.204 498.688,-472.204"/>
</g>
<!-- Role&#45;&gt;User -->
<g id="edge23" class="edge"><title>Role&#45;&gt;User</title>
<path fill="none" stroke="#0fe2b0" d="M479.864,-511.519C464.354,-489.687 446.445,-455.854 456.688,-426 460.802,-414.009 468.786,-402.631 476.698,-393.437"/>
<polygon fill="#0fe2b0" stroke="#0fe2b0" points="479.867,-511.522 482.234,-522.23 482.855,-515.532 485.842,-519.541 485.842,-519.541 485.842,-519.541 482.855,-515.532 489.451,-516.852 479.867,-511.522 479.867,-511.522"/>
<polygon fill="#0fe2b0" stroke="#0fe2b0" points="476.786,-393.341 486.855,-388.997 480.16,-389.651 483.534,-385.961 483.534,-385.961 483.534,-385.961 480.16,-389.651 480.213,-382.925 476.786,-393.341 476.786,-393.341"/>
</g>
<!-- Service&#45;&gt;Build -->
<g id="edge25" class="edge"><title>Service&#45;&gt;Build</title>
<path fill="none" stroke="#fd7ff4" d="M579.688,-258.795C579.688,-242.735 579.688,-221.927 579.688,-205.45"/>
<ellipse fill="none" stroke="#fd7ff4" cx="579.688" cy="-262.969" rx="4" ry="4"/>
<polygon fill="#fd7ff4" stroke="#fd7ff4" points="579.688,-205.341 584.188,-195.341 579.688,-200.341 579.688,-195.341 579.688,-195.341 579.688,-195.341 579.688,-200.341 575.188,-195.341 579.688,-205.341 579.688,-205.341"/>
</g>
<!-- User&#45;&gt;Appointment -->
<g id="edge27" class="edge"><title>User&#45;&gt;Appointment</title>
<path fill="none" stroke="#f06d9e" d="M526.959,-356.005C529.545,-354.922 532.147,-353.901 534.688,-353 545.686,-349.1 727.376,-305.865 738.688,-303 742.822,-301.953 747.101,-300.858 751.399,-299.75"/>
<ellipse fill="none" stroke="#f06d9e" cx="522.986" cy="-357.766" rx="4.00002" ry="4.00002"/>
<polygon fill="#f06d9e" stroke="#f06d9e" points="751.724,-299.666 762.533,-301.516 756.564,-298.413 761.405,-297.16 761.405,-297.16 761.405,-297.16 756.564,-298.413 760.277,-292.803 751.724,-299.666 751.724,-299.666"/>
</g>
<!-- User&#45;&gt;Identity -->
<g id="edge28" class="edge"><title>User&#45;&gt;Identity</title>
<path fill="none" stroke="#1a6375" d="M527.332,-356.354C529.814,-355.208 532.292,-354.076 534.688,-353 575.477,-334.674 622.726,-314.675 654.649,-301.341"/>
<ellipse fill="none" stroke="#1a6375" cx="523.572" cy="-358.108" rx="4.00002" ry="4.00002"/>
<polygon fill="#1a6375" stroke="#1a6375" points="654.81,-301.274 665.772,-301.58 659.425,-299.35 664.04,-297.427 664.04,-297.427 664.04,-297.427 659.425,-299.35 662.309,-293.273 654.81,-301.274 654.81,-301.274"/>
</g>
<!-- User&#45;&gt;Member -->
<g id="edge26" class="edge"><title>User&#45;&gt;Member</title>
<path fill="none" stroke="#2a0979" d="M465.637,-362.354C449.394,-357.086 430.651,-348.523 418.032,-335 412.319,-328.876 408.468,-320.752 405.881,-312.883"/>
<ellipse fill="none" stroke="#2a0979" cx="469.542" cy="-363.53" rx="4.00001" ry="4.00001"/>
<polygon fill="#2a0979" stroke="#2a0979" points="405.876,-312.866 407.574,-302.033 404.555,-308.044 403.234,-303.222 403.234,-303.222 403.234,-303.222 404.555,-308.044 398.894,-304.411 405.876,-312.866 405.876,-312.866"/>
<text text-anchor="middle" x="455.015" y="-323.8" font-family="Times,serif" font-size="14.00">memberships</text>
</g>
<!-- User&#45;&gt;Platform -->
<g id="edge29" class="edge"><title>User&#45;&gt;Platform</title>
<path fill="none" stroke="#0edf37" d="M497.591,-344.772C496.544,-320.686 494.969,-284.48 493.889,-259.627"/>
<ellipse fill="none" stroke="#0edf37" cx="497.766" cy="-348.805" rx="4" ry="4"/>
<polygon fill="#0edf37" stroke="#0edf37" points="493.879,-259.406 497.941,-249.22 493.662,-254.411 493.445,-249.416 493.445,-249.416 493.445,-249.416 493.662,-254.411 488.949,-249.611 493.879,-259.406 493.879,-259.406"/>
</g>
<!-- User&#45;&gt;Service -->
<g id="edge30" class="edge"><title>User&#45;&gt;Service</title>
<path fill="none" stroke="#8b76eb" d="M518.21,-349.589C526.648,-340.782 536.642,-330.372 545.688,-321 549.416,-317.137 553.383,-313.042 557.24,-309.066"/>
<ellipse fill="none" stroke="#8b76eb" cx="515.415" cy="-352.508" rx="4.00002" ry="4.00002"/>
<polygon fill="#8b76eb" stroke="#8b76eb" points="557.466,-308.833 567.662,-304.795 560.95,-305.247 564.434,-301.66 564.434,-301.66 564.434,-301.66 560.95,-305.247 561.206,-298.525 557.466,-308.833 557.466,-308.833"/>
</g>
</g>
</svg>
