<?xml version="1.0" encoding="UTF-8" standalone="no"?>
<!DOCTYPE svg PUBLIC "-//W3C//DTD SVG 1.1//EN"
 "http://www.w3.org/Graphics/SVG/1.1/DTD/svg11.dtd">
<!-- Generated by graphviz version 2.40.1 (20161225.0304)
 -->
<!-- Title: models_diagram Pages: 1 -->
<svg width="3801pt" height="1272pt"
 viewBox="0.00 0.00 3801.37 1272.00" xmlns="http://www.w3.org/2000/svg" xmlns:xlink="http://www.w3.org/1999/xlink">
<g id="graph0" class="graph" transform="scale(1 1) rotate(0) translate(4 1268)">
<title>models_diagram</title>
<polygon fill="transparent" stroke="transparent" points="-4,4 -4,-1268 3797.374,-1268 3797.374,4 -4,4"/>
<!-- _diagram_info -->
<g id="node1" class="node">
<title>_diagram_info</title>
<text text-anchor="start" x="8" y="-1193.6" font-family="Times,serif" font-size="13.00" fill="#000000">Models diagram</text>
<text text-anchor="start" x="8" y="-1180.6" font-family="Times,serif" font-size="13.00" fill="#000000">Date: Aug 08 2019 &#45; 17:35</text>
<text text-anchor="start" x="8" y="-1167.6" font-family="Times,serif" font-size="13.00" fill="#000000">Migration version: 20190808191156</text>
<text text-anchor="start" x="8" y="-1154.6" font-family="Times,serif" font-size="13.00" fill="#000000">Generated by RailRoady 1.5.3</text>
<text text-anchor="start" x="8" y="-1141.6" font-family="Times,serif" font-size="13.00" fill="#000000">http://railroady.prestonlee.com</text>
</g>
<!-- Identity -->
<g id="node2" class="node">
<title>Identity</title>
<path fill="none" stroke="#000000" d="M1471.5874,-567.5C1471.5874,-567.5 1695.312,-567.5 1695.312,-567.5 1701.312,-567.5 1707.312,-573.5 1707.312,-579.5 1707.312,-579.5 1707.312,-767.5 1707.312,-767.5 1707.312,-773.5 1701.312,-779.5 1695.312,-779.5 1695.312,-779.5 1471.5874,-779.5 1471.5874,-779.5 1465.5874,-779.5 1459.5874,-773.5 1459.5874,-767.5 1459.5874,-767.5 1459.5874,-579.5 1459.5874,-579.5 1459.5874,-573.5 1465.5874,-567.5 1471.5874,-567.5"/>
<text text-anchor="middle" x="1583.4497" y="-764.3" font-family="Times,serif" font-size="14.00" fill="#000000">Identity</text>
<polyline fill="none" stroke="#000000" points="1459.5874,-757.5 1707.312,-757.5 "/>
<text text-anchor="start" x="1467.5874" y="-742.3" font-family="Times,serif" font-size="14.00" fill="#000000">updated_at :timestamp without time zone</text>
<text text-anchor="start" x="1467.5874" y="-728.3" font-family="Times,serif" font-size="14.00" fill="#000000">user_id :uuid</text>
<text text-anchor="start" x="1467.5874" y="-714.3" font-family="Times,serif" font-size="14.00" fill="#000000">identity_provider_id :uuid</text>
<text text-anchor="start" x="1467.5874" y="-700.3" font-family="Times,serif" font-size="14.00" fill="#000000">sub :character varying</text>
<text text-anchor="start" x="1467.5874" y="-686.3" font-family="Times,serif" font-size="14.00" fill="#000000">iat :character varying</text>
<text text-anchor="start" x="1467.5874" y="-672.3" font-family="Times,serif" font-size="14.00" fill="#000000">hd :character varying</text>
<text text-anchor="start" x="1467.5874" y="-658.3" font-family="Times,serif" font-size="14.00" fill="#000000">locale :character varying</text>
<text text-anchor="start" x="1467.5874" y="-644.3" font-family="Times,serif" font-size="14.00" fill="#000000">email :character varying</text>
<text text-anchor="start" x="1467.5874" y="-630.3" font-family="Times,serif" font-size="14.00" fill="#000000">jwt :json</text>
<text text-anchor="start" x="1467.5874" y="-616.3" font-family="Times,serif" font-size="14.00" fill="#000000">notify_via_email :boolean</text>
<text text-anchor="start" x="1467.5874" y="-602.3" font-family="Times,serif" font-size="14.00" fill="#000000">notify_via_sms :boolean</text>
<text text-anchor="start" x="1467.5874" y="-588.3" font-family="Times,serif" font-size="14.00" fill="#000000">created_at :timestamp without time zone</text>
<text text-anchor="start" x="1467.5874" y="-574.3" font-family="Times,serif" font-size="14.00" fill="#000000">id :uuid</text>
</g>
<!-- JsonWebToken -->
<g id="node16" class="node">
<title>JsonWebToken</title>
<path fill="none" stroke="#000000" d="M1471.5874,-381.5C1471.5874,-381.5 1695.312,-381.5 1695.312,-381.5 1701.312,-381.5 1707.312,-387.5 1707.312,-393.5 1707.312,-393.5 1707.312,-469.5 1707.312,-469.5 1707.312,-475.5 1701.312,-481.5 1695.312,-481.5 1695.312,-481.5 1471.5874,-481.5 1471.5874,-481.5 1465.5874,-481.5 1459.5874,-475.5 1459.5874,-469.5 1459.5874,-469.5 1459.5874,-393.5 1459.5874,-393.5 1459.5874,-387.5 1465.5874,-381.5 1471.5874,-381.5"/>
<text text-anchor="middle" x="1583.4497" y="-466.3" font-family="Times,serif" font-size="14.00" fill="#000000">JsonWebToken</text>
<polyline fill="none" stroke="#000000" points="1459.5874,-459.5 1707.312,-459.5 "/>
<text text-anchor="start" x="1467.5874" y="-444.3" font-family="Times,serif" font-size="14.00" fill="#000000">id :uuid</text>
<text text-anchor="start" x="1467.5874" y="-430.3" font-family="Times,serif" font-size="14.00" fill="#000000">identity_id :uuid</text>
<text text-anchor="start" x="1467.5874" y="-416.3" font-family="Times,serif" font-size="14.00" fill="#000000">expires_at :timestamp without time zone</text>
<text text-anchor="start" x="1467.5874" y="-402.3" font-family="Times,serif" font-size="14.00" fill="#000000">created_at :timestamp without time zone</text>
<text text-anchor="start" x="1467.5874" y="-388.3" font-family="Times,serif" font-size="14.00" fill="#000000">updated_at :timestamp without time zone</text>
</g>
<!-- Identity&#45;&gt;JsonWebToken -->
<g id="edge1" class="edge">
<title>Identity&#45;&gt;JsonWebToken</title>
<path fill="none" stroke="#fbf63f" d="M1583.4497,-559.287C1583.4497,-535.9253 1583.4497,-512.2252 1583.4497,-491.6846"/>
<ellipse fill="none" stroke="#fbf63f" cx="1583.4498" cy="-563.3553" rx="4" ry="4"/>
<polygon fill="#fbf63f" stroke="#fbf63f" points="1583.4498,-491.5611 1587.9497,-481.5611 1583.4498,-486.5611 1583.4497,-481.5611 1583.4497,-481.5611 1583.4497,-481.5611 1583.4498,-486.5611 1578.9497,-481.5612 1583.4498,-491.5611 1583.4498,-491.5611"/>
</g>
<!-- Screenshot -->
<g id="node3" class="node">
<title>Screenshot</title>
<path fill="none" stroke="#000000" d="M1563.5874,-1121.5C1563.5874,-1121.5 1787.312,-1121.5 1787.312,-1121.5 1793.312,-1121.5 1799.312,-1127.5 1799.312,-1133.5 1799.312,-1133.5 1799.312,-1209.5 1799.312,-1209.5 1799.312,-1215.5 1793.312,-1221.5 1787.312,-1221.5 1787.312,-1221.5 1563.5874,-1221.5 1563.5874,-1221.5 1557.5874,-1221.5 1551.5874,-1215.5 1551.5874,-1209.5 1551.5874,-1209.5 1551.5874,-1133.5 1551.5874,-1133.5 1551.5874,-1127.5 1557.5874,-1121.5 1563.5874,-1121.5"/>
<text text-anchor="middle" x="1675.4497" y="-1206.3" font-family="Times,serif" font-size="14.00" fill="#000000">Screenshot</text>
<polyline fill="none" stroke="#000000" points="1551.5874,-1199.5 1799.312,-1199.5 "/>
<text text-anchor="start" x="1559.5874" y="-1184.3" font-family="Times,serif" font-size="14.00" fill="#000000">id :uuid</text>
<text text-anchor="start" x="1559.5874" y="-1170.3" font-family="Times,serif" font-size="14.00" fill="#000000">caption :character varying</text>
<text text-anchor="start" x="1559.5874" y="-1156.3" font-family="Times,serif" font-size="14.00" fill="#000000">created_at :timestamp without time zone</text>
<text text-anchor="start" x="1559.5874" y="-1142.3" font-family="Times,serif" font-size="14.00" fill="#000000">updated_at :timestamp without time zone</text>
<text text-anchor="start" x="1559.5874" y="-1128.3" font-family="Times,serif" font-size="14.00" fill="#000000">product_id :uuid</text>
</g>
<!-- Appointment -->
<g id="node4" class="node">
<title>Appointment</title>
<path fill="none" stroke="#000000" d="M273.5874,-180.5C273.5874,-180.5 497.312,-180.5 497.312,-180.5 503.312,-180.5 509.312,-186.5 509.312,-192.5 509.312,-192.5 509.312,-282.5 509.312,-282.5 509.312,-288.5 503.312,-294.5 497.312,-294.5 497.312,-294.5 273.5874,-294.5 273.5874,-294.5 267.5874,-294.5 261.5874,-288.5 261.5874,-282.5 261.5874,-282.5 261.5874,-192.5 261.5874,-192.5 261.5874,-186.5 267.5874,-180.5 273.5874,-180.5"/>
<text text-anchor="middle" x="385.4497" y="-279.3" font-family="Times,serif" font-size="14.00" fill="#000000">Appointment</text>
<polyline fill="none" stroke="#000000" points="261.5874,-272.5 509.312,-272.5 "/>
<text text-anchor="start" x="269.5874" y="-257.3" font-family="Times,serif" font-size="14.00" fill="#000000">id :uuid</text>
<text text-anchor="start" x="269.5874" y="-243.3" font-family="Times,serif" font-size="14.00" fill="#000000">entity_id :uuid</text>
<text text-anchor="start" x="269.5874" y="-229.3" font-family="Times,serif" font-size="14.00" fill="#000000">entity_type :character varying</text>
<text text-anchor="start" x="269.5874" y="-215.3" font-family="Times,serif" font-size="14.00" fill="#000000">role_id :uuid</text>
<text text-anchor="start" x="269.5874" y="-201.3" font-family="Times,serif" font-size="14.00" fill="#000000">created_at :timestamp without time zone</text>
<text text-anchor="start" x="269.5874" y="-187.3" font-family="Times,serif" font-size="14.00" fill="#000000">updated_at :timestamp without time zone</text>
</g>
<!-- Parameter -->
<g id="node5" class="node">
<title>Parameter</title>
<path fill="none" stroke="#000000" d="M2271.5874,-616.5C2271.5874,-616.5 2495.312,-616.5 2495.312,-616.5 2501.312,-616.5 2507.312,-622.5 2507.312,-628.5 2507.312,-628.5 2507.312,-718.5 2507.312,-718.5 2507.312,-724.5 2501.312,-730.5 2495.312,-730.5 2495.312,-730.5 2271.5874,-730.5 2271.5874,-730.5 2265.5874,-730.5 2259.5874,-724.5 2259.5874,-718.5 2259.5874,-718.5 2259.5874,-628.5 2259.5874,-628.5 2259.5874,-622.5 2265.5874,-616.5 2271.5874,-616.5"/>
<text text-anchor="middle" x="2383.4497" y="-715.3" font-family="Times,serif" font-size="14.00" fill="#000000">Parameter</text>
<polyline fill="none" stroke="#000000" points="2259.5874,-708.5 2507.312,-708.5 "/>
<text text-anchor="start" x="2267.5874" y="-693.3" font-family="Times,serif" font-size="14.00" fill="#000000">id :uuid</text>
<text text-anchor="start" x="2267.5874" y="-679.3" font-family="Times,serif" font-size="14.00" fill="#000000">exposure_id :uuid</text>
<text text-anchor="start" x="2267.5874" y="-665.3" font-family="Times,serif" font-size="14.00" fill="#000000">name :character varying</text>
<text text-anchor="start" x="2267.5874" y="-651.3" font-family="Times,serif" font-size="14.00" fill="#000000">required :boolean</text>
<text text-anchor="start" x="2267.5874" y="-637.3" font-family="Times,serif" font-size="14.00" fill="#000000">created_at :timestamp without time zone</text>
<text text-anchor="start" x="2267.5874" y="-623.3" font-family="Times,serif" font-size="14.00" fill="#000000">updated_at :timestamp without time zone</text>
</g>
<!-- Voucher -->
<g id="node6" class="node">
<title>Voucher</title>
<path fill="none" stroke="#000000" d="M1191.5425,-346.5C1191.5425,-346.5 1425.3569,-346.5 1425.3569,-346.5 1431.3569,-346.5 1437.3569,-352.5 1437.3569,-358.5 1437.3569,-358.5 1437.3569,-504.5 1437.3569,-504.5 1437.3569,-510.5 1431.3569,-516.5 1425.3569,-516.5 1425.3569,-516.5 1191.5425,-516.5 1191.5425,-516.5 1185.5425,-516.5 1179.5425,-510.5 1179.5425,-504.5 1179.5425,-504.5 1179.5425,-358.5 1179.5425,-358.5 1179.5425,-352.5 1185.5425,-346.5 1191.5425,-346.5"/>
<text text-anchor="middle" x="1308.4497" y="-501.3" font-family="Times,serif" font-size="14.00" fill="#000000">Voucher</text>
<polyline fill="none" stroke="#000000" points="1179.5425,-494.5 1437.3569,-494.5 "/>
<text text-anchor="start" x="1187.5425" y="-479.3" font-family="Times,serif" font-size="14.00" fill="#000000">updated_at :timestamp without time zone</text>
<text text-anchor="start" x="1187.5425" y="-465.3" font-family="Times,serif" font-size="14.00" fill="#000000">product_license_id :uuid</text>
<text text-anchor="start" x="1187.5425" y="-451.3" font-family="Times,serif" font-size="14.00" fill="#000000">entitlement_id :uuid</text>
<text text-anchor="start" x="1187.5425" y="-437.3" font-family="Times,serif" font-size="14.00" fill="#000000">code :character varying</text>
<text text-anchor="start" x="1187.5425" y="-423.3" font-family="Times,serif" font-size="14.00" fill="#000000">issued_at :timestamp without time zone</text>
<text text-anchor="start" x="1187.5425" y="-409.3" font-family="Times,serif" font-size="14.00" fill="#000000">expires_at :timestamp without time zone</text>
<text text-anchor="start" x="1187.5425" y="-395.3" font-family="Times,serif" font-size="14.00" fill="#000000">redeemed_at :timestamp without time zone</text>
<text text-anchor="start" x="1187.5425" y="-381.3" font-family="Times,serif" font-size="14.00" fill="#000000">redeemed_by :uuid</text>
<text text-anchor="start" x="1187.5425" y="-367.3" font-family="Times,serif" font-size="14.00" fill="#000000">created_at :timestamp without time zone</text>
<text text-anchor="start" x="1187.5425" y="-353.3" font-family="Times,serif" font-size="14.00" fill="#000000">id :uuid</text>
</g>
<!-- Dependency -->
<g id="node7" class="node">
<title>Dependency</title>
<path fill="none" stroke="#000000" d="M1739.5874,-865.5C1739.5874,-865.5 1963.312,-865.5 1963.312,-865.5 1969.312,-865.5 1975.312,-871.5 1975.312,-877.5 1975.312,-877.5 1975.312,-981.5 1975.312,-981.5 1975.312,-987.5 1969.312,-993.5 1963.312,-993.5 1963.312,-993.5 1739.5874,-993.5 1739.5874,-993.5 1733.5874,-993.5 1727.5874,-987.5 1727.5874,-981.5 1727.5874,-981.5 1727.5874,-877.5 1727.5874,-877.5 1727.5874,-871.5 1733.5874,-865.5 1739.5874,-865.5"/>
<text text-anchor="middle" x="1851.4497" y="-978.3" font-family="Times,serif" font-size="14.00" fill="#000000">Dependency</text>
<polyline fill="none" stroke="#000000" points="1727.5874,-971.5 1975.312,-971.5 "/>
<text text-anchor="start" x="1735.5874" y="-956.3" font-family="Times,serif" font-size="14.00" fill="#000000">id :uuid</text>
<text text-anchor="start" x="1735.5874" y="-942.3" font-family="Times,serif" font-size="14.00" fill="#000000">build_id :uuid</text>
<text text-anchor="start" x="1735.5874" y="-928.3" font-family="Times,serif" font-size="14.00" fill="#000000">interface_id :uuid</text>
<text text-anchor="start" x="1735.5874" y="-914.3" font-family="Times,serif" font-size="14.00" fill="#000000">created_at :timestamp without time zone</text>
<text text-anchor="start" x="1735.5874" y="-900.3" font-family="Times,serif" font-size="14.00" fill="#000000">updated_at :timestamp without time zone</text>
<text text-anchor="start" x="1735.5874" y="-886.3" font-family="Times,serif" font-size="14.00" fill="#000000">required :boolean</text>
<text text-anchor="start" x="1735.5874" y="-872.3" font-family="Times,serif" font-size="14.00" fill="#000000">mappings :json</text>
</g>
<!-- Surrogate -->
<g id="node8" class="node">
<title>Surrogate</title>
<path fill="none" stroke="#000000" d="M2005.5874,-879.5C2005.5874,-879.5 2229.312,-879.5 2229.312,-879.5 2235.312,-879.5 2241.312,-885.5 2241.312,-891.5 2241.312,-891.5 2241.312,-967.5 2241.312,-967.5 2241.312,-973.5 2235.312,-979.5 2229.312,-979.5 2229.312,-979.5 2005.5874,-979.5 2005.5874,-979.5 1999.5874,-979.5 1993.5874,-973.5 1993.5874,-967.5 1993.5874,-967.5 1993.5874,-891.5 1993.5874,-891.5 1993.5874,-885.5 1999.5874,-879.5 2005.5874,-879.5"/>
<text text-anchor="middle" x="2117.4497" y="-964.3" font-family="Times,serif" font-size="14.00" fill="#000000">Surrogate</text>
<polyline fill="none" stroke="#000000" points="1993.5874,-957.5 2241.312,-957.5 "/>
<text text-anchor="start" x="2001.5874" y="-942.3" font-family="Times,serif" font-size="14.00" fill="#000000">id :uuid</text>
<text text-anchor="start" x="2001.5874" y="-928.3" font-family="Times,serif" font-size="14.00" fill="#000000">interface_id :uuid</text>
<text text-anchor="start" x="2001.5874" y="-914.3" font-family="Times,serif" font-size="14.00" fill="#000000">substitute_id :uuid</text>
<text text-anchor="start" x="2001.5874" y="-900.3" font-family="Times,serif" font-size="14.00" fill="#000000">created_at :timestamp without time zone</text>
<text text-anchor="start" x="2001.5874" y="-886.3" font-family="Times,serif" font-size="14.00" fill="#000000">updated_at :timestamp without time zone</text>
</g>
<!-- License -->
<g id="node9" class="node">
<title>License</title>
<path fill="none" stroke="#000000" d="M1044.5874,-1079.5C1044.5874,-1079.5 1268.312,-1079.5 1268.312,-1079.5 1274.312,-1079.5 1280.312,-1085.5 1280.312,-1091.5 1280.312,-1091.5 1280.312,-1251.5 1280.312,-1251.5 1280.312,-1257.5 1274.312,-1263.5 1268.312,-1263.5 1268.312,-1263.5 1044.5874,-1263.5 1044.5874,-1263.5 1038.5874,-1263.5 1032.5874,-1257.5 1032.5874,-1251.5 1032.5874,-1251.5 1032.5874,-1091.5 1032.5874,-1091.5 1032.5874,-1085.5 1038.5874,-1079.5 1044.5874,-1079.5"/>
<text text-anchor="middle" x="1156.4497" y="-1248.3" font-family="Times,serif" font-size="14.00" fill="#000000">License</text>
<polyline fill="none" stroke="#000000" points="1032.5874,-1241.5 1280.312,-1241.5 "/>
<text text-anchor="start" x="1040.5874" y="-1226.3" font-family="Times,serif" font-size="14.00" fill="#000000">external_id :character varying</text>
<text text-anchor="start" x="1040.5874" y="-1212.3" font-family="Times,serif" font-size="14.00" fill="#000000">name :character varying</text>
<text text-anchor="start" x="1040.5874" y="-1198.3" font-family="Times,serif" font-size="14.00" fill="#000000">url :character varying</text>
<text text-anchor="start" x="1040.5874" y="-1184.3" font-family="Times,serif" font-size="14.00" fill="#000000">created_at :timestamp without time zone</text>
<text text-anchor="start" x="1040.5874" y="-1170.3" font-family="Times,serif" font-size="14.00" fill="#000000">updated_at :timestamp without time zone</text>
<text text-anchor="start" x="1040.5874" y="-1156.3" font-family="Times,serif" font-size="14.00" fill="#000000">description :character varying</text>
<text text-anchor="start" x="1040.5874" y="-1142.3" font-family="Times,serif" font-size="14.00" fill="#000000">expiry :integer</text>
<text text-anchor="start" x="1040.5874" y="-1128.3" font-family="Times,serif" font-size="14.00" fill="#000000">expires_at :timestamp without time zone</text>
<text text-anchor="start" x="1040.5874" y="-1114.3" font-family="Times,serif" font-size="14.00" fill="#000000">days_valid :integer</text>
<text text-anchor="start" x="1040.5874" y="-1100.3" font-family="Times,serif" font-size="14.00" fill="#000000">uses :integer</text>
<text text-anchor="start" x="1040.5874" y="-1086.3" font-family="Times,serif" font-size="14.00" fill="#000000">id :uuid</text>
</g>
<!-- Product -->
<g id="node10" class="node">
<title>Product</title>
<path fill="none" stroke="#000000" d="M768.5254,-567.5C768.5254,-567.5 1002.374,-567.5 1002.374,-567.5 1008.374,-567.5 1014.374,-573.5 1014.374,-579.5 1014.374,-579.5 1014.374,-767.5 1014.374,-767.5 1014.374,-773.5 1008.374,-779.5 1002.374,-779.5 1002.374,-779.5 768.5254,-779.5 768.5254,-779.5 762.5254,-779.5 756.5254,-773.5 756.5254,-767.5 756.5254,-767.5 756.5254,-579.5 756.5254,-579.5 756.5254,-573.5 762.5254,-567.5 768.5254,-567.5"/>
<text text-anchor="middle" x="885.4497" y="-764.3" font-family="Times,serif" font-size="14.00" fill="#000000">Product</text>
<polyline fill="none" stroke="#000000" points="756.5254,-757.5 1014.374,-757.5 "/>
<text text-anchor="start" x="764.5254" y="-742.3" font-family="Times,serif" font-size="14.00" fill="#000000">mime_type :character varying</text>
<text text-anchor="start" x="764.5254" y="-728.3" font-family="Times,serif" font-size="14.00" fill="#000000">name :character varying</text>
<text text-anchor="start" x="764.5254" y="-714.3" font-family="Times,serif" font-size="14.00" fill="#000000">description :text</text>
<text text-anchor="start" x="764.5254" y="-700.3" font-family="Times,serif" font-size="14.00" fill="#000000">user_id :uuid</text>
<text text-anchor="start" x="764.5254" y="-686.3" font-family="Times,serif" font-size="14.00" fill="#000000">uri :character varying</text>
<text text-anchor="start" x="764.5254" y="-672.3" font-family="Times,serif" font-size="14.00" fill="#000000">support_url :character varying</text>
<text text-anchor="start" x="764.5254" y="-658.3" font-family="Times,serif" font-size="14.00" fill="#000000">published_at :timestamp without time zone</text>
<text text-anchor="start" x="764.5254" y="-644.3" font-family="Times,serif" font-size="14.00" fill="#000000">visible_at :timestamp without time zone</text>
<text text-anchor="start" x="764.5254" y="-630.3" font-family="Times,serif" font-size="14.00" fill="#000000">created_at :timestamp without time zone</text>
<text text-anchor="start" x="764.5254" y="-616.3" font-family="Times,serif" font-size="14.00" fill="#000000">updated_at :timestamp without time zone</text>
<text text-anchor="start" x="764.5254" y="-602.3" font-family="Times,serif" font-size="14.00" fill="#000000">external_id :character varying</text>
<text text-anchor="start" x="764.5254" y="-588.3" font-family="Times,serif" font-size="14.00" fill="#000000">locale :character varying</text>
<text text-anchor="start" x="764.5254" y="-574.3" font-family="Times,serif" font-size="14.00" fill="#000000">id :uuid</text>
</g>
<!-- License&#45;&gt;Product -->
<g id="edge2" class="edge">
<title>License&#45;&gt;Product</title>
<path fill="none" stroke="#d1fd57" d="M1101.4637,-1070.4556C1057.0604,-988.8583 994.5574,-874.0004 948.2013,-788.8148"/>
<polygon fill="#d1fd57" stroke="#d1fd57" points="1101.4902,-1070.5044 1102.3175,-1081.4391 1103.8802,-1074.8963 1106.2701,-1079.2881 1106.2701,-1079.2881 1106.2701,-1079.2881 1103.8802,-1074.8963 1110.2228,-1077.1371 1101.4902,-1070.5044 1101.4902,-1070.5044"/>
<polygon fill="#d1fd57" stroke="#d1fd57" points="948.1219,-788.6688 947.2947,-777.7341 945.732,-784.2769 943.342,-779.8851 943.342,-779.8851 943.342,-779.8851 945.732,-784.2769 939.3893,-782.0361 948.1219,-788.6688 948.1219,-788.6688"/>
</g>
<!-- ProductLicense -->
<g id="node15" class="node">
<title>ProductLicense</title>
<path fill="none" stroke="#000000" d="M1207.5874,-872.5C1207.5874,-872.5 1431.312,-872.5 1431.312,-872.5 1437.312,-872.5 1443.312,-878.5 1443.312,-884.5 1443.312,-884.5 1443.312,-974.5 1443.312,-974.5 1443.312,-980.5 1437.312,-986.5 1431.312,-986.5 1431.312,-986.5 1207.5874,-986.5 1207.5874,-986.5 1201.5874,-986.5 1195.5874,-980.5 1195.5874,-974.5 1195.5874,-974.5 1195.5874,-884.5 1195.5874,-884.5 1195.5874,-878.5 1201.5874,-872.5 1207.5874,-872.5"/>
<text text-anchor="middle" x="1319.4497" y="-971.3" font-family="Times,serif" font-size="14.00" fill="#000000">ProductLicense</text>
<polyline fill="none" stroke="#000000" points="1195.5874,-964.5 1443.312,-964.5 "/>
<text text-anchor="start" x="1203.5874" y="-949.3" font-family="Times,serif" font-size="14.00" fill="#000000">id :uuid</text>
<text text-anchor="start" x="1203.5874" y="-935.3" font-family="Times,serif" font-size="14.00" fill="#000000">product_id :uuid</text>
<text text-anchor="start" x="1203.5874" y="-921.3" font-family="Times,serif" font-size="14.00" fill="#000000">license_id :uuid</text>
<text text-anchor="start" x="1203.5874" y="-907.3" font-family="Times,serif" font-size="14.00" fill="#000000">external_id :uuid</text>
<text text-anchor="start" x="1203.5874" y="-893.3" font-family="Times,serif" font-size="14.00" fill="#000000">created_at :timestamp without time zone</text>
<text text-anchor="start" x="1203.5874" y="-879.3" font-family="Times,serif" font-size="14.00" fill="#000000">updated_at :timestamp without time zone</text>
</g>
<!-- License&#45;&gt;ProductLicense -->
<g id="edge4" class="edge">
<title>License&#45;&gt;ProductLicense</title>
<path fill="none" stroke="#b8c3ab" d="M1223.2331,-1072.3492C1240.7126,-1046.398 1259.1264,-1019.0598 1275.1127,-995.3255"/>
<ellipse fill="none" stroke="#b8c3ab" cx="1220.7726" cy="-1076.0022" rx="4" ry="4"/>
<polygon fill="#b8c3ab" stroke="#b8c3ab" points="1275.2998,-995.0477 1284.6187,-989.2675 1278.0931,-990.9006 1280.8863,-986.7536 1280.8863,-986.7536 1280.8863,-986.7536 1278.0931,-990.9006 1277.154,-984.2397 1275.2998,-995.0477 1275.2998,-995.0477"/>
</g>
<!-- Entitlement -->
<g id="node24" class="node">
<title>Entitlement</title>
<path fill="none" stroke="#000000" d="M1044.1943,-616.5C1044.1943,-616.5 1268.7051,-616.5 1268.7051,-616.5 1274.7051,-616.5 1280.7051,-622.5 1280.7051,-628.5 1280.7051,-628.5 1280.7051,-718.5 1280.7051,-718.5 1280.7051,-724.5 1274.7051,-730.5 1268.7051,-730.5 1268.7051,-730.5 1044.1943,-730.5 1044.1943,-730.5 1038.1943,-730.5 1032.1943,-724.5 1032.1943,-718.5 1032.1943,-718.5 1032.1943,-628.5 1032.1943,-628.5 1032.1943,-622.5 1038.1943,-616.5 1044.1943,-616.5"/>
<text text-anchor="middle" x="1156.4497" y="-715.3" font-family="Times,serif" font-size="14.00" fill="#000000">Entitlement</text>
<polyline fill="none" stroke="#000000" points="1032.1943,-708.5 1280.7051,-708.5 "/>
<text text-anchor="start" x="1040.1943" y="-693.3" font-family="Times,serif" font-size="14.00" fill="#000000">id :uuid</text>
<text text-anchor="start" x="1040.1943" y="-679.3" font-family="Times,serif" font-size="14.00" fill="#000000">user_id :uuid</text>
<text text-anchor="start" x="1040.1943" y="-665.3" font-family="Times,serif" font-size="14.00" fill="#000000">product_license_id :uuid</text>
<text text-anchor="start" x="1040.1943" y="-651.3" font-family="Times,serif" font-size="14.00" fill="#000000">valid_from :timestamp without time zone</text>
<text text-anchor="start" x="1040.1943" y="-637.3" font-family="Times,serif" font-size="14.00" fill="#000000">created_at :timestamp without time zone</text>
<text text-anchor="start" x="1040.1943" y="-623.3" font-family="Times,serif" font-size="14.00" fill="#000000">updated_at :timestamp without time zone</text>
</g>
<!-- License&#45;&gt;Entitlement -->
<g id="edge3" class="edge">
<title>License&#45;&gt;Entitlement</title>
<path fill="none" stroke="#648bda" d="M1156.4497,-1071.0937C1156.4497,-972.7684 1156.4497,-825.7009 1156.4497,-740.7144"/>
<ellipse fill="none" stroke="#648bda" cx="1156.4498" cy="-1075.2881" rx="4" ry="4"/>
<polygon fill="#648bda" stroke="#648bda" points="1156.4498,-740.6654 1160.9497,-730.6653 1156.4498,-735.6654 1156.4497,-730.6654 1156.4497,-730.6654 1156.4497,-730.6654 1156.4498,-735.6654 1151.9497,-730.6654 1156.4498,-740.6654 1156.4498,-740.6654"/>
</g>
<!-- Group -->
<g id="node11" class="node">
<title>Group</title>
<path fill="none" stroke="#000000" d="M660.5874,-381.5C660.5874,-381.5 884.312,-381.5 884.312,-381.5 890.312,-381.5 896.312,-387.5 896.312,-393.5 896.312,-393.5 896.312,-469.5 896.312,-469.5 896.312,-475.5 890.312,-481.5 884.312,-481.5 884.312,-481.5 660.5874,-481.5 660.5874,-481.5 654.5874,-481.5 648.5874,-475.5 648.5874,-469.5 648.5874,-469.5 648.5874,-393.5 648.5874,-393.5 648.5874,-387.5 654.5874,-381.5 660.5874,-381.5"/>
<text text-anchor="middle" x="772.4497" y="-466.3" font-family="Times,serif" font-size="14.00" fill="#000000">Group</text>
<polyline fill="none" stroke="#000000" points="648.5874,-459.5 896.312,-459.5 "/>
<text text-anchor="start" x="656.5874" y="-444.3" font-family="Times,serif" font-size="14.00" fill="#000000">id :uuid</text>
<text text-anchor="start" x="656.5874" y="-430.3" font-family="Times,serif" font-size="14.00" fill="#000000">name :character varying</text>
<text text-anchor="start" x="656.5874" y="-416.3" font-family="Times,serif" font-size="14.00" fill="#000000">description :text</text>
<text text-anchor="start" x="656.5874" y="-402.3" font-family="Times,serif" font-size="14.00" fill="#000000">created_at :timestamp without time zone</text>
<text text-anchor="start" x="656.5874" y="-388.3" font-family="Times,serif" font-size="14.00" fill="#000000">updated_at :timestamp without time zone</text>
</g>
<!-- Group&#45;&gt;Appointment -->
<g id="edge7" class="edge">
<title>Group&#45;&gt;Appointment</title>
<path fill="none" stroke="#92930a" d="M695.3598,-376.9135C677.523,-365.7215 658.2478,-354.7134 639.4497,-346 588.4285,-322.3503 570.3549,-330.6406 518.4497,-309 511.134,-305.9499 503.6912,-302.6229 496.2533,-299.1271"/>
<ellipse fill="none" stroke="#92930a" cx="699.0062" cy="-379.2302" rx="4" ry="4"/>
<polygon fill="#92930a" stroke="#92930a" points="495.8621,-298.9395 488.7899,-290.5589 491.3534,-296.7781 486.8446,-294.6168 486.8446,-294.6168 486.8446,-294.6168 491.3534,-296.7781 484.8994,-298.6746 495.8621,-298.9395 495.8621,-298.9395"/>
</g>
<!-- Claim -->
<g id="node13" class="node">
<title>Claim</title>
<path fill="none" stroke="#000000" d="M805.2046,-166.5C805.2046,-166.5 1043.6948,-166.5 1043.6948,-166.5 1049.6948,-166.5 1055.6948,-172.5 1055.6948,-178.5 1055.6948,-178.5 1055.6948,-296.5 1055.6948,-296.5 1055.6948,-302.5 1049.6948,-308.5 1043.6948,-308.5 1043.6948,-308.5 805.2046,-308.5 805.2046,-308.5 799.2046,-308.5 793.2046,-302.5 793.2046,-296.5 793.2046,-296.5 793.2046,-178.5 793.2046,-178.5 793.2046,-172.5 799.2046,-166.5 805.2046,-166.5"/>
<text text-anchor="middle" x="924.4497" y="-293.3" font-family="Times,serif" font-size="14.00" fill="#000000">Claim</text>
<polyline fill="none" stroke="#000000" points="793.2046,-286.5 1055.6948,-286.5 "/>
<text text-anchor="start" x="801.2046" y="-271.3" font-family="Times,serif" font-size="14.00" fill="#000000">updated_at :timestamp without time zone</text>
<text text-anchor="start" x="801.2046" y="-257.3" font-family="Times,serif" font-size="14.00" fill="#000000">claimant_id :uuid</text>
<text text-anchor="start" x="801.2046" y="-243.3" font-family="Times,serif" font-size="14.00" fill="#000000">claimant_type :character varying</text>
<text text-anchor="start" x="801.2046" y="-229.3" font-family="Times,serif" font-size="14.00" fill="#000000">entitlement_id :uuid</text>
<text text-anchor="start" x="801.2046" y="-215.3" font-family="Times,serif" font-size="14.00" fill="#000000">authorization_count :integer</text>
<text text-anchor="start" x="801.2046" y="-201.3" font-family="Times,serif" font-size="14.00" fill="#000000">authorized_at :timestamp without time zone</text>
<text text-anchor="start" x="801.2046" y="-187.3" font-family="Times,serif" font-size="14.00" fill="#000000">created_at :timestamp without time zone</text>
<text text-anchor="start" x="801.2046" y="-173.3" font-family="Times,serif" font-size="14.00" fill="#000000">id :uuid</text>
</g>
<!-- Group&#45;&gt;Claim -->
<g id="edge8" class="edge">
<title>Group&#45;&gt;Claim</title>
<path fill="none" stroke="#a56dbb" d="M816.7488,-374.9604C831.0146,-356.7527 847.096,-336.2277 862.3965,-316.6995"/>
<ellipse fill="none" stroke="#a56dbb" cx="814.2582" cy="-378.1392" rx="4" ry="4"/>
<polygon fill="#a56dbb" stroke="#a56dbb" points="862.5019,-316.5649 872.2117,-311.4686 865.5857,-312.6291 868.6694,-308.6933 868.6694,-308.6933 868.6694,-308.6933 865.5857,-312.6291 865.1272,-305.9179 862.5019,-316.5649 862.5019,-316.5649"/>
</g>
<!-- Member -->
<g id="node14" class="node">
<title>Member</title>
<path fill="none" stroke="#000000" d="M539.5874,-187.5C539.5874,-187.5 763.312,-187.5 763.312,-187.5 769.312,-187.5 775.312,-193.5 775.312,-199.5 775.312,-199.5 775.312,-275.5 775.312,-275.5 775.312,-281.5 769.312,-287.5 763.312,-287.5 763.312,-287.5 539.5874,-287.5 539.5874,-287.5 533.5874,-287.5 527.5874,-281.5 527.5874,-275.5 527.5874,-275.5 527.5874,-199.5 527.5874,-199.5 527.5874,-193.5 533.5874,-187.5 539.5874,-187.5"/>
<text text-anchor="middle" x="651.4497" y="-272.3" font-family="Times,serif" font-size="14.00" fill="#000000">Member</text>
<polyline fill="none" stroke="#000000" points="527.5874,-265.5 775.312,-265.5 "/>
<text text-anchor="start" x="535.5874" y="-250.3" font-family="Times,serif" font-size="14.00" fill="#000000">id :uuid</text>
<text text-anchor="start" x="535.5874" y="-236.3" font-family="Times,serif" font-size="14.00" fill="#000000">group_id :uuid</text>
<text text-anchor="start" x="535.5874" y="-222.3" font-family="Times,serif" font-size="14.00" fill="#000000">user_id :uuid</text>
<text text-anchor="start" x="535.5874" y="-208.3" font-family="Times,serif" font-size="14.00" fill="#000000">created_at :timestamp without time zone</text>
<text text-anchor="start" x="535.5874" y="-194.3" font-family="Times,serif" font-size="14.00" fill="#000000">updated_at :timestamp without time zone</text>
</g>
<!-- Group&#45;&gt;Member -->
<g id="edge5" class="edge">
<title>Group&#45;&gt;Member</title>
<path fill="none" stroke="#d51c5d" d="M736.8354,-374.3994C721.4572,-349.7434 703.481,-320.9221 687.9998,-296.101"/>
<ellipse fill="none" stroke="#d51c5d" cx="739.015" cy="-377.8939" rx="4" ry="4"/>
<polygon fill="#d51c5d" stroke="#d51c5d" points="687.9285,-295.9866 686.4545,-285.1202 685.2824,-291.7441 682.6363,-287.5017 682.6363,-287.5017 682.6363,-287.5017 685.2824,-291.7441 678.8181,-289.8832 687.9285,-295.9866 687.9285,-295.9866"/>
</g>
<!-- User -->
<g id="node29" class="node">
<title>User</title>
<path fill="none" stroke="#000000" d="M597.5874,-851.5C597.5874,-851.5 821.312,-851.5 821.312,-851.5 827.312,-851.5 833.312,-857.5 833.312,-863.5 833.312,-863.5 833.312,-995.5 833.312,-995.5 833.312,-1001.5 827.312,-1007.5 821.312,-1007.5 821.312,-1007.5 597.5874,-1007.5 597.5874,-1007.5 591.5874,-1007.5 585.5874,-1001.5 585.5874,-995.5 585.5874,-995.5 585.5874,-863.5 585.5874,-863.5 585.5874,-857.5 591.5874,-851.5 597.5874,-851.5"/>
<text text-anchor="middle" x="709.4497" y="-992.3" font-family="Times,serif" font-size="14.00" fill="#000000">User</text>
<polyline fill="none" stroke="#000000" points="585.5874,-985.5 833.312,-985.5 "/>
<text text-anchor="start" x="593.5874" y="-970.3" font-family="Times,serif" font-size="14.00" fill="#000000">updated_at :timestamp without time zone</text>
<text text-anchor="start" x="593.5874" y="-956.3" font-family="Times,serif" font-size="14.00" fill="#000000">name :character varying</text>
<text text-anchor="start" x="593.5874" y="-942.3" font-family="Times,serif" font-size="14.00" fill="#000000">external_id :character varying</text>
<text text-anchor="start" x="593.5874" y="-928.3" font-family="Times,serif" font-size="14.00" fill="#000000">salutation :character varying</text>
<text text-anchor="start" x="593.5874" y="-914.3" font-family="Times,serif" font-size="14.00" fill="#000000">first_name :character varying</text>
<text text-anchor="start" x="593.5874" y="-900.3" font-family="Times,serif" font-size="14.00" fill="#000000">middle_name :character varying</text>
<text text-anchor="start" x="593.5874" y="-886.3" font-family="Times,serif" font-size="14.00" fill="#000000">last_name :character varying</text>
<text text-anchor="start" x="593.5874" y="-872.3" font-family="Times,serif" font-size="14.00" fill="#000000">created_at :timestamp without time zone</text>
<text text-anchor="start" x="593.5874" y="-858.3" font-family="Times,serif" font-size="14.00" fill="#000000">id :uuid</text>
</g>
<!-- Group&#45;&gt;User -->
<g id="edge6" class="edge">
<title>Group&#45;&gt;User</title>
<path fill="none" stroke="#cc926a" d="M741.0082,-491.0365C730.4342,-514.1051 719.9357,-541.1498 714.4497,-567 694.9196,-659.0267 696.4909,-767.167 701.1807,-841.2326"/>
<polygon fill="#cc926a" stroke="#cc926a" points="741.1219,-490.7942 749.444,-483.6532 743.2461,-486.2678 745.3703,-481.7414 745.3703,-481.7414 745.3703,-481.7414 743.2461,-486.2678 741.2965,-479.8297 741.1219,-490.7942 741.1219,-490.7942"/>
<polygon fill="#cc926a" stroke="#cc926a" points="701.1967,-841.4743 697.3712,-851.7513 701.529,-846.4633 701.8613,-851.4522 701.8613,-851.4522 701.8613,-851.4522 701.529,-846.4633 706.3513,-851.1532 701.1967,-841.4743 701.1967,-841.4743"/>
</g>
<!-- Platform -->
<g id="node12" class="node">
<title>Platform</title>
<path fill="none" stroke="#000000" d="M426.5874,-616.5C426.5874,-616.5 650.312,-616.5 650.312,-616.5 656.312,-616.5 662.312,-622.5 662.312,-628.5 662.312,-628.5 662.312,-718.5 662.312,-718.5 662.312,-724.5 656.312,-730.5 650.312,-730.5 650.312,-730.5 426.5874,-730.5 426.5874,-730.5 420.5874,-730.5 414.5874,-724.5 414.5874,-718.5 414.5874,-718.5 414.5874,-628.5 414.5874,-628.5 414.5874,-622.5 420.5874,-616.5 426.5874,-616.5"/>
<text text-anchor="middle" x="538.4497" y="-715.3" font-family="Times,serif" font-size="14.00" fill="#000000">Platform</text>
<polyline fill="none" stroke="#000000" points="414.5874,-708.5 662.312,-708.5 "/>
<text text-anchor="start" x="422.5874" y="-693.3" font-family="Times,serif" font-size="14.00" fill="#000000">id :uuid</text>
<text text-anchor="start" x="422.5874" y="-679.3" font-family="Times,serif" font-size="14.00" fill="#000000">name :character varying</text>
<text text-anchor="start" x="422.5874" y="-665.3" font-family="Times,serif" font-size="14.00" fill="#000000">user_id :uuid</text>
<text text-anchor="start" x="422.5874" y="-651.3" font-family="Times,serif" font-size="14.00" fill="#000000">public_key :text</text>
<text text-anchor="start" x="422.5874" y="-637.3" font-family="Times,serif" font-size="14.00" fill="#000000">created_at :timestamp without time zone</text>
<text text-anchor="start" x="422.5874" y="-623.3" font-family="Times,serif" font-size="14.00" fill="#000000">updated_at :timestamp without time zone</text>
</g>
<!-- Instance -->
<g id="node26" class="node">
<title>Instance</title>
<path fill="none" stroke="#000000" d="M388.0874,-367.5C388.0874,-367.5 618.812,-367.5 618.812,-367.5 624.812,-367.5 630.812,-373.5 630.812,-379.5 630.812,-379.5 630.812,-483.5 630.812,-483.5 630.812,-489.5 624.812,-495.5 618.812,-495.5 618.812,-495.5 388.0874,-495.5 388.0874,-495.5 382.0874,-495.5 376.0874,-489.5 376.0874,-483.5 376.0874,-483.5 376.0874,-379.5 376.0874,-379.5 376.0874,-373.5 382.0874,-367.5 388.0874,-367.5"/>
<text text-anchor="middle" x="503.4497" y="-480.3" font-family="Times,serif" font-size="14.00" fill="#000000">Instance</text>
<polyline fill="none" stroke="#000000" points="376.0874,-473.5 630.812,-473.5 "/>
<text text-anchor="start" x="384.0874" y="-458.3" font-family="Times,serif" font-size="14.00" fill="#000000">id :uuid</text>
<text text-anchor="start" x="384.0874" y="-444.3" font-family="Times,serif" font-size="14.00" fill="#000000">platform_id :uuid</text>
<text text-anchor="start" x="384.0874" y="-430.3" font-family="Times,serif" font-size="14.00" fill="#000000">build_id :uuid</text>
<text text-anchor="start" x="384.0874" y="-416.3" font-family="Times,serif" font-size="14.00" fill="#000000">launch_bindings :json</text>
<text text-anchor="start" x="384.0874" y="-402.3" font-family="Times,serif" font-size="14.00" fill="#000000">deployed_at :timestamp without time zone</text>
<text text-anchor="start" x="384.0874" y="-388.3" font-family="Times,serif" font-size="14.00" fill="#000000">created_at :timestamp without time zone</text>
<text text-anchor="start" x="384.0874" y="-374.3" font-family="Times,serif" font-size="14.00" fill="#000000">updated_at :timestamp without time zone</text>
</g>
<!-- Platform&#45;&gt;Instance -->
<g id="edge9" class="edge">
<title>Platform&#45;&gt;Instance</title>
<path fill="none" stroke="#2f01ab" d="M529.0096,-608.2286C524.4385,-576.6226 518.9286,-538.5258 514.1968,-505.8086"/>
<ellipse fill="none" stroke="#2f01ab" cx="529.6269" cy="-612.497" rx="4" ry="4"/>
<polygon fill="#2f01ab" stroke="#2f01ab" points="514.1867,-505.7378 517.2089,-495.1966 513.4709,-500.7893 512.7552,-495.8408 512.7552,-495.8408 512.7552,-495.8408 513.4709,-500.7893 508.3015,-496.4849 514.1867,-505.7378 514.1867,-505.7378"/>
</g>
<!-- Attempt -->
<g id="node28" class="node">
<title>Attempt</title>
<path fill="none" stroke="#000000" d="M133.5874,-.5C133.5874,-.5 357.312,-.5 357.312,-.5 363.312,-.5 369.312,-6.5 369.312,-12.5 369.312,-12.5 369.312,-116.5 369.312,-116.5 369.312,-122.5 363.312,-128.5 357.312,-128.5 357.312,-128.5 133.5874,-128.5 133.5874,-128.5 127.5874,-128.5 121.5874,-122.5 121.5874,-116.5 121.5874,-116.5 121.5874,-12.5 121.5874,-12.5 121.5874,-6.5 127.5874,-.5 133.5874,-.5"/>
<text text-anchor="middle" x="245.4497" y="-113.3" font-family="Times,serif" font-size="14.00" fill="#000000">Attempt</text>
<polyline fill="none" stroke="#000000" points="121.5874,-106.5 369.312,-106.5 "/>
<text text-anchor="start" x="129.5874" y="-91.3" font-family="Times,serif" font-size="14.00" fill="#000000">id :uuid</text>
<text text-anchor="start" x="129.5874" y="-77.3" font-family="Times,serif" font-size="14.00" fill="#000000">claim_id :uuid</text>
<text text-anchor="start" x="129.5874" y="-63.3" font-family="Times,serif" font-size="14.00" fill="#000000">claimant_id :uuid</text>
<text text-anchor="start" x="129.5874" y="-49.3" font-family="Times,serif" font-size="14.00" fill="#000000">claimant_type :character varying</text>
<text text-anchor="start" x="129.5874" y="-35.3" font-family="Times,serif" font-size="14.00" fill="#000000">product_id :uuid</text>
<text text-anchor="start" x="129.5874" y="-21.3" font-family="Times,serif" font-size="14.00" fill="#000000">created_at :timestamp without time zone</text>
<text text-anchor="start" x="129.5874" y="-7.3" font-family="Times,serif" font-size="14.00" fill="#000000">updated_at :timestamp without time zone</text>
</g>
<!-- Claim&#45;&gt;Attempt -->
<g id="edge10" class="edge">
<title>Claim&#45;&gt;Attempt</title>
<path fill="none" stroke="#22d57f" d="M785.2491,-166.2742C784.9825,-166.1824 784.716,-166.091 784.4497,-166 650.5379,-120.258 490.4617,-93.4187 379.7258,-78.9504"/>
<ellipse fill="none" stroke="#22d57f" cx="789.2429" cy="-167.7034" rx="4" ry="4"/>
<polygon fill="#22d57f" stroke="#22d57f" points="379.4191,-78.9109 370.0771,-73.1683 374.4602,-78.2711 369.5013,-77.6313 369.5013,-77.6313 369.5013,-77.6313 374.4602,-78.2711 368.9255,-82.0943 379.4191,-78.9109 379.4191,-78.9109"/>
</g>
<!-- ProductLicense&#45;&gt;Voucher -->
<g id="edge12" class="edge">
<title>ProductLicense&#45;&gt;Voucher</title>
<path fill="none" stroke="#df5681" d="M1322.9422,-863.9197C1326.4232,-785.5641 1330.2293,-650.55 1322.4497,-535 1322.2676,-532.2948 1322.059,-529.5524 1321.8276,-526.7866"/>
<ellipse fill="none" stroke="#df5681" cx="1322.7451" cy="-868.2597" rx="4" ry="4"/>
<polygon fill="#df5681" stroke="#df5681" points="1321.8151,-526.651 1325.3778,-516.28 1321.356,-521.6722 1320.8968,-516.6933 1320.8968,-516.6933 1320.8968,-516.6933 1321.356,-521.6722 1316.4158,-517.1066 1321.8151,-526.651 1321.8151,-526.651"/>
</g>
<!-- ProductLicense&#45;&gt;Entitlement -->
<g id="edge11" class="edge">
<title>ProductLicense&#45;&gt;Entitlement</title>
<path fill="none" stroke="#ea3683" d="M1278.7501,-865.5792C1254.2792,-827.1464 1223.1949,-778.3269 1198.4882,-739.5237"/>
<ellipse fill="none" stroke="#ea3683" cx="1280.9238" cy="-868.9931" rx="4" ry="4"/>
<polygon fill="#ea3683" stroke="#ea3683" points="1198.3685,-739.3356 1196.7934,-728.4834 1195.683,-735.118 1192.9976,-730.9003 1192.9976,-730.9003 1192.9976,-730.9003 1195.683,-735.118 1189.2017,-733.3172 1198.3685,-739.3356 1198.3685,-739.3356"/>
</g>
<!-- Badge -->
<g id="node17" class="node">
<title>Badge</title>
<path fill="none" stroke="#000000" d="M2485.5874,-1121.5C2485.5874,-1121.5 2709.312,-1121.5 2709.312,-1121.5 2715.312,-1121.5 2721.312,-1127.5 2721.312,-1133.5 2721.312,-1133.5 2721.312,-1209.5 2721.312,-1209.5 2721.312,-1215.5 2715.312,-1221.5 2709.312,-1221.5 2709.312,-1221.5 2485.5874,-1221.5 2485.5874,-1221.5 2479.5874,-1221.5 2473.5874,-1215.5 2473.5874,-1209.5 2473.5874,-1209.5 2473.5874,-1133.5 2473.5874,-1133.5 2473.5874,-1127.5 2479.5874,-1121.5 2485.5874,-1121.5"/>
<text text-anchor="middle" x="2597.4497" y="-1206.3" font-family="Times,serif" font-size="14.00" fill="#000000">Badge</text>
<polyline fill="none" stroke="#000000" points="2473.5874,-1199.5 2721.312,-1199.5 "/>
<text text-anchor="start" x="2481.5874" y="-1184.3" font-family="Times,serif" font-size="14.00" fill="#000000">id :uuid</text>
<text text-anchor="start" x="2481.5874" y="-1170.3" font-family="Times,serif" font-size="14.00" fill="#000000">name :character varying</text>
<text text-anchor="start" x="2481.5874" y="-1156.3" font-family="Times,serif" font-size="14.00" fill="#000000">description :text</text>
<text text-anchor="start" x="2481.5874" y="-1142.3" font-family="Times,serif" font-size="14.00" fill="#000000">created_at :timestamp without time zone</text>
<text text-anchor="start" x="2481.5874" y="-1128.3" font-family="Times,serif" font-size="14.00" fill="#000000">updated_at :timestamp without time zone</text>
</g>
<!-- Badge&#45;&gt;Badge -->
<g id="edge13" class="edge">
<title>Badge&#45;&gt;Badge</title>
<path fill="none" stroke="#95441c" d="M2730.85,-1184.4019C2736.2105,-1181.0523 2739.312,-1176.7516 2739.312,-1171.5 2739.312,-1166.2484 2736.2105,-1161.9477 2730.85,-1158.5981"/>
<polygon fill="#95441c" stroke="#95441c" points="2730.5937,-1184.5174 2719.6278,-1184.5269 2726.0359,-1186.5732 2721.478,-1188.6289 2721.478,-1188.6289 2721.478,-1188.6289 2726.0359,-1186.5732 2723.3282,-1192.731 2730.5937,-1184.5174 2730.5937,-1184.5174"/>
<polygon fill="#95441c" stroke="#95441c" points="2730.5937,-1158.4826 2723.3282,-1150.269 2726.0359,-1156.4268 2721.478,-1154.3711 2721.478,-1154.3711 2721.478,-1154.3711 2726.0359,-1156.4268 2719.6278,-1158.4731 2730.5937,-1158.4826 2730.5937,-1158.4826"/>
</g>
<!-- Role -->
<g id="node18" class="node">
<title>Role</title>
<path fill="none" stroke="#000000" d="M236.5874,-1107.5C236.5874,-1107.5 460.312,-1107.5 460.312,-1107.5 466.312,-1107.5 472.312,-1113.5 472.312,-1119.5 472.312,-1119.5 472.312,-1223.5 472.312,-1223.5 472.312,-1229.5 466.312,-1235.5 460.312,-1235.5 460.312,-1235.5 236.5874,-1235.5 236.5874,-1235.5 230.5874,-1235.5 224.5874,-1229.5 224.5874,-1223.5 224.5874,-1223.5 224.5874,-1119.5 224.5874,-1119.5 224.5874,-1113.5 230.5874,-1107.5 236.5874,-1107.5"/>
<text text-anchor="middle" x="348.4497" y="-1220.3" font-family="Times,serif" font-size="14.00" fill="#000000">Role</text>
<polyline fill="none" stroke="#000000" points="224.5874,-1213.5 472.312,-1213.5 "/>
<text text-anchor="start" x="232.5874" y="-1198.3" font-family="Times,serif" font-size="14.00" fill="#000000">id :uuid</text>
<text text-anchor="start" x="232.5874" y="-1184.3" font-family="Times,serif" font-size="14.00" fill="#000000">name :character varying</text>
<text text-anchor="start" x="232.5874" y="-1170.3" font-family="Times,serif" font-size="14.00" fill="#000000">description :text</text>
<text text-anchor="start" x="232.5874" y="-1156.3" font-family="Times,serif" font-size="14.00" fill="#000000">default :boolean</text>
<text text-anchor="start" x="232.5874" y="-1142.3" font-family="Times,serif" font-size="14.00" fill="#000000">created_at :timestamp without time zone</text>
<text text-anchor="start" x="232.5874" y="-1128.3" font-family="Times,serif" font-size="14.00" fill="#000000">updated_at :timestamp without time zone</text>
<text text-anchor="start" x="232.5874" y="-1114.3" font-family="Times,serif" font-size="14.00" fill="#000000">permissions :json</text>
</g>
<!-- Role&#45;&gt;Appointment -->
<g id="edge14" class="edge">
<title>Role&#45;&gt;Appointment</title>
<path fill="none" stroke="#341a5f" d="M324.0533,-1099.5375C301.2331,-1027.721 269.1121,-913.7152 258.4497,-812 236.7656,-605.1424 224.9149,-539.3977 301.4497,-346 307.4023,-330.9582 316.1074,-316.2621 325.6858,-302.7866"/>
<ellipse fill="none" stroke="#341a5f" cx="325.2908" cy="-1103.4073" rx="4" ry="4"/>
<polygon fill="#341a5f" stroke="#341a5f" points="325.8141,-302.6125 335.3687,-297.231 328.78,-298.5871 331.7459,-294.5617 331.7459,-294.5617 331.7459,-294.5617 328.78,-298.5871 328.123,-291.8924 325.8141,-302.6125 325.8141,-302.6125"/>
</g>
<!-- Role&#45;&gt;Group -->
<g id="edge16" class="edge">
<title>Role&#45;&gt;Group</title>
<path fill="none" stroke="#6e3cb9" d="M330.457,-1097.3638C304.6946,-971.4212 273.7749,-714.9826 405.4497,-567 440.7967,-527.2753 590.2874,-537.2615 639.4497,-517 658.7516,-509.045 678.3236,-498.2703 696.3015,-487.0534"/>
<polygon fill="#6e3cb9" stroke="#6e3cb9" points="330.4887,-1097.5157 328.1306,-1108.225 331.512,-1102.4098 332.5354,-1107.304 332.5354,-1107.304 332.5354,-1107.304 331.512,-1102.4098 336.9401,-1106.383 330.4887,-1097.5157 330.4887,-1097.5157"/>
<polygon fill="#6e3cb9" stroke="#6e3cb9" points="696.5551,-486.8921 707.4074,-485.318 700.773,-484.207 704.9908,-481.5219 704.9908,-481.5219 704.9908,-481.5219 700.773,-484.207 702.5743,-477.7258 696.5551,-486.8921 696.5551,-486.8921"/>
</g>
<!-- Role&#45;&gt;User -->
<g id="edge15" class="edge">
<title>Role&#45;&gt;User</title>
<path fill="none" stroke="#9a2861" d="M452.6327,-1101.6599C493.7744,-1074.0801 541.3998,-1042.1539 584.3811,-1013.341"/>
<polygon fill="#9a2861" stroke="#9a2861" points="452.5496,-1101.7155 441.7376,-1103.5459 448.3965,-1104.4997 444.2433,-1107.2838 444.2433,-1107.2838 444.2433,-1107.2838 448.3965,-1104.4997 446.749,-1111.0216 452.5496,-1101.7155 452.5496,-1101.7155"/>
<polygon fill="#9a2861" stroke="#9a2861" points="584.6058,-1013.1904 595.4179,-1011.36 588.759,-1010.4062 592.9122,-1007.6221 592.9122,-1007.6221 592.9122,-1007.6221 588.759,-1010.4062 590.4065,-1003.8843 584.6058,-1013.1904 584.6058,-1013.1904"/>
</g>
<!-- Interface -->
<g id="node19" class="node">
<title>Interface</title>
<path fill="none" stroke="#000000" d="M2079.5874,-1107.5C2079.5874,-1107.5 2303.312,-1107.5 2303.312,-1107.5 2309.312,-1107.5 2315.312,-1113.5 2315.312,-1119.5 2315.312,-1119.5 2315.312,-1223.5 2315.312,-1223.5 2315.312,-1229.5 2309.312,-1235.5 2303.312,-1235.5 2303.312,-1235.5 2079.5874,-1235.5 2079.5874,-1235.5 2073.5874,-1235.5 2067.5874,-1229.5 2067.5874,-1223.5 2067.5874,-1223.5 2067.5874,-1119.5 2067.5874,-1119.5 2067.5874,-1113.5 2073.5874,-1107.5 2079.5874,-1107.5"/>
<text text-anchor="middle" x="2191.4497" y="-1220.3" font-family="Times,serif" font-size="14.00" fill="#000000">Interface</text>
<polyline fill="none" stroke="#000000" points="2067.5874,-1213.5 2315.312,-1213.5 "/>
<text text-anchor="start" x="2075.5874" y="-1198.3" font-family="Times,serif" font-size="14.00" fill="#000000">id :uuid</text>
<text text-anchor="start" x="2075.5874" y="-1184.3" font-family="Times,serif" font-size="14.00" fill="#000000">name :character varying</text>
<text text-anchor="start" x="2075.5874" y="-1170.3" font-family="Times,serif" font-size="14.00" fill="#000000">uri :character varying</text>
<text text-anchor="start" x="2075.5874" y="-1156.3" font-family="Times,serif" font-size="14.00" fill="#000000">version :character varying</text>
<text text-anchor="start" x="2075.5874" y="-1142.3" font-family="Times,serif" font-size="14.00" fill="#000000">ordinal :integer</text>
<text text-anchor="start" x="2075.5874" y="-1128.3" font-family="Times,serif" font-size="14.00" fill="#000000">created_at :timestamp without time zone</text>
<text text-anchor="start" x="2075.5874" y="-1114.3" font-family="Times,serif" font-size="14.00" fill="#000000">updated_at :timestamp without time zone</text>
</g>
<!-- Interface&#45;&gt;Dependency -->
<g id="edge22" class="edge">
<title>Interface&#45;&gt;Dependency</title>
<path fill="none" stroke="#bbab52" d="M2089.9183,-1102.7786C2056.1645,-1079.6213 2018.5085,-1053.4488 1984.4497,-1029 1971.4519,-1019.6697 1957.8407,-1009.7098 1944.4925,-999.8316"/>
<ellipse fill="none" stroke="#bbab52" cx="2093.3154" cy="-1105.107" rx="4" ry="4"/>
<polygon fill="#bbab52" stroke="#bbab52" points="1944.255,-999.6554 1938.9041,-990.0836 1940.2391,-996.6767 1936.2232,-993.6979 1936.2232,-993.6979 1936.2232,-993.6979 1940.2391,-996.6767 1933.5424,-997.3122 1944.255,-999.6554 1944.255,-999.6554"/>
</g>
<!-- Interface&#45;&gt;Surrogate -->
<g id="edge17" class="edge">
<title>Interface&#45;&gt;Surrogate</title>
<path fill="none" stroke="#9fcc13" d="M2136.1354,-1100.5614C2128.8348,-1087.9826 2122.4605,-1074.5541 2118.3325,-1061 2111.4396,-1038.3675 2109.9826,-1012.5103 2110.69,-989.7477"/>
<ellipse fill="none" stroke="#9fcc13" cx="2138.2184" cy="-1104.0287" rx="4" ry="4"/>
<polygon fill="#9fcc13" stroke="#9fcc13" points="2110.7003,-989.5193 2115.6509,-979.7345 2110.9279,-984.5245 2111.1556,-979.5296 2111.1556,-979.5296 2111.1556,-979.5296 2110.9279,-984.5245 2106.6602,-979.3248 2110.7003,-989.5193 2110.7003,-989.5193"/>
<text text-anchor="middle" x="2148.0083" y="-1049.8" font-family="Times,serif" font-size="14.00" fill="#000000">substitutes</text>
</g>
<!-- Interface&#45;&gt;Surrogate -->
<g id="edge18" class="edge">
<title>Interface&#45;&gt;Surrogate</title>
<path fill="none" stroke="#730229" d="M2187.7266,-1098.8912C2185.6292,-1081.6398 2182.4009,-1063.4685 2177.4497,-1047 2171.525,-1027.2935 2162.3693,-1006.9476 2152.98,-988.838"/>
<ellipse fill="none" stroke="#730229" cx="2188.2215" cy="-1103.2997" rx="4" ry="4"/>
<polygon fill="#730229" stroke="#730229" points="2152.7568,-988.4178 2152.0385,-977.4755 2150.4107,-984.0024 2148.0646,-979.587 2148.0646,-979.587 2148.0646,-979.587 2150.4107,-984.0024 2144.0907,-981.6985 2152.7568,-988.4178 2152.7568,-988.4178"/>
</g>
<!-- Interface&#45;&gt;Interface -->
<g id="edge20" class="edge">
<title>Interface&#45;&gt;Interface</title>
<path fill="none" stroke="#8b6466" d="M2322.8898,-1185.5317C2329.4473,-1182.0396 2333.312,-1177.3623 2333.312,-1171.5 2333.312,-1166.2484 2330.2105,-1161.9477 2324.85,-1158.5981"/>
<ellipse fill="none" stroke="#8b6466" cx="2319.1687" cy="-1187.0866" rx="4" ry="4"/>
<polygon fill="#8b6466" stroke="#8b6466" points="2324.5937,-1158.4826 2317.3282,-1150.269 2320.0359,-1156.4268 2315.478,-1154.3711 2315.478,-1154.3711 2315.478,-1154.3711 2320.0359,-1156.4268 2313.6278,-1158.4731 2324.5937,-1158.4826 2324.5937,-1158.4826"/>
<text text-anchor="middle" x="2394.3501" y="-1167.3" font-family="Times,serif" font-size="14.00" fill="#000000">substituted_interfaces</text>
</g>
<!-- Exposure -->
<g id="node20" class="node">
<title>Exposure</title>
<path fill="none" stroke="#000000" d="M2271.5874,-879.5C2271.5874,-879.5 2495.312,-879.5 2495.312,-879.5 2501.312,-879.5 2507.312,-885.5 2507.312,-891.5 2507.312,-891.5 2507.312,-967.5 2507.312,-967.5 2507.312,-973.5 2501.312,-979.5 2495.312,-979.5 2495.312,-979.5 2271.5874,-979.5 2271.5874,-979.5 2265.5874,-979.5 2259.5874,-973.5 2259.5874,-967.5 2259.5874,-967.5 2259.5874,-891.5 2259.5874,-891.5 2259.5874,-885.5 2265.5874,-879.5 2271.5874,-879.5"/>
<text text-anchor="middle" x="2383.4497" y="-964.3" font-family="Times,serif" font-size="14.00" fill="#000000">Exposure</text>
<polyline fill="none" stroke="#000000" points="2259.5874,-957.5 2507.312,-957.5 "/>
<text text-anchor="start" x="2267.5874" y="-942.3" font-family="Times,serif" font-size="14.00" fill="#000000">id :uuid</text>
<text text-anchor="start" x="2267.5874" y="-928.3" font-family="Times,serif" font-size="14.00" fill="#000000">build_id :uuid</text>
<text text-anchor="start" x="2267.5874" y="-914.3" font-family="Times,serif" font-size="14.00" fill="#000000">interface_id :uuid</text>
<text text-anchor="start" x="2267.5874" y="-900.3" font-family="Times,serif" font-size="14.00" fill="#000000">created_at :timestamp without time zone</text>
<text text-anchor="start" x="2267.5874" y="-886.3" font-family="Times,serif" font-size="14.00" fill="#000000">updated_at :timestamp without time zone</text>
</g>
<!-- Interface&#45;&gt;Exposure -->
<g id="edge21" class="edge">
<title>Interface&#45;&gt;Exposure</title>
<path fill="none" stroke="#e4bc5d" d="M2247.6654,-1100.6448C2276.1338,-1064.7628 2310.2731,-1021.733 2337.198,-987.7965"/>
<ellipse fill="none" stroke="#e4bc5d" cx="2244.8842" cy="-1104.1502" rx="4" ry="4"/>
<polygon fill="#e4bc5d" stroke="#e4bc5d" points="2337.3125,-987.6521 2347.0531,-982.6151 2340.4202,-983.7352 2343.5278,-979.8182 2343.5278,-979.8182 2343.5278,-979.8182 2340.4202,-983.7352 2340.0026,-977.0213 2337.3125,-987.6521 2337.3125,-987.6521"/>
</g>
<!-- SurrogatedInterface -->
<g id="node32" class="node">
<title>SurrogatedInterface</title>
<ellipse fill="none" stroke="#000000" cx="2605.4497" cy="-929.5" rx="80.1472" ry="18"/>
<text text-anchor="middle" x="2605.4497" y="-925.3" font-family="Times,serif" font-size="14.00" fill="#000000">SurrogatedInterface</text>
</g>
<!-- Interface&#45;&gt;SurrogatedInterface -->
<g id="edge19" class="edge">
<title>Interface&#45;&gt;SurrogatedInterface</title>
<path fill="none" stroke="#f3f0ae" d="M2324.7462,-1127.9139C2386.374,-1104.1529 2458.5608,-1070.9537 2516.4497,-1029 2544.7795,-1008.4686 2570.6461,-977.5519 2587.1033,-955.6376"/>
<polygon fill="#f3f0ae" stroke="#f3f0ae" points="2324.6863,-1127.9367 2313.7393,-1127.2936 2320.0142,-1129.7176 2315.3421,-1131.4985 2315.3421,-1131.4985 2315.3421,-1131.4985 2320.0142,-1129.7176 2316.9449,-1135.7034 2324.6863,-1127.9367 2324.6863,-1127.9367"/>
<polygon fill="#f3f0ae" stroke="#f3f0ae" points="2587.2153,-955.4854 2596.7674,-950.0995 2590.1793,-951.4586 2593.1434,-947.4319 2593.1434,-947.4319 2593.1434,-947.4319 2590.1793,-951.4586 2589.5193,-944.7643 2587.2153,-955.4854 2587.2153,-955.4854"/>
</g>
<!-- Exposure&#45;&gt;Parameter -->
<g id="edge23" class="edge">
<title>Exposure&#45;&gt;Parameter</title>
<path fill="none" stroke="#f381f9" d="M2383.4497,-871.0198C2383.4497,-832.2621 2383.4497,-781.2974 2383.4497,-740.8454"/>
<ellipse fill="none" stroke="#f381f9" cx="2383.4498" cy="-875.2281" rx="4" ry="4"/>
<polygon fill="#f381f9" stroke="#f381f9" points="2383.4498,-740.8013 2387.9497,-730.8013 2383.4498,-735.8013 2383.4497,-730.8013 2383.4497,-730.8013 2383.4497,-730.8013 2383.4498,-735.8013 2378.9497,-730.8014 2383.4498,-740.8013 2383.4498,-740.8013"/>
</g>
<!-- Ability -->
<g id="node21" class="node">
<title>Ability</title>
<polygon fill="none" stroke="#000000" points="2757.6152,-1149.5 2757.6152,-1193.5 2813.2842,-1193.5 2813.2842,-1149.5 2757.6152,-1149.5"/>
<text text-anchor="middle" x="2785.4497" y="-1178.3" font-family="Times,serif" font-size="14.00" fill="#000000">Ability</text>
<polyline fill="none" stroke="#000000" points="2757.6152,-1171.5 2813.2842,-1171.5 "/>
<text text-anchor="middle" x="2785.4497" y="-1156.3" font-family="Times,serif" font-size="14.00" fill="#000000"> </text>
</g>
<!-- SubProduct -->
<g id="node22" class="node">
<title>SubProduct</title>
<path fill="none" stroke="#000000" d="M2843.5874,-1121.5C2843.5874,-1121.5 3067.312,-1121.5 3067.312,-1121.5 3073.312,-1121.5 3079.312,-1127.5 3079.312,-1133.5 3079.312,-1133.5 3079.312,-1209.5 3079.312,-1209.5 3079.312,-1215.5 3073.312,-1221.5 3067.312,-1221.5 3067.312,-1221.5 2843.5874,-1221.5 2843.5874,-1221.5 2837.5874,-1221.5 2831.5874,-1215.5 2831.5874,-1209.5 2831.5874,-1209.5 2831.5874,-1133.5 2831.5874,-1133.5 2831.5874,-1127.5 2837.5874,-1121.5 2843.5874,-1121.5"/>
<text text-anchor="middle" x="2955.4497" y="-1206.3" font-family="Times,serif" font-size="14.00" fill="#000000">SubProduct</text>
<polyline fill="none" stroke="#000000" points="2831.5874,-1199.5 3079.312,-1199.5 "/>
<text text-anchor="start" x="2839.5874" y="-1184.3" font-family="Times,serif" font-size="14.00" fill="#000000">id :uuid</text>
<text text-anchor="start" x="2839.5874" y="-1170.3" font-family="Times,serif" font-size="14.00" fill="#000000">parent_id :uuid</text>
<text text-anchor="start" x="2839.5874" y="-1156.3" font-family="Times,serif" font-size="14.00" fill="#000000">child_id :uuid</text>
<text text-anchor="start" x="2839.5874" y="-1142.3" font-family="Times,serif" font-size="14.00" fill="#000000">created_at :timestamp without time zone</text>
<text text-anchor="start" x="2839.5874" y="-1128.3" font-family="Times,serif" font-size="14.00" fill="#000000">updated_at :timestamp without time zone</text>
</g>
<!-- ApplicationRecord -->
<g id="node23" class="node">
<title>ApplicationRecord</title>
<ellipse fill="none" stroke="#000000" cx="3174.4497" cy="-1171.5" rx="77.2916" ry="18"/>
<text text-anchor="middle" x="3174.4497" y="-1167.3" font-family="Times,serif" font-size="14.00" fill="#000000">ApplicationRecord</text>
</g>
<!-- Entitlement&#45;&gt;Voucher -->
<g id="edge25" class="edge">
<title>Entitlement&#45;&gt;Voucher</title>
<path fill="none" stroke="#b04b1b" d="M1196.7407,-609.3525C1212.9175,-583.5973 1231.8879,-553.3945 1249.557,-525.2634"/>
<ellipse fill="none" stroke="#b04b1b" cx="1194.4067" cy="-613.0685" rx="4" ry="4"/>
<polygon fill="#b04b1b" stroke="#b04b1b" points="1249.6753,-525.075 1258.8049,-519.0003 1252.3348,-520.8409 1254.9942,-516.6068 1254.9942,-516.6068 1254.9942,-516.6068 1252.3348,-520.8409 1251.1835,-514.2133 1249.6753,-525.075 1249.6753,-525.075"/>
</g>
<!-- Entitlement&#45;&gt;Group -->
<g id="edge27" class="edge">
<title>Entitlement&#45;&gt;Group</title>
<path fill="none" stroke="#ebefaf" d="M1089.3948,-610.0769C1069.4201,-593.9887 1046.639,-578.1315 1023.4497,-567 990.3842,-551.1277 976.5247,-563.6772 942.9116,-549 907.0814,-533.3547 870.9248,-509.7916 841.1878,-487.8637"/>
<polygon fill="#ebefaf" stroke="#ebefaf" points="1089.4685,-610.1374 1094.3387,-619.9625 1093.3319,-613.3114 1097.1953,-616.4854 1097.1953,-616.4854 1097.1953,-616.4854 1093.3319,-613.3114 1100.0519,-613.0083 1089.4685,-610.1374 1089.4685,-610.1374"/>
<polygon fill="#ebefaf" stroke="#ebefaf" points="840.9881,-487.7146 835.6692,-478.1249 836.9822,-484.7224 832.9763,-481.7302 832.9763,-481.7302 832.9763,-481.7302 836.9822,-484.7224 830.2833,-485.3355 840.9881,-487.7146 840.9881,-487.7146"/>
<text text-anchor="middle" x="993.2188" y="-537.8" font-family="Times,serif" font-size="14.00" fill="#000000">group_consumers</text>
</g>
<!-- Entitlement&#45;&gt;Claim -->
<g id="edge24" class="edge">
<title>Entitlement&#45;&gt;Claim</title>
<path fill="none" stroke="#24db50" d="M1122.0976,-608.9418C1080.89,-531.4998 1011.7964,-401.6516 967.1826,-317.8083"/>
<ellipse fill="none" stroke="#24db50" cx="1124.0022" cy="-612.5211" rx="4" ry="4"/>
<polygon fill="#24db50" stroke="#24db50" points="967.1033,-317.6593 966.3784,-306.7174 964.7545,-313.2453 962.4058,-308.8312 962.4058,-308.8312 962.4058,-308.8312 964.7545,-313.2453 958.4332,-310.9451 967.1033,-317.6593 967.1033,-317.6593"/>
</g>
<!-- Entitlement&#45;&gt;User -->
<g id="edge26" class="edge">
<title>Entitlement&#45;&gt;User</title>
<path fill="none" stroke="#f0bf13" d="M1091.9919,-737.7955C1064.2113,-763.1658 1030.3539,-791.1645 996.4497,-812 948.939,-841.1973 892.8932,-866.0026 842.996,-885.1905"/>
<polygon fill="#f0bf13" stroke="#f0bf13" points="1092.3124,-737.4997 1102.7132,-734.0246 1095.9868,-734.1087 1099.6612,-730.7177 1099.6612,-730.7177 1099.6612,-730.7177 1095.9868,-734.1087 1096.6093,-727.4107 1092.3124,-737.4997 1092.3124,-737.4997"/>
<polygon fill="#f0bf13" stroke="#f0bf13" points="842.7755,-885.2743 831.8289,-884.6241 838.1023,-887.0522 833.429,-888.8301 833.429,-888.8301 833.429,-888.8301 838.1023,-887.0522 835.0291,-893.036 842.7755,-885.2743 842.7755,-885.2743"/>
<text text-anchor="middle" x="1065.8223" y="-800.8" font-family="Times,serif" font-size="14.00" fill="#000000">direct_consumers</text>
</g>
<!-- Configuration -->
<g id="node25" class="node">
<title>Configuration</title>
<path fill="none" stroke="#000000" d="M3281.5874,-1121.5C3281.5874,-1121.5 3505.312,-1121.5 3505.312,-1121.5 3511.312,-1121.5 3517.312,-1127.5 3517.312,-1133.5 3517.312,-1133.5 3517.312,-1209.5 3517.312,-1209.5 3517.312,-1215.5 3511.312,-1221.5 3505.312,-1221.5 3505.312,-1221.5 3281.5874,-1221.5 3281.5874,-1221.5 3275.5874,-1221.5 3269.5874,-1215.5 3269.5874,-1209.5 3269.5874,-1209.5 3269.5874,-1133.5 3269.5874,-1133.5 3269.5874,-1127.5 3275.5874,-1121.5 3281.5874,-1121.5"/>
<text text-anchor="middle" x="3393.4497" y="-1206.3" font-family="Times,serif" font-size="14.00" fill="#000000">Configuration</text>
<polyline fill="none" stroke="#000000" points="3269.5874,-1199.5 3517.312,-1199.5 "/>
<text text-anchor="start" x="3277.5874" y="-1184.3" font-family="Times,serif" font-size="14.00" fill="#000000">id :uuid</text>
<text text-anchor="start" x="3277.5874" y="-1170.3" font-family="Times,serif" font-size="14.00" fill="#000000">build_id :uuid</text>
<text text-anchor="start" x="3277.5874" y="-1156.3" font-family="Times,serif" font-size="14.00" fill="#000000">name :character varying</text>
<text text-anchor="start" x="3277.5874" y="-1142.3" font-family="Times,serif" font-size="14.00" fill="#000000">created_at :timestamp without time zone</text>
<text text-anchor="start" x="3277.5874" y="-1128.3" font-family="Times,serif" font-size="14.00" fill="#000000">updated_at :timestamp without time zone</text>
</g>
<!-- Task -->
<g id="node31" class="node">
<title>Task</title>
<path fill="none" stroke="#000000" d="M3281.5874,-858.5C3281.5874,-858.5 3505.312,-858.5 3505.312,-858.5 3511.312,-858.5 3517.312,-864.5 3517.312,-870.5 3517.312,-870.5 3517.312,-988.5 3517.312,-988.5 3517.312,-994.5 3511.312,-1000.5 3505.312,-1000.5 3505.312,-1000.5 3281.5874,-1000.5 3281.5874,-1000.5 3275.5874,-1000.5 3269.5874,-994.5 3269.5874,-988.5 3269.5874,-988.5 3269.5874,-870.5 3269.5874,-870.5 3269.5874,-864.5 3275.5874,-858.5 3281.5874,-858.5"/>
<text text-anchor="middle" x="3393.4497" y="-985.3" font-family="Times,serif" font-size="14.00" fill="#000000">Task</text>
<polyline fill="none" stroke="#000000" points="3269.5874,-978.5 3517.312,-978.5 "/>
<text text-anchor="start" x="3277.5874" y="-963.3" font-family="Times,serif" font-size="14.00" fill="#000000">updated_at :timestamp without time zone</text>
<text text-anchor="start" x="3277.5874" y="-949.3" font-family="Times,serif" font-size="14.00" fill="#000000">configuration_id :uuid</text>
<text text-anchor="start" x="3277.5874" y="-935.3" font-family="Times,serif" font-size="14.00" fill="#000000">name :character varying</text>
<text text-anchor="start" x="3277.5874" y="-921.3" font-family="Times,serif" font-size="14.00" fill="#000000">minimum :integer</text>
<text text-anchor="start" x="3277.5874" y="-907.3" font-family="Times,serif" font-size="14.00" fill="#000000">maximum :integer</text>
<text text-anchor="start" x="3277.5874" y="-893.3" font-family="Times,serif" font-size="14.00" fill="#000000">memory :integer</text>
<text text-anchor="start" x="3277.5874" y="-879.3" font-family="Times,serif" font-size="14.00" fill="#000000">created_at :timestamp without time zone</text>
<text text-anchor="start" x="3277.5874" y="-865.3" font-family="Times,serif" font-size="14.00" fill="#000000">id :uuid</text>
</g>
<!-- Configuration&#45;&gt;Task -->
<g id="edge28" class="edge">
<title>Configuration&#45;&gt;Task</title>
<path fill="none" stroke="#c17843" d="M3393.4497,-1112.9681C3393.4497,-1082.3411 3393.4497,-1044.3567 3393.4497,-1010.9085"/>
<ellipse fill="none" stroke="#c17843" cx="3393.4498" cy="-1117.3574" rx="4" ry="4"/>
<polygon fill="#c17843" stroke="#c17843" points="3393.4498,-1010.6869 3397.9497,-1000.6868 3393.4498,-1005.6869 3393.4497,-1000.6869 3393.4497,-1000.6869 3393.4497,-1000.6869 3393.4498,-1005.6869 3388.9497,-1000.6869 3393.4498,-1010.6869 3393.4498,-1010.6869"/>
</g>
<!-- Build -->
<g id="node27" class="node">
<title>Build</title>
<path fill="none" stroke="#000000" d="M3547.5254,-1079.5C3547.5254,-1079.5 3781.374,-1079.5 3781.374,-1079.5 3787.374,-1079.5 3793.374,-1085.5 3793.374,-1091.5 3793.374,-1091.5 3793.374,-1251.5 3793.374,-1251.5 3793.374,-1257.5 3787.374,-1263.5 3781.374,-1263.5 3781.374,-1263.5 3547.5254,-1263.5 3547.5254,-1263.5 3541.5254,-1263.5 3535.5254,-1257.5 3535.5254,-1251.5 3535.5254,-1251.5 3535.5254,-1091.5 3535.5254,-1091.5 3535.5254,-1085.5 3541.5254,-1079.5 3547.5254,-1079.5"/>
<text text-anchor="middle" x="3664.4497" y="-1248.3" font-family="Times,serif" font-size="14.00" fill="#000000">Build</text>
<polyline fill="none" stroke="#000000" points="3535.5254,-1241.5 3793.374,-1241.5 "/>
<text text-anchor="start" x="3543.5254" y="-1226.3" font-family="Times,serif" font-size="14.00" fill="#000000">updated_at :timestamp without time zone</text>
<text text-anchor="start" x="3543.5254" y="-1212.3" font-family="Times,serif" font-size="14.00" fill="#000000">product_id :uuid</text>
<text text-anchor="start" x="3543.5254" y="-1198.3" font-family="Times,serif" font-size="14.00" fill="#000000">version :character varying</text>
<text text-anchor="start" x="3543.5254" y="-1184.3" font-family="Times,serif" font-size="14.00" fill="#000000">container_repository :character varying</text>
<text text-anchor="start" x="3543.5254" y="-1170.3" font-family="Times,serif" font-size="14.00" fill="#000000">container_tag :character varying</text>
<text text-anchor="start" x="3543.5254" y="-1156.3" font-family="Times,serif" font-size="14.00" fill="#000000">validated_at :timestamp without time zone</text>
<text text-anchor="start" x="3543.5254" y="-1142.3" font-family="Times,serif" font-size="14.00" fill="#000000">published_at :timestamp without time zone</text>
<text text-anchor="start" x="3543.5254" y="-1128.3" font-family="Times,serif" font-size="14.00" fill="#000000">permissions :json</text>
<text text-anchor="start" x="3543.5254" y="-1114.3" font-family="Times,serif" font-size="14.00" fill="#000000">release_notes :text</text>
<text text-anchor="start" x="3543.5254" y="-1100.3" font-family="Times,serif" font-size="14.00" fill="#000000">created_at :timestamp without time zone</text>
<text text-anchor="start" x="3543.5254" y="-1086.3" font-family="Times,serif" font-size="14.00" fill="#000000">id :uuid</text>
</g>
<!-- User&#45;&gt;Identity -->
<g id="edge35" class="edge">
<title>User&#45;&gt;Identity</title>
<path fill="none" stroke="#ee4a7c" d="M841.5504,-899.6663C937.0668,-878.6525 1069.3664,-850.6893 1186.4497,-830 1241.2888,-820.3096 1257.3618,-828.8197 1310.4497,-812 1357.8485,-796.9827 1407.0635,-774.4445 1450.437,-751.888"/>
<ellipse fill="none" stroke="#ee4a7c" cx="837.4895" cy="-900.561" rx="4" ry="4"/>
<polygon fill="#ee4a7c" stroke="#ee4a7c" points="1450.4611,-751.8754 1461.407,-751.2128 1454.8885,-749.5518 1459.3158,-747.2282 1459.3158,-747.2282 1459.3158,-747.2282 1454.8885,-749.5518 1457.2245,-743.2436 1450.4611,-751.8754 1450.4611,-751.8754"/>
</g>
<!-- User&#45;&gt;Appointment -->
<g id="edge34" class="edge">
<title>User&#45;&gt;Appointment</title>
<path fill="none" stroke="#245446" d="M577.5963,-910.3561C499.7117,-891.4351 407.4154,-853.9746 360.4497,-780 256.9643,-617.0024 304.4871,-535.5025 341.4497,-346 344.1583,-332.1131 348.6469,-317.7567 353.7471,-304.2127"/>
<ellipse fill="none" stroke="#245446" cx="581.6746" cy="-911.3203" rx="4" ry="4"/>
<polygon fill="#245446" stroke="#245446" points="353.9004,-303.8218 361.7415,-296.1558 355.7264,-299.1671 357.5523,-294.5124 357.5523,-294.5124 357.5523,-294.5124 355.7264,-299.1671 353.3631,-292.8691 353.9004,-303.8218 353.9004,-303.8218"/>
</g>
<!-- User&#45;&gt;Voucher -->
<g id="edge32" class="edge">
<title>User&#45;&gt;Voucher</title>
<path fill="none" stroke="#75cf03" d="M841.5422,-903.9755C1003.6827,-871.3592 1260.8095,-814.95 1289.4497,-780 1320.0513,-742.6566 1319.9167,-616.7621 1315.4541,-527.0319"/>
<ellipse fill="none" stroke="#75cf03" cx="837.3351" cy="-904.8198" rx="4" ry="4"/>
<polygon fill="#75cf03" stroke="#75cf03" points="1315.4427,-526.8121 1319.4142,-516.5907 1315.1815,-521.8189 1314.9204,-516.8257 1314.9204,-516.8257 1314.9204,-516.8257 1315.1815,-521.8189 1310.4265,-517.0608 1315.4427,-526.8121 1315.4427,-526.8121"/>
</g>
<!-- User&#45;&gt;Product -->
<g id="edge37" class="edge">
<title>User&#45;&gt;Product</title>
<path fill="none" stroke="#609e0e" d="M767.819,-844.5993C780.2976,-826.4485 793.6762,-806.9887 806.776,-787.9345"/>
<ellipse fill="none" stroke="#609e0e" cx="765.478" cy="-848.0044" rx="4" ry="4"/>
<polygon fill="#609e0e" stroke="#609e0e" points="806.9041,-787.7481 816.2777,-782.057 809.7368,-783.6278 812.5695,-779.5076 812.5695,-779.5076 812.5695,-779.5076 809.7368,-783.6278 808.8613,-776.9582 806.9041,-787.7481 806.9041,-787.7481"/>
</g>
<!-- User&#45;&gt;Platform -->
<g id="edge36" class="edge">
<title>User&#45;&gt;Platform</title>
<path fill="none" stroke="#4f942f" d="M652.5919,-844.3796C629.6412,-810.0206 603.5774,-771.0011 582.1557,-738.9312"/>
<ellipse fill="none" stroke="#4f942f" cx="654.9931" cy="-847.9743" rx="4" ry="4"/>
<polygon fill="#4f942f" stroke="#4f942f" points="582.0841,-738.824 580.2716,-728.0089 579.3068,-734.6662 576.5296,-730.5085 576.5296,-730.5085 576.5296,-730.5085 579.3068,-734.6662 572.7876,-733.008 582.0841,-738.824 582.0841,-738.824"/>
</g>
<!-- User&#45;&gt;Claim -->
<g id="edge33" class="edge">
<title>User&#45;&gt;Claim</title>
<path fill="none" stroke="#361b9c" d="M713.5682,-843.2837C719.1229,-742.8697 730.3362,-587.9742 747.4497,-567 794.0135,-509.9316 859.9372,-574.9103 905.4497,-517 948.9352,-461.6689 949.3334,-379.5946 941.4591,-318.6848"/>
<ellipse fill="none" stroke="#361b9c" cx="713.3475" cy="-847.324" rx="4" ry="4"/>
<polygon fill="#361b9c" stroke="#361b9c" points="941.4505,-318.622 944.5303,-308.0975 940.7618,-313.6697 940.0731,-308.7173 940.0731,-308.7173 940.0731,-308.7173 940.7618,-313.6697 935.616,-309.3371 941.4505,-318.622 941.4505,-318.622"/>
</g>
<!-- User&#45;&gt;Member -->
<g id="edge29" class="edge">
<title>User&#45;&gt;Member</title>
<path fill="none" stroke="#b11158" d="M577.4161,-895.7412C515.6415,-873.1341 446.7416,-836.7973 405.4497,-780 336.0017,-684.4739 375.9159,-634.7989 367.4497,-517 362.0016,-441.1955 320.5383,-405.794 367.4497,-346 410.0998,-291.6374 453.9492,-333.779 518.4497,-309 531.0526,-304.1584 543.9674,-298.3711 556.5585,-292.2147"/>
<ellipse fill="none" stroke="#b11158" cx="581.5351" cy="-897.2175" rx="4" ry="4"/>
<polygon fill="#b11158" stroke="#b11158" points="556.7118,-292.1382 567.669,-291.7017 561.1861,-289.9065 565.6604,-287.6748 565.6604,-287.6748 565.6604,-287.6748 561.1861,-289.9065 563.6519,-283.6479 556.7118,-292.1382 556.7118,-292.1382"/>
<text text-anchor="middle" x="406.7773" y="-537.8" font-family="Times,serif" font-size="14.00" fill="#000000">memberships</text>
</g>
<!-- User&#45;&gt;Entitlement -->
<g id="edge30" class="edge">
<title>User&#45;&gt;Entitlement</title>
<path fill="none" stroke="#14bfc2" d="M840.6631,-875.1967C898.3542,-849.2717 965.9226,-816.0488 1023.4497,-780 1043.7375,-767.2868 1064.4913,-751.9669 1083.3885,-736.9594"/>
<ellipse fill="none" stroke="#14bfc2" cx="836.9679" cy="-876.8495" rx="4" ry="4"/>
<polygon fill="#14bfc2" stroke="#14bfc2" points="1083.5684,-736.815 1094.1838,-734.0645 1087.4677,-733.6851 1091.3669,-730.5552 1091.3669,-730.5552 1091.3669,-730.5552 1087.4677,-733.6851 1088.55,-727.0459 1083.5684,-736.815 1083.5684,-736.815"/>
</g>
<!-- User&#45;&gt;Attempt -->
<g id="edge31" class="edge">
<title>User&#45;&gt;Attempt</title>
<path fill="none" stroke="#431f65" d="M577.2838,-898.9738C469.2136,-871.0793 328.8381,-827.1046 294.4497,-780 152.9428,-586.1661 196.7463,-278.6022 227.0302,-138.4528"/>
<ellipse fill="none" stroke="#431f65" cx="581.4596" cy="-900.0442" rx="4" ry="4"/>
<polygon fill="#431f65" stroke="#431f65" points="227.0369,-138.4219 233.5795,-129.6217 228.1107,-133.5386 229.1845,-128.6552 229.1845,-128.6552 229.1845,-128.6552 228.1107,-133.5386 224.7895,-127.6888 227.0369,-138.4219 227.0369,-138.4219"/>
</g>
<!-- IdentityProvider -->
<g id="node30" class="node">
<title>IdentityProvider</title>
<path fill="none" stroke="#000000" d="M1473.5874,-830.5C1473.5874,-830.5 1697.312,-830.5 1697.312,-830.5 1703.312,-830.5 1709.312,-836.5 1709.312,-842.5 1709.312,-842.5 1709.312,-1016.5 1709.312,-1016.5 1709.312,-1022.5 1703.312,-1028.5 1697.312,-1028.5 1697.312,-1028.5 1473.5874,-1028.5 1473.5874,-1028.5 1467.5874,-1028.5 1461.5874,-1022.5 1461.5874,-1016.5 1461.5874,-1016.5 1461.5874,-842.5 1461.5874,-842.5 1461.5874,-836.5 1467.5874,-830.5 1473.5874,-830.5"/>
<text text-anchor="middle" x="1585.4497" y="-1013.3" font-family="Times,serif" font-size="14.00" fill="#000000">IdentityProvider</text>
<polyline fill="none" stroke="#000000" points="1461.5874,-1006.5 1709.312,-1006.5 "/>
<text text-anchor="start" x="1469.5874" y="-991.3" font-family="Times,serif" font-size="14.00" fill="#000000">enabled_at :timestamp without time zone</text>
<text text-anchor="start" x="1469.5874" y="-977.3" font-family="Times,serif" font-size="14.00" fill="#000000">name :character varying</text>
<text text-anchor="start" x="1469.5874" y="-963.3" font-family="Times,serif" font-size="14.00" fill="#000000">issuer :character varying</text>
<text text-anchor="start" x="1469.5874" y="-949.3" font-family="Times,serif" font-size="14.00" fill="#000000">client_id :character varying</text>
<text text-anchor="start" x="1469.5874" y="-935.3" font-family="Times,serif" font-size="14.00" fill="#000000">client_secret :character varying</text>
<text text-anchor="start" x="1469.5874" y="-921.3" font-family="Times,serif" font-size="14.00" fill="#000000">alternate_client_id :character varying</text>
<text text-anchor="start" x="1469.5874" y="-907.3" font-family="Times,serif" font-size="14.00" fill="#000000">configuration :json</text>
<text text-anchor="start" x="1469.5874" y="-893.3" font-family="Times,serif" font-size="14.00" fill="#000000">public_keys :json</text>
<text text-anchor="start" x="1469.5874" y="-879.3" font-family="Times,serif" font-size="14.00" fill="#000000">created_at :timestamp without time zone</text>
<text text-anchor="start" x="1469.5874" y="-865.3" font-family="Times,serif" font-size="14.00" fill="#000000">updated_at :timestamp without time zone</text>
<text text-anchor="start" x="1469.5874" y="-851.3" font-family="Times,serif" font-size="14.00" fill="#000000">scopes :character varying</text>
<text text-anchor="start" x="1469.5874" y="-837.3" font-family="Times,serif" font-size="14.00" fill="#000000">id :uuid</text>
</g>
<!-- IdentityProvider&#45;&gt;Identity -->
<g id="edge38" class="edge">
<title>IdentityProvider&#45;&gt;Identity</title>
<path fill="none" stroke="#e0664e" d="M1584.6094,-821.9453C1584.5264,-811.319 1584.4419,-800.4997 1584.3582,-789.7906"/>
<ellipse fill="none" stroke="#e0664e" cx="1584.6423" cy="-826.1574" rx="4" ry="4"/>
<polygon fill="#e0664e" stroke="#e0664e" points="1584.3566,-789.5666 1588.7782,-779.5317 1584.3175,-784.5667 1584.2784,-779.5669 1584.2784,-779.5669 1584.2784,-779.5669 1584.3175,-784.5667 1579.7785,-779.6021 1584.3566,-789.5666 1584.3566,-789.5666"/>
</g>
</g>
</svg>
