<?xml version="1.0" encoding="UTF-8" standalone="no"?>
<!DOCTYPE svg PUBLIC "-//W3C//DTD SVG 1.1//EN"
 "http://www.w3.org/Graphics/SVG/1.1/DTD/svg11.dtd">
<!-- Generated by graphviz version 2.40.1 (20161225.0304)
 -->
<!-- Title: models_diagram Pages: 1 -->
<svg width="1740pt" height="653pt"
 viewBox="0.00 0.00 1740.01 653.00" xmlns="http://www.w3.org/2000/svg" xmlns:xlink="http://www.w3.org/1999/xlink">
<g id="graph0" class="graph" transform="scale(1 1) rotate(0) translate(4 649)">
<title>models_diagram</title>
<polygon fill="transparent" stroke="transparent" points="-4,4 -4,-649 1736.0112,-649 1736.0112,4 -4,4"/>
<!-- _diagram_info -->
<g id="node1" class="node">
<title>_diagram_info</title>
<text text-anchor="start" x="8" y="-630.6" font-family="Times,serif" font-size="13.00" fill="#000000">Models diagram</text>
<text text-anchor="start" x="8" y="-617.6" font-family="Times,serif" font-size="13.00" fill="#000000">Date: Jul 30 2019 &#45; 00:49</text>
<text text-anchor="start" x="8" y="-604.6" font-family="Times,serif" font-size="13.00" fill="#000000">Migration version: 20190703002925</text>
<text text-anchor="start" x="8" y="-591.6" font-family="Times,serif" font-size="13.00" fill="#000000">Generated by RailRoady 1.5.3</text>
<text text-anchor="start" x="8" y="-578.6" font-family="Times,serif" font-size="13.00" fill="#000000">http://railroady.prestonlee.com</text>
</g>
<!-- Identity -->
<g id="node2" class="node">
<title>Identity</title>
<ellipse fill="none" stroke="#000000" cx="1285.6877" cy="-444" rx="37.7266" ry="18"/>
<text text-anchor="middle" x="1285.6877" y="-439.8" font-family="Times,serif" font-size="14.00" fill="#000000">Identity</text>
</g>
<!-- JsonWebToken -->
<g id="node16" class="node">
<title>JsonWebToken</title>
<ellipse fill="none" stroke="#000000" cx="1285.6877" cy="-336" rx="63.5968" ry="18"/>
<text text-anchor="middle" x="1285.6877" y="-331.8" font-family="Times,serif" font-size="14.00" fill="#000000">JsonWebToken</text>
</g>
<!-- Identity&#45;&gt;JsonWebToken -->
<g id="edge1" class="edge">
<title>Identity&#45;&gt;JsonWebToken</title>
<path fill="none" stroke="#aeb3b6" d="M1285.6877,-417.4153C1285.6877,-401.2464 1285.6877,-380.6143 1285.6877,-364.166"/>
<ellipse fill="none" stroke="#aeb3b6" cx="1285.6878" cy="-421.6793" rx="4" ry="4"/>
<polygon fill="#aeb3b6" stroke="#aeb3b6" points="1285.6878,-364.0502 1290.1877,-354.0501 1285.6878,-359.0502 1285.6877,-354.0502 1285.6877,-354.0502 1285.6877,-354.0502 1285.6878,-359.0502 1281.1877,-354.0502 1285.6878,-364.0502 1285.6878,-364.0502"/>
</g>
<!-- Screenshot -->
<g id="node3" class="node">
<title>Screenshot</title>
<ellipse fill="none" stroke="#000000" cx="928.6877" cy="-336" rx="48.8187" ry="18"/>
<text text-anchor="middle" x="928.6877" y="-331.8" font-family="Times,serif" font-size="14.00" fill="#000000">Screenshot</text>
</g>
<!-- Appointment -->
<g id="node4" class="node">
<title>Appointment</title>
<ellipse fill="none" stroke="#000000" cx="297.6877" cy="-91" rx="56.5545" ry="18"/>
<text text-anchor="middle" x="297.6877" y="-86.8" font-family="Times,serif" font-size="14.00" fill="#000000">Appointment</text>
</g>
<!-- Parameter -->
<g id="node5" class="node">
<title>Parameter</title>
<ellipse fill="none" stroke="#000000" cx="1402.6877" cy="-164" rx="45.9028" ry="18"/>
<text text-anchor="middle" x="1402.6877" y="-159.8" font-family="Times,serif" font-size="14.00" fill="#000000">Parameter</text>
</g>
<!-- Voucher -->
<g id="node6" class="node">
<title>Voucher</title>
<ellipse fill="none" stroke="#000000" cx="845.6877" cy="-164" rx="39.3277" ry="18"/>
<text text-anchor="middle" x="845.6877" y="-159.8" font-family="Times,serif" font-size="14.00" fill="#000000">Voucher</text>
</g>
<!-- Dependency -->
<g id="node7" class="node">
<title>Dependency</title>
<ellipse fill="none" stroke="#000000" cx="1253.6877" cy="-250" rx="54.1058" ry="18"/>
<text text-anchor="middle" x="1253.6877" y="-245.8" font-family="Times,serif" font-size="14.00" fill="#000000">Dependency</text>
</g>
<!-- Surrogate -->
<g id="node8" class="node">
<title>Surrogate</title>
<ellipse fill="none" stroke="#000000" cx="1508.6877" cy="-250" rx="44.475" ry="18"/>
<text text-anchor="middle" x="1508.6877" y="-245.8" font-family="Times,serif" font-size="14.00" fill="#000000">Surrogate</text>
</g>
<!-- License -->
<g id="node9" class="node">
<title>License</title>
<ellipse fill="none" stroke="#000000" cx="1150.6877" cy="-517" rx="37.7092" ry="18"/>
<text text-anchor="middle" x="1150.6877" y="-512.8" font-family="Times,serif" font-size="14.00" fill="#000000">License</text>
</g>
<!-- Product -->
<g id="node10" class="node">
<title>Product</title>
<ellipse fill="none" stroke="#000000" cx="963.6877" cy="-444" rx="37.7352" ry="18"/>
<text text-anchor="middle" x="963.6877" y="-439.8" font-family="Times,serif" font-size="14.00" fill="#000000">Product</text>
</g>
<!-- License&#45;&gt;Product -->
<g id="edge4" class="edge">
<title>License&#45;&gt;Product</title>
<path fill="none" stroke="#a40d7e" d="M1111.951,-501.8782C1079.8983,-489.3656 1034.5858,-471.6768 1002.5097,-459.1551"/>
<polygon fill="#a40d7e" stroke="#a40d7e" points="1112.1536,-501.9572 1119.8326,-509.7857 1116.8113,-503.7755 1121.469,-505.5938 1121.469,-505.5938 1121.469,-505.5938 1116.8113,-503.7755 1123.1054,-501.4018 1112.1536,-501.9572 1112.1536,-501.9572"/>
<polygon fill="#a40d7e" stroke="#a40d7e" points="1002.3247,-459.0829 994.6457,-451.2545 997.667,-457.2646 993.0093,-455.4464 993.0093,-455.4464 993.0093,-455.4464 997.667,-457.2646 991.3728,-459.6383 1002.3247,-459.0829 1002.3247,-459.0829"/>
</g>
<!-- ProductLicense -->
<g id="node15" class="node">
<title>ProductLicense</title>
<ellipse fill="none" stroke="#000000" cx="1138.6877" cy="-336" rx="65.2304" ry="18"/>
<text text-anchor="middle" x="1138.6877" y="-331.8" font-family="Times,serif" font-size="14.00" fill="#000000">ProductLicense</text>
</g>
<!-- License&#45;&gt;ProductLicense -->
<g id="edge3" class="edge">
<title>License&#45;&gt;ProductLicense</title>
<path fill="none" stroke="#a1f637" d="M1148.9399,-490.6374C1146.7128,-457.0447 1142.8775,-399.1961 1140.5823,-364.5763"/>
<ellipse fill="none" stroke="#a1f637" cx="1149.2286" cy="-494.9921" rx="4" ry="4"/>
<polygon fill="#a1f637" stroke="#a1f637" points="1140.5568,-364.1906 1144.3853,-353.9147 1140.226,-359.2015 1139.8952,-354.2125 1139.8952,-354.2125 1139.8952,-354.2125 1140.226,-359.2015 1135.4051,-354.5102 1140.5568,-364.1906 1140.5568,-364.1906"/>
</g>
<!-- Entitlement -->
<g id="node23" class="node">
<title>Entitlement</title>
<ellipse fill="none" stroke="#000000" cx="887.6877" cy="-250" rx="51.2329" ry="18"/>
<text text-anchor="middle" x="887.6877" y="-245.8" font-family="Times,serif" font-size="14.00" fill="#000000">Entitlement</text>
</g>
<!-- License&#45;&gt;Entitlement -->
<g id="edge2" class="edge">
<title>License&#45;&gt;Entitlement</title>
<path fill="none" stroke="#cc1ad9" d="M1194.2499,-509.0006C1241.8041,-499.4051 1313.7277,-482.0774 1332.6877,-462 1377.3398,-414.7166 1401.2622,-367.1625 1358.6877,-318 1332.1481,-287.3535 1069.4262,-263.7273 948.2929,-254.3719"/>
<ellipse fill="none" stroke="#cc1ad9" cx="1190.1797" cy="-509.8085" rx="4" ry="4"/>
<polygon fill="#cc1ad9" stroke="#cc1ad9" points="948.0425,-254.3528 938.4146,-249.1035 943.057,-253.9716 938.0716,-253.5904 938.0716,-253.5904 938.0716,-253.5904 943.057,-253.9716 937.7285,-258.0773 948.0425,-254.3528 948.0425,-254.3528"/>
</g>
<!-- Product&#45;&gt;Screenshot -->
<g id="edge6" class="edge">
<title>Product&#45;&gt;Screenshot</title>
<path fill="none" stroke="#6c5401" d="M981.5947,-419.972C983.6865,-416.1332 985.4963,-412.0779 986.6877,-408 991.1749,-392.6421 994.4658,-385.9822 986.6877,-372 982.8394,-365.082 977.0505,-359.3232 970.5959,-354.5896"/>
<ellipse fill="none" stroke="#6c5401" cx="979.3865" cy="-423.6154" rx="4" ry="4"/>
<polygon fill="#6c5401" stroke="#6c5401" points="970.556,-354.5639 964.6041,-345.3538 966.3579,-351.848 962.1598,-349.1321 962.1598,-349.1321 962.1598,-349.1321 966.3579,-351.848 959.7155,-352.9104 970.556,-354.5639 970.556,-354.5639"/>
</g>
<!-- Product&#45;&gt;Product -->
<g id="edge10" class="edge">
<title>Product&#45;&gt;Product</title>
<path fill="none" stroke="#66e793" d="M1010.9097,-446.823C1016.0171,-446.2811 1019.3052,-445.3401 1019.3052,-444 1019.3052,-442.6599 1016.0171,-441.7189 1010.9097,-441.177"/>
<polygon fill="#66e793" stroke="#66e793" points="1010.8418,-446.8265 1000.6167,-442.8647 1005.8489,-447.0924 1000.856,-447.3583 1000.856,-447.3583 1000.856,-447.3583 1005.8489,-447.0924 1001.0953,-451.8519 1010.8418,-446.8265 1010.8418,-446.8265"/>
<polygon fill="#66e793" stroke="#66e793" points="1010.8418,-441.1735 1001.0953,-436.1481 1005.8489,-440.9076 1000.856,-440.6417 1000.856,-440.6417 1000.856,-440.6417 1005.8489,-440.9076 1000.6167,-445.1353 1010.8418,-441.1735 1010.8418,-441.1735"/>
<text text-anchor="middle" x="1042.2397" y="-439.8" font-family="Times,serif" font-size="14.00" fill="#000000">children</text>
</g>
<!-- Product&#45;&gt;Product -->
<g id="edge11" class="edge">
<title>Product&#45;&gt;Product</title>
<path fill="none" stroke="#412327" d="M1009.5167,-450.4602C1037.1392,-451.5859 1065.1743,-449.4325 1065.1743,-444 1065.1743,-438.5675 1037.1392,-436.4141 1009.5167,-437.5398"/>
<polygon fill="#412327" stroke="#412327" points="1009.3958,-450.4535 999.6617,-445.4041 1004.4036,-450.1753 999.4113,-449.8971 999.4113,-449.8971 999.4113,-449.8971 1004.4036,-450.1753 999.1609,-454.3901 1009.3958,-450.4535 1009.3958,-450.4535"/>
<polygon fill="#412327" stroke="#412327" points="1009.3958,-437.5465 999.1609,-433.6099 1004.4036,-437.8247 999.4113,-438.1029 999.4113,-438.1029 999.4113,-438.1029 1004.4036,-437.8247 999.6617,-442.5959 1009.3958,-437.5465 1009.3958,-437.5465"/>
<text text-anchor="middle" x="1085.3882" y="-439.8" font-family="Times,serif" font-size="14.00" fill="#000000">parents</text>
</g>
<!-- Product&#45;&gt;ProductLicense -->
<g id="edge7" class="edge">
<title>Product&#45;&gt;ProductLicense</title>
<path fill="none" stroke="#13d8b0" d="M994.9498,-426.1833C1004.8326,-420.4614 1015.7627,-414.0399 1025.6877,-408 1052.5284,-391.6661 1082.5028,-372.5249 1104.8323,-358.0858"/>
<ellipse fill="none" stroke="#13d8b0" cx="991.433" cy="-428.2119" rx="4" ry="4"/>
<polygon fill="#13d8b0" stroke="#13d8b0" points="1104.9031,-358.0399 1115.7424,-356.3783 1109.0992,-355.3209 1113.2952,-352.6018 1113.2952,-352.6018 1113.2952,-352.6018 1109.0992,-355.3209 1110.8481,-348.8254 1104.9031,-358.0399 1104.9031,-358.0399"/>
</g>
<!-- SubProduct -->
<g id="node21" class="node">
<title>SubProduct</title>
<ellipse fill="none" stroke="#000000" cx="810.6877" cy="-336" rx="51.2587" ry="18"/>
<text text-anchor="middle" x="810.6877" y="-331.8" font-family="Times,serif" font-size="14.00" fill="#000000">SubProduct</text>
</g>
<!-- Product&#45;&gt;SubProduct -->
<g id="edge8" class="edge">
<title>Product&#45;&gt;SubProduct</title>
<path fill="none" stroke="#e6d141" d="M922.9633,-432.3523C908.6399,-426.7466 893.2339,-418.8292 881.6116,-408 868.3867,-395.6776 874.6692,-385.5345 862.6877,-372 857.9934,-366.6972 852.3635,-361.7811 846.5676,-357.3937"/>
<ellipse fill="none" stroke="#e6d141" cx="927.0252" cy="-433.8493" rx="4" ry="4"/>
<polygon fill="#e6d141" stroke="#e6d141" points="846.208,-357.1391 840.6472,-347.6877 842.1274,-354.2496 838.0468,-351.3602 838.0468,-351.3602 838.0468,-351.3602 842.1274,-354.2496 835.4463,-355.0328 846.208,-357.1391 846.208,-357.1391"/>
<text text-anchor="middle" x="932.2258" y="-385.8" font-family="Times,serif" font-size="14.00" fill="#000000">children_relations</text>
</g>
<!-- Product&#45;&gt;SubProduct -->
<g id="edge9" class="edge">
<title>Product&#45;&gt;SubProduct</title>
<path fill="none" stroke="#2923f4" d="M917.7999,-442.1041C866.1896,-438.8954 787.1253,-430.3732 768.5012,-408 758.2648,-395.703 761.7996,-386.5289 768.5012,-372 770.713,-367.205 773.9133,-362.8122 777.577,-358.8694"/>
<ellipse fill="none" stroke="#2923f4" cx="921.8407" cy="-442.3408" rx="4" ry="4"/>
<polygon fill="#2923f4" stroke="#2923f4" points="777.7621,-358.6958 788.1343,-355.1365 781.4089,-355.2751 785.0557,-351.8544 785.0557,-351.8544 785.0557,-351.8544 781.4089,-355.2751 781.9771,-348.5723 777.7621,-358.6958 777.7621,-358.6958"/>
<text text-anchor="middle" x="813.781" y="-385.8" font-family="Times,serif" font-size="14.00" fill="#000000">parent_relations</text>
</g>
<!-- Build -->
<g id="node26" class="node">
<title>Build</title>
<ellipse fill="none" stroke="#000000" cx="1025.6877" cy="-336" rx="29.5275" ry="18"/>
<text text-anchor="middle" x="1025.6877" y="-331.8" font-family="Times,serif" font-size="14.00" fill="#000000">Build</text>
</g>
<!-- Product&#45;&gt;Build -->
<g id="edge5" class="edge">
<title>Product&#45;&gt;Build</title>
<path fill="none" stroke="#15a1f1" d="M990.7216,-423.3999C995.5497,-418.7529 1000.158,-413.5403 1003.6877,-408 1012.1385,-394.7358 1017.5055,-378.0339 1020.8206,-364.0563"/>
<ellipse fill="none" stroke="#15a1f1" cx="987.5229" cy="-426.2861" rx="4" ry="4"/>
<polygon fill="#15a1f1" stroke="#15a1f1" points="1020.8798,-363.7793 1027.3732,-354.9426 1021.9263,-358.89 1022.9728,-354.0007 1022.9728,-354.0007 1022.9728,-354.0007 1021.9263,-358.89 1018.5725,-353.0589 1020.8798,-363.7793 1020.8798,-363.7793"/>
</g>
<!-- Group -->
<g id="node11" class="node">
<title>Group</title>
<ellipse fill="none" stroke="#000000" cx="351.6877" cy="-164" rx="32.9081" ry="18"/>
<text text-anchor="middle" x="351.6877" y="-159.8" font-family="Times,serif" font-size="14.00" fill="#000000">Group</text>
</g>
<!-- Group&#45;&gt;Appointment -->
<g id="edge14" class="edge">
<title>Group&#45;&gt;Appointment</title>
<path fill="none" stroke="#ba1954" d="M334.3271,-140.531C328.6955,-132.9179 322.4199,-124.4342 316.6762,-116.6695"/>
<ellipse fill="none" stroke="#ba1954" cx="336.7845" cy="-143.853" rx="4" ry="4"/>
<polygon fill="#ba1954" stroke="#ba1954" points="316.6551,-116.641 314.3258,-105.9253 313.6815,-112.6212 310.708,-108.6015 310.708,-108.6015 310.708,-108.6015 313.6815,-112.6212 307.0902,-111.2776 316.6551,-116.641 316.6551,-116.641"/>
</g>
<!-- Claim -->
<g id="node13" class="node">
<title>Claim</title>
<ellipse fill="none" stroke="#000000" cx="502.6877" cy="-91" rx="31.948" ry="18"/>
<text text-anchor="middle" x="502.6877" y="-86.8" font-family="Times,serif" font-size="14.00" fill="#000000">Claim</text>
</g>
<!-- Group&#45;&gt;Claim -->
<g id="edge15" class="edge">
<title>Group&#45;&gt;Claim</title>
<path fill="none" stroke="#a815e5" d="M383.5303,-148.6059C408.5418,-136.5143 443.2917,-119.7146 468.812,-107.377"/>
<ellipse fill="none" stroke="#a815e5" cx="379.8858" cy="-150.3678" rx="4" ry="4"/>
<polygon fill="#a815e5" stroke="#a815e5" points="469.0983,-107.2386 480.0601,-106.9375 473.5999,-105.0624 478.1014,-102.8861 478.1014,-102.8861 478.1014,-102.8861 473.5999,-105.0624 476.1428,-98.8347 469.0983,-107.2386 469.0983,-107.2386"/>
</g>
<!-- Member -->
<g id="node14" class="node">
<title>Member</title>
<ellipse fill="none" stroke="#000000" cx="412.6877" cy="-91" rx="40.1317" ry="18"/>
<text text-anchor="middle" x="412.6877" y="-86.8" font-family="Times,serif" font-size="14.00" fill="#000000">Member</text>
</g>
<!-- Group&#45;&gt;Member -->
<g id="edge12" class="edge">
<title>Group&#45;&gt;Member</title>
<path fill="none" stroke="#43f4e8" d="M361.3881,-138.774C363.4949,-134.6505 365.9322,-130.566 368.6877,-127 372.6481,-121.8747 377.4695,-117.0114 382.4501,-112.6126"/>
<ellipse fill="none" stroke="#43f4e8" cx="359.6461" cy="-142.5098" rx="4" ry="4"/>
<polygon fill="#43f4e8" stroke="#43f4e8" points="382.6024,-112.4866 393.1758,-109.5787 386.4548,-109.2991 390.3071,-106.1116 390.3071,-106.1116 390.3071,-106.1116 386.4548,-109.2991 387.4383,-102.6446 382.6024,-112.4866 382.6024,-112.4866"/>
</g>
<!-- User -->
<g id="node28" class="node">
<title>User</title>
<ellipse fill="none" stroke="#000000" cx="498.6877" cy="-517" rx="27" ry="18"/>
<text text-anchor="middle" x="498.6877" y="-512.8" font-family="Times,serif" font-size="14.00" fill="#000000">User</text>
</g>
<!-- Group&#45;&gt;User -->
<g id="edge13" class="edge">
<title>Group&#45;&gt;User</title>
<path fill="none" stroke="#4ffdc3" d="M351.6877,-192.358C351.6877,-209.1237 351.6877,-230.7711 351.6877,-250 351.6877,-444 351.6877,-444 351.6877,-444 351.6877,-493.0661 418.1967,-509.153 461.7417,-514.4273"/>
<polygon fill="#4ffdc3" stroke="#4ffdc3" points="351.6878,-192.1199 356.1877,-182.1198 351.6878,-187.1199 351.6877,-182.1199 351.6877,-182.1199 351.6877,-182.1199 351.6878,-187.1199 347.1877,-182.1199 351.6878,-192.1199 351.6878,-192.1199"/>
<polygon fill="#4ffdc3" stroke="#4ffdc3" points="461.7828,-514.4316 471.2455,-519.973 466.7542,-514.9652 471.7257,-515.4987 471.7257,-515.4987 471.7257,-515.4987 466.7542,-514.9652 472.2059,-511.0244 461.7828,-514.4316 461.7828,-514.4316"/>
</g>
<!-- Platform -->
<g id="node12" class="node">
<title>Platform</title>
<ellipse fill="none" stroke="#000000" cx="535.6877" cy="-390" rx="41.1093" ry="18"/>
<text text-anchor="middle" x="535.6877" y="-385.8" font-family="Times,serif" font-size="14.00" fill="#000000">Platform</text>
</g>
<!-- Instance -->
<g id="node25" class="node">
<title>Instance</title>
<ellipse fill="none" stroke="#000000" cx="535.6877" cy="-250" rx="39.6385" ry="18"/>
<text text-anchor="middle" x="535.6877" y="-245.8" font-family="Times,serif" font-size="14.00" fill="#000000">Instance</text>
</g>
<!-- Platform&#45;&gt;Instance -->
<g id="edge16" class="edge">
<title>Platform&#45;&gt;Instance</title>
<path fill="none" stroke="#601bf8" d="M535.6877,-363.892C535.6877,-339.6771 535.6877,-303.7148 535.6877,-278.7025"/>
<ellipse fill="none" stroke="#601bf8" cx="535.6878" cy="-367.9841" rx="4" ry="4"/>
<polygon fill="#601bf8" stroke="#601bf8" points="535.6878,-278.3914 540.1877,-268.3913 535.6878,-273.3914 535.6877,-268.3914 535.6877,-268.3914 535.6877,-268.3914 535.6878,-273.3914 531.1877,-268.3914 535.6878,-278.3914 535.6878,-278.3914"/>
</g>
<!-- Attempt -->
<g id="node27" class="node">
<title>Attempt</title>
<ellipse fill="none" stroke="#000000" cx="224.6877" cy="-18" rx="39.18" ry="18"/>
<text text-anchor="middle" x="224.6877" y="-13.8" font-family="Times,serif" font-size="14.00" fill="#000000">Attempt</text>
</g>
<!-- Claim&#45;&gt;Attempt -->
<g id="edge17" class="edge">
<title>Claim&#45;&gt;Attempt</title>
<path fill="none" stroke="#cd3428" d="M470.786,-76.3171C467.7393,-75.1205 464.6732,-73.9922 461.6877,-73 396.9481,-51.4841 319.5618,-35.2249 271.2556,-26.1537"/>
<ellipse fill="none" stroke="#cd3428" cx="474.5632" cy="-77.8714" rx="4" ry="4"/>
<polygon fill="#cd3428" stroke="#cd3428" points="271.2365,-26.1502 262.2241,-19.9031 266.3203,-25.239 261.404,-24.3278 261.404,-24.3278 261.404,-24.3278 266.3203,-25.239 260.5839,-28.7524 271.2365,-26.1502 271.2365,-26.1502"/>
</g>
<!-- ProductLicense&#45;&gt;Voucher -->
<g id="edge19" class="edge">
<title>ProductLicense&#45;&gt;Voucher</title>
<path fill="none" stroke="#c67c30" d="M1103.8396,-315.543C1046.8735,-282.1022 934.5777,-216.1811 878.7754,-183.4235"/>
<ellipse fill="none" stroke="#c67c30" cx="1107.4093" cy="-317.6386" rx="4" ry="4"/>
<polygon fill="#c67c30" stroke="#c67c30" points="878.6243,-183.3348 872.2785,-174.3915 874.3123,-180.8035 870.0004,-178.2723 870.0004,-178.2723 870.0004,-178.2723 874.3123,-180.8035 867.7222,-182.153 878.6243,-183.3348 878.6243,-183.3348"/>
</g>
<!-- ProductLicense&#45;&gt;Entitlement -->
<g id="edge18" class="edge">
<title>ProductLicense&#45;&gt;Entitlement</title>
<path fill="none" stroke="#1935e6" d="M1089.6842,-319.21C1044.7396,-303.8106 978.6327,-281.1604 934.4195,-266.0117"/>
<ellipse fill="none" stroke="#1935e6" cx="1093.7372" cy="-320.5986" rx="4" ry="4"/>
<polygon fill="#1935e6" stroke="#1935e6" points="934.2423,-265.951 926.2408,-258.4526 929.5123,-264.3303 924.7822,-262.7097 924.7822,-262.7097 924.7822,-262.7097 929.5123,-264.3303 923.3236,-266.9667 934.2423,-265.951 934.2423,-265.951"/>
</g>
<!-- Role -->
<g id="node17" class="node">
<title>Role</title>
<ellipse fill="none" stroke="#000000" cx="252.6877" cy="-608.5" rx="27" ry="18"/>
<text text-anchor="middle" x="252.6877" y="-604.3" font-family="Times,serif" font-size="14.00" fill="#000000">Role</text>
</g>
<!-- Role&#45;&gt;Appointment -->
<g id="edge20" class="edge">
<title>Role&#45;&gt;Appointment</title>
<path fill="none" stroke="#f209b1" d="M232.0411,-587.303C208.9325,-563.145 174.6877,-525.8519 174.6877,-517 174.6877,-517 174.6877,-517 174.6877,-164 174.6877,-131.3694 207.0961,-113.0035 238.6421,-102.8556"/>
<ellipse fill="none" stroke="#f209b1" cx="234.8765" cy="-590.2527" rx="4" ry="4"/>
<polygon fill="#f209b1" stroke="#f209b1" points="238.7825,-102.8139 249.6504,-104.2767 243.5751,-101.3887 248.3677,-99.9634 248.3677,-99.9634 248.3677,-99.9634 243.5751,-101.3887 247.0849,-95.6501 238.7825,-102.8139 238.7825,-102.8139"/>
</g>
<!-- Role&#45;&gt;Group -->
<g id="edge22" class="edge">
<title>Role&#45;&gt;Group</title>
<path fill="none" stroke="#dbcb66" d="M252.6877,-580.1121C252.6877,-562.0442 252.6877,-538.1475 252.6877,-517 252.6877,-517 252.6877,-517 252.6877,-250 252.6877,-215.7385 286.8983,-192.0396 315.0985,-178.3244"/>
<polygon fill="#dbcb66" stroke="#dbcb66" points="252.6878,-580.2715 248.1877,-590.2714 252.6878,-585.2715 252.6877,-590.2715 252.6877,-590.2715 252.6877,-590.2715 252.6878,-585.2715 257.1877,-590.2715 252.6878,-580.2715 252.6878,-580.2715"/>
<polygon fill="#dbcb66" stroke="#dbcb66" points="315.2896,-178.2365 326.2551,-178.1428 319.8316,-176.1458 324.3735,-174.0551 324.3735,-174.0551 324.3735,-174.0551 319.8316,-176.1458 322.4919,-169.9673 315.2896,-178.2365 315.2896,-178.2365"/>
</g>
<!-- Role&#45;&gt;User -->
<g id="edge21" class="edge">
<title>Role&#45;&gt;User</title>
<path fill="none" stroke="#080c6a" d="M272.3435,-584.786C277.2617,-579.9933 282.8221,-575.3914 288.6877,-572 343.8471,-540.1078 417.7377,-526.3518 461.5636,-520.6868"/>
<polygon fill="#080c6a" stroke="#080c6a" points="272.073,-585.0713 261.9268,-589.2314 268.6326,-588.6996 265.1922,-592.3278 265.1922,-592.3278 265.1922,-592.3278 268.6326,-588.6996 268.4576,-595.4241 272.073,-585.0713 272.073,-585.0713"/>
<polygon fill="#080c6a" stroke="#080c6a" points="461.837,-520.6536 472.3076,-523.9119 466.8003,-520.0493 471.7637,-519.4449 471.7637,-519.4449 471.7637,-519.4449 466.8003,-520.0493 471.2198,-514.9779 461.837,-520.6536 461.837,-520.6536"/>
</g>
<!-- Interface -->
<g id="node18" class="node">
<title>Interface</title>
<ellipse fill="none" stroke="#000000" cx="1485.6877" cy="-336" rx="41.542" ry="18"/>
<text text-anchor="middle" x="1485.6877" y="-331.8" font-family="Times,serif" font-size="14.00" fill="#000000">Interface</text>
</g>
<!-- Interface&#45;&gt;Dependency -->
<g id="edge28" class="edge">
<title>Interface&#45;&gt;Dependency</title>
<path fill="none" stroke="#e69969" d="M1454.3717,-316.9636C1436.4954,-306.7107 1413.385,-294.466 1391.6877,-286 1365.5208,-275.79 1335.4463,-267.5597 1310.0656,-261.5593"/>
<ellipse fill="none" stroke="#e69969" cx="1458.2349" cy="-319.2089" rx="4" ry="4"/>
<polygon fill="#e69969" stroke="#e69969" points="1309.9703,-261.5374 1301.2386,-254.9035 1305.0984,-260.4128 1300.2265,-259.2882 1300.2265,-259.2882 1300.2265,-259.2882 1305.0984,-260.4128 1299.2144,-263.6729 1309.9703,-261.5374 1309.9703,-261.5374"/>
</g>
<!-- Interface&#45;&gt;Surrogate -->
<g id="edge23" class="edge">
<title>Interface&#45;&gt;Surrogate</title>
<path fill="none" stroke="#84f68b" d="M1483.5564,-309.55C1483.6262,-301.8306 1484.3889,-293.4662 1486.5706,-286 1487.5169,-282.7612 1488.8373,-279.524 1490.3667,-276.3924"/>
<ellipse fill="none" stroke="#84f68b" cx="1483.6379" cy="-313.601" rx="4" ry="4"/>
<polygon fill="#84f68b" stroke="#84f68b" points="1490.5127,-276.133 1499.3388,-269.6253 1492.9649,-271.7757 1495.4172,-267.4183 1495.4172,-267.4183 1495.4172,-267.4183 1492.9649,-271.7757 1491.4956,-265.2113 1490.5127,-276.133 1490.5127,-276.133"/>
<text text-anchor="middle" x="1516.2463" y="-288.8" font-family="Times,serif" font-size="14.00" fill="#000000">substitutes</text>
</g>
<!-- Interface&#45;&gt;Surrogate -->
<g id="edge24" class="edge">
<title>Interface&#45;&gt;Surrogate</title>
<path fill="none" stroke="#41d4a2" d="M1524.837,-320.4323C1533.1548,-315.2221 1540.8715,-308.5064 1545.6877,-300 1550.9834,-290.6469 1546.5682,-281.0086 1539.1928,-272.7207"/>
<ellipse fill="none" stroke="#41d4a2" cx="1521.2353" cy="-322.4824" rx="4" ry="4"/>
<polygon fill="#41d4a2" stroke="#41d4a2" points="1538.9612,-272.4962 1534.913,-262.3049 1535.371,-269.0161 1531.7809,-265.536 1531.7809,-265.536 1531.7809,-265.536 1535.371,-269.0161 1528.6488,-268.7671 1538.9612,-272.4962 1538.9612,-272.4962"/>
</g>
<!-- Interface&#45;&gt;Interface -->
<g id="edge26" class="edge">
<title>Interface&#45;&gt;Interface</title>
<path fill="none" stroke="#7a4e9a" d="M1531.2966,-343.4201C1539.4842,-342.4615 1545.2087,-339.9881 1545.2087,-336 1545.2087,-332.3374 1540.3807,-329.9524 1533.2507,-328.845"/>
<ellipse fill="none" stroke="#7a4e9a" cx="1527.1723" cy="-343.6509" rx="4" ry="4"/>
<polygon fill="#7a4e9a" stroke="#7a4e9a" points="1533.1531,-328.8381 1523.4992,-323.6369 1528.1658,-328.4818 1523.1785,-328.1255 1523.1785,-328.1255 1523.1785,-328.1255 1528.1658,-328.4818 1522.8579,-332.614 1533.1531,-328.8381 1533.1531,-328.8381"/>
<text text-anchor="middle" x="1606.2468" y="-331.8" font-family="Times,serif" font-size="14.00" fill="#000000">substituted_interfaces</text>
</g>
<!-- Exposure -->
<g id="node19" class="node">
<title>Exposure</title>
<ellipse fill="none" stroke="#000000" cx="1402.6877" cy="-250" rx="43.5146" ry="18"/>
<text text-anchor="middle" x="1402.6877" y="-245.8" font-family="Times,serif" font-size="14.00" fill="#000000">Exposure</text>
</g>
<!-- Interface&#45;&gt;Exposure -->
<g id="edge27" class="edge">
<title>Interface&#45;&gt;Exposure</title>
<path fill="none" stroke="#68d75b" d="M1464.5437,-313.2095C1456.5062,-304.6247 1447.2295,-294.81 1438.6877,-286 1434.9385,-282.133 1430.9343,-278.0671 1427.0091,-274.1162"/>
<ellipse fill="none" stroke="#68d75b" cx="1467.4187" cy="-316.2879" rx="4" ry="4"/>
<polygon fill="#68d75b" stroke="#68d75b" points="1426.7119,-273.8186 1422.8299,-263.5629 1423.1788,-270.2806 1419.6457,-266.7427 1419.6457,-266.7427 1419.6457,-266.7427 1423.1788,-270.2806 1416.4615,-269.9225 1426.7119,-273.8186 1426.7119,-273.8186"/>
</g>
<!-- SurrogatedInterface -->
<g id="node31" class="node">
<title>SurrogatedInterface</title>
<ellipse fill="none" stroke="#000000" cx="1651.6877" cy="-250" rx="80.1472" ry="18"/>
<text text-anchor="middle" x="1651.6877" y="-245.8" font-family="Times,serif" font-size="14.00" fill="#000000">SurrogatedInterface</text>
</g>
<!-- Interface&#45;&gt;SurrogatedInterface -->
<g id="edge25" class="edge">
<title>Interface&#45;&gt;SurrogatedInterface</title>
<path fill="none" stroke="#06e801" d="M1523.615,-318.2922C1535.5472,-312.5885 1548.7284,-306.1499 1560.6877,-300 1577.9748,-291.1104 1596.845,-280.8381 1612.8971,-271.9253"/>
<polygon fill="#06e801" stroke="#06e801" points="1523.3928,-318.3977 1512.4293,-318.6249 1518.8767,-320.5436 1514.3605,-322.6894 1514.3605,-322.6894 1514.3605,-322.6894 1518.8767,-320.5436 1516.2918,-326.7539 1523.3928,-318.3977 1523.3928,-318.3977"/>
<polygon fill="#06e801" stroke="#06e801" points="1613.2554,-271.7255 1624.181,-270.7857 1617.6225,-269.2905 1621.9895,-266.8554 1621.9895,-266.8554 1621.9895,-266.8554 1617.6225,-269.2905 1619.7979,-262.9251 1613.2554,-271.7255 1613.2554,-271.7255"/>
</g>
<!-- Exposure&#45;&gt;Parameter -->
<g id="edge29" class="edge">
<title>Exposure&#45;&gt;Parameter</title>
<path fill="none" stroke="#cc1f6e" d="M1402.6877,-223.4021C1402.6877,-213.585 1402.6877,-202.4263 1402.6877,-192.4515"/>
<ellipse fill="none" stroke="#cc1f6e" cx="1402.6878" cy="-227.7616" rx="4" ry="4"/>
<polygon fill="#cc1f6e" stroke="#cc1f6e" points="1402.6878,-192.2121 1407.1877,-182.2121 1402.6878,-187.2121 1402.6877,-182.2121 1402.6877,-182.2121 1402.6877,-182.2121 1402.6878,-187.2121 1398.1877,-182.2121 1402.6878,-192.2121 1402.6878,-192.2121"/>
</g>
<!-- Ability -->
<g id="node20" class="node">
<title>Ability</title>
<polygon fill="none" stroke="#000000" points="353.3577,-626.5 298.0178,-626.5 298.0178,-590.5 353.3577,-590.5 353.3577,-626.5"/>
<text text-anchor="middle" x="325.6877" y="-604.3" font-family="Times,serif" font-size="14.00" fill="#000000">Ability</text>
</g>
<!-- ApplicationRecord -->
<g id="node22" class="node">
<title>ApplicationRecord</title>
<ellipse fill="none" stroke="#000000" cx="448.6877" cy="-608.5" rx="77.2916" ry="18"/>
<text text-anchor="middle" x="448.6877" y="-604.3" font-family="Times,serif" font-size="14.00" fill="#000000">ApplicationRecord</text>
</g>
<!-- Entitlement&#45;&gt;Voucher -->
<g id="edge31" class="edge">
<title>Entitlement&#45;&gt;Voucher</title>
<path fill="none" stroke="#575a5f" d="M882.4118,-223.8565C880.2818,-215.9512 877.4229,-207.4077 873.6877,-200 871.7627,-196.1822 869.4039,-192.3733 866.8801,-188.7393"/>
<ellipse fill="none" stroke="#575a5f" cx="883.4134" cy="-227.9063" rx="4" ry="4"/>
<polygon fill="#575a5f" stroke="#575a5f" points="866.8176,-188.6559 864.418,-177.9558 863.8177,-184.6558 860.8179,-180.6557 860.8179,-180.6557 860.8179,-180.6557 863.8177,-184.6558 857.2178,-183.3555 866.8176,-188.6559 866.8176,-188.6559"/>
</g>
<!-- Entitlement&#45;&gt;Group -->
<g id="edge33" class="edge">
<title>Entitlement&#45;&gt;Group</title>
<path fill="none" stroke="#05c4e7" d="M830.4478,-240.816C721.9227,-223.4034 488.5966,-185.9667 393.4098,-170.6942"/>
<polygon fill="#05c4e7" stroke="#05c4e7" points="830.7174,-240.8591 839.8782,-246.8866 835.6542,-241.6513 840.5911,-242.4434 840.5911,-242.4434 840.5911,-242.4434 835.6542,-241.6513 841.304,-238.0003 830.7174,-240.8591 830.7174,-240.8591"/>
<polygon fill="#05c4e7" stroke="#05c4e7" points="393.1749,-170.6566 384.0141,-164.6291 388.238,-169.8645 383.3012,-169.0723 383.3012,-169.0723 383.3012,-169.0723 388.238,-169.8645 382.5882,-173.5155 393.1749,-170.6566 393.1749,-170.6566"/>
<text text-anchor="middle" x="702.4568" y="-202.8" font-family="Times,serif" font-size="14.00" fill="#000000">group_consumers</text>
</g>
<!-- Entitlement&#45;&gt;Claim -->
<g id="edge30" class="edge">
<title>Entitlement&#45;&gt;Claim</title>
<path fill="none" stroke="#ddd685" d="M898.2438,-224.3804C905.9476,-201.1022 912.1545,-167.2461 893.6877,-146 870.9858,-119.8812 640.822,-100.7465 544.6088,-93.8287"/>
<ellipse fill="none" stroke="#ddd685" cx="896.8311" cy="-228.365" rx="4" ry="4"/>
<polygon fill="#ddd685" stroke="#ddd685" points="544.3461,-93.8102 534.6896,-88.6138 539.3586,-93.4564 534.3712,-93.1025 534.3712,-93.1025 534.3712,-93.1025 539.3586,-93.4564 534.0527,-97.5912 544.3461,-93.8102 544.3461,-93.8102"/>
</g>
<!-- Entitlement&#45;&gt;User -->
<g id="edge32" class="edge">
<title>Entitlement&#45;&gt;User</title>
<path fill="none" stroke="#304a5a" d="M827.1055,-254.7732C793.377,-259.3611 751.5017,-268.3581 717.6877,-286 668.1373,-311.8522 653.8434,-323.5734 625.9426,-372 601.1177,-415.088 633.8345,-443.9306 600.6877,-481 584.1546,-499.4897 557.5294,-508.4833 535.6273,-512.8577"/>
<polygon fill="#304a5a" stroke="#304a5a" points="827.3723,-254.7395 837.8575,-257.9507 832.3329,-254.1128 837.2934,-253.4862 837.2934,-253.4862 837.2934,-253.4862 832.3329,-254.1128 836.7294,-249.0216 827.3723,-254.7395 827.3723,-254.7395"/>
<polygon fill="#304a5a" stroke="#304a5a" points="535.4856,-512.8824 524.8591,-510.1753 530.5606,-513.7451 525.6355,-514.6078 525.6355,-514.6078 525.6355,-514.6078 530.5606,-513.7451 526.412,-519.0404 535.4856,-512.8824 535.4856,-512.8824"/>
<text text-anchor="middle" x="676.0603" y="-385.8" font-family="Times,serif" font-size="14.00" fill="#000000">direct_consumers</text>
</g>
<!-- Configuration -->
<g id="node24" class="node">
<title>Configuration</title>
<ellipse fill="none" stroke="#000000" cx="652.6877" cy="-250" rx="59.4773" ry="18"/>
<text text-anchor="middle" x="652.6877" y="-245.8" font-family="Times,serif" font-size="14.00" fill="#000000">Configuration</text>
</g>
<!-- Task -->
<g id="node30" class="node">
<title>Task</title>
<ellipse fill="none" stroke="#000000" cx="652.6877" cy="-164" rx="27" ry="18"/>
<text text-anchor="middle" x="652.6877" y="-159.8" font-family="Times,serif" font-size="14.00" fill="#000000">Task</text>
</g>
<!-- Configuration&#45;&gt;Task -->
<g id="edge34" class="edge">
<title>Configuration&#45;&gt;Task</title>
<path fill="none" stroke="#d558c8" d="M652.6877,-223.4021C652.6877,-213.585 652.6877,-202.4263 652.6877,-192.4515"/>
<ellipse fill="none" stroke="#d558c8" cx="652.6878" cy="-227.7616" rx="4" ry="4"/>
<polygon fill="#d558c8" stroke="#d558c8" points="652.6878,-192.2121 657.1877,-182.2121 652.6878,-187.2121 652.6877,-182.2121 652.6877,-182.2121 652.6877,-182.2121 652.6878,-187.2121 648.1877,-182.2121 652.6878,-192.2121 652.6878,-192.2121"/>
</g>
<!-- Build&#45;&gt;Dependency -->
<g id="edge37" class="edge">
<title>Build&#45;&gt;Dependency</title>
<path fill="none" stroke="#23fa1e" d="M1056.3805,-321.5322C1059.1758,-320.3062 1061.975,-319.1115 1064.6877,-318 1111.7849,-298.7017 1166.6149,-279.3046 1205.0505,-266.1946"/>
<ellipse fill="none" stroke="#23fa1e" cx="1052.7033" cy="-323.1797" rx="4" ry="4"/>
<polygon fill="#23fa1e" stroke="#23fa1e" points="1205.4755,-266.0504 1216.3914,-267.0963 1210.21,-264.4428 1214.9445,-262.8352 1214.9445,-262.8352 1214.9445,-262.8352 1210.21,-264.4428 1213.4977,-258.5741 1205.4755,-266.0504 1205.4755,-266.0504"/>
</g>
<!-- Build&#45;&gt;Exposure -->
<g id="edge36" class="edge">
<title>Build&#45;&gt;Exposure</title>
<path fill="none" stroke="#bdf481" d="M1056.2184,-321.0901C1059.0481,-319.958 1061.8996,-318.9059 1064.6877,-318 1091.8366,-309.1794 1288.7172,-273.7018 1316.6877,-268 1328.7152,-265.5482 1341.6785,-262.8593 1353.8011,-260.3245"/>
<ellipse fill="none" stroke="#bdf481" cx="1052.5187" cy="-322.663" rx="4" ry="4"/>
<polygon fill="#bdf481" stroke="#bdf481" points="1353.9599,-260.2913 1364.6703,-262.6446 1358.8536,-259.2658 1363.7473,-258.2402 1363.7473,-258.2402 1363.7473,-258.2402 1358.8536,-259.2658 1362.8243,-253.8359 1353.9599,-260.2913 1353.9599,-260.2913"/>
</g>
<!-- Build&#45;&gt;Configuration -->
<g id="edge38" class="edge">
<title>Build&#45;&gt;Configuration</title>
<path fill="none" stroke="#a1796a" d="M995.1522,-321.105C992.3236,-319.9697 989.4736,-318.9128 986.6877,-318 895.3565,-288.0752 785.4777,-268.7509 717.3457,-258.6211"/>
<ellipse fill="none" stroke="#a1796a" cx="998.8513" cy="-322.6804" rx="4" ry="4"/>
<polygon fill="#a1796a" stroke="#a1796a" points="717.0857,-258.5831 707.8436,-252.6811 712.1385,-257.8584 707.1913,-257.1336 707.1913,-257.1336 707.1913,-257.1336 712.1385,-257.8584 706.539,-261.5861 717.0857,-258.5831 717.0857,-258.5831"/>
</g>
<!-- Build&#45;&gt;Instance -->
<g id="edge35" class="edge">
<title>Build&#45;&gt;Instance</title>
<path fill="none" stroke="#2ddb36" d="M995.4539,-320.961C992.535,-319.84 989.5829,-318.8265 986.6877,-318 813.5607,-268.5771 759.6604,-310.4283 584.6877,-268 581.473,-267.2205 578.1789,-266.2973 574.8933,-265.2873"/>
<ellipse fill="none" stroke="#2ddb36" cx="999.3496" cy="-322.5853" rx="4" ry="4"/>
<polygon fill="#2ddb36" stroke="#2ddb36" points="574.6414,-265.2038 566.568,-257.7828 569.8959,-263.6288 565.1505,-262.0537 565.1505,-262.0537 565.1505,-262.0537 569.8959,-263.6288 563.7329,-266.3247 574.6414,-265.2038 574.6414,-265.2038"/>
</g>
<!-- User&#45;&gt;Identity -->
<g id="edge45" class="edge">
<title>User&#45;&gt;Identity</title>
<path fill="none" stroke="#3e6f8f" d="M533.736,-514.3221C629.5652,-506.9207 903.9865,-485.1943 1131.6877,-462 1167.7774,-458.3238 1208.5473,-453.5298 1239.0685,-449.8137"/>
<ellipse fill="none" stroke="#3e6f8f" cx="529.5417" cy="-514.6453" rx="4" ry="4"/>
<polygon fill="#3e6f8f" stroke="#3e6f8f" points="1239.0787,-449.8126 1249.5512,-453.0647 1244.0417,-449.2053 1249.0046,-448.598 1249.0046,-448.598 1249.0046,-448.598 1244.0417,-449.2053 1248.4581,-444.1313 1239.0787,-449.8126 1239.0787,-449.8126"/>
</g>
<!-- User&#45;&gt;Appointment -->
<g id="edge44" class="edge">
<title>User&#45;&gt;Appointment</title>
<path fill="none" stroke="#ab37d5" d="M463.951,-512.1342C404.7606,-502.8588 290.6877,-480.2772 290.6877,-444 290.6877,-444 290.6877,-444 290.6877,-164 290.6877,-149.2322 292.1248,-132.8603 293.6967,-119.3697"/>
<ellipse fill="none" stroke="#ab37d5" cx="467.9673" cy="-512.7492" rx="4" ry="4"/>
<polygon fill="#ab37d5" stroke="#ab37d5" points="293.7207,-119.1766 299.4266,-109.8121 294.341,-114.2152 294.9613,-109.2539 294.9613,-109.2539 294.9613,-109.2539 294.341,-114.2152 290.4961,-108.6956 293.7207,-119.1766 293.7207,-119.1766"/>
</g>
<!-- User&#45;&gt;Voucher -->
<g id="edge42" class="edge">
<title>User&#45;&gt;Voucher</title>
<path fill="none" stroke="#c8f8d6" d="M516.0889,-493.9925C532.4268,-472.16 557.3327,-438.2776 577.6877,-408 603.972,-368.9028 599.8849,-350.815 633.6877,-318 653.9796,-298.3012 664.1405,-300.044 688.6877,-286 702.8514,-277.8967 709.504,-279.8826 720.6877,-268 743.7114,-243.5377 729.0163,-222.7995 753.6877,-200 766.5184,-188.1429 783.7037,-180.0221 799.747,-174.5414"/>
<ellipse fill="none" stroke="#c8f8d6" cx="513.503" cy="-497.4383" rx="4" ry="4"/>
<polygon fill="#c8f8d6" stroke="#c8f8d6" points="800.0006,-174.4617 810.8902,-175.7529 804.7701,-172.961 809.5395,-171.4603 809.5395,-171.4603 809.5395,-171.4603 804.7701,-172.961 808.1889,-167.1678 800.0006,-174.4617 800.0006,-174.4617"/>
</g>
<!-- User&#45;&gt;Product -->
<g id="edge47" class="edge">
<title>User&#45;&gt;Product</title>
<path fill="none" stroke="#5dd520" d="M533.484,-512.436C582.4663,-505.9276 674.5114,-493.391 752.6877,-481 809.8672,-471.9371 875.525,-460.2153 918.2085,-452.4192"/>
<ellipse fill="none" stroke="#5dd520" cx="529.3916" cy="-512.9783" rx="4" ry="4"/>
<polygon fill="#5dd520" stroke="#5dd520" points="918.444,-452.3761 929.0912,-455.0009 923.3622,-451.4753 928.2804,-450.5745 928.2804,-450.5745 928.2804,-450.5745 923.3622,-451.4753 927.4697,-446.1481 918.444,-452.3761 918.444,-452.3761"/>
</g>
<!-- User&#45;&gt;Platform -->
<g id="edge46" class="edge">
<title>User&#45;&gt;Platform</title>
<path fill="none" stroke="#1b19f6" d="M506.2021,-491.2075C512.4022,-469.9261 521.1834,-439.7851 527.549,-417.9356"/>
<ellipse fill="none" stroke="#1b19f6" cx="505.0293" cy="-495.233" rx="4" ry="4"/>
<polygon fill="#1b19f6" stroke="#1b19f6" points="527.5746,-417.8475 534.6922,-409.5054 528.9732,-413.0471 530.3718,-408.2467 530.3718,-408.2467 530.3718,-408.2467 528.9732,-413.0471 526.0514,-406.988 527.5746,-417.8475 527.5746,-417.8475"/>
</g>
<!-- User&#45;&gt;Claim -->
<g id="edge43" class="edge">
<title>User&#45;&gt;Claim</title>
<path fill="none" stroke="#abaaa3" d="M495.8724,-490.9306C490.8364,-440.7709 481.2951,-327.3497 486.6877,-232 488.9081,-192.7409 494.5793,-147.6264 498.5352,-119.2186"/>
<ellipse fill="none" stroke="#abaaa3" cx="496.2898" cy="-495.0059" rx="4" ry="4"/>
<polygon fill="#abaaa3" stroke="#abaaa3" points="498.5524,-119.097 504.412,-109.828 499.2545,-114.1466 499.9566,-109.1961 499.9566,-109.1961 499.9566,-109.1961 499.2545,-114.1466 495.5012,-108.5642 498.5524,-119.097 498.5524,-119.097"/>
</g>
<!-- User&#45;&gt;Member -->
<g id="edge39" class="edge">
<title>User&#45;&gt;Member</title>
<path fill="none" stroke="#5f1e4a" d="M484.6378,-492.8011C462.8806,-453.7778 421.9868,-373.8395 407.0325,-300 394.1353,-236.318 402.0394,-159.5073 407.9607,-119.0638"/>
<ellipse fill="none" stroke="#5f1e4a" cx="486.7569" cy="-496.5615" rx="4" ry="4"/>
<polygon fill="#5f1e4a" stroke="#5f1e4a" points="407.9685,-119.0125 413.9323,-109.8102 408.7264,-114.0703 409.4843,-109.1281 409.4843,-109.1281 409.4843,-109.1281 408.7264,-114.0703 405.0363,-108.4459 407.9685,-119.0125 407.9685,-119.0125"/>
<text text-anchor="middle" x="445.0154" y="-288.8" font-family="Times,serif" font-size="14.00" fill="#000000">memberships</text>
</g>
<!-- User&#45;&gt;Entitlement -->
<g id="edge40" class="edge">
<title>User&#45;&gt;Entitlement</title>
<path fill="none" stroke="#74031f" d="M532.6701,-509.3426C556.5605,-503.2946 588.9103,-493.7475 615.6877,-481 668.3321,-455.9385 690.2925,-455.0794 724.6877,-408 749.2493,-374.3807 724.004,-349.961 750.6877,-318 772.7809,-291.5375 807.6992,-274.4266 836.7529,-263.988"/>
<ellipse fill="none" stroke="#74031f" cx="528.4791" cy="-510.3769" rx="4" ry="4"/>
<polygon fill="#74031f" stroke="#74031f" points="836.8935,-263.9399 847.8121,-264.9571 841.6238,-262.3199 846.3541,-260.6999 846.3541,-260.6999 846.3541,-260.6999 841.6238,-262.3199 844.8961,-256.4426 836.8935,-263.9399 836.8935,-263.9399"/>
</g>
<!-- User&#45;&gt;Attempt -->
<g id="edge41" class="edge">
<title>User&#45;&gt;Attempt</title>
<path fill="none" stroke="#77eff7" d="M463.112,-515.3757C386.4795,-510.9057 212.6877,-495.1317 212.6877,-444 212.6877,-444 212.6877,-444 212.6877,-91 212.6877,-76.1023 215.1513,-59.7182 217.8459,-46.2531"/>
<ellipse fill="none" stroke="#77eff7" cx="467.5299" cy="-515.6214" rx="4" ry="4"/>
<polygon fill="#77eff7" stroke="#77eff7" points="217.9129,-45.9412 224.4134,-37.1098 218.9634,-41.0528 220.0139,-36.1644 220.0139,-36.1644 220.0139,-36.1644 218.9634,-41.0528 215.6143,-35.2189 217.9129,-45.9412 217.9129,-45.9412"/>
</g>
<!-- IdentityProvider -->
<g id="node29" class="node">
<title>IdentityProvider</title>
<ellipse fill="none" stroke="#000000" cx="1402.6877" cy="-517" rx="68.1374" ry="18"/>
<text text-anchor="middle" x="1402.6877" y="-512.8" font-family="Times,serif" font-size="14.00" fill="#000000">IdentityProvider</text>
</g>
<!-- IdentityProvider&#45;&gt;Identity -->
<g id="edge48" class="edge">
<title>IdentityProvider&#45;&gt;Identity</title>
<path fill="none" stroke="#079fd0" d="M1368.965,-495.9593C1352.705,-485.8142 1333.3123,-473.7144 1317.3334,-463.7447"/>
<ellipse fill="none" stroke="#079fd0" cx="1372.452" cy="-498.1349" rx="4" ry="4"/>
<polygon fill="#079fd0" stroke="#079fd0" points="1317.3331,-463.7446 1311.2311,-454.6332 1313.0911,-461.0978 1308.849,-458.4511 1308.849,-458.4511 1308.849,-458.4511 1313.0911,-461.0978 1306.467,-462.2689 1317.3331,-463.7446 1317.3331,-463.7446"/>
</g>
</g>
</svg>
