<?xml version="1.0" encoding="UTF-8" standalone="no"?>
<!DOCTYPE svg PUBLIC "-//W3C//DTD SVG 1.1//EN"
 "http://www.w3.org/Graphics/SVG/1.1/DTD/svg11.dtd">
<!-- Generated by graphviz version 2.40.1 (20161225.0304)
 -->
<!-- Title: models_diagram Pages: 1 -->
<svg width="2128pt" height="485pt"
 viewBox="0.00 0.00 2128.21 485.00" xmlns="http://www.w3.org/2000/svg" xmlns:xlink="http://www.w3.org/1999/xlink">
<g id="graph0" class="graph" transform="scale(1 1) rotate(0) translate(4 481)">
<title>models_diagram</title>
<polygon fill="transparent" stroke="transparent" points="-4,4 -4,-481 2124.2125,-481 2124.2125,4 -4,4"/>
<!-- _diagram_info -->
<g id="node1" class="node">
<title>_diagram_info</title>
<text text-anchor="start" x="8" y="-462.6" font-family="Times,serif" font-size="13.00" fill="#000000">Models diagram</text>
<text text-anchor="start" x="8" y="-449.6" font-family="Times,serif" font-size="13.00" fill="#000000">Date: Aug 08 2019 &#45; 17:35</text>
<text text-anchor="start" x="8" y="-436.6" font-family="Times,serif" font-size="13.00" fill="#000000">Migration version: 20190808191156</text>
<text text-anchor="start" x="8" y="-423.6" font-family="Times,serif" font-size="13.00" fill="#000000">Generated by RailRoady 1.5.3</text>
<text text-anchor="start" x="8" y="-410.6" font-family="Times,serif" font-size="13.00" fill="#000000">http://railroady.prestonlee.com</text>
</g>
<!-- Identity -->
<g id="node2" class="node">
<title>Identity</title>
<ellipse fill="none" stroke="#000000" cx="887.4497" cy="-250" rx="37.7266" ry="18"/>
<text text-anchor="middle" x="887.4497" y="-245.8" font-family="Times,serif" font-size="14.00" fill="#000000">Identity</text>
</g>
<!-- JsonWebToken -->
<g id="node16" class="node">
<title>JsonWebToken</title>
<ellipse fill="none" stroke="#000000" cx="887.4497" cy="-164" rx="63.5968" ry="18"/>
<text text-anchor="middle" x="887.4497" y="-159.8" font-family="Times,serif" font-size="14.00" fill="#000000">JsonWebToken</text>
</g>
<!-- Identity&#45;&gt;JsonWebToken -->
<g id="edge1" class="edge">
<title>Identity&#45;&gt;JsonWebToken</title>
<path fill="none" stroke="#a3bea7" d="M887.4497,-223.4021C887.4497,-213.585 887.4497,-202.4263 887.4497,-192.4515"/>
<ellipse fill="none" stroke="#a3bea7" cx="887.4498" cy="-227.7616" rx="4" ry="4"/>
<polygon fill="#a3bea7" stroke="#a3bea7" points="887.4498,-192.2121 891.9497,-182.2121 887.4498,-187.2121 887.4497,-182.2121 887.4497,-182.2121 887.4497,-182.2121 887.4498,-187.2121 882.9497,-182.2121 887.4498,-192.2121 887.4498,-192.2121"/>
</g>
<!-- Screenshot -->
<g id="node3" class="node">
<title>Screenshot</title>
<ellipse fill="none" stroke="#000000" cx="966.4497" cy="-440.5" rx="48.8187" ry="18"/>
<text text-anchor="middle" x="966.4497" y="-436.3" font-family="Times,serif" font-size="14.00" fill="#000000">Screenshot</text>
</g>
<!-- Appointment -->
<g id="node4" class="node">
<title>Appointment</title>
<ellipse fill="none" stroke="#000000" cx="222.4497" cy="-91" rx="56.5545" ry="18"/>
<text text-anchor="middle" x="222.4497" y="-86.8" font-family="Times,serif" font-size="14.00" fill="#000000">Appointment</text>
</g>
<!-- Parameter -->
<g id="node5" class="node">
<title>Parameter</title>
<ellipse fill="none" stroke="#000000" cx="1287.4497" cy="-250" rx="45.9028" ry="18"/>
<text text-anchor="middle" x="1287.4497" y="-245.8" font-family="Times,serif" font-size="14.00" fill="#000000">Parameter</text>
</g>
<!-- Voucher -->
<g id="node6" class="node">
<title>Voucher</title>
<ellipse fill="none" stroke="#000000" cx="717.4497" cy="-164" rx="39.3277" ry="18"/>
<text text-anchor="middle" x="717.4497" y="-159.8" font-family="Times,serif" font-size="14.00" fill="#000000">Voucher</text>
</g>
<!-- Dependency -->
<g id="node7" class="node">
<title>Dependency</title>
<ellipse fill="none" stroke="#000000" cx="1064.4497" cy="-336" rx="54.1058" ry="18"/>
<text text-anchor="middle" x="1064.4497" y="-331.8" font-family="Times,serif" font-size="14.00" fill="#000000">Dependency</text>
</g>
<!-- Surrogate -->
<g id="node8" class="node">
<title>Surrogate</title>
<ellipse fill="none" stroke="#000000" cx="1181.4497" cy="-336" rx="44.475" ry="18"/>
<text text-anchor="middle" x="1181.4497" y="-331.8" font-family="Times,serif" font-size="14.00" fill="#000000">Surrogate</text>
</g>
<!-- License -->
<g id="node9" class="node">
<title>License</title>
<ellipse fill="none" stroke="#000000" cx="680.4497" cy="-440.5" rx="37.7092" ry="18"/>
<text text-anchor="middle" x="680.4497" y="-436.3" font-family="Times,serif" font-size="14.00" fill="#000000">License</text>
</g>
<!-- Product -->
<g id="node10" class="node">
<title>Product</title>
<ellipse fill="none" stroke="#000000" cx="531.4497" cy="-250" rx="37.7352" ry="18"/>
<text text-anchor="middle" x="531.4497" y="-245.8" font-family="Times,serif" font-size="14.00" fill="#000000">Product</text>
</g>
<!-- License&#45;&gt;Product -->
<g id="edge2" class="edge">
<title>License&#45;&gt;Product</title>
<path fill="none" stroke="#1152f3" d="M650.9938,-419.3297C618.7905,-394.518 568.2157,-350.337 541.4497,-300 537.9469,-293.4124 535.6666,-285.743 534.1835,-278.4181"/>
<polygon fill="#1152f3" stroke="#1152f3" points="651.183,-419.473 656.441,-429.0961 655.1699,-422.4904 659.1567,-425.5079 659.1567,-425.5079 659.1567,-425.5079 655.1699,-422.4904 661.8725,-421.9198 651.183,-419.473 651.183,-419.473"/>
<polygon fill="#1152f3" stroke="#1152f3" points="534.1667,-278.3133 537.016,-267.7241 533.3701,-273.3772 532.5734,-268.441 532.5734,-268.441 532.5734,-268.441 533.3701,-273.3772 528.1309,-269.158 534.1667,-278.3133 534.1667,-278.3133"/>
</g>
<!-- ProductLicense -->
<g id="node15" class="node">
<title>ProductLicense</title>
<ellipse fill="none" stroke="#000000" cx="773.4497" cy="-336" rx="65.2304" ry="18"/>
<text text-anchor="middle" x="773.4497" y="-331.8" font-family="Times,serif" font-size="14.00" fill="#000000">ProductLicense</text>
</g>
<!-- License&#45;&gt;ProductLicense -->
<g id="edge4" class="edge">
<title>License&#45;&gt;ProductLicense</title>
<path fill="none" stroke="#9f795d" d="M700.8952,-417.5263C715.5694,-401.0376 735.3551,-378.8052 750.5582,-361.7222"/>
<ellipse fill="none" stroke="#9f795d" cx="698.051" cy="-420.7222" rx="4" ry="4"/>
<polygon fill="#9f795d" stroke="#9f795d" points="750.9629,-361.2675 760.9725,-356.7889 754.2869,-357.5324 757.611,-353.7973 757.611,-353.7973 757.611,-353.7973 754.2869,-357.5324 754.2494,-350.8057 750.9629,-361.2675 750.9629,-361.2675"/>
</g>
<!-- Entitlement -->
<g id="node24" class="node">
<title>Entitlement</title>
<ellipse fill="none" stroke="#000000" cx="638.4497" cy="-250" rx="51.2329" ry="18"/>
<text text-anchor="middle" x="638.4497" y="-245.8" font-family="Times,serif" font-size="14.00" fill="#000000">Entitlement</text>
</g>
<!-- License&#45;&gt;Entitlement -->
<g id="edge3" class="edge">
<title>License&#45;&gt;Entitlement</title>
<path fill="none" stroke="#5c6dca" d="M682.8242,-413.7853C684.6138,-382.0988 684.377,-328.2537 667.4497,-286 666.0227,-282.4379 664.1172,-278.9507 661.9616,-275.6345"/>
<ellipse fill="none" stroke="#5c6dca" cx="682.5399" cy="-418.1154" rx="4" ry="4"/>
<polygon fill="#5c6dca" stroke="#5c6dca" points="661.7658,-275.3692 659.4498,-264.6506 658.7973,-271.3457 655.8287,-267.3223 655.8287,-267.3223 655.8287,-267.3223 658.7973,-271.3457 652.2077,-269.994 661.7658,-275.3692 661.7658,-275.3692"/>
</g>
<!-- Group -->
<g id="node11" class="node">
<title>Group</title>
<ellipse fill="none" stroke="#000000" cx="409.4497" cy="-164" rx="32.9081" ry="18"/>
<text text-anchor="middle" x="409.4497" y="-159.8" font-family="Times,serif" font-size="14.00" fill="#000000">Group</text>
</g>
<!-- Group&#45;&gt;Appointment -->
<g id="edge7" class="edge">
<title>Group&#45;&gt;Appointment</title>
<path fill="none" stroke="#d11dca" d="M376.1726,-149.2131C373.5664,-148.1093 370.9693,-147.0268 368.4497,-146 335.6603,-132.6374 298.2885,-118.5804 269.5639,-108.0226"/>
<ellipse fill="none" stroke="#d11dca" cx="380.275" cy="-150.9752" rx="4" ry="4"/>
<polygon fill="#d11dca" stroke="#d11dca" points="269.5629,-108.0222 261.7212,-100.3569 264.868,-106.3022 260.1732,-104.5823 260.1732,-104.5823 260.1732,-104.5823 264.868,-106.3022 258.6252,-108.8076 269.5629,-108.0222 269.5629,-108.0222"/>
</g>
<!-- Claim -->
<g id="node13" class="node">
<title>Claim</title>
<ellipse fill="none" stroke="#000000" cx="455.4497" cy="-91" rx="31.948" ry="18"/>
<text text-anchor="middle" x="455.4497" y="-86.8" font-family="Times,serif" font-size="14.00" fill="#000000">Claim</text>
</g>
<!-- Group&#45;&gt;Claim -->
<g id="edge8" class="edge">
<title>Group&#45;&gt;Claim</title>
<path fill="none" stroke="#2caa15" d="M424.6873,-139.8186C429.2753,-132.5376 434.3302,-124.5157 438.9936,-117.1151"/>
<ellipse fill="none" stroke="#2caa15" cx="422.4836" cy="-143.3159" rx="4" ry="4"/>
<polygon fill="#2caa15" stroke="#2caa15" points="439.2953,-116.6362 448.4338,-110.5749 441.961,-112.406 444.6266,-108.1758 444.6266,-108.1758 444.6266,-108.1758 441.961,-112.406 440.8194,-105.7767 439.2953,-116.6362 439.2953,-116.6362"/>
</g>
<!-- Member -->
<g id="node14" class="node">
<title>Member</title>
<ellipse fill="none" stroke="#000000" cx="356.4497" cy="-91" rx="40.1317" ry="18"/>
<text text-anchor="middle" x="356.4497" y="-86.8" font-family="Times,serif" font-size="14.00" fill="#000000">Member</text>
</g>
<!-- Group&#45;&gt;Member -->
<g id="edge5" class="edge">
<title>Group&#45;&gt;Member</title>
<path fill="none" stroke="#9b14e1" d="M392.3744,-140.4812C386.804,-132.8088 380.5948,-124.2565 374.9264,-116.449"/>
<ellipse fill="none" stroke="#9b14e1" cx="394.8072" cy="-143.832" rx="4" ry="4"/>
<polygon fill="#9b14e1" stroke="#9b14e1" points="374.9187,-116.4384 372.685,-105.7024 371.9811,-112.3923 369.0436,-108.3463 369.0436,-108.3463 369.0436,-108.3463 371.9811,-112.3923 365.4021,-110.9901 374.9187,-116.4384 374.9187,-116.4384"/>
</g>
<!-- User -->
<g id="node29" class="node">
<title>User</title>
<ellipse fill="none" stroke="#000000" cx="441.4497" cy="-336" rx="27" ry="18"/>
<text text-anchor="middle" x="441.4497" y="-331.8" font-family="Times,serif" font-size="14.00" fill="#000000">User</text>
</g>
<!-- Group&#45;&gt;User -->
<g id="edge6" class="edge">
<title>Group&#45;&gt;User</title>
<path fill="none" stroke="#f682c8" d="M414.6772,-192.0978C420.612,-223.9975 430.2394,-275.7448 436.1883,-307.7199"/>
<polygon fill="#f682c8" stroke="#f682c8" points="414.6459,-191.929 417.2408,-181.2746 413.7313,-187.0134 412.8167,-182.0977 412.8167,-182.0977 412.8167,-182.0977 413.7313,-187.0134 408.3926,-182.9209 414.6459,-191.929 414.6459,-191.929"/>
<polygon fill="#f682c8" stroke="#f682c8" points="436.2565,-308.0868 433.6615,-318.7412 437.171,-313.0024 438.0856,-317.9181 438.0856,-317.9181 438.0856,-317.9181 437.171,-313.0024 442.5097,-317.095 436.2565,-308.0868 436.2565,-308.0868"/>
</g>
<!-- Platform -->
<g id="node12" class="node">
<title>Platform</title>
<ellipse fill="none" stroke="#000000" cx="358.4497" cy="-250" rx="41.1093" ry="18"/>
<text text-anchor="middle" x="358.4497" y="-245.8" font-family="Times,serif" font-size="14.00" fill="#000000">Platform</text>
</g>
<!-- Instance -->
<g id="node26" class="node">
<title>Instance</title>
<ellipse fill="none" stroke="#000000" cx="319.4497" cy="-164" rx="39.6385" ry="18"/>
<text text-anchor="middle" x="319.4497" y="-159.8" font-family="Times,serif" font-size="14.00" fill="#000000">Instance</text>
</g>
<!-- Platform&#45;&gt;Instance -->
<g id="edge9" class="edge">
<title>Platform&#45;&gt;Instance</title>
<path fill="none" stroke="#5f5b85" d="M347.0495,-224.8612C342.2536,-214.2856 336.6628,-201.957 331.772,-191.1722"/>
<ellipse fill="none" stroke="#5f5b85" cx="348.7168" cy="-228.5378" rx="4" ry="4"/>
<polygon fill="#5f5b85" stroke="#5f5b85" points="331.6503,-190.9037 331.6185,-179.9379 329.5852,-186.3501 327.5202,-181.7964 327.5202,-181.7964 327.5202,-181.7964 329.5852,-186.3501 323.4219,-183.655 331.6503,-190.9037 331.6503,-190.9037"/>
</g>
<!-- Attempt -->
<g id="node28" class="node">
<title>Attempt</title>
<ellipse fill="none" stroke="#000000" cx="149.4497" cy="-18" rx="39.18" ry="18"/>
<text text-anchor="middle" x="149.4497" y="-13.8" font-family="Times,serif" font-size="14.00" fill="#000000">Attempt</text>
</g>
<!-- Claim&#45;&gt;Attempt -->
<g id="edge10" class="edge">
<title>Claim&#45;&gt;Attempt</title>
<path fill="none" stroke="#cb025d" d="M421.5242,-78.0985C416.1833,-76.2674 410.6942,-74.5001 405.4497,-73 333.335,-52.3731 247.833,-35.4874 196.1587,-26.0891"/>
<ellipse fill="none" stroke="#cb025d" cx="425.4249" cy="-79.4734" rx="4" ry="4"/>
<polygon fill="#cb025d" stroke="#cb025d" points="196.1303,-26.0841 187.087,-19.8818 191.2096,-25.1973 186.2889,-24.3104 186.2889,-24.3104 186.2889,-24.3104 191.2096,-25.1973 185.4907,-28.7391 196.1303,-26.0841 196.1303,-26.0841"/>
</g>
<!-- ProductLicense&#45;&gt;Voucher -->
<g id="edge12" class="edge">
<title>ProductLicense&#45;&gt;Voucher</title>
<path fill="none" stroke="#c671c2" d="M765.9793,-309.859C757.976,-282.3439 744.6369,-237.8553 731.4497,-200 730.4777,-197.2096 729.4255,-194.3133 728.3496,-191.4302"/>
<ellipse fill="none" stroke="#c671c2" cx="767.1735" cy="-313.9848" rx="4" ry="4"/>
<polygon fill="#c671c2" stroke="#c671c2" points="728.2579,-191.1906 728.8844,-180.2426 726.4699,-186.5212 724.6819,-181.8518 724.6819,-181.8518 724.6819,-181.8518 726.4699,-186.5212 720.4795,-183.461 728.2579,-191.1906 728.2579,-191.1906"/>
</g>
<!-- ProductLicense&#45;&gt;Entitlement -->
<g id="edge11" class="edge">
<title>ProductLicense&#45;&gt;Entitlement</title>
<path fill="none" stroke="#cf78b3" d="M740.462,-314.7848C726.5782,-305.8737 710.2419,-295.4121 695.4497,-286 687.9264,-281.213 679.8325,-276.0867 672.1741,-271.2471"/>
<ellipse fill="none" stroke="#cf78b3" cx="744.1118" cy="-317.1283" rx="4" ry="4"/>
<polygon fill="#cf78b3" stroke="#cf78b3" points="671.8997,-271.0739 665.8465,-261.9301 667.6719,-268.4045 663.4441,-265.7351 663.4441,-265.7351 663.4441,-265.7351 667.6719,-268.4045 661.0416,-269.5401 671.8997,-271.0739 671.8997,-271.0739"/>
</g>
<!-- Badge -->
<g id="node17" class="node">
<title>Badge</title>
<ellipse fill="none" stroke="#000000" cx="1487.4497" cy="-440.5" rx="32.8994" ry="18"/>
<text text-anchor="middle" x="1487.4497" y="-436.3" font-family="Times,serif" font-size="14.00" fill="#000000">Badge</text>
</g>
<!-- Badge&#45;&gt;Badge -->
<g id="edge13" class="edge">
<title>Badge&#45;&gt;Badge</title>
<path fill="none" stroke="#6de5da" d="M1523.6834,-451.5017C1532.0231,-450.553 1538.1488,-446.8858 1538.1488,-440.5 1538.1488,-434.1142 1532.0231,-430.447 1523.6834,-429.4983"/>
<polygon fill="#6de5da" stroke="#6de5da" points="1523.5351,-451.5006 1513.5727,-446.9178 1518.5353,-451.4591 1513.5354,-451.4177 1513.5354,-451.4177 1513.5354,-451.4177 1518.5353,-451.4591 1513.4981,-455.9175 1523.5351,-451.5006 1523.5351,-451.5006"/>
<polygon fill="#6de5da" stroke="#6de5da" points="1523.5351,-429.4994 1513.4981,-425.0825 1518.5353,-429.5409 1513.5354,-429.5823 1513.5354,-429.5823 1513.5354,-429.5823 1518.5353,-429.5409 1513.5727,-434.0822 1523.5351,-429.4994 1523.5351,-429.4994"/>
</g>
<!-- Role -->
<g id="node18" class="node">
<title>Role</title>
<ellipse fill="none" stroke="#000000" cx="251.4497" cy="-440.5" rx="27" ry="18"/>
<text text-anchor="middle" x="251.4497" y="-436.3" font-family="Times,serif" font-size="14.00" fill="#000000">Role</text>
</g>
<!-- Role&#45;&gt;Appointment -->
<g id="edge14" class="edge">
<title>Role&#45;&gt;Appointment</title>
<path fill="none" stroke="#587fa7" d="M231.9816,-418.9902C209.9008,-393.002 175.1831,-346.9001 161.4497,-300 142.2245,-234.3451 180.6737,-157.0589 204.856,-117.4048"/>
<ellipse fill="none" stroke="#587fa7" cx="234.6884" cy="-422.1247" rx="4" ry="4"/>
<polygon fill="#587fa7" stroke="#587fa7" points="205.0511,-117.0933 214.1733,-111.0077 207.7054,-112.856 210.3598,-108.6187 210.3598,-108.6187 210.3598,-108.6187 207.7054,-112.856 206.5462,-106.2298 205.0511,-117.0933 205.0511,-117.0933"/>
</g>
<!-- Role&#45;&gt;Group -->
<g id="edge16" class="edge">
<title>Role&#45;&gt;Group</title>
<path fill="none" stroke="#4f0444" d="M252.9973,-412.2649C256.607,-369.523 268.6094,-287.5061 308.4497,-232 317.8218,-218.9426 351.6988,-197.4032 377.6606,-182.0663"/>
<polygon fill="#4f0444" stroke="#4f0444" points="252.9968,-412.2732 247.7612,-421.9085 252.6227,-417.2592 252.2486,-422.2452 252.2486,-422.2452 252.2486,-422.2452 252.6227,-417.2592 256.736,-422.5819 252.9968,-412.2732 252.9968,-412.2732"/>
<polygon fill="#4f0444" stroke="#4f0444" points="377.8263,-181.9695 388.7307,-180.8095 382.1433,-179.4469 386.4603,-176.9242 386.4603,-176.9242 386.4603,-176.9242 382.1433,-179.4469 384.1899,-173.0389 377.8263,-181.9695 377.8263,-181.9695"/>
</g>
<!-- Role&#45;&gt;User -->
<g id="edge15" class="edge">
<title>Role&#45;&gt;User</title>
<path fill="none" stroke="#49c438" d="M281.7572,-423.8309C317.4207,-404.216 376.2542,-371.8575 411.682,-352.3723"/>
<polygon fill="#49c438" stroke="#49c438" points="281.2712,-424.0982 270.3403,-424.9744 276.8901,-426.5078 272.509,-428.9174 272.509,-428.9174 272.509,-428.9174 276.8901,-426.5078 274.6776,-432.8604 281.2712,-424.0982 281.2712,-424.0982"/>
<polygon fill="#49c438" stroke="#49c438" points="411.8235,-352.2945 422.7543,-351.4182 416.2046,-349.8848 420.5857,-347.4752 420.5857,-347.4752 420.5857,-347.4752 416.2046,-349.8848 418.417,-343.5322 411.8235,-352.2945 411.8235,-352.2945"/>
</g>
<!-- Interface -->
<g id="node19" class="node">
<title>Interface</title>
<ellipse fill="none" stroke="#000000" cx="1255.4497" cy="-440.5" rx="41.542" ry="18"/>
<text text-anchor="middle" x="1255.4497" y="-436.3" font-family="Times,serif" font-size="14.00" fill="#000000">Interface</text>
</g>
<!-- Interface&#45;&gt;Dependency -->
<g id="edge22" class="edge">
<title>Interface&#45;&gt;Dependency</title>
<path fill="none" stroke="#c17bd5" d="M1222.2714,-422.3474C1188.6556,-403.9556 1136.7516,-375.5579 1101.7336,-356.3988"/>
<ellipse fill="none" stroke="#c17bd5" cx="1225.7833" cy="-424.2689" rx="4" ry="4"/>
<polygon fill="#c17bd5" stroke="#c17bd5" points="1101.5482,-356.2974 1094.9353,-347.5498 1097.1618,-353.8975 1092.7754,-351.4975 1092.7754,-351.4975 1092.7754,-351.4975 1097.1618,-353.8975 1090.6154,-355.4453 1101.5482,-356.2974 1101.5482,-356.2974"/>
</g>
<!-- Interface&#45;&gt;Surrogate -->
<g id="edge17" class="edge">
<title>Interface&#45;&gt;Surrogate</title>
<path fill="none" stroke="#5be430" d="M1219.976,-423.2821C1205.5875,-414.3094 1190.4675,-401.859 1182.3325,-386 1178.939,-379.3844 1177.7172,-371.5994 1177.5938,-364.1678"/>
<ellipse fill="none" stroke="#5be430" cx="1223.5044" cy="-425.3701" rx="4" ry="4"/>
<polygon fill="#5be430" stroke="#5be430" points="1177.5991,-364.0463 1182.5346,-354.2539 1177.819,-359.0511 1178.0389,-354.056 1178.0389,-354.056 1178.0389,-354.056 1177.819,-359.0511 1173.5433,-353.858 1177.5991,-364.0463 1177.5991,-364.0463"/>
<text text-anchor="middle" x="1212.0083" y="-374.8" font-family="Times,serif" font-size="14.00" fill="#000000">substitutes</text>
</g>
<!-- Interface&#45;&gt;Surrogate -->
<g id="edge18" class="edge">
<title>Interface&#45;&gt;Surrogate</title>
<path fill="none" stroke="#08395a" d="M1255.0377,-414.2414C1253.6672,-400.5786 1250.1032,-384.2246 1241.4497,-372 1236.4051,-364.8735 1229.4635,-358.911 1222.0878,-354.0205"/>
<ellipse fill="none" stroke="#08395a" cx="1255.3399" cy="-418.3504" rx="4" ry="4"/>
<polygon fill="#08395a" stroke="#08395a" points="1221.8961,-353.9057 1215.6302,-344.9062 1217.6068,-351.3361 1213.3176,-348.7665 1213.3176,-348.7665 1213.3176,-348.7665 1217.6068,-351.3361 1211.005,-352.6268 1221.8961,-353.9057 1221.8961,-353.9057"/>
</g>
<!-- Interface&#45;&gt;Interface -->
<g id="edge20" class="edge">
<title>Interface&#45;&gt;Interface</title>
<path fill="none" stroke="#1dc661" d="M1296.3245,-451.6352C1306.9534,-450.9541 1314.9707,-447.2424 1314.9707,-440.5 1314.9707,-434.2158 1308.0061,-430.5644 1298.4537,-429.5456"/>
<ellipse fill="none" stroke="#1dc661" cx="1292.2006" cy="-451.6151" rx="4" ry="4"/>
<polygon fill="#1dc661" stroke="#1dc661" points="1298.1997,-429.5422 1288.2627,-424.9049 1293.2002,-429.4734 1288.2007,-429.4045 1288.2007,-429.4045 1288.2007,-429.4045 1293.2002,-429.4734 1288.1387,-433.9041 1298.1997,-429.5422 1298.1997,-429.5422"/>
<text text-anchor="middle" x="1376.0088" y="-436.3" font-family="Times,serif" font-size="14.00" fill="#000000">substituted_interfaces</text>
</g>
<!-- Exposure -->
<g id="node20" class="node">
<title>Exposure</title>
<ellipse fill="none" stroke="#000000" cx="1287.4497" cy="-336" rx="43.5146" ry="18"/>
<text text-anchor="middle" x="1287.4497" y="-331.8" font-family="Times,serif" font-size="14.00" fill="#000000">Exposure</text>
</g>
<!-- Interface&#45;&gt;Exposure -->
<g id="edge21" class="edge">
<title>Interface&#45;&gt;Exposure</title>
<path fill="none" stroke="#28d958" d="M1263.3688,-414.6392C1268.1056,-399.1707 1274.1236,-379.518 1278.9586,-363.7289"/>
<ellipse fill="none" stroke="#28d958" cx="1262.1949" cy="-418.4728" rx="4" ry="4"/>
<polygon fill="#28d958" stroke="#28d958" points="1279.0115,-363.5557 1286.2424,-355.3115 1280.4756,-358.7748 1281.9396,-353.9939 1281.9396,-353.9939 1281.9396,-353.9939 1280.4756,-358.7748 1277.6368,-352.6763 1279.0115,-363.5557 1279.0115,-363.5557"/>
</g>
<!-- SurrogatedInterface -->
<g id="node32" class="node">
<title>SurrogatedInterface</title>
<ellipse fill="none" stroke="#000000" cx="1429.4497" cy="-336" rx="80.1472" ry="18"/>
<text text-anchor="middle" x="1429.4497" y="-331.8" font-family="Times,serif" font-size="14.00" fill="#000000">SurrogatedInterface</text>
</g>
<!-- Interface&#45;&gt;SurrogatedInterface -->
<g id="edge19" class="edge">
<title>Interface&#45;&gt;SurrogatedInterface</title>
<path fill="none" stroke="#ed4eaf" d="M1288.7431,-420.5048C1318.4316,-402.6747 1361.8256,-376.6133 1392.56,-358.155"/>
<polygon fill="#ed4eaf" stroke="#ed4eaf" points="1288.5834,-420.6007 1277.6937,-421.8916 1284.297,-423.175 1280.0106,-425.7493 1280.0106,-425.7493 1280.0106,-425.7493 1284.297,-423.175 1282.3275,-429.6071 1288.5834,-420.6007 1288.5834,-420.6007"/>
<polygon fill="#ed4eaf" stroke="#ed4eaf" points="1392.6934,-358.0749 1403.5831,-356.7841 1396.9798,-355.5006 1401.2662,-352.9263 1401.2662,-352.9263 1401.2662,-352.9263 1396.9798,-355.5006 1398.9493,-349.0686 1392.6934,-358.0749 1392.6934,-358.0749"/>
</g>
<!-- Exposure&#45;&gt;Parameter -->
<g id="edge23" class="edge">
<title>Exposure&#45;&gt;Parameter</title>
<path fill="none" stroke="#1a6bd6" d="M1287.4497,-309.4021C1287.4497,-299.585 1287.4497,-288.4263 1287.4497,-278.4515"/>
<ellipse fill="none" stroke="#1a6bd6" cx="1287.4498" cy="-313.7616" rx="4" ry="4"/>
<polygon fill="#1a6bd6" stroke="#1a6bd6" points="1287.4498,-278.2121 1291.9497,-268.2121 1287.4498,-273.2121 1287.4497,-268.2121 1287.4497,-268.2121 1287.4497,-268.2121 1287.4498,-273.2121 1282.9497,-268.2121 1287.4498,-278.2121 1287.4498,-278.2121"/>
</g>
<!-- Ability -->
<g id="node21" class="node">
<title>Ability</title>
<polygon fill="none" stroke="#000000" points="1612.1196,-458.5 1556.7798,-458.5 1556.7798,-422.5 1612.1196,-422.5 1612.1196,-458.5"/>
<text text-anchor="middle" x="1584.4497" y="-436.3" font-family="Times,serif" font-size="14.00" fill="#000000">Ability</text>
</g>
<!-- SubProduct -->
<g id="node22" class="node">
<title>SubProduct</title>
<ellipse fill="none" stroke="#000000" cx="1681.4497" cy="-440.5" rx="51.2587" ry="18"/>
<text text-anchor="middle" x="1681.4497" y="-436.3" font-family="Times,serif" font-size="14.00" fill="#000000">SubProduct</text>
</g>
<!-- ApplicationRecord -->
<g id="node23" class="node">
<title>ApplicationRecord</title>
<ellipse fill="none" stroke="#000000" cx="1828.4497" cy="-440.5" rx="77.2916" ry="18"/>
<text text-anchor="middle" x="1828.4497" y="-436.3" font-family="Times,serif" font-size="14.00" fill="#000000">ApplicationRecord</text>
</g>
<!-- Entitlement&#45;&gt;Voucher -->
<g id="edge25" class="edge">
<title>Entitlement&#45;&gt;Voucher</title>
<path fill="none" stroke="#7a43c5" d="M659.9056,-226.643C670.8282,-214.7526 684.0954,-200.3097 695.1369,-188.2899"/>
<ellipse fill="none" stroke="#7a43c5" cx="657.1426" cy="-229.6508" rx="4" ry="4"/>
<polygon fill="#7a43c5" stroke="#7a43c5" points="695.2593,-188.1567 705.3383,-183.8365 698.6418,-184.4744 702.0243,-180.7922 702.0243,-180.7922 702.0243,-180.7922 698.6418,-184.4744 698.7103,-177.748 695.2593,-188.1567 695.2593,-188.1567"/>
</g>
<!-- Entitlement&#45;&gt;Group -->
<g id="edge27" class="edge">
<title>Entitlement&#45;&gt;Group</title>
<path fill="none" stroke="#b0c4c3" d="M589.5094,-235.3071C585.7673,-234.187 582.048,-233.0747 578.4497,-232 551.5537,-223.9671 544.1774,-223.901 517.9116,-214 492.1691,-204.2962 463.9758,-191.2203 442.787,-180.8742"/>
<polygon fill="#b0c4c3" stroke="#b0c4c3" points="589.8215,-235.4006 598.1096,-242.581 594.6113,-236.8354 599.401,-238.2703 599.401,-238.2703 599.401,-238.2703 594.6113,-236.8354 600.6923,-233.9596 589.8215,-235.4006 589.8215,-235.4006"/>
<polygon fill="#b0c4c3" stroke="#b0c4c3" points="442.5477,-180.7563 435.5682,-172.2984 438.0631,-178.5455 433.5784,-176.3346 433.5784,-176.3346 433.5784,-176.3346 438.0631,-178.5455 431.5886,-180.3708 442.5477,-180.7563 442.5477,-180.7563"/>
<text text-anchor="middle" x="568.2188" y="-202.8" font-family="Times,serif" font-size="14.00" fill="#000000">group_consumers</text>
</g>
<!-- Entitlement&#45;&gt;Claim -->
<g id="edge24" class="edge">
<title>Entitlement&#45;&gt;Claim</title>
<path fill="none" stroke="#f8dc02" d="M630.9217,-224.2597C627.669,-215.9417 623.2494,-207.0547 617.4497,-200 582.2741,-157.2132 526.0039,-124.6398 489.8978,-106.6731"/>
<ellipse fill="none" stroke="#f8dc02" cx="632.3399" cy="-228.2165" rx="4" ry="4"/>
<polygon fill="#f8dc02" stroke="#f8dc02" points="489.7216,-106.5873 482.7008,-98.1636 485.2262,-104.3984 480.7308,-102.2095 480.7308,-102.2095 480.7308,-102.2095 485.2262,-104.3984 478.7608,-106.2554 489.7216,-106.5873 489.7216,-106.5873"/>
</g>
<!-- Entitlement&#45;&gt;User -->
<g id="edge26" class="edge">
<title>Entitlement&#45;&gt;User</title>
<path fill="none" stroke="#2e4a8a" d="M599.6394,-269.4622C589.5008,-274.7016 578.6336,-280.4565 568.7046,-286 558.1712,-291.8809 556.377,-294.888 545.4497,-300 522.9918,-310.5063 496.5794,-319.6114 475.9919,-326.0362"/>
<polygon fill="#2e4a8a" stroke="#2e4a8a" points="599.7998,-269.38 610.7514,-268.8203 604.2488,-267.0981 608.6978,-264.8163 608.6978,-264.8163 608.6978,-264.8163 604.2488,-267.0981 606.6441,-260.8122 599.7998,-269.38 599.7998,-269.38"/>
<polygon fill="#2e4a8a" stroke="#2e4a8a" points="475.9593,-326.0461 465.0807,-324.6659 471.1777,-327.5077 466.3961,-328.9694 466.3961,-328.9694 466.3961,-328.9694 471.1777,-327.5077 467.7116,-333.2728 475.9593,-326.0461 475.9593,-326.0461"/>
<text text-anchor="middle" x="618.8223" y="-288.8" font-family="Times,serif" font-size="14.00" fill="#000000">direct_consumers</text>
</g>
<!-- Configuration -->
<g id="node25" class="node">
<title>Configuration</title>
<ellipse fill="none" stroke="#000000" cx="1983.4497" cy="-440.5" rx="59.4773" ry="18"/>
<text text-anchor="middle" x="1983.4497" y="-436.3" font-family="Times,serif" font-size="14.00" fill="#000000">Configuration</text>
</g>
<!-- Task -->
<g id="node31" class="node">
<title>Task</title>
<ellipse fill="none" stroke="#000000" cx="1983.4497" cy="-336" rx="27" ry="18"/>
<text text-anchor="middle" x="1983.4497" y="-331.8" font-family="Times,serif" font-size="14.00" fill="#000000">Task</text>
</g>
<!-- Configuration&#45;&gt;Task -->
<g id="edge28" class="edge">
<title>Configuration&#45;&gt;Task</title>
<path fill="none" stroke="#ba343a" d="M1983.4497,-414.1853C1983.4497,-399.0145 1983.4497,-379.9357 1983.4497,-364.4227"/>
<ellipse fill="none" stroke="#ba343a" cx="1983.4498" cy="-418.2975" rx="4" ry="4"/>
<polygon fill="#ba343a" stroke="#ba343a" points="1983.4498,-364.3445 1987.9497,-354.3445 1983.4498,-359.3445 1983.4497,-354.3445 1983.4497,-354.3445 1983.4497,-354.3445 1983.4498,-359.3445 1978.9497,-354.3446 1983.4498,-364.3445 1983.4498,-364.3445"/>
</g>
<!-- Build -->
<g id="node27" class="node">
<title>Build</title>
<ellipse fill="none" stroke="#000000" cx="2090.4497" cy="-440.5" rx="29.5275" ry="18"/>
<text text-anchor="middle" x="2090.4497" y="-436.3" font-family="Times,serif" font-size="14.00" fill="#000000">Build</text>
</g>
<!-- User&#45;&gt;Identity -->
<g id="edge35" class="edge">
<title>User&#45;&gt;Identity</title>
<path fill="none" stroke="#c9635c" d="M476.536,-333.7667C531.4298,-329.7985 640.7314,-319.9853 731.4497,-300 772.0503,-291.0557 817.1488,-276.0231 848.3704,-264.7717"/>
<ellipse fill="none" stroke="#c9635c" cx="472.5122" cy="-334.0506" rx="4" ry="4"/>
<polygon fill="#c9635c" stroke="#c9635c" points="848.6007,-264.6878 859.5371,-265.492 853.2985,-262.9759 857.9963,-261.264 857.9963,-261.264 857.9963,-261.264 853.2985,-262.9759 856.4556,-257.036 848.6007,-264.6878 848.6007,-264.6878"/>
</g>
<!-- User&#45;&gt;Appointment -->
<g id="edge34" class="edge">
<title>User&#45;&gt;Appointment</title>
<path fill="none" stroke="#394a10" d="M406.0911,-333.3306C364.753,-328.1449 297.76,-312.8874 264.4497,-268 231.4748,-223.5645 223.963,-157.0457 222.5059,-119.4844"/>
<ellipse fill="none" stroke="#394a10" cx="410.2762" cy="-333.81" rx="4" ry="4"/>
<polygon fill="#394a10" stroke="#394a10" points="222.4999,-119.2532 226.7312,-109.1366 222.3663,-114.255 222.2328,-109.2567 222.2328,-109.2567 222.2328,-109.2567 222.3663,-114.255 217.7344,-109.3769 222.4999,-119.2532 222.4999,-119.2532"/>
</g>
<!-- User&#45;&gt;Voucher -->
<g id="edge32" class="edge">
<title>User&#45;&gt;Voucher</title>
<path fill="none" stroke="#10dd7f" d="M476.9508,-333.5788C533.2079,-329.2299 639.8128,-318.7535 672.4497,-300 709.225,-278.8686 716.9731,-225.5351 718.048,-192.2827"/>
<ellipse fill="none" stroke="#10dd7f" cx="472.6905" cy="-333.8998" rx="4" ry="4"/>
<polygon fill="#10dd7f" stroke="#10dd7f" points="718.0483,-192.2573 722.6904,-182.3225 718.1196,-187.2578 718.1909,-182.2583 718.1909,-182.2583 718.1909,-182.2583 718.1196,-187.2578 713.6913,-182.1941 718.0483,-192.2573 718.0483,-192.2573"/>
</g>
<!-- User&#45;&gt;Product -->
<g id="edge37" class="edge">
<title>User&#45;&gt;Product</title>
<path fill="none" stroke="#7d712c" d="M463.091,-315.3206C476.3779,-302.6242 493.4238,-286.3359 507.1698,-273.2008"/>
<ellipse fill="none" stroke="#7d712c" cx="460.0185" cy="-318.2565" rx="4" ry="4"/>
<polygon fill="#7d712c" stroke="#7d712c" points="507.1923,-273.1793 517.5311,-269.5242 510.8072,-269.725 514.4222,-266.2707 514.4222,-266.2707 514.4222,-266.2707 510.8072,-269.725 511.3133,-263.0173 507.1923,-273.1793 507.1923,-273.1793"/>
</g>
<!-- User&#45;&gt;Platform -->
<g id="edge36" class="edge">
<title>User&#45;&gt;Platform</title>
<path fill="none" stroke="#180491" d="M420.7897,-314.5933C408.9586,-302.3345 394.0756,-286.9136 381.8189,-274.2139"/>
<ellipse fill="none" stroke="#180491" cx="423.8332" cy="-317.7467" rx="4" ry="4"/>
<polygon fill="#180491" stroke="#180491" points="381.522,-273.9062 377.8155,-263.5857 378.0498,-270.3085 374.5775,-266.7108 374.5775,-266.7108 374.5775,-266.7108 378.0498,-270.3085 371.3396,-269.8358 381.522,-273.9062 381.522,-273.9062"/>
</g>
<!-- User&#45;&gt;Claim -->
<g id="edge33" class="edge">
<title>User&#45;&gt;Claim</title>
<path fill="none" stroke="#a854ca" d="M444.5528,-309.7324C444.8852,-306.4581 445.1946,-303.1536 445.4497,-300 450.669,-235.4901 453.467,-159.542 454.686,-119.3224"/>
<ellipse fill="none" stroke="#a854ca" cx="444.1238" cy="-313.7291" rx="4" ry="4"/>
<polygon fill="#a854ca" stroke="#a854ca" points="454.6897,-119.193 459.4802,-109.3289 454.8359,-114.1951 454.9821,-109.1973 454.9821,-109.1973 454.9821,-109.1973 454.8359,-114.1951 450.484,-109.0657 454.6897,-119.193 454.6897,-119.193"/>
</g>
<!-- User&#45;&gt;Member -->
<g id="edge29" class="edge">
<title>User&#45;&gt;Member</title>
<path fill="none" stroke="#fcb349" d="M408.3676,-326.7303C362.8048,-311.8148 283.5575,-277.5142 258.7944,-214 251.4075,-195.0535 258.1543,-163.6975 270.4497,-146 281.9679,-129.4211 300.2622,-116.7069 317.0223,-107.7005"/>
<ellipse fill="none" stroke="#fcb349" cx="412.3781" cy="-328.0011" rx="4" ry="4"/>
<polygon fill="#fcb349" stroke="#fcb349" points="317.2072,-107.6065 328.1609,-107.0893 321.665,-105.3419 326.1228,-103.0773 326.1228,-103.0773 326.1228,-103.0773 321.665,-105.3419 324.0846,-99.0653 317.2072,-107.6065 317.2072,-107.6065"/>
<text text-anchor="middle" x="296.7773" y="-202.8" font-family="Times,serif" font-size="14.00" fill="#000000">memberships</text>
</g>
<!-- User&#45;&gt;Entitlement -->
<g id="edge30" class="edge">
<title>User&#45;&gt;Entitlement</title>
<path fill="none" stroke="#ae130d" d="M470.8951,-321.6919C492.2745,-311.438 521.9739,-297.4702 548.4497,-286 563.2702,-279.5793 579.6281,-272.9129 594.2875,-267.0875"/>
<ellipse fill="none" stroke="#ae130d" cx="467.0209" cy="-323.5559" rx="4" ry="4"/>
<polygon fill="#ae130d" stroke="#ae130d" points="594.3418,-267.0662 605.2958,-267.5772 598.9921,-265.229 603.6424,-263.3919 603.6424,-263.3919 603.6424,-263.3919 598.9921,-265.229 601.989,-259.2067 594.3418,-267.0662 594.3418,-267.0662"/>
</g>
<!-- User&#45;&gt;Attempt -->
<g id="edge31" class="edge">
<title>User&#45;&gt;Attempt</title>
<path fill="none" stroke="#b98b30" d="M406.1346,-333.2505C371.9389,-329.4519 319.3991,-320.555 278.4497,-300 259.0188,-290.2465 255.0246,-284.9827 241.4497,-268 191.4178,-205.4081 178.8909,-185.9242 156.4497,-109 150.4773,-88.5279 148.8499,-64.4299 148.6496,-46.1767"/>
<ellipse fill="none" stroke="#b98b30" cx="410.4363" cy="-333.6972" rx="4" ry="4"/>
<polygon fill="#b98b30" stroke="#b98b30" points="148.6495,-46.1765 153.1745,-36.1878 148.662,-41.1765 148.6746,-36.1765 148.6746,-36.1765 148.6746,-36.1765 148.662,-41.1765 144.1746,-36.1653 148.6495,-46.1765 148.6495,-46.1765"/>
</g>
<!-- IdentityProvider -->
<g id="node30" class="node">
<title>IdentityProvider</title>
<ellipse fill="none" stroke="#000000" cx="924.4497" cy="-336" rx="68.1374" ry="18"/>
<text text-anchor="middle" x="924.4497" y="-331.8" font-family="Times,serif" font-size="14.00" fill="#000000">IdentityProvider</text>
</g>
<!-- IdentityProvider&#45;&gt;Identity -->
<g id="edge38" class="edge">
<title>IdentityProvider&#45;&gt;Identity</title>
<path fill="none" stroke="#c6a934" d="M913.3107,-310.1094C908.8694,-299.7863 903.7518,-287.8913 899.2472,-277.4211"/>
<ellipse fill="none" stroke="#c6a934" cx="915.0221" cy="-314.0872" rx="4" ry="4"/>
<polygon fill="#c6a934" stroke="#c6a934" points="899.1104,-277.1031 899.2919,-266.1387 897.1343,-272.5102 895.1583,-267.9172 895.1583,-267.9172 895.1583,-267.9172 897.1343,-272.5102 891.0246,-269.6957 899.1104,-277.1031 899.1104,-277.1031"/>
</g>
</g>
</svg>
