<?xml version="1.0" encoding="UTF-8" standalone="no"?>
<!DOCTYPE svg PUBLIC "-//W3C//DTD SVG 1.1//EN"
 "http://www.w3.org/Graphics/SVG/1.1/DTD/svg11.dtd">
<!-- Generated by graphviz version 2.44.1 (20200629.0846)
 -->
<!-- Title: models_diagram Pages: 1 -->
<svg width="2138pt" height="493pt"
 viewBox="0.00 0.00 2137.55 493.00" xmlns="http://www.w3.org/2000/svg" xmlns:xlink="http://www.w3.org/1999/xlink">
<g id="graph0" class="graph" transform="scale(1 1) rotate(0) translate(4 489)">
<title>models_diagram</title>
<polygon fill="transparent" stroke="transparent" points="-4,4 -4,-489 2133.55,-489 2133.55,4 -4,4"/>
<!-- _diagram_info -->
<g id="node1" class="node">
<title>_diagram_info</title>
<text text-anchor="start" x="8" y="-470.6" font-family="Times,serif" font-size="13.00">Models diagram</text>
<text text-anchor="start" x="8" y="-456.6" font-family="Times,serif" font-size="13.00">Date: Nov 17 2020 &#45; 12:38</text>
<text text-anchor="start" x="8" y="-442.6" font-family="Times,serif" font-size="13.00">Migration version: 20190822153930</text>
<text text-anchor="start" x="8" y="-428.6" font-family="Times,serif" font-size="13.00">Generated by RailRoady 1.5.3</text>
<text text-anchor="start" x="8" y="-414.6" font-family="Times,serif" font-size="13.00">http://railroady.prestonlee.com</text>
</g>
<!-- Identity -->
<g id="node2" class="node">
<title>Identity</title>
<ellipse fill="none" stroke="black" cx="897" cy="-251" rx="38.19" ry="18"/>
<text text-anchor="middle" x="897" y="-247.3" font-family="Times,serif" font-size="14.00">Identity</text>
</g>
<!-- JsonWebToken -->
<g id="node16" class="node">
<title>JsonWebToken</title>
<ellipse fill="none" stroke="black" cx="897" cy="-164" rx="65.79" ry="18"/>
<text text-anchor="middle" x="897" y="-160.3" font-family="Times,serif" font-size="14.00">JsonWebToken</text>
</g>
<!-- Identity&#45;&gt;JsonWebToken -->
<g id="edge1" class="edge">
<title>Identity&#45;&gt;JsonWebToken</title>
<path fill="none" stroke="#21c8f6" d="M897,-224.69C897,-214.51 897,-202.75 897,-192.37"/>
<ellipse fill="none" stroke="#21c8f6" cx="897" cy="-228.8" rx="4" ry="4"/>
<polygon fill="#21c8f6" stroke="#21c8f6" points="897,-192.18 901.5,-182.18 897,-187.18 897,-182.18 897,-182.18 897,-182.18 897,-187.18 892.5,-182.18 897,-192.18 897,-192.18"/>
</g>
<!-- Screenshot -->
<g id="node3" class="node">
<title>Screenshot</title>
<ellipse fill="none" stroke="black" cx="976" cy="-446" rx="49.29" ry="18"/>
<text text-anchor="middle" x="976" y="-442.3" font-family="Times,serif" font-size="14.00">Screenshot</text>
</g>
<!-- Appointment -->
<g id="node4" class="node">
<title>Appointment</title>
<ellipse fill="none" stroke="black" cx="231" cy="-91" rx="57.69" ry="18"/>
<text text-anchor="middle" x="231" y="-87.3" font-family="Times,serif" font-size="14.00">Appointment</text>
</g>
<!-- Parameter -->
<g id="node5" class="node">
<title>Parameter</title>
<ellipse fill="none" stroke="black" cx="1300" cy="-251" rx="46.59" ry="18"/>
<text text-anchor="middle" x="1300" y="-247.3" font-family="Times,serif" font-size="14.00">Parameter</text>
</g>
<!-- Voucher -->
<g id="node6" class="node">
<title>Voucher</title>
<ellipse fill="none" stroke="black" cx="729" cy="-164" rx="40.09" ry="18"/>
<text text-anchor="middle" x="729" y="-160.3" font-family="Times,serif" font-size="14.00">Voucher</text>
</g>
<!-- Dependency -->
<g id="node7" class="node">
<title>Dependency</title>
<ellipse fill="none" stroke="black" cx="1076" cy="-338" rx="54.69" ry="18"/>
<text text-anchor="middle" x="1076" y="-334.3" font-family="Times,serif" font-size="14.00">Dependency</text>
</g>
<!-- Surrogate -->
<g id="node8" class="node">
<title>Surrogate</title>
<ellipse fill="none" stroke="black" cx="1193" cy="-338" rx="44.69" ry="18"/>
<text text-anchor="middle" x="1193" y="-334.3" font-family="Times,serif" font-size="14.00">Surrogate</text>
</g>
<!-- License -->
<g id="node9" class="node">
<title>License</title>
<ellipse fill="none" stroke="black" cx="689" cy="-446" rx="38.19" ry="18"/>
<text text-anchor="middle" x="689" y="-442.3" font-family="Times,serif" font-size="14.00">License</text>
</g>
<!-- Product -->
<g id="node10" class="node">
<title>Product</title>
<ellipse fill="none" stroke="black" cx="541" cy="-251" rx="38.19" ry="18"/>
<text text-anchor="middle" x="541" y="-247.3" font-family="Times,serif" font-size="14.00">Product</text>
</g>
<!-- License&#45;&gt;Product -->
<g id="edge2" class="edge">
<title>License&#45;&gt;Product</title>
<path fill="none" stroke="#49b1c6" d="M661.2,-423.98C629.69,-398.61 579.19,-352.95 552,-302 548.26,-294.99 545.79,-286.78 544.16,-279.07"/>
<polygon fill="#49b1c6" stroke="#49b1c6" points="661.32,-424.08 666.37,-433.82 665.24,-427.18 669.16,-430.29 669.16,-430.29 669.16,-430.29 665.24,-427.18 671.95,-426.76 661.32,-424.08 661.32,-424.08"/>
<polygon fill="#49b1c6" stroke="#49b1c6" points="544.12,-278.86 546.85,-268.24 543.27,-273.93 542.42,-269.01 542.42,-269.01 542.42,-269.01 543.27,-273.93 537.98,-269.77 544.12,-278.86 544.12,-278.86"/>
</g>
<!-- ProductLicense -->
<g id="node15" class="node">
<title>ProductLicense</title>
<ellipse fill="none" stroke="black" cx="783" cy="-338" rx="65.79" ry="18"/>
<text text-anchor="middle" x="783" y="-334.3" font-family="Times,serif" font-size="14.00">ProductLicense</text>
</g>
<!-- License&#45;&gt;ProductLicense -->
<g id="edge4" class="edge">
<title>License&#45;&gt;ProductLicense</title>
<path fill="none" stroke="#fdf989" d="M708.75,-422.73C724.16,-405.35 745.55,-381.23 761.42,-363.34"/>
<ellipse fill="none" stroke="#fdf989" cx="705.93" cy="-425.91" rx="4" ry="4"/>
<polygon fill="#fdf989" stroke="#fdf989" points="761.64,-363.08 771.65,-358.59 764.96,-359.34 768.28,-355.6 768.28,-355.6 768.28,-355.6 764.96,-359.34 764.91,-352.62 761.64,-363.08 761.64,-363.08"/>
</g>
<!-- Entitlement -->
<g id="node24" class="node">
<title>Entitlement</title>
<ellipse fill="none" stroke="black" cx="649" cy="-251" rx="51.99" ry="18"/>
<text text-anchor="middle" x="649" y="-247.3" font-family="Times,serif" font-size="14.00">Entitlement</text>
</g>
<!-- License&#45;&gt;Entitlement -->
<g id="edge3" class="edge">
<title>License&#45;&gt;Entitlement</title>
<path fill="none" stroke="#2ca3ef" d="M691.25,-419.3C693.09,-387.19 693.08,-331.1 676,-287 674.62,-283.43 672.74,-279.92 670.63,-276.58"/>
<ellipse fill="none" stroke="#2ca3ef" cx="690.96" cy="-423.7" rx="4" ry="4"/>
<polygon fill="#2ca3ef" stroke="#2ca3ef" points="670.46,-276.35 668.28,-265.6 667.54,-272.29 664.62,-268.23 664.62,-268.23 664.62,-268.23 667.54,-272.29 660.97,-270.85 670.46,-276.35 670.46,-276.35"/>
</g>
<!-- Group -->
<g id="node11" class="node">
<title>Group</title>
<ellipse fill="none" stroke="black" cx="418" cy="-164" rx="33.29" ry="18"/>
<text text-anchor="middle" x="418" y="-160.3" font-family="Times,serif" font-size="14.00">Group</text>
</g>
<!-- Group&#45;&gt;Appointment -->
<g id="edge7" class="edge">
<title>Group&#45;&gt;Appointment</title>
<path fill="none" stroke="#9deb5c" d="M384.62,-149.39C381.71,-148.23 378.8,-147.09 376,-146 342.96,-133.16 305.46,-119.22 276.88,-108.71"/>
<ellipse fill="none" stroke="#9deb5c" cx="388.57" cy="-150.97" rx="4" ry="4"/>
<polygon fill="#9deb5c" stroke="#9deb5c" points="276.55,-108.59 268.71,-100.92 271.85,-106.87 267.16,-105.15 267.16,-105.15 267.16,-105.15 271.85,-106.87 265.61,-109.37 276.55,-108.59 276.55,-108.59"/>
</g>
<!-- Claim -->
<g id="node13" class="node">
<title>Claim</title>
<ellipse fill="none" stroke="black" cx="469" cy="-91" rx="32.49" ry="18"/>
<text text-anchor="middle" x="469" y="-87.3" font-family="Times,serif" font-size="14.00">Claim</text>
</g>
<!-- Group&#45;&gt;Claim -->
<g id="edge8" class="edge">
<title>Group&#45;&gt;Claim</title>
<path fill="none" stroke="#46ca7d" d="M434.32,-140.28C439.74,-132.74 445.8,-124.3 451.31,-116.62"/>
<ellipse fill="none" stroke="#46ca7d" cx="431.91" cy="-143.64" rx="4" ry="4"/>
<polygon fill="#46ca7d" stroke="#46ca7d" points="451.64,-116.17 461.13,-110.67 454.56,-112.11 457.47,-108.05 457.47,-108.05 457.47,-108.05 454.56,-112.11 453.82,-105.42 451.64,-116.17 451.64,-116.17"/>
</g>
<!-- Member -->
<g id="node14" class="node">
<title>Member</title>
<ellipse fill="none" stroke="black" cx="367" cy="-91" rx="41.69" ry="18"/>
<text text-anchor="middle" x="367" y="-87.3" font-family="Times,serif" font-size="14.00">Member</text>
</g>
<!-- Group&#45;&gt;Member -->
<g id="edge5" class="edge">
<title>Group&#45;&gt;Member</title>
<path fill="none" stroke="#2ac8df" d="M401.75,-140.38C396.41,-132.95 390.45,-124.65 384.99,-117.05"/>
<ellipse fill="none" stroke="#2ac8df" cx="404.09" cy="-143.64" rx="4" ry="4"/>
<polygon fill="#2ac8df" stroke="#2ac8df" points="384.71,-116.66 382.54,-105.91 381.8,-112.6 378.88,-108.54 378.88,-108.54 378.88,-108.54 381.8,-112.6 375.23,-111.17 384.71,-116.66 384.71,-116.66"/>
</g>
<!-- User -->
<g id="node29" class="node">
<title>User</title>
<ellipse fill="none" stroke="black" cx="451" cy="-338" rx="27.1" ry="18"/>
<text text-anchor="middle" x="451" y="-334.3" font-family="Times,serif" font-size="14.00">User</text>
</g>
<!-- Group&#45;&gt;User -->
<g id="edge6" class="edge">
<title>Group&#45;&gt;User</title>
<path fill="none" stroke="#22c99a" d="M423.19,-192.07C429.35,-224.18 439.57,-277.41 445.75,-309.64"/>
<polygon fill="#22c99a" stroke="#22c99a" points="423.16,-191.87 425.69,-181.2 422.21,-186.96 421.27,-182.05 421.27,-182.05 421.27,-182.05 422.21,-186.96 416.85,-182.9 423.16,-191.87 423.16,-191.87"/>
<polygon fill="#22c99a" stroke="#22c99a" points="445.83,-310.06 443.3,-320.73 446.77,-314.97 447.72,-319.88 447.72,-319.88 447.72,-319.88 446.77,-314.97 452.13,-319.03 445.83,-310.06 445.83,-310.06"/>
</g>
<!-- Platform -->
<g id="node12" class="node">
<title>Platform</title>
<ellipse fill="none" stroke="black" cx="367" cy="-251" rx="42.49" ry="18"/>
<text text-anchor="middle" x="367" y="-247.3" font-family="Times,serif" font-size="14.00">Platform</text>
</g>
<!-- Instance -->
<g id="node26" class="node">
<title>Instance</title>
<ellipse fill="none" stroke="black" cx="327" cy="-164" rx="40.09" ry="18"/>
<text text-anchor="middle" x="327" y="-160.3" font-family="Times,serif" font-size="14.00">Instance</text>
</g>
<!-- Platform&#45;&gt;Instance -->
<g id="edge9" class="edge">
<title>Platform&#45;&gt;Instance</title>
<path fill="none" stroke="#1fb1f6" d="M355.6,-225.78C350.48,-214.89 344.43,-202.03 339.21,-190.95"/>
<ellipse fill="none" stroke="#1fb1f6" cx="357.39" cy="-229.59" rx="4" ry="4"/>
<polygon fill="#1fb1f6" stroke="#1fb1f6" points="339.14,-190.81 338.96,-179.84 337.02,-186.28 334.89,-181.76 334.89,-181.76 334.89,-181.76 337.02,-186.28 330.81,-183.67 339.14,-190.81 339.14,-190.81"/>
</g>
<!-- Attempt -->
<g id="node28" class="node">
<title>Attempt</title>
<ellipse fill="none" stroke="black" cx="157" cy="-18" rx="40.09" ry="18"/>
<text text-anchor="middle" x="157" y="-14.3" font-family="Times,serif" font-size="14.00">Attempt</text>
</g>
<!-- Claim&#45;&gt;Attempt -->
<g id="edge10" class="edge">
<title>Claim&#45;&gt;Attempt</title>
<path fill="none" stroke="#11a7d2" d="M434.54,-77.9C429.04,-76.15 423.39,-74.45 418,-73 344.06,-53.1 256.67,-36.37 204.1,-27.02"/>
<ellipse fill="none" stroke="#11a7d2" cx="438.64" cy="-79.25" rx="4" ry="4"/>
<polygon fill="#11a7d2" stroke="#11a7d2" points="203.91,-26.99 194.84,-20.82 198.99,-26.12 194.06,-25.25 194.06,-25.25 194.06,-25.25 198.99,-26.12 193.28,-29.68 203.91,-26.99 203.91,-26.99"/>
</g>
<!-- ProductLicense&#45;&gt;Voucher -->
<g id="edge12" class="edge">
<title>ProductLicense&#45;&gt;Voucher</title>
<path fill="none" stroke="#23c130" d="M776.48,-311.99C769.09,-284.35 756.33,-238.63 743,-200 742.04,-197.22 740.98,-194.33 739.9,-191.46"/>
<ellipse fill="none" stroke="#23c130" cx="777.57" cy="-316.1" rx="4" ry="4"/>
<polygon fill="#23c130" stroke="#23c130" points="739.82,-191.27 740.36,-180.32 738,-186.62 736.17,-181.97 736.17,-181.97 736.17,-181.97 738,-186.62 731.98,-183.61 739.82,-191.27 739.82,-191.27"/>
</g>
<!-- ProductLicense&#45;&gt;Entitlement -->
<g id="edge11" class="edge">
<title>ProductLicense&#45;&gt;Entitlement</title>
<path fill="none" stroke="#d302c8" d="M751.26,-316.86C730.22,-303.52 702.7,-286.07 681.51,-272.62"/>
<ellipse fill="none" stroke="#d302c8" cx="754.73" cy="-319.07" rx="4" ry="4"/>
<polygon fill="#d302c8" stroke="#d302c8" points="681.3,-272.49 675.27,-263.33 677.08,-269.81 672.86,-267.13 672.86,-267.13 672.86,-267.13 677.08,-269.81 670.45,-270.93 681.3,-272.49 681.3,-272.49"/>
</g>
<!-- Badge -->
<g id="node17" class="node">
<title>Badge</title>
<ellipse fill="none" stroke="black" cx="1495" cy="-446" rx="33.29" ry="18"/>
<text text-anchor="middle" x="1495" y="-442.3" font-family="Times,serif" font-size="14.00">Badge</text>
</g>
<!-- Badge&#45;&gt;Badge -->
<g id="edge13" class="edge">
<title>Badge&#45;&gt;Badge</title>
<path fill="none" stroke="#6b0d34" d="M1530.77,-457.82C1539.58,-456.96 1546.15,-453.02 1546.15,-446 1546.15,-438.98 1539.58,-435.04 1530.77,-434.18"/>
<polygon fill="#6b0d34" stroke="#6b0d34" points="1530.52,-457.81 1520.65,-453.04 1525.53,-457.68 1520.53,-457.54 1520.53,-457.54 1520.53,-457.54 1525.53,-457.68 1520.4,-462.04 1530.52,-457.81 1530.52,-457.81"/>
<polygon fill="#6b0d34" stroke="#6b0d34" points="1530.52,-434.19 1520.4,-429.96 1525.53,-434.32 1520.53,-434.46 1520.53,-434.46 1520.53,-434.46 1525.53,-434.32 1520.65,-438.96 1530.52,-434.19 1530.52,-434.19"/>
</g>
<!-- Role -->
<g id="node18" class="node">
<title>Role</title>
<ellipse fill="none" stroke="black" cx="259" cy="-446" rx="27.1" ry="18"/>
<text text-anchor="middle" x="259" y="-442.3" font-family="Times,serif" font-size="14.00">Role</text>
</g>
<!-- Role&#45;&gt;Appointment -->
<g id="edge14" class="edge">
<title>Role&#45;&gt;Appointment</title>
<path fill="none" stroke="#332238" d="M240.25,-423.9C218.2,-397.56 182.87,-350.07 169,-302 149.78,-235.39 189.41,-157.1 213.8,-117.59"/>
<ellipse fill="none" stroke="#332238" cx="242.95" cy="-427.09" rx="4" ry="4"/>
<polygon fill="#332238" stroke="#332238" points="213.98,-117.3 223.13,-111.26 216.65,-113.08 219.33,-108.86 219.33,-108.86 219.33,-108.86 216.65,-113.08 215.53,-106.45 213.98,-117.3 213.98,-117.3"/>
</g>
<!-- Role&#45;&gt;Group -->
<g id="edge16" class="edge">
<title>Role&#45;&gt;Group</title>
<path fill="none" stroke="#40111e" d="M260.26,-417.9C263.5,-374.91 275.01,-290.08 316,-233 325.55,-219.7 360.46,-197.82 386.81,-182.49"/>
<polygon fill="#40111e" stroke="#40111e" points="260.26,-417.91 255.12,-427.6 259.94,-422.9 259.61,-427.89 259.61,-427.89 259.61,-427.89 259.94,-422.9 264.1,-428.19 260.26,-417.91 260.26,-417.91"/>
<polygon fill="#40111e" stroke="#40111e" points="387.04,-182.35 397.96,-181.26 391.38,-179.85 395.71,-177.36 395.71,-177.36 395.71,-177.36 391.38,-179.85 393.46,-173.46 387.04,-182.35 387.04,-182.35"/>
</g>
<!-- Role&#45;&gt;User -->
<g id="edge15" class="edge">
<title>Role&#45;&gt;User</title>
<path fill="none" stroke="#5fb301" d="M288.04,-428.97C324.16,-409.03 385.49,-375.17 421.72,-355.16"/>
<polygon fill="#5fb301" stroke="#5fb301" points="287.94,-429.02 277.01,-429.92 283.56,-431.44 279.18,-433.86 279.18,-433.86 279.18,-433.86 283.56,-431.44 281.36,-437.8 287.94,-429.02 287.94,-429.02"/>
<polygon fill="#5fb301" stroke="#5fb301" points="422.04,-354.99 432.97,-354.09 426.42,-352.57 430.8,-350.15 430.8,-350.15 430.8,-350.15 426.42,-352.57 428.62,-346.21 422.04,-354.99 422.04,-354.99"/>
</g>
<!-- Interface -->
<g id="node19" class="node">
<title>Interface</title>
<ellipse fill="none" stroke="black" cx="1266" cy="-446" rx="42.49" ry="18"/>
<text text-anchor="middle" x="1266" y="-442.3" font-family="Times,serif" font-size="14.00">Interface</text>
</g>
<!-- Interface&#45;&gt;Dependency -->
<g id="edge22" class="edge">
<title>Interface&#45;&gt;Dependency</title>
<path fill="none" stroke="#a80baf" d="M1234.11,-427.21C1200.26,-408.32 1146.88,-378.55 1111.66,-358.9"/>
<ellipse fill="none" stroke="#a80baf" cx="1237.67" cy="-429.19" rx="4" ry="4"/>
<polygon fill="#a80baf" stroke="#a80baf" points="1111.41,-358.76 1104.87,-349.96 1107.05,-356.32 1102.68,-353.89 1102.68,-353.89 1102.68,-353.89 1107.05,-356.32 1100.49,-357.82 1111.41,-358.76 1111.41,-358.76"/>
</g>
<!-- Interface&#45;&gt;Surrogate -->
<g id="edge17" class="edge">
<title>Interface&#45;&gt;Surrogate</title>
<path fill="none" stroke="#40c254" d="M1232.02,-427.6C1217.56,-418.27 1202.18,-405.3 1194,-389 1190.52,-382.06 1189.35,-373.88 1189.3,-366.16"/>
<ellipse fill="none" stroke="#40c254" cx="1235.6" cy="-429.8" rx="4" ry="4"/>
<polygon fill="#40c254" stroke="#40c254" points="1189.3,-366.07 1194.31,-356.31 1189.56,-361.08 1189.81,-356.08 1189.81,-356.08 1189.81,-356.08 1189.56,-361.08 1185.32,-355.85 1189.3,-366.07 1189.3,-366.07"/>
<text text-anchor="middle" x="1223" y="-377.8" font-family="Times,serif" font-size="14.00">substitutes</text>
</g>
<!-- Interface&#45;&gt;Surrogate -->
<g id="edge18" class="edge">
<title>Interface&#45;&gt;Surrogate</title>
<path fill="none" stroke="#2ada54" d="M1266,-419.88C1264.86,-405.32 1261.39,-387.3 1252,-374 1247.01,-366.94 1240.11,-361.07 1232.78,-356.28"/>
<ellipse fill="none" stroke="#2ada54" cx="1266.22" cy="-424" rx="4" ry="4"/>
<polygon fill="#2ada54" stroke="#2ada54" points="1232.68,-356.22 1226.35,-347.27 1228.37,-353.69 1224.06,-351.15 1224.06,-351.15 1224.06,-351.15 1228.37,-353.69 1221.78,-355.03 1232.68,-356.22 1232.68,-356.22"/>
</g>
<!-- Interface&#45;&gt;Interface -->
<g id="edge20" class="edge">
<title>Interface&#45;&gt;Interface</title>
<path fill="none" stroke="#bde309" d="M1306.37,-457.94C1317.62,-457.39 1326.25,-453.41 1326.25,-446 1326.25,-439.01 1318.59,-435.08 1308.29,-434.19"/>
<ellipse fill="none" stroke="#bde309" cx="1302.23" cy="-457.85" rx="4" ry="4"/>
<polygon fill="#bde309" stroke="#bde309" points="1308.23,-434.19 1298.21,-429.74 1303.23,-434.22 1298.23,-434.24 1298.23,-434.24 1298.23,-434.24 1303.23,-434.22 1298.25,-438.74 1308.23,-434.19 1308.23,-434.19"/>
<text text-anchor="middle" x="1385.25" y="-442.3" font-family="Times,serif" font-size="14.00">substituted_interfaces</text>
</g>
<!-- Exposure -->
<g id="node20" class="node">
<title>Exposure</title>
<ellipse fill="none" stroke="black" cx="1300" cy="-338" rx="44.39" ry="18"/>
<text text-anchor="middle" x="1300" y="-334.3" font-family="Times,serif" font-size="14.00">Exposure</text>
</g>
<!-- Interface&#45;&gt;Exposure -->
<g id="edge21" class="edge">
<title>Interface&#45;&gt;Exposure</title>
<path fill="none" stroke="#6c88e7" d="M1273.93,-420.27C1279.18,-403.91 1286.05,-382.48 1291.43,-365.73"/>
<ellipse fill="none" stroke="#6c88e7" cx="1272.68" cy="-424.16" rx="4" ry="4"/>
<polygon fill="#6c88e7" stroke="#6c88e7" points="1291.5,-365.51 1298.84,-357.36 1293.02,-360.75 1294.55,-355.99 1294.55,-355.99 1294.55,-355.99 1293.02,-360.75 1290.27,-354.61 1291.5,-365.51 1291.5,-365.51"/>
</g>
<!-- SurrogatedInterface -->
<g id="node32" class="node">
<title>SurrogatedInterface</title>
<ellipse fill="none" stroke="black" cx="1443" cy="-338" rx="80.69" ry="18"/>
<text text-anchor="middle" x="1443" y="-334.3" font-family="Times,serif" font-size="14.00">SurrogatedInterface</text>
</g>
<!-- Interface&#45;&gt;SurrogatedInterface -->
<g id="edge19" class="edge">
<title>Interface&#45;&gt;SurrogatedInterface</title>
<path fill="none" stroke="#7a2cad" d="M1298.09,-425.78C1328.99,-407.27 1375.64,-379.34 1407.61,-360.19"/>
<polygon fill="#7a2cad" stroke="#7a2cad" points="1298.08,-425.79 1287.19,-427.06 1293.79,-428.36 1289.5,-430.92 1289.5,-430.92 1289.5,-430.92 1293.79,-428.36 1291.82,-434.78 1298.08,-425.79 1298.08,-425.79"/>
<polygon fill="#7a2cad" stroke="#7a2cad" points="1407.63,-360.18 1418.52,-358.9 1411.92,-357.61 1416.21,-355.04 1416.21,-355.04 1416.21,-355.04 1411.92,-357.61 1413.9,-351.18 1407.63,-360.18 1407.63,-360.18"/>
</g>
<!-- Exposure&#45;&gt;Parameter -->
<g id="edge23" class="edge">
<title>Exposure&#45;&gt;Parameter</title>
<path fill="none" stroke="#10a0aa" d="M1300,-311.69C1300,-301.51 1300,-289.75 1300,-279.37"/>
<ellipse fill="none" stroke="#10a0aa" cx="1300" cy="-315.8" rx="4" ry="4"/>
<polygon fill="#10a0aa" stroke="#10a0aa" points="1300,-279.18 1304.5,-269.18 1300,-274.18 1300,-269.18 1300,-269.18 1300,-269.18 1300,-274.18 1295.5,-269.18 1300,-279.18 1300,-279.18"/>
</g>
<!-- Ability -->
<g id="node21" class="node">
<title>Ability</title>
<polygon fill="none" stroke="black" points="1619.5,-464 1564.5,-464 1564.5,-428 1619.5,-428 1619.5,-464"/>
<text text-anchor="middle" x="1592" y="-442.3" font-family="Times,serif" font-size="14.00">Ability</text>
</g>
<!-- SubProduct -->
<g id="node22" class="node">
<title>SubProduct</title>
<ellipse fill="none" stroke="black" cx="1689" cy="-446" rx="51.99" ry="18"/>
<text text-anchor="middle" x="1689" y="-442.3" font-family="Times,serif" font-size="14.00">SubProduct</text>
</g>
<!-- ApplicationRecord -->
<g id="node23" class="node">
<title>ApplicationRecord</title>
<ellipse fill="none" stroke="black" cx="1836" cy="-446" rx="77.19" ry="18"/>
<text text-anchor="middle" x="1836" y="-442.3" font-family="Times,serif" font-size="14.00">ApplicationRecord</text>
</g>
<!-- Entitlement&#45;&gt;Voucher -->
<g id="edge25" class="edge">
<title>Entitlement&#45;&gt;Voucher</title>
<path fill="none" stroke="#f97dfa" d="M670.1,-227.58C681.48,-215.49 695.51,-200.59 707.02,-188.36"/>
<ellipse fill="none" stroke="#f97dfa" cx="667.17" cy="-230.7" rx="4" ry="4"/>
<polygon fill="#f97dfa" stroke="#f97dfa" points="707.31,-188.05 717.44,-183.85 710.74,-184.4 714.16,-180.76 714.16,-180.76 714.16,-180.76 710.74,-184.4 710.89,-177.68 707.31,-188.05 707.31,-188.05"/>
</g>
<!-- Entitlement&#45;&gt;Group -->
<g id="edge27" class="edge">
<title>Entitlement&#45;&gt;Group</title>
<path fill="none" stroke="#c038bd" d="M600.14,-236.1C570.08,-227.48 536,-217.58 529,-215 502.23,-205.12 472.82,-191.75 451,-181.33"/>
<polygon fill="#c038bd" stroke="#c038bd" points="600.52,-236.21 608.9,-243.28 605.33,-237.58 610.14,-238.96 610.14,-238.96 610.14,-238.96 605.33,-237.58 611.37,-234.63 600.52,-236.21 600.52,-236.21"/>
<polygon fill="#c038bd" stroke="#c038bd" points="450.85,-181.26 443.8,-172.86 446.35,-179.08 441.85,-176.91 441.85,-176.91 441.85,-176.91 446.35,-179.08 439.89,-180.96 450.85,-181.26 450.85,-181.26"/>
<text text-anchor="middle" x="577.5" y="-203.8" font-family="Times,serif" font-size="14.00">group_consumers</text>
</g>
<!-- Entitlement&#45;&gt;Claim -->
<g id="edge24" class="edge">
<title>Entitlement&#45;&gt;Claim</title>
<path fill="none" stroke="#e2ce3a" d="M640.76,-225.34C637.11,-216.73 632.22,-207.39 626,-200 591.24,-158.7 537.01,-126.18 502.25,-108.02"/>
<ellipse fill="none" stroke="#e2ce3a" cx="642.29" cy="-229.24" rx="4" ry="4"/>
<polygon fill="#e2ce3a" stroke="#e2ce3a" points="501.9,-107.84 495.05,-99.27 497.45,-105.56 493,-103.28 493,-103.28 493,-103.28 497.45,-105.56 490.95,-107.29 501.9,-107.84 501.9,-107.84"/>
</g>
<!-- Entitlement&#45;&gt;User -->
<g id="edge26" class="edge">
<title>Entitlement&#45;&gt;User</title>
<path fill="none" stroke="#b370c7" d="M610.15,-270.44C599.9,-275.57 588.93,-281.31 579,-287 568.41,-293.07 566.99,-296.69 556,-302 533.55,-312.84 506.88,-321.69 486.03,-327.77"/>
<polygon fill="#b370c7" stroke="#b370c7" points="610.35,-270.34 621.31,-269.95 614.83,-268.13 619.32,-265.91 619.32,-265.91 619.32,-265.91 614.83,-268.13 617.32,-261.88 610.35,-270.34 610.35,-270.34"/>
<polygon fill="#b370c7" stroke="#b370c7" points="485.93,-327.8 475.08,-326.2 481.12,-329.17 476.32,-330.53 476.32,-330.53 476.32,-330.53 481.12,-329.17 477.55,-334.86 485.93,-327.8 485.93,-327.8"/>
<text text-anchor="middle" x="627.5" y="-290.8" font-family="Times,serif" font-size="14.00">direct_consumers</text>
</g>
<!-- Configuration -->
<g id="node25" class="node">
<title>Configuration</title>
<ellipse fill="none" stroke="black" cx="1991" cy="-446" rx="59.59" ry="18"/>
<text text-anchor="middle" x="1991" y="-442.3" font-family="Times,serif" font-size="14.00">Configuration</text>
</g>
<!-- Task -->
<g id="node31" class="node">
<title>Task</title>
<ellipse fill="none" stroke="black" cx="1991" cy="-338" rx="27.9" ry="18"/>
<text text-anchor="middle" x="1991" y="-334.3" font-family="Times,serif" font-size="14.00">Task</text>
</g>
<!-- Configuration&#45;&gt;Task -->
<g id="edge28" class="edge">
<title>Configuration&#45;&gt;Task</title>
<path fill="none" stroke="#c9adfc" d="M1991,-419.79C1991,-403.74 1991,-382.93 1991,-366.45"/>
<ellipse fill="none" stroke="#c9adfc" cx="1991" cy="-423.97" rx="4" ry="4"/>
<polygon fill="#c9adfc" stroke="#c9adfc" points="1991,-366.34 1995.5,-356.34 1991,-361.34 1991,-356.34 1991,-356.34 1991,-356.34 1991,-361.34 1986.5,-356.34 1991,-366.34 1991,-366.34"/>
</g>
<!-- Build -->
<g id="node27" class="node">
<title>Build</title>
<ellipse fill="none" stroke="black" cx="2099" cy="-446" rx="30.59" ry="18"/>
<text text-anchor="middle" x="2099" y="-442.3" font-family="Times,serif" font-size="14.00">Build</text>
</g>
<!-- User&#45;&gt;Identity -->
<g id="edge35" class="edge">
<title>User&#45;&gt;Identity</title>
<path fill="none" stroke="#5b3071" d="M486.34,-334.99C541.62,-331.35 651.7,-322.09 743,-302 783.38,-293.11 828.19,-277.93 859.02,-266.63"/>
<ellipse fill="none" stroke="#5b3071" cx="482.26" cy="-335.25" rx="4" ry="4"/>
<polygon fill="#5b3071" stroke="#5b3071" points="859.14,-266.58 870.08,-267.32 863.82,-264.84 868.51,-263.1 868.51,-263.1 868.51,-263.1 863.82,-264.84 866.95,-258.88 859.14,-266.58 859.14,-266.58"/>
</g>
<!-- User&#45;&gt;Appointment -->
<g id="edge34" class="edge">
<title>User&#45;&gt;Appointment</title>
<path fill="none" stroke="#c502fa" d="M415.75,-334.61C373.9,-329.71 305.55,-314.73 272,-269 238.97,-223.98 232.02,-156.58 230.87,-119.29"/>
<ellipse fill="none" stroke="#c502fa" cx="419.77" cy="-335.04" rx="4" ry="4"/>
<polygon fill="#c502fa" stroke="#c502fa" points="230.87,-119.17 235.18,-109.09 230.77,-114.17 230.68,-109.17 230.68,-109.17 230.68,-109.17 230.77,-114.17 226.18,-109.26 230.87,-119.17 230.87,-119.17"/>
</g>
<!-- User&#45;&gt;Voucher -->
<g id="edge32" class="edge">
<title>User&#45;&gt;Voucher</title>
<path fill="none" stroke="#6cab0b" d="M486.51,-334.47C542.22,-330.03 647.22,-319.58 680,-302 718.57,-281.31 727.37,-225.88 729.04,-192.21"/>
<ellipse fill="none" stroke="#6cab0b" cx="482.32" cy="-334.8" rx="4" ry="4"/>
<polygon fill="#6cab0b" stroke="#6cab0b" points="729.04,-192.1 733.86,-182.25 729.2,-187.11 729.36,-182.11 729.36,-182.11 729.36,-182.11 729.2,-187.11 724.86,-181.97 729.04,-192.1 729.04,-192.1"/>
</g>
<!-- User&#45;&gt;Product -->
<g id="edge37" class="edge">
<title>User&#45;&gt;Product</title>
<path fill="none" stroke="#e2ec6d" d="M472.34,-316.85C485.89,-304.05 503.44,-287.48 517.4,-274.29"/>
<ellipse fill="none" stroke="#e2ec6d" cx="469.18" cy="-319.83" rx="4" ry="4"/>
<polygon fill="#e2ec6d" stroke="#e2ec6d" points="517.47,-274.22 527.83,-270.62 521.11,-270.79 524.74,-267.35 524.74,-267.35 524.74,-267.35 521.11,-270.79 521.65,-264.08 517.47,-274.22 517.47,-274.22"/>
</g>
<!-- User&#45;&gt;Platform -->
<g id="edge36" class="edge">
<title>User&#45;&gt;Platform</title>
<path fill="none" stroke="#177cd6" d="M430.77,-316.53C418.44,-304.05 402.66,-288.08 389.88,-275.15"/>
<ellipse fill="none" stroke="#177cd6" cx="433.94" cy="-319.74" rx="4" ry="4"/>
<polygon fill="#177cd6" stroke="#177cd6" points="389.78,-275.05 385.95,-264.77 386.27,-271.49 382.75,-267.94 382.75,-267.94 382.75,-267.94 386.27,-271.49 379.55,-271.1 389.78,-275.05 389.78,-275.05"/>
</g>
<!-- User&#45;&gt;Claim -->
<g id="edge33" class="edge">
<title>User&#45;&gt;Claim</title>
<path fill="none" stroke="#aaa2f0" d="M454.83,-311.89C455.27,-308.57 455.67,-305.21 456,-302 462.69,-236.59 466.4,-159.34 468.01,-119.24"/>
<ellipse fill="none" stroke="#aaa2f0" cx="454.27" cy="-315.98" rx="4" ry="4"/>
<polygon fill="#aaa2f0" stroke="#aaa2f0" points="468.01,-119.18 472.9,-109.36 468.21,-114.18 468.4,-109.19 468.4,-109.19 468.4,-109.19 468.21,-114.18 463.91,-109.01 468.01,-119.18 468.01,-119.18"/>
</g>
<!-- User&#45;&gt;Member -->
<g id="edge29" class="edge">
<title>User&#45;&gt;Member</title>
<path fill="none" stroke="#2e502f" d="M417.96,-327.96C372.04,-313.24 291.74,-279.09 267,-215 259.69,-196.08 267.16,-161.41 278,-146 289.93,-129.04 309.05,-116.43 326.52,-107.69"/>
<ellipse fill="none" stroke="#2e502f" cx="422.03" cy="-329.22" rx="4" ry="4"/>
<polygon fill="#2e502f" stroke="#2e502f" points="326.94,-107.48 337.91,-107.29 331.47,-105.35 335.99,-103.22 335.99,-103.22 335.99,-103.22 331.47,-105.35 334.07,-99.15 326.94,-107.48 326.94,-107.48"/>
<text text-anchor="middle" x="304" y="-203.8" font-family="Times,serif" font-size="14.00">memberships</text>
</g>
<!-- User&#45;&gt;Entitlement -->
<g id="edge30" class="edge">
<title>User&#45;&gt;Entitlement</title>
<path fill="none" stroke="#22a2f3" d="M479.6,-323.16C501.25,-312.84 531.79,-298.58 559,-287 574.06,-280.59 590.72,-273.98 605.57,-268.26"/>
<ellipse fill="none" stroke="#22a2f3" cx="475.95" cy="-324.91" rx="4" ry="4"/>
<polygon fill="#22a2f3" stroke="#22a2f3" points="605.7,-268.21 616.64,-268.83 610.37,-266.42 615.03,-264.63 615.03,-264.63 615.03,-264.63 610.37,-266.42 613.42,-260.43 605.7,-268.21 605.7,-268.21"/>
</g>
<!-- User&#45;&gt;Attempt -->
<g id="edge31" class="edge">
<title>User&#45;&gt;Attempt</title>
<path fill="none" stroke="#e9aa6b" d="M415.49,-334.76C380.83,-331.39 327.43,-322.97 286,-302 266.34,-292.05 262.6,-286.33 249,-269 199.29,-205.66 186.48,-186.32 164,-109 158.07,-88.59 156.45,-64.55 156.25,-46.45"/>
<ellipse fill="none" stroke="#e9aa6b" cx="419.89" cy="-335.16" rx="4" ry="4"/>
<polygon fill="#e9aa6b" stroke="#e9aa6b" points="156.25,-46.29 160.78,-36.3 156.26,-41.29 156.28,-36.29 156.28,-36.29 156.28,-36.29 156.26,-41.29 151.78,-36.28 156.25,-46.29 156.25,-46.29"/>
</g>
<!-- IdentityProvider -->
<g id="node30" class="node">
<title>IdentityProvider</title>
<ellipse fill="none" stroke="black" cx="935" cy="-338" rx="68.49" ry="18"/>
<text text-anchor="middle" x="935" y="-334.3" font-family="Times,serif" font-size="14.00">IdentityProvider</text>
</g>
<!-- IdentityProvider&#45;&gt;Identity -->
<g id="edge38" class="edge">
<title>IdentityProvider&#45;&gt;Identity</title>
<path fill="none" stroke="#ae2576" d="M924.01,-312.42C919.23,-301.73 913.62,-289.18 908.76,-278.31"/>
<ellipse fill="none" stroke="#ae2576" cx="925.68" cy="-316.15" rx="4" ry="4"/>
<polygon fill="#ae2576" stroke="#ae2576" points="908.63,-278.01 908.66,-267.05 906.59,-273.45 904.55,-268.89 904.55,-268.89 904.55,-268.89 906.59,-273.45 900.44,-270.72 908.63,-278.01 908.63,-278.01"/>
</g>
</g>
</svg>
