<?xml version="1.0" encoding="UTF-8" standalone="no"?>
<!DOCTYPE svg PUBLIC "-//W3C//DTD SVG 1.1//EN"
 "http://www.w3.org/Graphics/SVG/1.1/DTD/svg11.dtd">
<!-- Generated by graphviz version 2.40.1 (20161225.0304)
 -->
<!-- Title: models_diagram Pages: 1 -->
<svg width="1155pt" height="580pt"
 viewBox="0.00 0.00 1154.77 580.00" xmlns="http://www.w3.org/2000/svg" xmlns:xlink="http://www.w3.org/1999/xlink">
<g id="graph0" class="graph" transform="scale(1 1) rotate(0) translate(4 576)">
<title>models_diagram</title>
<polygon fill="transparent" stroke="transparent" points="-4,4 -4,-576 1150.7731,-576 1150.7731,4 -4,4"/>
<!-- _diagram_info -->
<g id="node1" class="node">
<title>_diagram_info</title>
<text text-anchor="start" x="8" y="-557.6" font-family="Times,serif" font-size="13.00" fill="#000000">Models diagram</text>
<text text-anchor="start" x="8" y="-544.6" font-family="Times,serif" font-size="13.00" fill="#000000">Date: Jan 10 2019 &#45; 10:17</text>
<text text-anchor="start" x="8" y="-531.6" font-family="Times,serif" font-size="13.00" fill="#000000">Migration version: 20181129063220</text>
<text text-anchor="start" x="8" y="-518.6" font-family="Times,serif" font-size="13.00" fill="#000000">Generated by RailRoady 1.5.3</text>
<text text-anchor="start" x="8" y="-505.6" font-family="Times,serif" font-size="13.00" fill="#000000">http://railroady.prestonlee.com</text>
</g>
<!-- Identity -->
<g id="node2" class="node">
<title>Identity</title>
<ellipse fill="none" stroke="#000000" cx="473.4497" cy="-285" rx="37.7266" ry="18"/>
<text text-anchor="middle" x="473.4497" y="-280.8" font-family="Times,serif" font-size="14.00" fill="#000000">Identity</text>
</g>
<!-- JsonWebToken -->
<g id="node12" class="node">
<title>JsonWebToken</title>
<ellipse fill="none" stroke="#000000" cx="473.4497" cy="-177" rx="63.5968" ry="18"/>
<text text-anchor="middle" x="473.4497" y="-172.8" font-family="Times,serif" font-size="14.00" fill="#000000">JsonWebToken</text>
</g>
<!-- Identity&#45;&gt;JsonWebToken -->
<g id="edge1" class="edge">
<title>Identity&#45;&gt;JsonWebToken</title>
<path fill="none" stroke="#5828aa" d="M473.4497,-258.4153C473.4497,-242.2464 473.4497,-221.6143 473.4497,-205.166"/>
<ellipse fill="none" stroke="#5828aa" cx="473.4498" cy="-262.6793" rx="4" ry="4"/>
<polygon fill="#5828aa" stroke="#5828aa" points="473.4498,-205.0502 477.9497,-195.0501 473.4498,-200.0502 473.4497,-195.0502 473.4497,-195.0502 473.4497,-195.0502 473.4498,-200.0502 468.9497,-195.0502 473.4498,-205.0502 473.4498,-205.0502"/>
</g>
<!-- Screenshot -->
<g id="node3" class="node">
<title>Screenshot</title>
<ellipse fill="none" stroke="#000000" cx="604.4497" cy="-177" rx="48.8187" ry="18"/>
<text text-anchor="middle" x="604.4497" y="-172.8" font-family="Times,serif" font-size="14.00" fill="#000000">Screenshot</text>
</g>
<!-- Appointment -->
<g id="node4" class="node">
<title>Appointment</title>
<ellipse fill="none" stroke="#000000" cx="196.4497" cy="-285" rx="56.5545" ry="18"/>
<text text-anchor="middle" x="196.4497" y="-280.8" font-family="Times,serif" font-size="14.00" fill="#000000">Appointment</text>
</g>
<!-- Parameter -->
<g id="node5" class="node">
<title>Parameter</title>
<ellipse fill="none" stroke="#000000" cx="817.4497" cy="-18" rx="45.9028" ry="18"/>
<text text-anchor="middle" x="817.4497" y="-13.8" font-family="Times,serif" font-size="14.00" fill="#000000">Parameter</text>
</g>
<!-- Dependency -->
<g id="node6" class="node">
<title>Dependency</title>
<ellipse fill="none" stroke="#000000" cx="701.4497" cy="-91" rx="54.1058" ry="18"/>
<text text-anchor="middle" x="701.4497" y="-86.8" font-family="Times,serif" font-size="14.00" fill="#000000">Dependency</text>
</g>
<!-- Surrogate -->
<g id="node7" class="node">
<title>Surrogate</title>
<ellipse fill="none" stroke="#000000" cx="923.4497" cy="-91" rx="44.475" ry="18"/>
<text text-anchor="middle" x="923.4497" y="-86.8" font-family="Times,serif" font-size="14.00" fill="#000000">Surrogate</text>
</g>
<!-- License -->
<g id="node8" class="node">
<title>License</title>
<ellipse fill="none" stroke="#000000" cx="604.4497" cy="-371" rx="37.7092" ry="18"/>
<text text-anchor="middle" x="604.4497" y="-366.8" font-family="Times,serif" font-size="14.00" fill="#000000">License</text>
</g>
<!-- Service -->
<g id="node21" class="node">
<title>Service</title>
<ellipse fill="none" stroke="#000000" cx="604.4497" cy="-285" rx="36.7489" ry="18"/>
<text text-anchor="middle" x="604.4497" y="-280.8" font-family="Times,serif" font-size="14.00" fill="#000000">Service</text>
</g>
<!-- License&#45;&gt;Service -->
<g id="edge2" class="edge">
<title>License&#45;&gt;Service</title>
<path fill="none" stroke="#d9d2a7" d="M604.4497,-344.4021C604.4497,-334.585 604.4497,-323.4263 604.4497,-313.4515"/>
<ellipse fill="none" stroke="#d9d2a7" cx="604.4498" cy="-348.7616" rx="4" ry="4"/>
<polygon fill="#d9d2a7" stroke="#d9d2a7" points="604.4498,-313.2121 608.9497,-303.2121 604.4498,-308.2121 604.4497,-303.2121 604.4497,-303.2121 604.4497,-303.2121 604.4498,-308.2121 599.9497,-303.2121 604.4498,-313.2121 604.4498,-313.2121"/>
</g>
<!-- Group -->
<g id="node9" class="node">
<title>Group</title>
<ellipse fill="none" stroke="#000000" cx="251.4497" cy="-444" rx="32.9081" ry="18"/>
<text text-anchor="middle" x="251.4497" y="-439.8" font-family="Times,serif" font-size="14.00" fill="#000000">Group</text>
</g>
<!-- Group&#45;&gt;Appointment -->
<g id="edge5" class="edge">
<title>Group&#45;&gt;Appointment</title>
<path fill="none" stroke="#257864" d="M242.5842,-418.3705C232.5899,-389.4781 216.3953,-342.6609 206.0924,-312.8762"/>
<ellipse fill="none" stroke="#257864" cx="243.9398" cy="-422.2895" rx="4" ry="4"/>
<polygon fill="#257864" stroke="#257864" points="205.9828,-312.5592 206.9665,-301.6376 204.3483,-307.834 202.7137,-303.1087 202.7137,-303.1087 202.7137,-303.1087 204.3483,-307.834 198.461,-304.5798 205.9828,-312.5592 205.9828,-312.5592"/>
</g>
<!-- Member -->
<g id="node11" class="node">
<title>Member</title>
<ellipse fill="none" stroke="#000000" cx="311.4497" cy="-285" rx="40.1317" ry="18"/>
<text text-anchor="middle" x="311.4497" y="-280.8" font-family="Times,serif" font-size="14.00" fill="#000000">Member</text>
</g>
<!-- Group&#45;&gt;Member -->
<g id="edge3" class="edge">
<title>Group&#45;&gt;Member</title>
<path fill="none" stroke="#f980ad" d="M257.1009,-417.8919C261.4591,-399.4451 268.141,-374.3125 276.4497,-353 281.9838,-338.8046 289.5889,-323.6725 296.2965,-311.2956"/>
<ellipse fill="none" stroke="#f980ad" cx="256.163" cy="-421.9614" rx="4" ry="4"/>
<polygon fill="#f980ad" stroke="#f980ad" points="296.3607,-311.1794 305.1393,-304.6076 298.7812,-306.8043 301.2017,-302.4292 301.2017,-302.4292 301.2017,-302.4292 298.7812,-306.8043 297.2641,-300.2507 296.3607,-311.1794 296.3607,-311.1794"/>
</g>
<!-- User -->
<g id="node22" class="node">
<title>User</title>
<ellipse fill="none" stroke="#000000" cx="312.4497" cy="-371" rx="27" ry="18"/>
<text text-anchor="middle" x="312.4497" y="-366.8" font-family="Times,serif" font-size="14.00" fill="#000000">User</text>
</g>
<!-- Group&#45;&gt;User -->
<g id="edge4" class="edge">
<title>Group&#45;&gt;User</title>
<path fill="none" stroke="#c26f60" d="M271.8377,-419.6013C278.4986,-411.63 285.8851,-402.7904 292.5125,-394.8593"/>
<polygon fill="#c26f60" stroke="#c26f60" points="271.7038,-419.7616 261.8384,-424.5497 268.4977,-423.5984 265.2916,-427.4352 265.2916,-427.4352 265.2916,-427.4352 268.4977,-423.5984 268.7447,-430.3207 271.7038,-419.7616 271.7038,-419.7616"/>
<polygon fill="#c26f60" stroke="#c26f60" points="292.6696,-394.6712 302.535,-389.8831 295.8757,-390.8344 299.0819,-386.9976 299.0819,-386.9976 299.0819,-386.9976 295.8757,-390.8344 295.6287,-384.1121 292.6696,-394.6712 292.6696,-394.6712"/>
</g>
<!-- Platform -->
<g id="node10" class="node">
<title>Platform</title>
<ellipse fill="none" stroke="#000000" cx="389.4497" cy="-231" rx="41.1093" ry="18"/>
<text text-anchor="middle" x="389.4497" y="-226.8" font-family="Times,serif" font-size="14.00" fill="#000000">Platform</text>
</g>
<!-- Instance -->
<g id="node19" class="node">
<title>Instance</title>
<ellipse fill="none" stroke="#000000" cx="417.4497" cy="-91" rx="39.6385" ry="18"/>
<text text-anchor="middle" x="417.4497" y="-86.8" font-family="Times,serif" font-size="14.00" fill="#000000">Instance</text>
</g>
<!-- Platform&#45;&gt;Instance -->
<g id="edge6" class="edge">
<title>Platform&#45;&gt;Instance</title>
<path fill="none" stroke="#dd2209" d="M392.8508,-204.8128C394.7815,-191.1114 397.4173,-174.0917 400.4497,-159 403.1278,-145.6715 406.7061,-131.0258 409.8888,-118.7509"/>
<ellipse fill="none" stroke="#dd2209" cx="392.2878" cy="-208.9055" rx="4" ry="4"/>
<polygon fill="#dd2209" stroke="#dd2209" points="409.8895,-118.7477 416.7918,-110.2267 411.1651,-113.9132 412.4407,-109.0786 412.4407,-109.0786 412.4407,-109.0786 411.1651,-113.9132 408.0896,-107.9306 409.8895,-118.7477 409.8895,-118.7477"/>
</g>
<!-- Role -->
<g id="node13" class="node">
<title>Role</title>
<ellipse fill="none" stroke="#000000" cx="251.4497" cy="-535.5" rx="27" ry="18"/>
<text text-anchor="middle" x="251.4497" y="-531.3" font-family="Times,serif" font-size="14.00" fill="#000000">Role</text>
</g>
<!-- Role&#45;&gt;Appointment -->
<g id="edge7" class="edge">
<title>Role&#45;&gt;Appointment</title>
<path fill="none" stroke="#33b72a" d="M234.6936,-512.4347C225.5375,-498.5358 214.9664,-480.0749 209.4497,-462 193.9623,-411.2565 193.4275,-348.699 194.7375,-313.1762"/>
<ellipse fill="none" stroke="#33b72a" cx="237.0748" cy="-515.9494" rx="4" ry="4"/>
<polygon fill="#33b72a" stroke="#33b72a" points="194.7429,-313.0529 199.6842,-303.2635 194.9658,-308.0579 195.1887,-303.0629 195.1887,-303.0629 195.1887,-303.0629 194.9658,-308.0579 190.6932,-302.8623 194.7429,-313.0529 194.7429,-313.0529"/>
</g>
<!-- Role&#45;&gt;Group -->
<g id="edge9" class="edge">
<title>Role&#45;&gt;Group</title>
<path fill="none" stroke="#610b4c" d="M251.4497,-507.2998C251.4497,-496.1245 251.4497,-483.3026 251.4497,-472.1338"/>
<polygon fill="#610b4c" stroke="#610b4c" points="251.4498,-507.4225 246.9497,-517.4225 251.4498,-512.4225 251.4497,-517.4225 251.4497,-517.4225 251.4497,-517.4225 251.4498,-512.4225 255.9497,-517.4226 251.4498,-507.4225 251.4498,-507.4225"/>
<polygon fill="#610b4c" stroke="#610b4c" points="251.4498,-472.0399 255.9497,-462.0399 251.4498,-467.0399 251.4497,-462.0399 251.4497,-462.0399 251.4497,-462.0399 251.4498,-467.0399 246.9497,-462.0399 251.4498,-472.0399 251.4498,-472.0399"/>
</g>
<!-- Role&#45;&gt;User -->
<g id="edge8" class="edge">
<title>Role&#45;&gt;User</title>
<path fill="none" stroke="#132458" d="M268.3072,-510.5746C276.953,-496.7787 286.9943,-479.0216 293.4497,-462 301.1521,-441.6903 306.0072,-417.584 308.8799,-399.2863"/>
<polygon fill="#132458" stroke="#132458" points="268.2855,-510.6084 259.0933,-516.5879 265.5822,-514.8147 262.8789,-519.0209 262.8789,-519.0209 262.8789,-519.0209 265.5822,-514.8147 266.6645,-521.4539 268.2855,-510.6084 268.2855,-510.6084"/>
<polygon fill="#132458" stroke="#132458" points="308.8996,-399.1513 314.8013,-389.9089 309.6242,-394.204 310.3488,-389.2568 310.3488,-389.2568 310.3488,-389.2568 309.6242,-394.204 305.8963,-388.6047 308.8996,-399.1513 308.8996,-399.1513"/>
</g>
<!-- Interface -->
<g id="node14" class="node">
<title>Interface</title>
<ellipse fill="none" stroke="#000000" cx="850.4497" cy="-177" rx="41.542" ry="18"/>
<text text-anchor="middle" x="850.4497" y="-172.8" font-family="Times,serif" font-size="14.00" fill="#000000">Interface</text>
</g>
<!-- Interface&#45;&gt;Dependency -->
<g id="edge15" class="edge">
<title>Interface&#45;&gt;Dependency</title>
<path fill="none" stroke="#ad5b4f" d="M818.285,-158.4352C794.499,-144.7063 762.0947,-126.0031 737.4455,-111.7761"/>
<ellipse fill="none" stroke="#ad5b4f" cx="822.0461" cy="-160.6059" rx="4" ry="4"/>
<polygon fill="#ad5b4f" stroke="#ad5b4f" points="737.4063,-111.7535 730.9949,-102.8572 733.0759,-109.254 728.7454,-106.7546 728.7454,-106.7546 728.7454,-106.7546 733.0759,-109.254 726.4959,-110.652 737.4063,-111.7535 737.4063,-111.7535"/>
</g>
<!-- Interface&#45;&gt;Surrogate -->
<g id="edge10" class="edge">
<title>Interface&#45;&gt;Surrogate</title>
<path fill="none" stroke="#acb6bd" d="M845.8369,-150.8238C845.6764,-142.6601 846.9324,-133.976 851.3325,-127 855.2146,-120.8454 867.8446,-113.75 881.4742,-107.4939"/>
<ellipse fill="none" stroke="#acb6bd" cx="846.1499" cy="-155.0603" rx="4" ry="4"/>
<polygon fill="#acb6bd" stroke="#acb6bd" points="881.8196,-107.3422 892.7851,-107.4385 886.3971,-105.3305 890.9746,-103.3188 890.9746,-103.3188 890.9746,-103.3188 886.3971,-105.3305 889.164,-99.1991 881.8196,-107.3422 881.8196,-107.3422"/>
<text text-anchor="middle" x="880.0083" y="-129.8" font-family="Times,serif" font-size="14.00" fill="#000000">substitutes</text>
</g>
<!-- Interface&#45;&gt;Surrogate -->
<g id="edge11" class="edge">
<title>Interface&#45;&gt;Surrogate</title>
<path fill="none" stroke="#9f40d3" d="M887.8885,-160.6244C896.333,-155.4155 904.5366,-148.9028 910.4497,-141 915.1783,-134.6804 918.1921,-126.7973 920.1113,-119.1724"/>
<ellipse fill="none" stroke="#9f40d3" cx="884.2541" cy="-162.7067" rx="4" ry="4"/>
<polygon fill="#9f40d3" stroke="#9f40d3" points="920.1623,-118.9147 926.5222,-109.9815 921.1353,-114.0103 922.1082,-109.1059 922.1082,-109.1059 922.1082,-109.1059 921.1353,-114.0103 917.6942,-108.2302 920.1623,-118.9147 920.1623,-118.9147"/>
</g>
<!-- Interface&#45;&gt;Interface -->
<g id="edge13" class="edge">
<title>Interface&#45;&gt;Interface</title>
<path fill="none" stroke="#a0b1d7" d="M896.0586,-184.4201C904.2462,-183.4615 909.9707,-180.9881 909.9707,-177 909.9707,-173.3374 905.1426,-170.9524 898.0127,-169.845"/>
<ellipse fill="none" stroke="#a0b1d7" cx="891.9342" cy="-184.6509" rx="4" ry="4"/>
<polygon fill="#a0b1d7" stroke="#a0b1d7" points="897.9151,-169.8381 888.2612,-164.6369 892.9278,-169.4818 887.9405,-169.1255 887.9405,-169.1255 887.9405,-169.1255 892.9278,-169.4818 887.6198,-173.614 897.9151,-169.8381 897.9151,-169.8381"/>
<text text-anchor="middle" x="971.0088" y="-172.8" font-family="Times,serif" font-size="14.00" fill="#000000">substituted_interfaces</text>
</g>
<!-- Exposure -->
<g id="node15" class="node">
<title>Exposure</title>
<ellipse fill="none" stroke="#000000" cx="817.4497" cy="-91" rx="43.5146" ry="18"/>
<text text-anchor="middle" x="817.4497" y="-86.8" font-family="Times,serif" font-size="14.00" fill="#000000">Exposure</text>
</g>
<!-- Interface&#45;&gt;Exposure -->
<g id="edge14" class="edge">
<title>Interface&#45;&gt;Exposure</title>
<path fill="none" stroke="#31662e" d="M836.4445,-152.1088C834.637,-148.4414 832.9102,-144.6639 831.4497,-141 828.7137,-134.1362 826.2944,-126.5418 824.2696,-119.3883"/>
<ellipse fill="none" stroke="#31662e" cx="838.3757" cy="-155.8548" rx="4" ry="4"/>
<polygon fill="#31662e" stroke="#31662e" points="824.1719,-119.0216 825.9423,-108.1996 822.8831,-114.1906 821.5943,-109.3595 821.5943,-109.3595 821.5943,-109.3595 822.8831,-114.1906 817.2464,-110.5194 824.1719,-119.0216 824.1719,-119.0216"/>
</g>
<!-- SurrogatedInterface -->
<g id="node25" class="node">
<title>SurrogatedInterface</title>
<ellipse fill="none" stroke="#000000" cx="1066.4497" cy="-91" rx="80.1472" ry="18"/>
<text text-anchor="middle" x="1066.4497" y="-86.8" font-family="Times,serif" font-size="14.00" fill="#000000">SurrogatedInterface</text>
</g>
<!-- Interface&#45;&gt;SurrogatedInterface -->
<g id="edge12" class="edge">
<title>Interface&#45;&gt;SurrogatedInterface</title>
<path fill="none" stroke="#3e23eb" d="M890.8339,-160.9211C926.6656,-146.6548 979.1097,-125.7743 1017.3547,-110.5471"/>
<polygon fill="#3e23eb" stroke="#3e23eb" points="890.6879,-160.9792 879.7326,-160.4975 886.0426,-162.8287 881.3972,-164.6783 881.3972,-164.6783 881.3972,-164.6783 886.0426,-162.8287 883.0619,-168.8591 890.6879,-160.9792 890.6879,-160.9792"/>
<polygon fill="#3e23eb" stroke="#3e23eb" points="1017.4627,-110.5042 1028.418,-110.9858 1022.108,-108.6546 1026.7534,-106.805 1026.7534,-106.805 1026.7534,-106.805 1022.108,-108.6546 1025.0888,-102.6242 1017.4627,-110.5042 1017.4627,-110.5042"/>
</g>
<!-- Exposure&#45;&gt;Parameter -->
<g id="edge16" class="edge">
<title>Exposure&#45;&gt;Parameter</title>
<path fill="none" stroke="#c1a142" d="M817.4497,-64.9079C817.4497,-58.9427 817.4497,-52.5729 817.4497,-46.512"/>
<ellipse fill="none" stroke="#c1a142" cx="817.4498" cy="-68.9551" rx="4" ry="4"/>
<polygon fill="#c1a142" stroke="#c1a142" points="817.4498,-46.0904 821.9497,-36.0903 817.4498,-41.0904 817.4497,-36.0904 817.4497,-36.0904 817.4497,-36.0904 817.4498,-41.0904 812.9497,-36.0904 817.4498,-46.0904 817.4498,-46.0904"/>
</g>
<!-- Ability -->
<g id="node16" class="node">
<title>Ability</title>
<polygon fill="none" stroke="#000000" points="352.1196,-553.5 296.7798,-553.5 296.7798,-517.5 352.1196,-517.5 352.1196,-553.5"/>
<text text-anchor="middle" x="324.4497" y="-531.3" font-family="Times,serif" font-size="14.00" fill="#000000">Ability</text>
</g>
<!-- ApplicationRecord -->
<g id="node17" class="node">
<title>ApplicationRecord</title>
<ellipse fill="none" stroke="#000000" cx="447.4497" cy="-535.5" rx="77.2916" ry="18"/>
<text text-anchor="middle" x="447.4497" y="-531.3" font-family="Times,serif" font-size="14.00" fill="#000000">ApplicationRecord</text>
</g>
<!-- Configuration -->
<g id="node18" class="node">
<title>Configuration</title>
<ellipse fill="none" stroke="#000000" cx="569.4497" cy="-91" rx="59.4773" ry="18"/>
<text text-anchor="middle" x="569.4497" y="-86.8" font-family="Times,serif" font-size="14.00" fill="#000000">Configuration</text>
</g>
<!-- Task -->
<g id="node24" class="node">
<title>Task</title>
<ellipse fill="none" stroke="#000000" cx="569.4497" cy="-18" rx="27" ry="18"/>
<text text-anchor="middle" x="569.4497" y="-13.8" font-family="Times,serif" font-size="14.00" fill="#000000">Task</text>
</g>
<!-- Configuration&#45;&gt;Task -->
<g id="edge17" class="edge">
<title>Configuration&#45;&gt;Task</title>
<path fill="none" stroke="#85305a" d="M569.4497,-64.9079C569.4497,-58.9427 569.4497,-52.5729 569.4497,-46.512"/>
<ellipse fill="none" stroke="#85305a" cx="569.4498" cy="-68.9551" rx="4" ry="4"/>
<polygon fill="#85305a" stroke="#85305a" points="569.4498,-46.0904 573.9497,-36.0903 569.4498,-41.0904 569.4497,-36.0904 569.4497,-36.0904 569.4497,-36.0904 569.4498,-41.0904 564.9497,-36.0904 569.4498,-46.0904 569.4498,-46.0904"/>
</g>
<!-- Build -->
<g id="node20" class="node">
<title>Build</title>
<ellipse fill="none" stroke="#000000" cx="701.4497" cy="-177" rx="29.5275" ry="18"/>
<text text-anchor="middle" x="701.4497" y="-172.8" font-family="Times,serif" font-size="14.00" fill="#000000">Build</text>
</g>
<!-- Build&#45;&gt;Dependency -->
<g id="edge20" class="edge">
<title>Build&#45;&gt;Dependency</title>
<path fill="none" stroke="#0bf8a1" d="M701.4497,-150.4021C701.4497,-140.585 701.4497,-129.4263 701.4497,-119.4515"/>
<ellipse fill="none" stroke="#0bf8a1" cx="701.4498" cy="-154.7616" rx="4" ry="4"/>
<polygon fill="#0bf8a1" stroke="#0bf8a1" points="701.4498,-119.2121 705.9497,-109.2121 701.4498,-114.2121 701.4497,-109.2121 701.4497,-109.2121 701.4497,-109.2121 701.4498,-114.2121 696.9497,-109.2121 701.4498,-119.2121 701.4498,-119.2121"/>
</g>
<!-- Build&#45;&gt;Exposure -->
<g id="edge19" class="edge">
<title>Build&#45;&gt;Exposure</title>
<path fill="none" stroke="#32dc76" d="M726.776,-158.2236C744.7912,-144.8675 769.0484,-126.8837 787.9402,-112.8778"/>
<ellipse fill="none" stroke="#32dc76" cx="723.5585" cy="-160.609" rx="4" ry="4"/>
<polygon fill="#32dc76" stroke="#32dc76" points="788.1678,-112.709 798.881,-110.3683 792.1844,-109.7312 796.2009,-106.7534 796.2009,-106.7534 796.2009,-106.7534 792.1844,-109.7312 793.5209,-103.1385 788.1678,-112.709 788.1678,-112.709"/>
</g>
<!-- Build&#45;&gt;Configuration -->
<g id="edge21" class="edge">
<title>Build&#45;&gt;Configuration</title>
<path fill="none" stroke="#189084" d="M674.1954,-159.2434C653.5299,-145.7795 625.0182,-127.2037 602.9587,-112.8316"/>
<ellipse fill="none" stroke="#189084" cx="677.7625" cy="-161.5674" rx="4" ry="4"/>
<polygon fill="#189084" stroke="#189084" points="602.9271,-112.8111 597.005,-103.5818 598.7378,-110.0817 594.5485,-107.3522 594.5485,-107.3522 594.5485,-107.3522 598.7378,-110.0817 592.092,-111.1226 602.9271,-112.8111 602.9271,-112.8111"/>
</g>
<!-- Build&#45;&gt;Instance -->
<g id="edge18" class="edge">
<title>Build&#45;&gt;Instance</title>
<path fill="none" stroke="#85de1a" d="M670.842,-162.313C668.0287,-161.1336 665.202,-160.0096 662.4497,-159 594.4058,-134.0407 512.864,-113.1259 463.1278,-101.3344"/>
<ellipse fill="none" stroke="#85de1a" cx="674.5316" cy="-163.9237" rx="4" ry="4"/>
<polygon fill="#85de1a" stroke="#85de1a" points="463.0509,-101.3164 454.3454,-94.6482 458.1835,-100.1727 453.316,-99.0289 453.316,-99.0289 453.316,-99.0289 458.1835,-100.1727 452.2867,-103.4096 463.0509,-101.3164 463.0509,-101.3164"/>
</g>
<!-- Service&#45;&gt;Screenshot -->
<g id="edge23" class="edge">
<title>Service&#45;&gt;Screenshot</title>
<path fill="none" stroke="#f9dc0e" d="M604.4497,-258.4153C604.4497,-242.2464 604.4497,-221.6143 604.4497,-205.166"/>
<ellipse fill="none" stroke="#f9dc0e" cx="604.4498" cy="-262.6793" rx="4" ry="4"/>
<polygon fill="#f9dc0e" stroke="#f9dc0e" points="604.4498,-205.0502 608.9497,-195.0501 604.4498,-200.0502 604.4497,-195.0502 604.4497,-195.0502 604.4497,-195.0502 604.4498,-200.0502 599.9497,-195.0502 604.4498,-205.0502 604.4498,-205.0502"/>
</g>
<!-- Service&#45;&gt;Build -->
<g id="edge22" class="edge">
<title>Service&#45;&gt;Build</title>
<path fill="none" stroke="#0da570" d="M625.0988,-262.0092C641.249,-244.0276 663.6315,-219.1069 679.9863,-200.8973"/>
<ellipse fill="none" stroke="#0da570" cx="622.2788" cy="-265.1491" rx="4" ry="4"/>
<polygon fill="#0da570" stroke="#0da570" points="680.3505,-200.4919 690.3805,-196.059 683.6915,-196.772 687.0326,-193.0521 687.0326,-193.0521 687.0326,-193.0521 683.6915,-196.772 683.6847,-190.0451 680.3505,-200.4919 680.3505,-200.4919"/>
</g>
<!-- User&#45;&gt;Identity -->
<g id="edge26" class="edge">
<title>User&#45;&gt;Identity</title>
<path fill="none" stroke="#8e602c" d="M345.4073,-362.2396C365.5216,-356.1509 391.3395,-346.9775 412.4497,-335 425.4519,-327.6228 438.458,-317.4446 449.1001,-308.196"/>
<ellipse fill="none" stroke="#8e602c" cx="341.5604" cy="-363.3714" rx="4" ry="4"/>
<polygon fill="#8e602c" stroke="#8e602c" points="449.2835,-308.032 459.7376,-304.7211 453.0108,-304.6992 456.7382,-301.3665 456.7382,-301.3665 456.7382,-301.3665 453.0108,-304.6992 453.7387,-298.0119 449.2835,-308.032 449.2835,-308.032"/>
</g>
<!-- User&#45;&gt;Appointment -->
<g id="edge25" class="edge">
<title>User&#45;&gt;Appointment</title>
<path fill="none" stroke="#0d7030" d="M287.7426,-352.6827C269.9514,-339.4926 245.8408,-321.6176 226.8653,-307.5495"/>
<ellipse fill="none" stroke="#0d7030" cx="291.1115" cy="-355.1802" rx="4" ry="4"/>
<polygon fill="#0d7030" stroke="#0d7030" points="226.8488,-307.5373 221.4957,-297.9668 222.8322,-304.5595 218.8157,-301.5817 218.8157,-301.5817 218.8157,-301.5817 222.8322,-304.5595 216.1356,-305.1966 226.8488,-307.5373 226.8488,-307.5373"/>
</g>
<!-- User&#45;&gt;Platform -->
<g id="edge27" class="edge">
<title>User&#45;&gt;Platform</title>
<path fill="none" stroke="#9fd74e" d="M346.4903,-363.3281C361.7168,-358.0336 378.2727,-349.2781 387.4497,-335 401.8637,-312.574 400.3192,-281.4297 396.4281,-259.0789"/>
<ellipse fill="none" stroke="#9fd74e" cx="342.5091" cy="-364.5865" rx="4" ry="4"/>
<polygon fill="#9fd74e" stroke="#9fd74e" points="396.412,-258.9979 398.87,-248.3111 395.4344,-254.0944 394.4569,-249.1909 394.4569,-249.1909 394.4569,-249.1909 395.4344,-254.0944 390.0437,-250.0707 396.412,-258.9979 396.412,-258.9979"/>
</g>
<!-- User&#45;&gt;Member -->
<g id="edge24" class="edge">
<title>User&#45;&gt;Member</title>
<path fill="none" stroke="#c1be27" d="M312.1404,-344.4021C312.0263,-334.585 311.8965,-323.4263 311.7805,-313.4515"/>
<ellipse fill="none" stroke="#c1be27" cx="312.1911" cy="-348.7619" rx="4" ry="4"/>
<polygon fill="#c1be27" stroke="#c1be27" points="311.7778,-313.2114 316.1612,-303.1597 311.7197,-308.2118 311.6615,-303.2121 311.6615,-303.2121 311.6615,-303.2121 311.7197,-308.2118 307.1618,-303.2645 311.7778,-313.2114 311.7778,-313.2114"/>
<text text-anchor="middle" x="349.7773" y="-323.8" font-family="Times,serif" font-size="14.00" fill="#000000">memberships</text>
</g>
<!-- User&#45;&gt;Service -->
<g id="edge28" class="edge">
<title>User&#45;&gt;Service</title>
<path fill="none" stroke="#71be25" d="M345.3772,-361.5056C370.3759,-354.2816 405.5935,-344.0707 436.4497,-335 479.7631,-322.2673 529.2955,-307.5003 563.2928,-297.333"/>
<ellipse fill="none" stroke="#71be25" cx="341.4812" cy="-362.6309" rx="4" ry="4"/>
<polygon fill="#71be25" stroke="#71be25" points="563.3052,-297.3293 574.1755,-298.7741 568.0954,-295.8961 572.8856,-294.4629 572.8856,-294.4629 572.8856,-294.4629 568.0954,-295.8961 571.5957,-290.1517 563.3052,-297.3293 563.3052,-297.3293"/>
</g>
<!-- IdentityProvider -->
<g id="node23" class="node">
<title>IdentityProvider</title>
<ellipse fill="none" stroke="#000000" cx="476.4497" cy="-371" rx="68.1374" ry="18"/>
<text text-anchor="middle" x="476.4497" y="-366.8" font-family="Times,serif" font-size="14.00" fill="#000000">IdentityProvider</text>
</g>
<!-- IdentityProvider&#45;&gt;Identity -->
<g id="edge29" class="edge">
<title>IdentityProvider&#45;&gt;Identity</title>
<path fill="none" stroke="#85f24d" d="M475.5219,-344.4021C475.1794,-334.585 474.7902,-323.4263 474.4422,-313.4515"/>
<ellipse fill="none" stroke="#85f24d" cx="475.674" cy="-348.764" rx="4" ry="4"/>
<polygon fill="#85f24d" stroke="#85f24d" points="474.4337,-313.206 478.5823,-303.0552 474.2594,-308.2091 474.085,-303.2121 474.085,-303.2121 474.085,-303.2121 474.2594,-308.2091 469.5877,-303.369 474.4337,-313.206 474.4337,-313.206"/>
</g>
</g>
</svg>
