<?xml version="1.0" encoding="UTF-8" standalone="no"?>
<!DOCTYPE svg PUBLIC "-//W3C//DTD SVG 1.1//EN"
 "http://www.w3.org/Graphics/SVG/1.1/DTD/svg11.dtd">
<!-- Generated by graphviz version 2.38.0 (20140413.2041)
 -->
<!-- Title: models_diagram Pages: 1 -->
<svg width="546pt" height="386pt"
 viewBox="0.00 0.00 545.85 386.00" xmlns="http://www.w3.org/2000/svg" xmlns:xlink="http://www.w3.org/1999/xlink">
<g id="graph0" class="graph" transform="scale(1 1) rotate(0) translate(4 382)">
<title>models_diagram</title>
<polygon fill="none" stroke="none" points="-4,4 -4,-382 541.854,-382 541.854,4 -4,4"/>
<!-- _diagram_info -->
<g id="node1" class="node"><title>_diagram_info</title>
<text text-anchor="start" x="8" y="-363.6" font-family="Times,serif" font-size="13.00">Models diagram</text>
<text text-anchor="start" x="8" y="-350.6" font-family="Times,serif" font-size="13.00">Date: Dec 21 2016 &#45; 10:38</text>
<text text-anchor="start" x="8" y="-337.6" font-family="Times,serif" font-size="13.00">Migration version: 1</text>
<text text-anchor="start" x="8" y="-324.6" font-family="Times,serif" font-size="13.00">Generated by RailRoady 1.5.2</text>
<text text-anchor="start" x="8" y="-311.6" font-family="Times,serif" font-size="13.00">http://railroady.prestonlee.com</text>
</g>
<!-- Ability -->
<g id="node2" class="node"><title>Ability</title>
<polygon fill="none" stroke="black" points="249.39,-359.5 194.05,-359.5 194.05,-323.5 249.39,-323.5 249.39,-359.5"/>
<text text-anchor="middle" x="221.72" y="-337.3" font-family="Times,serif" font-size="14.00">Ability</text>
</g>
<!-- Appointment -->
<g id="node3" class="node"><title>Appointment</title>
<ellipse fill="none" stroke="black" cx="311.72" cy="-91" rx="56.5545" ry="18"/>
<text text-anchor="middle" x="311.72" y="-86.8" font-family="Times,serif" font-size="14.00">Appointment</text>
</g>
<!-- Client -->
<g id="node4" class="node"><title>Client</title>
<ellipse fill="none" stroke="black" cx="371.72" cy="-341.5" rx="31.948" ry="18"/>
<text text-anchor="middle" x="371.72" y="-337.3" font-family="Times,serif" font-size="14.00">Client</text>
</g>
<!-- Group -->
<g id="node5" class="node"><title>Group</title>
<ellipse fill="none" stroke="black" cx="211.72" cy="-250" rx="32.9081" ry="18"/>
<text text-anchor="middle" x="211.72" y="-245.8" font-family="Times,serif" font-size="14.00">Group</text>
</g>
<!-- Group&#45;&gt;Appointment -->
<g id="edge3" class="edge"><title>Group&#45;&gt;Appointment</title>
<path fill="none" stroke="#74d628" d="M201.28,-224.416C191.773,-197.779 182.081,-155.304 202.72,-127 213.292,-112.502 229.964,-103.876 247.118,-98.7848"/>
<ellipse fill="none" stroke="#74d628" cx="202.78" cy="-228.397" rx="4.00001" ry="4.00001"/>
<polygon fill="#74d628" stroke="#74d628" points="247.548,-98.674 258.355,-100.535 252.39,-97.4258 257.232,-96.1777 257.232,-96.1777 257.232,-96.1777 252.39,-97.4258 256.108,-91.8201 247.548,-98.674 247.548,-98.674"/>
</g>
<!-- Member -->
<g id="node9" class="node"><title>Member</title>
<ellipse fill="none" stroke="black" cx="173.72" cy="-91" rx="40.1317" ry="18"/>
<text text-anchor="middle" x="173.72" y="-86.8" font-family="Times,serif" font-size="14.00">Member</text>
</g>
<!-- Group&#45;&gt;Member -->
<g id="edge1" class="edge"><title>Group&#45;&gt;Member</title>
<path fill="none" stroke="#a20c9e" d="M186.004,-230.011C181.427,-225.325 177.302,-219.928 174.72,-214 161.476,-183.583 164.063,-144.719 168.068,-119.129"/>
<ellipse fill="none" stroke="#a20c9e" cx="189.032" cy="-232.828" rx="4.00002" ry="4.00002"/>
<polygon fill="#a20c9e" stroke="#a20c9e" points="168.11,-118.889 174.262,-109.811 168.969,-113.963 169.829,-109.038 169.829,-109.038 169.829,-109.038 168.969,-113.963 165.396,-108.264 168.11,-118.889 168.11,-118.889"/>
</g>
<!-- User -->
<g id="node12" class="node"><title>User</title>
<ellipse fill="none" stroke="black" cx="294.72" cy="-177" rx="27" ry="18"/>
<text text-anchor="middle" x="294.72" y="-172.8" font-family="Times,serif" font-size="14.00">User</text>
</g>
<!-- Group&#45;&gt;User -->
<g id="edge2" class="edge"><title>Group&#45;&gt;User</title>
<path fill="none" stroke="#79f631" d="M236.562,-227.75C247.434,-218.45 260.134,-207.585 270.889,-198.386"/>
<polygon fill="#79f631" stroke="#79f631" points="236.517,-227.788 225.993,-230.869 232.717,-231.039 228.918,-234.289 228.918,-234.289 228.918,-234.289 232.717,-231.039 231.843,-237.708 236.517,-227.788 236.517,-227.788"/>
<polygon fill="#79f631" stroke="#79f631" points="271.072,-198.229 281.596,-195.149 274.871,-194.979 278.671,-191.729 278.671,-191.729 278.671,-191.729 274.871,-194.979 275.746,-188.309 271.072,-198.229 271.072,-198.229"/>
</g>
<!-- Identity -->
<g id="node6" class="node"><title>Identity</title>
<ellipse fill="none" stroke="black" cx="440.72" cy="-91" rx="37.7266" ry="18"/>
<text text-anchor="middle" x="440.72" y="-86.8" font-family="Times,serif" font-size="14.00">Identity</text>
</g>
<!-- JsonWebToken -->
<g id="node8" class="node"><title>JsonWebToken</title>
<ellipse fill="none" stroke="black" cx="381.72" cy="-18" rx="63.5968" ry="18"/>
<text text-anchor="middle" x="381.72" y="-13.8" font-family="Times,serif" font-size="14.00">JsonWebToken</text>
</g>
<!-- Identity&#45;&gt;JsonWebToken -->
<g id="edge5" class="edge"><title>Identity&#45;&gt;JsonWebToken</title>
<path fill="none" stroke="#0ad9fc" d="M422.005,-67.4787C415.792,-60.0016 408.838,-51.6338 402.48,-43.9825"/>
<ellipse fill="none" stroke="#0ad9fc" cx="424.776" cy="-70.8126" rx="4.00002" ry="4.00002"/>
<polygon fill="#0ad9fc" stroke="#0ad9fc" points="402.269,-43.7284 399.339,-33.1613 399.074,-39.8829 395.878,-36.0373 395.878,-36.0373 395.878,-36.0373 399.074,-39.8829 392.417,-38.9134 402.269,-43.7284 402.269,-43.7284"/>
</g>
<!-- Session -->
<g id="node11" class="node"><title>Session</title>
<ellipse fill="none" stroke="black" cx="500.72" cy="-18" rx="37.2681" ry="18"/>
<text text-anchor="middle" x="500.72" y="-13.8" font-family="Times,serif" font-size="14.00">Session</text>
</g>
<!-- Identity&#45;&gt;Session -->
<g id="edge4" class="edge"><title>Identity&#45;&gt;Session</title>
<path fill="none" stroke="#ea7674" d="M459.663,-67.584C466.359,-59.6606 473.909,-50.7262 480.692,-42.6998"/>
<ellipse fill="none" stroke="#ea7674" cx="456.917" cy="-70.8338" rx="4.00002" ry="4.00002"/>
<polygon fill="#ea7674" stroke="#ea7674" points="480.705,-42.6852 490.596,-37.9518 483.932,-38.8662 487.159,-35.0472 487.159,-35.0472 487.159,-35.0472 483.932,-38.8662 483.722,-32.1427 480.705,-42.6852 480.705,-42.6852"/>
</g>
<!-- IdentityProvider -->
<g id="node7" class="node"><title>IdentityProvider</title>
<ellipse fill="none" stroke="black" cx="457.72" cy="-177" rx="68.1374" ry="18"/>
<text text-anchor="middle" x="457.72" y="-172.8" font-family="Times,serif" font-size="14.00">IdentityProvider</text>
</g>
<!-- IdentityProvider&#45;&gt;Identity -->
<g id="edge6" class="edge"><title>IdentityProvider&#45;&gt;Identity</title>
<path fill="none" stroke="#062443" d="M452.659,-150.991C450.623,-140.929 448.27,-129.303 446.194,-119.045"/>
<ellipse fill="none" stroke="#062443" cx="453.487" cy="-155.081" rx="4.00001" ry="4.00001"/>
<polygon fill="#062443" stroke="#062443" points="446.139,-118.775 448.566,-108.081 445.147,-113.874 444.155,-108.973 444.155,-108.973 444.155,-108.973 445.147,-113.874 439.745,-109.866 446.139,-118.775 446.139,-118.775"/>
</g>
<!-- Role -->
<g id="node10" class="node"><title>Role</title>
<ellipse fill="none" stroke="black" cx="294.72" cy="-341.5" rx="27" ry="18"/>
<text text-anchor="middle" x="294.72" y="-337.3" font-family="Times,serif" font-size="14.00">Role</text>
</g>
<!-- Role&#45;&gt;Appointment -->
<g id="edge7" class="edge"><title>Role&#45;&gt;Appointment</title>
<path fill="none" stroke="#329fa2" d="M304.753,-316.387C317.959,-281.759 338.625,-215.851 330.72,-159 328.834,-145.434 324.897,-130.755 321.093,-118.604"/>
<ellipse fill="none" stroke="#329fa2" cx="303.196" cy="-320.366" rx="4.00001" ry="4.00001"/>
<polygon fill="#329fa2" stroke="#329fa2" points="321.084,-118.577 322.254,-107.674 319.53,-113.824 317.977,-109.072 317.977,-109.072 317.977,-109.072 319.53,-113.824 313.7,-110.47 321.084,-118.577 321.084,-118.577"/>
</g>
<!-- Role&#45;&gt;Group -->
<g id="edge9" class="edge"><title>Role&#45;&gt;Group</title>
<path fill="none" stroke="#20006f" d="M274.109,-318.275C261.593,-304.779 245.648,-287.585 233.011,-273.958"/>
<polygon fill="#20006f" stroke="#20006f" points="274.215,-318.389 277.715,-328.781 277.615,-322.055 281.014,-325.721 281.014,-325.721 281.014,-325.721 277.615,-322.055 284.314,-322.661 274.215,-318.389 274.215,-318.389"/>
<polygon fill="#20006f" stroke="#20006f" points="232.803,-273.734 229.303,-263.342 229.403,-270.068 226.003,-266.402 226.003,-266.402 226.003,-266.402 229.403,-270.068 222.704,-269.461 232.803,-273.734 232.803,-273.734"/>
</g>
<!-- Role&#45;&gt;User -->
<g id="edge8" class="edge"><title>Role&#45;&gt;User</title>
<path fill="none" stroke="#b25e96" d="M294.72,-313.374C294.72,-283.471 294.72,-235.626 294.72,-205.553"/>
<polygon fill="#b25e96" stroke="#b25e96" points="294.72,-313.417 290.22,-323.417 294.72,-318.417 294.72,-323.417 294.72,-323.417 294.72,-323.417 294.72,-318.417 299.22,-323.417 294.72,-313.417 294.72,-313.417"/>
<polygon fill="#b25e96" stroke="#b25e96" points="294.72,-205.343 299.22,-195.343 294.72,-200.343 294.72,-195.343 294.72,-195.343 294.72,-195.343 294.72,-200.343 290.22,-195.343 294.72,-205.343 294.72,-205.343"/>
</g>
<!-- User&#45;&gt;Appointment -->
<g id="edge11" class="edge"><title>User&#45;&gt;Appointment</title>
<path fill="none" stroke="#b4d6da" d="M299.781,-150.991C301.818,-140.929 304.171,-129.303 306.247,-119.045"/>
<ellipse fill="none" stroke="#b4d6da" cx="298.954" cy="-155.081" rx="4.00001" ry="4.00001"/>
<polygon fill="#b4d6da" stroke="#b4d6da" points="306.301,-118.775 312.696,-109.866 307.293,-113.874 308.285,-108.973 308.285,-108.973 308.285,-108.973 307.293,-113.874 303.875,-108.081 306.301,-118.775 306.301,-118.775"/>
</g>
<!-- User&#45;&gt;Identity -->
<g id="edge12" class="edge"><title>User&#45;&gt;Identity</title>
<path fill="none" stroke="#b27e25" d="M321.402,-160.649C346,-146.496 382.552,-125.467 408.712,-110.416"/>
<ellipse fill="none" stroke="#b27e25" cx="317.878" cy="-162.677" rx="4.00002" ry="4.00002"/>
<polygon fill="#b27e25" stroke="#b27e25" points="408.828,-110.349 419.739,-109.263 413.161,-107.856 417.495,-105.362 417.495,-105.362 417.495,-105.362 413.161,-107.856 415.251,-101.462 408.828,-110.349 408.828,-110.349"/>
</g>
<!-- User&#45;&gt;Member -->
<g id="edge10" class="edge"><title>User&#45;&gt;Member</title>
<path fill="none" stroke="#5034ec" d="M264.506,-163.901C251.23,-157.927 235.798,-150.054 223.065,-141 212.868,-133.749 202.839,-124.338 194.515,-115.704"/>
<ellipse fill="none" stroke="#5034ec" cx="268.372" cy="-165.591" rx="4.00002" ry="4.00002"/>
<polygon fill="#5034ec" stroke="#5034ec" points="194.506,-115.695 190.963,-105.317 191.091,-112.043 187.676,-108.391 187.676,-108.391 187.676,-108.391 191.091,-112.043 184.389,-111.464 194.506,-115.695 194.506,-115.695"/>
<text text-anchor="middle" x="260.048" y="-129.8" font-family="Times,serif" font-size="14.00">memberships</text>
</g>
</g>
</svg>
