<?xml version="1.0" encoding="UTF-8" standalone="no"?>
<!DOCTYPE svg PUBLIC "-//W3C//DTD SVG 1.1//EN"
 "http://www.w3.org/Graphics/SVG/1.1/DTD/svg11.dtd">
<!-- Generated by graphviz version 2.38.0 (20140413.2041)
 -->
<!-- Title: models_diagram Pages: 1 -->
<svg width="980pt" height="898pt"
 viewBox="0.00 0.00 979.58 898.00" xmlns="http://www.w3.org/2000/svg" xmlns:xlink="http://www.w3.org/1999/xlink">
<g id="graph0" class="graph" transform="scale(1 1) rotate(0) translate(4 894)">
<title>models_diagram</title>
<polygon fill="none" stroke="none" points="-4,4 -4,-894 975.583,-894 975.583,4 -4,4"/>
<!-- _diagram_info -->
<g id="node1" class="node"><title>_diagram_info</title>
<text text-anchor="start" x="8" y="-847.6" font-family="Times,serif" font-size="13.00">Models diagram</text>
<text text-anchor="start" x="8" y="-834.6" font-family="Times,serif" font-size="13.00">Date: Dec 21 2016 &#45; 10:38</text>
<text text-anchor="start" x="8" y="-821.6" font-family="Times,serif" font-size="13.00">Migration version: 1</text>
<text text-anchor="start" x="8" y="-808.6" font-family="Times,serif" font-size="13.00">Generated by RailRoady 1.5.2</text>
<text text-anchor="start" x="8" y="-795.6" font-family="Times,serif" font-size="13.00">http://railroady.prestonlee.com</text>
</g>
<!-- Ability -->
<g id="node2" class="node"><title>Ability</title>
<polygon fill="none" stroke="black" points="193.886,-803.5 193.886,-847.5 249.555,-847.5 249.555,-803.5 193.886,-803.5"/>
<text text-anchor="middle" x="221.72" y="-832.3" font-family="Times,serif" font-size="14.00">Ability</text>
<polyline fill="none" stroke="black" points="193.886,-825.5 249.555,-825.5 "/>
<text text-anchor="middle" x="221.72" y="-810.3" font-family="Times,serif" font-size="14.00"> </text>
</g>
<!-- Appointment -->
<g id="node3" class="node"><title>Appointment</title>
<path fill="none" stroke="black" d="M336.858,-187.5C336.858,-187.5 560.583,-187.5 560.583,-187.5 566.583,-187.5 572.583,-193.5 572.583,-199.5 572.583,-199.5 572.583,-289.5 572.583,-289.5 572.583,-295.5 566.583,-301.5 560.583,-301.5 560.583,-301.5 336.858,-301.5 336.858,-301.5 330.858,-301.5 324.858,-295.5 324.858,-289.5 324.858,-289.5 324.858,-199.5 324.858,-199.5 324.858,-193.5 330.858,-187.5 336.858,-187.5"/>
<text text-anchor="middle" x="448.72" y="-286.3" font-family="Times,serif" font-size="14.00">Appointment</text>
<polyline fill="none" stroke="black" points="324.858,-279.5 572.583,-279.5 "/>
<text text-anchor="start" x="332.858" y="-264.3" font-family="Times,serif" font-size="14.00">id :uuid</text>
<text text-anchor="start" x="332.858" y="-250.3" font-family="Times,serif" font-size="14.00">entity_id :uuid</text>
<text text-anchor="start" x="332.858" y="-236.3" font-family="Times,serif" font-size="14.00">entity_type :character varying</text>
<text text-anchor="start" x="332.858" y="-222.3" font-family="Times,serif" font-size="14.00">role_id :uuid</text>
<text text-anchor="start" x="332.858" y="-208.3" font-family="Times,serif" font-size="14.00">created_at :timestamp without time zone</text>
<text text-anchor="start" x="332.858" y="-194.3" font-family="Times,serif" font-size="14.00">updated_at :timestamp without time zone</text>
</g>
<!-- Client -->
<g id="node4" class="node"><title>Client</title>
<path fill="none" stroke="black" d="M545.858,-761.5C545.858,-761.5 769.583,-761.5 769.583,-761.5 775.583,-761.5 781.583,-767.5 781.583,-773.5 781.583,-773.5 781.583,-877.5 781.583,-877.5 781.583,-883.5 775.583,-889.5 769.583,-889.5 769.583,-889.5 545.858,-889.5 545.858,-889.5 539.858,-889.5 533.858,-883.5 533.858,-877.5 533.858,-877.5 533.858,-773.5 533.858,-773.5 533.858,-767.5 539.858,-761.5 545.858,-761.5"/>
<text text-anchor="middle" x="657.72" y="-874.3" font-family="Times,serif" font-size="14.00">Client</text>
<polyline fill="none" stroke="black" points="533.858,-867.5 781.583,-867.5 "/>
<text text-anchor="start" x="541.858" y="-852.3" font-family="Times,serif" font-size="14.00">icon_url :character varying</text>
<text text-anchor="start" x="541.858" y="-838.3" font-family="Times,serif" font-size="14.00">name :character varying</text>
<text text-anchor="start" x="541.858" y="-824.3" font-family="Times,serif" font-size="14.00">launch_url :character varying</text>
<text text-anchor="start" x="541.858" y="-810.3" font-family="Times,serif" font-size="14.00">id :uuid</text>
<text text-anchor="start" x="541.858" y="-796.3" font-family="Times,serif" font-size="14.00">available :boolean</text>
<text text-anchor="start" x="541.858" y="-782.3" font-family="Times,serif" font-size="14.00">created_at :timestamp without time zone</text>
<text text-anchor="start" x="541.858" y="-768.3" font-family="Times,serif" font-size="14.00">updated_at :timestamp without time zone</text>
</g>
<!-- Group -->
<g id="node5" class="node"><title>Group</title>
<path fill="none" stroke="black" d="M127.858,-623.5C127.858,-623.5 351.583,-623.5 351.583,-623.5 357.583,-623.5 363.583,-629.5 363.583,-635.5 363.583,-635.5 363.583,-711.5 363.583,-711.5 363.583,-717.5 357.583,-723.5 351.583,-723.5 351.583,-723.5 127.858,-723.5 127.858,-723.5 121.858,-723.5 115.858,-717.5 115.858,-711.5 115.858,-711.5 115.858,-635.5 115.858,-635.5 115.858,-629.5 121.858,-623.5 127.858,-623.5"/>
<text text-anchor="middle" x="239.72" y="-708.3" font-family="Times,serif" font-size="14.00">Group</text>
<polyline fill="none" stroke="black" points="115.858,-701.5 363.583,-701.5 "/>
<text text-anchor="start" x="123.858" y="-686.3" font-family="Times,serif" font-size="14.00">id :uuid</text>
<text text-anchor="start" x="123.858" y="-672.3" font-family="Times,serif" font-size="14.00">name :character varying</text>
<text text-anchor="start" x="123.858" y="-658.3" font-family="Times,serif" font-size="14.00">description :text</text>
<text text-anchor="start" x="123.858" y="-644.3" font-family="Times,serif" font-size="14.00">created_at :timestamp without time zone</text>
<text text-anchor="start" x="123.858" y="-630.3" font-family="Times,serif" font-size="14.00">updated_at :timestamp without time zone</text>
</g>
<!-- Group&#45;&gt;Appointment -->
<g id="edge3" class="edge"><title>Group&#45;&gt;Appointment</title>
<path fill="none" stroke="#2d62ca" d="M234.534,-615.353C231.512,-559.01 232.499,-471.371 258.72,-401 264.928,-384.341 269.277,-380.633 282.72,-369 295.354,-358.068 301.791,-360.225 315.72,-351 335.393,-337.971 355.77,-322.772 374.485,-308.036"/>
<ellipse fill="none" stroke="#2d62ca" cx="234.773" cy="-619.439" rx="4" ry="4"/>
<polygon fill="#2d62ca" stroke="#2d62ca" points="374.565,-307.972 385.195,-305.281 378.481,-304.864 382.398,-301.756 382.398,-301.756 382.398,-301.756 378.481,-304.864 379.6,-298.231 374.565,-307.972 374.565,-307.972"/>
</g>
<!-- Member -->
<g id="node9" class="node"><title>Member</title>
<path fill="none" stroke="black" d="M70.8579,-194.5C70.8579,-194.5 294.583,-194.5 294.583,-194.5 300.583,-194.5 306.583,-200.5 306.583,-206.5 306.583,-206.5 306.583,-282.5 306.583,-282.5 306.583,-288.5 300.583,-294.5 294.583,-294.5 294.583,-294.5 70.8579,-294.5 70.8579,-294.5 64.8579,-294.5 58.8579,-288.5 58.8579,-282.5 58.8579,-282.5 58.8579,-206.5 58.8579,-206.5 58.8579,-200.5 64.8579,-194.5 70.8579,-194.5"/>
<text text-anchor="middle" x="182.72" y="-279.3" font-family="Times,serif" font-size="14.00">Member</text>
<polyline fill="none" stroke="black" points="58.8579,-272.5 306.583,-272.5 "/>
<text text-anchor="start" x="66.8579" y="-257.3" font-family="Times,serif" font-size="14.00">id :uuid</text>
<text text-anchor="start" x="66.8579" y="-243.3" font-family="Times,serif" font-size="14.00">group_id :uuid</text>
<text text-anchor="start" x="66.8579" y="-229.3" font-family="Times,serif" font-size="14.00">user_id :uuid</text>
<text text-anchor="start" x="66.8579" y="-215.3" font-family="Times,serif" font-size="14.00">created_at :timestamp without time zone</text>
<text text-anchor="start" x="66.8579" y="-201.3" font-family="Times,serif" font-size="14.00">updated_at :timestamp without time zone</text>
</g>
<!-- Group&#45;&gt;Member -->
<g id="edge1" class="edge"><title>Group&#45;&gt;Member</title>
<path fill="none" stroke="#f1188c" d="M227.479,-615.162C226.854,-611.729 226.262,-608.322 225.72,-605 208.543,-499.75 195.248,-376.111 188.233,-304.682"/>
<ellipse fill="none" stroke="#f1188c" cx="228.248" cy="-619.26" rx="4.00001" ry="4.00001"/>
<polygon fill="#f1188c" stroke="#f1188c" points="188.214,-304.483 191.723,-294.094 187.729,-299.507 187.244,-294.531 187.244,-294.531 187.244,-294.531 187.729,-299.507 182.765,-294.967 188.214,-304.483 188.214,-304.483"/>
</g>
<!-- User -->
<g id="node12" class="node"><title>User</title>
<path fill="none" stroke="black" d="M279.858,-415.5C279.858,-415.5 503.583,-415.5 503.583,-415.5 509.583,-415.5 515.583,-421.5 515.583,-427.5 515.583,-427.5 515.583,-559.5 515.583,-559.5 515.583,-565.5 509.583,-571.5 503.583,-571.5 503.583,-571.5 279.858,-571.5 279.858,-571.5 273.858,-571.5 267.858,-565.5 267.858,-559.5 267.858,-559.5 267.858,-427.5 267.858,-427.5 267.858,-421.5 273.858,-415.5 279.858,-415.5"/>
<text text-anchor="middle" x="391.72" y="-556.3" font-family="Times,serif" font-size="14.00">User</text>
<polyline fill="none" stroke="black" points="267.858,-549.5 515.583,-549.5 "/>
<text text-anchor="start" x="275.858" y="-534.3" font-family="Times,serif" font-size="14.00">updated_at :timestamp without time zone</text>
<text text-anchor="start" x="275.858" y="-520.3" font-family="Times,serif" font-size="14.00">name :character varying</text>
<text text-anchor="start" x="275.858" y="-506.3" font-family="Times,serif" font-size="14.00">external_id :character varying</text>
<text text-anchor="start" x="275.858" y="-492.3" font-family="Times,serif" font-size="14.00">salutation :character varying</text>
<text text-anchor="start" x="275.858" y="-478.3" font-family="Times,serif" font-size="14.00">first_name :character varying</text>
<text text-anchor="start" x="275.858" y="-464.3" font-family="Times,serif" font-size="14.00">middle_name :character varying</text>
<text text-anchor="start" x="275.858" y="-450.3" font-family="Times,serif" font-size="14.00">last_name :character varying</text>
<text text-anchor="start" x="275.858" y="-436.3" font-family="Times,serif" font-size="14.00">created_at :timestamp without time zone</text>
<text text-anchor="start" x="275.858" y="-422.3" font-family="Times,serif" font-size="14.00">id :uuid</text>
</g>
<!-- Group&#45;&gt;User -->
<g id="edge2" class="edge"><title>Group&#45;&gt;User</title>
<path fill="none" stroke="#270c7e" d="M288.21,-615.716C298.155,-604.07 308.825,-591.574 319.401,-579.19"/>
<polygon fill="#270c7e" stroke="#270c7e" points="288.151,-615.785 278.235,-620.467 284.904,-619.587 281.657,-623.39 281.657,-623.39 281.657,-623.39 284.904,-619.587 285.079,-626.312 288.151,-615.785 288.151,-615.785"/>
<polygon fill="#270c7e" stroke="#270c7e" points="319.472,-579.106 329.388,-574.424 322.719,-575.304 325.966,-571.502 325.966,-571.502 325.966,-571.502 322.719,-575.304 322.544,-568.58 319.472,-579.106 319.472,-579.106"/>
</g>
<!-- Identity -->
<g id="node6" class="node"><title>Identity</title>
<path fill="none" stroke="black" d="M602.858,-138.5C602.858,-138.5 826.583,-138.5 826.583,-138.5 832.583,-138.5 838.583,-144.5 838.583,-150.5 838.583,-150.5 838.583,-338.5 838.583,-338.5 838.583,-344.5 832.583,-350.5 826.583,-350.5 826.583,-350.5 602.858,-350.5 602.858,-350.5 596.858,-350.5 590.858,-344.5 590.858,-338.5 590.858,-338.5 590.858,-150.5 590.858,-150.5 590.858,-144.5 596.858,-138.5 602.858,-138.5"/>
<text text-anchor="middle" x="714.72" y="-335.3" font-family="Times,serif" font-size="14.00">Identity</text>
<polyline fill="none" stroke="black" points="590.858,-328.5 838.583,-328.5 "/>
<text text-anchor="start" x="598.858" y="-313.3" font-family="Times,serif" font-size="14.00">updated_at :timestamp without time zone</text>
<text text-anchor="start" x="598.858" y="-299.3" font-family="Times,serif" font-size="14.00">user_id :uuid</text>
<text text-anchor="start" x="598.858" y="-285.3" font-family="Times,serif" font-size="14.00">identity_provider_id :uuid</text>
<text text-anchor="start" x="598.858" y="-271.3" font-family="Times,serif" font-size="14.00">sub :character varying</text>
<text text-anchor="start" x="598.858" y="-257.3" font-family="Times,serif" font-size="14.00">iat :character varying</text>
<text text-anchor="start" x="598.858" y="-243.3" font-family="Times,serif" font-size="14.00">hd :character varying</text>
<text text-anchor="start" x="598.858" y="-229.3" font-family="Times,serif" font-size="14.00">locale :character varying</text>
<text text-anchor="start" x="598.858" y="-215.3" font-family="Times,serif" font-size="14.00">email :character varying</text>
<text text-anchor="start" x="598.858" y="-201.3" font-family="Times,serif" font-size="14.00">jwt :json</text>
<text text-anchor="start" x="598.858" y="-187.3" font-family="Times,serif" font-size="14.00">notify_via_email :boolean</text>
<text text-anchor="start" x="598.858" y="-173.3" font-family="Times,serif" font-size="14.00">notify_via_sms :boolean</text>
<text text-anchor="start" x="598.858" y="-159.3" font-family="Times,serif" font-size="14.00">created_at :timestamp without time zone</text>
<text text-anchor="start" x="598.858" y="-145.3" font-family="Times,serif" font-size="14.00">id :uuid</text>
</g>
<!-- JsonWebToken -->
<g id="node8" class="node"><title>JsonWebToken</title>
<path fill="none" stroke="black" d="M469.858,-0.5C469.858,-0.5 693.583,-0.5 693.583,-0.5 699.583,-0.5 705.583,-6.5 705.583,-12.5 705.583,-12.5 705.583,-88.5 705.583,-88.5 705.583,-94.5 699.583,-100.5 693.583,-100.5 693.583,-100.5 469.858,-100.5 469.858,-100.5 463.858,-100.5 457.858,-94.5 457.858,-88.5 457.858,-88.5 457.858,-12.5 457.858,-12.5 457.858,-6.5 463.858,-0.5 469.858,-0.5"/>
<text text-anchor="middle" x="581.72" y="-85.3" font-family="Times,serif" font-size="14.00">JsonWebToken</text>
<polyline fill="none" stroke="black" points="457.858,-78.5 705.583,-78.5 "/>
<text text-anchor="start" x="465.858" y="-63.3" font-family="Times,serif" font-size="14.00">id :uuid</text>
<text text-anchor="start" x="465.858" y="-49.3" font-family="Times,serif" font-size="14.00">identity_id :uuid</text>
<text text-anchor="start" x="465.858" y="-35.3" font-family="Times,serif" font-size="14.00">expires_at :timestamp without time zone</text>
<text text-anchor="start" x="465.858" y="-21.3" font-family="Times,serif" font-size="14.00">created_at :timestamp without time zone</text>
<text text-anchor="start" x="465.858" y="-7.3" font-family="Times,serif" font-size="14.00">updated_at :timestamp without time zone</text>
</g>
<!-- Identity&#45;&gt;JsonWebToken -->
<g id="edge5" class="edge"><title>Identity&#45;&gt;JsonWebToken</title>
<path fill="none" stroke="#42c61f" d="M637.138,-131.502C631.781,-123.769 626.523,-116.178 621.508,-108.938"/>
<ellipse fill="none" stroke="#42c61f" cx="639.522" cy="-134.943" rx="4.00002" ry="4.00002"/>
<polygon fill="#42c61f" stroke="#42c61f" points="621.435,-108.833 619.44,-98.0503 618.588,-104.723 615.741,-100.613 615.741,-100.613 615.741,-100.613 618.588,-104.723 612.042,-103.175 621.435,-108.833 621.435,-108.833"/>
</g>
<!-- Session -->
<g id="node11" class="node"><title>Session</title>
<path fill="none" stroke="black" d="M735.858,-0.5C735.858,-0.5 959.583,-0.5 959.583,-0.5 965.583,-0.5 971.583,-6.5 971.583,-12.5 971.583,-12.5 971.583,-88.5 971.583,-88.5 971.583,-94.5 965.583,-100.5 959.583,-100.5 959.583,-100.5 735.858,-100.5 735.858,-100.5 729.858,-100.5 723.858,-94.5 723.858,-88.5 723.858,-88.5 723.858,-12.5 723.858,-12.5 723.858,-6.5 729.858,-0.5 735.858,-0.5"/>
<text text-anchor="middle" x="847.72" y="-85.3" font-family="Times,serif" font-size="14.00">Session</text>
<polyline fill="none" stroke="black" points="723.858,-78.5 971.583,-78.5 "/>
<text text-anchor="start" x="731.858" y="-63.3" font-family="Times,serif" font-size="14.00">id :uuid</text>
<text text-anchor="start" x="731.858" y="-49.3" font-family="Times,serif" font-size="14.00">identity_id :uuid</text>
<text text-anchor="start" x="731.858" y="-35.3" font-family="Times,serif" font-size="14.00">expires_at :timestamp without time zone</text>
<text text-anchor="start" x="731.858" y="-21.3" font-family="Times,serif" font-size="14.00">created_at :timestamp without time zone</text>
<text text-anchor="start" x="731.858" y="-7.3" font-family="Times,serif" font-size="14.00">updated_at :timestamp without time zone</text>
</g>
<!-- Identity&#45;&gt;Session -->
<g id="edge4" class="edge"><title>Identity&#45;&gt;Session</title>
<path fill="none" stroke="#615b97" d="M792.302,-131.502C797.659,-123.769 802.917,-116.178 807.932,-108.938"/>
<ellipse fill="none" stroke="#615b97" cx="789.918" cy="-134.943" rx="4.00002" ry="4.00002"/>
<polygon fill="#615b97" stroke="#615b97" points="808.005,-108.833 817.399,-103.175 810.852,-104.723 813.699,-100.613 813.699,-100.613 813.699,-100.613 810.852,-104.723 810,-98.0503 808.005,-108.833 808.005,-108.833"/>
</g>
<!-- IdentityProvider -->
<g id="node7" class="node"><title>IdentityProvider</title>
<path fill="none" stroke="black" d="M602.858,-401.5C602.858,-401.5 826.583,-401.5 826.583,-401.5 832.583,-401.5 838.583,-407.5 838.583,-413.5 838.583,-413.5 838.583,-573.5 838.583,-573.5 838.583,-579.5 832.583,-585.5 826.583,-585.5 826.583,-585.5 602.858,-585.5 602.858,-585.5 596.858,-585.5 590.858,-579.5 590.858,-573.5 590.858,-573.5 590.858,-413.5 590.858,-413.5 590.858,-407.5 596.858,-401.5 602.858,-401.5"/>
<text text-anchor="middle" x="714.72" y="-570.3" font-family="Times,serif" font-size="14.00">IdentityProvider</text>
<polyline fill="none" stroke="black" points="590.858,-563.5 838.583,-563.5 "/>
<text text-anchor="start" x="598.858" y="-548.3" font-family="Times,serif" font-size="14.00">scopes :character varying</text>
<text text-anchor="start" x="598.858" y="-534.3" font-family="Times,serif" font-size="14.00">name :character varying</text>
<text text-anchor="start" x="598.858" y="-520.3" font-family="Times,serif" font-size="14.00">issuer :character varying</text>
<text text-anchor="start" x="598.858" y="-506.3" font-family="Times,serif" font-size="14.00">client_id :character varying</text>
<text text-anchor="start" x="598.858" y="-492.3" font-family="Times,serif" font-size="14.00">client_secret :character varying</text>
<text text-anchor="start" x="598.858" y="-478.3" font-family="Times,serif" font-size="14.00">alternate_client_id :character varying</text>
<text text-anchor="start" x="598.858" y="-464.3" font-family="Times,serif" font-size="14.00">configuration :json</text>
<text text-anchor="start" x="598.858" y="-450.3" font-family="Times,serif" font-size="14.00">public_keys :json</text>
<text text-anchor="start" x="598.858" y="-436.3" font-family="Times,serif" font-size="14.00">created_at :timestamp without time zone</text>
<text text-anchor="start" x="598.858" y="-422.3" font-family="Times,serif" font-size="14.00">updated_at :timestamp without time zone</text>
<text text-anchor="start" x="598.858" y="-408.3" font-family="Times,serif" font-size="14.00">id :uuid</text>
</g>
<!-- IdentityProvider&#45;&gt;Identity -->
<g id="edge6" class="edge"><title>IdentityProvider&#45;&gt;Identity</title>
<path fill="none" stroke="#b01214" d="M714.72,-393.051C714.72,-382.455 714.72,-371.613 714.72,-360.854"/>
<ellipse fill="none" stroke="#b01214" cx="714.72" cy="-397.228" rx="4" ry="4"/>
<polygon fill="#b01214" stroke="#b01214" points="714.72,-360.575 719.22,-350.575 714.72,-355.575 714.72,-350.575 714.72,-350.575 714.72,-350.575 714.72,-355.575 710.22,-350.575 714.72,-360.575 714.72,-360.575"/>
</g>
<!-- Role -->
<g id="node10" class="node"><title>Role</title>
<path fill="none" stroke="black" d="M279.858,-768.5C279.858,-768.5 503.583,-768.5 503.583,-768.5 509.583,-768.5 515.583,-774.5 515.583,-780.5 515.583,-780.5 515.583,-870.5 515.583,-870.5 515.583,-876.5 509.583,-882.5 503.583,-882.5 503.583,-882.5 279.858,-882.5 279.858,-882.5 273.858,-882.5 267.858,-876.5 267.858,-870.5 267.858,-870.5 267.858,-780.5 267.858,-780.5 267.858,-774.5 273.858,-768.5 279.858,-768.5"/>
<text text-anchor="middle" x="391.72" y="-867.3" font-family="Times,serif" font-size="14.00">Role</text>
<polyline fill="none" stroke="black" points="267.858,-860.5 515.583,-860.5 "/>
<text text-anchor="start" x="275.858" y="-845.3" font-family="Times,serif" font-size="14.00">id :uuid</text>
<text text-anchor="start" x="275.858" y="-831.3" font-family="Times,serif" font-size="14.00">name :character varying</text>
<text text-anchor="start" x="275.858" y="-817.3" font-family="Times,serif" font-size="14.00">code :character varying</text>
<text text-anchor="start" x="275.858" y="-803.3" font-family="Times,serif" font-size="14.00">description :text</text>
<text text-anchor="start" x="275.858" y="-789.3" font-family="Times,serif" font-size="14.00">created_at :timestamp without time zone</text>
<text text-anchor="start" x="275.858" y="-775.3" font-family="Times,serif" font-size="14.00">updated_at :timestamp without time zone</text>
</g>
<!-- Role&#45;&gt;Appointment -->
<g id="edge7" class="edge"><title>Role&#45;&gt;Appointment</title>
<path fill="none" stroke="#a884ec" d="M438.536,-761.646C469.749,-715.646 508.007,-650.288 524.72,-586 545.409,-506.423 543.249,-481.107 524.72,-401 517.481,-369.7 503.032,-337.422 488.659,-310.442"/>
<ellipse fill="none" stroke="#a884ec" cx="436.246" cy="-764.99" rx="4.00002" ry="4.00002"/>
<polygon fill="#a884ec" stroke="#a884ec" points="488.576,-310.29 487.751,-299.355 486.187,-305.897 483.798,-301.505 483.798,-301.505 483.798,-301.505 486.187,-305.897 479.845,-303.655 488.576,-310.29 488.576,-310.29"/>
</g>
<!-- Role&#45;&gt;Group -->
<g id="edge9" class="edge"><title>Role&#45;&gt;Group</title>
<path fill="none" stroke="#9579bd" d="M327.319,-760.946C317.163,-750.924 306.725,-740.623 296.752,-730.781"/>
<polygon fill="#9579bd" stroke="#9579bd" points="327.571,-761.195 331.528,-771.422 331.13,-764.707 334.689,-768.219 334.689,-768.219 334.689,-768.219 331.13,-764.707 337.849,-765.016 327.571,-761.195 327.571,-761.195"/>
<polygon fill="#9579bd" stroke="#9579bd" points="296.701,-730.731 292.744,-720.503 293.142,-727.219 289.583,-723.706 289.583,-723.706 289.583,-723.706 293.142,-727.219 286.422,-726.909 296.701,-730.731 296.701,-730.731"/>
</g>
<!-- Role&#45;&gt;User -->
<g id="edge8" class="edge"><title>Role&#45;&gt;User</title>
<path fill="none" stroke="#aa578c" d="M391.72,-758.018C391.72,-707.308 391.72,-637.012 391.72,-581.778"/>
<polygon fill="#aa578c" stroke="#aa578c" points="391.72,-758.146 387.22,-768.146 391.72,-763.146 391.72,-768.146 391.72,-768.146 391.72,-768.146 391.72,-763.146 396.22,-768.146 391.72,-758.146 391.72,-758.146"/>
<polygon fill="#aa578c" stroke="#aa578c" points="391.72,-581.647 396.22,-571.647 391.72,-576.647 391.72,-571.647 391.72,-571.647 391.72,-571.647 391.72,-576.647 387.22,-571.647 391.72,-581.647 391.72,-581.647"/>
</g>
<!-- User&#45;&gt;Appointment -->
<g id="edge11" class="edge"><title>User&#45;&gt;Appointment</title>
<path fill="none" stroke="#7c3e45" d="M411.333,-407.511C418.586,-376.082 426.692,-340.956 433.497,-311.467"/>
<ellipse fill="none" stroke="#7c3e45" cx="410.42" cy="-411.466" rx="4.00001" ry="4.00001"/>
<polygon fill="#7c3e45" stroke="#7c3e45" points="433.503,-311.439 440.137,-302.707 434.628,-306.567 435.752,-301.695 435.752,-301.695 435.752,-301.695 434.628,-306.567 431.367,-300.683 433.503,-311.439 433.503,-311.439"/>
</g>
<!-- User&#45;&gt;Identity -->
<g id="edge12" class="edge"><title>User&#45;&gt;Identity</title>
<path fill="none" stroke="#c74227" d="M503.228,-410.34C529.11,-391.025 556.469,-370.41 581.72,-351 581.994,-350.79 582.268,-350.579 582.543,-350.368"/>
<ellipse fill="none" stroke="#c74227" cx="499.888" cy="-412.829" rx="4.00002" ry="4.00002"/>
<polygon fill="#c74227" stroke="#c74227" points="582.651,-350.284 593.317,-347.739 586.609,-347.23 590.568,-344.176 590.568,-344.176 590.568,-344.176 586.609,-347.23 587.819,-340.613 582.651,-350.284 582.651,-350.284"/>
</g>
<!-- User&#45;&gt;Member -->
<g id="edge10" class="edge"><title>User&#45;&gt;Member</title>
<path fill="none" stroke="#788ee0" d="M320.935,-408.845C291.369,-373.904 257.771,-334.196 231.104,-302.68"/>
<ellipse fill="none" stroke="#788ee0" cx="323.867" cy="-412.31" rx="4.00002" ry="4.00002"/>
<polygon fill="#788ee0" stroke="#788ee0" points="230.939,-302.486 227.915,-291.946 227.71,-298.669 224.48,-294.852 224.48,-294.852 224.48,-294.852 227.71,-298.669 221.045,-297.759 230.939,-302.486 230.939,-302.486"/>
<text text-anchor="middle" x="330.048" y="-371.8" font-family="Times,serif" font-size="14.00">memberships</text>
</g>
</g>
</svg>
