<?xml version="1.0" encoding="UTF-8" standalone="no"?>
<!DOCTYPE svg PUBLIC "-//W3C//DTD SVG 1.1//EN"
 "http://www.w3.org/Graphics/SVG/1.1/DTD/svg11.dtd">
<!-- Generated by graphviz version 2.40.1 (20161225.0304)
 -->
<!-- Title: models_diagram Pages: 1 -->
<svg width="1122pt" height="580pt"
 viewBox="0.00 0.00 1122.01 580.00" xmlns="http://www.w3.org/2000/svg" xmlns:xlink="http://www.w3.org/1999/xlink">
<g id="graph0" class="graph" transform="scale(1 1) rotate(0) translate(4 576)">
<title>models_diagram</title>
<polygon fill="transparent" stroke="transparent" points="-4,4 -4,-576 1118.0112,-576 1118.0112,4 -4,4"/>
<!-- _diagram_info -->
<g id="node1" class="node">
<title>_diagram_info</title>
<text text-anchor="start" x="8" y="-557.6" font-family="Times,serif" font-size="13.00" fill="#000000">Models diagram</text>
<text text-anchor="start" x="8" y="-544.6" font-family="Times,serif" font-size="13.00" fill="#000000">Date: Nov 27 2018 &#45; 15:46</text>
<text text-anchor="start" x="8" y="-531.6" font-family="Times,serif" font-size="13.00" fill="#000000">Migration version: 20170310212850</text>
<text text-anchor="start" x="8" y="-518.6" font-family="Times,serif" font-size="13.00" fill="#000000">Generated by RailRoady 1.5.3</text>
<text text-anchor="start" x="8" y="-505.6" font-family="Times,serif" font-size="13.00" fill="#000000">http://railroady.prestonlee.com</text>
</g>
<!-- Identity -->
<g id="node2" class="node">
<title>Identity</title>
<ellipse fill="none" stroke="#000000" cx="473.6877" cy="-285" rx="37.7266" ry="18"/>
<text text-anchor="middle" x="473.6877" y="-280.8" font-family="Times,serif" font-size="14.00" fill="#000000">Identity</text>
</g>
<!-- Session -->
<g id="node12" class="node">
<title>Session</title>
<ellipse fill="none" stroke="#000000" cx="416.6877" cy="-177" rx="37.2681" ry="18"/>
<text text-anchor="middle" x="416.6877" y="-172.8" font-family="Times,serif" font-size="14.00" fill="#000000">Session</text>
</g>
<!-- Identity&#45;&gt;Session -->
<g id="edge1" class="edge">
<title>Identity&#45;&gt;Session</title>
<path fill="none" stroke="#82cd76" d="M460.4317,-259.8833C451.4991,-242.9583 439.7355,-220.6693 430.6572,-203.4684"/>
<ellipse fill="none" stroke="#82cd76" cx="462.4083" cy="-263.6285" rx="4" ry="4"/>
<polygon fill="#82cd76" stroke="#82cd76" points="430.5926,-203.346 429.9047,-192.4017 428.2588,-198.9241 425.925,-194.5022 425.925,-194.5022 425.925,-194.5022 428.2588,-198.9241 421.9453,-196.6026 430.5926,-203.346 430.5926,-203.346"/>
</g>
<!-- JsonWebToken -->
<g id="node13" class="node">
<title>JsonWebToken</title>
<ellipse fill="none" stroke="#000000" cx="535.6877" cy="-177" rx="63.5968" ry="18"/>
<text text-anchor="middle" x="535.6877" y="-172.8" font-family="Times,serif" font-size="14.00" fill="#000000">JsonWebToken</text>
</g>
<!-- Identity&#45;&gt;JsonWebToken -->
<g id="edge2" class="edge">
<title>Identity&#45;&gt;JsonWebToken</title>
<path fill="none" stroke="#afee74" d="M487.9294,-260.192C497.5926,-243.3593 510.3619,-221.1159 520.2654,-203.8648"/>
<ellipse fill="none" stroke="#afee74" cx="485.9173" cy="-263.697" rx="4" ry="4"/>
<polygon fill="#afee74" stroke="#afee74" points="520.4558,-203.533 529.3371,-197.1009 522.9451,-199.1968 525.4345,-194.8605 525.4345,-194.8605 525.4345,-194.8605 522.9451,-199.1968 521.5319,-192.6201 520.4558,-203.533 520.4558,-203.533"/>
</g>
<!-- Screenshot -->
<g id="node3" class="node">
<title>Screenshot</title>
<ellipse fill="none" stroke="#000000" cx="744.6877" cy="-177" rx="48.8187" ry="18"/>
<text text-anchor="middle" x="744.6877" y="-172.8" font-family="Times,serif" font-size="14.00" fill="#000000">Screenshot</text>
</g>
<!-- Appointment -->
<g id="node4" class="node">
<title>Appointment</title>
<ellipse fill="none" stroke="#000000" cx="197.6877" cy="-285" rx="56.5545" ry="18"/>
<text text-anchor="middle" x="197.6877" y="-280.8" font-family="Times,serif" font-size="14.00" fill="#000000">Appointment</text>
</g>
<!-- Parameter -->
<g id="node5" class="node">
<title>Parameter</title>
<ellipse fill="none" stroke="#000000" cx="784.6877" cy="-18" rx="45.9028" ry="18"/>
<text text-anchor="middle" x="784.6877" y="-13.8" font-family="Times,serif" font-size="14.00" fill="#000000">Parameter</text>
</g>
<!-- Dependency -->
<g id="node6" class="node">
<title>Dependency</title>
<ellipse fill="none" stroke="#000000" cx="668.6877" cy="-91" rx="54.1058" ry="18"/>
<text text-anchor="middle" x="668.6877" y="-86.8" font-family="Times,serif" font-size="14.00" fill="#000000">Dependency</text>
</g>
<!-- Surrogate -->
<g id="node7" class="node">
<title>Surrogate</title>
<ellipse fill="none" stroke="#000000" cx="890.6877" cy="-91" rx="44.475" ry="18"/>
<text text-anchor="middle" x="890.6877" y="-86.8" font-family="Times,serif" font-size="14.00" fill="#000000">Surrogate</text>
</g>
<!-- License -->
<g id="node8" class="node">
<title>License</title>
<ellipse fill="none" stroke="#000000" cx="647.6877" cy="-371" rx="37.7092" ry="18"/>
<text text-anchor="middle" x="647.6877" y="-366.8" font-family="Times,serif" font-size="14.00" fill="#000000">License</text>
</g>
<!-- Service -->
<g id="node23" class="node">
<title>Service</title>
<ellipse fill="none" stroke="#000000" cx="647.6877" cy="-285" rx="36.7489" ry="18"/>
<text text-anchor="middle" x="647.6877" y="-280.8" font-family="Times,serif" font-size="14.00" fill="#000000">Service</text>
</g>
<!-- License&#45;&gt;Service -->
<g id="edge3" class="edge">
<title>License&#45;&gt;Service</title>
<path fill="none" stroke="#2dd602" d="M647.6877,-344.4021C647.6877,-334.585 647.6877,-323.4263 647.6877,-313.4515"/>
<ellipse fill="none" stroke="#2dd602" cx="647.6878" cy="-348.7616" rx="4" ry="4"/>
<polygon fill="#2dd602" stroke="#2dd602" points="647.6878,-313.2121 652.1877,-303.2121 647.6878,-308.2121 647.6877,-303.2121 647.6877,-303.2121 647.6877,-303.2121 647.6878,-308.2121 643.1877,-303.2121 647.6878,-313.2121 647.6878,-313.2121"/>
</g>
<!-- Group -->
<g id="node9" class="node">
<title>Group</title>
<ellipse fill="none" stroke="#000000" cx="252.6877" cy="-444" rx="32.9081" ry="18"/>
<text text-anchor="middle" x="252.6877" y="-439.8" font-family="Times,serif" font-size="14.00" fill="#000000">Group</text>
</g>
<!-- Group&#45;&gt;Appointment -->
<g id="edge6" class="edge">
<title>Group&#45;&gt;Appointment</title>
<path fill="none" stroke="#234493" d="M243.8222,-418.3705C233.828,-389.4781 217.6333,-342.6609 207.3305,-312.8762"/>
<ellipse fill="none" stroke="#234493" cx="245.1778" cy="-422.2895" rx="4" ry="4"/>
<polygon fill="#234493" stroke="#234493" points="207.2209,-312.5592 208.2045,-301.6376 205.5863,-307.834 203.9518,-303.1087 203.9518,-303.1087 203.9518,-303.1087 205.5863,-307.834 199.699,-304.5798 207.2209,-312.5592 207.2209,-312.5592"/>
</g>
<!-- Member -->
<g id="node11" class="node">
<title>Member</title>
<ellipse fill="none" stroke="#000000" cx="312.6877" cy="-285" rx="40.1317" ry="18"/>
<text text-anchor="middle" x="312.6877" y="-280.8" font-family="Times,serif" font-size="14.00" fill="#000000">Member</text>
</g>
<!-- Group&#45;&gt;Member -->
<g id="edge4" class="edge">
<title>Group&#45;&gt;Member</title>
<path fill="none" stroke="#fa3374" d="M258.339,-417.8919C262.6972,-399.4451 269.379,-374.3125 277.6877,-353 283.2218,-338.8046 290.8269,-323.6725 297.5345,-311.2956"/>
<ellipse fill="none" stroke="#fa3374" cx="257.401" cy="-421.9614" rx="4" ry="4"/>
<polygon fill="#fa3374" stroke="#fa3374" points="297.5988,-311.1794 306.3773,-304.6076 300.0192,-306.8043 302.4397,-302.4292 302.4397,-302.4292 302.4397,-302.4292 300.0192,-306.8043 298.5021,-300.2507 297.5988,-311.1794 297.5988,-311.1794"/>
</g>
<!-- User -->
<g id="node24" class="node">
<title>User</title>
<ellipse fill="none" stroke="#000000" cx="313.6877" cy="-371" rx="27" ry="18"/>
<text text-anchor="middle" x="313.6877" y="-366.8" font-family="Times,serif" font-size="14.00" fill="#000000">User</text>
</g>
<!-- Group&#45;&gt;User -->
<g id="edge5" class="edge">
<title>Group&#45;&gt;User</title>
<path fill="none" stroke="#d26f92" d="M273.0757,-419.6013C279.7367,-411.63 287.1232,-402.7904 293.7505,-394.8593"/>
<polygon fill="#d26f92" stroke="#d26f92" points="272.9418,-419.7616 263.0765,-424.5497 269.7357,-423.5984 266.5296,-427.4352 266.5296,-427.4352 266.5296,-427.4352 269.7357,-423.5984 269.9827,-430.3207 272.9418,-419.7616 272.9418,-419.7616"/>
<polygon fill="#d26f92" stroke="#d26f92" points="293.9077,-394.6712 303.773,-389.8831 297.1138,-390.8344 300.3199,-386.9976 300.3199,-386.9976 300.3199,-386.9976 297.1138,-390.8344 296.8668,-384.1121 293.9077,-394.6712 293.9077,-394.6712"/>
</g>
<!-- Platform -->
<g id="node10" class="node">
<title>Platform</title>
<ellipse fill="none" stroke="#000000" cx="356.6877" cy="-231" rx="41.1093" ry="18"/>
<text text-anchor="middle" x="356.6877" y="-226.8" font-family="Times,serif" font-size="14.00" fill="#000000">Platform</text>
</g>
<!-- Instance -->
<g id="node21" class="node">
<title>Instance</title>
<ellipse fill="none" stroke="#000000" cx="374.6877" cy="-91" rx="39.6385" ry="18"/>
<text text-anchor="middle" x="374.6877" y="-86.8" font-family="Times,serif" font-size="14.00" fill="#000000">Instance</text>
</g>
<!-- Platform&#45;&gt;Instance -->
<g id="edge7" class="edge">
<title>Platform&#45;&gt;Instance</title>
<path fill="none" stroke="#ba3460" d="M360.0445,-204.892C363.1718,-180.5685 367.823,-144.3921 371.0406,-119.3667"/>
<ellipse fill="none" stroke="#ba3460" cx="359.5142" cy="-209.0167" rx="4" ry="4"/>
<polygon fill="#ba3460" stroke="#ba3460" points="371.0478,-119.3097 376.7864,-109.9652 371.6855,-114.3505 372.3231,-109.3914 372.3231,-109.3914 372.3231,-109.3914 371.6855,-114.3505 367.8599,-108.8175 371.0478,-119.3097 371.0478,-119.3097"/>
</g>
<!-- Role -->
<g id="node14" class="node">
<title>Role</title>
<ellipse fill="none" stroke="#000000" cx="252.6877" cy="-535.5" rx="27" ry="18"/>
<text text-anchor="middle" x="252.6877" y="-531.3" font-family="Times,serif" font-size="14.00" fill="#000000">Role</text>
</g>
<!-- Role&#45;&gt;Appointment -->
<g id="edge8" class="edge">
<title>Role&#45;&gt;Appointment</title>
<path fill="none" stroke="#1f729f" d="M235.9316,-512.4347C226.7755,-498.5358 216.2044,-480.0749 210.6877,-462 195.2003,-411.2565 194.6656,-348.699 195.9755,-313.1762"/>
<ellipse fill="none" stroke="#1f729f" cx="238.3128" cy="-515.9494" rx="4" ry="4"/>
<polygon fill="#1f729f" stroke="#1f729f" points="195.9809,-313.0529 200.9223,-303.2635 196.2038,-308.0579 196.4267,-303.0629 196.4267,-303.0629 196.4267,-303.0629 196.2038,-308.0579 191.9312,-302.8623 195.9809,-313.0529 195.9809,-313.0529"/>
</g>
<!-- Role&#45;&gt;Group -->
<g id="edge10" class="edge">
<title>Role&#45;&gt;Group</title>
<path fill="none" stroke="#b2f79b" d="M252.6877,-507.2998C252.6877,-496.1245 252.6877,-483.3026 252.6877,-472.1338"/>
<polygon fill="#b2f79b" stroke="#b2f79b" points="252.6878,-507.4225 248.1877,-517.4225 252.6878,-512.4225 252.6877,-517.4225 252.6877,-517.4225 252.6877,-517.4225 252.6878,-512.4225 257.1877,-517.4226 252.6878,-507.4225 252.6878,-507.4225"/>
<polygon fill="#b2f79b" stroke="#b2f79b" points="252.6878,-472.0399 257.1877,-462.0399 252.6878,-467.0399 252.6877,-462.0399 252.6877,-462.0399 252.6877,-462.0399 252.6878,-467.0399 248.1877,-462.0399 252.6878,-472.0399 252.6878,-472.0399"/>
</g>
<!-- Role&#45;&gt;User -->
<g id="edge9" class="edge">
<title>Role&#45;&gt;User</title>
<path fill="none" stroke="#973e7f" d="M269.5452,-510.5746C278.191,-496.7787 288.2323,-479.0216 294.6877,-462 302.3902,-441.6903 307.2452,-417.584 310.1179,-399.2863"/>
<polygon fill="#973e7f" stroke="#973e7f" points="269.5235,-510.6084 260.3313,-516.5879 266.8202,-514.8147 264.1169,-519.0209 264.1169,-519.0209 264.1169,-519.0209 266.8202,-514.8147 267.9025,-521.4539 269.5235,-510.6084 269.5235,-510.6084"/>
<polygon fill="#973e7f" stroke="#973e7f" points="310.1376,-399.1513 316.0393,-389.9089 310.8622,-394.204 311.5868,-389.2568 311.5868,-389.2568 311.5868,-389.2568 310.8622,-394.204 307.1343,-388.6047 310.1376,-399.1513 310.1376,-399.1513"/>
</g>
<!-- Interface -->
<g id="node15" class="node">
<title>Interface</title>
<ellipse fill="none" stroke="#000000" cx="852.6877" cy="-177" rx="41.542" ry="18"/>
<text text-anchor="middle" x="852.6877" y="-172.8" font-family="Times,serif" font-size="14.00" fill="#000000">Interface</text>
</g>
<!-- Interface&#45;&gt;Dependency -->
<g id="edge16" class="edge">
<title>Interface&#45;&gt;Dependency</title>
<path fill="none" stroke="#f4f5c9" d="M816.9461,-160.2947C786.0826,-145.8693 741.508,-125.0355 709.3018,-109.9827"/>
<ellipse fill="none" stroke="#f4f5c9" cx="820.7173" cy="-162.0572" rx="4" ry="4"/>
<polygon fill="#f4f5c9" stroke="#f4f5c9" points="709.2103,-109.94 702.0565,-101.629 704.6807,-107.8228 700.151,-105.7057 700.151,-105.7057 700.151,-105.7057 704.6807,-107.8228 698.2456,-109.7824 709.2103,-109.94 709.2103,-109.94"/>
</g>
<!-- Interface&#45;&gt;Surrogate -->
<g id="edge11" class="edge">
<title>Interface&#45;&gt;Surrogate</title>
<path fill="none" stroke="#e2f68d" d="M829.7724,-154.3054C823.8231,-145.6792 820.3736,-135.8115 825.5706,-127 830.5385,-118.5768 838.2626,-111.9872 846.6784,-106.8834"/>
<ellipse fill="none" stroke="#e2f68d" cx="832.2446" cy="-157.4698" rx="4" ry="4"/>
<polygon fill="#e2f68d" stroke="#e2f68d" points="846.8013,-106.8175 857.7406,-106.0529 851.2068,-104.4527 855.6123,-102.088 855.6123,-102.088 855.6123,-102.088 851.2068,-104.4527 853.484,-98.123 846.8013,-106.8175 846.8013,-106.8175"/>
<text text-anchor="middle" x="854.2463" y="-129.8" font-family="Times,serif" font-size="14.00" fill="#000000">substitutes</text>
</g>
<!-- Interface&#45;&gt;Surrogate -->
<g id="edge12" class="edge">
<title>Interface&#45;&gt;Surrogate</title>
<path fill="none" stroke="#849377" d="M876.3488,-154.3935C879.6149,-150.2309 882.57,-145.7037 884.6877,-141 887.678,-134.3582 889.3574,-126.7439 890.2625,-119.4935"/>
<ellipse fill="none" stroke="#849377" cx="873.6354" cy="-157.5672" rx="4" ry="4"/>
<polygon fill="#849377" stroke="#849377" points="890.282,-119.2535 895.582,-109.6535 890.6895,-114.2702 891.097,-109.2868 891.097,-109.2868 891.097,-109.2868 890.6895,-114.2702 886.612,-108.9201 890.282,-119.2535 890.282,-119.2535"/>
</g>
<!-- Interface&#45;&gt;Interface -->
<g id="edge14" class="edge">
<title>Interface&#45;&gt;Interface</title>
<path fill="none" stroke="#543df1" d="M898.2966,-184.4201C906.4842,-183.4615 912.2087,-180.9881 912.2087,-177 912.2087,-173.3374 907.3807,-170.9524 900.2507,-169.845"/>
<ellipse fill="none" stroke="#543df1" cx="894.1723" cy="-184.6509" rx="4" ry="4"/>
<polygon fill="#543df1" stroke="#543df1" points="900.1531,-169.8381 890.4992,-164.6369 895.1658,-169.4818 890.1785,-169.1255 890.1785,-169.1255 890.1785,-169.1255 895.1658,-169.4818 889.8579,-173.614 900.1531,-169.8381 900.1531,-169.8381"/>
<text text-anchor="middle" x="973.2468" y="-172.8" font-family="Times,serif" font-size="14.00" fill="#000000">substituted_interfaces</text>
</g>
<!-- Exposure -->
<g id="node16" class="node">
<title>Exposure</title>
<ellipse fill="none" stroke="#000000" cx="784.6877" cy="-91" rx="43.5146" ry="18"/>
<text text-anchor="middle" x="784.6877" y="-86.8" font-family="Times,serif" font-size="14.00" fill="#000000">Exposure</text>
</g>
<!-- Interface&#45;&gt;Exposure -->
<g id="edge15" class="edge">
<title>Interface&#45;&gt;Exposure</title>
<path fill="none" stroke="#92e4c8" d="M830.148,-154.2225C826.205,-149.936 822.2338,-145.4121 818.6877,-141 812.6674,-133.5095 806.6049,-124.9822 801.3003,-117.1175"/>
<ellipse fill="none" stroke="#92e4c8" cx="833.1126" cy="-157.3772" rx="4" ry="4"/>
<polygon fill="#92e4c8" stroke="#92e4c8" points="801.1909,-116.952 799.4297,-106.1284 798.4334,-112.7811 795.6759,-108.6102 795.6759,-108.6102 795.6759,-108.6102 798.4334,-112.7811 791.9221,-111.092 801.1909,-116.952 801.1909,-116.952"/>
</g>
<!-- SurrogatedInterface -->
<g id="node27" class="node">
<title>SurrogatedInterface</title>
<ellipse fill="none" stroke="#000000" cx="1033.6877" cy="-91" rx="80.1472" ry="18"/>
<text text-anchor="middle" x="1033.6877" y="-86.8" font-family="Times,serif" font-size="14.00" fill="#000000">SurrogatedInterface</text>
</g>
<!-- Interface&#45;&gt;SurrogatedInterface -->
<g id="edge13" class="edge">
<title>Interface&#45;&gt;SurrogatedInterface</title>
<path fill="none" stroke="#a6561a" d="M890.0286,-159.258C919.0688,-145.4598 959.422,-126.2865 989.9685,-111.7727"/>
<polygon fill="#a6561a" stroke="#a6561a" points="890.0013,-159.2709 879.0378,-159.498 885.4851,-161.4167 880.969,-163.5625 880.969,-163.5625 880.969,-163.5625 885.4851,-161.4167 882.9002,-167.627 890.0013,-159.2709 890.0013,-159.2709"/>
<polygon fill="#a6561a" stroke="#a6561a" points="990.0779,-111.7208 1001.0414,-111.4936 994.594,-109.5749 999.1102,-107.4291 999.1102,-107.4291 999.1102,-107.4291 994.594,-109.5749 997.179,-103.3646 990.0779,-111.7208 990.0779,-111.7208"/>
</g>
<!-- Exposure&#45;&gt;Parameter -->
<g id="edge17" class="edge">
<title>Exposure&#45;&gt;Parameter</title>
<path fill="none" stroke="#938dab" d="M784.6877,-64.9079C784.6877,-58.9427 784.6877,-52.5729 784.6877,-46.512"/>
<ellipse fill="none" stroke="#938dab" cx="784.6878" cy="-68.9551" rx="4" ry="4"/>
<polygon fill="#938dab" stroke="#938dab" points="784.6878,-46.0904 789.1877,-36.0903 784.6878,-41.0904 784.6877,-36.0904 784.6877,-36.0904 784.6877,-36.0904 784.6878,-41.0904 780.1877,-36.0904 784.6878,-46.0904 784.6878,-46.0904"/>
</g>
<!-- Client -->
<g id="node17" class="node">
<title>Client</title>
<ellipse fill="none" stroke="#000000" cx="329.6877" cy="-535.5" rx="31.948" ry="18"/>
<text text-anchor="middle" x="329.6877" y="-531.3" font-family="Times,serif" font-size="14.00" fill="#000000">Client</text>
</g>
<!-- Ability -->
<g id="node18" class="node">
<title>Ability</title>
<polygon fill="none" stroke="#000000" points="435.3577,-553.5 380.0178,-553.5 380.0178,-517.5 435.3577,-517.5 435.3577,-553.5"/>
<text text-anchor="middle" x="407.6877" y="-531.3" font-family="Times,serif" font-size="14.00" fill="#000000">Ability</text>
</g>
<!-- ApplicationRecord -->
<g id="node19" class="node">
<title>ApplicationRecord</title>
<ellipse fill="none" stroke="#000000" cx="530.6877" cy="-535.5" rx="77.2916" ry="18"/>
<text text-anchor="middle" x="530.6877" y="-531.3" font-family="Times,serif" font-size="14.00" fill="#000000">ApplicationRecord</text>
</g>
<!-- Configuration -->
<g id="node20" class="node">
<title>Configuration</title>
<ellipse fill="none" stroke="#000000" cx="536.6877" cy="-91" rx="59.4773" ry="18"/>
<text text-anchor="middle" x="536.6877" y="-86.8" font-family="Times,serif" font-size="14.00" fill="#000000">Configuration</text>
</g>
<!-- Task -->
<g id="node26" class="node">
<title>Task</title>
<ellipse fill="none" stroke="#000000" cx="536.6877" cy="-18" rx="27" ry="18"/>
<text text-anchor="middle" x="536.6877" y="-13.8" font-family="Times,serif" font-size="14.00" fill="#000000">Task</text>
</g>
<!-- Configuration&#45;&gt;Task -->
<g id="edge18" class="edge">
<title>Configuration&#45;&gt;Task</title>
<path fill="none" stroke="#b5f278" d="M536.6877,-64.9079C536.6877,-58.9427 536.6877,-52.5729 536.6877,-46.512"/>
<ellipse fill="none" stroke="#b5f278" cx="536.6878" cy="-68.9551" rx="4" ry="4"/>
<polygon fill="#b5f278" stroke="#b5f278" points="536.6878,-46.0904 541.1877,-36.0903 536.6878,-41.0904 536.6877,-36.0904 536.6877,-36.0904 536.6877,-36.0904 536.6878,-41.0904 532.1877,-36.0904 536.6878,-46.0904 536.6878,-46.0904"/>
</g>
<!-- Build -->
<g id="node22" class="node">
<title>Build</title>
<ellipse fill="none" stroke="#000000" cx="647.6877" cy="-177" rx="29.5275" ry="18"/>
<text text-anchor="middle" x="647.6877" y="-172.8" font-family="Times,serif" font-size="14.00" fill="#000000">Build</text>
</g>
<!-- Build&#45;&gt;Dependency -->
<g id="edge21" class="edge">
<title>Build&#45;&gt;Dependency</title>
<path fill="none" stroke="#7f8755" d="M654.0006,-151.1474C656.4848,-140.9738 659.3431,-129.2687 661.874,-118.904"/>
<ellipse fill="none" stroke="#7f8755" cx="652.9879" cy="-155.2949" rx="4" ry="4"/>
<polygon fill="#7f8755" stroke="#7f8755" points="661.8976,-118.8069 668.6414,-110.1598 663.0837,-113.9496 664.2699,-109.0923 664.2699,-109.0923 664.2699,-109.0923 663.0837,-113.9496 659.8983,-108.0248 661.8976,-118.8069 661.8976,-118.8069"/>
</g>
<!-- Build&#45;&gt;Exposure -->
<g id="edge20" class="edge">
<title>Build&#45;&gt;Exposure</title>
<path fill="none" stroke="#dd4034" d="M675.528,-159.5236C697.6411,-145.6424 728.6137,-126.1998 751.9209,-111.569"/>
<ellipse fill="none" stroke="#dd4034" cx="671.8829" cy="-161.8118" rx="4" ry="4"/>
<polygon fill="#dd4034" stroke="#dd4034" points="751.9743,-111.5355 762.8364,-110.0301 756.2091,-108.8771 760.4439,-106.2188 760.4439,-106.2188 760.4439,-106.2188 756.2091,-108.8771 758.0513,-102.4075 751.9743,-111.5355 751.9743,-111.5355"/>
</g>
<!-- Build&#45;&gt;Configuration -->
<g id="edge22" class="edge">
<title>Build&#45;&gt;Configuration</title>
<path fill="none" stroke="#dba6ea" d="M622.8502,-157.7565C606.2451,-144.8913 584.3031,-127.8912 566.7175,-114.2663"/>
<ellipse fill="none" stroke="#dba6ea" cx="626.1963" cy="-160.349" rx="4" ry="4"/>
<polygon fill="#dba6ea" stroke="#dba6ea" points="566.3821,-114.0065 561.2332,-104.3246 562.4296,-110.9441 558.4771,-107.8818 558.4771,-107.8818 558.4771,-107.8818 562.4296,-110.9441 555.721,-111.4391 566.3821,-114.0065 566.3821,-114.0065"/>
</g>
<!-- Build&#45;&gt;Instance -->
<g id="edge19" class="edge">
<title>Build&#45;&gt;Instance</title>
<path fill="none" stroke="#93f324" d="M617.0668,-162.3487C614.2563,-161.1616 611.4339,-160.0262 608.6877,-159 544.2621,-134.9257 467.2949,-114.0048 419.6967,-101.9409"/>
<ellipse fill="none" stroke="#93f324" cx="620.7546" cy="-163.9654" rx="4" ry="4"/>
<polygon fill="#93f324" stroke="#93f324" points="419.4084,-101.8685 410.8071,-95.0664 414.5592,-100.6495 409.7101,-99.4306 409.7101,-99.4306 409.7101,-99.4306 414.5592,-100.6495 408.613,-103.7949 419.4084,-101.8685 419.4084,-101.8685"/>
</g>
<!-- Service&#45;&gt;Screenshot -->
<g id="edge24" class="edge">
<title>Service&#45;&gt;Screenshot</title>
<path fill="none" stroke="#964d95" d="M668.2367,-262.1207C684.0814,-244.4792 705.9687,-220.1099 722.2653,-201.9652"/>
<ellipse fill="none" stroke="#964d95" cx="665.5168" cy="-265.1491" rx="4" ry="4"/>
<polygon fill="#964d95" stroke="#964d95" points="722.6357,-201.5527 732.6657,-197.1198 725.9768,-197.8328 729.3178,-194.1129 729.3178,-194.1129 729.3178,-194.1129 725.9768,-197.8328 725.9699,-191.106 722.6357,-201.5527 722.6357,-201.5527"/>
</g>
<!-- Service&#45;&gt;Build -->
<g id="edge23" class="edge">
<title>Service&#45;&gt;Build</title>
<path fill="none" stroke="#69c24b" d="M647.6877,-258.4153C647.6877,-242.2464 647.6877,-221.6143 647.6877,-205.166"/>
<ellipse fill="none" stroke="#69c24b" cx="647.6878" cy="-262.6793" rx="4" ry="4"/>
<polygon fill="#69c24b" stroke="#69c24b" points="647.6878,-205.0502 652.1877,-195.0501 647.6878,-200.0502 647.6877,-195.0502 647.6877,-195.0502 647.6877,-195.0502 647.6878,-200.0502 643.1877,-195.0502 647.6878,-205.0502 647.6878,-205.0502"/>
</g>
<!-- User&#45;&gt;Identity -->
<g id="edge27" class="edge">
<title>User&#45;&gt;Identity</title>
<path fill="none" stroke="#3d33d1" d="M346.68,-362.3002C366.8071,-356.2341 392.6263,-347.0631 413.6877,-335 426.4393,-327.6964 439.1474,-317.6158 449.5635,-308.4183"/>
<ellipse fill="none" stroke="#3d33d1" cx="342.829" cy="-363.4275" rx="4" ry="4"/>
<polygon fill="#3d33d1" stroke="#3d33d1" points="449.6451,-308.3442 460.0717,-304.9476 453.3449,-304.981 457.0448,-301.6178 457.0448,-301.6178 457.0448,-301.6178 453.3449,-304.981 454.0179,-298.2879 449.6451,-308.3442 449.6451,-308.3442"/>
</g>
<!-- User&#45;&gt;Appointment -->
<g id="edge26" class="edge">
<title>User&#45;&gt;Appointment</title>
<path fill="none" stroke="#795af3" d="M288.9806,-352.6827C271.1894,-339.4926 247.0789,-321.6176 228.1034,-307.5495"/>
<ellipse fill="none" stroke="#795af3" cx="292.3495" cy="-355.1802" rx="4" ry="4"/>
<polygon fill="#795af3" stroke="#795af3" points="228.0868,-307.5373 222.7337,-297.9668 224.0703,-304.5595 220.0537,-301.5817 220.0537,-301.5817 220.0537,-301.5817 224.0703,-304.5595 217.3737,-305.1966 228.0868,-307.5373 228.0868,-307.5373"/>
</g>
<!-- User&#45;&gt;Platform -->
<g id="edge28" class="edge">
<title>User&#45;&gt;Platform</title>
<path fill="none" stroke="#1bcc55" d="M347.5178,-363.5191C362.8636,-358.255 379.5829,-349.4697 388.6877,-335 403.8969,-310.8292 389.9849,-278.9392 376.0412,-256.8751"/>
<ellipse fill="none" stroke="#1bcc55" cx="343.4851" cy="-364.7739" rx="4" ry="4"/>
<polygon fill="#1bcc55" stroke="#1bcc55" points="375.9078,-256.6755 374.0937,-245.8607 373.1299,-252.5182 370.352,-248.3608 370.352,-248.3608 370.352,-248.3608 373.1299,-252.5182 366.6104,-250.8609 375.9078,-256.6755 375.9078,-256.6755"/>
</g>
<!-- User&#45;&gt;Member -->
<g id="edge25" class="edge">
<title>User&#45;&gt;Member</title>
<path fill="none" stroke="#386854" d="M313.3785,-344.4021C313.2643,-334.585 313.1346,-323.4263 313.0186,-313.4515"/>
<ellipse fill="none" stroke="#386854" cx="313.4291" cy="-348.7619" rx="4" ry="4"/>
<polygon fill="#386854" stroke="#386854" points="313.0159,-313.2114 317.3992,-303.1597 312.9577,-308.2118 312.8995,-303.2121 312.8995,-303.2121 312.8995,-303.2121 312.9577,-308.2118 308.3998,-303.2645 313.0159,-313.2114 313.0159,-313.2114"/>
<text text-anchor="middle" x="351.0154" y="-323.8" font-family="Times,serif" font-size="14.00" fill="#000000">memberships</text>
</g>
<!-- User&#45;&gt;Service -->
<g id="edge29" class="edge">
<title>User&#45;&gt;Service</title>
<path fill="none" stroke="#90dea9" d="M346.87,-362.4561C407.9099,-346.7392 537.9049,-313.2674 605.2584,-295.9249"/>
<ellipse fill="none" stroke="#90dea9" cx="342.9398" cy="-363.468" rx="4" ry="4"/>
<polygon fill="#90dea9" stroke="#90dea9" points="605.4339,-295.8798 616.2402,-297.7441 610.276,-294.633 615.1181,-293.3862 615.1181,-293.3862 615.1181,-293.3862 610.276,-294.633 613.9959,-289.0283 605.4339,-295.8798 605.4339,-295.8798"/>
</g>
<!-- IdentityProvider -->
<g id="node25" class="node">
<title>IdentityProvider</title>
<ellipse fill="none" stroke="#000000" cx="477.6877" cy="-371" rx="68.1374" ry="18"/>
<text text-anchor="middle" x="477.6877" y="-366.8" font-family="Times,serif" font-size="14.00" fill="#000000">IdentityProvider</text>
</g>
<!-- IdentityProvider&#45;&gt;Identity -->
<g id="edge30" class="edge">
<title>IdentityProvider&#45;&gt;Identity</title>
<path fill="none" stroke="#355bb6" d="M476.4506,-344.4021C475.994,-334.585 475.475,-323.4263 475.0111,-313.4515"/>
<ellipse fill="none" stroke="#355bb6" cx="476.6536" cy="-348.7659" rx="4" ry="4"/>
<polygon fill="#355bb6" stroke="#355bb6" points="474.9995,-313.2013 479.03,-303.003 474.7672,-308.2067 474.5348,-303.2121 474.5348,-303.2121 474.5348,-303.2121 474.7672,-308.2067 470.0397,-303.4212 474.9995,-313.2013 474.9995,-313.2013"/>
</g>
</g>
</svg>
