<?xml version="1.0" encoding="UTF-8" standalone="no"?>
<!DOCTYPE svg PUBLIC "-//W3C//DTD SVG 1.1//EN"
 "http://www.w3.org/Graphics/SVG/1.1/DTD/svg11.dtd">
<!-- Generated by graphviz version 2.40.1 (20161225.0304)
 -->
<!-- Title: models_diagram Pages: 1 -->
<svg width="1193pt" height="580pt"
 viewBox="0.00 0.00 1193.49 580.00" xmlns="http://www.w3.org/2000/svg" xmlns:xlink="http://www.w3.org/1999/xlink">
<g id="graph0" class="graph" transform="scale(1 1) rotate(0) translate(4 576)">
<title>models_diagram</title>
<polygon fill="transparent" stroke="transparent" points="-4,4 -4,-576 1189.4858,-576 1189.4858,4 -4,4"/>
<!-- _diagram_info -->
<g id="node1" class="node">
<title>_diagram_info</title>
<text text-anchor="start" x="8" y="-557.6" font-family="Times,serif" font-size="13.00" fill="#000000">Models diagram</text>
<text text-anchor="start" x="8" y="-544.6" font-family="Times,serif" font-size="13.00" fill="#000000">Date: Jun 06 2017 &#45; 11:50</text>
<text text-anchor="start" x="8" y="-531.6" font-family="Times,serif" font-size="13.00" fill="#000000">Migration version: 20170310212850</text>
<text text-anchor="start" x="8" y="-518.6" font-family="Times,serif" font-size="13.00" fill="#000000">Generated by RailRoady 1.5.3</text>
<text text-anchor="start" x="8" y="-505.6" font-family="Times,serif" font-size="13.00" fill="#000000">http://railroady.prestonlee.com</text>
</g>
<!-- Ability -->
<g id="node2" class="node">
<title>Ability</title>
<polygon fill="none" stroke="#000000" points="281.3577,-553.5 226.0178,-553.5 226.0178,-517.5 281.3577,-517.5 281.3577,-553.5"/>
<text text-anchor="middle" x="253.6877" y="-531.3" font-family="Times,serif" font-size="14.00" fill="#000000">Ability</text>
</g>
<!-- ApplicationRecord -->
<g id="node3" class="node">
<title>ApplicationRecord</title>
<ellipse fill="none" stroke="#000000" cx="376.6877" cy="-535.5" rx="77.2916" ry="18"/>
<text text-anchor="middle" x="376.6877" y="-531.3" font-family="Times,serif" font-size="14.00" fill="#000000">ApplicationRecord</text>
</g>
<!-- Appointment -->
<g id="node4" class="node">
<title>Appointment</title>
<ellipse fill="none" stroke="#000000" cx="358.6877" cy="-285" rx="56.5545" ry="18"/>
<text text-anchor="middle" x="358.6877" y="-280.8" font-family="Times,serif" font-size="14.00" fill="#000000">Appointment</text>
</g>
<!-- Build -->
<g id="node5" class="node">
<title>Build</title>
<ellipse fill="none" stroke="#000000" cx="560.6877" cy="-177" rx="29.5275" ry="18"/>
<text text-anchor="middle" x="560.6877" y="-172.8" font-family="Times,serif" font-size="14.00" fill="#000000">Build</text>
</g>
<!-- Configuration -->
<g id="node7" class="node">
<title>Configuration</title>
<ellipse fill="none" stroke="#000000" cx="560.6877" cy="-91" rx="59.4773" ry="18"/>
<text text-anchor="middle" x="560.6877" y="-86.8" font-family="Times,serif" font-size="14.00" fill="#000000">Configuration</text>
</g>
<!-- Build&#45;&gt;Configuration -->
<g id="edge4" class="edge">
<title>Build&#45;&gt;Configuration</title>
<path fill="none" stroke="#1ff875" d="M560.6877,-150.4021C560.6877,-140.585 560.6877,-129.4263 560.6877,-119.4515"/>
<ellipse fill="none" stroke="#1ff875" cx="560.6878" cy="-154.7616" rx="4" ry="4"/>
<polygon fill="#1ff875" stroke="#1ff875" points="560.6878,-119.2121 565.1877,-109.2121 560.6878,-114.2121 560.6877,-109.2121 560.6877,-109.2121 560.6877,-109.2121 560.6878,-114.2121 556.1877,-109.2121 560.6878,-119.2121 560.6878,-119.2121"/>
</g>
<!-- Dependency -->
<g id="node8" class="node">
<title>Dependency</title>
<ellipse fill="none" stroke="#000000" cx="692.6877" cy="-91" rx="54.1058" ry="18"/>
<text text-anchor="middle" x="692.6877" y="-86.8" font-family="Times,serif" font-size="14.00" fill="#000000">Dependency</text>
</g>
<!-- Build&#45;&gt;Dependency -->
<g id="edge3" class="edge">
<title>Build&#45;&gt;Dependency</title>
<path fill="none" stroke="#6a5950" d="M587.9872,-159.214C608.7925,-145.659 637.5313,-126.9353 659.637,-112.5331"/>
<ellipse fill="none" stroke="#6a5950" cx="584.3749" cy="-161.5674" rx="4" ry="4"/>
<polygon fill="#6a5950" stroke="#6a5950" points="659.6768,-112.5071 670.512,-110.8187 663.8662,-109.7777 668.0555,-107.0483 668.0555,-107.0483 668.0555,-107.0483 663.8662,-109.7777 665.599,-103.2779 659.6768,-112.5071 659.6768,-112.5071"/>
</g>
<!-- Exposure -->
<g id="node9" class="node">
<title>Exposure</title>
<ellipse fill="none" stroke="#000000" cx="808.6877" cy="-91" rx="43.5146" ry="18"/>
<text text-anchor="middle" x="808.6877" y="-86.8" font-family="Times,serif" font-size="14.00" fill="#000000">Exposure</text>
</g>
<!-- Build&#45;&gt;Exposure -->
<g id="edge2" class="edge">
<title>Build&#45;&gt;Exposure</title>
<path fill="none" stroke="#9ecd1c" d="M591.3394,-162.4292C594.1434,-161.2251 596.9559,-160.0636 599.6877,-159 667.5342,-132.5843 686.5485,-131.8188 755.6877,-109 758.8253,-107.9645 762.0642,-106.8865 765.3224,-105.7957"/>
<ellipse fill="none" stroke="#9ecd1c" cx="587.656" cy="-164.0594" rx="4" ry="4"/>
<polygon fill="#9ecd1c" stroke="#9ecd1c" points="765.5946,-105.7041 776.5077,-106.7788 770.3334,-104.109 775.0721,-102.5139 775.0721,-102.5139 775.0721,-102.5139 770.3334,-104.109 773.6365,-98.249 765.5946,-105.7041 765.5946,-105.7041"/>
</g>
<!-- Instance -->
<g id="node13" class="node">
<title>Instance</title>
<ellipse fill="none" stroke="#000000" cx="443.6877" cy="-91" rx="39.6385" ry="18"/>
<text text-anchor="middle" x="443.6877" y="-86.8" font-family="Times,serif" font-size="14.00" fill="#000000">Instance</text>
</g>
<!-- Build&#45;&gt;Instance -->
<g id="edge1" class="edge">
<title>Build&#45;&gt;Instance</title>
<path fill="none" stroke="#a2c415" d="M535.1011,-158.1928C516.7263,-144.6865 491.9294,-126.4597 472.7978,-112.3972"/>
<ellipse fill="none" stroke="#a2c415" cx="538.4063" cy="-160.6222" rx="4" ry="4"/>
<polygon fill="#a2c415" stroke="#a2c415" points="472.7733,-112.3792 467.381,-102.8307 468.7446,-109.4179 464.7158,-106.4565 464.7158,-106.4565 464.7158,-106.4565 468.7446,-109.4179 462.0506,-110.0824 472.7733,-112.3792 472.7733,-112.3792"/>
</g>
<!-- Client -->
<g id="node6" class="node">
<title>Client</title>
<ellipse fill="none" stroke="#000000" cx="575.6877" cy="-535.5" rx="31.948" ry="18"/>
<text text-anchor="middle" x="575.6877" y="-531.3" font-family="Times,serif" font-size="14.00" fill="#000000">Client</text>
</g>
<!-- Task -->
<g id="node25" class="node">
<title>Task</title>
<ellipse fill="none" stroke="#000000" cx="560.6877" cy="-18" rx="27" ry="18"/>
<text text-anchor="middle" x="560.6877" y="-13.8" font-family="Times,serif" font-size="14.00" fill="#000000">Task</text>
</g>
<!-- Configuration&#45;&gt;Task -->
<g id="edge5" class="edge">
<title>Configuration&#45;&gt;Task</title>
<path fill="none" stroke="#98f9fd" d="M560.6877,-64.9079C560.6877,-58.9427 560.6877,-52.5729 560.6877,-46.512"/>
<ellipse fill="none" stroke="#98f9fd" cx="560.6878" cy="-68.9551" rx="4" ry="4"/>
<polygon fill="#98f9fd" stroke="#98f9fd" points="560.6878,-46.0904 565.1877,-36.0903 560.6878,-41.0904 560.6877,-36.0904 560.6877,-36.0904 560.6877,-36.0904 560.6878,-41.0904 556.1877,-36.0904 560.6878,-46.0904 560.6878,-46.0904"/>
</g>
<!-- Parameter -->
<g id="node18" class="node">
<title>Parameter</title>
<ellipse fill="none" stroke="#000000" cx="808.6877" cy="-18" rx="45.9028" ry="18"/>
<text text-anchor="middle" x="808.6877" y="-13.8" font-family="Times,serif" font-size="14.00" fill="#000000">Parameter</text>
</g>
<!-- Exposure&#45;&gt;Parameter -->
<g id="edge6" class="edge">
<title>Exposure&#45;&gt;Parameter</title>
<path fill="none" stroke="#cd9249" d="M808.6877,-64.9079C808.6877,-58.9427 808.6877,-52.5729 808.6877,-46.512"/>
<ellipse fill="none" stroke="#cd9249" cx="808.6878" cy="-68.9551" rx="4" ry="4"/>
<polygon fill="#cd9249" stroke="#cd9249" points="808.6878,-46.0904 813.1877,-36.0903 808.6878,-41.0904 808.6877,-36.0904 808.6877,-36.0904 808.6877,-36.0904 808.6878,-41.0904 804.1877,-36.0904 808.6878,-46.0904 808.6878,-46.0904"/>
</g>
<!-- Group -->
<g id="node10" class="node">
<title>Group</title>
<ellipse fill="none" stroke="#000000" cx="498.6877" cy="-444" rx="32.9081" ry="18"/>
<text text-anchor="middle" x="498.6877" y="-439.8" font-family="Times,serif" font-size="14.00" fill="#000000">Group</text>
</g>
<!-- Group&#45;&gt;Appointment -->
<g id="edge9" class="edge">
<title>Group&#45;&gt;Appointment</title>
<path fill="none" stroke="#b05593" d="M478.9206,-421.5502C453.0711,-392.1925 407.91,-340.9025 380.9036,-310.2309"/>
<ellipse fill="none" stroke="#b05593" cx="481.5892" cy="-424.581" rx="4" ry="4"/>
<polygon fill="#b05593" stroke="#b05593" points="380.7337,-310.0379 377.5026,-299.5588 377.4294,-306.2852 374.1252,-302.5326 374.1252,-302.5326 374.1252,-302.5326 377.4294,-306.2852 370.7478,-305.5064 380.7337,-310.0379 380.7337,-310.0379"/>
</g>
<!-- Member -->
<g id="node17" class="node">
<title>Member</title>
<ellipse fill="none" stroke="#000000" cx="524.6877" cy="-285" rx="40.1317" ry="18"/>
<text text-anchor="middle" x="524.6877" y="-280.8" font-family="Times,serif" font-size="14.00" fill="#000000">Member</text>
</g>
<!-- Group&#45;&gt;Member -->
<g id="edge7" class="edge">
<title>Group&#45;&gt;Member</title>
<path fill="none" stroke="#e3a313" d="M516.5733,-420.4115C531.193,-399.3363 550.431,-366.9403 556.6877,-335 557.8839,-328.8938 558.899,-326.816 556.6877,-321 555.0728,-316.7523 552.7014,-312.6857 549.9676,-308.9148"/>
<ellipse fill="none" stroke="#e3a313" cx="514.1339" cy="-423.8465" rx="4" ry="4"/>
<polygon fill="#e3a313" stroke="#e3a313" points="549.9365,-308.8772 547.0222,-298.3056 546.7467,-305.0268 543.5569,-301.1764 543.5569,-301.1764 543.5569,-301.1764 546.7467,-305.0268 540.0915,-304.0472 549.9365,-308.8772 549.9365,-308.8772"/>
</g>
<!-- User -->
<g id="node26" class="node">
<title>User</title>
<ellipse fill="none" stroke="#000000" cx="498.6877" cy="-371" rx="27" ry="18"/>
<text text-anchor="middle" x="498.6877" y="-366.8" font-family="Times,serif" font-size="14.00" fill="#000000">User</text>
</g>
<!-- Group&#45;&gt;User -->
<g id="edge8" class="edge">
<title>Group&#45;&gt;User</title>
<path fill="none" stroke="#f0a44d" d="M498.6877,-415.8688C498.6877,-410.3894 498.6877,-404.6439 498.6877,-399.1634"/>
<polygon fill="#f0a44d" stroke="#f0a44d" points="498.6878,-415.9551 494.1877,-425.955 498.6878,-420.9551 498.6877,-425.9551 498.6877,-425.9551 498.6877,-425.9551 498.6878,-420.9551 503.1877,-425.9551 498.6878,-415.9551 498.6878,-415.9551"/>
<polygon fill="#f0a44d" stroke="#f0a44d" points="498.6878,-399.0904 503.1877,-389.0903 498.6878,-394.0904 498.6877,-389.0904 498.6877,-389.0904 498.6877,-389.0904 498.6878,-394.0904 494.1877,-389.0904 498.6878,-399.0904 498.6878,-399.0904"/>
</g>
<!-- Identity -->
<g id="node11" class="node">
<title>Identity</title>
<ellipse fill="none" stroke="#000000" cx="763.6877" cy="-285" rx="37.7266" ry="18"/>
<text text-anchor="middle" x="763.6877" y="-280.8" font-family="Times,serif" font-size="14.00" fill="#000000">Identity</text>
</g>
<!-- JsonWebToken -->
<g id="node15" class="node">
<title>JsonWebToken</title>
<ellipse fill="none" stroke="#000000" cx="1121.6877" cy="-177" rx="63.5968" ry="18"/>
<text text-anchor="middle" x="1121.6877" y="-172.8" font-family="Times,serif" font-size="14.00" fill="#000000">JsonWebToken</text>
</g>
<!-- Identity&#45;&gt;JsonWebToken -->
<g id="edge11" class="edge">
<title>Identity&#45;&gt;JsonWebToken</title>
<path fill="none" stroke="#a8fb34" d="M803.6747,-272.9369C868.3039,-253.4398 995.7692,-214.9866 1068.1583,-193.1486"/>
<ellipse fill="none" stroke="#a8fb34" cx="799.6025" cy="-274.1654" rx="4" ry="4"/>
<polygon fill="#a8fb34" stroke="#a8fb34" points="1068.421,-193.0694 1079.2946,-194.4893 1073.208,-191.6252 1077.9949,-190.1811 1077.9949,-190.1811 1077.9949,-190.1811 1073.208,-191.6252 1076.6952,-185.8729 1068.421,-193.0694 1068.421,-193.0694"/>
</g>
<!-- Session -->
<g id="node23" class="node">
<title>Session</title>
<ellipse fill="none" stroke="#000000" cx="761.6877" cy="-177" rx="37.2681" ry="18"/>
<text text-anchor="middle" x="761.6877" y="-172.8" font-family="Times,serif" font-size="14.00" fill="#000000">Session</text>
</g>
<!-- Identity&#45;&gt;Session -->
<g id="edge10" class="edge">
<title>Identity&#45;&gt;Session</title>
<path fill="none" stroke="#2028f8" d="M763.2003,-258.6801C762.9005,-242.4879 762.5164,-221.7448 762.2102,-205.2145"/>
<ellipse fill="none" stroke="#2028f8" cx="763.2744" cy="-262.68" rx="4" ry="4"/>
<polygon fill="#2028f8" stroke="#2028f8" points="762.2073,-205.0484 766.5212,-194.9668 762.1146,-200.0493 762.022,-195.0502 762.022,-195.0502 762.022,-195.0502 762.1146,-200.0493 757.5228,-195.1335 762.2073,-205.0484 762.2073,-205.0484"/>
</g>
<!-- IdentityProvider -->
<g id="node12" class="node">
<title>IdentityProvider</title>
<ellipse fill="none" stroke="#000000" cx="765.6877" cy="-371" rx="68.1374" ry="18"/>
<text text-anchor="middle" x="765.6877" y="-366.8" font-family="Times,serif" font-size="14.00" fill="#000000">IdentityProvider</text>
</g>
<!-- IdentityProvider&#45;&gt;Identity -->
<g id="edge12" class="edge">
<title>IdentityProvider&#45;&gt;Identity</title>
<path fill="none" stroke="#8eec91" d="M765.0692,-344.4021C764.8409,-334.585 764.5814,-323.4263 764.3494,-313.4515"/>
<ellipse fill="none" stroke="#8eec91" cx="765.1706" cy="-348.7627" rx="4" ry="4"/>
<polygon fill="#8eec91" stroke="#8eec91" points="764.3439,-313.2094 768.6101,-303.1074 764.2276,-308.2107 764.1113,-303.2121 764.1113,-303.2121 764.1113,-303.2121 764.2276,-308.2107 759.6125,-303.3168 764.3439,-313.2094 764.3439,-313.2094"/>
</g>
<!-- Interface -->
<g id="node14" class="node">
<title>Interface</title>
<ellipse fill="none" stroke="#000000" cx="858.6877" cy="-177" rx="41.542" ry="18"/>
<text text-anchor="middle" x="858.6877" y="-172.8" font-family="Times,serif" font-size="14.00" fill="#000000">Interface</text>
</g>
<!-- Interface&#45;&gt;Dependency -->
<g id="edge18" class="edge">
<title>Interface&#45;&gt;Dependency</title>
<path fill="none" stroke="#7f35d3" d="M824.647,-159.3644C797.5168,-145.309 759.5253,-125.6267 731.2697,-110.9883"/>
<ellipse fill="none" stroke="#7f35d3" cx="828.4653" cy="-161.3426" rx="4" ry="4"/>
<polygon fill="#7f35d3" stroke="#7f35d3" points="730.9696,-110.8328 724.1604,-102.2371 726.53,-108.5327 722.0904,-106.2327 722.0904,-106.2327 722.0904,-106.2327 726.53,-108.5327 720.0203,-110.2283 730.9696,-110.8328 730.9696,-110.8328"/>
</g>
<!-- Interface&#45;&gt;Exposure -->
<g id="edge17" class="edge">
<title>Interface&#45;&gt;Exposure</title>
<path fill="none" stroke="#466c14" d="M837.7196,-153.9743C834.4622,-149.8183 831.3125,-145.4024 828.6877,-141 824.5598,-134.0763 820.9439,-126.1449 817.9632,-118.6699"/>
<ellipse fill="none" stroke="#466c14" cx="840.3307" cy="-157.1589" rx="4" ry="4"/>
<polygon fill="#466c14" stroke="#466c14" points="817.934,-118.5919 818.6344,-107.6484 816.1776,-113.9106 814.4211,-109.2292 814.4211,-109.2292 814.4211,-109.2292 816.1776,-113.9106 810.2079,-110.81 817.934,-118.5919 817.934,-118.5919"/>
</g>
<!-- Interface&#45;&gt;Interface -->
<g id="edge16" class="edge">
<title>Interface&#45;&gt;Interface</title>
<path fill="none" stroke="#9ae061" d="M904.2966,-184.4201C912.4842,-183.4615 918.2087,-180.9881 918.2087,-177 918.2087,-173.3374 913.3807,-170.9524 906.2507,-169.845"/>
<ellipse fill="none" stroke="#9ae061" cx="900.1723" cy="-184.6509" rx="4" ry="4"/>
<polygon fill="#9ae061" stroke="#9ae061" points="906.1531,-169.8381 896.4992,-164.6369 901.1658,-169.4818 896.1785,-169.1255 896.1785,-169.1255 896.1785,-169.1255 901.1658,-169.4818 895.8579,-173.614 906.1531,-169.8381 906.1531,-169.8381"/>
<text text-anchor="middle" x="979.2468" y="-172.8" font-family="Times,serif" font-size="14.00" fill="#000000">substituted_interfaces</text>
</g>
<!-- Surrogate -->
<g id="node24" class="node">
<title>Surrogate</title>
<ellipse fill="none" stroke="#000000" cx="914.6877" cy="-91" rx="44.475" ry="18"/>
<text text-anchor="middle" x="914.6877" y="-86.8" font-family="Times,serif" font-size="14.00" fill="#000000">Surrogate</text>
</g>
<!-- Interface&#45;&gt;Surrogate -->
<g id="edge13" class="edge">
<title>Interface&#45;&gt;Surrogate</title>
<path fill="none" stroke="#3a767e" d="M848.868,-151.3499C847.2867,-143.1294 847.3428,-134.2785 851.5706,-127 856.2702,-118.9091 863.545,-112.4846 871.5081,-107.4401"/>
<ellipse fill="none" stroke="#3a767e" cx="849.9077" cy="-155.4039" rx="4" ry="4"/>
<polygon fill="#3a767e" stroke="#3a767e" points="871.6072,-107.3845 882.5306,-106.4194 875.9686,-104.9394 880.3299,-102.4942 880.3299,-102.4942 880.3299,-102.4942 875.9686,-104.9394 878.1293,-98.569 871.6072,-107.3845 871.6072,-107.3845"/>
<text text-anchor="middle" x="880.2463" y="-129.8" font-family="Times,serif" font-size="14.00" fill="#000000">substitutes</text>
</g>
<!-- Interface&#45;&gt;Surrogate -->
<g id="edge14" class="edge">
<title>Interface&#45;&gt;Surrogate</title>
<path fill="none" stroke="#35d6c3" d="M893.7496,-159.1612C900.4127,-154.1809 906.5777,-148.1362 910.6877,-141 914.4098,-134.5374 916.0892,-126.8031 916.6761,-119.3711"/>
<ellipse fill="none" stroke="#35d6c3" cx="890.2809" cy="-161.5311" rx="4" ry="4"/>
<polygon fill="#35d6c3" stroke="#35d6c3" points="916.6788,-119.2282 921.3765,-109.3195 916.7781,-114.2292 916.8773,-109.2301 916.8773,-109.2301 916.8773,-109.2301 916.7781,-114.2292 912.3782,-109.1408 916.6788,-119.2282 916.6788,-119.2282"/>
</g>
<!-- SurrogatedInterface -->
<g id="node27" class="node">
<title>SurrogatedInterface</title>
<ellipse fill="none" stroke="#000000" cx="1057.6877" cy="-91" rx="80.1472" ry="18"/>
<text text-anchor="middle" x="1057.6877" y="-86.8" font-family="Times,serif" font-size="14.00" fill="#000000">SurrogatedInterface</text>
</g>
<!-- Interface&#45;&gt;SurrogatedInterface -->
<g id="edge15" class="edge">
<title>Interface&#45;&gt;SurrogatedInterface</title>
<path fill="none" stroke="#3ddc78" d="M898.0565,-159.9864C930.5938,-145.925 976.8582,-125.9314 1011.2108,-111.0855"/>
<polygon fill="#3ddc78" stroke="#3ddc78" points="897.6595,-160.1579 886.6949,-159.9942 893.0698,-162.1414 888.4801,-164.1249 888.4801,-164.1249 888.4801,-164.1249 893.0698,-162.1414 890.2652,-168.2557 897.6595,-160.1579 897.6595,-160.1579"/>
<polygon fill="#3ddc78" stroke="#3ddc78" points="1011.3833,-111.011 1022.3479,-111.1747 1015.973,-109.0275 1020.5627,-107.044 1020.5627,-107.044 1020.5627,-107.044 1015.973,-109.0275 1018.7776,-102.9132 1011.3833,-111.011 1011.3833,-111.011"/>
</g>
<!-- License -->
<g id="node16" class="node">
<title>License</title>
<ellipse fill="none" stroke="#000000" cx="641.6877" cy="-371" rx="37.7092" ry="18"/>
<text text-anchor="middle" x="641.6877" y="-366.8" font-family="Times,serif" font-size="14.00" fill="#000000">License</text>
</g>
<!-- Service -->
<g id="node22" class="node">
<title>Service</title>
<ellipse fill="none" stroke="#000000" cx="625.6877" cy="-285" rx="36.7489" ry="18"/>
<text text-anchor="middle" x="625.6877" y="-280.8" font-family="Times,serif" font-size="14.00" fill="#000000">Service</text>
</g>
<!-- License&#45;&gt;Service -->
<g id="edge19" class="edge">
<title>License&#45;&gt;Service</title>
<path fill="none" stroke="#e07f42" d="M636.8102,-344.7834C634.9535,-334.8033 632.8305,-323.3925 630.9405,-313.2334"/>
<ellipse fill="none" stroke="#e07f42" cx="637.5629" cy="-348.8291" rx="4" ry="4"/>
<polygon fill="#e07f42" stroke="#e07f42" points="630.9052,-313.0434 633.5001,-302.389 629.9906,-308.1277 629.076,-303.2121 629.076,-303.2121 629.076,-303.2121 629.9906,-308.1277 624.652,-304.0352 630.9052,-313.0434 630.9052,-313.0434"/>
</g>
<!-- Platform -->
<g id="node19" class="node">
<title>Platform</title>
<ellipse fill="none" stroke="#000000" cx="443.6877" cy="-231" rx="41.1093" ry="18"/>
<text text-anchor="middle" x="443.6877" y="-226.8" font-family="Times,serif" font-size="14.00" fill="#000000">Platform</text>
</g>
<!-- Platform&#45;&gt;Instance -->
<g id="edge20" class="edge">
<title>Platform&#45;&gt;Instance</title>
<path fill="none" stroke="#192a8a" d="M443.6877,-204.892C443.6877,-180.6771 443.6877,-144.7148 443.6877,-119.7025"/>
<ellipse fill="none" stroke="#192a8a" cx="443.6878" cy="-208.9841" rx="4" ry="4"/>
<polygon fill="#192a8a" stroke="#192a8a" points="443.6878,-119.3914 448.1877,-109.3913 443.6878,-114.3914 443.6877,-109.3914 443.6877,-109.3914 443.6877,-109.3914 443.6878,-114.3914 439.1877,-109.3914 443.6878,-119.3914 443.6878,-119.3914"/>
</g>
<!-- Role -->
<g id="node20" class="node">
<title>Role</title>
<ellipse fill="none" stroke="#000000" cx="498.6877" cy="-535.5" rx="27" ry="18"/>
<text text-anchor="middle" x="498.6877" y="-531.3" font-family="Times,serif" font-size="14.00" fill="#000000">Role</text>
</g>
<!-- Role&#45;&gt;Appointment -->
<g id="edge21" class="edge">
<title>Role&#45;&gt;Appointment</title>
<path fill="none" stroke="#b064c3" d="M484.9171,-511.5055C476.6965,-497.1558 466.0647,-478.5516 456.6877,-462 438.3455,-429.6233 433.7414,-421.5385 415.6877,-389 401.2211,-362.9266 384.881,-333.0706 373.4166,-312.0558"/>
<ellipse fill="none" stroke="#b064c3" cx="486.9876" cy="-515.1179" rx="4" ry="4"/>
<polygon fill="#b064c3" stroke="#b064c3" points="373.3032,-311.8478 372.4675,-300.9138 370.9099,-307.4578 368.5165,-303.0678 368.5165,-303.0678 368.5165,-303.0678 370.9099,-307.4578 364.5655,-305.2218 373.3032,-311.8478 373.3032,-311.8478"/>
</g>
<!-- Role&#45;&gt;Group -->
<g id="edge23" class="edge">
<title>Role&#45;&gt;Group</title>
<path fill="none" stroke="#3e343d" d="M498.6877,-507.2998C498.6877,-496.1245 498.6877,-483.3026 498.6877,-472.1338"/>
<polygon fill="#3e343d" stroke="#3e343d" points="498.6878,-507.4225 494.1877,-517.4225 498.6878,-512.4225 498.6877,-517.4225 498.6877,-517.4225 498.6877,-517.4225 498.6878,-512.4225 503.1877,-517.4226 498.6878,-507.4225 498.6878,-507.4225"/>
<polygon fill="#3e343d" stroke="#3e343d" points="498.6878,-472.0399 503.1877,-462.0399 498.6878,-467.0399 498.6877,-462.0399 498.6877,-462.0399 498.6877,-462.0399 498.6878,-467.0399 494.1877,-462.0399 498.6878,-472.0399 498.6878,-472.0399"/>
</g>
<!-- Role&#45;&gt;User -->
<g id="edge22" class="edge">
<title>Role&#45;&gt;User</title>
<path fill="none" stroke="#0ec0b2" d="M518.0141,-511.5598C533.3826,-489.5102 550.7643,-455.7983 540.6877,-426 536.6395,-414.0284 528.8271,-402.6091 521.0274,-393.3095"/>
<polygon fill="#0ec0b2" stroke="#0ec0b2" points="517.9729,-511.6162 508.4371,-517.031 515.0211,-515.6519 512.0693,-519.6876 512.0693,-519.6876 512.0693,-519.6876 515.0211,-515.6519 515.7014,-522.3442 517.9729,-511.6162 517.9729,-511.6162"/>
<polygon fill="#0ec0b2" stroke="#0ec0b2" points="520.9215,-393.1905 517.6321,-382.7296 517.5964,-389.4563 514.2713,-385.7221 514.2713,-385.7221 514.2713,-385.7221 517.5964,-389.4563 510.9105,-388.7147 520.9215,-393.1905 520.9215,-393.1905"/>
</g>
<!-- Screenshot -->
<g id="node21" class="node">
<title>Screenshot</title>
<ellipse fill="none" stroke="#000000" cx="657.6877" cy="-177" rx="48.8187" ry="18"/>
<text text-anchor="middle" x="657.6877" y="-172.8" font-family="Times,serif" font-size="14.00" fill="#000000">Screenshot</text>
</g>
<!-- Service&#45;&gt;Build -->
<g id="edge24" class="edge">
<title>Service&#45;&gt;Build</title>
<path fill="none" stroke="#eadad6" d="M610.9796,-260.5619C600.5663,-243.2597 586.6304,-220.1048 576.0695,-202.5573"/>
<ellipse fill="none" stroke="#eadad6" cx="613.1817" cy="-264.2208" rx="4" ry="4"/>
<polygon fill="#eadad6" stroke="#eadad6" points="576.0476,-202.5209 574.7465,-191.6324 573.4692,-198.2369 570.8909,-193.9529 570.8909,-193.9529 570.8909,-193.9529 573.4692,-198.2369 567.0353,-196.2734 576.0476,-202.5209 576.0476,-202.5209"/>
</g>
<!-- Service&#45;&gt;Screenshot -->
<g id="edge25" class="edge">
<title>Service&#45;&gt;Screenshot</title>
<path fill="none" stroke="#52301e" d="M633.2582,-259.4498C638.1045,-243.0935 644.395,-221.8631 649.379,-205.0421"/>
<ellipse fill="none" stroke="#52301e" cx="632.1083" cy="-263.3308" rx="4" ry="4"/>
<polygon fill="#52301e" stroke="#52301e" points="649.4478,-204.8095 656.6034,-196.4999 650.8683,-200.0155 652.2888,-195.2215 652.2888,-195.2215 652.2888,-195.2215 650.8683,-200.0155 647.9742,-193.943 649.4478,-204.8095 649.4478,-204.8095"/>
</g>
<!-- User&#45;&gt;Appointment -->
<g id="edge27" class="edge">
<title>User&#45;&gt;Appointment</title>
<path fill="none" stroke="#485dca" d="M469.9138,-356.0703C458.2208,-349.8062 444.6687,-342.2926 432.6877,-335 418.5908,-326.4194 403.424,-316.3306 390.5138,-307.4711"/>
<ellipse fill="none" stroke="#485dca" cx="473.7618" cy="-358.1146" rx="4" ry="4"/>
<polygon fill="#485dca" stroke="#485dca" points="390.2022,-307.2557 384.537,-297.8665 386.0898,-304.4116 381.9774,-301.5676 381.9774,-301.5676 381.9774,-301.5676 386.0898,-304.4116 379.4178,-305.2688 390.2022,-307.2557 390.2022,-307.2557"/>
</g>
<!-- User&#45;&gt;Identity -->
<g id="edge28" class="edge">
<title>User&#45;&gt;Identity</title>
<path fill="none" stroke="#888ac6" d="M530.9461,-360.5313C579.1302,-344.8942 669.8723,-315.4458 722.693,-298.304"/>
<ellipse fill="none" stroke="#888ac6" cx="526.948" cy="-361.8287" rx="4" ry="4"/>
<polygon fill="#888ac6" stroke="#888ac6" points="722.9,-298.2368 733.8008,-299.4302 727.6558,-296.6934 732.4117,-295.15 732.4117,-295.15 732.4117,-295.15 727.6558,-296.6934 731.0226,-290.8697 722.9,-298.2368 722.9,-298.2368"/>
</g>
<!-- User&#45;&gt;Member -->
<g id="edge26" class="edge">
<title>User&#45;&gt;Member</title>
<path fill="none" stroke="#2fb6af" d="M480.817,-348.1036C476.2819,-339.4955 473.7604,-329.6925 478.0325,-321 480.9347,-315.0949 485.3232,-309.8848 490.268,-305.3931"/>
<ellipse fill="none" stroke="#2fb6af" cx="482.9231" cy="-351.5814" rx="4" ry="4"/>
<polygon fill="#2fb6af" stroke="#2fb6af" points="490.5484,-305.1692 501.1708,-302.4459 494.4556,-302.0493 498.3629,-298.9294 498.3629,-298.9294 498.3629,-298.9294 494.4556,-302.0493 495.555,-295.4129 490.5484,-305.1692 490.5484,-305.1692"/>
<text text-anchor="middle" x="515.0154" y="-323.8" font-family="Times,serif" font-size="14.00" fill="#000000">memberships</text>
</g>
<!-- User&#45;&gt;Platform -->
<g id="edge29" class="edge">
<title>User&#45;&gt;Platform</title>
<path fill="none" stroke="#127076" d="M480.0072,-348.7895C476.9161,-344.4056 473.9777,-339.7015 471.6877,-335 459.8502,-310.6964 452.4529,-280.6741 448.2559,-259.1437"/>
<ellipse fill="none" stroke="#127076" cx="482.5262" cy="-352.1635" rx="4" ry="4"/>
<polygon fill="#127076" stroke="#127076" points="448.2043,-258.862 450.8227,-248.2133 447.3005,-253.9443 446.3968,-249.0266 446.3968,-249.0266 446.3968,-249.0266 447.3005,-253.9443 441.9709,-249.84 448.2043,-258.862 448.2043,-258.862"/>
</g>
<!-- User&#45;&gt;Service -->
<g id="edge30" class="edge">
<title>User&#45;&gt;Service</title>
<path fill="none" stroke="#ce894c" d="M524.8098,-353.6806C533.675,-347.7774 543.6271,-341.1228 552.6877,-335 566.9916,-325.334 582.8051,-314.5188 596.0463,-305.4262"/>
<ellipse fill="none" stroke="#ce894c" cx="521.3015" cy="-356.0139" rx="4" ry="4"/>
<polygon fill="#ce894c" stroke="#ce894c" points="596.0935,-305.3938 606.8835,-303.4377 600.2139,-302.5615 604.3344,-299.7292 604.3344,-299.7292 604.3344,-299.7292 600.2139,-302.5615 601.7853,-296.0208 596.0935,-305.3938 596.0935,-305.3938"/>
</g>
</g>
</svg>
